<?xml version="1.0" encoding="utf-8" standalone="no"?>
<!DOCTYPE svg PUBLIC "-//W3C//DTD SVG 1.1//EN"
  "http://www.w3.org/Graphics/SVG/1.1/DTD/svg11.dtd">
<svg xmlns:xlink="http://www.w3.org/1999/xlink" width="288pt" height="1080pt" viewBox="0 0 288 1080" xmlns="http://www.w3.org/2000/svg" version="1.1">
 <metadata>
  <rdf:RDF xmlns:dc="http://purl.org/dc/elements/1.1/" xmlns:cc="http://creativecommons.org/ns#" xmlns:rdf="http://www.w3.org/1999/02/22-rdf-syntax-ns#">
   <cc:Work>
    <dc:type rdf:resource="http://purl.org/dc/dcmitype/StillImage"/>
    <dc:date>2026-07-22T16:25:24.951367</dc:date>
    <dc:format>image/svg+xml</dc:format>
    <dc:creator>
     <cc:Agent>
      <dc:title>Matplotlib v3.7.5, https://matplotlib.org/</dc:title>
     </cc:Agent>
    </dc:creator>
   </cc:Work>
  </rdf:RDF>
 </metadata>
 <defs>
  <style type="text/css">*{stroke-linejoin: round; stroke-linecap: butt}</style>
 </defs>
 <g id="figure_1">
  <g id="patch_1">
   <path d="M 0 1080 
L 288 1080 
L 288 0 
L 0 0 
z
" style="fill: #ffffff"/>
  </g>
  <g id="axes_1">
   <g id="patch_2">
    <path d="M 36 374.188235 
L 259.2 374.188235 
L 259.2 129.6 
L 36 129.6 
z
" style="fill: #ffffff"/>
   </g>
   <g id="matplotlib.axis_1">
    <g id="xtick_1">
     <g id="line2d_1">
      <defs>
       <path id="mc57dbf860b" d="M 0 0 
L 0 3.5 
" style="stroke: #000000; stroke-width: 0.8"/>
      </defs>
      <g>
       <use xlink:href="#mc57dbf860b" x="46.145455" y="374.188235" style="stroke: #000000; stroke-width: 0.8"/>
      </g>
     </g>
     <g id="text_1">
      <!-- 0.0 -->
      <g transform="translate(38.193892 388.786673) scale(0.1 -0.1)">
       <defs>
        <path id="DejaVuSans-30" d="M 2034 4250 
Q 1547 4250 1301 3770 
Q 1056 3291 1056 2328 
Q 1056 1369 1301 889 
Q 1547 409 2034 409 
Q 2525 409 2770 889 
Q 3016 1369 3016 2328 
Q 3016 3291 2770 3770 
Q 2525 4250 2034 4250 
z
M 2034 4750 
Q 2819 4750 3233 4129 
Q 3647 3509 3647 2328 
Q 3647 1150 3233 529 
Q 2819 -91 2034 -91 
Q 1250 -91 836 529 
Q 422 1150 422 2328 
Q 422 3509 836 4129 
Q 1250 4750 2034 4750 
z
" transform="scale(0.015625)"/>
        <path id="DejaVuSans-2e" d="M 684 794 
L 1344 794 
L 1344 0 
L 684 0 
L 684 794 
z
" transform="scale(0.015625)"/>
       </defs>
       <use xlink:href="#DejaVuSans-30"/>
       <use xlink:href="#DejaVuSans-2e" x="63.623047"/>
       <use xlink:href="#DejaVuSans-30" x="95.410156"/>
      </g>
     </g>
    </g>
    <g id="xtick_2">
     <g id="line2d_2">
      <g>
       <use xlink:href="#mc57dbf860b" x="86.727273" y="374.188235" style="stroke: #000000; stroke-width: 0.8"/>
      </g>
     </g>
     <g id="text_2">
      <!-- 0.2 -->
      <g transform="translate(78.77571 388.786673) scale(0.1 -0.1)">
       <defs>
        <path id="DejaVuSans-32" d="M 1228 531 
L 3431 531 
L 3431 0 
L 469 0 
L 469 531 
Q 828 903 1448 1529 
Q 2069 2156 2228 2338 
Q 2531 2678 2651 2914 
Q 2772 3150 2772 3378 
Q 2772 3750 2511 3984 
Q 2250 4219 1831 4219 
Q 1534 4219 1204 4116 
Q 875 4013 500 3803 
L 500 4441 
Q 881 4594 1212 4672 
Q 1544 4750 1819 4750 
Q 2544 4750 2975 4387 
Q 3406 4025 3406 3419 
Q 3406 3131 3298 2873 
Q 3191 2616 2906 2266 
Q 2828 2175 2409 1742 
Q 1991 1309 1228 531 
z
" transform="scale(0.015625)"/>
       </defs>
       <use xlink:href="#DejaVuSans-30"/>
       <use xlink:href="#DejaVuSans-2e" x="63.623047"/>
       <use xlink:href="#DejaVuSans-32" x="95.410156"/>
      </g>
     </g>
    </g>
    <g id="xtick_3">
     <g id="line2d_3">
      <g>
       <use xlink:href="#mc57dbf860b" x="127.309091" y="374.188235" style="stroke: #000000; stroke-width: 0.8"/>
      </g>
     </g>
     <g id="text_3">
      <!-- 0.4 -->
      <g transform="translate(119.357528 388.786673) scale(0.1 -0.1)">
       <defs>
        <path id="DejaVuSans-34" d="M 2419 4116 
L 825 1625 
L 2419 1625 
L 2419 4116 
z
M 2253 4666 
L 3047 4666 
L 3047 1625 
L 3713 1625 
L 3713 1100 
L 3047 1100 
L 3047 0 
L 2419 0 
L 2419 1100 
L 313 1100 
L 313 1709 
L 2253 4666 
z
" transform="scale(0.015625)"/>
       </defs>
       <use xlink:href="#DejaVuSans-30"/>
       <use xlink:href="#DejaVuSans-2e" x="63.623047"/>
       <use xlink:href="#DejaVuSans-34" x="95.410156"/>
      </g>
     </g>
    </g>
    <g id="xtick_4">
     <g id="line2d_4">
      <g>
       <use xlink:href="#mc57dbf860b" x="167.890909" y="374.188235" style="stroke: #000000; stroke-width: 0.8"/>
      </g>
     </g>
     <g id="text_4">
      <!-- 0.6 -->
      <g transform="translate(159.939347 388.786673) scale(0.1 -0.1)">
       <defs>
        <path id="DejaVuSans-36" d="M 2113 2584 
Q 1688 2584 1439 2293 
Q 1191 2003 1191 1497 
Q 1191 994 1439 701 
Q 1688 409 2113 409 
Q 2538 409 2786 701 
Q 3034 994 3034 1497 
Q 3034 2003 2786 2293 
Q 2538 2584 2113 2584 
z
M 3366 4563 
L 3366 3988 
Q 3128 4100 2886 4159 
Q 2644 4219 2406 4219 
Q 1781 4219 1451 3797 
Q 1122 3375 1075 2522 
Q 1259 2794 1537 2939 
Q 1816 3084 2150 3084 
Q 2853 3084 3261 2657 
Q 3669 2231 3669 1497 
Q 3669 778 3244 343 
Q 2819 -91 2113 -91 
Q 1303 -91 875 529 
Q 447 1150 447 2328 
Q 447 3434 972 4092 
Q 1497 4750 2381 4750 
Q 2619 4750 2861 4703 
Q 3103 4656 3366 4563 
z
" transform="scale(0.015625)"/>
       </defs>
       <use xlink:href="#DejaVuSans-30"/>
       <use xlink:href="#DejaVuSans-2e" x="63.623047"/>
       <use xlink:href="#DejaVuSans-36" x="95.410156"/>
      </g>
     </g>
    </g>
    <g id="xtick_5">
     <g id="line2d_5">
      <g>
       <use xlink:href="#mc57dbf860b" x="208.472727" y="374.188235" style="stroke: #000000; stroke-width: 0.8"/>
      </g>
     </g>
     <g id="text_5">
      <!-- 0.8 -->
      <g transform="translate(200.521165 388.786673) scale(0.1 -0.1)">
       <defs>
        <path id="DejaVuSans-38" d="M 2034 2216 
Q 1584 2216 1326 1975 
Q 1069 1734 1069 1313 
Q 1069 891 1326 650 
Q 1584 409 2034 409 
Q 2484 409 2743 651 
Q 3003 894 3003 1313 
Q 3003 1734 2745 1975 
Q 2488 2216 2034 2216 
z
M 1403 2484 
Q 997 2584 770 2862 
Q 544 3141 544 3541 
Q 544 4100 942 4425 
Q 1341 4750 2034 4750 
Q 2731 4750 3128 4425 
Q 3525 4100 3525 3541 
Q 3525 3141 3298 2862 
Q 3072 2584 2669 2484 
Q 3125 2378 3379 2068 
Q 3634 1759 3634 1313 
Q 3634 634 3220 271 
Q 2806 -91 2034 -91 
Q 1263 -91 848 271 
Q 434 634 434 1313 
Q 434 1759 690 2068 
Q 947 2378 1403 2484 
z
M 1172 3481 
Q 1172 3119 1398 2916 
Q 1625 2713 2034 2713 
Q 2441 2713 2670 2916 
Q 2900 3119 2900 3481 
Q 2900 3844 2670 4047 
Q 2441 4250 2034 4250 
Q 1625 4250 1398 4047 
Q 1172 3844 1172 3481 
z
" transform="scale(0.015625)"/>
       </defs>
       <use xlink:href="#DejaVuSans-30"/>
       <use xlink:href="#DejaVuSans-2e" x="63.623047"/>
       <use xlink:href="#DejaVuSans-38" x="95.410156"/>
      </g>
     </g>
    </g>
    <g id="xtick_6">
     <g id="line2d_6">
      <g>
       <use xlink:href="#mc57dbf860b" x="249.054545" y="374.188235" style="stroke: #000000; stroke-width: 0.8"/>
      </g>
     </g>
     <g id="text_6">
      <!-- 1.0 -->
      <g transform="translate(241.102983 388.786673) scale(0.1 -0.1)">
       <defs>
        <path id="DejaVuSans-31" d="M 794 531 
L 1825 531 
L 1825 4091 
L 703 3866 
L 703 4441 
L 1819 4666 
L 2450 4666 
L 2450 531 
L 3481 531 
L 3481 0 
L 794 0 
L 794 531 
z
" transform="scale(0.015625)"/>
       </defs>
       <use xlink:href="#DejaVuSans-31"/>
       <use xlink:href="#DejaVuSans-2e" x="63.623047"/>
       <use xlink:href="#DejaVuSans-30" x="95.410156"/>
      </g>
     </g>
    </g>
    <g id="text_7">
     <!-- Fibration Threshold -->
     <g transform="translate(99.599219 402.464798) scale(0.1 -0.1)">
      <defs>
       <path id="DejaVuSans-46" d="M 628 4666 
L 3309 4666 
L 3309 4134 
L 1259 4134 
L 1259 2759 
L 3109 2759 
L 3109 2228 
L 1259 2228 
L 1259 0 
L 628 0 
L 628 4666 
z
" transform="scale(0.015625)"/>
       <path id="DejaVuSans-69" d="M 603 3500 
L 1178 3500 
L 1178 0 
L 603 0 
L 603 3500 
z
M 603 4863 
L 1178 4863 
L 1178 4134 
L 603 4134 
L 603 4863 
z
" transform="scale(0.015625)"/>
       <path id="DejaVuSans-62" d="M 3116 1747 
Q 3116 2381 2855 2742 
Q 2594 3103 2138 3103 
Q 1681 3103 1420 2742 
Q 1159 2381 1159 1747 
Q 1159 1113 1420 752 
Q 1681 391 2138 391 
Q 2594 391 2855 752 
Q 3116 1113 3116 1747 
z
M 1159 2969 
Q 1341 3281 1617 3432 
Q 1894 3584 2278 3584 
Q 2916 3584 3314 3078 
Q 3713 2572 3713 1747 
Q 3713 922 3314 415 
Q 2916 -91 2278 -91 
Q 1894 -91 1617 61 
Q 1341 213 1159 525 
L 1159 0 
L 581 0 
L 581 4863 
L 1159 4863 
L 1159 2969 
z
" transform="scale(0.015625)"/>
       <path id="DejaVuSans-72" d="M 2631 2963 
Q 2534 3019 2420 3045 
Q 2306 3072 2169 3072 
Q 1681 3072 1420 2755 
Q 1159 2438 1159 1844 
L 1159 0 
L 581 0 
L 581 3500 
L 1159 3500 
L 1159 2956 
Q 1341 3275 1631 3429 
Q 1922 3584 2338 3584 
Q 2397 3584 2469 3576 
Q 2541 3569 2628 3553 
L 2631 2963 
z
" transform="scale(0.015625)"/>
       <path id="DejaVuSans-61" d="M 2194 1759 
Q 1497 1759 1228 1600 
Q 959 1441 959 1056 
Q 959 750 1161 570 
Q 1363 391 1709 391 
Q 2188 391 2477 730 
Q 2766 1069 2766 1631 
L 2766 1759 
L 2194 1759 
z
M 3341 1997 
L 3341 0 
L 2766 0 
L 2766 531 
Q 2569 213 2275 61 
Q 1981 -91 1556 -91 
Q 1019 -91 701 211 
Q 384 513 384 1019 
Q 384 1609 779 1909 
Q 1175 2209 1959 2209 
L 2766 2209 
L 2766 2266 
Q 2766 2663 2505 2880 
Q 2244 3097 1772 3097 
Q 1472 3097 1187 3025 
Q 903 2953 641 2809 
L 641 3341 
Q 956 3463 1253 3523 
Q 1550 3584 1831 3584 
Q 2591 3584 2966 3190 
Q 3341 2797 3341 1997 
z
" transform="scale(0.015625)"/>
       <path id="DejaVuSans-74" d="M 1172 4494 
L 1172 3500 
L 2356 3500 
L 2356 3053 
L 1172 3053 
L 1172 1153 
Q 1172 725 1289 603 
Q 1406 481 1766 481 
L 2356 481 
L 2356 0 
L 1766 0 
Q 1100 0 847 248 
Q 594 497 594 1153 
L 594 3053 
L 172 3053 
L 172 3500 
L 594 3500 
L 594 4494 
L 1172 4494 
z
" transform="scale(0.015625)"/>
       <path id="DejaVuSans-6f" d="M 1959 3097 
Q 1497 3097 1228 2736 
Q 959 2375 959 1747 
Q 959 1119 1226 758 
Q 1494 397 1959 397 
Q 2419 397 2687 759 
Q 2956 1122 2956 1747 
Q 2956 2369 2687 2733 
Q 2419 3097 1959 3097 
z
M 1959 3584 
Q 2709 3584 3137 3096 
Q 3566 2609 3566 1747 
Q 3566 888 3137 398 
Q 2709 -91 1959 -91 
Q 1206 -91 779 398 
Q 353 888 353 1747 
Q 353 2609 779 3096 
Q 1206 3584 1959 3584 
z
" transform="scale(0.015625)"/>
       <path id="DejaVuSans-6e" d="M 3513 2113 
L 3513 0 
L 2938 0 
L 2938 2094 
Q 2938 2591 2744 2837 
Q 2550 3084 2163 3084 
Q 1697 3084 1428 2787 
Q 1159 2491 1159 1978 
L 1159 0 
L 581 0 
L 581 3500 
L 1159 3500 
L 1159 2956 
Q 1366 3272 1645 3428 
Q 1925 3584 2291 3584 
Q 2894 3584 3203 3211 
Q 3513 2838 3513 2113 
z
" transform="scale(0.015625)"/>
       <path id="DejaVuSans-20" transform="scale(0.015625)"/>
       <path id="DejaVuSans-54" d="M -19 4666 
L 3928 4666 
L 3928 4134 
L 2272 4134 
L 2272 0 
L 1638 0 
L 1638 4134 
L -19 4134 
L -19 4666 
z
" transform="scale(0.015625)"/>
       <path id="DejaVuSans-68" d="M 3513 2113 
L 3513 0 
L 2938 0 
L 2938 2094 
Q 2938 2591 2744 2837 
Q 2550 3084 2163 3084 
Q 1697 3084 1428 2787 
Q 1159 2491 1159 1978 
L 1159 0 
L 581 0 
L 581 4863 
L 1159 4863 
L 1159 2956 
Q 1366 3272 1645 3428 
Q 1925 3584 2291 3584 
Q 2894 3584 3203 3211 
Q 3513 2838 3513 2113 
z
" transform="scale(0.015625)"/>
       <path id="DejaVuSans-65" d="M 3597 1894 
L 3597 1613 
L 953 1613 
Q 991 1019 1311 708 
Q 1631 397 2203 397 
Q 2534 397 2845 478 
Q 3156 559 3463 722 
L 3463 178 
Q 3153 47 2828 -22 
Q 2503 -91 2169 -91 
Q 1331 -91 842 396 
Q 353 884 353 1716 
Q 353 2575 817 3079 
Q 1281 3584 2069 3584 
Q 2775 3584 3186 3129 
Q 3597 2675 3597 1894 
z
M 3022 2063 
Q 3016 2534 2758 2815 
Q 2500 3097 2075 3097 
Q 1594 3097 1305 2825 
Q 1016 2553 972 2059 
L 3022 2063 
z
" transform="scale(0.015625)"/>
       <path id="DejaVuSans-73" d="M 2834 3397 
L 2834 2853 
Q 2591 2978 2328 3040 
Q 2066 3103 1784 3103 
Q 1356 3103 1142 2972 
Q 928 2841 928 2578 
Q 928 2378 1081 2264 
Q 1234 2150 1697 2047 
L 1894 2003 
Q 2506 1872 2764 1633 
Q 3022 1394 3022 966 
Q 3022 478 2636 193 
Q 2250 -91 1575 -91 
Q 1294 -91 989 -36 
Q 684 19 347 128 
L 347 722 
Q 666 556 975 473 
Q 1284 391 1588 391 
Q 1994 391 2212 530 
Q 2431 669 2431 922 
Q 2431 1156 2273 1281 
Q 2116 1406 1581 1522 
L 1381 1569 
Q 847 1681 609 1914 
Q 372 2147 372 2553 
Q 372 3047 722 3315 
Q 1072 3584 1716 3584 
Q 2034 3584 2315 3537 
Q 2597 3491 2834 3397 
z
" transform="scale(0.015625)"/>
       <path id="DejaVuSans-6c" d="M 603 4863 
L 1178 4863 
L 1178 0 
L 603 0 
L 603 4863 
z
" transform="scale(0.015625)"/>
       <path id="DejaVuSans-64" d="M 2906 2969 
L 2906 4863 
L 3481 4863 
L 3481 0 
L 2906 0 
L 2906 525 
Q 2725 213 2448 61 
Q 2172 -91 1784 -91 
Q 1150 -91 751 415 
Q 353 922 353 1747 
Q 353 2572 751 3078 
Q 1150 3584 1784 3584 
Q 2172 3584 2448 3432 
Q 2725 3281 2906 2969 
z
M 947 1747 
Q 947 1113 1208 752 
Q 1469 391 1925 391 
Q 2381 391 2643 752 
Q 2906 1113 2906 1747 
Q 2906 2381 2643 2742 
Q 2381 3103 1925 3103 
Q 1469 3103 1208 2742 
Q 947 2381 947 1747 
z
" transform="scale(0.015625)"/>
      </defs>
      <use xlink:href="#DejaVuSans-46"/>
      <use xlink:href="#DejaVuSans-69" x="50.269531"/>
      <use xlink:href="#DejaVuSans-62" x="78.052734"/>
      <use xlink:href="#DejaVuSans-72" x="141.529297"/>
      <use xlink:href="#DejaVuSans-61" x="182.642578"/>
      <use xlink:href="#DejaVuSans-74" x="243.921875"/>
      <use xlink:href="#DejaVuSans-69" x="283.130859"/>
      <use xlink:href="#DejaVuSans-6f" x="310.914062"/>
      <use xlink:href="#DejaVuSans-6e" x="372.095703"/>
      <use xlink:href="#DejaVuSans-20" x="435.474609"/>
      <use xlink:href="#DejaVuSans-54" x="467.261719"/>
      <use xlink:href="#DejaVuSans-68" x="528.345703"/>
      <use xlink:href="#DejaVuSans-72" x="591.724609"/>
      <use xlink:href="#DejaVuSans-65" x="630.587891"/>
      <use xlink:href="#DejaVuSans-73" x="692.111328"/>
      <use xlink:href="#DejaVuSans-68" x="744.210938"/>
      <use xlink:href="#DejaVuSans-6f" x="807.589844"/>
      <use xlink:href="#DejaVuSans-6c" x="868.771484"/>
      <use xlink:href="#DejaVuSans-64" x="896.554688"/>
     </g>
    </g>
   </g>
   <g id="matplotlib.axis_2">
    <g id="ytick_1">
     <g id="line2d_7">
      <defs>
       <path id="mb09616834c" d="M 0 0 
L -3.5 0 
" style="stroke: #000000; stroke-width: 0.8"/>
      </defs>
      <g>
       <use xlink:href="#mb09616834c" x="36" y="363.070588" style="stroke: #000000; stroke-width: 0.8"/>
      </g>
     </g>
     <g id="text_8">
      <!-- 0.00 -->
      <g transform="translate(6.734375 366.869807) scale(0.1 -0.1)">
       <use xlink:href="#DejaVuSans-30"/>
       <use xlink:href="#DejaVuSans-2e" x="63.623047"/>
       <use xlink:href="#DejaVuSans-30" x="95.410156"/>
       <use xlink:href="#DejaVuSans-30" x="159.033203"/>
      </g>
     </g>
    </g>
    <g id="ytick_2">
     <g id="line2d_8">
      <g>
       <use xlink:href="#mb09616834c" x="36" y="330.313234" style="stroke: #000000; stroke-width: 0.8"/>
      </g>
     </g>
     <g id="text_9">
      <!-- 0.25 -->
      <g transform="translate(6.734375 334.112453) scale(0.1 -0.1)">
       <defs>
        <path id="DejaVuSans-35" d="M 691 4666 
L 3169 4666 
L 3169 4134 
L 1269 4134 
L 1269 2991 
Q 1406 3038 1543 3061 
Q 1681 3084 1819 3084 
Q 2600 3084 3056 2656 
Q 3513 2228 3513 1497 
Q 3513 744 3044 326 
Q 2575 -91 1722 -91 
Q 1428 -91 1123 -41 
Q 819 9 494 109 
L 494 744 
Q 775 591 1075 516 
Q 1375 441 1709 441 
Q 2250 441 2565 725 
Q 2881 1009 2881 1497 
Q 2881 1984 2565 2268 
Q 2250 2553 1709 2553 
Q 1456 2553 1204 2497 
Q 953 2441 691 2322 
L 691 4666 
z
" transform="scale(0.015625)"/>
       </defs>
       <use xlink:href="#DejaVuSans-30"/>
       <use xlink:href="#DejaVuSans-2e" x="63.623047"/>
       <use xlink:href="#DejaVuSans-32" x="95.410156"/>
       <use xlink:href="#DejaVuSans-35" x="159.033203"/>
      </g>
     </g>
    </g>
    <g id="ytick_3">
     <g id="line2d_9">
      <g>
       <use xlink:href="#mb09616834c" x="36" y="297.55588" style="stroke: #000000; stroke-width: 0.8"/>
      </g>
     </g>
     <g id="text_10">
      <!-- 0.50 -->
      <g transform="translate(6.734375 301.355098) scale(0.1 -0.1)">
       <use xlink:href="#DejaVuSans-30"/>
       <use xlink:href="#DejaVuSans-2e" x="63.623047"/>
       <use xlink:href="#DejaVuSans-35" x="95.410156"/>
       <use xlink:href="#DejaVuSans-30" x="159.033203"/>
      </g>
     </g>
    </g>
    <g id="ytick_4">
     <g id="line2d_10">
      <g>
       <use xlink:href="#mb09616834c" x="36" y="264.798525" style="stroke: #000000; stroke-width: 0.8"/>
      </g>
     </g>
     <g id="text_11">
      <!-- 0.75 -->
      <g transform="translate(6.734375 268.597744) scale(0.1 -0.1)">
       <defs>
        <path id="DejaVuSans-37" d="M 525 4666 
L 3525 4666 
L 3525 4397 
L 1831 0 
L 1172 0 
L 2766 4134 
L 525 4134 
L 525 4666 
z
" transform="scale(0.015625)"/>
       </defs>
       <use xlink:href="#DejaVuSans-30"/>
       <use xlink:href="#DejaVuSans-2e" x="63.623047"/>
       <use xlink:href="#DejaVuSans-37" x="95.410156"/>
       <use xlink:href="#DejaVuSans-35" x="159.033203"/>
      </g>
     </g>
    </g>
    <g id="ytick_5">
     <g id="line2d_11">
      <g>
       <use xlink:href="#mb09616834c" x="36" y="232.041171" style="stroke: #000000; stroke-width: 0.8"/>
      </g>
     </g>
     <g id="text_12">
      <!-- 1.00 -->
      <g transform="translate(6.734375 235.84039) scale(0.1 -0.1)">
       <use xlink:href="#DejaVuSans-31"/>
       <use xlink:href="#DejaVuSans-2e" x="63.623047"/>
       <use xlink:href="#DejaVuSans-30" x="95.410156"/>
       <use xlink:href="#DejaVuSans-30" x="159.033203"/>
      </g>
     </g>
    </g>
    <g id="ytick_6">
     <g id="line2d_12">
      <g>
       <use xlink:href="#mb09616834c" x="36" y="199.283817" style="stroke: #000000; stroke-width: 0.8"/>
      </g>
     </g>
     <g id="text_13">
      <!-- 1.25 -->
      <g transform="translate(6.734375 203.083036) scale(0.1 -0.1)">
       <use xlink:href="#DejaVuSans-31"/>
       <use xlink:href="#DejaVuSans-2e" x="63.623047"/>
       <use xlink:href="#DejaVuSans-32" x="95.410156"/>
       <use xlink:href="#DejaVuSans-35" x="159.033203"/>
      </g>
     </g>
    </g>
    <g id="ytick_7">
     <g id="line2d_13">
      <g>
       <use xlink:href="#mb09616834c" x="36" y="166.526463" style="stroke: #000000; stroke-width: 0.8"/>
      </g>
     </g>
     <g id="text_14">
      <!-- 1.50 -->
      <g transform="translate(6.734375 170.325681) scale(0.1 -0.1)">
       <use xlink:href="#DejaVuSans-31"/>
       <use xlink:href="#DejaVuSans-2e" x="63.623047"/>
       <use xlink:href="#DejaVuSans-35" x="95.410156"/>
       <use xlink:href="#DejaVuSans-30" x="159.033203"/>
      </g>
     </g>
    </g>
    <g id="ytick_8">
     <g id="line2d_14">
      <g>
       <use xlink:href="#mb09616834c" x="36" y="133.769108" style="stroke: #000000; stroke-width: 0.8"/>
      </g>
     </g>
     <g id="text_15">
      <!-- 1.75 -->
      <g transform="translate(6.734375 137.568327) scale(0.1 -0.1)">
       <use xlink:href="#DejaVuSans-31"/>
       <use xlink:href="#DejaVuSans-2e" x="63.623047"/>
       <use xlink:href="#DejaVuSans-37" x="95.410156"/>
       <use xlink:href="#DejaVuSans-35" x="159.033203"/>
      </g>
     </g>
    </g>
    <g id="text_16">
     <!-- Synchronization Epsilon -->
     <g transform="translate(0.654687 311.473805) rotate(-90) scale(0.1 -0.1)">
      <defs>
       <path id="DejaVuSans-53" d="M 3425 4513 
L 3425 3897 
Q 3066 4069 2747 4153 
Q 2428 4238 2131 4238 
Q 1616 4238 1336 4038 
Q 1056 3838 1056 3469 
Q 1056 3159 1242 3001 
Q 1428 2844 1947 2747 
L 2328 2669 
Q 3034 2534 3370 2195 
Q 3706 1856 3706 1288 
Q 3706 609 3251 259 
Q 2797 -91 1919 -91 
Q 1588 -91 1214 -16 
Q 841 59 441 206 
L 441 856 
Q 825 641 1194 531 
Q 1563 422 1919 422 
Q 2459 422 2753 634 
Q 3047 847 3047 1241 
Q 3047 1584 2836 1778 
Q 2625 1972 2144 2069 
L 1759 2144 
Q 1053 2284 737 2584 
Q 422 2884 422 3419 
Q 422 4038 858 4394 
Q 1294 4750 2059 4750 
Q 2388 4750 2728 4690 
Q 3069 4631 3425 4513 
z
" transform="scale(0.015625)"/>
       <path id="DejaVuSans-79" d="M 2059 -325 
Q 1816 -950 1584 -1140 
Q 1353 -1331 966 -1331 
L 506 -1331 
L 506 -850 
L 844 -850 
Q 1081 -850 1212 -737 
Q 1344 -625 1503 -206 
L 1606 56 
L 191 3500 
L 800 3500 
L 1894 763 
L 2988 3500 
L 3597 3500 
L 2059 -325 
z
" transform="scale(0.015625)"/>
       <path id="DejaVuSans-63" d="M 3122 3366 
L 3122 2828 
Q 2878 2963 2633 3030 
Q 2388 3097 2138 3097 
Q 1578 3097 1268 2742 
Q 959 2388 959 1747 
Q 959 1106 1268 751 
Q 1578 397 2138 397 
Q 2388 397 2633 464 
Q 2878 531 3122 666 
L 3122 134 
Q 2881 22 2623 -34 
Q 2366 -91 2075 -91 
Q 1284 -91 818 406 
Q 353 903 353 1747 
Q 353 2603 823 3093 
Q 1294 3584 2113 3584 
Q 2378 3584 2631 3529 
Q 2884 3475 3122 3366 
z
" transform="scale(0.015625)"/>
       <path id="DejaVuSans-7a" d="M 353 3500 
L 3084 3500 
L 3084 2975 
L 922 459 
L 3084 459 
L 3084 0 
L 275 0 
L 275 525 
L 2438 3041 
L 353 3041 
L 353 3500 
z
" transform="scale(0.015625)"/>
       <path id="DejaVuSans-45" d="M 628 4666 
L 3578 4666 
L 3578 4134 
L 1259 4134 
L 1259 2753 
L 3481 2753 
L 3481 2222 
L 1259 2222 
L 1259 531 
L 3634 531 
L 3634 0 
L 628 0 
L 628 4666 
z
" transform="scale(0.015625)"/>
       <path id="DejaVuSans-70" d="M 1159 525 
L 1159 -1331 
L 581 -1331 
L 581 3500 
L 1159 3500 
L 1159 2969 
Q 1341 3281 1617 3432 
Q 1894 3584 2278 3584 
Q 2916 3584 3314 3078 
Q 3713 2572 3713 1747 
Q 3713 922 3314 415 
Q 2916 -91 2278 -91 
Q 1894 -91 1617 61 
Q 1341 213 1159 525 
z
M 3116 1747 
Q 3116 2381 2855 2742 
Q 2594 3103 2138 3103 
Q 1681 3103 1420 2742 
Q 1159 2381 1159 1747 
Q 1159 1113 1420 752 
Q 1681 391 2138 391 
Q 2594 391 2855 752 
Q 3116 1113 3116 1747 
z
" transform="scale(0.015625)"/>
      </defs>
      <use xlink:href="#DejaVuSans-53"/>
      <use xlink:href="#DejaVuSans-79" x="63.476562"/>
      <use xlink:href="#DejaVuSans-6e" x="122.65625"/>
      <use xlink:href="#DejaVuSans-63" x="186.035156"/>
      <use xlink:href="#DejaVuSans-68" x="241.015625"/>
      <use xlink:href="#DejaVuSans-72" x="304.394531"/>
      <use xlink:href="#DejaVuSans-6f" x="343.257812"/>
      <use xlink:href="#DejaVuSans-6e" x="404.439453"/>
      <use xlink:href="#DejaVuSans-69" x="467.818359"/>
      <use xlink:href="#DejaVuSans-7a" x="495.601562"/>
      <use xlink:href="#DejaVuSans-61" x="548.091797"/>
      <use xlink:href="#DejaVuSans-74" x="609.371094"/>
      <use xlink:href="#DejaVuSans-69" x="648.580078"/>
      <use xlink:href="#DejaVuSans-6f" x="676.363281"/>
      <use xlink:href="#DejaVuSans-6e" x="737.544922"/>
      <use xlink:href="#DejaVuSans-20" x="800.923828"/>
      <use xlink:href="#DejaVuSans-45" x="832.710938"/>
      <use xlink:href="#DejaVuSans-70" x="895.894531"/>
      <use xlink:href="#DejaVuSans-73" x="959.371094"/>
      <use xlink:href="#DejaVuSans-69" x="1011.470703"/>
      <use xlink:href="#DejaVuSans-6c" x="1039.253906"/>
      <use xlink:href="#DejaVuSans-6f" x="1067.037109"/>
      <use xlink:href="#DejaVuSans-6e" x="1128.21875"/>
     </g>
    </g>
   </g>
   <g id="line2d_15">
    <path d="M 46.145455 363.070588 
L 48.195041 363.070588 
L 50.244628 363.070588 
L 52.294215 363.070588 
L 54.343802 363.070588 
L 56.393388 363.070588 
L 58.442975 363.070588 
L 60.492562 363.070588 
L 62.542149 363.070588 
L 64.591736 363.070588 
L 66.641322 363.070588 
L 68.690909 363.070588 
L 70.740496 363.070588 
L 72.790083 363.070588 
L 74.839669 363.070588 
L 76.889256 363.070588 
L 78.938843 363.070588 
L 80.98843 363.070588 
L 83.038017 363.070588 
L 85.087603 363.070588 
L 87.13719 363.070588 
L 89.186777 363.070588 
L 91.236364 363.070588 
L 93.28595 363.070588 
L 95.335537 363.070588 
L 97.385124 363.070588 
L 99.434711 363.070588 
L 101.484298 363.070588 
L 103.533884 363.070588 
L 105.583471 363.070588 
L 107.633058 363.070588 
L 109.682645 363.070588 
L 111.732231 363.070588 
L 113.781818 363.070588 
L 115.831405 363.070588 
L 117.880992 363.070588 
L 119.930579 363.070588 
L 121.980165 363.070588 
L 124.029752 363.070588 
L 126.079339 363.070588 
L 128.128926 363.070588 
L 130.178512 363.070588 
L 132.228099 363.070588 
L 134.277686 363.070588 
L 136.327273 363.070588 
L 138.37686 363.070588 
L 140.426446 363.070588 
L 142.476033 363.070588 
L 144.52562 241.305879 
L 146.575207 241.305879 
L 148.624793 241.305879 
L 150.67438 241.305879 
L 152.723967 241.305879 
L 154.773554 241.305879 
L 156.82314 238.658817 
L 158.872727 230.717633 
L 160.922314 230.717633 
L 162.971901 230.717633 
L 165.021488 228.070587 
L 167.071074 228.070587 
L 169.120661 225.423525 
L 171.170248 225.423525 
L 173.219835 220.129402 
L 175.269421 220.129402 
L 177.319008 214.835294 
L 179.368595 212.188233 
L 181.418182 212.188233 
L 183.467769 212.188233 
L 185.517355 212.188233 
L 187.566942 212.188233 
L 189.616529 204.247063 
L 191.666116 201.600002 
L 193.715702 201.600002 
L 195.765289 193.658817 
L 197.814876 193.658817 
L 199.864463 188.364694 
L 201.91405 188.364694 
L 203.963636 183.070586 
L 206.013223 180.423524 
L 208.06281 180.423524 
L 210.112397 180.423524 
L 212.161983 180.423524 
L 214.21157 172.48234 
L 216.261157 167.188216 
L 218.310744 167.188216 
L 220.360331 167.188216 
L 222.409917 167.188216 
L 224.459504 167.188216 
L 226.509091 159.247047 
L 228.558678 159.247047 
L 230.608264 153.952924 
L 232.657851 153.952924 
L 234.707438 153.952924 
L 236.757025 153.952924 
L 238.806612 146.011755 
L 240.856198 146.011755 
L 242.905785 140.717647 
L 244.955372 140.717647 
L 247.004959 140.717647 
L 249.054545 140.717647 
" clip-path="url(#p1cdddde41b)" style="fill: none; stroke: #1f77b4; stroke-width: 1.5; stroke-linecap: square"/>
   </g>
   <g id="patch_3">
    <path d="M 36 374.188235 
L 36 129.6 
" style="fill: none; stroke: #000000; stroke-width: 0.8; stroke-linejoin: miter; stroke-linecap: square"/>
   </g>
   <g id="patch_4">
    <path d="M 259.2 374.188235 
L 259.2 129.6 
" style="fill: none; stroke: #000000; stroke-width: 0.8; stroke-linejoin: miter; stroke-linecap: square"/>
   </g>
   <g id="patch_5">
    <path d="M 36 374.188235 
L 259.2 374.188235 
" style="fill: none; stroke: #000000; stroke-width: 0.8; stroke-linejoin: miter; stroke-linecap: square"/>
   </g>
   <g id="patch_6">
    <path d="M 36 129.6 
L 259.2 129.6 
" style="fill: none; stroke: #000000; stroke-width: 0.8; stroke-linejoin: miter; stroke-linecap: square"/>
   </g>
  </g>
  <g id="axes_2">
   <g id="patch_7">
    <path d="M 36 667.694118 
L 259.2 667.694118 
L 259.2 423.105882 
L 36 423.105882 
z
" style="fill: #ffffff"/>
   </g>
   <g id="matplotlib.axis_3">
    <g id="xtick_7">
     <g id="line2d_16">
      <g>
       <use xlink:href="#mc57dbf860b" x="46.145455" y="667.694118" style="stroke: #000000; stroke-width: 0.8"/>
      </g>
     </g>
     <g id="text_17">
      <!-- 0.0 -->
      <g transform="translate(38.193892 682.292555) scale(0.1 -0.1)">
       <use xlink:href="#DejaVuSans-30"/>
       <use xlink:href="#DejaVuSans-2e" x="63.623047"/>
       <use xlink:href="#DejaVuSans-30" x="95.410156"/>
      </g>
     </g>
    </g>
    <g id="xtick_8">
     <g id="line2d_17">
      <g>
       <use xlink:href="#mc57dbf860b" x="86.727273" y="667.694118" style="stroke: #000000; stroke-width: 0.8"/>
      </g>
     </g>
     <g id="text_18">
      <!-- 0.2 -->
      <g transform="translate(78.77571 682.292555) scale(0.1 -0.1)">
       <use xlink:href="#DejaVuSans-30"/>
       <use xlink:href="#DejaVuSans-2e" x="63.623047"/>
       <use xlink:href="#DejaVuSans-32" x="95.410156"/>
      </g>
     </g>
    </g>
    <g id="xtick_9">
     <g id="line2d_18">
      <g>
       <use xlink:href="#mc57dbf860b" x="127.309091" y="667.694118" style="stroke: #000000; stroke-width: 0.8"/>
      </g>
     </g>
     <g id="text_19">
      <!-- 0.4 -->
      <g transform="translate(119.357528 682.292555) scale(0.1 -0.1)">
       <use xlink:href="#DejaVuSans-30"/>
       <use xlink:href="#DejaVuSans-2e" x="63.623047"/>
       <use xlink:href="#DejaVuSans-34" x="95.410156"/>
      </g>
     </g>
    </g>
    <g id="xtick_10">
     <g id="line2d_19">
      <g>
       <use xlink:href="#mc57dbf860b" x="167.890909" y="667.694118" style="stroke: #000000; stroke-width: 0.8"/>
      </g>
     </g>
     <g id="text_20">
      <!-- 0.6 -->
      <g transform="translate(159.939347 682.292555) scale(0.1 -0.1)">
       <use xlink:href="#DejaVuSans-30"/>
       <use xlink:href="#DejaVuSans-2e" x="63.623047"/>
       <use xlink:href="#DejaVuSans-36" x="95.410156"/>
      </g>
     </g>
    </g>
    <g id="xtick_11">
     <g id="line2d_20">
      <g>
       <use xlink:href="#mc57dbf860b" x="208.472727" y="667.694118" style="stroke: #000000; stroke-width: 0.8"/>
      </g>
     </g>
     <g id="text_21">
      <!-- 0.8 -->
      <g transform="translate(200.521165 682.292555) scale(0.1 -0.1)">
       <use xlink:href="#DejaVuSans-30"/>
       <use xlink:href="#DejaVuSans-2e" x="63.623047"/>
       <use xlink:href="#DejaVuSans-38" x="95.410156"/>
      </g>
     </g>
    </g>
    <g id="xtick_12">
     <g id="line2d_21">
      <g>
       <use xlink:href="#mc57dbf860b" x="249.054545" y="667.694118" style="stroke: #000000; stroke-width: 0.8"/>
      </g>
     </g>
     <g id="text_22">
      <!-- 1.0 -->
      <g transform="translate(241.102983 682.292555) scale(0.1 -0.1)">
       <use xlink:href="#DejaVuSans-31"/>
       <use xlink:href="#DejaVuSans-2e" x="63.623047"/>
       <use xlink:href="#DejaVuSans-30" x="95.410156"/>
      </g>
     </g>
    </g>
    <g id="text_23">
     <!-- Fibration Threshold -->
     <g transform="translate(99.599219 695.97068) scale(0.1 -0.1)">
      <use xlink:href="#DejaVuSans-46"/>
      <use xlink:href="#DejaVuSans-69" x="50.269531"/>
      <use xlink:href="#DejaVuSans-62" x="78.052734"/>
      <use xlink:href="#DejaVuSans-72" x="141.529297"/>
      <use xlink:href="#DejaVuSans-61" x="182.642578"/>
      <use xlink:href="#DejaVuSans-74" x="243.921875"/>
      <use xlink:href="#DejaVuSans-69" x="283.130859"/>
      <use xlink:href="#DejaVuSans-6f" x="310.914062"/>
      <use xlink:href="#DejaVuSans-6e" x="372.095703"/>
      <use xlink:href="#DejaVuSans-20" x="435.474609"/>
      <use xlink:href="#DejaVuSans-54" x="467.261719"/>
      <use xlink:href="#DejaVuSans-68" x="528.345703"/>
      <use xlink:href="#DejaVuSans-72" x="591.724609"/>
      <use xlink:href="#DejaVuSans-65" x="630.587891"/>
      <use xlink:href="#DejaVuSans-73" x="692.111328"/>
      <use xlink:href="#DejaVuSans-68" x="744.210938"/>
      <use xlink:href="#DejaVuSans-6f" x="807.589844"/>
      <use xlink:href="#DejaVuSans-6c" x="868.771484"/>
      <use xlink:href="#DejaVuSans-64" x="896.554688"/>
     </g>
    </g>
   </g>
   <g id="matplotlib.axis_4">
    <g id="ytick_9">
     <g id="line2d_22">
      <g>
       <use xlink:href="#mb09616834c" x="36" y="657.469454" style="stroke: #000000; stroke-width: 0.8"/>
      </g>
     </g>
     <g id="text_24">
      <!-- 0 -->
      <g transform="translate(22.6375 661.268673) scale(0.1 -0.1)">
       <use xlink:href="#DejaVuSans-30"/>
      </g>
     </g>
    </g>
    <g id="ytick_10">
     <g id="line2d_23">
      <g>
       <use xlink:href="#mb09616834c" x="36" y="612.820269" style="stroke: #000000; stroke-width: 0.8"/>
      </g>
     </g>
     <g id="text_25">
      <!-- 100 -->
      <g transform="translate(9.9125 616.619488) scale(0.1 -0.1)">
       <use xlink:href="#DejaVuSans-31"/>
       <use xlink:href="#DejaVuSans-30" x="63.623047"/>
       <use xlink:href="#DejaVuSans-30" x="127.246094"/>
      </g>
     </g>
    </g>
    <g id="ytick_11">
     <g id="line2d_24">
      <g>
       <use xlink:href="#mb09616834c" x="36" y="568.171084" style="stroke: #000000; stroke-width: 0.8"/>
      </g>
     </g>
     <g id="text_26">
      <!-- 200 -->
      <g transform="translate(9.9125 571.970303) scale(0.1 -0.1)">
       <use xlink:href="#DejaVuSans-32"/>
       <use xlink:href="#DejaVuSans-30" x="63.623047"/>
       <use xlink:href="#DejaVuSans-30" x="127.246094"/>
      </g>
     </g>
    </g>
    <g id="ytick_12">
     <g id="line2d_25">
      <g>
       <use xlink:href="#mb09616834c" x="36" y="523.521899" style="stroke: #000000; stroke-width: 0.8"/>
      </g>
     </g>
     <g id="text_27">
      <!-- 300 -->
      <g transform="translate(9.9125 527.321118) scale(0.1 -0.1)">
       <defs>
        <path id="DejaVuSans-33" d="M 2597 2516 
Q 3050 2419 3304 2112 
Q 3559 1806 3559 1356 
Q 3559 666 3084 287 
Q 2609 -91 1734 -91 
Q 1441 -91 1130 -33 
Q 819 25 488 141 
L 488 750 
Q 750 597 1062 519 
Q 1375 441 1716 441 
Q 2309 441 2620 675 
Q 2931 909 2931 1356 
Q 2931 1769 2642 2001 
Q 2353 2234 1838 2234 
L 1294 2234 
L 1294 2753 
L 1863 2753 
Q 2328 2753 2575 2939 
Q 2822 3125 2822 3475 
Q 2822 3834 2567 4026 
Q 2313 4219 1838 4219 
Q 1578 4219 1281 4162 
Q 984 4106 628 3988 
L 628 4550 
Q 988 4650 1302 4700 
Q 1616 4750 1894 4750 
Q 2613 4750 3031 4423 
Q 3450 4097 3450 3541 
Q 3450 3153 3228 2886 
Q 3006 2619 2597 2516 
z
" transform="scale(0.015625)"/>
       </defs>
       <use xlink:href="#DejaVuSans-33"/>
       <use xlink:href="#DejaVuSans-30" x="63.623047"/>
       <use xlink:href="#DejaVuSans-30" x="127.246094"/>
      </g>
     </g>
    </g>
    <g id="ytick_13">
     <g id="line2d_26">
      <g>
       <use xlink:href="#mb09616834c" x="36" y="478.872714" style="stroke: #000000; stroke-width: 0.8"/>
      </g>
     </g>
     <g id="text_28">
      <!-- 400 -->
      <g transform="translate(9.9125 482.671933) scale(0.1 -0.1)">
       <use xlink:href="#DejaVuSans-34"/>
       <use xlink:href="#DejaVuSans-30" x="63.623047"/>
       <use xlink:href="#DejaVuSans-30" x="127.246094"/>
      </g>
     </g>
    </g>
    <g id="ytick_14">
     <g id="line2d_27">
      <g>
       <use xlink:href="#mb09616834c" x="36" y="434.223529" style="stroke: #000000; stroke-width: 0.8"/>
      </g>
     </g>
     <g id="text_29">
      <!-- 500 -->
      <g transform="translate(9.9125 438.022748) scale(0.1 -0.1)">
       <use xlink:href="#DejaVuSans-35"/>
       <use xlink:href="#DejaVuSans-30" x="63.623047"/>
       <use xlink:href="#DejaVuSans-30" x="127.246094"/>
      </g>
     </g>
    </g>
    <g id="text_30">
     <!-- Num Sync Clusters -->
     <g style="fill: #0000ff" transform="translate(3.832812 592.760156) rotate(-90) scale(0.1 -0.1)">
      <defs>
       <path id="DejaVuSans-4e" d="M 628 4666 
L 1478 4666 
L 3547 763 
L 3547 4666 
L 4159 4666 
L 4159 0 
L 3309 0 
L 1241 3903 
L 1241 0 
L 628 0 
L 628 4666 
z
" transform="scale(0.015625)"/>
       <path id="DejaVuSans-75" d="M 544 1381 
L 544 3500 
L 1119 3500 
L 1119 1403 
Q 1119 906 1312 657 
Q 1506 409 1894 409 
Q 2359 409 2629 706 
Q 2900 1003 2900 1516 
L 2900 3500 
L 3475 3500 
L 3475 0 
L 2900 0 
L 2900 538 
Q 2691 219 2414 64 
Q 2138 -91 1772 -91 
Q 1169 -91 856 284 
Q 544 659 544 1381 
z
M 1991 3584 
L 1991 3584 
z
" transform="scale(0.015625)"/>
       <path id="DejaVuSans-6d" d="M 3328 2828 
Q 3544 3216 3844 3400 
Q 4144 3584 4550 3584 
Q 5097 3584 5394 3201 
Q 5691 2819 5691 2113 
L 5691 0 
L 5113 0 
L 5113 2094 
Q 5113 2597 4934 2840 
Q 4756 3084 4391 3084 
Q 3944 3084 3684 2787 
Q 3425 2491 3425 1978 
L 3425 0 
L 2847 0 
L 2847 2094 
Q 2847 2600 2669 2842 
Q 2491 3084 2119 3084 
Q 1678 3084 1418 2786 
Q 1159 2488 1159 1978 
L 1159 0 
L 581 0 
L 581 3500 
L 1159 3500 
L 1159 2956 
Q 1356 3278 1631 3431 
Q 1906 3584 2284 3584 
Q 2666 3584 2933 3390 
Q 3200 3197 3328 2828 
z
" transform="scale(0.015625)"/>
       <path id="DejaVuSans-43" d="M 4122 4306 
L 4122 3641 
Q 3803 3938 3442 4084 
Q 3081 4231 2675 4231 
Q 1875 4231 1450 3742 
Q 1025 3253 1025 2328 
Q 1025 1406 1450 917 
Q 1875 428 2675 428 
Q 3081 428 3442 575 
Q 3803 722 4122 1019 
L 4122 359 
Q 3791 134 3420 21 
Q 3050 -91 2638 -91 
Q 1578 -91 968 557 
Q 359 1206 359 2328 
Q 359 3453 968 4101 
Q 1578 4750 2638 4750 
Q 3056 4750 3426 4639 
Q 3797 4528 4122 4306 
z
" transform="scale(0.015625)"/>
      </defs>
      <use xlink:href="#DejaVuSans-4e"/>
      <use xlink:href="#DejaVuSans-75" x="74.804688"/>
      <use xlink:href="#DejaVuSans-6d" x="138.183594"/>
      <use xlink:href="#DejaVuSans-20" x="235.595703"/>
      <use xlink:href="#DejaVuSans-53" x="267.382812"/>
      <use xlink:href="#DejaVuSans-79" x="330.859375"/>
      <use xlink:href="#DejaVuSans-6e" x="390.039062"/>
      <use xlink:href="#DejaVuSans-63" x="453.417969"/>
      <use xlink:href="#DejaVuSans-20" x="508.398438"/>
      <use xlink:href="#DejaVuSans-43" x="540.185547"/>
      <use xlink:href="#DejaVuSans-6c" x="610.009766"/>
      <use xlink:href="#DejaVuSans-75" x="637.792969"/>
      <use xlink:href="#DejaVuSans-73" x="701.171875"/>
      <use xlink:href="#DejaVuSans-74" x="753.271484"/>
      <use xlink:href="#DejaVuSans-65" x="792.480469"/>
      <use xlink:href="#DejaVuSans-72" x="854.003906"/>
      <use xlink:href="#DejaVuSans-73" x="895.117188"/>
     </g>
    </g>
   </g>
   <g id="line2d_28">
    <path d="M 46.145455 434.223529 
L 48.195041 434.223529 
L 50.244628 434.223529 
L 52.294215 434.223529 
L 54.343802 434.223529 
L 56.393388 434.223529 
L 58.442975 434.223529 
L 60.492562 434.223529 
L 62.542149 434.223529 
L 64.591736 434.223529 
L 66.641322 434.223529 
L 68.690909 434.223529 
L 70.740496 434.223529 
L 72.790083 434.223529 
L 74.839669 434.223529 
L 76.889256 434.223529 
L 78.938843 434.223529 
L 80.98843 434.223529 
L 83.038017 434.223529 
L 85.087603 434.223529 
L 87.13719 434.223529 
L 89.186777 434.223529 
L 91.236364 434.223529 
L 93.28595 434.223529 
L 95.335537 434.223529 
L 97.385124 434.223529 
L 99.434711 434.223529 
L 101.484298 434.223529 
L 103.533884 434.223529 
L 105.583471 434.223529 
L 107.633058 434.223529 
L 109.682645 434.223529 
L 111.732231 434.223529 
L 113.781818 434.223529 
L 115.831405 434.223529 
L 117.880992 434.223529 
L 119.930579 434.223529 
L 121.980165 434.223529 
L 124.029752 434.223529 
L 126.079339 434.223529 
L 128.128926 434.223529 
L 130.178512 434.223529 
L 132.228099 434.223529 
L 134.277686 434.223529 
L 136.327273 434.223529 
L 138.37686 434.223529 
L 140.426446 434.223529 
L 142.476033 434.223529 
L 144.52562 438.688448 
L 146.575207 438.688448 
L 148.624793 438.688448 
L 150.67438 438.688448 
L 152.723967 438.688448 
L 154.773554 438.688448 
L 156.82314 441.367399 
L 158.872727 456.994614 
L 160.922314 456.994614 
L 162.971901 456.994614 
L 165.021488 465.477959 
L 167.071074 465.477959 
L 169.120661 476.193763 
L 171.170248 476.193763 
L 173.219835 504.769242 
L 175.269421 504.769242 
L 177.319008 532.451736 
L 179.368595 544.060524 
L 181.418182 544.060524 
L 183.467769 544.060524 
L 185.517355 544.060524 
L 187.566942 544.060524 
L 189.616529 571.743019 
L 191.666116 581.119348 
L 193.715702 581.119348 
L 195.765289 603.890432 
L 197.814876 603.890432 
L 199.864463 615.49922 
L 201.91405 615.49922 
L 203.963636 627.108009 
L 206.013223 631.126435 
L 208.06281 631.126435 
L 210.112397 631.126435 
L 212.161983 631.126435 
L 214.21157 640.056272 
L 216.261157 645.414174 
L 218.310744 645.414174 
L 220.360331 645.414174 
L 222.409917 645.414174 
L 224.459504 645.414174 
L 226.509091 650.325585 
L 228.558678 650.325585 
L 230.608264 653.451028 
L 232.657851 653.451028 
L 234.707438 653.451028 
L 236.757025 653.451028 
L 238.806612 655.683487 
L 240.856198 655.683487 
L 242.905785 656.576471 
L 244.955372 656.576471 
L 247.004959 656.576471 
L 249.054545 656.576471 
" clip-path="url(#pe5d2d8db57)" style="fill: none; stroke: #0000ff; stroke-width: 1.5; stroke-linecap: square"/>
   </g>
   <g id="patch_8">
    <path d="M 36 667.694118 
L 36 423.105882 
" style="fill: none; stroke: #000000; stroke-width: 0.8; stroke-linejoin: miter; stroke-linecap: square"/>
   </g>
   <g id="patch_9">
    <path d="M 259.2 667.694118 
L 259.2 423.105882 
" style="fill: none; stroke: #000000; stroke-width: 0.8; stroke-linejoin: miter; stroke-linecap: square"/>
   </g>
   <g id="patch_10">
    <path d="M 36 667.694118 
L 259.2 667.694118 
" style="fill: none; stroke: #000000; stroke-width: 0.8; stroke-linejoin: miter; stroke-linecap: square"/>
   </g>
   <g id="patch_11">
    <path d="M 36 423.105882 
L 259.2 423.105882 
" style="fill: none; stroke: #000000; stroke-width: 0.8; stroke-linejoin: miter; stroke-linecap: square"/>
   </g>
  </g>
  <g id="axes_3">
   <g id="patch_12">
    <path d="M 36 961.2 
L 259.2 961.2 
L 259.2 716.611765 
L 36 716.611765 
z
" style="fill: #ffffff"/>
   </g>
   <g id="matplotlib.axis_5">
    <g id="xtick_13">
     <g id="line2d_29">
      <g>
       <use xlink:href="#mc57dbf860b" x="46.145455" y="961.2" style="stroke: #000000; stroke-width: 0.8"/>
      </g>
     </g>
     <g id="text_31">
      <!-- 0.0 -->
      <g transform="translate(38.193892 975.798437) scale(0.1 -0.1)">
       <use xlink:href="#DejaVuSans-30"/>
       <use xlink:href="#DejaVuSans-2e" x="63.623047"/>
       <use xlink:href="#DejaVuSans-30" x="95.410156"/>
      </g>
     </g>
    </g>
    <g id="xtick_14">
     <g id="line2d_30">
      <g>
       <use xlink:href="#mc57dbf860b" x="86.727273" y="961.2" style="stroke: #000000; stroke-width: 0.8"/>
      </g>
     </g>
     <g id="text_32">
      <!-- 0.2 -->
      <g transform="translate(78.77571 975.798437) scale(0.1 -0.1)">
       <use xlink:href="#DejaVuSans-30"/>
       <use xlink:href="#DejaVuSans-2e" x="63.623047"/>
       <use xlink:href="#DejaVuSans-32" x="95.410156"/>
      </g>
     </g>
    </g>
    <g id="xtick_15">
     <g id="line2d_31">
      <g>
       <use xlink:href="#mc57dbf860b" x="127.309091" y="961.2" style="stroke: #000000; stroke-width: 0.8"/>
      </g>
     </g>
     <g id="text_33">
      <!-- 0.4 -->
      <g transform="translate(119.357528 975.798437) scale(0.1 -0.1)">
       <use xlink:href="#DejaVuSans-30"/>
       <use xlink:href="#DejaVuSans-2e" x="63.623047"/>
       <use xlink:href="#DejaVuSans-34" x="95.410156"/>
      </g>
     </g>
    </g>
    <g id="xtick_16">
     <g id="line2d_32">
      <g>
       <use xlink:href="#mc57dbf860b" x="167.890909" y="961.2" style="stroke: #000000; stroke-width: 0.8"/>
      </g>
     </g>
     <g id="text_34">
      <!-- 0.6 -->
      <g transform="translate(159.939347 975.798437) scale(0.1 -0.1)">
       <use xlink:href="#DejaVuSans-30"/>
       <use xlink:href="#DejaVuSans-2e" x="63.623047"/>
       <use xlink:href="#DejaVuSans-36" x="95.410156"/>
      </g>
     </g>
    </g>
    <g id="xtick_17">
     <g id="line2d_33">
      <g>
       <use xlink:href="#mc57dbf860b" x="208.472727" y="961.2" style="stroke: #000000; stroke-width: 0.8"/>
      </g>
     </g>
     <g id="text_35">
      <!-- 0.8 -->
      <g transform="translate(200.521165 975.798437) scale(0.1 -0.1)">
       <use xlink:href="#DejaVuSans-30"/>
       <use xlink:href="#DejaVuSans-2e" x="63.623047"/>
       <use xlink:href="#DejaVuSans-38" x="95.410156"/>
      </g>
     </g>
    </g>
    <g id="xtick_18">
     <g id="line2d_34">
      <g>
       <use xlink:href="#mc57dbf860b" x="249.054545" y="961.2" style="stroke: #000000; stroke-width: 0.8"/>
      </g>
     </g>
     <g id="text_36">
      <!-- 1.0 -->
      <g transform="translate(241.102983 975.798437) scale(0.1 -0.1)">
       <use xlink:href="#DejaVuSans-31"/>
       <use xlink:href="#DejaVuSans-2e" x="63.623047"/>
       <use xlink:href="#DejaVuSans-30" x="95.410156"/>
      </g>
     </g>
    </g>
    <g id="text_37">
     <!-- Fibration Threshold -->
     <g transform="translate(99.599219 989.476562) scale(0.1 -0.1)">
      <use xlink:href="#DejaVuSans-46"/>
      <use xlink:href="#DejaVuSans-69" x="50.269531"/>
      <use xlink:href="#DejaVuSans-62" x="78.052734"/>
      <use xlink:href="#DejaVuSans-72" x="141.529297"/>
      <use xlink:href="#DejaVuSans-61" x="182.642578"/>
      <use xlink:href="#DejaVuSans-74" x="243.921875"/>
      <use xlink:href="#DejaVuSans-69" x="283.130859"/>
      <use xlink:href="#DejaVuSans-6f" x="310.914062"/>
      <use xlink:href="#DejaVuSans-6e" x="372.095703"/>
      <use xlink:href="#DejaVuSans-20" x="435.474609"/>
      <use xlink:href="#DejaVuSans-54" x="467.261719"/>
      <use xlink:href="#DejaVuSans-68" x="528.345703"/>
      <use xlink:href="#DejaVuSans-72" x="591.724609"/>
      <use xlink:href="#DejaVuSans-65" x="630.587891"/>
      <use xlink:href="#DejaVuSans-73" x="692.111328"/>
      <use xlink:href="#DejaVuSans-68" x="744.210938"/>
      <use xlink:href="#DejaVuSans-6f" x="807.589844"/>
      <use xlink:href="#DejaVuSans-6c" x="868.771484"/>
      <use xlink:href="#DejaVuSans-64" x="896.554688"/>
     </g>
    </g>
   </g>
   <g id="matplotlib.axis_6">
    <g id="ytick_15">
     <g id="line2d_35">
      <g>
       <use xlink:href="#mb09616834c" x="36" y="938.823976" style="stroke: #000000; stroke-width: 0.8"/>
      </g>
     </g>
     <g id="text_38">
      <!-- 0.4 -->
      <g transform="translate(13.096875 942.623195) scale(0.1 -0.1)">
       <use xlink:href="#DejaVuSans-30"/>
       <use xlink:href="#DejaVuSans-2e" x="63.623047"/>
       <use xlink:href="#DejaVuSans-34" x="95.410156"/>
      </g>
     </g>
    </g>
    <g id="ytick_16">
     <g id="line2d_36">
      <g>
       <use xlink:href="#mb09616834c" x="36" y="903.641549" style="stroke: #000000; stroke-width: 0.8"/>
      </g>
     </g>
     <g id="text_39">
      <!-- 0.5 -->
      <g transform="translate(13.096875 907.440768) scale(0.1 -0.1)">
       <use xlink:href="#DejaVuSans-30"/>
       <use xlink:href="#DejaVuSans-2e" x="63.623047"/>
       <use xlink:href="#DejaVuSans-35" x="95.410156"/>
      </g>
     </g>
    </g>
    <g id="ytick_17">
     <g id="line2d_37">
      <g>
       <use xlink:href="#mb09616834c" x="36" y="868.459121" style="stroke: #000000; stroke-width: 0.8"/>
      </g>
     </g>
     <g id="text_40">
      <!-- 0.6 -->
      <g transform="translate(13.096875 872.25834) scale(0.1 -0.1)">
       <use xlink:href="#DejaVuSans-30"/>
       <use xlink:href="#DejaVuSans-2e" x="63.623047"/>
       <use xlink:href="#DejaVuSans-36" x="95.410156"/>
      </g>
     </g>
    </g>
    <g id="ytick_18">
     <g id="line2d_38">
      <g>
       <use xlink:href="#mb09616834c" x="36" y="833.276694" style="stroke: #000000; stroke-width: 0.8"/>
      </g>
     </g>
     <g id="text_41">
      <!-- 0.7 -->
      <g transform="translate(13.096875 837.075913) scale(0.1 -0.1)">
       <use xlink:href="#DejaVuSans-30"/>
       <use xlink:href="#DejaVuSans-2e" x="63.623047"/>
       <use xlink:href="#DejaVuSans-37" x="95.410156"/>
      </g>
     </g>
    </g>
    <g id="ytick_19">
     <g id="line2d_39">
      <g>
       <use xlink:href="#mb09616834c" x="36" y="798.094267" style="stroke: #000000; stroke-width: 0.8"/>
      </g>
     </g>
     <g id="text_42">
      <!-- 0.8 -->
      <g transform="translate(13.096875 801.893485) scale(0.1 -0.1)">
       <use xlink:href="#DejaVuSans-30"/>
       <use xlink:href="#DejaVuSans-2e" x="63.623047"/>
       <use xlink:href="#DejaVuSans-38" x="95.410156"/>
      </g>
     </g>
    </g>
    <g id="ytick_20">
     <g id="line2d_40">
      <g>
       <use xlink:href="#mb09616834c" x="36" y="762.911839" style="stroke: #000000; stroke-width: 0.8"/>
      </g>
     </g>
     <g id="text_43">
      <!-- 0.9 -->
      <g transform="translate(13.096875 766.711058) scale(0.1 -0.1)">
       <defs>
        <path id="DejaVuSans-39" d="M 703 97 
L 703 672 
Q 941 559 1184 500 
Q 1428 441 1663 441 
Q 2288 441 2617 861 
Q 2947 1281 2994 2138 
Q 2813 1869 2534 1725 
Q 2256 1581 1919 1581 
Q 1219 1581 811 2004 
Q 403 2428 403 3163 
Q 403 3881 828 4315 
Q 1253 4750 1959 4750 
Q 2769 4750 3195 4129 
Q 3622 3509 3622 2328 
Q 3622 1225 3098 567 
Q 2575 -91 1691 -91 
Q 1453 -91 1209 -44 
Q 966 3 703 97 
z
M 1959 2075 
Q 2384 2075 2632 2365 
Q 2881 2656 2881 3163 
Q 2881 3666 2632 3958 
Q 2384 4250 1959 4250 
Q 1534 4250 1286 3958 
Q 1038 3666 1038 3163 
Q 1038 2656 1286 2365 
Q 1534 2075 1959 2075 
z
" transform="scale(0.015625)"/>
       </defs>
       <use xlink:href="#DejaVuSans-30"/>
       <use xlink:href="#DejaVuSans-2e" x="63.623047"/>
       <use xlink:href="#DejaVuSans-39" x="95.410156"/>
      </g>
     </g>
    </g>
    <g id="ytick_21">
     <g id="line2d_41">
      <g>
       <use xlink:href="#mb09616834c" x="36" y="727.729412" style="stroke: #000000; stroke-width: 0.8"/>
      </g>
     </g>
     <g id="text_44">
      <!-- 1.0 -->
      <g transform="translate(13.096875 731.528631) scale(0.1 -0.1)">
       <use xlink:href="#DejaVuSans-31"/>
       <use xlink:href="#DejaVuSans-2e" x="63.623047"/>
       <use xlink:href="#DejaVuSans-30" x="95.410156"/>
      </g>
     </g>
    </g>
    <g id="text_45">
     <!-- Matching Score (Fibers vs Sync Clusters) -->
     <g transform="translate(7.017187 940.52307) rotate(-90) scale(0.1 -0.1)">
      <defs>
       <path id="DejaVuSans-4d" d="M 628 4666 
L 1569 4666 
L 2759 1491 
L 3956 4666 
L 4897 4666 
L 4897 0 
L 4281 0 
L 4281 4097 
L 3078 897 
L 2444 897 
L 1241 4097 
L 1241 0 
L 628 0 
L 628 4666 
z
" transform="scale(0.015625)"/>
       <path id="DejaVuSans-67" d="M 2906 1791 
Q 2906 2416 2648 2759 
Q 2391 3103 1925 3103 
Q 1463 3103 1205 2759 
Q 947 2416 947 1791 
Q 947 1169 1205 825 
Q 1463 481 1925 481 
Q 2391 481 2648 825 
Q 2906 1169 2906 1791 
z
M 3481 434 
Q 3481 -459 3084 -895 
Q 2688 -1331 1869 -1331 
Q 1566 -1331 1297 -1286 
Q 1028 -1241 775 -1147 
L 775 -588 
Q 1028 -725 1275 -790 
Q 1522 -856 1778 -856 
Q 2344 -856 2625 -561 
Q 2906 -266 2906 331 
L 2906 616 
Q 2728 306 2450 153 
Q 2172 0 1784 0 
Q 1141 0 747 490 
Q 353 981 353 1791 
Q 353 2603 747 3093 
Q 1141 3584 1784 3584 
Q 2172 3584 2450 3431 
Q 2728 3278 2906 2969 
L 2906 3500 
L 3481 3500 
L 3481 434 
z
" transform="scale(0.015625)"/>
       <path id="DejaVuSans-28" d="M 1984 4856 
Q 1566 4138 1362 3434 
Q 1159 2731 1159 2009 
Q 1159 1288 1364 580 
Q 1569 -128 1984 -844 
L 1484 -844 
Q 1016 -109 783 600 
Q 550 1309 550 2009 
Q 550 2706 781 3412 
Q 1013 4119 1484 4856 
L 1984 4856 
z
" transform="scale(0.015625)"/>
       <path id="DejaVuSans-76" d="M 191 3500 
L 800 3500 
L 1894 563 
L 2988 3500 
L 3597 3500 
L 2284 0 
L 1503 0 
L 191 3500 
z
" transform="scale(0.015625)"/>
       <path id="DejaVuSans-29" d="M 513 4856 
L 1013 4856 
Q 1481 4119 1714 3412 
Q 1947 2706 1947 2009 
Q 1947 1309 1714 600 
Q 1481 -109 1013 -844 
L 513 -844 
Q 928 -128 1133 580 
Q 1338 1288 1338 2009 
Q 1338 2731 1133 3434 
Q 928 4138 513 4856 
z
" transform="scale(0.015625)"/>
      </defs>
      <use xlink:href="#DejaVuSans-4d"/>
      <use xlink:href="#DejaVuSans-61" x="86.279297"/>
      <use xlink:href="#DejaVuSans-74" x="147.558594"/>
      <use xlink:href="#DejaVuSans-63" x="186.767578"/>
      <use xlink:href="#DejaVuSans-68" x="241.748047"/>
      <use xlink:href="#DejaVuSans-69" x="305.126953"/>
      <use xlink:href="#DejaVuSans-6e" x="332.910156"/>
      <use xlink:href="#DejaVuSans-67" x="396.289062"/>
      <use xlink:href="#DejaVuSans-20" x="459.765625"/>
      <use xlink:href="#DejaVuSans-53" x="491.552734"/>
      <use xlink:href="#DejaVuSans-63" x="555.029297"/>
      <use xlink:href="#DejaVuSans-6f" x="610.009766"/>
      <use xlink:href="#DejaVuSans-72" x="671.191406"/>
      <use xlink:href="#DejaVuSans-65" x="710.054688"/>
      <use xlink:href="#DejaVuSans-20" x="771.578125"/>
      <use xlink:href="#DejaVuSans-28" x="803.365234"/>
      <use xlink:href="#DejaVuSans-46" x="842.378906"/>
      <use xlink:href="#DejaVuSans-69" x="892.648438"/>
      <use xlink:href="#DejaVuSans-62" x="920.431641"/>
      <use xlink:href="#DejaVuSans-65" x="983.908203"/>
      <use xlink:href="#DejaVuSans-72" x="1045.431641"/>
      <use xlink:href="#DejaVuSans-73" x="1086.544922"/>
      <use xlink:href="#DejaVuSans-20" x="1138.644531"/>
      <use xlink:href="#DejaVuSans-76" x="1170.431641"/>
      <use xlink:href="#DejaVuSans-73" x="1229.611328"/>
      <use xlink:href="#DejaVuSans-20" x="1281.710938"/>
      <use xlink:href="#DejaVuSans-53" x="1313.498047"/>
      <use xlink:href="#DejaVuSans-79" x="1376.974609"/>
      <use xlink:href="#DejaVuSans-6e" x="1436.154297"/>
      <use xlink:href="#DejaVuSans-63" x="1499.533203"/>
      <use xlink:href="#DejaVuSans-20" x="1554.513672"/>
      <use xlink:href="#DejaVuSans-43" x="1586.300781"/>
      <use xlink:href="#DejaVuSans-6c" x="1656.125"/>
      <use xlink:href="#DejaVuSans-75" x="1683.908203"/>
      <use xlink:href="#DejaVuSans-73" x="1747.287109"/>
      <use xlink:href="#DejaVuSans-74" x="1799.386719"/>
      <use xlink:href="#DejaVuSans-65" x="1838.595703"/>
      <use xlink:href="#DejaVuSans-72" x="1900.119141"/>
      <use xlink:href="#DejaVuSans-73" x="1941.232422"/>
      <use xlink:href="#DejaVuSans-29" x="1993.332031"/>
     </g>
    </g>
   </g>
   <g id="line2d_42">
    <path d="M 46.145455 727.729412 
L 48.195041 727.729412 
L 50.244628 727.729412 
L 52.294215 727.729412 
L 54.343802 727.729412 
L 56.393388 727.729412 
L 58.442975 727.729412 
L 60.492562 727.729412 
L 62.542149 727.729412 
L 64.591736 727.729412 
L 66.641322 727.729412 
L 68.690909 727.729412 
L 70.740496 727.729412 
L 72.790083 727.729412 
L 74.839669 727.729412 
L 76.889256 727.729412 
L 78.938843 727.729412 
L 80.98843 727.729412 
L 83.038017 727.729412 
L 85.087603 727.729412 
L 87.13719 727.729412 
L 89.186777 727.729412 
L 91.236364 727.729412 
L 93.28595 727.729412 
L 95.335537 727.729412 
L 97.385124 727.729412 
L 99.434711 727.729412 
L 101.484298 727.729412 
L 103.533884 727.729412 
L 105.583471 727.729412 
L 107.633058 727.729412 
L 109.682645 727.729412 
L 111.732231 727.729412 
L 113.781818 727.729412 
L 115.831405 727.729412 
L 117.880992 727.729412 
L 119.930579 727.729412 
L 121.980165 727.729412 
L 124.029752 727.729412 
L 126.079339 728.43306 
L 128.128926 728.43306 
L 130.178512 729.840357 
L 132.228099 729.840357 
L 134.277686 729.840357 
L 136.327273 730.544006 
L 138.37686 731.247655 
L 140.426446 732.654952 
L 142.476033 736.173194 
L 144.52562 735.469546 
L 146.575207 738.987789 
L 148.624793 740.395086 
L 150.67438 748.13522 
L 152.723967 752.357111 
L 154.773554 760.800894 
L 156.82314 765.726433 
L 158.872727 773.466567 
L 160.922314 780.503053 
L 162.971901 788.946835 
L 165.021488 800.908861 
L 167.071074 810.056292 
L 169.120661 818.500074 
L 171.170248 826.943857 
L 173.219835 833.980343 
L 175.269421 837.498585 
L 177.319008 847.349665 
L 179.368595 850.867908 
L 181.418182 858.608042 
L 183.467769 864.940879 
L 185.517355 870.570067 
L 187.566942 876.902904 
L 189.616529 885.346687 
L 191.666116 888.161281 
L 193.715702 893.086821 
L 195.765289 898.01236 
L 197.814876 907.159792 
L 199.864463 914.196277 
L 201.91405 917.010871 
L 203.963636 917.010871 
L 206.013223 914.899926 
L 208.06281 912.78898 
L 210.112397 918.418168 
L 212.161983 923.343708 
L 214.21157 932.491139 
L 216.261157 928.972897 
L 218.310744 930.380194 
L 220.360331 931.787491 
L 222.409917 940.934922 
L 224.459504 938.823976 
L 226.509091 941.63857 
L 228.558678 943.045867 
L 230.608264 947.267759 
L 232.657851 950.082353 
L 234.707438 950.082353 
L 236.757025 946.56411 
L 238.806612 933.898436 
L 240.856198 919.121817 
L 242.905785 877.606552 
L 244.955372 877.606552 
L 247.004959 847.349665 
L 249.054545 847.349665 
" clip-path="url(#p060298364f)" style="fill: none; stroke: #1f77b4; stroke-width: 1.5; stroke-linecap: square"/>
   </g>
   <g id="patch_13">
    <path d="M 36 961.2 
L 36 716.611765 
" style="fill: none; stroke: #000000; stroke-width: 0.8; stroke-linejoin: miter; stroke-linecap: square"/>
   </g>
   <g id="patch_14">
    <path d="M 259.2 961.2 
L 259.2 716.611765 
" style="fill: none; stroke: #000000; stroke-width: 0.8; stroke-linejoin: miter; stroke-linecap: square"/>
   </g>
   <g id="patch_15">
    <path d="M 36 961.2 
L 259.2 961.2 
" style="fill: none; stroke: #000000; stroke-width: 0.8; stroke-linejoin: miter; stroke-linecap: square"/>
   </g>
   <g id="patch_16">
    <path d="M 36 716.611765 
L 259.2 716.611765 
" style="fill: none; stroke: #000000; stroke-width: 0.8; stroke-linejoin: miter; stroke-linecap: square"/>
   </g>
  </g>
  <g id="axes_4">
   <g id="matplotlib.axis_7">
    <g id="ytick_22">
     <g id="line2d_43">
      <defs>
       <path id="m9101a88ec4" d="M 0 0 
L 3.5 0 
" style="stroke: #000000; stroke-width: 0.8"/>
      </defs>
      <g>
       <use xlink:href="#m9101a88ec4" x="259.2" y="657.918641" style="stroke: #000000; stroke-width: 0.8"/>
      </g>
     </g>
     <g id="text_46">
      <!-- 0 -->
      <g transform="translate(266.2 661.71786) scale(0.1 -0.1)">
       <use xlink:href="#DejaVuSans-30"/>
      </g>
     </g>
    </g>
    <g id="ytick_23">
     <g id="line2d_44">
      <g>
       <use xlink:href="#m9101a88ec4" x="259.2" y="613.179619" style="stroke: #000000; stroke-width: 0.8"/>
      </g>
     </g>
     <g id="text_47">
      <!-- 100 -->
      <g transform="translate(266.2 616.978838) scale(0.1 -0.1)">
       <use xlink:href="#DejaVuSans-31"/>
       <use xlink:href="#DejaVuSans-30" x="63.623047"/>
       <use xlink:href="#DejaVuSans-30" x="127.246094"/>
      </g>
     </g>
    </g>
    <g id="ytick_24">
     <g id="line2d_45">
      <g>
       <use xlink:href="#m9101a88ec4" x="259.2" y="568.440597" style="stroke: #000000; stroke-width: 0.8"/>
      </g>
     </g>
     <g id="text_48">
      <!-- 200 -->
      <g transform="translate(266.2 572.239815) scale(0.1 -0.1)">
       <use xlink:href="#DejaVuSans-32"/>
       <use xlink:href="#DejaVuSans-30" x="63.623047"/>
       <use xlink:href="#DejaVuSans-30" x="127.246094"/>
      </g>
     </g>
    </g>
    <g id="ytick_25">
     <g id="line2d_46">
      <g>
       <use xlink:href="#m9101a88ec4" x="259.2" y="523.701574" style="stroke: #000000; stroke-width: 0.8"/>
      </g>
     </g>
     <g id="text_49">
      <!-- 300 -->
      <g transform="translate(266.2 527.500793) scale(0.1 -0.1)">
       <use xlink:href="#DejaVuSans-33"/>
       <use xlink:href="#DejaVuSans-30" x="63.623047"/>
       <use xlink:href="#DejaVuSans-30" x="127.246094"/>
      </g>
     </g>
    </g>
    <g id="ytick_26">
     <g id="line2d_47">
      <g>
       <use xlink:href="#m9101a88ec4" x="259.2" y="478.962552" style="stroke: #000000; stroke-width: 0.8"/>
      </g>
     </g>
     <g id="text_50">
      <!-- 400 -->
      <g transform="translate(266.2 482.761771) scale(0.1 -0.1)">
       <use xlink:href="#DejaVuSans-34"/>
       <use xlink:href="#DejaVuSans-30" x="63.623047"/>
       <use xlink:href="#DejaVuSans-30" x="127.246094"/>
      </g>
     </g>
    </g>
    <g id="ytick_27">
     <g id="line2d_48">
      <g>
       <use xlink:href="#m9101a88ec4" x="259.2" y="434.223529" style="stroke: #000000; stroke-width: 0.8"/>
      </g>
     </g>
     <g id="text_51">
      <!-- 500 -->
      <g transform="translate(266.2 438.022748) scale(0.1 -0.1)">
       <use xlink:href="#DejaVuSans-35"/>
       <use xlink:href="#DejaVuSans-30" x="63.623047"/>
       <use xlink:href="#DejaVuSans-30" x="127.246094"/>
      </g>
     </g>
    </g>
    <g id="text_52">
     <!-- Num Fibration Colors -->
     <g style="fill: #ff0000" transform="translate(296.885937 597.790625) rotate(-90) scale(0.1 -0.1)">
      <use xlink:href="#DejaVuSans-4e"/>
      <use xlink:href="#DejaVuSans-75" x="74.804688"/>
      <use xlink:href="#DejaVuSans-6d" x="138.183594"/>
      <use xlink:href="#DejaVuSans-20" x="235.595703"/>
      <use xlink:href="#DejaVuSans-46" x="267.382812"/>
      <use xlink:href="#DejaVuSans-69" x="317.652344"/>
      <use xlink:href="#DejaVuSans-62" x="345.435547"/>
      <use xlink:href="#DejaVuSans-72" x="408.912109"/>
      <use xlink:href="#DejaVuSans-61" x="450.025391"/>
      <use xlink:href="#DejaVuSans-74" x="511.304688"/>
      <use xlink:href="#DejaVuSans-69" x="550.513672"/>
      <use xlink:href="#DejaVuSans-6f" x="578.296875"/>
      <use xlink:href="#DejaVuSans-6e" x="639.478516"/>
      <use xlink:href="#DejaVuSans-20" x="702.857422"/>
      <use xlink:href="#DejaVuSans-43" x="734.644531"/>
      <use xlink:href="#DejaVuSans-6f" x="804.46875"/>
      <use xlink:href="#DejaVuSans-6c" x="865.650391"/>
      <use xlink:href="#DejaVuSans-6f" x="893.433594"/>
      <use xlink:href="#DejaVuSans-72" x="954.615234"/>
      <use xlink:href="#DejaVuSans-73" x="995.728516"/>
     </g>
    </g>
   </g>
   <g id="line2d_49">
    <path d="M 46.145455 434.223529 
L 48.195041 434.223529 
L 50.244628 434.223529 
L 52.294215 434.223529 
L 54.343802 434.223529 
L 56.393388 434.223529 
L 58.442975 434.223529 
L 60.492562 434.223529 
L 62.542149 434.223529 
L 64.591736 434.223529 
L 66.641322 434.223529 
L 68.690909 434.223529 
L 70.740496 434.223529 
L 72.790083 434.223529 
L 74.839669 434.223529 
L 76.889256 434.223529 
L 78.938843 434.223529 
L 80.98843 434.223529 
L 83.038017 434.223529 
L 85.087603 434.223529 
L 87.13719 434.223529 
L 89.186777 434.223529 
L 91.236364 434.223529 
L 93.28595 434.223529 
L 95.335537 434.223529 
L 97.385124 434.223529 
L 99.434711 434.223529 
L 101.484298 434.223529 
L 103.533884 434.223529 
L 105.583471 434.223529 
L 107.633058 434.223529 
L 109.682645 434.223529 
L 111.732231 434.223529 
L 113.781818 434.223529 
L 115.831405 434.223529 
L 117.880992 434.223529 
L 119.930579 434.223529 
L 121.980165 434.223529 
L 124.029752 434.223529 
L 126.079339 434.67092 
L 128.128926 434.67092 
L 130.178512 435.5657 
L 132.228099 435.5657 
L 134.277686 435.5657 
L 136.327273 436.01309 
L 138.37686 436.460481 
L 140.426446 437.355261 
L 142.476033 439.592212 
L 144.52562 441.829163 
L 146.575207 444.066114 
L 148.624793 445.855675 
L 150.67438 450.776968 
L 152.723967 453.461309 
L 154.773554 458.829992 
L 156.82314 463.303894 
L 158.872727 470.462138 
L 160.922314 476.27821 
L 162.971901 482.541674 
L 165.021488 492.831649 
L 167.071074 499.989892 
L 169.120661 508.042916 
L 171.170248 515.20116 
L 173.219835 525.938525 
L 175.269421 530.859818 
L 177.319008 539.807622 
L 179.368595 547.860646 
L 181.418182 556.36106 
L 183.467769 563.071914 
L 185.517355 567.993206 
L 187.566942 575.15145 
L 189.616529 583.204474 
L 191.666116 589.467937 
L 193.715702 594.83662 
L 195.765289 602.889644 
L 197.814876 607.810936 
L 199.864463 612.732229 
L 201.91405 618.548302 
L 203.963636 619.890472 
L 206.013223 623.022204 
L 208.06281 624.364374 
L 210.112397 628.838277 
L 212.161983 630.180447 
L 214.21157 633.312179 
L 216.261157 636.443911 
L 218.310744 638.233471 
L 220.360331 640.470423 
L 222.409917 642.259983 
L 224.459504 643.154764 
L 226.509091 645.391715 
L 228.558678 646.286495 
L 230.608264 647.628666 
L 232.657851 648.970837 
L 234.707438 649.865617 
L 236.757025 651.655178 
L 238.806612 652.997349 
L 240.856198 653.892129 
L 242.905785 655.2343 
L 244.955372 655.68169 
L 247.004959 656.576471 
L 249.054545 656.576471 
" clip-path="url(#pe5d2d8db57)" style="fill: none; stroke: #ff0000; stroke-width: 1.5; stroke-linecap: square"/>
   </g>
   <g id="patch_17">
    <path d="M 36 667.694118 
L 36 423.105882 
" style="fill: none; stroke: #000000; stroke-width: 0.8; stroke-linejoin: miter; stroke-linecap: square"/>
   </g>
   <g id="patch_18">
    <path d="M 259.2 667.694118 
L 259.2 423.105882 
" style="fill: none; stroke: #000000; stroke-width: 0.8; stroke-linejoin: miter; stroke-linecap: square"/>
   </g>
   <g id="patch_19">
    <path d="M 36 667.694118 
L 259.2 667.694118 
" style="fill: none; stroke: #000000; stroke-width: 0.8; stroke-linejoin: miter; stroke-linecap: square"/>
   </g>
   <g id="patch_20">
    <path d="M 36 423.105882 
L 259.2 423.105882 
" style="fill: none; stroke: #000000; stroke-width: 0.8; stroke-linejoin: miter; stroke-linecap: square"/>
   </g>
  </g>
 </g>
 <defs>
  <clipPath id="p1cdddde41b">
   <rect x="36" y="129.6" width="223.2" height="244.588235"/>
  </clipPath>
  <clipPath id="pe5d2d8db57">
   <rect x="36" y="423.105882" width="223.2" height="244.588235"/>
  </clipPath>
  <clipPath id="p060298364f">
   <rect x="36" y="716.611765" width="223.2" height="244.588235"/>
  </clipPath>
 </defs>
</svg>
