<?xml version="1.0" encoding="utf-8" standalone="no"?>
<!DOCTYPE svg PUBLIC "-//W3C//DTD SVG 1.1//EN"
  "http://www.w3.org/Graphics/SVG/1.1/DTD/svg11.dtd">
<svg xmlns:xlink="http://www.w3.org/1999/xlink" width="288pt" height="720pt" viewBox="0 0 288 720" xmlns="http://www.w3.org/2000/svg" version="1.1">
 <metadata>
  <rdf:RDF xmlns:dc="http://purl.org/dc/elements/1.1/" xmlns:cc="http://creativecommons.org/ns#" xmlns:rdf="http://www.w3.org/1999/02/22-rdf-syntax-ns#">
   <cc:Work>
    <dc:type rdf:resource="http://purl.org/dc/dcmitype/StillImage"/>
    <dc:date>2026-07-22T16:25:25.090647</dc:date>
    <dc:format>image/svg+xml</dc:format>
    <dc:creator>
     <cc:Agent>
      <dc:title>Matplotlib v3.7.5, https://matplotlib.org/</dc:title>
     </cc:Agent>
    </dc:creator>
   </cc:Work>
  </rdf:RDF>
 </metadata>
 <defs>
  <style type="text/css">*{stroke-linejoin: round; stroke-linecap: butt}</style>
 </defs>
 <g id="figure_1">
  <g id="patch_1">
   <path d="M 0 720 
L 288 720 
L 288 0 
L 0 0 
z
" style="fill: #ffffff"/>
  </g>
  <g id="axes_1">
   <g id="patch_2">
    <path d="M 36 338.4 
L 259.2 338.4 
L 259.2 86.4 
L 36 86.4 
z
" style="fill: #ffffff"/>
   </g>
   <g id="matplotlib.axis_1">
    <g id="xtick_1">
     <g id="line2d_1">
      <defs>
       <path id="m7f105c8f05" d="M 0 0 
L 0 3.5 
" style="stroke: #000000; stroke-width: 0.8"/>
      </defs>
      <g>
       <use xlink:href="#m7f105c8f05" x="46.145455" y="338.4" style="stroke: #000000; stroke-width: 0.8"/>
      </g>
     </g>
     <g id="text_1">
      <!-- 0.0 -->
      <g transform="translate(38.193892 352.998437) scale(0.1 -0.1)">
       <defs>
        <path id="DejaVuSans-30" d="M 2034 4250 
Q 1547 4250 1301 3770 
Q 1056 3291 1056 2328 
Q 1056 1369 1301 889 
Q 1547 409 2034 409 
Q 2525 409 2770 889 
Q 3016 1369 3016 2328 
Q 3016 3291 2770 3770 
Q 2525 4250 2034 4250 
z
M 2034 4750 
Q 2819 4750 3233 4129 
Q 3647 3509 3647 2328 
Q 3647 1150 3233 529 
Q 2819 -91 2034 -91 
Q 1250 -91 836 529 
Q 422 1150 422 2328 
Q 422 3509 836 4129 
Q 1250 4750 2034 4750 
z
" transform="scale(0.015625)"/>
        <path id="DejaVuSans-2e" d="M 684 794 
L 1344 794 
L 1344 0 
L 684 0 
L 684 794 
z
" transform="scale(0.015625)"/>
       </defs>
       <use xlink:href="#DejaVuSans-30"/>
       <use xlink:href="#DejaVuSans-2e" x="63.623047"/>
       <use xlink:href="#DejaVuSans-30" x="95.410156"/>
      </g>
     </g>
    </g>
    <g id="xtick_2">
     <g id="line2d_2">
      <g>
       <use xlink:href="#m7f105c8f05" x="86.727273" y="338.4" style="stroke: #000000; stroke-width: 0.8"/>
      </g>
     </g>
     <g id="text_2">
      <!-- 0.2 -->
      <g transform="translate(78.77571 352.998437) scale(0.1 -0.1)">
       <defs>
        <path id="DejaVuSans-32" d="M 1228 531 
L 3431 531 
L 3431 0 
L 469 0 
L 469 531 
Q 828 903 1448 1529 
Q 2069 2156 2228 2338 
Q 2531 2678 2651 2914 
Q 2772 3150 2772 3378 
Q 2772 3750 2511 3984 
Q 2250 4219 1831 4219 
Q 1534 4219 1204 4116 
Q 875 4013 500 3803 
L 500 4441 
Q 881 4594 1212 4672 
Q 1544 4750 1819 4750 
Q 2544 4750 2975 4387 
Q 3406 4025 3406 3419 
Q 3406 3131 3298 2873 
Q 3191 2616 2906 2266 
Q 2828 2175 2409 1742 
Q 1991 1309 1228 531 
z
" transform="scale(0.015625)"/>
       </defs>
       <use xlink:href="#DejaVuSans-30"/>
       <use xlink:href="#DejaVuSans-2e" x="63.623047"/>
       <use xlink:href="#DejaVuSans-32" x="95.410156"/>
      </g>
     </g>
    </g>
    <g id="xtick_3">
     <g id="line2d_3">
      <g>
       <use xlink:href="#m7f105c8f05" x="127.309091" y="338.4" style="stroke: #000000; stroke-width: 0.8"/>
      </g>
     </g>
     <g id="text_3">
      <!-- 0.4 -->
      <g transform="translate(119.357528 352.998437) scale(0.1 -0.1)">
       <defs>
        <path id="DejaVuSans-34" d="M 2419 4116 
L 825 1625 
L 2419 1625 
L 2419 4116 
z
M 2253 4666 
L 3047 4666 
L 3047 1625 
L 3713 1625 
L 3713 1100 
L 3047 1100 
L 3047 0 
L 2419 0 
L 2419 1100 
L 313 1100 
L 313 1709 
L 2253 4666 
z
" transform="scale(0.015625)"/>
       </defs>
       <use xlink:href="#DejaVuSans-30"/>
       <use xlink:href="#DejaVuSans-2e" x="63.623047"/>
       <use xlink:href="#DejaVuSans-34" x="95.410156"/>
      </g>
     </g>
    </g>
    <g id="xtick_4">
     <g id="line2d_4">
      <g>
       <use xlink:href="#m7f105c8f05" x="167.890909" y="338.4" style="stroke: #000000; stroke-width: 0.8"/>
      </g>
     </g>
     <g id="text_4">
      <!-- 0.6 -->
      <g transform="translate(159.939347 352.998437) scale(0.1 -0.1)">
       <defs>
        <path id="DejaVuSans-36" d="M 2113 2584 
Q 1688 2584 1439 2293 
Q 1191 2003 1191 1497 
Q 1191 994 1439 701 
Q 1688 409 2113 409 
Q 2538 409 2786 701 
Q 3034 994 3034 1497 
Q 3034 2003 2786 2293 
Q 2538 2584 2113 2584 
z
M 3366 4563 
L 3366 3988 
Q 3128 4100 2886 4159 
Q 2644 4219 2406 4219 
Q 1781 4219 1451 3797 
Q 1122 3375 1075 2522 
Q 1259 2794 1537 2939 
Q 1816 3084 2150 3084 
Q 2853 3084 3261 2657 
Q 3669 2231 3669 1497 
Q 3669 778 3244 343 
Q 2819 -91 2113 -91 
Q 1303 -91 875 529 
Q 447 1150 447 2328 
Q 447 3434 972 4092 
Q 1497 4750 2381 4750 
Q 2619 4750 2861 4703 
Q 3103 4656 3366 4563 
z
" transform="scale(0.015625)"/>
       </defs>
       <use xlink:href="#DejaVuSans-30"/>
       <use xlink:href="#DejaVuSans-2e" x="63.623047"/>
       <use xlink:href="#DejaVuSans-36" x="95.410156"/>
      </g>
     </g>
    </g>
    <g id="xtick_5">
     <g id="line2d_5">
      <g>
       <use xlink:href="#m7f105c8f05" x="208.472727" y="338.4" style="stroke: #000000; stroke-width: 0.8"/>
      </g>
     </g>
     <g id="text_5">
      <!-- 0.8 -->
      <g transform="translate(200.521165 352.998437) scale(0.1 -0.1)">
       <defs>
        <path id="DejaVuSans-38" d="M 2034 2216 
Q 1584 2216 1326 1975 
Q 1069 1734 1069 1313 
Q 1069 891 1326 650 
Q 1584 409 2034 409 
Q 2484 409 2743 651 
Q 3003 894 3003 1313 
Q 3003 1734 2745 1975 
Q 2488 2216 2034 2216 
z
M 1403 2484 
Q 997 2584 770 2862 
Q 544 3141 544 3541 
Q 544 4100 942 4425 
Q 1341 4750 2034 4750 
Q 2731 4750 3128 4425 
Q 3525 4100 3525 3541 
Q 3525 3141 3298 2862 
Q 3072 2584 2669 2484 
Q 3125 2378 3379 2068 
Q 3634 1759 3634 1313 
Q 3634 634 3220 271 
Q 2806 -91 2034 -91 
Q 1263 -91 848 271 
Q 434 634 434 1313 
Q 434 1759 690 2068 
Q 947 2378 1403 2484 
z
M 1172 3481 
Q 1172 3119 1398 2916 
Q 1625 2713 2034 2713 
Q 2441 2713 2670 2916 
Q 2900 3119 2900 3481 
Q 2900 3844 2670 4047 
Q 2441 4250 2034 4250 
Q 1625 4250 1398 4047 
Q 1172 3844 1172 3481 
z
" transform="scale(0.015625)"/>
       </defs>
       <use xlink:href="#DejaVuSans-30"/>
       <use xlink:href="#DejaVuSans-2e" x="63.623047"/>
       <use xlink:href="#DejaVuSans-38" x="95.410156"/>
      </g>
     </g>
    </g>
    <g id="xtick_6">
     <g id="line2d_6">
      <g>
       <use xlink:href="#m7f105c8f05" x="249.054545" y="338.4" style="stroke: #000000; stroke-width: 0.8"/>
      </g>
     </g>
     <g id="text_6">
      <!-- 1.0 -->
      <g transform="translate(241.102983 352.998437) scale(0.1 -0.1)">
       <defs>
        <path id="DejaVuSans-31" d="M 794 531 
L 1825 531 
L 1825 4091 
L 703 3866 
L 703 4441 
L 1819 4666 
L 2450 4666 
L 2450 531 
L 3481 531 
L 3481 0 
L 794 0 
L 794 531 
z
" transform="scale(0.015625)"/>
       </defs>
       <use xlink:href="#DejaVuSans-31"/>
       <use xlink:href="#DejaVuSans-2e" x="63.623047"/>
       <use xlink:href="#DejaVuSans-30" x="95.410156"/>
      </g>
     </g>
    </g>
    <g id="text_7">
     <!-- Fibration Threshold -->
     <g transform="translate(99.599219 366.676562) scale(0.1 -0.1)">
      <defs>
       <path id="DejaVuSans-46" d="M 628 4666 
L 3309 4666 
L 3309 4134 
L 1259 4134 
L 1259 2759 
L 3109 2759 
L 3109 2228 
L 1259 2228 
L 1259 0 
L 628 0 
L 628 4666 
z
" transform="scale(0.015625)"/>
       <path id="DejaVuSans-69" d="M 603 3500 
L 1178 3500 
L 1178 0 
L 603 0 
L 603 3500 
z
M 603 4863 
L 1178 4863 
L 1178 4134 
L 603 4134 
L 603 4863 
z
" transform="scale(0.015625)"/>
       <path id="DejaVuSans-62" d="M 3116 1747 
Q 3116 2381 2855 2742 
Q 2594 3103 2138 3103 
Q 1681 3103 1420 2742 
Q 1159 2381 1159 1747 
Q 1159 1113 1420 752 
Q 1681 391 2138 391 
Q 2594 391 2855 752 
Q 3116 1113 3116 1747 
z
M 1159 2969 
Q 1341 3281 1617 3432 
Q 1894 3584 2278 3584 
Q 2916 3584 3314 3078 
Q 3713 2572 3713 1747 
Q 3713 922 3314 415 
Q 2916 -91 2278 -91 
Q 1894 -91 1617 61 
Q 1341 213 1159 525 
L 1159 0 
L 581 0 
L 581 4863 
L 1159 4863 
L 1159 2969 
z
" transform="scale(0.015625)"/>
       <path id="DejaVuSans-72" d="M 2631 2963 
Q 2534 3019 2420 3045 
Q 2306 3072 2169 3072 
Q 1681 3072 1420 2755 
Q 1159 2438 1159 1844 
L 1159 0 
L 581 0 
L 581 3500 
L 1159 3500 
L 1159 2956 
Q 1341 3275 1631 3429 
Q 1922 3584 2338 3584 
Q 2397 3584 2469 3576 
Q 2541 3569 2628 3553 
L 2631 2963 
z
" transform="scale(0.015625)"/>
       <path id="DejaVuSans-61" d="M 2194 1759 
Q 1497 1759 1228 1600 
Q 959 1441 959 1056 
Q 959 750 1161 570 
Q 1363 391 1709 391 
Q 2188 391 2477 730 
Q 2766 1069 2766 1631 
L 2766 1759 
L 2194 1759 
z
M 3341 1997 
L 3341 0 
L 2766 0 
L 2766 531 
Q 2569 213 2275 61 
Q 1981 -91 1556 -91 
Q 1019 -91 701 211 
Q 384 513 384 1019 
Q 384 1609 779 1909 
Q 1175 2209 1959 2209 
L 2766 2209 
L 2766 2266 
Q 2766 2663 2505 2880 
Q 2244 3097 1772 3097 
Q 1472 3097 1187 3025 
Q 903 2953 641 2809 
L 641 3341 
Q 956 3463 1253 3523 
Q 1550 3584 1831 3584 
Q 2591 3584 2966 3190 
Q 3341 2797 3341 1997 
z
" transform="scale(0.015625)"/>
       <path id="DejaVuSans-74" d="M 1172 4494 
L 1172 3500 
L 2356 3500 
L 2356 3053 
L 1172 3053 
L 1172 1153 
Q 1172 725 1289 603 
Q 1406 481 1766 481 
L 2356 481 
L 2356 0 
L 1766 0 
Q 1100 0 847 248 
Q 594 497 594 1153 
L 594 3053 
L 172 3053 
L 172 3500 
L 594 3500 
L 594 4494 
L 1172 4494 
z
" transform="scale(0.015625)"/>
       <path id="DejaVuSans-6f" d="M 1959 3097 
Q 1497 3097 1228 2736 
Q 959 2375 959 1747 
Q 959 1119 1226 758 
Q 1494 397 1959 397 
Q 2419 397 2687 759 
Q 2956 1122 2956 1747 
Q 2956 2369 2687 2733 
Q 2419 3097 1959 3097 
z
M 1959 3584 
Q 2709 3584 3137 3096 
Q 3566 2609 3566 1747 
Q 3566 888 3137 398 
Q 2709 -91 1959 -91 
Q 1206 -91 779 398 
Q 353 888 353 1747 
Q 353 2609 779 3096 
Q 1206 3584 1959 3584 
z
" transform="scale(0.015625)"/>
       <path id="DejaVuSans-6e" d="M 3513 2113 
L 3513 0 
L 2938 0 
L 2938 2094 
Q 2938 2591 2744 2837 
Q 2550 3084 2163 3084 
Q 1697 3084 1428 2787 
Q 1159 2491 1159 1978 
L 1159 0 
L 581 0 
L 581 3500 
L 1159 3500 
L 1159 2956 
Q 1366 3272 1645 3428 
Q 1925 3584 2291 3584 
Q 2894 3584 3203 3211 
Q 3513 2838 3513 2113 
z
" transform="scale(0.015625)"/>
       <path id="DejaVuSans-20" transform="scale(0.015625)"/>
       <path id="DejaVuSans-54" d="M -19 4666 
L 3928 4666 
L 3928 4134 
L 2272 4134 
L 2272 0 
L 1638 0 
L 1638 4134 
L -19 4134 
L -19 4666 
z
" transform="scale(0.015625)"/>
       <path id="DejaVuSans-68" d="M 3513 2113 
L 3513 0 
L 2938 0 
L 2938 2094 
Q 2938 2591 2744 2837 
Q 2550 3084 2163 3084 
Q 1697 3084 1428 2787 
Q 1159 2491 1159 1978 
L 1159 0 
L 581 0 
L 581 4863 
L 1159 4863 
L 1159 2956 
Q 1366 3272 1645 3428 
Q 1925 3584 2291 3584 
Q 2894 3584 3203 3211 
Q 3513 2838 3513 2113 
z
" transform="scale(0.015625)"/>
       <path id="DejaVuSans-65" d="M 3597 1894 
L 3597 1613 
L 953 1613 
Q 991 1019 1311 708 
Q 1631 397 2203 397 
Q 2534 397 2845 478 
Q 3156 559 3463 722 
L 3463 178 
Q 3153 47 2828 -22 
Q 2503 -91 2169 -91 
Q 1331 -91 842 396 
Q 353 884 353 1716 
Q 353 2575 817 3079 
Q 1281 3584 2069 3584 
Q 2775 3584 3186 3129 
Q 3597 2675 3597 1894 
z
M 3022 2063 
Q 3016 2534 2758 2815 
Q 2500 3097 2075 3097 
Q 1594 3097 1305 2825 
Q 1016 2553 972 2059 
L 3022 2063 
z
" transform="scale(0.015625)"/>
       <path id="DejaVuSans-73" d="M 2834 3397 
L 2834 2853 
Q 2591 2978 2328 3040 
Q 2066 3103 1784 3103 
Q 1356 3103 1142 2972 
Q 928 2841 928 2578 
Q 928 2378 1081 2264 
Q 1234 2150 1697 2047 
L 1894 2003 
Q 2506 1872 2764 1633 
Q 3022 1394 3022 966 
Q 3022 478 2636 193 
Q 2250 -91 1575 -91 
Q 1294 -91 989 -36 
Q 684 19 347 128 
L 347 722 
Q 666 556 975 473 
Q 1284 391 1588 391 
Q 1994 391 2212 530 
Q 2431 669 2431 922 
Q 2431 1156 2273 1281 
Q 2116 1406 1581 1522 
L 1381 1569 
Q 847 1681 609 1914 
Q 372 2147 372 2553 
Q 372 3047 722 3315 
Q 1072 3584 1716 3584 
Q 2034 3584 2315 3537 
Q 2597 3491 2834 3397 
z
" transform="scale(0.015625)"/>
       <path id="DejaVuSans-6c" d="M 603 4863 
L 1178 4863 
L 1178 0 
L 603 0 
L 603 4863 
z
" transform="scale(0.015625)"/>
       <path id="DejaVuSans-64" d="M 2906 2969 
L 2906 4863 
L 3481 4863 
L 3481 0 
L 2906 0 
L 2906 525 
Q 2725 213 2448 61 
Q 2172 -91 1784 -91 
Q 1150 -91 751 415 
Q 353 922 353 1747 
Q 353 2572 751 3078 
Q 1150 3584 1784 3584 
Q 2172 3584 2448 3432 
Q 2725 3281 2906 2969 
z
M 947 1747 
Q 947 1113 1208 752 
Q 1469 391 1925 391 
Q 2381 391 2643 752 
Q 2906 1113 2906 1747 
Q 2906 2381 2643 2742 
Q 2381 3103 1925 3103 
Q 1469 3103 1208 2742 
Q 947 2381 947 1747 
z
" transform="scale(0.015625)"/>
      </defs>
      <use xlink:href="#DejaVuSans-46"/>
      <use xlink:href="#DejaVuSans-69" x="50.269531"/>
      <use xlink:href="#DejaVuSans-62" x="78.052734"/>
      <use xlink:href="#DejaVuSans-72" x="141.529297"/>
      <use xlink:href="#DejaVuSans-61" x="182.642578"/>
      <use xlink:href="#DejaVuSans-74" x="243.921875"/>
      <use xlink:href="#DejaVuSans-69" x="283.130859"/>
      <use xlink:href="#DejaVuSans-6f" x="310.914062"/>
      <use xlink:href="#DejaVuSans-6e" x="372.095703"/>
      <use xlink:href="#DejaVuSans-20" x="435.474609"/>
      <use xlink:href="#DejaVuSans-54" x="467.261719"/>
      <use xlink:href="#DejaVuSans-68" x="528.345703"/>
      <use xlink:href="#DejaVuSans-72" x="591.724609"/>
      <use xlink:href="#DejaVuSans-65" x="630.587891"/>
      <use xlink:href="#DejaVuSans-73" x="692.111328"/>
      <use xlink:href="#DejaVuSans-68" x="744.210938"/>
      <use xlink:href="#DejaVuSans-6f" x="807.589844"/>
      <use xlink:href="#DejaVuSans-6c" x="868.771484"/>
      <use xlink:href="#DejaVuSans-64" x="896.554688"/>
     </g>
    </g>
   </g>
   <g id="matplotlib.axis_2">
    <g id="ytick_1">
     <g id="line2d_7">
      <defs>
       <path id="mdc1385755a" d="M 0 0 
L -3.5 0 
" style="stroke: #000000; stroke-width: 0.8"/>
      </defs>
      <g>
       <use xlink:href="#mdc1385755a" x="36" y="326.945455" style="stroke: #000000; stroke-width: 0.8"/>
      </g>
     </g>
     <g id="text_8">
      <!-- 0.0 -->
      <g transform="translate(13.096875 330.744673) scale(0.1 -0.1)">
       <use xlink:href="#DejaVuSans-30"/>
       <use xlink:href="#DejaVuSans-2e" x="63.623047"/>
       <use xlink:href="#DejaVuSans-30" x="95.410156"/>
      </g>
     </g>
    </g>
    <g id="ytick_2">
     <g id="line2d_8">
      <g>
       <use xlink:href="#mdc1385755a" x="36" y="281.127273" style="stroke: #000000; stroke-width: 0.8"/>
      </g>
     </g>
     <g id="text_9">
      <!-- 0.2 -->
      <g transform="translate(13.096875 284.926491) scale(0.1 -0.1)">
       <use xlink:href="#DejaVuSans-30"/>
       <use xlink:href="#DejaVuSans-2e" x="63.623047"/>
       <use xlink:href="#DejaVuSans-32" x="95.410156"/>
      </g>
     </g>
    </g>
    <g id="ytick_3">
     <g id="line2d_9">
      <g>
       <use xlink:href="#mdc1385755a" x="36" y="235.309091" style="stroke: #000000; stroke-width: 0.8"/>
      </g>
     </g>
     <g id="text_10">
      <!-- 0.4 -->
      <g transform="translate(13.096875 239.10831) scale(0.1 -0.1)">
       <use xlink:href="#DejaVuSans-30"/>
       <use xlink:href="#DejaVuSans-2e" x="63.623047"/>
       <use xlink:href="#DejaVuSans-34" x="95.410156"/>
      </g>
     </g>
    </g>
    <g id="ytick_4">
     <g id="line2d_10">
      <g>
       <use xlink:href="#mdc1385755a" x="36" y="189.490909" style="stroke: #000000; stroke-width: 0.8"/>
      </g>
     </g>
     <g id="text_11">
      <!-- 0.6 -->
      <g transform="translate(13.096875 193.290128) scale(0.1 -0.1)">
       <use xlink:href="#DejaVuSans-30"/>
       <use xlink:href="#DejaVuSans-2e" x="63.623047"/>
       <use xlink:href="#DejaVuSans-36" x="95.410156"/>
      </g>
     </g>
    </g>
    <g id="ytick_5">
     <g id="line2d_11">
      <g>
       <use xlink:href="#mdc1385755a" x="36" y="143.672727" style="stroke: #000000; stroke-width: 0.8"/>
      </g>
     </g>
     <g id="text_12">
      <!-- 0.8 -->
      <g transform="translate(13.096875 147.471946) scale(0.1 -0.1)">
       <use xlink:href="#DejaVuSans-30"/>
       <use xlink:href="#DejaVuSans-2e" x="63.623047"/>
       <use xlink:href="#DejaVuSans-38" x="95.410156"/>
      </g>
     </g>
    </g>
    <g id="ytick_6">
     <g id="line2d_12">
      <g>
       <use xlink:href="#mdc1385755a" x="36" y="97.854545" style="stroke: #000000; stroke-width: 0.8"/>
      </g>
     </g>
     <g id="text_13">
      <!-- 1.0 -->
      <g transform="translate(13.096875 101.653764) scale(0.1 -0.1)">
       <use xlink:href="#DejaVuSans-31"/>
       <use xlink:href="#DejaVuSans-2e" x="63.623047"/>
       <use xlink:href="#DejaVuSans-30" x="95.410156"/>
      </g>
     </g>
    </g>
    <g id="text_14">
     <!-- Refinement: Fibers in Mean Class Clusters -->
     <g transform="translate(7.017187 317.325) rotate(-90) scale(0.1 -0.1)">
      <defs>
       <path id="DejaVuSans-52" d="M 2841 2188 
Q 3044 2119 3236 1894 
Q 3428 1669 3622 1275 
L 4263 0 
L 3584 0 
L 2988 1197 
Q 2756 1666 2539 1819 
Q 2322 1972 1947 1972 
L 1259 1972 
L 1259 0 
L 628 0 
L 628 4666 
L 2053 4666 
Q 2853 4666 3247 4331 
Q 3641 3997 3641 3322 
Q 3641 2881 3436 2590 
Q 3231 2300 2841 2188 
z
M 1259 4147 
L 1259 2491 
L 2053 2491 
Q 2509 2491 2742 2702 
Q 2975 2913 2975 3322 
Q 2975 3731 2742 3939 
Q 2509 4147 2053 4147 
L 1259 4147 
z
" transform="scale(0.015625)"/>
       <path id="DejaVuSans-66" d="M 2375 4863 
L 2375 4384 
L 1825 4384 
Q 1516 4384 1395 4259 
Q 1275 4134 1275 3809 
L 1275 3500 
L 2222 3500 
L 2222 3053 
L 1275 3053 
L 1275 0 
L 697 0 
L 697 3053 
L 147 3053 
L 147 3500 
L 697 3500 
L 697 3744 
Q 697 4328 969 4595 
Q 1241 4863 1831 4863 
L 2375 4863 
z
" transform="scale(0.015625)"/>
       <path id="DejaVuSans-6d" d="M 3328 2828 
Q 3544 3216 3844 3400 
Q 4144 3584 4550 3584 
Q 5097 3584 5394 3201 
Q 5691 2819 5691 2113 
L 5691 0 
L 5113 0 
L 5113 2094 
Q 5113 2597 4934 2840 
Q 4756 3084 4391 3084 
Q 3944 3084 3684 2787 
Q 3425 2491 3425 1978 
L 3425 0 
L 2847 0 
L 2847 2094 
Q 2847 2600 2669 2842 
Q 2491 3084 2119 3084 
Q 1678 3084 1418 2786 
Q 1159 2488 1159 1978 
L 1159 0 
L 581 0 
L 581 3500 
L 1159 3500 
L 1159 2956 
Q 1356 3278 1631 3431 
Q 1906 3584 2284 3584 
Q 2666 3584 2933 3390 
Q 3200 3197 3328 2828 
z
" transform="scale(0.015625)"/>
       <path id="DejaVuSans-3a" d="M 750 794 
L 1409 794 
L 1409 0 
L 750 0 
L 750 794 
z
M 750 3309 
L 1409 3309 
L 1409 2516 
L 750 2516 
L 750 3309 
z
" transform="scale(0.015625)"/>
       <path id="DejaVuSans-4d" d="M 628 4666 
L 1569 4666 
L 2759 1491 
L 3956 4666 
L 4897 4666 
L 4897 0 
L 4281 0 
L 4281 4097 
L 3078 897 
L 2444 897 
L 1241 4097 
L 1241 0 
L 628 0 
L 628 4666 
z
" transform="scale(0.015625)"/>
       <path id="DejaVuSans-43" d="M 4122 4306 
L 4122 3641 
Q 3803 3938 3442 4084 
Q 3081 4231 2675 4231 
Q 1875 4231 1450 3742 
Q 1025 3253 1025 2328 
Q 1025 1406 1450 917 
Q 1875 428 2675 428 
Q 3081 428 3442 575 
Q 3803 722 4122 1019 
L 4122 359 
Q 3791 134 3420 21 
Q 3050 -91 2638 -91 
Q 1578 -91 968 557 
Q 359 1206 359 2328 
Q 359 3453 968 4101 
Q 1578 4750 2638 4750 
Q 3056 4750 3426 4639 
Q 3797 4528 4122 4306 
z
" transform="scale(0.015625)"/>
       <path id="DejaVuSans-75" d="M 544 1381 
L 544 3500 
L 1119 3500 
L 1119 1403 
Q 1119 906 1312 657 
Q 1506 409 1894 409 
Q 2359 409 2629 706 
Q 2900 1003 2900 1516 
L 2900 3500 
L 3475 3500 
L 3475 0 
L 2900 0 
L 2900 538 
Q 2691 219 2414 64 
Q 2138 -91 1772 -91 
Q 1169 -91 856 284 
Q 544 659 544 1381 
z
M 1991 3584 
L 1991 3584 
z
" transform="scale(0.015625)"/>
      </defs>
      <use xlink:href="#DejaVuSans-52"/>
      <use xlink:href="#DejaVuSans-65" x="64.982422"/>
      <use xlink:href="#DejaVuSans-66" x="126.505859"/>
      <use xlink:href="#DejaVuSans-69" x="161.710938"/>
      <use xlink:href="#DejaVuSans-6e" x="189.494141"/>
      <use xlink:href="#DejaVuSans-65" x="252.873047"/>
      <use xlink:href="#DejaVuSans-6d" x="314.396484"/>
      <use xlink:href="#DejaVuSans-65" x="411.808594"/>
      <use xlink:href="#DejaVuSans-6e" x="473.332031"/>
      <use xlink:href="#DejaVuSans-74" x="536.710938"/>
      <use xlink:href="#DejaVuSans-3a" x="575.919922"/>
      <use xlink:href="#DejaVuSans-20" x="609.611328"/>
      <use xlink:href="#DejaVuSans-46" x="641.398438"/>
      <use xlink:href="#DejaVuSans-69" x="691.667969"/>
      <use xlink:href="#DejaVuSans-62" x="719.451172"/>
      <use xlink:href="#DejaVuSans-65" x="782.927734"/>
      <use xlink:href="#DejaVuSans-72" x="844.451172"/>
      <use xlink:href="#DejaVuSans-73" x="885.564453"/>
      <use xlink:href="#DejaVuSans-20" x="937.664062"/>
      <use xlink:href="#DejaVuSans-69" x="969.451172"/>
      <use xlink:href="#DejaVuSans-6e" x="997.234375"/>
      <use xlink:href="#DejaVuSans-20" x="1060.613281"/>
      <use xlink:href="#DejaVuSans-4d" x="1092.400391"/>
      <use xlink:href="#DejaVuSans-65" x="1178.679688"/>
      <use xlink:href="#DejaVuSans-61" x="1240.203125"/>
      <use xlink:href="#DejaVuSans-6e" x="1301.482422"/>
      <use xlink:href="#DejaVuSans-20" x="1364.861328"/>
      <use xlink:href="#DejaVuSans-43" x="1396.648438"/>
      <use xlink:href="#DejaVuSans-6c" x="1466.472656"/>
      <use xlink:href="#DejaVuSans-61" x="1494.255859"/>
      <use xlink:href="#DejaVuSans-73" x="1555.535156"/>
      <use xlink:href="#DejaVuSans-73" x="1607.634766"/>
      <use xlink:href="#DejaVuSans-20" x="1659.734375"/>
      <use xlink:href="#DejaVuSans-43" x="1691.521484"/>
      <use xlink:href="#DejaVuSans-6c" x="1761.345703"/>
      <use xlink:href="#DejaVuSans-75" x="1789.128906"/>
      <use xlink:href="#DejaVuSans-73" x="1852.507812"/>
      <use xlink:href="#DejaVuSans-74" x="1904.607422"/>
      <use xlink:href="#DejaVuSans-65" x="1943.816406"/>
      <use xlink:href="#DejaVuSans-72" x="2005.339844"/>
      <use xlink:href="#DejaVuSans-73" x="2046.453125"/>
     </g>
    </g>
   </g>
   <g id="line2d_13">
    <path d="M 46.145455 97.854545 
L 48.195041 97.854545 
L 50.244628 97.854545 
L 52.294215 97.854545 
L 54.343802 97.854545 
L 56.393388 97.854545 
L 58.442975 97.854545 
L 60.492562 97.854545 
L 62.542149 97.854545 
L 64.591736 97.854545 
L 66.641322 97.854545 
L 68.690909 97.854545 
L 70.740496 97.854545 
L 72.790083 97.854545 
L 74.839669 97.854545 
L 76.889256 97.854545 
L 78.938843 97.854545 
L 80.98843 97.854545 
L 83.038017 97.854545 
L 85.087603 97.854545 
L 87.13719 97.854545 
L 89.186777 97.854545 
L 91.236364 97.854545 
L 93.28595 97.854545 
L 95.335537 97.854545 
L 97.385124 97.854545 
L 99.434711 97.854545 
L 101.484298 97.854545 
L 103.533884 97.854545 
L 105.583471 97.854545 
L 107.633058 97.854545 
L 109.682645 97.854545 
L 111.732231 97.854545 
L 113.781818 97.854545 
L 115.831405 97.854545 
L 117.880992 97.854545 
L 119.930579 97.854545 
L 121.980165 97.854545 
L 124.029752 97.854545 
L 126.079339 98.313645 
L 128.128926 98.313645 
L 130.178512 98.77644 
L 132.228099 98.77644 
L 134.277686 98.77644 
L 136.327273 99.240176 
L 138.37686 99.705785 
L 140.426446 100.64267 
L 142.476033 102.079583 
L 144.52562 103.071937 
L 146.575207 105.043591 
L 148.624793 105.587572 
L 150.67438 110.224465 
L 152.723967 111.389457 
L 154.773554 116.387743 
L 156.82314 121.026959 
L 158.872727 124.645606 
L 160.922314 129.453292 
L 162.971901 132.919481 
L 165.021488 143.796896 
L 167.071074 149.773165 
L 169.120661 157.349796 
L 171.170248 163.206498 
L 173.219835 179.395378 
L 175.269421 181.746991 
L 177.319008 187.234711 
L 179.368595 196.568514 
L 181.418182 204.830917 
L 183.467769 209.158148 
L 185.517355 216.389145 
L 187.566942 216.734152 
L 189.616529 229.547523 
L 191.666116 238.603209 
L 193.715702 247.332302 
L 195.765289 258.031929 
L 197.814876 259.445455 
L 199.864463 258.89865 
L 201.91405 267.069421 
L 203.963636 264.95615 
L 206.013223 265.267133 
L 208.06281 265.854545 
L 210.112397 256.455944 
L 212.161983 256.740176 
L 214.21157 251.970248 
L 216.261157 245.809091 
L 218.310744 238.433058 
L 220.360331 232.959441 
L 222.409917 235.309091 
L 224.459504 236.697521 
L 226.509091 236.945455 
L 228.558678 238.833566 
L 230.608264 237.301186 
L 232.657851 246.763636 
L 234.707438 263.309091 
L 236.757025 277.854545 
L 238.806612 285.292562 
L 240.856198 301.490909 
L 242.905785 288.763636 
L 244.955372 281.127273 
L 247.004959 326.945455 
L 249.054545 326.945455 
" clip-path="url(#p2af9912a51)" style="fill: none; stroke: #1f77b4; stroke-width: 1.5; stroke-linecap: square"/>
   </g>
   <g id="patch_3">
    <path d="M 36 338.4 
L 36 86.4 
" style="fill: none; stroke: #000000; stroke-width: 0.8; stroke-linejoin: miter; stroke-linecap: square"/>
   </g>
   <g id="patch_4">
    <path d="M 259.2 338.4 
L 259.2 86.4 
" style="fill: none; stroke: #000000; stroke-width: 0.8; stroke-linejoin: miter; stroke-linecap: square"/>
   </g>
   <g id="patch_5">
    <path d="M 36 338.4 
L 259.2 338.4 
" style="fill: none; stroke: #000000; stroke-width: 0.8; stroke-linejoin: miter; stroke-linecap: square"/>
   </g>
   <g id="patch_6">
    <path d="M 36 86.4 
L 259.2 86.4 
" style="fill: none; stroke: #000000; stroke-width: 0.8; stroke-linejoin: miter; stroke-linecap: square"/>
   </g>
  </g>
  <g id="axes_2">
   <g id="patch_7">
    <path d="M 36 640.8 
L 259.2 640.8 
L 259.2 388.8 
L 36 388.8 
z
" style="fill: #ffffff"/>
   </g>
   <g id="matplotlib.axis_3">
    <g id="xtick_7">
     <g id="line2d_14">
      <g>
       <use xlink:href="#m7f105c8f05" x="46.145455" y="640.8" style="stroke: #000000; stroke-width: 0.8"/>
      </g>
     </g>
     <g id="text_15">
      <!-- 0.0 -->
      <g transform="translate(38.193892 655.398438) scale(0.1 -0.1)">
       <use xlink:href="#DejaVuSans-30"/>
       <use xlink:href="#DejaVuSans-2e" x="63.623047"/>
       <use xlink:href="#DejaVuSans-30" x="95.410156"/>
      </g>
     </g>
    </g>
    <g id="xtick_8">
     <g id="line2d_15">
      <g>
       <use xlink:href="#m7f105c8f05" x="96.872727" y="640.8" style="stroke: #000000; stroke-width: 0.8"/>
      </g>
     </g>
     <g id="text_16">
      <!-- 0.5 -->
      <g transform="translate(88.921165 655.398438) scale(0.1 -0.1)">
       <defs>
        <path id="DejaVuSans-35" d="M 691 4666 
L 3169 4666 
L 3169 4134 
L 1269 4134 
L 1269 2991 
Q 1406 3038 1543 3061 
Q 1681 3084 1819 3084 
Q 2600 3084 3056 2656 
Q 3513 2228 3513 1497 
Q 3513 744 3044 326 
Q 2575 -91 1722 -91 
Q 1428 -91 1123 -41 
Q 819 9 494 109 
L 494 744 
Q 775 591 1075 516 
Q 1375 441 1709 441 
Q 2250 441 2565 725 
Q 2881 1009 2881 1497 
Q 2881 1984 2565 2268 
Q 2250 2553 1709 2553 
Q 1456 2553 1204 2497 
Q 953 2441 691 2322 
L 691 4666 
z
" transform="scale(0.015625)"/>
       </defs>
       <use xlink:href="#DejaVuSans-30"/>
       <use xlink:href="#DejaVuSans-2e" x="63.623047"/>
       <use xlink:href="#DejaVuSans-35" x="95.410156"/>
      </g>
     </g>
    </g>
    <g id="xtick_9">
     <g id="line2d_16">
      <g>
       <use xlink:href="#m7f105c8f05" x="147.6" y="640.8" style="stroke: #000000; stroke-width: 0.8"/>
      </g>
     </g>
     <g id="text_17">
      <!-- 1.0 -->
      <g transform="translate(139.648437 655.398438) scale(0.1 -0.1)">
       <use xlink:href="#DejaVuSans-31"/>
       <use xlink:href="#DejaVuSans-2e" x="63.623047"/>
       <use xlink:href="#DejaVuSans-30" x="95.410156"/>
      </g>
     </g>
    </g>
    <g id="xtick_10">
     <g id="line2d_17">
      <g>
       <use xlink:href="#m7f105c8f05" x="198.327273" y="640.8" style="stroke: #000000; stroke-width: 0.8"/>
      </g>
     </g>
     <g id="text_18">
      <!-- 1.5 -->
      <g transform="translate(190.37571 655.398438) scale(0.1 -0.1)">
       <use xlink:href="#DejaVuSans-31"/>
       <use xlink:href="#DejaVuSans-2e" x="63.623047"/>
       <use xlink:href="#DejaVuSans-35" x="95.410156"/>
      </g>
     </g>
    </g>
    <g id="xtick_11">
     <g id="line2d_18">
      <g>
       <use xlink:href="#m7f105c8f05" x="249.054545" y="640.8" style="stroke: #000000; stroke-width: 0.8"/>
      </g>
     </g>
     <g id="text_19">
      <!-- 2.0 -->
      <g transform="translate(241.102983 655.398438) scale(0.1 -0.1)">
       <use xlink:href="#DejaVuSans-32"/>
       <use xlink:href="#DejaVuSans-2e" x="63.623047"/>
       <use xlink:href="#DejaVuSans-30" x="95.410156"/>
      </g>
     </g>
    </g>
    <g id="text_20">
     <!-- Synchronization Epsilon -->
     <g transform="translate(88.020312 669.076563) scale(0.1 -0.1)">
      <defs>
       <path id="DejaVuSans-53" d="M 3425 4513 
L 3425 3897 
Q 3066 4069 2747 4153 
Q 2428 4238 2131 4238 
Q 1616 4238 1336 4038 
Q 1056 3838 1056 3469 
Q 1056 3159 1242 3001 
Q 1428 2844 1947 2747 
L 2328 2669 
Q 3034 2534 3370 2195 
Q 3706 1856 3706 1288 
Q 3706 609 3251 259 
Q 2797 -91 1919 -91 
Q 1588 -91 1214 -16 
Q 841 59 441 206 
L 441 856 
Q 825 641 1194 531 
Q 1563 422 1919 422 
Q 2459 422 2753 634 
Q 3047 847 3047 1241 
Q 3047 1584 2836 1778 
Q 2625 1972 2144 2069 
L 1759 2144 
Q 1053 2284 737 2584 
Q 422 2884 422 3419 
Q 422 4038 858 4394 
Q 1294 4750 2059 4750 
Q 2388 4750 2728 4690 
Q 3069 4631 3425 4513 
z
" transform="scale(0.015625)"/>
       <path id="DejaVuSans-79" d="M 2059 -325 
Q 1816 -950 1584 -1140 
Q 1353 -1331 966 -1331 
L 506 -1331 
L 506 -850 
L 844 -850 
Q 1081 -850 1212 -737 
Q 1344 -625 1503 -206 
L 1606 56 
L 191 3500 
L 800 3500 
L 1894 763 
L 2988 3500 
L 3597 3500 
L 2059 -325 
z
" transform="scale(0.015625)"/>
       <path id="DejaVuSans-63" d="M 3122 3366 
L 3122 2828 
Q 2878 2963 2633 3030 
Q 2388 3097 2138 3097 
Q 1578 3097 1268 2742 
Q 959 2388 959 1747 
Q 959 1106 1268 751 
Q 1578 397 2138 397 
Q 2388 397 2633 464 
Q 2878 531 3122 666 
L 3122 134 
Q 2881 22 2623 -34 
Q 2366 -91 2075 -91 
Q 1284 -91 818 406 
Q 353 903 353 1747 
Q 353 2603 823 3093 
Q 1294 3584 2113 3584 
Q 2378 3584 2631 3529 
Q 2884 3475 3122 3366 
z
" transform="scale(0.015625)"/>
       <path id="DejaVuSans-7a" d="M 353 3500 
L 3084 3500 
L 3084 2975 
L 922 459 
L 3084 459 
L 3084 0 
L 275 0 
L 275 525 
L 2438 3041 
L 353 3041 
L 353 3500 
z
" transform="scale(0.015625)"/>
       <path id="DejaVuSans-45" d="M 628 4666 
L 3578 4666 
L 3578 4134 
L 1259 4134 
L 1259 2753 
L 3481 2753 
L 3481 2222 
L 1259 2222 
L 1259 531 
L 3634 531 
L 3634 0 
L 628 0 
L 628 4666 
z
" transform="scale(0.015625)"/>
       <path id="DejaVuSans-70" d="M 1159 525 
L 1159 -1331 
L 581 -1331 
L 581 3500 
L 1159 3500 
L 1159 2969 
Q 1341 3281 1617 3432 
Q 1894 3584 2278 3584 
Q 2916 3584 3314 3078 
Q 3713 2572 3713 1747 
Q 3713 922 3314 415 
Q 2916 -91 2278 -91 
Q 1894 -91 1617 61 
Q 1341 213 1159 525 
z
M 3116 1747 
Q 3116 2381 2855 2742 
Q 2594 3103 2138 3103 
Q 1681 3103 1420 2742 
Q 1159 2381 1159 1747 
Q 1159 1113 1420 752 
Q 1681 391 2138 391 
Q 2594 391 2855 752 
Q 3116 1113 3116 1747 
z
" transform="scale(0.015625)"/>
      </defs>
      <use xlink:href="#DejaVuSans-53"/>
      <use xlink:href="#DejaVuSans-79" x="63.476562"/>
      <use xlink:href="#DejaVuSans-6e" x="122.65625"/>
      <use xlink:href="#DejaVuSans-63" x="186.035156"/>
      <use xlink:href="#DejaVuSans-68" x="241.015625"/>
      <use xlink:href="#DejaVuSans-72" x="304.394531"/>
      <use xlink:href="#DejaVuSans-6f" x="343.257812"/>
      <use xlink:href="#DejaVuSans-6e" x="404.439453"/>
      <use xlink:href="#DejaVuSans-69" x="467.818359"/>
      <use xlink:href="#DejaVuSans-7a" x="495.601562"/>
      <use xlink:href="#DejaVuSans-61" x="548.091797"/>
      <use xlink:href="#DejaVuSans-74" x="609.371094"/>
      <use xlink:href="#DejaVuSans-69" x="648.580078"/>
      <use xlink:href="#DejaVuSans-6f" x="676.363281"/>
      <use xlink:href="#DejaVuSans-6e" x="737.544922"/>
      <use xlink:href="#DejaVuSans-20" x="800.923828"/>
      <use xlink:href="#DejaVuSans-45" x="832.710938"/>
      <use xlink:href="#DejaVuSans-70" x="895.894531"/>
      <use xlink:href="#DejaVuSans-73" x="959.371094"/>
      <use xlink:href="#DejaVuSans-69" x="1011.470703"/>
      <use xlink:href="#DejaVuSans-6c" x="1039.253906"/>
      <use xlink:href="#DejaVuSans-6f" x="1067.037109"/>
      <use xlink:href="#DejaVuSans-6e" x="1128.21875"/>
     </g>
    </g>
   </g>
   <g id="matplotlib.axis_4">
    <g id="ytick_7">
     <g id="line2d_19">
      <g>
       <use xlink:href="#mdc1385755a" x="36" y="629.345455" style="stroke: #000000; stroke-width: 0.8"/>
      </g>
     </g>
     <g id="text_21">
      <!-- 0.0 -->
      <g transform="translate(13.096875 633.144673) scale(0.1 -0.1)">
       <use xlink:href="#DejaVuSans-30"/>
       <use xlink:href="#DejaVuSans-2e" x="63.623047"/>
       <use xlink:href="#DejaVuSans-30" x="95.410156"/>
      </g>
     </g>
    </g>
    <g id="ytick_8">
     <g id="line2d_20">
      <g>
       <use xlink:href="#mdc1385755a" x="36" y="583.527273" style="stroke: #000000; stroke-width: 0.8"/>
      </g>
     </g>
     <g id="text_22">
      <!-- 0.2 -->
      <g transform="translate(13.096875 587.326491) scale(0.1 -0.1)">
       <use xlink:href="#DejaVuSans-30"/>
       <use xlink:href="#DejaVuSans-2e" x="63.623047"/>
       <use xlink:href="#DejaVuSans-32" x="95.410156"/>
      </g>
     </g>
    </g>
    <g id="ytick_9">
     <g id="line2d_21">
      <g>
       <use xlink:href="#mdc1385755a" x="36" y="537.709091" style="stroke: #000000; stroke-width: 0.8"/>
      </g>
     </g>
     <g id="text_23">
      <!-- 0.4 -->
      <g transform="translate(13.096875 541.50831) scale(0.1 -0.1)">
       <use xlink:href="#DejaVuSans-30"/>
       <use xlink:href="#DejaVuSans-2e" x="63.623047"/>
       <use xlink:href="#DejaVuSans-34" x="95.410156"/>
      </g>
     </g>
    </g>
    <g id="ytick_10">
     <g id="line2d_22">
      <g>
       <use xlink:href="#mdc1385755a" x="36" y="491.890909" style="stroke: #000000; stroke-width: 0.8"/>
      </g>
     </g>
     <g id="text_24">
      <!-- 0.6 -->
      <g transform="translate(13.096875 495.690128) scale(0.1 -0.1)">
       <use xlink:href="#DejaVuSans-30"/>
       <use xlink:href="#DejaVuSans-2e" x="63.623047"/>
       <use xlink:href="#DejaVuSans-36" x="95.410156"/>
      </g>
     </g>
    </g>
    <g id="ytick_11">
     <g id="line2d_23">
      <g>
       <use xlink:href="#mdc1385755a" x="36" y="446.072727" style="stroke: #000000; stroke-width: 0.8"/>
      </g>
     </g>
     <g id="text_25">
      <!-- 0.8 -->
      <g transform="translate(13.096875 449.871946) scale(0.1 -0.1)">
       <use xlink:href="#DejaVuSans-30"/>
       <use xlink:href="#DejaVuSans-2e" x="63.623047"/>
       <use xlink:href="#DejaVuSans-38" x="95.410156"/>
      </g>
     </g>
    </g>
    <g id="ytick_12">
     <g id="line2d_24">
      <g>
       <use xlink:href="#mdc1385755a" x="36" y="400.254545" style="stroke: #000000; stroke-width: 0.8"/>
      </g>
     </g>
     <g id="text_26">
      <!-- 1.0 -->
      <g transform="translate(13.096875 404.053764) scale(0.1 -0.1)">
       <use xlink:href="#DejaVuSans-31"/>
       <use xlink:href="#DejaVuSans-2e" x="63.623047"/>
       <use xlink:href="#DejaVuSans-30" x="95.410156"/>
      </g>
     </g>
    </g>
   </g>
   <g id="line2d_25">
    <path d="M 46.145455 400.254545 
L 48.195041 400.254545 
L 50.244628 400.254545 
L 52.294215 400.254545 
L 54.343802 400.254545 
L 56.393388 400.254545 
L 58.442976 400.254545 
L 60.492561 400.254545 
L 62.542149 400.254545 
L 64.591736 400.254545 
L 66.641322 400.254545 
L 68.690909 400.254545 
L 70.740497 400.254545 
L 72.790082 400.254545 
L 74.839668 400.254545 
L 76.889257 400.254545 
L 78.938843 400.254545 
L 80.988429 400.254545 
L 83.038018 400.254545 
L 85.087603 400.254545 
L 87.137189 400.254545 
L 89.186778 400.254545 
L 91.236364 400.254545 
L 93.28595 400.254545 
L 95.335539 400.254545 
L 97.385128 400.254545 
L 99.43471 400.254545 
L 101.484299 400.254545 
L 103.533888 400.254545 
L 105.583471 400.254545 
L 107.63306 400.254545 
L 109.682649 400.254545 
L 111.732231 400.254545 
L 113.78182 400.254545 
L 115.831403 400.254545 
L 117.880992 400.254545 
L 119.930581 400.254545 
L 121.980164 400.254545 
L 124.029752 400.254545 
L 126.079335 400.254545 
L 128.128924 400.254545 
L 130.178513 400.254545 
L 132.228096 400.713645 
L 134.277685 401.174589 
L 136.327273 401.637388 
L 138.376856 403.037026 
L 140.426445 403.994805 
L 142.476034 406.881142 
L 144.525623 409.839939 
L 146.575212 416.547649 
L 148.6248 424.235108 
L 150.674377 432.220719 
L 152.723966 444.831348 
L 154.773555 459.491773 
L 156.823144 479.967464 
L 158.872733 501.909032 
L 160.922309 527.072727 
L 162.971898 542.759914 
L 165.021487 555.957025 
L 167.071064 564.20112 
L 169.120653 576.845455 
L 171.170242 593.173206 
L 173.21983 593.873314 
L 175.269419 603.508134 
L 177.319008 612.163636 
L 179.368597 614.49697 
L 181.418186 617.159768 
L 183.467775 626.481818 
L 185.517351 629.345455 
L 187.56694 629.345455 
L 189.616529 629.345455 
L 191.666118 629.345455 
L 193.715707 629.345455 
L 195.765296 629.345455 
L 197.814885 629.345455 
L 199.864461 629.345455 
L 201.91405 629.345455 
L 203.963639 629.345455 
L 206.013228 629.345455 
L 208.062817 629.345455 
L 210.112394 629.345455 
L 212.161982 629.345455 
L 214.211571 629.345455 
L 216.261148 629.345455 
L 218.310737 629.345455 
L 220.360326 629.345455 
L 222.409915 629.345455 
L 224.459503 629.345455 
L 226.509092 629.345455 
L 228.558681 629.345455 
L 230.60827 629.345455 
L 232.657859 629.345455 
L 234.707436 629.345455 
L 236.757024 629.345455 
L 238.806613 629.345455 
L 240.856202 629.345455 
L 242.905791 629.345455 
L 244.955368 629.345455 
L 247.004957 629.345455 
L 249.054545 400.254545 
" clip-path="url(#p11d7d02e16)" style="fill: none; stroke: #1f77b4; stroke-width: 1.5; stroke-linecap: square"/>
   </g>
   <g id="line2d_26">
    <path d="M 46.145455 400.254545 
L 48.195041 400.254545 
L 50.244628 400.254545 
L 52.294215 400.254545 
L 54.343802 400.254545 
L 56.393388 400.254545 
L 58.442976 400.254545 
L 60.492561 400.254545 
L 62.542149 400.254545 
L 64.591736 400.254545 
L 66.641322 400.254545 
L 68.690909 400.254545 
L 70.740497 400.254545 
L 72.790082 400.254545 
L 74.839668 400.254545 
L 76.889257 400.254545 
L 78.938843 400.254545 
L 80.988429 400.254545 
L 83.038018 400.254545 
L 85.087603 400.254545 
L 87.137189 400.254545 
L 89.186778 400.254545 
L 91.236364 400.254545 
L 93.28595 400.254545 
L 95.335539 400.254545 
L 97.385128 400.254545 
L 99.43471 400.254545 
L 101.484299 400.254545 
L 103.533888 400.254545 
L 105.583471 400.254545 
L 107.63306 400.254545 
L 109.682649 400.254545 
L 111.732231 400.254545 
L 113.78182 400.254545 
L 115.831403 400.254545 
L 117.880992 400.254545 
L 119.930581 400.254545 
L 121.980164 400.254545 
L 124.029752 400.254545 
L 126.079335 400.254545 
L 128.128924 400.254545 
L 130.178513 400.254545 
L 132.228096 400.254545 
L 134.277685 400.714567 
L 136.327273 400.715493 
L 138.376856 401.645786 
L 140.426445 403.527273 
L 142.476034 405.461157 
L 144.525623 407.92286 
L 146.575212 412.597806 
L 148.6248 419.132861 
L 150.674377 426.893023 
L 152.723966 438.060188 
L 154.773555 452.238235 
L 156.823144 474.608612 
L 158.872733 490.859632 
L 160.922309 513.981818 
L 162.971898 530.132856 
L 165.021487 542.072727 
L 167.071064 552.257992 
L 169.120653 567.3 
L 171.170242 579.776077 
L 173.21983 583.527273 
L 175.269419 593.173206 
L 177.319008 596.890909 
L 179.368597 601.769697 
L 181.418186 602.536944 
L 183.467775 609.3 
L 185.517351 622.607487 
L 187.56694 621.579661 
L 189.616529 620.860606 
L 191.666118 629.345455 
L 193.715707 629.345455 
L 195.765296 629.345455 
L 197.814885 629.345455 
L 199.864461 629.345455 
L 201.91405 629.345455 
L 203.963639 629.345455 
L 206.013228 629.345455 
L 208.062817 629.345455 
L 210.112394 629.345455 
L 212.161982 629.345455 
L 214.211571 629.345455 
L 216.261148 629.345455 
L 218.310737 629.345455 
L 220.360326 629.345455 
L 222.409915 629.345455 
L 224.459503 629.345455 
L 226.509092 629.345455 
L 228.558681 629.345455 
L 230.60827 629.345455 
L 232.657859 629.345455 
L 234.707436 629.345455 
L 236.757024 629.345455 
L 238.806613 629.345455 
L 240.856202 629.345455 
L 242.905791 629.345455 
L 244.955368 629.345455 
L 247.004957 629.345455 
L 249.054545 629.345455 
" clip-path="url(#p11d7d02e16)" style="fill: none; stroke: #ff7f0e; stroke-width: 1.5; stroke-linecap: square"/>
   </g>
   <g id="line2d_27">
    <path d="M 46.145455 543.207273 
L 48.195041 543.207273 
L 50.244628 543.207273 
L 52.294215 543.207273 
L 54.343802 543.207273 
L 56.393388 543.207273 
L 58.442976 543.207273 
L 60.492561 543.207273 
L 62.542149 543.207273 
L 64.591736 543.207273 
L 66.641322 543.207273 
L 68.690909 543.207273 
L 70.740497 543.207273 
L 72.790082 543.207273 
L 74.839668 543.207273 
L 76.889257 543.207273 
L 78.938843 543.207273 
L 80.988429 543.207273 
L 83.038018 543.207273 
L 85.087603 543.207273 
L 87.137189 543.207273 
L 89.186778 543.207273 
L 91.236364 543.207273 
L 93.28595 543.207273 
L 95.335539 543.207273 
L 97.385128 543.207273 
L 99.43471 543.207273 
L 101.484299 543.207273 
L 103.533888 543.207273 
L 105.583471 543.207273 
L 107.63306 542.749091 
L 109.682649 542.290909 
L 111.732231 541.832727 
L 113.78182 541.832727 
L 115.831403 541.832727 
L 117.880992 541.832727 
L 119.930581 541.832727 
L 121.980164 541.832727 
L 124.029752 541.832727 
L 126.079335 541.832727 
L 128.128924 541.374545 
L 130.178513 541.374545 
L 132.228096 541.374545 
L 134.277685 541.374545 
L 136.327273 540.916364 
L 138.376856 540.916364 
L 140.426445 540.916364 
L 142.476034 540.916364 
L 144.525623 540.916364 
L 146.575212 540.916364 
L 148.6248 540.916364 
L 150.674377 540.458182 
L 152.723966 539.541818 
L 154.773555 539.541818 
L 156.823144 539.541818 
L 158.872733 539.541818 
L 160.922309 539.541818 
L 162.971898 539.541818 
L 165.021487 539.541818 
L 167.071064 539.541818 
L 169.120653 539.541818 
L 171.170242 539.541818 
L 173.21983 539.083636 
L 175.269419 539.083636 
L 177.319008 539.083636 
L 179.368597 539.083636 
L 181.418186 539.083636 
L 183.467775 539.083636 
L 185.517351 539.083636 
L 187.56694 539.083636 
L 189.616529 539.083636 
L 191.666118 539.083636 
L 193.715707 539.083636 
L 195.765296 539.083636 
L 197.814885 539.083636 
L 199.864461 539.083636 
L 201.91405 539.541818 
L 203.963639 539.541818 
L 206.013228 539.541818 
L 208.062817 539.541818 
L 210.112394 539.541818 
L 212.161982 539.541818 
L 214.211571 539.541818 
L 216.261148 538.625455 
L 218.310737 538.625455 
L 220.360326 538.167273 
L 222.409915 537.709091 
L 224.459503 537.709091 
L 226.509092 537.709091 
L 228.558681 537.250909 
L 230.60827 537.250909 
L 232.657859 537.709091 
L 234.707436 537.709091 
L 236.757024 537.709091 
L 238.806613 539.541818 
L 240.856202 543.665455 
L 242.905791 562.450909 
L 244.955368 598.189091 
L 247.004957 608.269091 
L 249.054545 605.52 
" clip-path="url(#p11d7d02e16)" style="fill: none; stroke: #2ca02c; stroke-width: 1.5; stroke-linecap: square"/>
   </g>
   <g id="patch_8">
    <path d="M 36 640.8 
L 36 388.8 
" style="fill: none; stroke: #000000; stroke-width: 0.8; stroke-linejoin: miter; stroke-linecap: square"/>
   </g>
   <g id="patch_9">
    <path d="M 259.2 640.8 
L 259.2 388.8 
" style="fill: none; stroke: #000000; stroke-width: 0.8; stroke-linejoin: miter; stroke-linecap: square"/>
   </g>
   <g id="patch_10">
    <path d="M 36 640.8 
L 259.2 640.8 
" style="fill: none; stroke: #000000; stroke-width: 0.8; stroke-linejoin: miter; stroke-linecap: square"/>
   </g>
   <g id="patch_11">
    <path d="M 36 388.8 
L 259.2 388.8 
" style="fill: none; stroke: #000000; stroke-width: 0.8; stroke-linejoin: miter; stroke-linecap: square"/>
   </g>
   <g id="legend_1">
    <g id="patch_12">
     <path d="M 34.664062 538.317188 
L 252.2 538.317188 
Q 254.2 538.317188 254.2 536.317188 
L 254.2 493.282813 
Q 254.2 491.282813 252.2 491.282813 
L 34.664062 491.282813 
Q 32.664062 491.282813 32.664062 493.282813 
L 32.664062 536.317188 
Q 32.664062 538.317188 34.664062 538.317188 
z
" style="fill: #ffffff; opacity: 0.8; stroke: #cccccc; stroke-linejoin: miter"/>
    </g>
    <g id="line2d_28">
     <path d="M 36.664062 499.38125 
L 46.664062 499.38125 
L 56.664062 499.38125 
" style="fill: none; stroke: #1f77b4; stroke-width: 1.5; stroke-linecap: square"/>
    </g>
    <g id="text_27">
     <!-- Sync Clusters &lt; Class Clusters -->
     <g transform="translate(64.664062 502.88125) scale(0.1 -0.1)">
      <defs>
       <path id="DejaVuSans-3c" d="M 4684 3150 
L 1459 2003 
L 4684 863 
L 4684 294 
L 678 1747 
L 678 2266 
L 4684 3719 
L 4684 3150 
z
" transform="scale(0.015625)"/>
      </defs>
      <use xlink:href="#DejaVuSans-53"/>
      <use xlink:href="#DejaVuSans-79" x="63.476562"/>
      <use xlink:href="#DejaVuSans-6e" x="122.65625"/>
      <use xlink:href="#DejaVuSans-63" x="186.035156"/>
      <use xlink:href="#DejaVuSans-20" x="241.015625"/>
      <use xlink:href="#DejaVuSans-43" x="272.802734"/>
      <use xlink:href="#DejaVuSans-6c" x="342.626953"/>
      <use xlink:href="#DejaVuSans-75" x="370.410156"/>
      <use xlink:href="#DejaVuSans-73" x="433.789062"/>
      <use xlink:href="#DejaVuSans-74" x="485.888672"/>
      <use xlink:href="#DejaVuSans-65" x="525.097656"/>
      <use xlink:href="#DejaVuSans-72" x="586.621094"/>
      <use xlink:href="#DejaVuSans-73" x="627.734375"/>
      <use xlink:href="#DejaVuSans-20" x="679.833984"/>
      <use xlink:href="#DejaVuSans-3c" x="711.621094"/>
      <use xlink:href="#DejaVuSans-20" x="795.410156"/>
      <use xlink:href="#DejaVuSans-43" x="827.197266"/>
      <use xlink:href="#DejaVuSans-6c" x="897.021484"/>
      <use xlink:href="#DejaVuSans-61" x="924.804688"/>
      <use xlink:href="#DejaVuSans-73" x="986.083984"/>
      <use xlink:href="#DejaVuSans-73" x="1038.183594"/>
      <use xlink:href="#DejaVuSans-20" x="1090.283203"/>
      <use xlink:href="#DejaVuSans-43" x="1122.070312"/>
      <use xlink:href="#DejaVuSans-6c" x="1191.894531"/>
      <use xlink:href="#DejaVuSans-75" x="1219.677734"/>
      <use xlink:href="#DejaVuSans-73" x="1283.056641"/>
      <use xlink:href="#DejaVuSans-74" x="1335.15625"/>
      <use xlink:href="#DejaVuSans-65" x="1374.365234"/>
      <use xlink:href="#DejaVuSans-72" x="1435.888672"/>
      <use xlink:href="#DejaVuSans-73" x="1477.001953"/>
     </g>
    </g>
    <g id="line2d_29">
     <path d="M 36.664062 514.059375 
L 46.664062 514.059375 
L 56.664062 514.059375 
" style="fill: none; stroke: #ff7f0e; stroke-width: 1.5; stroke-linecap: square"/>
    </g>
    <g id="text_28">
     <!-- Sync Clusters &lt; Mean Class Clusters -->
     <g transform="translate(64.664062 517.559375) scale(0.1 -0.1)">
      <use xlink:href="#DejaVuSans-53"/>
      <use xlink:href="#DejaVuSans-79" x="63.476562"/>
      <use xlink:href="#DejaVuSans-6e" x="122.65625"/>
      <use xlink:href="#DejaVuSans-63" x="186.035156"/>
      <use xlink:href="#DejaVuSans-20" x="241.015625"/>
      <use xlink:href="#DejaVuSans-43" x="272.802734"/>
      <use xlink:href="#DejaVuSans-6c" x="342.626953"/>
      <use xlink:href="#DejaVuSans-75" x="370.410156"/>
      <use xlink:href="#DejaVuSans-73" x="433.789062"/>
      <use xlink:href="#DejaVuSans-74" x="485.888672"/>
      <use xlink:href="#DejaVuSans-65" x="525.097656"/>
      <use xlink:href="#DejaVuSans-72" x="586.621094"/>
      <use xlink:href="#DejaVuSans-73" x="627.734375"/>
      <use xlink:href="#DejaVuSans-20" x="679.833984"/>
      <use xlink:href="#DejaVuSans-3c" x="711.621094"/>
      <use xlink:href="#DejaVuSans-20" x="795.410156"/>
      <use xlink:href="#DejaVuSans-4d" x="827.197266"/>
      <use xlink:href="#DejaVuSans-65" x="913.476562"/>
      <use xlink:href="#DejaVuSans-61" x="975"/>
      <use xlink:href="#DejaVuSans-6e" x="1036.279297"/>
      <use xlink:href="#DejaVuSans-20" x="1099.658203"/>
      <use xlink:href="#DejaVuSans-43" x="1131.445312"/>
      <use xlink:href="#DejaVuSans-6c" x="1201.269531"/>
      <use xlink:href="#DejaVuSans-61" x="1229.052734"/>
      <use xlink:href="#DejaVuSans-73" x="1290.332031"/>
      <use xlink:href="#DejaVuSans-73" x="1342.431641"/>
      <use xlink:href="#DejaVuSans-20" x="1394.53125"/>
      <use xlink:href="#DejaVuSans-43" x="1426.318359"/>
      <use xlink:href="#DejaVuSans-6c" x="1496.142578"/>
      <use xlink:href="#DejaVuSans-75" x="1523.925781"/>
      <use xlink:href="#DejaVuSans-73" x="1587.304688"/>
      <use xlink:href="#DejaVuSans-74" x="1639.404297"/>
      <use xlink:href="#DejaVuSans-65" x="1678.613281"/>
      <use xlink:href="#DejaVuSans-72" x="1740.136719"/>
      <use xlink:href="#DejaVuSans-73" x="1781.25"/>
     </g>
    </g>
    <g id="line2d_30">
     <path d="M 36.664062 528.7375 
L 46.664062 528.7375 
L 56.664062 528.7375 
" style="fill: none; stroke: #2ca02c; stroke-width: 1.5; stroke-linecap: square"/>
    </g>
    <g id="text_29">
     <!-- Class Clusters = Mean Class Clusters -->
     <g transform="translate(64.664062 532.2375) scale(0.1 -0.1)">
      <defs>
       <path id="DejaVuSans-3d" d="M 678 2906 
L 4684 2906 
L 4684 2381 
L 678 2381 
L 678 2906 
z
M 678 1631 
L 4684 1631 
L 4684 1100 
L 678 1100 
L 678 1631 
z
" transform="scale(0.015625)"/>
      </defs>
      <use xlink:href="#DejaVuSans-43"/>
      <use xlink:href="#DejaVuSans-6c" x="69.824219"/>
      <use xlink:href="#DejaVuSans-61" x="97.607422"/>
      <use xlink:href="#DejaVuSans-73" x="158.886719"/>
      <use xlink:href="#DejaVuSans-73" x="210.986328"/>
      <use xlink:href="#DejaVuSans-20" x="263.085938"/>
      <use xlink:href="#DejaVuSans-43" x="294.873047"/>
      <use xlink:href="#DejaVuSans-6c" x="364.697266"/>
      <use xlink:href="#DejaVuSans-75" x="392.480469"/>
      <use xlink:href="#DejaVuSans-73" x="455.859375"/>
      <use xlink:href="#DejaVuSans-74" x="507.958984"/>
      <use xlink:href="#DejaVuSans-65" x="547.167969"/>
      <use xlink:href="#DejaVuSans-72" x="608.691406"/>
      <use xlink:href="#DejaVuSans-73" x="649.804688"/>
      <use xlink:href="#DejaVuSans-20" x="701.904297"/>
      <use xlink:href="#DejaVuSans-3d" x="733.691406"/>
      <use xlink:href="#DejaVuSans-20" x="817.480469"/>
      <use xlink:href="#DejaVuSans-4d" x="849.267578"/>
      <use xlink:href="#DejaVuSans-65" x="935.546875"/>
      <use xlink:href="#DejaVuSans-61" x="997.070312"/>
      <use xlink:href="#DejaVuSans-6e" x="1058.349609"/>
      <use xlink:href="#DejaVuSans-20" x="1121.728516"/>
      <use xlink:href="#DejaVuSans-43" x="1153.515625"/>
      <use xlink:href="#DejaVuSans-6c" x="1223.339844"/>
      <use xlink:href="#DejaVuSans-61" x="1251.123047"/>
      <use xlink:href="#DejaVuSans-73" x="1312.402344"/>
      <use xlink:href="#DejaVuSans-73" x="1364.501953"/>
      <use xlink:href="#DejaVuSans-20" x="1416.601562"/>
      <use xlink:href="#DejaVuSans-43" x="1448.388672"/>
      <use xlink:href="#DejaVuSans-6c" x="1518.212891"/>
      <use xlink:href="#DejaVuSans-75" x="1545.996094"/>
      <use xlink:href="#DejaVuSans-73" x="1609.375"/>
      <use xlink:href="#DejaVuSans-74" x="1661.474609"/>
      <use xlink:href="#DejaVuSans-65" x="1700.683594"/>
      <use xlink:href="#DejaVuSans-72" x="1762.207031"/>
      <use xlink:href="#DejaVuSans-73" x="1803.320312"/>
     </g>
    </g>
   </g>
  </g>
 </g>
 <defs>
  <clipPath id="p2af9912a51">
   <rect x="36" y="86.4" width="223.2" height="252"/>
  </clipPath>
  <clipPath id="p11d7d02e16">
   <rect x="36" y="388.8" width="223.2" height="252"/>
  </clipPath>
 </defs>
</svg>
