<?xml version="1.0" encoding="utf-8" standalone="no"?>
<!DOCTYPE svg PUBLIC "-//W3C//DTD SVG 1.1//EN"
  "http://www.w3.org/Graphics/SVG/1.1/DTD/svg11.dtd">
<svg xmlns:xlink="http://www.w3.org/1999/xlink" width="1008pt" height="1008pt" viewBox="0 0 1008 1008" xmlns="http://www.w3.org/2000/svg" version="1.1">
 <metadata>
  <rdf:RDF xmlns:dc="http://purl.org/dc/elements/1.1/" xmlns:cc="http://creativecommons.org/ns#" xmlns:rdf="http://www.w3.org/1999/02/22-rdf-syntax-ns#">
   <cc:Work>
    <dc:type rdf:resource="http://purl.org/dc/dcmitype/StillImage"/>
    <dc:date>2026-05-14T16:03:04.682900</dc:date>
    <dc:format>image/svg+xml</dc:format>
    <dc:creator>
     <cc:Agent>
      <dc:title>Matplotlib v3.7.5, https://matplotlib.org/</dc:title>
     </cc:Agent>
    </dc:creator>
   </cc:Work>
  </rdf:RDF>
 </metadata>
 <defs>
  <style type="text/css">*{stroke-linejoin: round; stroke-linecap: butt}</style>
 </defs>
 <g id="figure_1">
  <g id="patch_1">
   <path d="M 0 1008 
L 1008 1008 
L 1008 0 
L 0 0 
z
" style="fill: #ffffff"/>
  </g>
  <g id="axes_1">
   <g id="patch_2">
    <path d="M 126 473.76 
L 481.090909 473.76 
L 481.090909 120.96 
L 126 120.96 
z
" style="fill: #ffffff"/>
   </g>
   <g id="matplotlib.axis_1">
    <g id="xtick_1">
     <g id="line2d_1">
      <defs>
       <path id="m5062843019" d="M 0 0 
L 0 3.5 
" style="stroke: #000000; stroke-width: 0.8"/>
      </defs>
      <g>
       <use xlink:href="#m5062843019" x="126" y="473.76" style="stroke: #000000; stroke-width: 0.8"/>
      </g>
     </g>
     <g id="text_1">
      <!-- 0.0 -->
      <g transform="translate(118.048438 488.358438) scale(0.1 -0.1)">
       <defs>
        <path id="DejaVuSans-30" d="M 2034 4250 
Q 1547 4250 1301 3770 
Q 1056 3291 1056 2328 
Q 1056 1369 1301 889 
Q 1547 409 2034 409 
Q 2525 409 2770 889 
Q 3016 1369 3016 2328 
Q 3016 3291 2770 3770 
Q 2525 4250 2034 4250 
z
M 2034 4750 
Q 2819 4750 3233 4129 
Q 3647 3509 3647 2328 
Q 3647 1150 3233 529 
Q 2819 -91 2034 -91 
Q 1250 -91 836 529 
Q 422 1150 422 2328 
Q 422 3509 836 4129 
Q 1250 4750 2034 4750 
z
" transform="scale(0.015625)"/>
        <path id="DejaVuSans-2e" d="M 684 794 
L 1344 794 
L 1344 0 
L 684 0 
L 684 794 
z
" transform="scale(0.015625)"/>
       </defs>
       <use xlink:href="#DejaVuSans-30"/>
       <use xlink:href="#DejaVuSans-2e" x="63.623047"/>
       <use xlink:href="#DejaVuSans-30" x="95.410156"/>
      </g>
     </g>
    </g>
    <g id="xtick_2">
     <g id="line2d_2">
      <g>
       <use xlink:href="#m5062843019" x="197.018182" y="473.76" style="stroke: #000000; stroke-width: 0.8"/>
      </g>
     </g>
     <g id="text_2">
      <!-- 0.2 -->
      <g transform="translate(189.066619 488.358438) scale(0.1 -0.1)">
       <defs>
        <path id="DejaVuSans-32" d="M 1228 531 
L 3431 531 
L 3431 0 
L 469 0 
L 469 531 
Q 828 903 1448 1529 
Q 2069 2156 2228 2338 
Q 2531 2678 2651 2914 
Q 2772 3150 2772 3378 
Q 2772 3750 2511 3984 
Q 2250 4219 1831 4219 
Q 1534 4219 1204 4116 
Q 875 4013 500 3803 
L 500 4441 
Q 881 4594 1212 4672 
Q 1544 4750 1819 4750 
Q 2544 4750 2975 4387 
Q 3406 4025 3406 3419 
Q 3406 3131 3298 2873 
Q 3191 2616 2906 2266 
Q 2828 2175 2409 1742 
Q 1991 1309 1228 531 
z
" transform="scale(0.015625)"/>
       </defs>
       <use xlink:href="#DejaVuSans-30"/>
       <use xlink:href="#DejaVuSans-2e" x="63.623047"/>
       <use xlink:href="#DejaVuSans-32" x="95.410156"/>
      </g>
     </g>
    </g>
    <g id="xtick_3">
     <g id="line2d_3">
      <g>
       <use xlink:href="#m5062843019" x="268.036364" y="473.76" style="stroke: #000000; stroke-width: 0.8"/>
      </g>
     </g>
     <g id="text_3">
      <!-- 0.4 -->
      <g transform="translate(260.084801 488.358438) scale(0.1 -0.1)">
       <defs>
        <path id="DejaVuSans-34" d="M 2419 4116 
L 825 1625 
L 2419 1625 
L 2419 4116 
z
M 2253 4666 
L 3047 4666 
L 3047 1625 
L 3713 1625 
L 3713 1100 
L 3047 1100 
L 3047 0 
L 2419 0 
L 2419 1100 
L 313 1100 
L 313 1709 
L 2253 4666 
z
" transform="scale(0.015625)"/>
       </defs>
       <use xlink:href="#DejaVuSans-30"/>
       <use xlink:href="#DejaVuSans-2e" x="63.623047"/>
       <use xlink:href="#DejaVuSans-34" x="95.410156"/>
      </g>
     </g>
    </g>
    <g id="xtick_4">
     <g id="line2d_4">
      <g>
       <use xlink:href="#m5062843019" x="339.054545" y="473.76" style="stroke: #000000; stroke-width: 0.8"/>
      </g>
     </g>
     <g id="text_4">
      <!-- 0.6 -->
      <g transform="translate(331.102983 488.358438) scale(0.1 -0.1)">
       <defs>
        <path id="DejaVuSans-36" d="M 2113 2584 
Q 1688 2584 1439 2293 
Q 1191 2003 1191 1497 
Q 1191 994 1439 701 
Q 1688 409 2113 409 
Q 2538 409 2786 701 
Q 3034 994 3034 1497 
Q 3034 2003 2786 2293 
Q 2538 2584 2113 2584 
z
M 3366 4563 
L 3366 3988 
Q 3128 4100 2886 4159 
Q 2644 4219 2406 4219 
Q 1781 4219 1451 3797 
Q 1122 3375 1075 2522 
Q 1259 2794 1537 2939 
Q 1816 3084 2150 3084 
Q 2853 3084 3261 2657 
Q 3669 2231 3669 1497 
Q 3669 778 3244 343 
Q 2819 -91 2113 -91 
Q 1303 -91 875 529 
Q 447 1150 447 2328 
Q 447 3434 972 4092 
Q 1497 4750 2381 4750 
Q 2619 4750 2861 4703 
Q 3103 4656 3366 4563 
z
" transform="scale(0.015625)"/>
       </defs>
       <use xlink:href="#DejaVuSans-30"/>
       <use xlink:href="#DejaVuSans-2e" x="63.623047"/>
       <use xlink:href="#DejaVuSans-36" x="95.410156"/>
      </g>
     </g>
    </g>
    <g id="xtick_5">
     <g id="line2d_5">
      <g>
       <use xlink:href="#m5062843019" x="410.072727" y="473.76" style="stroke: #000000; stroke-width: 0.8"/>
      </g>
     </g>
     <g id="text_5">
      <!-- 0.8 -->
      <g transform="translate(402.121165 488.358438) scale(0.1 -0.1)">
       <defs>
        <path id="DejaVuSans-38" d="M 2034 2216 
Q 1584 2216 1326 1975 
Q 1069 1734 1069 1313 
Q 1069 891 1326 650 
Q 1584 409 2034 409 
Q 2484 409 2743 651 
Q 3003 894 3003 1313 
Q 3003 1734 2745 1975 
Q 2488 2216 2034 2216 
z
M 1403 2484 
Q 997 2584 770 2862 
Q 544 3141 544 3541 
Q 544 4100 942 4425 
Q 1341 4750 2034 4750 
Q 2731 4750 3128 4425 
Q 3525 4100 3525 3541 
Q 3525 3141 3298 2862 
Q 3072 2584 2669 2484 
Q 3125 2378 3379 2068 
Q 3634 1759 3634 1313 
Q 3634 634 3220 271 
Q 2806 -91 2034 -91 
Q 1263 -91 848 271 
Q 434 634 434 1313 
Q 434 1759 690 2068 
Q 947 2378 1403 2484 
z
M 1172 3481 
Q 1172 3119 1398 2916 
Q 1625 2713 2034 2713 
Q 2441 2713 2670 2916 
Q 2900 3119 2900 3481 
Q 2900 3844 2670 4047 
Q 2441 4250 2034 4250 
Q 1625 4250 1398 4047 
Q 1172 3844 1172 3481 
z
" transform="scale(0.015625)"/>
       </defs>
       <use xlink:href="#DejaVuSans-30"/>
       <use xlink:href="#DejaVuSans-2e" x="63.623047"/>
       <use xlink:href="#DejaVuSans-38" x="95.410156"/>
      </g>
     </g>
    </g>
    <g id="xtick_6">
     <g id="line2d_6">
      <g>
       <use xlink:href="#m5062843019" x="481.090909" y="473.76" style="stroke: #000000; stroke-width: 0.8"/>
      </g>
     </g>
     <g id="text_6">
      <!-- 1.0 -->
      <g transform="translate(473.139347 488.358438) scale(0.1 -0.1)">
       <defs>
        <path id="DejaVuSans-31" d="M 794 531 
L 1825 531 
L 1825 4091 
L 703 3866 
L 703 4441 
L 1819 4666 
L 2450 4666 
L 2450 531 
L 3481 531 
L 3481 0 
L 794 0 
L 794 531 
z
" transform="scale(0.015625)"/>
       </defs>
       <use xlink:href="#DejaVuSans-31"/>
       <use xlink:href="#DejaVuSans-2e" x="63.623047"/>
       <use xlink:href="#DejaVuSans-30" x="95.410156"/>
      </g>
     </g>
    </g>
   </g>
   <g id="matplotlib.axis_2">
    <g id="ytick_1">
     <g id="line2d_7">
      <defs>
       <path id="m6f941e0d6a" d="M 0 0 
L -3.5 0 
" style="stroke: #000000; stroke-width: 0.8"/>
      </defs>
      <g>
       <use xlink:href="#m6f941e0d6a" x="126" y="473.76" style="stroke: #000000; stroke-width: 0.8"/>
      </g>
     </g>
     <g id="text_7">
      <!-- 0 -->
      <g transform="translate(112.6375 477.559219) scale(0.1 -0.1)">
       <use xlink:href="#DejaVuSans-30"/>
      </g>
     </g>
    </g>
    <g id="ytick_2">
     <g id="line2d_8">
      <g>
       <use xlink:href="#m6f941e0d6a" x="126" y="403.2" style="stroke: #000000; stroke-width: 0.8"/>
      </g>
     </g>
     <g id="text_8">
      <!-- 20 -->
      <g transform="translate(106.275 406.999219) scale(0.1 -0.1)">
       <use xlink:href="#DejaVuSans-32"/>
       <use xlink:href="#DejaVuSans-30" x="63.623047"/>
      </g>
     </g>
    </g>
    <g id="ytick_3">
     <g id="line2d_9">
      <g>
       <use xlink:href="#m6f941e0d6a" x="126" y="332.64" style="stroke: #000000; stroke-width: 0.8"/>
      </g>
     </g>
     <g id="text_9">
      <!-- 40 -->
      <g transform="translate(106.275 336.439219) scale(0.1 -0.1)">
       <use xlink:href="#DejaVuSans-34"/>
       <use xlink:href="#DejaVuSans-30" x="63.623047"/>
      </g>
     </g>
    </g>
    <g id="ytick_4">
     <g id="line2d_10">
      <g>
       <use xlink:href="#m6f941e0d6a" x="126" y="262.08" style="stroke: #000000; stroke-width: 0.8"/>
      </g>
     </g>
     <g id="text_10">
      <!-- 60 -->
      <g transform="translate(106.275 265.879219) scale(0.1 -0.1)">
       <use xlink:href="#DejaVuSans-36"/>
       <use xlink:href="#DejaVuSans-30" x="63.623047"/>
      </g>
     </g>
    </g>
    <g id="ytick_5">
     <g id="line2d_11">
      <g>
       <use xlink:href="#m6f941e0d6a" x="126" y="191.52" style="stroke: #000000; stroke-width: 0.8"/>
      </g>
     </g>
     <g id="text_11">
      <!-- 80 -->
      <g transform="translate(106.275 195.319219) scale(0.1 -0.1)">
       <use xlink:href="#DejaVuSans-38"/>
       <use xlink:href="#DejaVuSans-30" x="63.623047"/>
      </g>
     </g>
    </g>
    <g id="ytick_6">
     <g id="line2d_12">
      <g>
       <use xlink:href="#m6f941e0d6a" x="126" y="120.96" style="stroke: #000000; stroke-width: 0.8"/>
      </g>
     </g>
     <g id="text_12">
      <!-- 100 -->
      <g transform="translate(99.9125 124.759219) scale(0.1 -0.1)">
       <use xlink:href="#DejaVuSans-31"/>
       <use xlink:href="#DejaVuSans-30" x="63.623047"/>
       <use xlink:href="#DejaVuSans-30" x="127.246094"/>
      </g>
     </g>
    </g>
    <g id="text_13">
     <!-- Accuracy -->
     <g transform="translate(93.832812 320.188125) rotate(-90) scale(0.1 -0.1)">
      <defs>
       <path id="DejaVuSans-41" d="M 2188 4044 
L 1331 1722 
L 3047 1722 
L 2188 4044 
z
M 1831 4666 
L 2547 4666 
L 4325 0 
L 3669 0 
L 3244 1197 
L 1141 1197 
L 716 0 
L 50 0 
L 1831 4666 
z
" transform="scale(0.015625)"/>
       <path id="DejaVuSans-63" d="M 3122 3366 
L 3122 2828 
Q 2878 2963 2633 3030 
Q 2388 3097 2138 3097 
Q 1578 3097 1268 2742 
Q 959 2388 959 1747 
Q 959 1106 1268 751 
Q 1578 397 2138 397 
Q 2388 397 2633 464 
Q 2878 531 3122 666 
L 3122 134 
Q 2881 22 2623 -34 
Q 2366 -91 2075 -91 
Q 1284 -91 818 406 
Q 353 903 353 1747 
Q 353 2603 823 3093 
Q 1294 3584 2113 3584 
Q 2378 3584 2631 3529 
Q 2884 3475 3122 3366 
z
" transform="scale(0.015625)"/>
       <path id="DejaVuSans-75" d="M 544 1381 
L 544 3500 
L 1119 3500 
L 1119 1403 
Q 1119 906 1312 657 
Q 1506 409 1894 409 
Q 2359 409 2629 706 
Q 2900 1003 2900 1516 
L 2900 3500 
L 3475 3500 
L 3475 0 
L 2900 0 
L 2900 538 
Q 2691 219 2414 64 
Q 2138 -91 1772 -91 
Q 1169 -91 856 284 
Q 544 659 544 1381 
z
M 1991 3584 
L 1991 3584 
z
" transform="scale(0.015625)"/>
       <path id="DejaVuSans-72" d="M 2631 2963 
Q 2534 3019 2420 3045 
Q 2306 3072 2169 3072 
Q 1681 3072 1420 2755 
Q 1159 2438 1159 1844 
L 1159 0 
L 581 0 
L 581 3500 
L 1159 3500 
L 1159 2956 
Q 1341 3275 1631 3429 
Q 1922 3584 2338 3584 
Q 2397 3584 2469 3576 
Q 2541 3569 2628 3553 
L 2631 2963 
z
" transform="scale(0.015625)"/>
       <path id="DejaVuSans-61" d="M 2194 1759 
Q 1497 1759 1228 1600 
Q 959 1441 959 1056 
Q 959 750 1161 570 
Q 1363 391 1709 391 
Q 2188 391 2477 730 
Q 2766 1069 2766 1631 
L 2766 1759 
L 2194 1759 
z
M 3341 1997 
L 3341 0 
L 2766 0 
L 2766 531 
Q 2569 213 2275 61 
Q 1981 -91 1556 -91 
Q 1019 -91 701 211 
Q 384 513 384 1019 
Q 384 1609 779 1909 
Q 1175 2209 1959 2209 
L 2766 2209 
L 2766 2266 
Q 2766 2663 2505 2880 
Q 2244 3097 1772 3097 
Q 1472 3097 1187 3025 
Q 903 2953 641 2809 
L 641 3341 
Q 956 3463 1253 3523 
Q 1550 3584 1831 3584 
Q 2591 3584 2966 3190 
Q 3341 2797 3341 1997 
z
" transform="scale(0.015625)"/>
       <path id="DejaVuSans-79" d="M 2059 -325 
Q 1816 -950 1584 -1140 
Q 1353 -1331 966 -1331 
L 506 -1331 
L 506 -850 
L 844 -850 
Q 1081 -850 1212 -737 
Q 1344 -625 1503 -206 
L 1606 56 
L 191 3500 
L 800 3500 
L 1894 763 
L 2988 3500 
L 3597 3500 
L 2059 -325 
z
" transform="scale(0.015625)"/>
      </defs>
      <use xlink:href="#DejaVuSans-41"/>
      <use xlink:href="#DejaVuSans-63" x="66.658203"/>
      <use xlink:href="#DejaVuSans-63" x="121.638672"/>
      <use xlink:href="#DejaVuSans-75" x="176.619141"/>
      <use xlink:href="#DejaVuSans-72" x="239.998047"/>
      <use xlink:href="#DejaVuSans-61" x="281.111328"/>
      <use xlink:href="#DejaVuSans-63" x="342.390625"/>
      <use xlink:href="#DejaVuSans-79" x="397.371094"/>
     </g>
    </g>
   </g>
   <g id="line2d_13">
    <path d="M 233.181328 179.34257 
L 233.181328 179.34257 
L 233.181328 179.34257 
L 233.181328 179.34257 
L 233.181328 179.34257 
L 233.181328 179.34257 
L 233.181328 179.34257 
L 233.181328 179.34257 
L 233.181328 179.34257 
L 233.181328 179.34257 
L 233.181328 179.34257 
L 233.181328 179.34257 
L 233.181328 179.34257 
L 233.181328 179.34257 
L 233.181328 179.34257 
L 233.181328 179.34257 
L 233.181328 179.34257 
L 234.687434 179.94227 
L 250.697371 163.291774 
L 250.697371 163.291774 
L 257.605067 152.073864 
L 265.816527 143.924973 
L 277.514439 135.564464 
L 280.369362 136.164164 
L 289.177573 137.046083 
L 300.953735 135.211697 
L 322.002072 133.588981 
L 339.432752 133.871201 
L 368.059439 133.200926 
L 412.842682 132.389582 
L 481.090909 132.319034 
" clip-path="url(#p648ba4615c)" style="fill: none; stroke: #1f77b4; stroke-width: 1.5; stroke-linecap: square"/>
   </g>
   <g id="line2d_14">
    <path d="M 139.859259 323.658609 
L 139.859259 323.658609 
L 139.859259 323.658609 
L 139.859259 323.658609 
L 140.279752 321.7184 
L 140.897844 320.554288 
L 142.329653 317.41468 
L 143.28327 318.120202 
L 153.635922 256.844969 
L 157.395852 239.665335 
L 158.068482 239.87698 
L 165.996979 222.344592 
L 168.771281 228.200466 
L 175.779753 186.080363 
L 177.731249 183.857948 
L 180.648614 179.801146 
L 191.330863 172.886969 
L 194.21424 170.205951 
L 202.658868 157.929737 
L 204.051156 151.544712 
L 217.52391 147.840678 
L 236.573328 145.582976 
L 242.120351 141.596749 
L 262.922084 139.339046 
L 277.019649 136.975508 
L 299.091554 134.823668 
L 324.521075 137.575208 
L 351.194686 133.553694 
L 372.545747 133.095117 
L 416.511716 132.636514 
L 481.090909 132.319034 
" clip-path="url(#p648ba4615c)" style="fill: none; stroke: #ff7f0e; stroke-width: 1.5; stroke-linecap: square"/>
   </g>
   <g id="line2d_15">
    <path d="M 128.375546 398.762222 
L 128.553385 392.871047 
L 129.029996 397.351158 
L 129.428358 395.940101 
L 132.075801 383.593339 
L 134.34069 313.922304 
L 135.174167 325.140228 
L 137.774581 303.903792 
L 142.989636 297.977343 
L 144.834824 284.290072 
L 149.642033 265.699368 
L 151.71288 242.628546 
L 153.995949 209.186459 
L 155.792132 222.520976 
L 165.509698 208.547946 
L 168.161883 218.746394 
L 175.375069 162.692074 
L 182.723412 169.394607 
L 189.749273 145.971031 
L 203.115718 151.365852 
L 209.139748 150.380573 
L 224.050634 141.243981 
L 236.037832 138.668799 
L 255.94839 138.421867 
L 273.527269 135.035313 
L 305.44676 143.924973 
L 327.561742 134.470901 
L 347.619709 133.906462 
L 373.714747 133.095117 
L 418.000829 132.74235 
L 481.090909 132.319034 
" clip-path="url(#p648ba4615c)" style="fill: none; stroke: #2ca02c; stroke-width: 1.5; stroke-linecap: square"/>
   </g>
   <g id="line2d_16">
    <path d="M 135.084456 392.094964 
L 138.36738 390.825016 
L 142.943793 377.913822 
L 145.718491 362.78022 
L 146.121199 349.375161 
L 146.121199 349.375161 
L 146.121199 349.375161 
L 146.121199 349.375161 
L 146.931358 342.002381 
L 147.747841 358.264835 
L 148.158454 361.192778 
L 149.816712 339.391924 
L 149.816712 339.391924 
L 151.925102 332.90105 
L 154.507337 335.793713 
L 155.380729 334.523765 
L 155.819796 334.417929 
L 156.702672 328.738426 
L 157.591871 318.226037 
L 158.937526 326.339627 
L 163.525795 298.11844 
L 164.933101 286.371378 
L 168.755473 284.537004 
L 171.195831 277.093663 
L 173.67571 268.027619 
L 175.182606 256.492215 
L 180.829615 253.917032 
L 182.930497 253.811196 
L 185.056672 244.216001 
L 187.749958 244.49822 
L 192.697463 243.228246 
L 200.648091 232.433651 
L 200.648091 232.433651 
L 204.150351 226.683586 
L 217.478857 203.57749 
L 218.102878 200.861211 
L 224.430025 188.937765 
L 226.358995 185.692335 
L 226.358995 185.692335 
L 226.358995 185.692335 
L 226.358995 185.692335 
L 226.358995 185.692335 
L 226.358995 185.692335 
L 226.358995 185.692335 
L 226.358995 185.692335 
L 226.358995 185.692335 
L 226.358995 185.692335 
L 226.358995 185.692335 
L 226.358995 185.692335 
L 226.358995 185.692335 
L 226.358995 185.692335 
L 226.358995 185.692335 
L 226.358995 185.692335 
L 226.358995 185.692335 
L 228.302192 181.635533 
L 230.259617 179.589502 
L 232.231268 179.730598 
L 237.55856 168.865455 
L 237.55856 168.865455 
L 239.582378 169.041839 
L 239.582378 169.041839 
L 241.620423 169.888471 
L 245.048781 165.443641 
L 247.819921 159.411356 
L 247.819921 159.411356 
L 248.516659 159.164424 
L 252.024056 156.836174 
L 257.718094 155.213458 
L 259.157411 155.530939 
L 259.879441 155.213458 
L 261.328243 155.848446 
L 267.926103 153.343811 
L 271.646908 149.745613 
L 286.146391 142.196449 
L 288.48795 141.808393 
L 298.799106 139.656527 
L 302.025516 138.280743 
L 308.554216 138.562963 
L 311.028561 138.739347 
L 316.857362 137.786879 
L 334.80852 135.599725 
L 340.065466 135.529177 
L 342.715281 135.458629 
L 345.379322 134.964765 
L 355.269195 134.223969 
L 362.581971 133.553694 
L 384.169756 133.342049 
L 399.680555 132.848185 
L 400.663417 132.77761 
L 421.668678 132.319034 
L 481.090909 132.319034 
L 481.090909 132.319034 
L 481.090909 132.319034 
" clip-path="url(#p648ba4615c)" style="fill: none; stroke: #ffc0cb; stroke-width: 1.5; stroke-linecap: square"/>
   </g>
   <g id="line2d_17">
    <path d="M 136.760331 439.042451 
L 140.347107 438.838302 
L 143.933884 434.430457 
L 147.520661 419.375634 
L 151.107438 417.673378 
L 154.694215 385.649256 
L 158.280992 383.537205 
L 161.867769 344.82176 
L 165.454545 324.602829 
L 169.041322 284.58836 
L 172.628099 266.839375 
L 176.214876 247.300081 
L 179.801653 239.257858 
L 183.38843 238.367482 
L 186.975207 193.95245 
L 190.561983 194.217156 
L 194.14876 192.209975 
L 197.735537 194.631561 
L 201.322314 188.316374 
L 204.909091 180.98059 
L 208.495868 173.603359 
L 212.082645 169.043524 
L 215.669421 163.626862 
L 219.256198 161.713424 
L 222.842975 167.754802 
L 226.429752 169.27347 
L 230.016529 160.408406 
L 233.603306 156.590906 
L 237.190083 158.902353 
L 240.77686 144.954673 
L 244.363636 151.331704 
L 247.950413 151.273803 
L 251.53719 150.954488 
L 255.123967 148.828438 
L 258.710744 147.854699 
L 262.297521 145.714483 
L 265.884298 144.639468 
L 269.471074 143.225001 
L 273.057851 143.615777 
L 276.644628 143.484025 
L 280.231405 143.327842 
L 283.818182 143.137909 
L 287.404959 139.972542 
L 290.991736 140.0671 
L 294.578512 140.689706 
L 298.165289 141.011521 
L 301.752066 142.25328 
L 305.338843 140.633654 
L 308.92562 139.789248 
L 312.512397 138.660676 
L 316.099174 137.515165 
L 319.68595 137.731303 
L 323.272727 138.174197 
L 326.859504 138.761032 
L 330.446281 139.347868 
L 334.033058 139.663594 
L 337.619835 137.26678 
L 341.206612 137.522817 
L 344.793388 139.02799 
L 348.380165 137.555801 
L 351.966942 136.884913 
L 355.553719 135.872131 
L 359.140496 135.509466 
L 362.727273 135.236228 
L 366.31405 135.082628 
L 369.900826 135.008355 
L 373.487603 134.934082 
L 377.07438 134.859809 
L 380.661157 134.785536 
L 384.247934 134.668284 
L 387.834711 134.552402 
L 391.421488 134.510511 
L 395.008264 134.46862 
L 398.595041 134.53866 
L 402.181818 134.425253 
L 405.768595 134.314837 
L 409.355372 134.197982 
L 412.942149 134.081127 
L 416.528926 133.964271 
L 420.115702 133.852332 
L 423.702479 133.741024 
L 427.289256 133.652047 
L 430.876033 133.56318 
L 434.46281 133.474312 
L 438.049587 133.385445 
L 441.636364 133.296577 
L 445.22314 133.207709 
L 448.809917 133.118842 
L 452.396694 133.029974 
L 455.983471 132.941107 
L 459.570248 132.852239 
L 463.157025 132.763372 
L 466.743802 132.674504 
L 470.330579 132.585636 
L 473.917355 132.496769 
L 477.504132 132.407901 
L 481.090909 132.319034 
" clip-path="url(#p648ba4615c)" style="fill: none; stroke: #0000ff; stroke-width: 1.5; stroke-linecap: square"/>
   </g>
   <g id="patch_3">
    <path d="M 126 473.76 
L 126 120.96 
" style="fill: none; stroke: #000000; stroke-width: 0.8; stroke-linejoin: miter; stroke-linecap: square"/>
   </g>
   <g id="patch_4">
    <path d="M 481.090909 473.76 
L 481.090909 120.96 
" style="fill: none; stroke: #000000; stroke-width: 0.8; stroke-linejoin: miter; stroke-linecap: square"/>
   </g>
   <g id="patch_5">
    <path d="M 126 473.76 
L 481.090909 473.76 
" style="fill: none; stroke: #000000; stroke-width: 0.8; stroke-linejoin: miter; stroke-linecap: square"/>
   </g>
   <g id="patch_6">
    <path d="M 126 120.96 
L 481.090909 120.96 
" style="fill: none; stroke: #000000; stroke-width: 0.8; stroke-linejoin: miter; stroke-linecap: square"/>
   </g>
   <g id="legend_1">
    <g id="patch_7">
     <path d="M 359.411222 468.76 
L 474.090909 468.76 
Q 476.090909 468.76 476.090909 466.76 
L 476.090909 393.535 
Q 476.090909 391.535 474.090909 391.535 
L 359.411222 391.535 
Q 357.411222 391.535 357.411222 393.535 
L 357.411222 466.76 
Q 357.411222 468.76 359.411222 468.76 
z
" style="fill: #ffffff; opacity: 0.8; stroke: #cccccc; stroke-linejoin: miter"/>
    </g>
    <g id="line2d_18">
     <path d="M 361.411222 399.633438 
L 371.411222 399.633438 
L 381.411222 399.633438 
" style="fill: none; stroke: #1f77b4; stroke-width: 1.5; stroke-linecap: square"/>
    </g>
    <g id="text_14">
     <!-- Opf_Thr=0.5 -->
     <g transform="translate(389.411222 403.133438) scale(0.1 -0.1)">
      <defs>
       <path id="DejaVuSans-4f" d="M 2522 4238 
Q 1834 4238 1429 3725 
Q 1025 3213 1025 2328 
Q 1025 1447 1429 934 
Q 1834 422 2522 422 
Q 3209 422 3611 934 
Q 4013 1447 4013 2328 
Q 4013 3213 3611 3725 
Q 3209 4238 2522 4238 
z
M 2522 4750 
Q 3503 4750 4090 4092 
Q 4678 3434 4678 2328 
Q 4678 1225 4090 567 
Q 3503 -91 2522 -91 
Q 1538 -91 948 565 
Q 359 1222 359 2328 
Q 359 3434 948 4092 
Q 1538 4750 2522 4750 
z
" transform="scale(0.015625)"/>
       <path id="DejaVuSans-70" d="M 1159 525 
L 1159 -1331 
L 581 -1331 
L 581 3500 
L 1159 3500 
L 1159 2969 
Q 1341 3281 1617 3432 
Q 1894 3584 2278 3584 
Q 2916 3584 3314 3078 
Q 3713 2572 3713 1747 
Q 3713 922 3314 415 
Q 2916 -91 2278 -91 
Q 1894 -91 1617 61 
Q 1341 213 1159 525 
z
M 3116 1747 
Q 3116 2381 2855 2742 
Q 2594 3103 2138 3103 
Q 1681 3103 1420 2742 
Q 1159 2381 1159 1747 
Q 1159 1113 1420 752 
Q 1681 391 2138 391 
Q 2594 391 2855 752 
Q 3116 1113 3116 1747 
z
" transform="scale(0.015625)"/>
       <path id="DejaVuSans-66" d="M 2375 4863 
L 2375 4384 
L 1825 4384 
Q 1516 4384 1395 4259 
Q 1275 4134 1275 3809 
L 1275 3500 
L 2222 3500 
L 2222 3053 
L 1275 3053 
L 1275 0 
L 697 0 
L 697 3053 
L 147 3053 
L 147 3500 
L 697 3500 
L 697 3744 
Q 697 4328 969 4595 
Q 1241 4863 1831 4863 
L 2375 4863 
z
" transform="scale(0.015625)"/>
       <path id="DejaVuSans-5f" d="M 3263 -1063 
L 3263 -1509 
L -63 -1509 
L -63 -1063 
L 3263 -1063 
z
" transform="scale(0.015625)"/>
       <path id="DejaVuSans-54" d="M -19 4666 
L 3928 4666 
L 3928 4134 
L 2272 4134 
L 2272 0 
L 1638 0 
L 1638 4134 
L -19 4134 
L -19 4666 
z
" transform="scale(0.015625)"/>
       <path id="DejaVuSans-68" d="M 3513 2113 
L 3513 0 
L 2938 0 
L 2938 2094 
Q 2938 2591 2744 2837 
Q 2550 3084 2163 3084 
Q 1697 3084 1428 2787 
Q 1159 2491 1159 1978 
L 1159 0 
L 581 0 
L 581 4863 
L 1159 4863 
L 1159 2956 
Q 1366 3272 1645 3428 
Q 1925 3584 2291 3584 
Q 2894 3584 3203 3211 
Q 3513 2838 3513 2113 
z
" transform="scale(0.015625)"/>
       <path id="DejaVuSans-3d" d="M 678 2906 
L 4684 2906 
L 4684 2381 
L 678 2381 
L 678 2906 
z
M 678 1631 
L 4684 1631 
L 4684 1100 
L 678 1100 
L 678 1631 
z
" transform="scale(0.015625)"/>
       <path id="DejaVuSans-35" d="M 691 4666 
L 3169 4666 
L 3169 4134 
L 1269 4134 
L 1269 2991 
Q 1406 3038 1543 3061 
Q 1681 3084 1819 3084 
Q 2600 3084 3056 2656 
Q 3513 2228 3513 1497 
Q 3513 744 3044 326 
Q 2575 -91 1722 -91 
Q 1428 -91 1123 -41 
Q 819 9 494 109 
L 494 744 
Q 775 591 1075 516 
Q 1375 441 1709 441 
Q 2250 441 2565 725 
Q 2881 1009 2881 1497 
Q 2881 1984 2565 2268 
Q 2250 2553 1709 2553 
Q 1456 2553 1204 2497 
Q 953 2441 691 2322 
L 691 4666 
z
" transform="scale(0.015625)"/>
      </defs>
      <use xlink:href="#DejaVuSans-4f"/>
      <use xlink:href="#DejaVuSans-70" x="78.710938"/>
      <use xlink:href="#DejaVuSans-66" x="142.1875"/>
      <use xlink:href="#DejaVuSans-5f" x="177.392578"/>
      <use xlink:href="#DejaVuSans-54" x="227.392578"/>
      <use xlink:href="#DejaVuSans-68" x="288.476562"/>
      <use xlink:href="#DejaVuSans-72" x="351.855469"/>
      <use xlink:href="#DejaVuSans-3d" x="392.96875"/>
      <use xlink:href="#DejaVuSans-30" x="476.757812"/>
      <use xlink:href="#DejaVuSans-2e" x="540.380859"/>
      <use xlink:href="#DejaVuSans-35" x="572.167969"/>
     </g>
    </g>
    <g id="line2d_19">
     <path d="M 361.411222 414.589687 
L 371.411222 414.589687 
L 381.411222 414.589687 
" style="fill: none; stroke: #ff7f0e; stroke-width: 1.5; stroke-linecap: square"/>
    </g>
    <g id="text_15">
     <!-- Opf_Thr=0.7 -->
     <g transform="translate(389.411222 418.089687) scale(0.1 -0.1)">
      <defs>
       <path id="DejaVuSans-37" d="M 525 4666 
L 3525 4666 
L 3525 4397 
L 1831 0 
L 1172 0 
L 2766 4134 
L 525 4134 
L 525 4666 
z
" transform="scale(0.015625)"/>
      </defs>
      <use xlink:href="#DejaVuSans-4f"/>
      <use xlink:href="#DejaVuSans-70" x="78.710938"/>
      <use xlink:href="#DejaVuSans-66" x="142.1875"/>
      <use xlink:href="#DejaVuSans-5f" x="177.392578"/>
      <use xlink:href="#DejaVuSans-54" x="227.392578"/>
      <use xlink:href="#DejaVuSans-68" x="288.476562"/>
      <use xlink:href="#DejaVuSans-72" x="351.855469"/>
      <use xlink:href="#DejaVuSans-3d" x="392.96875"/>
      <use xlink:href="#DejaVuSans-30" x="476.757812"/>
      <use xlink:href="#DejaVuSans-2e" x="540.380859"/>
      <use xlink:href="#DejaVuSans-37" x="572.167969"/>
     </g>
    </g>
    <g id="line2d_20">
     <path d="M 361.411222 429.545938 
L 371.411222 429.545938 
L 381.411222 429.545938 
" style="fill: none; stroke: #2ca02c; stroke-width: 1.5; stroke-linecap: square"/>
    </g>
    <g id="text_16">
     <!-- Opf_Thr=1.0 -->
     <g transform="translate(389.411222 433.045938) scale(0.1 -0.1)">
      <use xlink:href="#DejaVuSans-4f"/>
      <use xlink:href="#DejaVuSans-70" x="78.710938"/>
      <use xlink:href="#DejaVuSans-66" x="142.1875"/>
      <use xlink:href="#DejaVuSans-5f" x="177.392578"/>
      <use xlink:href="#DejaVuSans-54" x="227.392578"/>
      <use xlink:href="#DejaVuSans-68" x="288.476562"/>
      <use xlink:href="#DejaVuSans-72" x="351.855469"/>
      <use xlink:href="#DejaVuSans-3d" x="392.96875"/>
      <use xlink:href="#DejaVuSans-31" x="476.757812"/>
      <use xlink:href="#DejaVuSans-2e" x="540.380859"/>
      <use xlink:href="#DejaVuSans-30" x="572.167969"/>
     </g>
    </g>
    <g id="line2d_21">
     <path d="M 361.411222 444.502187 
L 371.411222 444.502187 
L 381.411222 444.502187 
" style="fill: none; stroke: #ffc0cb; stroke-width: 1.5; stroke-linecap: square"/>
    </g>
    <g id="text_17">
     <!-- Random Pruning -->
     <g transform="translate(389.411222 448.002187) scale(0.1 -0.1)">
      <defs>
       <path id="DejaVuSans-52" d="M 2841 2188 
Q 3044 2119 3236 1894 
Q 3428 1669 3622 1275 
L 4263 0 
L 3584 0 
L 2988 1197 
Q 2756 1666 2539 1819 
Q 2322 1972 1947 1972 
L 1259 1972 
L 1259 0 
L 628 0 
L 628 4666 
L 2053 4666 
Q 2853 4666 3247 4331 
Q 3641 3997 3641 3322 
Q 3641 2881 3436 2590 
Q 3231 2300 2841 2188 
z
M 1259 4147 
L 1259 2491 
L 2053 2491 
Q 2509 2491 2742 2702 
Q 2975 2913 2975 3322 
Q 2975 3731 2742 3939 
Q 2509 4147 2053 4147 
L 1259 4147 
z
" transform="scale(0.015625)"/>
       <path id="DejaVuSans-6e" d="M 3513 2113 
L 3513 0 
L 2938 0 
L 2938 2094 
Q 2938 2591 2744 2837 
Q 2550 3084 2163 3084 
Q 1697 3084 1428 2787 
Q 1159 2491 1159 1978 
L 1159 0 
L 581 0 
L 581 3500 
L 1159 3500 
L 1159 2956 
Q 1366 3272 1645 3428 
Q 1925 3584 2291 3584 
Q 2894 3584 3203 3211 
Q 3513 2838 3513 2113 
z
" transform="scale(0.015625)"/>
       <path id="DejaVuSans-64" d="M 2906 2969 
L 2906 4863 
L 3481 4863 
L 3481 0 
L 2906 0 
L 2906 525 
Q 2725 213 2448 61 
Q 2172 -91 1784 -91 
Q 1150 -91 751 415 
Q 353 922 353 1747 
Q 353 2572 751 3078 
Q 1150 3584 1784 3584 
Q 2172 3584 2448 3432 
Q 2725 3281 2906 2969 
z
M 947 1747 
Q 947 1113 1208 752 
Q 1469 391 1925 391 
Q 2381 391 2643 752 
Q 2906 1113 2906 1747 
Q 2906 2381 2643 2742 
Q 2381 3103 1925 3103 
Q 1469 3103 1208 2742 
Q 947 2381 947 1747 
z
" transform="scale(0.015625)"/>
       <path id="DejaVuSans-6f" d="M 1959 3097 
Q 1497 3097 1228 2736 
Q 959 2375 959 1747 
Q 959 1119 1226 758 
Q 1494 397 1959 397 
Q 2419 397 2687 759 
Q 2956 1122 2956 1747 
Q 2956 2369 2687 2733 
Q 2419 3097 1959 3097 
z
M 1959 3584 
Q 2709 3584 3137 3096 
Q 3566 2609 3566 1747 
Q 3566 888 3137 398 
Q 2709 -91 1959 -91 
Q 1206 -91 779 398 
Q 353 888 353 1747 
Q 353 2609 779 3096 
Q 1206 3584 1959 3584 
z
" transform="scale(0.015625)"/>
       <path id="DejaVuSans-6d" d="M 3328 2828 
Q 3544 3216 3844 3400 
Q 4144 3584 4550 3584 
Q 5097 3584 5394 3201 
Q 5691 2819 5691 2113 
L 5691 0 
L 5113 0 
L 5113 2094 
Q 5113 2597 4934 2840 
Q 4756 3084 4391 3084 
Q 3944 3084 3684 2787 
Q 3425 2491 3425 1978 
L 3425 0 
L 2847 0 
L 2847 2094 
Q 2847 2600 2669 2842 
Q 2491 3084 2119 3084 
Q 1678 3084 1418 2786 
Q 1159 2488 1159 1978 
L 1159 0 
L 581 0 
L 581 3500 
L 1159 3500 
L 1159 2956 
Q 1356 3278 1631 3431 
Q 1906 3584 2284 3584 
Q 2666 3584 2933 3390 
Q 3200 3197 3328 2828 
z
" transform="scale(0.015625)"/>
       <path id="DejaVuSans-20" transform="scale(0.015625)"/>
       <path id="DejaVuSans-50" d="M 1259 4147 
L 1259 2394 
L 2053 2394 
Q 2494 2394 2734 2622 
Q 2975 2850 2975 3272 
Q 2975 3691 2734 3919 
Q 2494 4147 2053 4147 
L 1259 4147 
z
M 628 4666 
L 2053 4666 
Q 2838 4666 3239 4311 
Q 3641 3956 3641 3272 
Q 3641 2581 3239 2228 
Q 2838 1875 2053 1875 
L 1259 1875 
L 1259 0 
L 628 0 
L 628 4666 
z
" transform="scale(0.015625)"/>
       <path id="DejaVuSans-69" d="M 603 3500 
L 1178 3500 
L 1178 0 
L 603 0 
L 603 3500 
z
M 603 4863 
L 1178 4863 
L 1178 4134 
L 603 4134 
L 603 4863 
z
" transform="scale(0.015625)"/>
       <path id="DejaVuSans-67" d="M 2906 1791 
Q 2906 2416 2648 2759 
Q 2391 3103 1925 3103 
Q 1463 3103 1205 2759 
Q 947 2416 947 1791 
Q 947 1169 1205 825 
Q 1463 481 1925 481 
Q 2391 481 2648 825 
Q 2906 1169 2906 1791 
z
M 3481 434 
Q 3481 -459 3084 -895 
Q 2688 -1331 1869 -1331 
Q 1566 -1331 1297 -1286 
Q 1028 -1241 775 -1147 
L 775 -588 
Q 1028 -725 1275 -790 
Q 1522 -856 1778 -856 
Q 2344 -856 2625 -561 
Q 2906 -266 2906 331 
L 2906 616 
Q 2728 306 2450 153 
Q 2172 0 1784 0 
Q 1141 0 747 490 
Q 353 981 353 1791 
Q 353 2603 747 3093 
Q 1141 3584 1784 3584 
Q 2172 3584 2450 3431 
Q 2728 3278 2906 2969 
L 2906 3500 
L 3481 3500 
L 3481 434 
z
" transform="scale(0.015625)"/>
      </defs>
      <use xlink:href="#DejaVuSans-52"/>
      <use xlink:href="#DejaVuSans-61" x="67.232422"/>
      <use xlink:href="#DejaVuSans-6e" x="128.511719"/>
      <use xlink:href="#DejaVuSans-64" x="191.890625"/>
      <use xlink:href="#DejaVuSans-6f" x="255.367188"/>
      <use xlink:href="#DejaVuSans-6d" x="316.548828"/>
      <use xlink:href="#DejaVuSans-20" x="413.960938"/>
      <use xlink:href="#DejaVuSans-50" x="445.748047"/>
      <use xlink:href="#DejaVuSans-72" x="504.300781"/>
      <use xlink:href="#DejaVuSans-75" x="545.414062"/>
      <use xlink:href="#DejaVuSans-6e" x="608.792969"/>
      <use xlink:href="#DejaVuSans-69" x="672.171875"/>
      <use xlink:href="#DejaVuSans-6e" x="699.955078"/>
      <use xlink:href="#DejaVuSans-67" x="763.333984"/>
     </g>
    </g>
    <g id="line2d_22">
     <path d="M 361.411222 459.180313 
L 371.411222 459.180313 
L 381.411222 459.180313 
" style="fill: none; stroke: #0000ff; stroke-width: 1.5; stroke-linecap: square"/>
    </g>
    <g id="text_18">
     <!-- L2 Pruning -->
     <g transform="translate(389.411222 462.680313) scale(0.1 -0.1)">
      <defs>
       <path id="DejaVuSans-4c" d="M 628 4666 
L 1259 4666 
L 1259 531 
L 3531 531 
L 3531 0 
L 628 0 
L 628 4666 
z
" transform="scale(0.015625)"/>
      </defs>
      <use xlink:href="#DejaVuSans-4c"/>
      <use xlink:href="#DejaVuSans-32" x="55.712891"/>
      <use xlink:href="#DejaVuSans-20" x="119.335938"/>
      <use xlink:href="#DejaVuSans-50" x="151.123047"/>
      <use xlink:href="#DejaVuSans-72" x="209.675781"/>
      <use xlink:href="#DejaVuSans-75" x="250.789062"/>
      <use xlink:href="#DejaVuSans-6e" x="314.167969"/>
      <use xlink:href="#DejaVuSans-69" x="377.546875"/>
      <use xlink:href="#DejaVuSans-6e" x="405.330078"/>
      <use xlink:href="#DejaVuSans-67" x="468.708984"/>
     </g>
    </g>
   </g>
  </g>
  <g id="axes_2">
   <g id="patch_8">
    <path d="M 552.109091 473.76 
L 907.2 473.76 
L 907.2 120.96 
L 552.109091 120.96 
z
" style="fill: #ffffff"/>
   </g>
   <g id="matplotlib.axis_3">
    <g id="xtick_7">
     <g id="line2d_23">
      <g>
       <use xlink:href="#m5062843019" x="552.109091" y="473.76" style="stroke: #000000; stroke-width: 0.8"/>
      </g>
     </g>
     <g id="text_19">
      <!-- 0.0 -->
      <g transform="translate(544.157528 488.358438) scale(0.1 -0.1)">
       <use xlink:href="#DejaVuSans-30"/>
       <use xlink:href="#DejaVuSans-2e" x="63.623047"/>
       <use xlink:href="#DejaVuSans-30" x="95.410156"/>
      </g>
     </g>
    </g>
    <g id="xtick_8">
     <g id="line2d_24">
      <g>
       <use xlink:href="#m5062843019" x="623.127273" y="473.76" style="stroke: #000000; stroke-width: 0.8"/>
      </g>
     </g>
     <g id="text_20">
      <!-- 0.2 -->
      <g transform="translate(615.17571 488.358438) scale(0.1 -0.1)">
       <use xlink:href="#DejaVuSans-30"/>
       <use xlink:href="#DejaVuSans-2e" x="63.623047"/>
       <use xlink:href="#DejaVuSans-32" x="95.410156"/>
      </g>
     </g>
    </g>
    <g id="xtick_9">
     <g id="line2d_25">
      <g>
       <use xlink:href="#m5062843019" x="694.145455" y="473.76" style="stroke: #000000; stroke-width: 0.8"/>
      </g>
     </g>
     <g id="text_21">
      <!-- 0.4 -->
      <g transform="translate(686.193892 488.358438) scale(0.1 -0.1)">
       <use xlink:href="#DejaVuSans-30"/>
       <use xlink:href="#DejaVuSans-2e" x="63.623047"/>
       <use xlink:href="#DejaVuSans-34" x="95.410156"/>
      </g>
     </g>
    </g>
    <g id="xtick_10">
     <g id="line2d_26">
      <g>
       <use xlink:href="#m5062843019" x="765.163636" y="473.76" style="stroke: #000000; stroke-width: 0.8"/>
      </g>
     </g>
     <g id="text_22">
      <!-- 0.6 -->
      <g transform="translate(757.212074 488.358438) scale(0.1 -0.1)">
       <use xlink:href="#DejaVuSans-30"/>
       <use xlink:href="#DejaVuSans-2e" x="63.623047"/>
       <use xlink:href="#DejaVuSans-36" x="95.410156"/>
      </g>
     </g>
    </g>
    <g id="xtick_11">
     <g id="line2d_27">
      <g>
       <use xlink:href="#m5062843019" x="836.181818" y="473.76" style="stroke: #000000; stroke-width: 0.8"/>
      </g>
     </g>
     <g id="text_23">
      <!-- 0.8 -->
      <g transform="translate(828.230256 488.358438) scale(0.1 -0.1)">
       <use xlink:href="#DejaVuSans-30"/>
       <use xlink:href="#DejaVuSans-2e" x="63.623047"/>
       <use xlink:href="#DejaVuSans-38" x="95.410156"/>
      </g>
     </g>
    </g>
    <g id="xtick_12">
     <g id="line2d_28">
      <g>
       <use xlink:href="#m5062843019" x="907.2" y="473.76" style="stroke: #000000; stroke-width: 0.8"/>
      </g>
     </g>
     <g id="text_24">
      <!-- 1.0 -->
      <g transform="translate(899.248437 488.358438) scale(0.1 -0.1)">
       <use xlink:href="#DejaVuSans-31"/>
       <use xlink:href="#DejaVuSans-2e" x="63.623047"/>
       <use xlink:href="#DejaVuSans-30" x="95.410156"/>
      </g>
     </g>
    </g>
   </g>
   <g id="matplotlib.axis_4">
    <g id="ytick_7">
     <g id="line2d_29">
      <g>
       <use xlink:href="#m6f941e0d6a" x="552.109091" y="420.244752" style="stroke: #000000; stroke-width: 0.8"/>
      </g>
     </g>
     <g id="text_25">
      <!-- 20 -->
      <g transform="translate(532.384091 424.043971) scale(0.1 -0.1)">
       <use xlink:href="#DejaVuSans-32"/>
       <use xlink:href="#DejaVuSans-30" x="63.623047"/>
      </g>
     </g>
    </g>
    <g id="ytick_8">
     <g id="line2d_30">
      <g>
       <use xlink:href="#m6f941e0d6a" x="552.109091" y="346.463243" style="stroke: #000000; stroke-width: 0.8"/>
      </g>
     </g>
     <g id="text_26">
      <!-- 40 -->
      <g transform="translate(532.384091 350.262462) scale(0.1 -0.1)">
       <use xlink:href="#DejaVuSans-34"/>
       <use xlink:href="#DejaVuSans-30" x="63.623047"/>
      </g>
     </g>
    </g>
    <g id="ytick_9">
     <g id="line2d_31">
      <g>
       <use xlink:href="#m6f941e0d6a" x="552.109091" y="272.681735" style="stroke: #000000; stroke-width: 0.8"/>
      </g>
     </g>
     <g id="text_27">
      <!-- 60 -->
      <g transform="translate(532.384091 276.480954) scale(0.1 -0.1)">
       <use xlink:href="#DejaVuSans-36"/>
       <use xlink:href="#DejaVuSans-30" x="63.623047"/>
      </g>
     </g>
    </g>
    <g id="ytick_10">
     <g id="line2d_32">
      <g>
       <use xlink:href="#m6f941e0d6a" x="552.109091" y="198.900227" style="stroke: #000000; stroke-width: 0.8"/>
      </g>
     </g>
     <g id="text_28">
      <!-- 80 -->
      <g transform="translate(532.384091 202.699446) scale(0.1 -0.1)">
       <use xlink:href="#DejaVuSans-38"/>
       <use xlink:href="#DejaVuSans-30" x="63.623047"/>
      </g>
     </g>
    </g>
    <g id="ytick_11">
     <g id="line2d_33">
      <g>
       <use xlink:href="#m6f941e0d6a" x="552.109091" y="125.118718" style="stroke: #000000; stroke-width: 0.8"/>
      </g>
     </g>
     <g id="text_29">
      <!-- 100 -->
      <g transform="translate(526.021591 128.917937) scale(0.1 -0.1)">
       <use xlink:href="#DejaVuSans-31"/>
       <use xlink:href="#DejaVuSans-30" x="63.623047"/>
       <use xlink:href="#DejaVuSans-30" x="127.246094"/>
      </g>
     </g>
    </g>
   </g>
   <g id="line2d_34">
    <path d="M 571.520727 408.632701 
L 577.438909 407.304772 
L 585.961091 393.804101 
L 591.405818 377.979554 
L 592.116 363.96247 
L 592.116 363.96247 
L 592.116 363.96247 
L 592.116 363.96247 
L 593.299636 356.253076 
L 594.72 373.258013 
L 595.430182 376.319636 
L 598.034182 353.523436 
L 598.034182 353.523436 
L 602.058545 346.736212 
L 606.082909 349.760943 
L 607.266545 348.433014 
L 608.213455 348.322346 
L 609.870545 342.383538 
L 610.817455 331.391193 
L 613.184727 339.875219 
L 620.049818 310.365557 
L 622.417091 298.082167 
L 627.861818 296.164043 
L 631.886182 288.380866 
L 634.963636 278.9009 
L 637.567636 266.838832 
L 645.379636 264.146076 
L 648.220364 264.035408 
L 650.824364 254.002132 
L 654.375273 254.297237 
L 661.003636 252.96928 
L 670.709455 241.681844 
L 670.946182 241.681844 
L 675.207273 235.669252 
L 690.357818 211.508217 
L 691.304727 208.667923 
L 698.169818 196.200097 
L 700.300364 192.806492 
L 700.300364 192.806492 
L 700.300364 192.806492 
L 700.300364 192.806492 
L 700.300364 192.806492 
L 700.300364 192.806492 
L 700.300364 192.806492 
L 700.300364 192.806492 
L 700.300364 192.806492 
L 700.300364 192.806492 
L 700.300364 192.806492 
L 700.300364 192.806492 
L 700.300364 192.806492 
L 700.300364 192.806492 
L 700.300364 192.806492 
L 700.300364 192.806492 
L 700.300364 192.806492 
L 702.430909 188.564472 
L 704.798182 186.425026 
L 706.692 186.572565 
L 712.610182 175.211359 
L 712.610182 175.211359 
L 714.740727 175.395796 
L 714.977455 175.395796 
L 717.108 176.281082 
L 720.658909 171.633318 
L 723.262909 165.325621 
L 723.262909 165.325621 
L 723.736364 165.067415 
L 727.760727 162.632865 
L 733.442182 160.936063 
L 734.389091 161.268038 
L 735.336 160.936063 
L 736.519636 161.600041 
L 742.911273 158.981054 
L 746.935636 155.218576 
L 760.192364 147.324745 
L 762.559636 146.918972 
L 771.792 144.668859 
L 774.159273 143.230263 
L 780.314182 143.525367 
L 781.971273 143.709804 
L 787.416 142.713851 
L 802.093091 140.426839 
L 806.354182 140.35307 
L 808.484727 140.279301 
L 810.615273 139.762889 
L 818.427273 138.988271 
L 824.108727 138.287394 
L 840.442909 138.066086 
L 851.569091 137.549674 
L 852.752727 137.475877 
L 867.193091 136.996364 
L 907.2 136.996364 
L 907.2 136.996364 
L 907.2 136.996364 
" clip-path="url(#pa876158c94)" style="fill: none; stroke: #ffc0cb; stroke-width: 1.5; stroke-linecap: square"/>
   </g>
   <g id="line2d_35">
    <path d="M 562.869421 457.723636 
L 566.456198 457.510166 
L 570.042975 452.901076 
L 573.629752 437.158906 
L 577.216529 435.378931 
L 580.803306 401.892706 
L 584.390083 399.684226 
L 587.97686 359.201178 
L 591.563636 338.059125 
L 595.150413 296.217743 
L 598.73719 277.658406 
L 602.323967 257.227019 
L 605.910744 248.817619 
L 609.497521 247.886591 
L 613.084298 201.443733 
L 616.671074 201.720525 
L 620.257851 199.621704 
L 623.844628 202.153851 
L 627.431405 195.550335 
L 631.018182 187.879627 
L 634.604959 180.165579 
L 638.191736 175.397558 
L 641.778512 169.733592 
L 645.365289 167.732793 
L 648.952066 174.049998 
L 652.538843 175.638002 
L 656.12562 166.368193 
L 659.712397 162.376399 
L 663.299174 164.793379 
L 666.88595 150.208899 
L 670.472727 156.877082 
L 674.059504 156.816537 
L 677.646281 156.482644 
L 681.233058 154.259526 
L 684.819835 153.24133 
L 688.406612 151.003399 
L 691.993388 149.879303 
L 695.580165 148.400257 
L 699.166942 148.808875 
L 702.753719 148.671107 
L 706.340496 148.507793 
L 709.927273 148.309189 
L 713.51405 144.999303 
L 717.100826 145.098178 
L 720.687603 145.749209 
L 724.27438 146.085718 
L 727.861157 147.384171 
L 731.447934 145.690598 
L 735.034711 144.80764 
L 738.621488 143.627542 
L 742.208264 142.429731 
L 745.795041 142.655737 
L 749.381818 143.118851 
L 752.968595 143.73248 
L 756.555372 144.346108 
L 760.142149 144.676249 
L 763.728926 142.170005 
L 767.315702 142.437732 
L 770.902479 144.011625 
L 774.489256 142.472222 
L 778.076033 141.770704 
L 781.66281 140.711682 
L 785.249587 140.33246 
L 788.836364 140.046746 
L 792.42314 139.886133 
L 796.009917 139.808469 
L 799.596694 139.730805 
L 803.183471 139.653141 
L 806.770248 139.575477 
L 810.357025 139.452871 
L 813.943802 139.331699 
L 817.530579 139.287896 
L 821.117355 139.244092 
L 824.704132 139.31733 
L 828.290909 139.198745 
L 831.877686 139.083288 
L 835.464463 138.961097 
L 839.05124 138.838907 
L 842.638017 138.716717 
L 846.224793 138.599666 
L 849.81157 138.483277 
L 853.398347 138.390237 
L 856.985124 138.297313 
L 860.571901 138.204388 
L 864.158678 138.111463 
L 867.745455 138.018538 
L 871.332231 137.925613 
L 874.919008 137.832688 
L 878.505785 137.739763 
L 882.092562 137.646838 
L 885.679339 137.553913 
L 889.266116 137.460988 
L 892.852893 137.368063 
L 896.439669 137.275138 
L 900.026446 137.182213 
L 903.613223 137.089289 
L 907.2 136.996364 
" clip-path="url(#pa876158c94)" style="fill: none; stroke: #0000ff; stroke-width: 1.5; stroke-linecap: square"/>
   </g>
   <g id="line2d_36">
    <path d="M 700.300364 186.16682 
L 700.300364 186.16682 
L 700.300364 186.16682 
L 700.300364 186.16682 
L 700.300364 186.16682 
L 700.300364 186.16682 
L 700.300364 186.16682 
L 700.300364 186.16682 
L 700.300364 186.16682 
L 700.300364 186.16682 
L 700.300364 186.16682 
L 700.300364 186.16682 
L 700.300364 186.16682 
L 700.300364 186.16682 
L 700.300364 186.16682 
L 700.300364 186.16682 
L 700.300364 186.16682 
L 702.430909 186.7939 
L 712.610182 169.383205 
L 712.610182 169.383205 
L 717.108 157.653126 
L 723.736364 149.132187 
L 727.760727 140.389969 
L 734.389091 141.017048 
L 742.911273 141.939233 
L 762.559636 140.021095 
L 771.792 138.324292 
L 781.971273 138.619397 
L 808.484727 137.91852 
L 852.752727 137.070133 
L 907.2 136.996364 
" clip-path="url(#pa876158c94)" style="fill: none; stroke: #1f77b4; stroke-width: 1.5; stroke-linecap: square"/>
   </g>
   <g id="line2d_37">
    <path d="M 592.116 337.071795 
L 592.116 337.071795 
L 592.116 337.071795 
L 592.116 337.071795 
L 595.430182 335.043003 
L 598.034182 333.825742 
L 606.082909 330.542791 
L 607.266545 267.207692 
L 610.817455 331.280525 
L 620.049818 249.2437 
L 622.417091 249.465007 
L 627.861818 193.212236 
L 631.886182 231.132155 
L 634.963636 237.255387 
L 637.567636 190.888354 
L 648.220364 179.416481 
L 661.003636 186.646334 
L 670.946182 176.613057 
L 690.357818 157.099815 
L 691.304727 163.776357 
L 714.740727 153.226669 
L 723.262909 150.865888 
L 723.262909 146.697665 
L 746.935636 144.336884 
L 760.192364 141.865435 
L 780.314182 142.492515 
L 787.416 139.61535 
L 810.615273 138.287394 
L 824.108727 137.80788 
L 851.569091 137.328339 
L 907.2 136.996364 
" clip-path="url(#pa876158c94)" style="fill: none; stroke: #ff7f0e; stroke-width: 1.5; stroke-linecap: square"/>
   </g>
   <g id="line2d_38">
    <path d="M 571.520727 415.604361 
L 577.438909 409.444217 
L 585.961091 326.890966 
L 591.405818 276.46635 
L 593.299636 414.128873 
L 594.72 412.653392 
L 598.034182 310.218018 
L 602.058545 252.3422 
L 608.213455 295.905837 
L 609.870545 338.621059 
L 613.184727 217.373271 
L 645.379636 216.705605 
L 650.824364 231.316592 
L 654.375273 316.415047 
L 670.709455 227.369677 
L 675.207273 399.742923 
L 698.169818 175.76467 
L 704.798182 168.756125 
L 706.692 151.27166 
L 714.977455 156.912789 
L 720.658909 155.882526 
L 733.442182 143.636035 
L 735.336 146.328791 
L 736.519636 143.377829 
L 774.159273 139.836658 
L 802.093091 149.132187 
L 806.354182 139.246477 
L 818.427273 138.656267 
L 840.442909 137.80788 
L 867.193091 137.439007 
L 907.2 136.996364 
" clip-path="url(#pa876158c94)" style="fill: none; stroke: #2ca02c; stroke-width: 1.5; stroke-linecap: square"/>
   </g>
   <g id="patch_9">
    <path d="M 552.109091 473.76 
L 552.109091 120.96 
" style="fill: none; stroke: #000000; stroke-width: 0.8; stroke-linejoin: miter; stroke-linecap: square"/>
   </g>
   <g id="patch_10">
    <path d="M 907.2 473.76 
L 907.2 120.96 
" style="fill: none; stroke: #000000; stroke-width: 0.8; stroke-linejoin: miter; stroke-linecap: square"/>
   </g>
   <g id="patch_11">
    <path d="M 552.109091 473.76 
L 907.2 473.76 
" style="fill: none; stroke: #000000; stroke-width: 0.8; stroke-linejoin: miter; stroke-linecap: square"/>
   </g>
   <g id="patch_12">
    <path d="M 552.109091 120.96 
L 907.2 120.96 
" style="fill: none; stroke: #000000; stroke-width: 0.8; stroke-linejoin: miter; stroke-linecap: square"/>
   </g>
  </g>
  <g id="axes_3">
   <g id="patch_13">
    <path d="M 126 897.12 
L 481.090909 897.12 
L 481.090909 544.32 
L 126 544.32 
z
" style="fill: #ffffff"/>
   </g>
   <g id="matplotlib.axis_5">
    <g id="xtick_13">
     <g id="line2d_39">
      <g>
       <use xlink:href="#m5062843019" x="126" y="897.12" style="stroke: #000000; stroke-width: 0.8"/>
      </g>
     </g>
     <g id="text_30">
      <!-- 0.0 -->
      <g transform="translate(118.048438 911.718438) scale(0.1 -0.1)">
       <use xlink:href="#DejaVuSans-30"/>
       <use xlink:href="#DejaVuSans-2e" x="63.623047"/>
       <use xlink:href="#DejaVuSans-30" x="95.410156"/>
      </g>
     </g>
    </g>
    <g id="xtick_14">
     <g id="line2d_40">
      <g>
       <use xlink:href="#m5062843019" x="197.018182" y="897.12" style="stroke: #000000; stroke-width: 0.8"/>
      </g>
     </g>
     <g id="text_31">
      <!-- 0.2 -->
      <g transform="translate(189.066619 911.718438) scale(0.1 -0.1)">
       <use xlink:href="#DejaVuSans-30"/>
       <use xlink:href="#DejaVuSans-2e" x="63.623047"/>
       <use xlink:href="#DejaVuSans-32" x="95.410156"/>
      </g>
     </g>
    </g>
    <g id="xtick_15">
     <g id="line2d_41">
      <g>
       <use xlink:href="#m5062843019" x="268.036364" y="897.12" style="stroke: #000000; stroke-width: 0.8"/>
      </g>
     </g>
     <g id="text_32">
      <!-- 0.4 -->
      <g transform="translate(260.084801 911.718438) scale(0.1 -0.1)">
       <use xlink:href="#DejaVuSans-30"/>
       <use xlink:href="#DejaVuSans-2e" x="63.623047"/>
       <use xlink:href="#DejaVuSans-34" x="95.410156"/>
      </g>
     </g>
    </g>
    <g id="xtick_16">
     <g id="line2d_42">
      <g>
       <use xlink:href="#m5062843019" x="339.054545" y="897.12" style="stroke: #000000; stroke-width: 0.8"/>
      </g>
     </g>
     <g id="text_33">
      <!-- 0.6 -->
      <g transform="translate(331.102983 911.718438) scale(0.1 -0.1)">
       <use xlink:href="#DejaVuSans-30"/>
       <use xlink:href="#DejaVuSans-2e" x="63.623047"/>
       <use xlink:href="#DejaVuSans-36" x="95.410156"/>
      </g>
     </g>
    </g>
    <g id="xtick_17">
     <g id="line2d_43">
      <g>
       <use xlink:href="#m5062843019" x="410.072727" y="897.12" style="stroke: #000000; stroke-width: 0.8"/>
      </g>
     </g>
     <g id="text_34">
      <!-- 0.8 -->
      <g transform="translate(402.121165 911.718438) scale(0.1 -0.1)">
       <use xlink:href="#DejaVuSans-30"/>
       <use xlink:href="#DejaVuSans-2e" x="63.623047"/>
       <use xlink:href="#DejaVuSans-38" x="95.410156"/>
      </g>
     </g>
    </g>
    <g id="xtick_18">
     <g id="line2d_44">
      <g>
       <use xlink:href="#m5062843019" x="481.090909" y="897.12" style="stroke: #000000; stroke-width: 0.8"/>
      </g>
     </g>
     <g id="text_35">
      <!-- 1.0 -->
      <g transform="translate(473.139347 911.718438) scale(0.1 -0.1)">
       <use xlink:href="#DejaVuSans-31"/>
       <use xlink:href="#DejaVuSans-2e" x="63.623047"/>
       <use xlink:href="#DejaVuSans-30" x="95.410156"/>
      </g>
     </g>
    </g>
    <g id="text_36">
     <!-- Compressed Size -->
     <g transform="translate(260.61733 925.396563) scale(0.1 -0.1)">
      <defs>
       <path id="DejaVuSans-43" d="M 4122 4306 
L 4122 3641 
Q 3803 3938 3442 4084 
Q 3081 4231 2675 4231 
Q 1875 4231 1450 3742 
Q 1025 3253 1025 2328 
Q 1025 1406 1450 917 
Q 1875 428 2675 428 
Q 3081 428 3442 575 
Q 3803 722 4122 1019 
L 4122 359 
Q 3791 134 3420 21 
Q 3050 -91 2638 -91 
Q 1578 -91 968 557 
Q 359 1206 359 2328 
Q 359 3453 968 4101 
Q 1578 4750 2638 4750 
Q 3056 4750 3426 4639 
Q 3797 4528 4122 4306 
z
" transform="scale(0.015625)"/>
       <path id="DejaVuSans-65" d="M 3597 1894 
L 3597 1613 
L 953 1613 
Q 991 1019 1311 708 
Q 1631 397 2203 397 
Q 2534 397 2845 478 
Q 3156 559 3463 722 
L 3463 178 
Q 3153 47 2828 -22 
Q 2503 -91 2169 -91 
Q 1331 -91 842 396 
Q 353 884 353 1716 
Q 353 2575 817 3079 
Q 1281 3584 2069 3584 
Q 2775 3584 3186 3129 
Q 3597 2675 3597 1894 
z
M 3022 2063 
Q 3016 2534 2758 2815 
Q 2500 3097 2075 3097 
Q 1594 3097 1305 2825 
Q 1016 2553 972 2059 
L 3022 2063 
z
" transform="scale(0.015625)"/>
       <path id="DejaVuSans-73" d="M 2834 3397 
L 2834 2853 
Q 2591 2978 2328 3040 
Q 2066 3103 1784 3103 
Q 1356 3103 1142 2972 
Q 928 2841 928 2578 
Q 928 2378 1081 2264 
Q 1234 2150 1697 2047 
L 1894 2003 
Q 2506 1872 2764 1633 
Q 3022 1394 3022 966 
Q 3022 478 2636 193 
Q 2250 -91 1575 -91 
Q 1294 -91 989 -36 
Q 684 19 347 128 
L 347 722 
Q 666 556 975 473 
Q 1284 391 1588 391 
Q 1994 391 2212 530 
Q 2431 669 2431 922 
Q 2431 1156 2273 1281 
Q 2116 1406 1581 1522 
L 1381 1569 
Q 847 1681 609 1914 
Q 372 2147 372 2553 
Q 372 3047 722 3315 
Q 1072 3584 1716 3584 
Q 2034 3584 2315 3537 
Q 2597 3491 2834 3397 
z
" transform="scale(0.015625)"/>
       <path id="DejaVuSans-53" d="M 3425 4513 
L 3425 3897 
Q 3066 4069 2747 4153 
Q 2428 4238 2131 4238 
Q 1616 4238 1336 4038 
Q 1056 3838 1056 3469 
Q 1056 3159 1242 3001 
Q 1428 2844 1947 2747 
L 2328 2669 
Q 3034 2534 3370 2195 
Q 3706 1856 3706 1288 
Q 3706 609 3251 259 
Q 2797 -91 1919 -91 
Q 1588 -91 1214 -16 
Q 841 59 441 206 
L 441 856 
Q 825 641 1194 531 
Q 1563 422 1919 422 
Q 2459 422 2753 634 
Q 3047 847 3047 1241 
Q 3047 1584 2836 1778 
Q 2625 1972 2144 2069 
L 1759 2144 
Q 1053 2284 737 2584 
Q 422 2884 422 3419 
Q 422 4038 858 4394 
Q 1294 4750 2059 4750 
Q 2388 4750 2728 4690 
Q 3069 4631 3425 4513 
z
" transform="scale(0.015625)"/>
       <path id="DejaVuSans-7a" d="M 353 3500 
L 3084 3500 
L 3084 2975 
L 922 459 
L 3084 459 
L 3084 0 
L 275 0 
L 275 525 
L 2438 3041 
L 353 3041 
L 353 3500 
z
" transform="scale(0.015625)"/>
      </defs>
      <use xlink:href="#DejaVuSans-43"/>
      <use xlink:href="#DejaVuSans-6f" x="69.824219"/>
      <use xlink:href="#DejaVuSans-6d" x="131.005859"/>
      <use xlink:href="#DejaVuSans-70" x="228.417969"/>
      <use xlink:href="#DejaVuSans-72" x="291.894531"/>
      <use xlink:href="#DejaVuSans-65" x="330.757812"/>
      <use xlink:href="#DejaVuSans-73" x="392.28125"/>
      <use xlink:href="#DejaVuSans-73" x="444.380859"/>
      <use xlink:href="#DejaVuSans-65" x="496.480469"/>
      <use xlink:href="#DejaVuSans-64" x="558.003906"/>
      <use xlink:href="#DejaVuSans-20" x="621.480469"/>
      <use xlink:href="#DejaVuSans-53" x="653.267578"/>
      <use xlink:href="#DejaVuSans-69" x="716.744141"/>
      <use xlink:href="#DejaVuSans-7a" x="744.527344"/>
      <use xlink:href="#DejaVuSans-65" x="797.017578"/>
     </g>
    </g>
   </g>
   <g id="matplotlib.axis_6">
    <g id="ytick_12">
     <g id="line2d_45">
      <g>
       <use xlink:href="#m6f941e0d6a" x="126" y="888.330634" style="stroke: #000000; stroke-width: 0.8"/>
      </g>
     </g>
     <g id="text_37">
      <!-- 0 -->
      <g transform="translate(112.6375 892.129852) scale(0.1 -0.1)">
       <use xlink:href="#DejaVuSans-30"/>
      </g>
     </g>
    </g>
    <g id="ytick_13">
     <g id="line2d_46">
      <g>
       <use xlink:href="#m6f941e0d6a" x="126" y="817.437504" style="stroke: #000000; stroke-width: 0.8"/>
      </g>
     </g>
     <g id="text_38">
      <!-- 1 -->
      <g transform="translate(112.6375 821.236723) scale(0.1 -0.1)">
       <use xlink:href="#DejaVuSans-31"/>
      </g>
     </g>
    </g>
    <g id="ytick_14">
     <g id="line2d_47">
      <g>
       <use xlink:href="#m6f941e0d6a" x="126" y="746.544374" style="stroke: #000000; stroke-width: 0.8"/>
      </g>
     </g>
     <g id="text_39">
      <!-- 2 -->
      <g transform="translate(112.6375 750.343593) scale(0.1 -0.1)">
       <use xlink:href="#DejaVuSans-32"/>
      </g>
     </g>
    </g>
    <g id="ytick_15">
     <g id="line2d_48">
      <g>
       <use xlink:href="#m6f941e0d6a" x="126" y="675.651245" style="stroke: #000000; stroke-width: 0.8"/>
      </g>
     </g>
     <g id="text_40">
      <!-- 3 -->
      <g transform="translate(112.6375 679.450463) scale(0.1 -0.1)">
       <defs>
        <path id="DejaVuSans-33" d="M 2597 2516 
Q 3050 2419 3304 2112 
Q 3559 1806 3559 1356 
Q 3559 666 3084 287 
Q 2609 -91 1734 -91 
Q 1441 -91 1130 -33 
Q 819 25 488 141 
L 488 750 
Q 750 597 1062 519 
Q 1375 441 1716 441 
Q 2309 441 2620 675 
Q 2931 909 2931 1356 
Q 2931 1769 2642 2001 
Q 2353 2234 1838 2234 
L 1294 2234 
L 1294 2753 
L 1863 2753 
Q 2328 2753 2575 2939 
Q 2822 3125 2822 3475 
Q 2822 3834 2567 4026 
Q 2313 4219 1838 4219 
Q 1578 4219 1281 4162 
Q 984 4106 628 3988 
L 628 4550 
Q 988 4650 1302 4700 
Q 1616 4750 1894 4750 
Q 2613 4750 3031 4423 
Q 3450 4097 3450 3541 
Q 3450 3153 3228 2886 
Q 3006 2619 2597 2516 
z
" transform="scale(0.015625)"/>
       </defs>
       <use xlink:href="#DejaVuSans-33"/>
      </g>
     </g>
    </g>
    <g id="ytick_16">
     <g id="line2d_49">
      <g>
       <use xlink:href="#m6f941e0d6a" x="126" y="604.758115" style="stroke: #000000; stroke-width: 0.8"/>
      </g>
     </g>
     <g id="text_41">
      <!-- 4 -->
      <g transform="translate(112.6375 608.557334) scale(0.1 -0.1)">
       <use xlink:href="#DejaVuSans-34"/>
      </g>
     </g>
    </g>
    <g id="text_42">
     <!-- Loss -->
     <g transform="translate(106.557812 731.687188) rotate(-90) scale(0.1 -0.1)">
      <use xlink:href="#DejaVuSans-4c"/>
      <use xlink:href="#DejaVuSans-6f" x="53.962891"/>
      <use xlink:href="#DejaVuSans-73" x="115.144531"/>
      <use xlink:href="#DejaVuSans-73" x="167.244141"/>
     </g>
    </g>
   </g>
   <g id="line2d_50">
    <path d="M 233.181328 850.846241 
L 233.181328 850.846241 
L 233.181328 850.846241 
L 233.181328 850.846241 
L 233.181328 850.846241 
L 233.181328 850.846241 
L 233.181328 850.846241 
L 233.181328 850.846241 
L 233.181328 850.846241 
L 233.181328 850.846241 
L 233.181328 850.846241 
L 233.181328 850.846241 
L 233.181328 850.846241 
L 233.181328 850.846241 
L 233.181328 850.846241 
L 233.181328 850.846241 
L 233.181328 850.846241 
L 234.687434 850.437922 
L 250.697371 859.96743 
L 250.697371 859.96743 
L 257.605067 866.399803 
L 265.816527 870.700401 
L 277.514439 874.92197 
L 280.369362 875.497243 
L 289.177573 875.539933 
L 300.953735 877.95722 
L 322.002072 879.011025 
L 339.432752 878.562875 
L 368.059439 880.095987 
L 412.842682 880.814407 
L 481.090909 881.083636 
" clip-path="url(#p9bc66aeaab)" style="fill: none; stroke: #1f77b4; stroke-width: 1.5; stroke-linecap: square"/>
   </g>
   <g id="line2d_51">
    <path d="M 139.859259 775.324436 
L 139.859259 775.324436 
L 139.859259 775.324436 
L 139.859259 775.324436 
L 140.279752 776.130857 
L 140.897844 778.196705 
L 142.329653 781.934751 
L 143.28327 781.900303 
L 153.635922 810.175772 
L 157.395852 818.249406 
L 158.068482 817.806512 
L 165.996979 829.900435 
L 168.771281 830.235795 
L 175.779753 841.674148 
L 177.731249 844.858286 
L 180.648614 848.376226 
L 191.330863 847.696603 
L 194.21424 850.849678 
L 202.658868 860.869797 
L 204.051156 863.863363 
L 217.52391 866.890761 
L 236.573328 869.514594 
L 242.120351 872.234747 
L 262.922084 873.411112 
L 277.019649 875.597232 
L 299.091554 878.365631 
L 324.521075 875.102594 
L 351.194686 879.237952 
L 372.545747 880.170091 
L 416.511716 880.668086 
L 481.090909 881.083636 
" clip-path="url(#p9bc66aeaab)" style="fill: none; stroke: #ff7f0e; stroke-width: 1.5; stroke-linecap: square"/>
   </g>
   <g id="line2d_52">
    <path d="M 128.375546 741.948963 
L 128.553385 742.906988 
L 129.029996 741.534755 
L 129.428358 745.245364 
L 132.075801 743.641281 
L 134.34069 783.205121 
L 135.174167 769.071031 
L 137.774581 775.6132 
L 142.989636 799.596251 
L 144.834824 808.718423 
L 149.642033 816.063998 
L 151.71288 819.769388 
L 153.995949 832.980569 
L 155.792132 833.165722 
L 165.509698 829.972458 
L 168.161883 837.485175 
L 175.375069 857.526691 
L 182.723412 858.269121 
L 189.749273 867.120098 
L 203.115718 867.172723 
L 209.139748 866.391828 
L 224.050634 871.980638 
L 236.037832 874.195917 
L 255.94839 873.055839 
L 273.527269 877.221943 
L 305.44676 877.568822 
L 327.561742 878.590079 
L 347.619709 879.556912 
L 373.714747 880.261521 
L 418.000829 880.725033 
L 481.090909 881.083636 
" clip-path="url(#p9bc66aeaab)" style="fill: none; stroke: #2ca02c; stroke-width: 1.5; stroke-linecap: square"/>
   </g>
   <g id="line2d_53">
    <path d="M 135.084456 560.356364 
L 138.36738 560.719862 
L 142.943793 560.946244 
L 145.718491 562.029304 
L 146.121199 561.905541 
L 146.121199 561.905541 
L 146.121199 561.905541 
L 146.121199 561.905541 
L 146.931358 561.806437 
L 147.747841 562.915818 
L 148.158454 561.658154 
L 149.816712 562.19458 
L 149.816712 563.158598 
L 151.925102 563.267897 
L 154.507337 564.639174 
L 155.380729 564.171048 
L 155.819796 564.819585 
L 156.702672 566.051499 
L 157.591871 566.985808 
L 158.937526 565.678631 
L 163.525795 568.733347 
L 164.933101 568.948126 
L 168.755473 570.378353 
L 171.195831 573.037178 
L 173.67571 580.32405 
L 175.182606 577.219168 
L 180.829615 583.827583 
L 182.930497 583.15034 
L 185.056672 579.587078 
L 187.749958 586.152548 
L 192.697463 600.0518 
L 200.648091 605.783393 
L 200.648091 613.916443 
L 204.150351 610.546704 
L 217.478857 633.02462 
L 218.102878 633.917531 
L 224.430025 642.316492 
L 226.358995 650.58687 
L 226.358995 650.58687 
L 226.358995 650.58687 
L 226.358995 650.58687 
L 226.358995 650.58687 
L 226.358995 650.58687 
L 226.358995 650.58687 
L 226.358995 650.58687 
L 226.358995 650.58687 
L 226.358995 650.58687 
L 226.358995 650.58687 
L 226.358995 650.58687 
L 226.358995 650.58687 
L 226.358995 650.58687 
L 226.358995 650.58687 
L 226.358995 650.58687 
L 226.358995 650.58687 
L 228.302192 652.350599 
L 230.259617 649.649792 
L 232.231268 655.304207 
L 237.55856 671.18544 
L 237.55856 666.525282 
L 239.582378 686.783989 
L 239.582378 664.067809 
L 241.620423 674.978819 
L 245.048781 678.147301 
L 247.819921 695.695481 
L 247.819921 686.981494 
L 248.516659 690.054271 
L 252.024056 694.56922 
L 257.718094 710.85489 
L 259.157411 713.510807 
L 259.879441 694.857394 
L 261.328243 710.691533 
L 267.926103 719.276864 
L 271.646908 734.915607 
L 286.146391 762.094139 
L 288.48795 769.278039 
L 298.799106 782.181854 
L 302.025516 781.747382 
L 308.554216 785.397509 
L 311.028561 791.837116 
L 316.857362 806.282672 
L 334.80852 822.729175 
L 340.065466 834.832816 
L 342.715281 833.797043 
L 345.379322 832.465575 
L 355.269195 843.594366 
L 362.581971 841.030927 
L 384.169756 856.411855 
L 399.680555 860.470743 
L 400.663417 862.479188 
L 421.668678 866.562377 
L 481.090909 872.798231 
L 481.090909 872.798232 
L 481.090909 872.79823 
" clip-path="url(#p9bc66aeaab)" style="fill: none; stroke: #ffc0cb; stroke-width: 1.5; stroke-linecap: square"/>
   </g>
   <g id="line2d_54">
    <path d="M 136.760331 725.207914 
L 140.347107 725.316097 
L 143.933884 725.704487 
L 147.520661 726.123619 
L 151.107438 726.571681 
L 154.694215 727.723424 
L 158.280992 727.979476 
L 161.867769 729.392301 
L 165.454545 730.705995 
L 169.041322 732.146741 
L 172.628099 732.706077 
L 176.214876 734.489267 
L 179.801653 736.134585 
L 183.38843 737.533596 
L 186.975207 740.909273 
L 190.561983 743.256097 
L 194.14876 745.13749 
L 197.735537 747.780514 
L 201.322314 749.159741 
L 204.909091 751.771364 
L 208.495868 754.91607 
L 212.082645 758.420821 
L 215.669421 762.130355 
L 219.256198 766.026497 
L 222.842975 770.804472 
L 226.429752 770.711682 
L 230.016529 772.427389 
L 233.603306 776.393943 
L 237.190083 780.385114 
L 240.77686 784.291423 
L 244.363636 785.779964 
L 247.950413 788.4682 
L 251.53719 792.812171 
L 255.123967 798.574872 
L 258.710744 803.240294 
L 262.297521 803.559652 
L 265.884298 809.864382 
L 269.471074 811.367543 
L 273.057851 813.979374 
L 276.644628 817.177938 
L 280.231405 821.378509 
L 283.818182 824.581406 
L 287.404959 828.306638 
L 290.991736 830.972986 
L 294.578512 833.342888 
L 298.165289 834.981068 
L 301.752066 837.373761 
L 305.338843 841.486204 
L 308.92562 844.071452 
L 312.512397 846.054369 
L 316.099174 849.352128 
L 319.68595 850.986527 
L 323.272727 852.445386 
L 326.859504 853.967547 
L 330.446281 855.489708 
L 334.033058 856.947145 
L 337.619835 860.224623 
L 341.206612 861.209018 
L 344.793388 862.192926 
L 348.380165 863.276712 
L 351.966942 864.887413 
L 355.553719 866.486981 
L 359.140496 867.539834 
L 362.727273 868.433627 
L 366.31405 869.33238 
L 369.900826 870.283314 
L 373.487603 871.234249 
L 377.07438 872.185183 
L 380.661157 873.136117 
L 384.247934 874.007914 
L 387.834711 874.632884 
L 391.421488 875.128305 
L 395.008264 875.623726 
L 398.595041 875.995698 
L 402.181818 876.194801 
L 405.768595 876.689855 
L 409.355372 877.140975 
L 412.942149 877.592094 
L 416.528926 878.043214 
L 420.115702 878.464457 
L 423.702479 878.709737 
L 427.289256 878.858315 
L 430.876033 879.00667 
L 434.46281 879.155025 
L 438.049587 879.303379 
L 441.636364 879.451734 
L 445.22314 879.600089 
L 448.809917 879.748444 
L 452.396694 879.896798 
L 455.983471 880.045153 
L 459.570248 880.193508 
L 463.157025 880.341863 
L 466.743802 880.490217 
L 470.330579 880.638572 
L 473.917355 880.786927 
L 477.504132 880.935282 
L 481.090909 881.083636 
" clip-path="url(#p9bc66aeaab)" style="fill: none; stroke: #0000ff; stroke-width: 1.5; stroke-linecap: square"/>
   </g>
   <g id="patch_14">
    <path d="M 126 897.12 
L 126 544.32 
" style="fill: none; stroke: #000000; stroke-width: 0.8; stroke-linejoin: miter; stroke-linecap: square"/>
   </g>
   <g id="patch_15">
    <path d="M 481.090909 897.12 
L 481.090909 544.32 
" style="fill: none; stroke: #000000; stroke-width: 0.8; stroke-linejoin: miter; stroke-linecap: square"/>
   </g>
   <g id="patch_16">
    <path d="M 126 897.12 
L 481.090909 897.12 
" style="fill: none; stroke: #000000; stroke-width: 0.8; stroke-linejoin: miter; stroke-linecap: square"/>
   </g>
   <g id="patch_17">
    <path d="M 126 544.32 
L 481.090909 544.32 
" style="fill: none; stroke: #000000; stroke-width: 0.8; stroke-linejoin: miter; stroke-linecap: square"/>
   </g>
  </g>
  <g id="axes_4">
   <g id="patch_18">
    <path d="M 552.109091 897.12 
L 907.2 897.12 
L 907.2 544.32 
L 552.109091 544.32 
z
" style="fill: #ffffff"/>
   </g>
   <g id="matplotlib.axis_7">
    <g id="xtick_19">
     <g id="line2d_55">
      <g>
       <use xlink:href="#m5062843019" x="552.109091" y="897.12" style="stroke: #000000; stroke-width: 0.8"/>
      </g>
     </g>
     <g id="text_43">
      <!-- 0.0 -->
      <g transform="translate(544.157528 911.718438) scale(0.1 -0.1)">
       <use xlink:href="#DejaVuSans-30"/>
       <use xlink:href="#DejaVuSans-2e" x="63.623047"/>
       <use xlink:href="#DejaVuSans-30" x="95.410156"/>
      </g>
     </g>
    </g>
    <g id="xtick_20">
     <g id="line2d_56">
      <g>
       <use xlink:href="#m5062843019" x="623.127273" y="897.12" style="stroke: #000000; stroke-width: 0.8"/>
      </g>
     </g>
     <g id="text_44">
      <!-- 0.2 -->
      <g transform="translate(615.17571 911.718438) scale(0.1 -0.1)">
       <use xlink:href="#DejaVuSans-30"/>
       <use xlink:href="#DejaVuSans-2e" x="63.623047"/>
       <use xlink:href="#DejaVuSans-32" x="95.410156"/>
      </g>
     </g>
    </g>
    <g id="xtick_21">
     <g id="line2d_57">
      <g>
       <use xlink:href="#m5062843019" x="694.145455" y="897.12" style="stroke: #000000; stroke-width: 0.8"/>
      </g>
     </g>
     <g id="text_45">
      <!-- 0.4 -->
      <g transform="translate(686.193892 911.718438) scale(0.1 -0.1)">
       <use xlink:href="#DejaVuSans-30"/>
       <use xlink:href="#DejaVuSans-2e" x="63.623047"/>
       <use xlink:href="#DejaVuSans-34" x="95.410156"/>
      </g>
     </g>
    </g>
    <g id="xtick_22">
     <g id="line2d_58">
      <g>
       <use xlink:href="#m5062843019" x="765.163636" y="897.12" style="stroke: #000000; stroke-width: 0.8"/>
      </g>
     </g>
     <g id="text_46">
      <!-- 0.6 -->
      <g transform="translate(757.212074 911.718438) scale(0.1 -0.1)">
       <use xlink:href="#DejaVuSans-30"/>
       <use xlink:href="#DejaVuSans-2e" x="63.623047"/>
       <use xlink:href="#DejaVuSans-36" x="95.410156"/>
      </g>
     </g>
    </g>
    <g id="xtick_23">
     <g id="line2d_59">
      <g>
       <use xlink:href="#m5062843019" x="836.181818" y="897.12" style="stroke: #000000; stroke-width: 0.8"/>
      </g>
     </g>
     <g id="text_47">
      <!-- 0.8 -->
      <g transform="translate(828.230256 911.718438) scale(0.1 -0.1)">
       <use xlink:href="#DejaVuSans-30"/>
       <use xlink:href="#DejaVuSans-2e" x="63.623047"/>
       <use xlink:href="#DejaVuSans-38" x="95.410156"/>
      </g>
     </g>
    </g>
    <g id="xtick_24">
     <g id="line2d_60">
      <g>
       <use xlink:href="#m5062843019" x="907.2" y="897.12" style="stroke: #000000; stroke-width: 0.8"/>
      </g>
     </g>
     <g id="text_48">
      <!-- 1.0 -->
      <g transform="translate(899.248437 911.718438) scale(0.1 -0.1)">
       <use xlink:href="#DejaVuSans-31"/>
       <use xlink:href="#DejaVuSans-2e" x="63.623047"/>
       <use xlink:href="#DejaVuSans-30" x="95.410156"/>
      </g>
     </g>
    </g>
    <g id="text_49">
     <!-- Compressed Size (Nodes) -->
     <g transform="translate(665.580327 925.396563) scale(0.1 -0.1)">
      <defs>
       <path id="DejaVuSans-28" d="M 1984 4856 
Q 1566 4138 1362 3434 
Q 1159 2731 1159 2009 
Q 1159 1288 1364 580 
Q 1569 -128 1984 -844 
L 1484 -844 
Q 1016 -109 783 600 
Q 550 1309 550 2009 
Q 550 2706 781 3412 
Q 1013 4119 1484 4856 
L 1984 4856 
z
" transform="scale(0.015625)"/>
       <path id="DejaVuSans-4e" d="M 628 4666 
L 1478 4666 
L 3547 763 
L 3547 4666 
L 4159 4666 
L 4159 0 
L 3309 0 
L 1241 3903 
L 1241 0 
L 628 0 
L 628 4666 
z
" transform="scale(0.015625)"/>
       <path id="DejaVuSans-29" d="M 513 4856 
L 1013 4856 
Q 1481 4119 1714 3412 
Q 1947 2706 1947 2009 
Q 1947 1309 1714 600 
Q 1481 -109 1013 -844 
L 513 -844 
Q 928 -128 1133 580 
Q 1338 1288 1338 2009 
Q 1338 2731 1133 3434 
Q 928 4138 513 4856 
z
" transform="scale(0.015625)"/>
      </defs>
      <use xlink:href="#DejaVuSans-43"/>
      <use xlink:href="#DejaVuSans-6f" x="69.824219"/>
      <use xlink:href="#DejaVuSans-6d" x="131.005859"/>
      <use xlink:href="#DejaVuSans-70" x="228.417969"/>
      <use xlink:href="#DejaVuSans-72" x="291.894531"/>
      <use xlink:href="#DejaVuSans-65" x="330.757812"/>
      <use xlink:href="#DejaVuSans-73" x="392.28125"/>
      <use xlink:href="#DejaVuSans-73" x="444.380859"/>
      <use xlink:href="#DejaVuSans-65" x="496.480469"/>
      <use xlink:href="#DejaVuSans-64" x="558.003906"/>
      <use xlink:href="#DejaVuSans-20" x="621.480469"/>
      <use xlink:href="#DejaVuSans-53" x="653.267578"/>
      <use xlink:href="#DejaVuSans-69" x="716.744141"/>
      <use xlink:href="#DejaVuSans-7a" x="744.527344"/>
      <use xlink:href="#DejaVuSans-65" x="797.017578"/>
      <use xlink:href="#DejaVuSans-20" x="858.541016"/>
      <use xlink:href="#DejaVuSans-28" x="890.328125"/>
      <use xlink:href="#DejaVuSans-4e" x="929.341797"/>
      <use xlink:href="#DejaVuSans-6f" x="1004.146484"/>
      <use xlink:href="#DejaVuSans-64" x="1065.328125"/>
      <use xlink:href="#DejaVuSans-65" x="1128.804688"/>
      <use xlink:href="#DejaVuSans-73" x="1190.328125"/>
      <use xlink:href="#DejaVuSans-29" x="1242.427734"/>
     </g>
    </g>
   </g>
   <g id="matplotlib.axis_8">
    <g id="ytick_17">
     <g id="line2d_61">
      <g>
       <use xlink:href="#m6f941e0d6a" x="552.109091" y="888.330634" style="stroke: #000000; stroke-width: 0.8"/>
      </g>
     </g>
     <g id="text_50">
      <!-- 0 -->
      <g transform="translate(538.746591 892.129852) scale(0.1 -0.1)">
       <use xlink:href="#DejaVuSans-30"/>
      </g>
     </g>
    </g>
    <g id="ytick_18">
     <g id="line2d_62">
      <g>
       <use xlink:href="#m6f941e0d6a" x="552.109091" y="817.437504" style="stroke: #000000; stroke-width: 0.8"/>
      </g>
     </g>
     <g id="text_51">
      <!-- 1 -->
      <g transform="translate(538.746591 821.236723) scale(0.1 -0.1)">
       <use xlink:href="#DejaVuSans-31"/>
      </g>
     </g>
    </g>
    <g id="ytick_19">
     <g id="line2d_63">
      <g>
       <use xlink:href="#m6f941e0d6a" x="552.109091" y="746.544374" style="stroke: #000000; stroke-width: 0.8"/>
      </g>
     </g>
     <g id="text_52">
      <!-- 2 -->
      <g transform="translate(538.746591 750.343593) scale(0.1 -0.1)">
       <use xlink:href="#DejaVuSans-32"/>
      </g>
     </g>
    </g>
    <g id="ytick_20">
     <g id="line2d_64">
      <g>
       <use xlink:href="#m6f941e0d6a" x="552.109091" y="675.651245" style="stroke: #000000; stroke-width: 0.8"/>
      </g>
     </g>
     <g id="text_53">
      <!-- 3 -->
      <g transform="translate(538.746591 679.450463) scale(0.1 -0.1)">
       <use xlink:href="#DejaVuSans-33"/>
      </g>
     </g>
    </g>
    <g id="ytick_21">
     <g id="line2d_65">
      <g>
       <use xlink:href="#m6f941e0d6a" x="552.109091" y="604.758115" style="stroke: #000000; stroke-width: 0.8"/>
      </g>
     </g>
     <g id="text_54">
      <!-- 4 -->
      <g transform="translate(538.746591 608.557334) scale(0.1 -0.1)">
       <use xlink:href="#DejaVuSans-34"/>
      </g>
     </g>
    </g>
   </g>
   <g id="line2d_66">
    <path d="M 571.520727 560.356364 
L 577.438909 560.719862 
L 585.961091 560.946244 
L 591.405818 562.029304 
L 592.116 561.905541 
L 592.116 561.905541 
L 592.116 561.905541 
L 592.116 561.905541 
L 593.299636 561.806437 
L 594.72 562.915818 
L 595.430182 561.658154 
L 598.034182 562.19458 
L 598.034182 563.158598 
L 602.058545 563.267897 
L 606.082909 564.639174 
L 607.266545 564.171048 
L 608.213455 564.819585 
L 609.870545 566.051499 
L 610.817455 566.985808 
L 613.184727 565.678631 
L 620.049818 568.733347 
L 622.417091 568.948126 
L 627.861818 570.378353 
L 631.886182 573.037178 
L 634.963636 580.32405 
L 637.567636 577.219168 
L 645.379636 583.827583 
L 648.220364 583.15034 
L 650.824364 579.587078 
L 654.375273 586.152548 
L 661.003636 600.0518 
L 670.709455 605.783393 
L 670.946182 613.916443 
L 675.207273 610.546704 
L 690.357818 633.02462 
L 691.304727 633.917531 
L 698.169818 642.316492 
L 700.300364 650.58687 
L 700.300364 650.58687 
L 700.300364 650.58687 
L 700.300364 650.58687 
L 700.300364 650.58687 
L 700.300364 650.58687 
L 700.300364 650.58687 
L 700.300364 650.58687 
L 700.300364 650.58687 
L 700.300364 650.58687 
L 700.300364 650.58687 
L 700.300364 650.58687 
L 700.300364 650.58687 
L 700.300364 650.58687 
L 700.300364 650.58687 
L 700.300364 650.58687 
L 700.300364 650.58687 
L 702.430909 652.350599 
L 704.798182 649.649792 
L 706.692 655.304207 
L 712.610182 666.525282 
L 712.610182 671.18544 
L 714.740727 686.783989 
L 714.977455 664.067809 
L 717.108 674.978819 
L 720.658909 678.147301 
L 723.262909 695.695481 
L 723.262909 686.981494 
L 723.736364 690.054271 
L 727.760727 694.56922 
L 733.442182 710.85489 
L 734.389091 713.510807 
L 735.336 694.857394 
L 736.519636 710.691533 
L 742.911273 719.276864 
L 746.935636 734.915607 
L 760.192364 762.094139 
L 762.559636 769.278039 
L 771.792 782.181854 
L 774.159273 781.747382 
L 780.314182 785.397509 
L 781.971273 791.837116 
L 787.416 806.282672 
L 802.093091 822.729175 
L 806.354182 834.832816 
L 808.484727 833.797043 
L 810.615273 832.465575 
L 818.427273 843.594366 
L 824.108727 841.030927 
L 840.442909 856.411855 
L 851.569091 860.470743 
L 852.752727 862.479188 
L 867.193091 866.562377 
L 907.2 872.798232 
L 907.2 872.798231 
L 907.2 872.79823 
" clip-path="url(#pbd1a6d6c9a)" style="fill: none; stroke: #ffc0cb; stroke-width: 1.5; stroke-linecap: square"/>
   </g>
   <g id="line2d_67">
    <path d="M 573.629752 725.191629 
L 577.216529 725.242938 
L 580.803306 725.361661 
L 584.390083 725.484841 
L 587.97686 725.687185 
L 591.563636 725.933024 
L 595.150413 726.139272 
L 598.73719 726.542837 
L 602.323967 726.755114 
L 605.910744 727.352464 
L 609.497521 727.807191 
L 613.084298 728.254454 
L 616.671074 728.99803 
L 620.257851 729.7596 
L 623.844628 730.607318 
L 627.431405 731.230505 
L 631.018182 732.049461 
L 634.604959 733.995335 
L 638.191736 734.783628 
L 641.778512 735.535024 
L 645.365289 736.28642 
L 648.952066 738.04028 
L 652.538843 739.950038 
L 656.12562 741.840109 
L 659.712397 743.485499 
L 663.299174 745.253407 
L 666.88595 747.090229 
L 670.472727 748.927052 
L 674.059504 751.57186 
L 677.646281 754.128912 
L 681.233058 756.341446 
L 684.819835 758.55398 
L 688.406612 760.766514 
L 691.993388 763.627166 
L 695.580165 766.205818 
L 699.166942 769.362945 
L 702.753719 772.84942 
L 706.340496 775.074745 
L 709.927273 778.26538 
L 713.51405 781.6719 
L 717.100826 784.360826 
L 720.687603 787.107376 
L 724.27438 790.766299 
L 727.861157 794.605676 
L 731.447934 798.44323 
L 735.034711 802.506576 
L 738.621488 805.08988 
L 742.208264 809.26021 
L 745.795041 812.628089 
L 749.381818 816.018358 
L 752.968595 819.510279 
L 756.555372 823.002201 
L 760.142149 826.494123 
L 763.728926 830.235342 
L 767.315702 832.935087 
L 770.902479 835.634831 
L 774.489256 837.901899 
L 778.076033 840.772908 
L 781.66281 845.121733 
L 785.249587 848.381621 
L 788.836364 850.816843 
L 792.42314 852.502493 
L 796.009917 854.188143 
L 799.596694 855.873793 
L 803.183471 857.779294 
L 806.770248 860.324401 
L 810.357025 862.097264 
L 813.943802 863.834706 
L 817.530579 865.698041 
L 821.117355 867.255684 
L 824.704132 868.675735 
L 828.290909 869.916452 
L 831.877686 871.157168 
L 835.464463 872.397884 
L 839.05124 873.6386 
L 842.638017 874.489844 
L 846.224793 875.094168 
L 849.81157 875.698492 
L 853.398347 876.395296 
L 856.985124 876.967261 
L 860.571901 877.539226 
L 864.158678 878.111191 
L 867.745455 878.629432 
L 871.332231 878.852542 
L 874.919008 879.075651 
L 878.505785 879.298761 
L 882.092562 879.52187 
L 885.679339 879.74498 
L 889.266116 879.968089 
L 892.852893 880.191199 
L 896.439669 880.414308 
L 900.026446 880.637417 
L 903.613223 880.860527 
L 907.2 881.083636 
" clip-path="url(#pbd1a6d6c9a)" style="fill: none; stroke: #0000ff; stroke-width: 1.5; stroke-linecap: square"/>
   </g>
   <g id="line2d_68">
    <path d="M 700.300364 850.846241 
L 700.300364 850.846241 
L 700.300364 850.846241 
L 700.300364 850.846241 
L 700.300364 850.846241 
L 700.300364 850.846241 
L 700.300364 850.846241 
L 700.300364 850.846241 
L 700.300364 850.846241 
L 700.300364 850.846241 
L 700.300364 850.846241 
L 700.300364 850.846241 
L 700.300364 850.846241 
L 700.300364 850.846241 
L 700.300364 850.846241 
L 700.300364 850.846241 
L 700.300364 850.846241 
L 702.430909 850.437922 
L 712.610182 859.96743 
L 712.610182 859.96743 
L 717.108 866.399803 
L 723.736364 870.700401 
L 727.760727 874.92197 
L 734.389091 875.497243 
L 742.911273 875.539933 
L 762.559636 877.95722 
L 771.792 879.011025 
L 781.971273 878.562875 
L 808.484727 880.095987 
L 852.752727 880.814407 
L 907.2 881.083636 
" clip-path="url(#pbd1a6d6c9a)" style="fill: none; stroke: #1f77b4; stroke-width: 1.5; stroke-linecap: square"/>
   </g>
   <g id="line2d_69">
    <path d="M 592.116 775.324436 
L 592.116 775.324436 
L 592.116 775.324436 
L 592.116 775.324436 
L 595.430182 776.130857 
L 598.034182 778.196705 
L 606.082909 781.934751 
L 607.266545 810.175772 
L 610.817455 781.900303 
L 620.049818 818.249406 
L 622.417091 817.806512 
L 627.861818 841.674148 
L 631.886182 829.900435 
L 634.963636 830.235795 
L 637.567636 844.858286 
L 648.220364 847.696603 
L 661.003636 848.376226 
L 670.946182 850.849678 
L 690.357818 863.863363 
L 691.304727 860.869797 
L 714.740727 866.890761 
L 723.262909 869.514594 
L 723.262909 872.234747 
L 746.935636 873.411112 
L 760.192364 875.597232 
L 780.314182 875.102594 
L 787.416 878.365631 
L 810.615273 879.237952 
L 824.108727 880.170091 
L 851.569091 880.668086 
L 907.2 881.083636 
" clip-path="url(#pbd1a6d6c9a)" style="fill: none; stroke: #ff7f0e; stroke-width: 1.5; stroke-linecap: square"/>
   </g>
   <g id="line2d_70">
    <path d="M 571.520727 741.948963 
L 577.438909 742.906988 
L 585.961091 783.205121 
L 591.405818 816.063998 
L 593.299636 741.534755 
L 594.72 745.245364 
L 598.034182 799.596251 
L 602.058545 819.769388 
L 608.213455 808.718423 
L 609.870545 769.071031 
L 613.184727 832.980569 
L 645.379636 829.972458 
L 650.824364 833.165722 
L 654.375273 775.6132 
L 670.709455 837.485175 
L 675.207273 743.641281 
L 698.169818 858.269121 
L 704.798182 857.526691 
L 706.692 867.120098 
L 714.977455 867.172723 
L 720.658909 866.391828 
L 733.442182 874.195917 
L 735.336 871.980638 
L 736.519636 873.055839 
L 774.159273 877.221943 
L 802.093091 877.568822 
L 806.354182 878.590079 
L 818.427273 879.556912 
L 840.442909 880.261521 
L 867.193091 880.725033 
L 907.2 881.083636 
" clip-path="url(#pbd1a6d6c9a)" style="fill: none; stroke: #2ca02c; stroke-width: 1.5; stroke-linecap: square"/>
   </g>
   <g id="patch_19">
    <path d="M 552.109091 897.12 
L 552.109091 544.32 
" style="fill: none; stroke: #000000; stroke-width: 0.8; stroke-linejoin: miter; stroke-linecap: square"/>
   </g>
   <g id="patch_20">
    <path d="M 907.2 897.12 
L 907.2 544.32 
" style="fill: none; stroke: #000000; stroke-width: 0.8; stroke-linejoin: miter; stroke-linecap: square"/>
   </g>
   <g id="patch_21">
    <path d="M 552.109091 897.12 
L 907.2 897.12 
" style="fill: none; stroke: #000000; stroke-width: 0.8; stroke-linejoin: miter; stroke-linecap: square"/>
   </g>
   <g id="patch_22">
    <path d="M 552.109091 544.32 
L 907.2 544.32 
" style="fill: none; stroke: #000000; stroke-width: 0.8; stroke-linejoin: miter; stroke-linecap: square"/>
   </g>
  </g>
 </g>
 <defs>
  <clipPath id="p648ba4615c">
   <rect x="126" y="120.96" width="355.090909" height="352.8"/>
  </clipPath>
  <clipPath id="pa876158c94">
   <rect x="552.109091" y="120.96" width="355.090909" height="352.8"/>
  </clipPath>
  <clipPath id="p9bc66aeaab">
   <rect x="126" y="544.32" width="355.090909" height="352.8"/>
  </clipPath>
  <clipPath id="pbd1a6d6c9a">
   <rect x="552.109091" y="544.32" width="355.090909" height="352.8"/>
  </clipPath>
 </defs>
</svg>
