<?xml version="1.0" encoding="utf-8" standalone="no"?>
<!DOCTYPE svg PUBLIC "-//W3C//DTD SVG 1.1//EN"
  "http://www.w3.org/Graphics/SVG/1.1/DTD/svg11.dtd">
<svg xmlns:xlink="http://www.w3.org/1999/xlink" width="1008pt" height="1008pt" viewBox="0 0 1008 1008" xmlns="http://www.w3.org/2000/svg" version="1.1">
 <metadata>
  <rdf:RDF xmlns:dc="http://purl.org/dc/elements/1.1/" xmlns:cc="http://creativecommons.org/ns#" xmlns:rdf="http://www.w3.org/1999/02/22-rdf-syntax-ns#">
   <cc:Work>
    <dc:type rdf:resource="http://purl.org/dc/dcmitype/StillImage"/>
    <dc:date>2026-06-09T10:30:28.023096</dc:date>
    <dc:format>image/svg+xml</dc:format>
    <dc:creator>
     <cc:Agent>
      <dc:title>Matplotlib v3.7.5, https://matplotlib.org/</dc:title>
     </cc:Agent>
    </dc:creator>
   </cc:Work>
  </rdf:RDF>
 </metadata>
 <defs>
  <style type="text/css">*{stroke-linejoin: round; stroke-linecap: butt}</style>
 </defs>
 <g id="figure_1">
  <g id="patch_1">
   <path d="M 0 1008 
L 1008 1008 
L 1008 0 
L 0 0 
z
" style="fill: #ffffff"/>
  </g>
  <g id="axes_1">
   <g id="patch_2">
    <path d="M 126 897.12 
L 907.2 897.12 
L 907.2 120.96 
L 126 120.96 
z
" style="fill: #ffffff"/>
   </g>
   <g id="matplotlib.axis_1">
    <g id="xtick_1">
     <g id="line2d_1">
      <defs>
       <path id="m984dd3b4a1" d="M 0 0 
L 0 3.5 
" style="stroke: #000000; stroke-width: 0.8"/>
      </defs>
      <g>
       <use xlink:href="#m984dd3b4a1" x="126" y="897.12" style="stroke: #000000; stroke-width: 0.8"/>
      </g>
     </g>
     <g id="text_1">
      <!-- 0.0 -->
      <g transform="translate(118.048438 911.718438) scale(0.1 -0.1)">
       <defs>
        <path id="DejaVuSans-30" d="M 2034 4250 
Q 1547 4250 1301 3770 
Q 1056 3291 1056 2328 
Q 1056 1369 1301 889 
Q 1547 409 2034 409 
Q 2525 409 2770 889 
Q 3016 1369 3016 2328 
Q 3016 3291 2770 3770 
Q 2525 4250 2034 4250 
z
M 2034 4750 
Q 2819 4750 3233 4129 
Q 3647 3509 3647 2328 
Q 3647 1150 3233 529 
Q 2819 -91 2034 -91 
Q 1250 -91 836 529 
Q 422 1150 422 2328 
Q 422 3509 836 4129 
Q 1250 4750 2034 4750 
z
" transform="scale(0.015625)"/>
        <path id="DejaVuSans-2e" d="M 684 794 
L 1344 794 
L 1344 0 
L 684 0 
L 684 794 
z
" transform="scale(0.015625)"/>
       </defs>
       <use xlink:href="#DejaVuSans-30"/>
       <use xlink:href="#DejaVuSans-2e" x="63.623047"/>
       <use xlink:href="#DejaVuSans-30" x="95.410156"/>
      </g>
     </g>
    </g>
    <g id="xtick_2">
     <g id="line2d_2">
      <g>
       <use xlink:href="#m984dd3b4a1" x="282.24" y="897.12" style="stroke: #000000; stroke-width: 0.8"/>
      </g>
     </g>
     <g id="text_2">
      <!-- 0.2 -->
      <g transform="translate(274.288437 911.718438) scale(0.1 -0.1)">
       <defs>
        <path id="DejaVuSans-32" d="M 1228 531 
L 3431 531 
L 3431 0 
L 469 0 
L 469 531 
Q 828 903 1448 1529 
Q 2069 2156 2228 2338 
Q 2531 2678 2651 2914 
Q 2772 3150 2772 3378 
Q 2772 3750 2511 3984 
Q 2250 4219 1831 4219 
Q 1534 4219 1204 4116 
Q 875 4013 500 3803 
L 500 4441 
Q 881 4594 1212 4672 
Q 1544 4750 1819 4750 
Q 2544 4750 2975 4387 
Q 3406 4025 3406 3419 
Q 3406 3131 3298 2873 
Q 3191 2616 2906 2266 
Q 2828 2175 2409 1742 
Q 1991 1309 1228 531 
z
" transform="scale(0.015625)"/>
       </defs>
       <use xlink:href="#DejaVuSans-30"/>
       <use xlink:href="#DejaVuSans-2e" x="63.623047"/>
       <use xlink:href="#DejaVuSans-32" x="95.410156"/>
      </g>
     </g>
    </g>
    <g id="xtick_3">
     <g id="line2d_3">
      <g>
       <use xlink:href="#m984dd3b4a1" x="438.48" y="897.12" style="stroke: #000000; stroke-width: 0.8"/>
      </g>
     </g>
     <g id="text_3">
      <!-- 0.4 -->
      <g transform="translate(430.528437 911.718438) scale(0.1 -0.1)">
       <defs>
        <path id="DejaVuSans-34" d="M 2419 4116 
L 825 1625 
L 2419 1625 
L 2419 4116 
z
M 2253 4666 
L 3047 4666 
L 3047 1625 
L 3713 1625 
L 3713 1100 
L 3047 1100 
L 3047 0 
L 2419 0 
L 2419 1100 
L 313 1100 
L 313 1709 
L 2253 4666 
z
" transform="scale(0.015625)"/>
       </defs>
       <use xlink:href="#DejaVuSans-30"/>
       <use xlink:href="#DejaVuSans-2e" x="63.623047"/>
       <use xlink:href="#DejaVuSans-34" x="95.410156"/>
      </g>
     </g>
    </g>
    <g id="xtick_4">
     <g id="line2d_4">
      <g>
       <use xlink:href="#m984dd3b4a1" x="594.72" y="897.12" style="stroke: #000000; stroke-width: 0.8"/>
      </g>
     </g>
     <g id="text_4">
      <!-- 0.6 -->
      <g transform="translate(586.768438 911.718438) scale(0.1 -0.1)">
       <defs>
        <path id="DejaVuSans-36" d="M 2113 2584 
Q 1688 2584 1439 2293 
Q 1191 2003 1191 1497 
Q 1191 994 1439 701 
Q 1688 409 2113 409 
Q 2538 409 2786 701 
Q 3034 994 3034 1497 
Q 3034 2003 2786 2293 
Q 2538 2584 2113 2584 
z
M 3366 4563 
L 3366 3988 
Q 3128 4100 2886 4159 
Q 2644 4219 2406 4219 
Q 1781 4219 1451 3797 
Q 1122 3375 1075 2522 
Q 1259 2794 1537 2939 
Q 1816 3084 2150 3084 
Q 2853 3084 3261 2657 
Q 3669 2231 3669 1497 
Q 3669 778 3244 343 
Q 2819 -91 2113 -91 
Q 1303 -91 875 529 
Q 447 1150 447 2328 
Q 447 3434 972 4092 
Q 1497 4750 2381 4750 
Q 2619 4750 2861 4703 
Q 3103 4656 3366 4563 
z
" transform="scale(0.015625)"/>
       </defs>
       <use xlink:href="#DejaVuSans-30"/>
       <use xlink:href="#DejaVuSans-2e" x="63.623047"/>
       <use xlink:href="#DejaVuSans-36" x="95.410156"/>
      </g>
     </g>
    </g>
    <g id="xtick_5">
     <g id="line2d_5">
      <g>
       <use xlink:href="#m984dd3b4a1" x="750.96" y="897.12" style="stroke: #000000; stroke-width: 0.8"/>
      </g>
     </g>
     <g id="text_5">
      <!-- 0.8 -->
      <g transform="translate(743.008438 911.718438) scale(0.1 -0.1)">
       <defs>
        <path id="DejaVuSans-38" d="M 2034 2216 
Q 1584 2216 1326 1975 
Q 1069 1734 1069 1313 
Q 1069 891 1326 650 
Q 1584 409 2034 409 
Q 2484 409 2743 651 
Q 3003 894 3003 1313 
Q 3003 1734 2745 1975 
Q 2488 2216 2034 2216 
z
M 1403 2484 
Q 997 2584 770 2862 
Q 544 3141 544 3541 
Q 544 4100 942 4425 
Q 1341 4750 2034 4750 
Q 2731 4750 3128 4425 
Q 3525 4100 3525 3541 
Q 3525 3141 3298 2862 
Q 3072 2584 2669 2484 
Q 3125 2378 3379 2068 
Q 3634 1759 3634 1313 
Q 3634 634 3220 271 
Q 2806 -91 2034 -91 
Q 1263 -91 848 271 
Q 434 634 434 1313 
Q 434 1759 690 2068 
Q 947 2378 1403 2484 
z
M 1172 3481 
Q 1172 3119 1398 2916 
Q 1625 2713 2034 2713 
Q 2441 2713 2670 2916 
Q 2900 3119 2900 3481 
Q 2900 3844 2670 4047 
Q 2441 4250 2034 4250 
Q 1625 4250 1398 4047 
Q 1172 3844 1172 3481 
z
" transform="scale(0.015625)"/>
       </defs>
       <use xlink:href="#DejaVuSans-30"/>
       <use xlink:href="#DejaVuSans-2e" x="63.623047"/>
       <use xlink:href="#DejaVuSans-38" x="95.410156"/>
      </g>
     </g>
    </g>
    <g id="xtick_6">
     <g id="line2d_6">
      <g>
       <use xlink:href="#m984dd3b4a1" x="907.2" y="897.12" style="stroke: #000000; stroke-width: 0.8"/>
      </g>
     </g>
     <g id="text_6">
      <!-- 1.0 -->
      <g transform="translate(899.248438 911.718438) scale(0.1 -0.1)">
       <defs>
        <path id="DejaVuSans-31" d="M 794 531 
L 1825 531 
L 1825 4091 
L 703 3866 
L 703 4441 
L 1819 4666 
L 2450 4666 
L 2450 531 
L 3481 531 
L 3481 0 
L 794 0 
L 794 531 
z
" transform="scale(0.015625)"/>
       </defs>
       <use xlink:href="#DejaVuSans-31"/>
       <use xlink:href="#DejaVuSans-2e" x="63.623047"/>
       <use xlink:href="#DejaVuSans-30" x="95.410156"/>
      </g>
     </g>
    </g>
   </g>
   <g id="matplotlib.axis_2">
    <g id="ytick_1">
     <g id="line2d_7">
      <defs>
       <path id="m90bc08ca51" d="M 0 0 
L -3.5 0 
" style="stroke: #000000; stroke-width: 0.8"/>
      </defs>
      <g>
       <use xlink:href="#m90bc08ca51" x="126" y="897.12" style="stroke: #000000; stroke-width: 0.8"/>
      </g>
     </g>
     <g id="text_7">
      <!-- 0.00 -->
      <g transform="translate(96.734375 900.919219) scale(0.1 -0.1)">
       <use xlink:href="#DejaVuSans-30"/>
       <use xlink:href="#DejaVuSans-2e" x="63.623047"/>
       <use xlink:href="#DejaVuSans-30" x="95.410156"/>
       <use xlink:href="#DejaVuSans-30" x="159.033203"/>
      </g>
     </g>
    </g>
    <g id="ytick_2">
     <g id="line2d_8">
      <g>
       <use xlink:href="#m90bc08ca51" x="126" y="767.76" style="stroke: #000000; stroke-width: 0.8"/>
      </g>
     </g>
     <g id="text_8">
      <!-- 0.05 -->
      <g transform="translate(96.734375 771.559219) scale(0.1 -0.1)">
       <defs>
        <path id="DejaVuSans-35" d="M 691 4666 
L 3169 4666 
L 3169 4134 
L 1269 4134 
L 1269 2991 
Q 1406 3038 1543 3061 
Q 1681 3084 1819 3084 
Q 2600 3084 3056 2656 
Q 3513 2228 3513 1497 
Q 3513 744 3044 326 
Q 2575 -91 1722 -91 
Q 1428 -91 1123 -41 
Q 819 9 494 109 
L 494 744 
Q 775 591 1075 516 
Q 1375 441 1709 441 
Q 2250 441 2565 725 
Q 2881 1009 2881 1497 
Q 2881 1984 2565 2268 
Q 2250 2553 1709 2553 
Q 1456 2553 1204 2497 
Q 953 2441 691 2322 
L 691 4666 
z
" transform="scale(0.015625)"/>
       </defs>
       <use xlink:href="#DejaVuSans-30"/>
       <use xlink:href="#DejaVuSans-2e" x="63.623047"/>
       <use xlink:href="#DejaVuSans-30" x="95.410156"/>
       <use xlink:href="#DejaVuSans-35" x="159.033203"/>
      </g>
     </g>
    </g>
    <g id="ytick_3">
     <g id="line2d_9">
      <g>
       <use xlink:href="#m90bc08ca51" x="126" y="638.4" style="stroke: #000000; stroke-width: 0.8"/>
      </g>
     </g>
     <g id="text_9">
      <!-- 0.10 -->
      <g transform="translate(96.734375 642.199219) scale(0.1 -0.1)">
       <use xlink:href="#DejaVuSans-30"/>
       <use xlink:href="#DejaVuSans-2e" x="63.623047"/>
       <use xlink:href="#DejaVuSans-31" x="95.410156"/>
       <use xlink:href="#DejaVuSans-30" x="159.033203"/>
      </g>
     </g>
    </g>
    <g id="ytick_4">
     <g id="line2d_10">
      <g>
       <use xlink:href="#m90bc08ca51" x="126" y="509.04" style="stroke: #000000; stroke-width: 0.8"/>
      </g>
     </g>
     <g id="text_10">
      <!-- 0.15 -->
      <g transform="translate(96.734375 512.839219) scale(0.1 -0.1)">
       <use xlink:href="#DejaVuSans-30"/>
       <use xlink:href="#DejaVuSans-2e" x="63.623047"/>
       <use xlink:href="#DejaVuSans-31" x="95.410156"/>
       <use xlink:href="#DejaVuSans-35" x="159.033203"/>
      </g>
     </g>
    </g>
    <g id="ytick_5">
     <g id="line2d_11">
      <g>
       <use xlink:href="#m90bc08ca51" x="126" y="379.68" style="stroke: #000000; stroke-width: 0.8"/>
      </g>
     </g>
     <g id="text_11">
      <!-- 0.20 -->
      <g transform="translate(96.734375 383.479219) scale(0.1 -0.1)">
       <use xlink:href="#DejaVuSans-30"/>
       <use xlink:href="#DejaVuSans-2e" x="63.623047"/>
       <use xlink:href="#DejaVuSans-32" x="95.410156"/>
       <use xlink:href="#DejaVuSans-30" x="159.033203"/>
      </g>
     </g>
    </g>
    <g id="ytick_6">
     <g id="line2d_12">
      <g>
       <use xlink:href="#m90bc08ca51" x="126" y="250.32" style="stroke: #000000; stroke-width: 0.8"/>
      </g>
     </g>
     <g id="text_12">
      <!-- 0.25 -->
      <g transform="translate(96.734375 254.119219) scale(0.1 -0.1)">
       <use xlink:href="#DejaVuSans-30"/>
       <use xlink:href="#DejaVuSans-2e" x="63.623047"/>
       <use xlink:href="#DejaVuSans-32" x="95.410156"/>
       <use xlink:href="#DejaVuSans-35" x="159.033203"/>
      </g>
     </g>
    </g>
    <g id="ytick_7">
     <g id="line2d_13">
      <g>
       <use xlink:href="#m90bc08ca51" x="126" y="120.96" style="stroke: #000000; stroke-width: 0.8"/>
      </g>
     </g>
     <g id="text_13">
      <!-- 0.30 -->
      <g transform="translate(96.734375 124.759219) scale(0.1 -0.1)">
       <defs>
        <path id="DejaVuSans-33" d="M 2597 2516 
Q 3050 2419 3304 2112 
Q 3559 1806 3559 1356 
Q 3559 666 3084 287 
Q 2609 -91 1734 -91 
Q 1441 -91 1130 -33 
Q 819 25 488 141 
L 488 750 
Q 750 597 1062 519 
Q 1375 441 1716 441 
Q 2309 441 2620 675 
Q 2931 909 2931 1356 
Q 2931 1769 2642 2001 
Q 2353 2234 1838 2234 
L 1294 2234 
L 1294 2753 
L 1863 2753 
Q 2328 2753 2575 2939 
Q 2822 3125 2822 3475 
Q 2822 3834 2567 4026 
Q 2313 4219 1838 4219 
Q 1578 4219 1281 4162 
Q 984 4106 628 3988 
L 628 4550 
Q 988 4650 1302 4700 
Q 1616 4750 1894 4750 
Q 2613 4750 3031 4423 
Q 3450 4097 3450 3541 
Q 3450 3153 3228 2886 
Q 3006 2619 2597 2516 
z
" transform="scale(0.015625)"/>
       </defs>
       <use xlink:href="#DejaVuSans-30"/>
       <use xlink:href="#DejaVuSans-2e" x="63.623047"/>
       <use xlink:href="#DejaVuSans-33" x="95.410156"/>
       <use xlink:href="#DejaVuSans-30" x="159.033203"/>
      </g>
     </g>
    </g>
   </g>
   <g id="line2d_14">
    <path d="M 906.329691 897.042623 
L 902.36157 896.690936 
L 902.36157 896.690936 
L 901.89555 896.551374 
L 901.89555 896.551374 
L 898.496912 896.376885 
L 898.496912 896.376885 
L 898.496912 896.3576 
L 898.496912 896.3576 
L 896.322444 896.184261 
L 896.322444 896.184261 
L 896.322444 896.164789 
L 896.322444 896.164789 
L 894.587043 895.972421 
L 894.587043 895.972421 
L 893.279406 895.826512 
L 893.279406 895.826512 
L 893.2568 895.67884 
L 893.2568 895.67884 
L 893.032485 895.579805 
L 893.032485 895.579805 
L 890.68239 895.40764 
L 890.68239 895.40764 
L 889.824253 895.306744 
L 889.824253 895.306744 
L 889.575594 895.032472 
L 889.575594 895.032472 
L 887.861059 894.841037 
L 887.861059 894.841037 
L 887.852365 894.699288 
L 887.852365 894.699288 
L 885.042337 894.39014 
L 885.042337 894.39014 
L 884.792808 894.056658 
L 884.792808 894.056658 
L 878.100733 893.873638 
L 878.100733 893.873638 
L 878.100733 893.613853 
L 878.100733 893.613853 
L 875.497631 893.469271 
L 875.497631 893.469271 
L 873.960462 893.211105 
L 873.960462 893.211105 
L 872.270272 893.069062 
L 872.270272 893.069062 
L 872.026829 892.848422 
L 872.026829 892.848422 
L 870.291428 892.691785 
L 870.291428 892.691785 
L 870.239261 892.554286 
L 870.239261 892.554286 
L 869.423727 892.512601 
L 869.423727 892.512601 
L 866.820626 892.05126 
L 866.820626 892.05126 
L 865.38779 891.99947 
L 865.38779 891.99947 
L 865.022625 891.796817 
L 865.022625 891.796817 
L 864.217524 891.755132 
L 864.217524 891.755132 
L 863.673255 891.60005 
L 863.673255 891.60005 
L 862.003931 891.503395 
L 862.003931 891.503395 
L 861.148403 891.322203 
L 861.148403 891.322203 
L 860.924957 891.128227 
L 860.924957 891.128227 
L 858.581818 890.950557 
L 858.581818 890.950557 
L 857.506321 890.575389 
L 857.506321 890.575389 
L 857.194193 890.054512 
L 857.194193 890.054512 
L 855.764834 889.808081 
L 855.764834 889.808081 
L 853.902495 889.713896 
L 853.902495 889.713896 
L 853.792946 888.998132 
L 853.792946 888.998132 
L 853.001756 888.956447 
L 853.001756 888.956447 
L 852.724405 888.786909 
L 852.724405 888.786909 
L 849.02494 888.686568 
L 849.02494 888.686568 
L 845.50371 888.523561 
L 845.50371 888.523561 
L 840.33924 887.450633 
L 840.33924 887.450633 
L 838.1526 887.23868 
L 838.1526 887.23868 
L 836.704984 886.763698 
L 836.704984 886.763698 
L 835.461685 886.604395 
L 835.461685 886.604395 
L 832.477769 886.411656 
L 832.477769 886.411656 
L 830.685855 886.112735 
L 830.685855 886.112735 
L 828.16535 885.836648 
L 828.16535 885.836648 
L 827.123761 885.461481 
L 827.123761 885.461481 
L 826.136948 885.290143 
L 826.136948 885.290143 
L 822.127963 885.000918 
L 822.127963 885.000918 
L 821.898431 884.715135 
L 821.898431 884.715135 
L 820.856842 884.339968 
L 820.856842 884.339968 
L 820.367348 884.318275 
L 820.367348 884.318275 
L 818.820615 883.969207 
L 818.820615 883.969207 
L 815.964507 883.879405 
L 815.964507 883.879405 
L 815.922773 883.387514 
L 815.922773 883.387514 
L 814.801197 883.031684 
L 814.801197 883.031684 
L 810.878286 882.641168 
L 810.878286 882.641168 
L 808.154332 881.594035 
L 808.154332 881.594035 
L 806.609339 881.38587 
L 806.609339 881.38587 
L 805.533842 881.063816 
L 805.533842 881.063816 
L 803.539348 880.905966 
L 803.539348 880.905966 
L 803.462837 880.606755 
L 803.462837 880.606755 
L 802.515148 880.288019 
L 802.515148 880.288019 
L 799.98508 880.100989 
L 799.98508 880.100989 
L 799.569488 879.409621 
L 799.569488 879.409621 
L 798.055794 878.829085 
L 798.055794 878.829085 
L 797.27069 878.297695 
L 797.27069 878.297695 
L 794.839737 877.83924 
L 794.839737 877.83924 
L 793.645128 877.391186 
L 793.645128 877.391186 
L 792.747866 877.386472 
L 792.747866 877.386472 
L 792.624406 877.179963 
L 792.624406 877.179963 
L 792.328796 877.04402 
L 792.328796 877.04402 
L 788.866689 877.013016 
L 788.866689 877.013016 
L 787.849445 876.637849 
L 787.849445 876.637849 
L 785.298509 875.443874 
L 785.298509 875.443874 
L 783.749168 875.416177 
L 783.749168 875.416177 
L 782.744966 875.204954 
L 782.744966 875.204954 
L 782.400668 874.682167 
L 782.400668 874.682167 
L 777.603971 874.080998 
L 777.603971 874.080998 
L 777.261411 873.825311 
L 775.136502 873.418656 
L 775.136502 873.418656 
L 769.909432 873.243 
L 769.909432 873.243 
L 767.971451 871.494376 
L 766.648165 871.336012 
L 766.648165 871.336012 
L 762.450511 870.685231 
L 762.450511 870.685231 
L 755.897546 870.664016 
L 755.897546 870.664016 
L 754.91508 870.288849 
L 754.91508 870.288849 
L 751.070419 868.570842 
L 751.070419 868.570842 
L 743.534118 868.307874 
L 743.534118 868.307874 
L 740.711918 865.92232 
L 740.711918 865.92232 
L 736.715105 865.750105 
L 736.715105 865.750105 
L 735.349215 865.132636 
L 735.349215 865.132636 
L 727.049547 864.131715 
L 727.049547 864.131715 
L 726.097511 863.756547 
L 726.097511 863.756547 
L 722.804074 862.675775 
L 722.804074 862.675775 
L 721.157356 862.441033 
L 721.157356 862.441033 
L 720.630476 861.573946 
L 720.630476 861.573946 
L 719.67844 861.198779 
L 719.67844 861.198779 
L 717.86392 861.062441 
L 717.86392 861.062441 
L 716.217201 860.202039 
L 716.217201 860.202039 
L 714.075772 859.608728 
L 714.075772 859.608728 
L 714.054906 858.958555 
L 714.054906 858.958555 
L 712.291682 858.777932 
L 712.291682 858.777932 
L 711.64482 858.504673 
L 711.64482 858.504673 
L 710.038096 857.64427 
L 710.038096 857.64427 
L 708.293131 857.244345 
L 708.293131 857.244345 
L 706.751615 857.18537 
L 706.751615 857.18537 
L 704.828415 856.767704 
L 704.828415 856.767704 
L 703.560772 855.585614 
L 702.625255 855.374391 
L 702.625255 855.374391 
L 700.199519 854.710815 
L 700.199519 854.710815 
L 699.74915 853.423235 
L 696.156626 853.085007 
L 696.156626 853.085007 
L 695.586274 852.547083 
L 694.539469 852.224607 
L 694.539469 852.224607 
L 693.440497 851.548594 
L 693.440497 851.548594 
L 692.202416 851.050025 
L 692.202416 851.050025 
L 692.077216 850.440988 
L 691.150394 850.229764 
L 691.150394 850.229764 
L 690.134889 850.22728 
L 690.134889 850.22728 
L 689.208066 850.016057 
L 689.208066 850.016057 
L 688.250813 849.62662 
L 688.250813 849.62662 
L 687.938685 849.062387 
L 687.938685 849.062387 
L 687.731758 848.996179 
L 687.731758 848.996179 
L 684.121846 848.981802 
L 684.121846 848.981802 
L 683.203718 848.770579 
L 683.203718 848.770579 
L 683.01418 847.600843 
L 683.01418 847.600843 
L 682.256029 847.164162 
L 681.482228 846.81854 
L 681.482228 846.81854 
L 681.336162 846.124768 
L 681.336162 846.124768 
L 680.631916 845.69069 
L 680.631916 845.69069 
L 676.338624 844.840837 
L 676.338624 844.840837 
L 673.139087 843.206666 
L 673.139087 843.206666 
L 672.43745 842.060705 
L 672.43745 842.060705 
L 668.238927 841.855625 
L 668.238927 841.855625 
L 668.012872 840.619181 
L 668.012872 840.619181 
L 663.676109 840.486971 
L 663.676109 840.486971 
L 658.944619 839.060315 
L 658.944619 839.060315 
L 658.890714 838.747911 
L 658.890714 838.747911 
L 658.231679 838.083232 
L 658.231679 838.083232 
L 658.134302 837.175188 
L 658.134302 837.175188 
L 657.788265 836.60784 
L 657.788265 836.60784 
L 654.162703 836.47283 
L 654.162703 836.47283 
L 649.481641 835.941623 
L 649.481641 835.941623 
L 647.984466 835.885905 
L 647.984466 835.885905 
L 647.115896 834.962655 
L 647.115896 834.962655 
L 644.965773 834.456445 
L 644.965773 834.456445 
L 644.929256 833.354138 
L 644.929256 833.354138 
L 640.194289 832.714961 
L 640.194289 832.714961 
L 640.083001 831.022509 
L 640.083001 831.022509 
L 638.54931 829.925019 
L 635.41585 829.281024 
L 635.41585 829.281024 
L 633.581333 829.018631 
L 633.581333 829.018631 
L 632.882304 827.196363 
L 632.882304 827.196363 
L 632.009387 826.98514 
L 632.009387 826.98514 
L 631.689433 826.580587 
L 631.689433 826.580587 
L 628.481202 826.415793 
L 628.481202 826.415793 
L 623.243699 824.845599 
L 623.243699 824.845599 
L 622.939395 821.967591 
L 619.48772 821.275674 
L 619.48772 821.275674 
L 617.856652 820.371129 
L 617.416716 818.377991 
L 617.416716 818.377991 
L 615.648276 817.606773 
L 615.648276 817.606773 
L 612.447 817.402558 
L 611.682763 816.686468 
L 609.742174 815.802216 
L 609.534378 815.390622 
L 609.534378 815.390622 
L 607.004309 814.373516 
L 605.192398 813.852161 
L 604.917655 813.289749 
L 604.917655 813.289749 
L 604.375125 812.988466 
L 604.286442 812.43248 
L 603.568285 812.117555 
L 601.996338 812.080935 
L 601.627696 811.645111 
L 601.568574 811.208036 
L 601.144288 811.027922 
L 600.242679 810.933821 
L 600.045316 810.29827 
L 596.075456 810.272269 
L 596.075456 810.272269 
L 593.708842 809.041015 
L 593.561037 807.820397 
L 593.561037 807.820397 
L 591.212681 807.412096 
L 591.212681 807.412096 
L 588.932142 807.398286 
L 588.932142 807.398286 
L 587.668846 806.080534 
L 587.452356 806.051297 
L 587.452356 806.051297 
L 586.253399 805.719972 
L 585.81694 805.260891 
L 582.983437 804.156214 
L 582.983437 804.156214 
L 580.314258 802.035311 
L 577.9233 801.598443 
L 574.379465 800.528311 
L 574.379465 800.528311 
L 574.0456 799.249284 
L 569.063713 798.111251 
L 569.063713 798.111251 
L 567.983869 796.070788 
L 567.983869 796.070788 
L 566.924022 795.207025 
L 566.924022 795.207025 
L 564.420037 794.589959 
L 564.299185 793.877354 
L 563.318457 792.979594 
L 561.60827 792.789965 
L 561.60827 792.789965 
L 561.216153 791.777958 
L 561.216153 791.777958 
L 559.039946 791.224566 
L 556.418586 790.136934 
L 556.019513 789.474989 
L 554.502341 789.266168 
L 553.323382 789.022978 
L 552.96865 788.744136 
L 552.96865 788.744136 
L 552.106166 788.319847 
L 552.106166 788.319847 
L 550.381199 787.725118 
L 549.902138 787.327518 
L 548.656231 787.212563 
L 548.162389 786.065809 
L 547.365113 786.03326 
L 547.365113 786.03326 
L 546.566968 784.601533 
L 540.333087 784.563683 
L 539.44539 783.988878 
L 537.669995 783.222401 
L 537.374385 781.680506 
L 533.67579 781.091906 
L 532.788092 780.517101 
L 531.012697 779.750624 
L 530.025014 778.781732 
L 529.137316 778.206927 
L 527.361921 777.44045 
L 525.057037 775.998407 
L 523.281642 775.23193 
L 522.938213 774.608488 
L 522.050516 774.033684 
L 520.27512 773.267206 
L 518.428431 771.403559 
L 517.540733 770.828754 
L 513.918649 770.40227 
L 513.030951 769.827466 
L 511.255556 769.060988 
L 510.870394 766.971047 
L 509.828806 766.740101 
L 509.828806 766.740101 
L 509.646224 766.075753 
L 509.237587 766.044742 
L 509.237587 766.044742 
L 509.07848 765.760163 
L 509.07848 765.760163 
L 507.905606 765.547567 
L 507.432631 765.05299 
L 507.017908 764.972762 
L 504.75128 764.273564 
L 504.445237 763.535844 
L 503.539281 763.378916 
L 503.181072 762.881151 
L 499.616371 762.669691 
L 499.616371 762.669691 
L 499.261639 760.31711 
L 498.366117 759.597774 
L 496.580288 759.537684 
L 496.020369 759.048218 
L 496.020369 759.048218 
L 491.527976 758.437169 
L 491.527976 758.437169 
L 490.122092 756.233872 
L 490.122092 756.233872 
L 488.409297 754.274424 
L 488.403211 754.074446 
L 487.950233 753.882693 
L 487.950233 753.882693 
L 486.432192 753.661672 
L 486.432192 753.661672 
L 485.237582 752.810576 
L 485.237582 752.810576 
L 484.752435 751.764272 
L 481.062534 751.709858 
L 481.062534 751.709858 
L 479.92009 751.538137 
L 479.92009 751.538137 
L 479.427988 749.186187 
L 476.635348 748.002039 
L 476.635348 748.002039 
L 472.992397 746.544333 
L 472.992397 746.544333 
L 470.333651 744.214915 
L 468.64607 743.38481 
L 467.655778 742.325237 
L 467.655778 742.325237 
L 466.160342 741.66959 
L 465.897772 740.48092 
L 465.897772 740.48092 
L 465.511741 739.576642 
L 465.511741 739.576642 
L 462.821695 738.903734 
L 462.633027 738.530107 
L 461.534925 736.099337 
L 461.534925 736.099337 
L 457.908493 735.863691 
L 457.396393 734.705404 
L 452.597088 733.466161 
L 449.171496 731.289872 
L 449.171496 731.289872 
L 448.889798 729.27359 
L 446.545789 728.654836 
L 445.812852 727.360761 
L 445.812852 727.360761 
L 443.833138 727.195304 
L 443.833138 727.195304 
L 443.692289 725.651131 
L 443.516662 725.224898 
L 441.120487 724.154015 
L 440.748367 723.040233 
L 438.43392 722.743532 
L 438.210474 721.628043 
L 436.903706 720.183425 
L 435.074406 719.832073 
L 435.074406 719.832073 
L 432.070493 717.601923 
L 432.070493 717.601923 
L 430.083824 716.745216 
L 429.175259 716.588289 
L 428.175404 715.28192 
L 424.182069 714.882562 
L 422.734452 713.788871 
L 421.112078 713.131863 
L 418.678518 711.719674 
L 416.466664 709.324393 
L 415.997166 708.261352 
L 413.563606 706.849162 
L 412.065561 704.989554 
L 410.884863 704.654121 
L 410.884863 704.654121 
L 410.245825 703.273886 
L 409.704164 703.086867 
L 409.704164 703.086867 
L 409.252925 702.719095 
L 404.052808 700.676286 
L 404.052808 700.676286 
L 402.826898 698.705445 
L 399.922971 697.661334 
L 399.922971 697.661334 
L 397.587656 695.183934 
L 397.587656 695.183934 
L 396.559979 695.173669 
L 395.8766 693.972851 
L 395.58099 693.852768 
L 395.58099 693.852768 
L 394.225534 693.76148 
L 391.588525 692.368549 
L 390.879062 690.396671 
L 387.458687 689.353596 
L 386.460571 687.90616 
L 386.460571 687.90616 
L 384.850369 686.00974 
L 383.797478 685.832875 
L 383.456658 683.469197 
L 381.585624 683.437594 
L 381.434342 682.312049 
L 381.434342 682.312049 
L 380.91007 682.030855 
L 380.106708 681.873928 
L 376.496795 681.519607 
L 376.496795 681.519607 
L 375.030921 680.534284 
L 374.284942 679.124326 
L 374.284942 679.124326 
L 372.785159 679.122095 
L 372.027877 677.320279 
L 371.381883 676.649096 
L 371.381883 676.649096 
L 368.538816 676.54245 
L 365.391446 674.020782 
L 365.140178 673.211869 
L 362.558812 671.29114 
L 360.025266 668.341358 
L 359.16539 665.681672 
L 358.621991 665.443025 
L 356.264071 665.130704 
L 355.89369 663.681862 
L 355.89369 663.681862 
L 353.761824 663.561413 
L 353.761824 663.561413 
L 353.321888 662.586355 
L 353.321888 662.586355 
L 352.560259 661.784243 
L 351.543015 661.420977 
L 351.13177 660.28821 
L 351.13177 660.28821 
L 345.888181 659.79449 
L 343.681544 657.079768 
L 343.193788 656.27351 
L 343.193788 656.27351 
L 341.602714 655.411924 
L 340.861952 654.200379 
L 340.237694 651.980472 
L 338.905713 651.913656 
L 337.186832 650.476677 
L 333.858617 648.922028 
L 333.858617 648.922028 
L 331.513739 645.501811 
L 331.513739 645.501811 
L 330.606045 643.942993 
L 330.606045 643.942993 
L 329.547067 642.37965 
L 329.547067 642.37965 
L 329.34101 640.775439 
L 329.34101 640.775439 
L 323.378395 640.61429 
L 321.033517 637.194073 
L 320.125822 635.635255 
L 319.066845 634.071912 
L 317.100173 629.22796 
L 311.993955 627.658101 
L 311.120169 625.38229 
L 310.421139 624.112033 
L 307.863249 622.365496 
L 307.618936 617.924211 
L 307.618936 617.924211 
L 305.578362 617.74788 
L 305.261886 616.868032 
L 305.261886 616.868032 
L 304.753264 616.163564 
L 303.787317 616.006446 
L 302.624007 611.265899 
L 302.624007 611.265899 
L 302.185809 611.068653 
L 301.149438 610.404313 
L 300.248698 608.813667 
L 299.970478 607.935745 
L 296.843104 607.354172 
L 294.788619 604.902001 
L 293.338394 603.787485 
L 293.338394 603.787485 
L 292.613282 601.847585 
L 288.876431 601.168416 
L 287.097558 598.329831 
L 285.616903 597.963093 
L 285.603861 596.972237 
L 284.557056 595.340032 
L 283.065967 594.90443 
L 282.699933 592.357761 
L 282.699933 592.357761 
L 282.340855 591.095512 
L 279.239565 590.86122 
L 276.546911 588.433932 
L 276.403453 585.925347 
L 275.95917 585.732453 
L 271.870196 585.488812 
L 269.886135 583.274374 
L 267.030027 582.357612 
L 264.820782 578.97133 
L 263.713116 576.813581 
L 261.229997 572.681247 
L 259.245067 571.191033 
L 258.850341 567.812846 
L 255.773395 567.545697 
L 255.125663 563.874934 
L 253.879756 563.476135 
L 252.326937 562.339324 
L 250.934095 560.121583 
L 250.883668 559.485764 
L 249.610809 558.507264 
L 248.157106 556.186315 
L 247.268539 553.254231 
L 247.268539 553.254231 
L 245.020169 551.709903 
L 244.667176 547.604873 
L 244.667176 547.604873 
L 242.418806 546.060546 
L 241.271146 544.311698 
L 240.079144 540.561074 
L 238.897576 538.826776 
L 237.917718 535.974179 
L 233.646162 533.726489 
L 232.728034 531.637213 
L 231.638627 530.423717 
L 230.757884 529.868784 
L 228.835554 526.013707 
L 228.823382 525.689458 
L 227.21318 525.55001 
L 225.952493 522.008727 
L 224.981329 521.127964 
L 223.891052 520.779333 
L 222.860766 518.898327 
L 220.734987 516.78683 
L 219.327365 514.720907 
L 218.910034 511.168626 
L 217.450245 510.899103 
L 217.265054 508.337793 
L 217.265054 508.337793 
L 216.890326 507.767406 
L 216.211294 506.412381 
L 215.685283 505.775599 
L 215.110584 504.453145 
L 214.336782 503.355927 
L 213.977704 500.928398 
L 213.00741 499.829988 
L 212.253606 496.685558 
L 212.253606 496.685558 
L 211.473718 496.428891 
L 211.019871 495.994882 
L 209.072327 492.513702 
L 208.868009 489.982475 
L 207.73339 488.806905 
L 205.785846 484.837815 
L 205.607611 481.917879 
L 204.994656 481.185994 
L 204.812074 480.461808 
L 203.631375 479.176935 
L 203.585295 476.73717 
L 202.608914 475.756887 
L 202.268094 474.86857 
L 201.683831 472.288687 
L 201.357791 468.734359 
L 201.167384 468.657951 
L 201.167384 468.657951 
L 200.807436 468.163002 
L 200.636156 466.765227 
L 200.636156 466.765227 
L 200.604856 464.621664 
L 200.350111 463.646005 
L 199.567615 463.376288 
L 199.567615 463.376288 
L 199.29722 458.80231 
L 198.813811 458.688793 
L 198.813811 458.688793 
L 197.898292 457.442186 
L 197.898292 457.442186 
L 197.089713 452.835911 
L 197.089713 452.835911 
L 194.934373 445.178381 
L 194.934373 445.178381 
L 194.90742 443.819987 
L 194.90742 443.819987 
L 194.003203 437.871331 
L 194.003203 437.871331 
L 193.536314 436.189665 
L 193.536314 436.189665 
L 192.710347 431.07889 
L 192.710347 431.07889 
L 190.76628 428.474259 
L 190.536748 426.402421 
L 190.536748 426.402421 
L 190.45589 424.148337 
L 187.479799 423.080833 
L 185.288812 420.115944 
L 184.694115 415.845524 
L 184.694115 415.845524 
L 183.189116 415.596401 
L 181.637166 412.523936 
L 180.724255 409.152814 
L 178.989723 405.257534 
L 178.076812 401.590634 
L 177.889883 398.946699 
L 176.90133 395.909526 
L 176.516168 395.620355 
L 175.897997 393.961657 
L 173.631368 384.974161 
L 173.354017 382.966902 
L 172.703677 380.453211 
L 172.251568 379.066515 
L 172.251568 379.066515 
L 171.994214 376.989101 
L 171.639483 375.956242 
L 171.556017 374.518612 
L 171.556017 374.518612 
L 171.048264 371.959358 
L 171.016964 370.46043 
L 170.634411 369.120088 
L 170.032759 369.116348 
L 170.032759 369.116348 
L 169.599778 366.982879 
L 169.599778 366.982879 
L 168.769463 358.71541 
L 167.93741 358.041501 
L 167.93741 358.041501 
L 167.878288 357.036337 
L 167.878288 357.036337 
L 167.765261 350.671687 
L 167.765261 350.671687 
L 167.017543 350.192651 
L 167.017543 350.192651 
L 166.66542 349.089747 
L 166.66542 349.089747 
L 166.382852 343.289378 
L 166.000299 341.764332 
L 166.000299 341.764332 
L 165.99856 339.719036 
L 165.99856 339.719036 
L 165.795111 339.462192 
L 165.795111 339.462192 
L 165.763811 338.875137 
L 165.241278 338.171085 
L 165.241278 338.171085 
L 164.623107 336.032368 
L 164.623107 336.032368 
L 163.016383 335.073101 
L 161.436611 329.599062 
L 160.449798 328.491158 
L 159.263882 324.468741 
L 158.89524 321.265282 
L 158.533553 316.707727 
L 158.533553 316.707727 
L 156.838146 315.414848 
L 156.352999 313.609743 
L 156.259969 311.39677 
L 154.914946 309.50537 
L 154.914946 309.50537 
L 154.825394 306.059117 
L 154.574126 304.054212 
L 154.347202 303.440089 
L 154.155926 302.111071 
L 151.920597 298.584347 
L 151.920597 298.584347 
L 150.167807 288.913834 
L 150.167807 288.913834 
L 149.072313 281.397401 
L 149.072313 281.397401 
L 148.788876 271.290211 
L 148.788876 271.290211 
L 147.768154 269.801433 
L 147.768154 269.801433 
L 147.684688 266.316268 
L 147.684688 266.316268 
L 147.010873 264.997115 
L 147.010873 264.997115 
L 146.195339 256.119671 
L 146.195339 256.119671 
L 146.150997 249.559633 
L 146.150997 249.559633 
L 145.91451 247.370037 
L 145.91451 247.370037 
L 145.554562 247.24054 
L 145.554562 247.24054 
L 145.321552 244.725341 
L 145.321552 244.725341 
L 144.855532 232.069281 
L 144.855532 232.069281 
L 144.622523 231.433978 
L 144.622523 231.433978 
L 144.33126 228.1835 
L 144.33126 228.1835 
L 144.199975 223.221966 
L 144.199975 223.221966 
L 144.106076 217.160641 
L 144.106076 217.160641 
L 143.947838 215.783514 
L 143.947838 215.783514 
L 143.647012 203.022593 
L 143.647012 203.022593 
L 143.238375 202.741971 
L 143.238375 202.741971 
L 142.735839 199.23165 
L 142.735839 199.23165 
L 141.64817 197.945112 
L 141.64817 197.945112 
L 141.391686 196.486477 
L 141.391686 196.486477 
L 141.257792 192.435282 
L 141.257792 192.435282 
L 140.835245 189.211047 
L 140.835245 189.211047 
L 140.282281 189.104177 
L 140.282281 189.104177 
L 139.630202 184.467443 
L 139.630202 184.467443 
L 138.799017 182.807996 
L 138.799017 182.807996 
L 138.11216 176.013874 
L 137.726129 172.154181 
L 137.395742 170.507774 
L 137.395742 170.507774 
L 136.707146 169.539881 
L 136.56108 168.214699 
L 136.56108 168.214699 
L 136.001161 167.592104 
L 136.001161 167.592104 
L 135.806407 165.982493 
L 135.806407 165.982493 
L 135.746416 160.986825 
L 135.574267 159.095884 
L 135.516884 155.420632 
L 135.516884 155.420632 
L 134.978701 155.407866 
L 134.978701 155.407866 
L 134.832635 154.451577 
L 134.832635 154.451577 
L 134.199683 147.634584 
L 134.199683 147.634584 
L 134.12665 145.937907 
L 134.12665 145.937907 
L 133.664108 140.692088 
L 133.664108 140.692088 
L 133.356327 127.045736 
L 133.139836 126.188584 
L 132.749458 123.677905 
L 132.410377 120.040391 
L 132.410377 120.040391 
L 132.255617 113.880286 
L 132.255617 113.880286 
L 131.985221 112.997968 
L 131.985221 112.997968 
L 131.867847 110.705698 
L 131.867847 110.705698 
L 131.586148 101.233816 
L 131.586148 101.233816 
L 130.858427 78.788859 
L 130.858427 78.788859 
L 130.858427 72.812821 
L 130.858427 72.812821 
L 130.717578 71.701079 
L 130.717578 71.701079 
L 130.576729 53.334742 
L 130.576729 53.334742 
L 130.490655 48.872421 
L 130.490655 48.872421 
L 130.396755 29.682405 
L 130.396755 29.682405 
L 130.349805 16.092339 
L 130.349805 16.092339 
" clip-path="url(#pb1b4e6fa6d)" style="fill: none; stroke: #1f77b4; stroke-width: 1.5; stroke-linecap: square"/>
   </g>
   <g id="patch_3">
    <path d="M 126 897.12 
L 126 120.96 
" style="fill: none; stroke: #000000; stroke-width: 0.8; stroke-linejoin: miter; stroke-linecap: square"/>
   </g>
   <g id="patch_4">
    <path d="M 907.2 897.12 
L 907.2 120.96 
" style="fill: none; stroke: #000000; stroke-width: 0.8; stroke-linejoin: miter; stroke-linecap: square"/>
   </g>
   <g id="patch_5">
    <path d="M 126 897.12 
L 907.2 897.12 
" style="fill: none; stroke: #000000; stroke-width: 0.8; stroke-linejoin: miter; stroke-linecap: square"/>
   </g>
   <g id="patch_6">
    <path d="M 126 120.96 
L 907.2 120.96 
" style="fill: none; stroke: #000000; stroke-width: 0.8; stroke-linejoin: miter; stroke-linecap: square"/>
   </g>
  </g>
 </g>
 <defs>
  <clipPath id="pb1b4e6fa6d">
   <rect x="126" y="120.96" width="781.2" height="776.16"/>
  </clipPath>
 </defs>
</svg>
