<?xml version="1.0" encoding="utf-8" standalone="no"?>
<!DOCTYPE svg PUBLIC "-//W3C//DTD SVG 1.1//EN"
  "http://www.w3.org/Graphics/SVG/1.1/DTD/svg11.dtd">
<svg xmlns:xlink="http://www.w3.org/1999/xlink" width="460.8pt" height="345.6pt" viewBox="0 0 460.8 345.6" xmlns="http://www.w3.org/2000/svg" version="1.1">
 <metadata>
  <rdf:RDF xmlns:dc="http://purl.org/dc/elements/1.1/" xmlns:cc="http://creativecommons.org/ns#" xmlns:rdf="http://www.w3.org/1999/02/22-rdf-syntax-ns#">
   <cc:Work>
    <dc:type rdf:resource="http://purl.org/dc/dcmitype/StillImage"/>
    <dc:date>2026-06-05T10:27:27.699606</dc:date>
    <dc:format>image/svg+xml</dc:format>
    <dc:creator>
     <cc:Agent>
      <dc:title>Matplotlib v3.7.5, https://matplotlib.org/</dc:title>
     </cc:Agent>
    </dc:creator>
   </cc:Work>
  </rdf:RDF>
 </metadata>
 <defs>
  <style type="text/css">*{stroke-linejoin: round; stroke-linecap: butt}</style>
 </defs>
 <g id="figure_1">
  <g id="patch_1">
   <path d="M 0 345.6 
L 460.8 345.6 
L 460.8 0 
L 0 0 
z
" style="fill: #ffffff"/>
  </g>
  <g id="axes_1">
   <g id="patch_2">
    <path d="M 47.72 303.64 
L 413.08 303.64 
L 413.08 14.76 
L 47.72 14.76 
z
" style="fill: #ffffff"/>
   </g>
   <g id="matplotlib.axis_1">
    <g id="xtick_1">
     <g id="line2d_1">
      <defs>
       <path id="m16090de5b5" d="M 0 0 
L 0 3.5 
" style="stroke: #000000; stroke-width: 0.8"/>
      </defs>
      <g>
       <use xlink:href="#m16090de5b5" x="47.72" y="303.64" style="stroke: #000000; stroke-width: 0.8"/>
      </g>
     </g>
     <g id="text_1">
      <!-- 0 -->
      <g transform="translate(44.53875 318.238437) scale(0.1 -0.1)">
       <defs>
        <path id="DejaVuSans-30" d="M 2034 4250 
Q 1547 4250 1301 3770 
Q 1056 3291 1056 2328 
Q 1056 1369 1301 889 
Q 1547 409 2034 409 
Q 2525 409 2770 889 
Q 3016 1369 3016 2328 
Q 3016 3291 2770 3770 
Q 2525 4250 2034 4250 
z
M 2034 4750 
Q 2819 4750 3233 4129 
Q 3647 3509 3647 2328 
Q 3647 1150 3233 529 
Q 2819 -91 2034 -91 
Q 1250 -91 836 529 
Q 422 1150 422 2328 
Q 422 3509 836 4129 
Q 1250 4750 2034 4750 
z
" transform="scale(0.015625)"/>
       </defs>
       <use xlink:href="#DejaVuSans-30"/>
      </g>
     </g>
    </g>
    <g id="xtick_2">
     <g id="line2d_2">
      <g>
       <use xlink:href="#m16090de5b5" x="108.613333" y="303.64" style="stroke: #000000; stroke-width: 0.8"/>
      </g>
     </g>
     <g id="text_2">
      <!-- 100 -->
      <g transform="translate(99.069583 318.238437) scale(0.1 -0.1)">
       <defs>
        <path id="DejaVuSans-31" d="M 794 531 
L 1825 531 
L 1825 4091 
L 703 3866 
L 703 4441 
L 1819 4666 
L 2450 4666 
L 2450 531 
L 3481 531 
L 3481 0 
L 794 0 
L 794 531 
z
" transform="scale(0.015625)"/>
       </defs>
       <use xlink:href="#DejaVuSans-31"/>
       <use xlink:href="#DejaVuSans-30" x="63.623047"/>
       <use xlink:href="#DejaVuSans-30" x="127.246094"/>
      </g>
     </g>
    </g>
    <g id="xtick_3">
     <g id="line2d_3">
      <g>
       <use xlink:href="#m16090de5b5" x="169.506667" y="303.64" style="stroke: #000000; stroke-width: 0.8"/>
      </g>
     </g>
     <g id="text_3">
      <!-- 200 -->
      <g transform="translate(159.962917 318.238437) scale(0.1 -0.1)">
       <defs>
        <path id="DejaVuSans-32" d="M 1228 531 
L 3431 531 
L 3431 0 
L 469 0 
L 469 531 
Q 828 903 1448 1529 
Q 2069 2156 2228 2338 
Q 2531 2678 2651 2914 
Q 2772 3150 2772 3378 
Q 2772 3750 2511 3984 
Q 2250 4219 1831 4219 
Q 1534 4219 1204 4116 
Q 875 4013 500 3803 
L 500 4441 
Q 881 4594 1212 4672 
Q 1544 4750 1819 4750 
Q 2544 4750 2975 4387 
Q 3406 4025 3406 3419 
Q 3406 3131 3298 2873 
Q 3191 2616 2906 2266 
Q 2828 2175 2409 1742 
Q 1991 1309 1228 531 
z
" transform="scale(0.015625)"/>
       </defs>
       <use xlink:href="#DejaVuSans-32"/>
       <use xlink:href="#DejaVuSans-30" x="63.623047"/>
       <use xlink:href="#DejaVuSans-30" x="127.246094"/>
      </g>
     </g>
    </g>
    <g id="xtick_4">
     <g id="line2d_4">
      <g>
       <use xlink:href="#m16090de5b5" x="230.4" y="303.64" style="stroke: #000000; stroke-width: 0.8"/>
      </g>
     </g>
     <g id="text_4">
      <!-- 300 -->
      <g transform="translate(220.85625 318.238437) scale(0.1 -0.1)">
       <defs>
        <path id="DejaVuSans-33" d="M 2597 2516 
Q 3050 2419 3304 2112 
Q 3559 1806 3559 1356 
Q 3559 666 3084 287 
Q 2609 -91 1734 -91 
Q 1441 -91 1130 -33 
Q 819 25 488 141 
L 488 750 
Q 750 597 1062 519 
Q 1375 441 1716 441 
Q 2309 441 2620 675 
Q 2931 909 2931 1356 
Q 2931 1769 2642 2001 
Q 2353 2234 1838 2234 
L 1294 2234 
L 1294 2753 
L 1863 2753 
Q 2328 2753 2575 2939 
Q 2822 3125 2822 3475 
Q 2822 3834 2567 4026 
Q 2313 4219 1838 4219 
Q 1578 4219 1281 4162 
Q 984 4106 628 3988 
L 628 4550 
Q 988 4650 1302 4700 
Q 1616 4750 1894 4750 
Q 2613 4750 3031 4423 
Q 3450 4097 3450 3541 
Q 3450 3153 3228 2886 
Q 3006 2619 2597 2516 
z
" transform="scale(0.015625)"/>
       </defs>
       <use xlink:href="#DejaVuSans-33"/>
       <use xlink:href="#DejaVuSans-30" x="63.623047"/>
       <use xlink:href="#DejaVuSans-30" x="127.246094"/>
      </g>
     </g>
    </g>
    <g id="xtick_5">
     <g id="line2d_5">
      <g>
       <use xlink:href="#m16090de5b5" x="291.293333" y="303.64" style="stroke: #000000; stroke-width: 0.8"/>
      </g>
     </g>
     <g id="text_5">
      <!-- 400 -->
      <g transform="translate(281.749583 318.238437) scale(0.1 -0.1)">
       <defs>
        <path id="DejaVuSans-34" d="M 2419 4116 
L 825 1625 
L 2419 1625 
L 2419 4116 
z
M 2253 4666 
L 3047 4666 
L 3047 1625 
L 3713 1625 
L 3713 1100 
L 3047 1100 
L 3047 0 
L 2419 0 
L 2419 1100 
L 313 1100 
L 313 1709 
L 2253 4666 
z
" transform="scale(0.015625)"/>
       </defs>
       <use xlink:href="#DejaVuSans-34"/>
       <use xlink:href="#DejaVuSans-30" x="63.623047"/>
       <use xlink:href="#DejaVuSans-30" x="127.246094"/>
      </g>
     </g>
    </g>
    <g id="xtick_6">
     <g id="line2d_6">
      <g>
       <use xlink:href="#m16090de5b5" x="352.186667" y="303.64" style="stroke: #000000; stroke-width: 0.8"/>
      </g>
     </g>
     <g id="text_6">
      <!-- 500 -->
      <g transform="translate(342.642917 318.238437) scale(0.1 -0.1)">
       <defs>
        <path id="DejaVuSans-35" d="M 691 4666 
L 3169 4666 
L 3169 4134 
L 1269 4134 
L 1269 2991 
Q 1406 3038 1543 3061 
Q 1681 3084 1819 3084 
Q 2600 3084 3056 2656 
Q 3513 2228 3513 1497 
Q 3513 744 3044 326 
Q 2575 -91 1722 -91 
Q 1428 -91 1123 -41 
Q 819 9 494 109 
L 494 744 
Q 775 591 1075 516 
Q 1375 441 1709 441 
Q 2250 441 2565 725 
Q 2881 1009 2881 1497 
Q 2881 1984 2565 2268 
Q 2250 2553 1709 2553 
Q 1456 2553 1204 2497 
Q 953 2441 691 2322 
L 691 4666 
z
" transform="scale(0.015625)"/>
       </defs>
       <use xlink:href="#DejaVuSans-35"/>
       <use xlink:href="#DejaVuSans-30" x="63.623047"/>
       <use xlink:href="#DejaVuSans-30" x="127.246094"/>
      </g>
     </g>
    </g>
    <g id="xtick_7">
     <g id="line2d_7">
      <g>
       <use xlink:href="#m16090de5b5" x="413.08" y="303.64" style="stroke: #000000; stroke-width: 0.8"/>
      </g>
     </g>
     <g id="text_7">
      <!-- 600 -->
      <g transform="translate(403.53625 318.238437) scale(0.1 -0.1)">
       <defs>
        <path id="DejaVuSans-36" d="M 2113 2584 
Q 1688 2584 1439 2293 
Q 1191 2003 1191 1497 
Q 1191 994 1439 701 
Q 1688 409 2113 409 
Q 2538 409 2786 701 
Q 3034 994 3034 1497 
Q 3034 2003 2786 2293 
Q 2538 2584 2113 2584 
z
M 3366 4563 
L 3366 3988 
Q 3128 4100 2886 4159 
Q 2644 4219 2406 4219 
Q 1781 4219 1451 3797 
Q 1122 3375 1075 2522 
Q 1259 2794 1537 2939 
Q 1816 3084 2150 3084 
Q 2853 3084 3261 2657 
Q 3669 2231 3669 1497 
Q 3669 778 3244 343 
Q 2819 -91 2113 -91 
Q 1303 -91 875 529 
Q 447 1150 447 2328 
Q 447 3434 972 4092 
Q 1497 4750 2381 4750 
Q 2619 4750 2861 4703 
Q 3103 4656 3366 4563 
z
" transform="scale(0.015625)"/>
       </defs>
       <use xlink:href="#DejaVuSans-36"/>
       <use xlink:href="#DejaVuSans-30" x="63.623047"/>
       <use xlink:href="#DejaVuSans-30" x="127.246094"/>
      </g>
     </g>
    </g>
    <g id="text_8">
     <!-- Epoch -->
     <g transform="translate(215.089063 331.916562) scale(0.1 -0.1)">
      <defs>
       <path id="DejaVuSans-45" d="M 628 4666 
L 3578 4666 
L 3578 4134 
L 1259 4134 
L 1259 2753 
L 3481 2753 
L 3481 2222 
L 1259 2222 
L 1259 531 
L 3634 531 
L 3634 0 
L 628 0 
L 628 4666 
z
" transform="scale(0.015625)"/>
       <path id="DejaVuSans-70" d="M 1159 525 
L 1159 -1331 
L 581 -1331 
L 581 3500 
L 1159 3500 
L 1159 2969 
Q 1341 3281 1617 3432 
Q 1894 3584 2278 3584 
Q 2916 3584 3314 3078 
Q 3713 2572 3713 1747 
Q 3713 922 3314 415 
Q 2916 -91 2278 -91 
Q 1894 -91 1617 61 
Q 1341 213 1159 525 
z
M 3116 1747 
Q 3116 2381 2855 2742 
Q 2594 3103 2138 3103 
Q 1681 3103 1420 2742 
Q 1159 2381 1159 1747 
Q 1159 1113 1420 752 
Q 1681 391 2138 391 
Q 2594 391 2855 752 
Q 3116 1113 3116 1747 
z
" transform="scale(0.015625)"/>
       <path id="DejaVuSans-6f" d="M 1959 3097 
Q 1497 3097 1228 2736 
Q 959 2375 959 1747 
Q 959 1119 1226 758 
Q 1494 397 1959 397 
Q 2419 397 2687 759 
Q 2956 1122 2956 1747 
Q 2956 2369 2687 2733 
Q 2419 3097 1959 3097 
z
M 1959 3584 
Q 2709 3584 3137 3096 
Q 3566 2609 3566 1747 
Q 3566 888 3137 398 
Q 2709 -91 1959 -91 
Q 1206 -91 779 398 
Q 353 888 353 1747 
Q 353 2609 779 3096 
Q 1206 3584 1959 3584 
z
" transform="scale(0.015625)"/>
       <path id="DejaVuSans-63" d="M 3122 3366 
L 3122 2828 
Q 2878 2963 2633 3030 
Q 2388 3097 2138 3097 
Q 1578 3097 1268 2742 
Q 959 2388 959 1747 
Q 959 1106 1268 751 
Q 1578 397 2138 397 
Q 2388 397 2633 464 
Q 2878 531 3122 666 
L 3122 134 
Q 2881 22 2623 -34 
Q 2366 -91 2075 -91 
Q 1284 -91 818 406 
Q 353 903 353 1747 
Q 353 2603 823 3093 
Q 1294 3584 2113 3584 
Q 2378 3584 2631 3529 
Q 2884 3475 3122 3366 
z
" transform="scale(0.015625)"/>
       <path id="DejaVuSans-68" d="M 3513 2113 
L 3513 0 
L 2938 0 
L 2938 2094 
Q 2938 2591 2744 2837 
Q 2550 3084 2163 3084 
Q 1697 3084 1428 2787 
Q 1159 2491 1159 1978 
L 1159 0 
L 581 0 
L 581 4863 
L 1159 4863 
L 1159 2956 
Q 1366 3272 1645 3428 
Q 1925 3584 2291 3584 
Q 2894 3584 3203 3211 
Q 3513 2838 3513 2113 
z
" transform="scale(0.015625)"/>
      </defs>
      <use xlink:href="#DejaVuSans-45"/>
      <use xlink:href="#DejaVuSans-70" x="63.183594"/>
      <use xlink:href="#DejaVuSans-6f" x="126.660156"/>
      <use xlink:href="#DejaVuSans-63" x="187.841797"/>
      <use xlink:href="#DejaVuSans-68" x="242.822266"/>
     </g>
    </g>
   </g>
   <g id="matplotlib.axis_2">
    <g id="ytick_1">
     <g id="line2d_8">
      <defs>
       <path id="m23891b923e" d="M 0 0 
L -3.5 0 
" style="stroke: #000000; stroke-width: 0.8"/>
      </defs>
      <g>
       <use xlink:href="#m23891b923e" x="47.72" y="273.084155" style="stroke: #000000; stroke-width: 0.8"/>
      </g>
     </g>
     <g id="text_9">
      <!-- 20 -->
      <g transform="translate(27.995 276.883374) scale(0.1 -0.1)">
       <use xlink:href="#DejaVuSans-32"/>
       <use xlink:href="#DejaVuSans-30" x="63.623047"/>
      </g>
     </g>
    </g>
    <g id="ytick_2">
     <g id="line2d_9">
      <g>
       <use xlink:href="#m23891b923e" x="47.72" y="209.273549" style="stroke: #000000; stroke-width: 0.8"/>
      </g>
     </g>
     <g id="text_10">
      <!-- 40 -->
      <g transform="translate(27.995 213.072768) scale(0.1 -0.1)">
       <use xlink:href="#DejaVuSans-34"/>
       <use xlink:href="#DejaVuSans-30" x="63.623047"/>
      </g>
     </g>
    </g>
    <g id="ytick_3">
     <g id="line2d_10">
      <g>
       <use xlink:href="#m23891b923e" x="47.72" y="145.462944" style="stroke: #000000; stroke-width: 0.8"/>
      </g>
     </g>
     <g id="text_11">
      <!-- 60 -->
      <g transform="translate(27.995 149.262162) scale(0.1 -0.1)">
       <use xlink:href="#DejaVuSans-36"/>
       <use xlink:href="#DejaVuSans-30" x="63.623047"/>
      </g>
     </g>
    </g>
    <g id="ytick_4">
     <g id="line2d_11">
      <g>
       <use xlink:href="#m23891b923e" x="47.72" y="81.652338" style="stroke: #000000; stroke-width: 0.8"/>
      </g>
     </g>
     <g id="text_12">
      <!-- 80 -->
      <g transform="translate(27.995 85.451556) scale(0.1 -0.1)">
       <defs>
        <path id="DejaVuSans-38" d="M 2034 2216 
Q 1584 2216 1326 1975 
Q 1069 1734 1069 1313 
Q 1069 891 1326 650 
Q 1584 409 2034 409 
Q 2484 409 2743 651 
Q 3003 894 3003 1313 
Q 3003 1734 2745 1975 
Q 2488 2216 2034 2216 
z
M 1403 2484 
Q 997 2584 770 2862 
Q 544 3141 544 3541 
Q 544 4100 942 4425 
Q 1341 4750 2034 4750 
Q 2731 4750 3128 4425 
Q 3525 4100 3525 3541 
Q 3525 3141 3298 2862 
Q 3072 2584 2669 2484 
Q 3125 2378 3379 2068 
Q 3634 1759 3634 1313 
Q 3634 634 3220 271 
Q 2806 -91 2034 -91 
Q 1263 -91 848 271 
Q 434 634 434 1313 
Q 434 1759 690 2068 
Q 947 2378 1403 2484 
z
M 1172 3481 
Q 1172 3119 1398 2916 
Q 1625 2713 2034 2713 
Q 2441 2713 2670 2916 
Q 2900 3119 2900 3481 
Q 2900 3844 2670 4047 
Q 2441 4250 2034 4250 
Q 1625 4250 1398 4047 
Q 1172 3844 1172 3481 
z
" transform="scale(0.015625)"/>
       </defs>
       <use xlink:href="#DejaVuSans-38"/>
       <use xlink:href="#DejaVuSans-30" x="63.623047"/>
      </g>
     </g>
    </g>
    <g id="ytick_5">
     <g id="line2d_12">
      <g>
       <use xlink:href="#m23891b923e" x="47.72" y="17.841732" style="stroke: #000000; stroke-width: 0.8"/>
      </g>
     </g>
     <g id="text_13">
      <!-- 100 -->
      <g transform="translate(21.6325 21.640951) scale(0.1 -0.1)">
       <use xlink:href="#DejaVuSans-31"/>
       <use xlink:href="#DejaVuSans-30" x="63.623047"/>
       <use xlink:href="#DejaVuSans-30" x="127.246094"/>
      </g>
     </g>
    </g>
    <g id="text_14">
     <!-- Performance -->
     <g transform="translate(15.552813 190.882031) rotate(-90) scale(0.1 -0.1)">
      <defs>
       <path id="DejaVuSans-50" d="M 1259 4147 
L 1259 2394 
L 2053 2394 
Q 2494 2394 2734 2622 
Q 2975 2850 2975 3272 
Q 2975 3691 2734 3919 
Q 2494 4147 2053 4147 
L 1259 4147 
z
M 628 4666 
L 2053 4666 
Q 2838 4666 3239 4311 
Q 3641 3956 3641 3272 
Q 3641 2581 3239 2228 
Q 2838 1875 2053 1875 
L 1259 1875 
L 1259 0 
L 628 0 
L 628 4666 
z
" transform="scale(0.015625)"/>
       <path id="DejaVuSans-65" d="M 3597 1894 
L 3597 1613 
L 953 1613 
Q 991 1019 1311 708 
Q 1631 397 2203 397 
Q 2534 397 2845 478 
Q 3156 559 3463 722 
L 3463 178 
Q 3153 47 2828 -22 
Q 2503 -91 2169 -91 
Q 1331 -91 842 396 
Q 353 884 353 1716 
Q 353 2575 817 3079 
Q 1281 3584 2069 3584 
Q 2775 3584 3186 3129 
Q 3597 2675 3597 1894 
z
M 3022 2063 
Q 3016 2534 2758 2815 
Q 2500 3097 2075 3097 
Q 1594 3097 1305 2825 
Q 1016 2553 972 2059 
L 3022 2063 
z
" transform="scale(0.015625)"/>
       <path id="DejaVuSans-72" d="M 2631 2963 
Q 2534 3019 2420 3045 
Q 2306 3072 2169 3072 
Q 1681 3072 1420 2755 
Q 1159 2438 1159 1844 
L 1159 0 
L 581 0 
L 581 3500 
L 1159 3500 
L 1159 2956 
Q 1341 3275 1631 3429 
Q 1922 3584 2338 3584 
Q 2397 3584 2469 3576 
Q 2541 3569 2628 3553 
L 2631 2963 
z
" transform="scale(0.015625)"/>
       <path id="DejaVuSans-66" d="M 2375 4863 
L 2375 4384 
L 1825 4384 
Q 1516 4384 1395 4259 
Q 1275 4134 1275 3809 
L 1275 3500 
L 2222 3500 
L 2222 3053 
L 1275 3053 
L 1275 0 
L 697 0 
L 697 3053 
L 147 3053 
L 147 3500 
L 697 3500 
L 697 3744 
Q 697 4328 969 4595 
Q 1241 4863 1831 4863 
L 2375 4863 
z
" transform="scale(0.015625)"/>
       <path id="DejaVuSans-6d" d="M 3328 2828 
Q 3544 3216 3844 3400 
Q 4144 3584 4550 3584 
Q 5097 3584 5394 3201 
Q 5691 2819 5691 2113 
L 5691 0 
L 5113 0 
L 5113 2094 
Q 5113 2597 4934 2840 
Q 4756 3084 4391 3084 
Q 3944 3084 3684 2787 
Q 3425 2491 3425 1978 
L 3425 0 
L 2847 0 
L 2847 2094 
Q 2847 2600 2669 2842 
Q 2491 3084 2119 3084 
Q 1678 3084 1418 2786 
Q 1159 2488 1159 1978 
L 1159 0 
L 581 0 
L 581 3500 
L 1159 3500 
L 1159 2956 
Q 1356 3278 1631 3431 
Q 1906 3584 2284 3584 
Q 2666 3584 2933 3390 
Q 3200 3197 3328 2828 
z
" transform="scale(0.015625)"/>
       <path id="DejaVuSans-61" d="M 2194 1759 
Q 1497 1759 1228 1600 
Q 959 1441 959 1056 
Q 959 750 1161 570 
Q 1363 391 1709 391 
Q 2188 391 2477 730 
Q 2766 1069 2766 1631 
L 2766 1759 
L 2194 1759 
z
M 3341 1997 
L 3341 0 
L 2766 0 
L 2766 531 
Q 2569 213 2275 61 
Q 1981 -91 1556 -91 
Q 1019 -91 701 211 
Q 384 513 384 1019 
Q 384 1609 779 1909 
Q 1175 2209 1959 2209 
L 2766 2209 
L 2766 2266 
Q 2766 2663 2505 2880 
Q 2244 3097 1772 3097 
Q 1472 3097 1187 3025 
Q 903 2953 641 2809 
L 641 3341 
Q 956 3463 1253 3523 
Q 1550 3584 1831 3584 
Q 2591 3584 2966 3190 
Q 3341 2797 3341 1997 
z
" transform="scale(0.015625)"/>
       <path id="DejaVuSans-6e" d="M 3513 2113 
L 3513 0 
L 2938 0 
L 2938 2094 
Q 2938 2591 2744 2837 
Q 2550 3084 2163 3084 
Q 1697 3084 1428 2787 
Q 1159 2491 1159 1978 
L 1159 0 
L 581 0 
L 581 3500 
L 1159 3500 
L 1159 2956 
Q 1366 3272 1645 3428 
Q 1925 3584 2291 3584 
Q 2894 3584 3203 3211 
Q 3513 2838 3513 2113 
z
" transform="scale(0.015625)"/>
      </defs>
      <use xlink:href="#DejaVuSans-50"/>
      <use xlink:href="#DejaVuSans-65" x="56.677734"/>
      <use xlink:href="#DejaVuSans-72" x="118.201172"/>
      <use xlink:href="#DejaVuSans-66" x="159.314453"/>
      <use xlink:href="#DejaVuSans-6f" x="194.519531"/>
      <use xlink:href="#DejaVuSans-72" x="255.701172"/>
      <use xlink:href="#DejaVuSans-6d" x="295.064453"/>
      <use xlink:href="#DejaVuSans-61" x="392.476562"/>
      <use xlink:href="#DejaVuSans-6e" x="453.755859"/>
      <use xlink:href="#DejaVuSans-63" x="517.134766"/>
      <use xlink:href="#DejaVuSans-65" x="572.115234"/>
     </g>
    </g>
   </g>
   <g id="line2d_13">
    <path d="M 47.72 259.978766 
L 48.328933 280.300414 
L 48.937867 279.056231 
L 49.5468 290.509091 
L 50.155733 273.250045 
L 50.764667 189.092274 
L 51.3736 152.181528 
L 51.982533 138.686937 
L 52.591467 133.486893 
L 53.2004 130.839014 
L 53.809333 116.642576 
L 54.418267 118.397183 
L 55.0272 101.840002 
L 55.636133 130.328591 
L 56.245067 115.334593 
L 56.854 111.41062 
L 57.462933 99.383524 
L 58.6808 118.748119 
L 59.289733 82.315896 
L 59.898667 85.218998 
L 60.5076 86.686493 
L 61.116533 88.536811 
L 62.3344 78.519546 
L 62.943333 79.125682 
L 63.552267 83.560079 
L 64.1612 86.271757 
L 64.770133 74.499885 
L 65.379067 68.438481 
L 65.988 70.0336 
L 66.596933 70.735448 
L 67.205867 69.778376 
L 67.8148 69.650776 
L 68.423733 68.215169 
L 69.032667 63.844572 
L 69.6416 60.303447 
L 70.250533 61.770942 
L 70.859467 64.163596 
L 71.4684 63.429861 
L 72.077333 59.697311 
L 72.686267 59.250688 
L 73.2952 58.325504 
L 73.904133 61.260518 
L 75.122 60.973382 
L 75.730933 56.188074 
L 76.339867 56.188074 
L 76.9488 60.335359 
L 78.166667 58.708352 
L 78.7756 60.399159 
L 79.384533 59.186863 
L 79.993467 57.240833 
L 80.6024 56.251873 
L 81.211333 58.006504 
L 81.820267 58.931664 
L 83.647067 51.913188 
L 84.864933 54.497267 
L 85.473867 56.283786 
L 86.691733 50.573293 
L 87.9096 53.859219 
L 88.518533 53.284971 
L 89.7364 50.988029 
L 90.345333 51.338941 
L 90.954267 53.157372 
L 91.5632 51.594165 
L 92.172133 50.509493 
L 92.781067 51.785589 
L 93.39 50.573293 
L 93.998933 49.680046 
L 94.607867 49.520534 
L 95.825733 47.06408 
L 96.434667 47.383079 
L 97.0436 48.340151 
L 98.261467 51.179453 
L 98.8704 51.498453 
L 99.479333 50.892317 
L 100.088267 50.637118 
L 100.6972 49.26531 
L 101.306133 49.26531 
L 101.915067 48.403951 
L 102.524 48.722975 
L 103.132933 47.893527 
L 103.741867 46.170808 
L 104.3508 46.776944 
L 104.959733 46.521744 
L 105.568667 47.095968 
L 106.1776 48.882487 
L 106.786533 48.372063 
L 107.395467 47.414992 
L 108.0044 46.745056 
L 108.613333 46.808856 
L 109.222267 45.819897 
L 109.8312 44.38429 
L 111.049067 44.065266 
L 111.658 43.45913 
L 112.266933 44.224778 
L 112.875867 45.181849 
L 113.4848 47.032168 
L 114.093733 44.830913 
L 114.702667 43.33153 
L 115.3116 43.810042 
L 115.920533 44.735226 
L 116.529467 43.778154 
L 117.747333 43.873866 
L 118.356267 44.097178 
L 118.9652 43.172019 
L 119.574133 41.768324 
L 120.183067 43.140106 
L 120.792 44.926625 
L 121.400933 47.606416 
L 122.009867 46.521744 
L 122.6188 44.830913 
L 123.227733 44.001466 
L 123.836667 44.097178 
L 124.4456 45.405161 
L 125.054533 45.054225 
L 125.663467 44.480002 
L 126.881333 40.811252 
L 127.490267 41.066476 
L 128.0992 43.58673 
L 128.708133 47.223568 
L 129.317067 47.829727 
L 129.926 47.19168 
L 130.534933 43.235818 
L 131.143867 41.034564 
L 131.7528 40.906964 
L 132.361733 41.5131 
L 132.970667 42.565883 
L 133.5796 44.288578 
L 134.188533 43.778154 
L 134.797467 41.3217 
L 135.4064 40.173204 
L 136.015333 40.013693 
L 136.624267 40.58794 
L 137.2332 40.268916 
L 138.451067 37.971974 
L 139.06 38.131486 
L 140.277867 41.289788 
L 140.8868 41.162188 
L 141.495733 40.013693 
L 142.104667 39.886093 
L 142.7136 39.311845 
L 143.322533 39.567069 
L 143.931467 40.173204 
L 144.5404 39.662781 
L 145.149333 40.58794 
L 145.758267 41.959723 
L 146.3672 42.725371 
L 146.976133 42.693483 
L 147.585067 41.066476 
L 148.194 38.609997 
L 148.802933 37.365839 
L 149.411867 37.142502 
L 150.0208 37.142502 
L 151.238667 39.056645 
L 151.8476 38.705709 
L 153.6744 36.663991 
L 154.283333 36.536367 
L 154.892267 36.855391 
L 156.110133 37.174415 
L 156.719067 37.174415 
L 157.936933 39.822293 
L 158.545867 39.822293 
L 159.1548 39.311845 
L 159.763733 37.046815 
L 160.372667 35.898319 
L 160.9816 36.408767 
L 161.590533 38.259086 
L 162.8084 40.811252 
L 163.417333 41.098364 
L 164.026267 41.5131 
L 165.244133 38.673822 
L 165.853067 37.940062 
L 166.462 38.801421 
L 167.679867 39.981805 
L 169.506667 38.992845 
L 170.1156 38.482398 
L 171.333467 37.014903 
L 171.9424 35.611208 
L 172.551333 35.675008 
L 173.160267 36.153543 
L 174.378133 36.791591 
L 175.596 35.57932 
L 176.204933 35.962144 
L 177.4228 39.216157 
L 178.031733 39.056645 
L 178.640667 36.823503 
L 179.2496 36.249255 
L 181.0764 35.324096 
L 181.685333 35.962144 
L 182.294267 36.791591 
L 182.9032 38.705709 
L 183.512133 42.789195 
L 184.121067 42.533971 
L 185.338933 35.611208 
L 185.947867 34.84556 
L 186.5568 36.472567 
L 187.165733 39.790381 
L 187.774667 40.71554 
L 188.3836 41.034564 
L 188.992533 41.098364 
L 189.601467 40.013693 
L 190.2104 39.790381 
L 190.819333 39.694693 
L 191.428267 38.897133 
L 192.646133 37.908174 
L 193.255067 37.84435 
L 193.864 37.525326 
L 195.081867 38.099574 
L 195.6908 39.598981 
L 196.299733 38.322886 
L 196.908667 35.866432 
L 198.126533 36.217343 
L 199.3444 38.067662 
L 199.953333 37.812462 
L 200.562267 36.089743 
L 201.1712 34.71796 
L 201.780133 33.728977 
L 202.389067 34.016113 
L 202.998 34.813648 
L 204.215867 36.982991 
L 205.433733 34.71796 
L 206.042667 33.154753 
L 206.6516 32.325282 
L 207.260533 32.803817 
L 207.869467 32.420994 
L 208.4784 32.676218 
L 209.087333 32.612418 
L 209.696267 32.77193 
L 210.3052 32.165794 
L 210.914133 31.814858 
L 211.523067 31.91057 
L 212.132 32.452906 
L 212.740933 33.154753 
L 213.349867 33.665177 
L 213.9588 33.792801 
L 215.176667 34.398937 
L 215.7856 34.90936 
L 217.003467 32.740018 
L 218.221333 32.133882 
L 218.830267 33.250465 
L 219.4392 35.100784 
L 220.657067 37.908174 
L 221.266 38.003862 
L 222.483867 34.271312 
L 223.0928 33.122841 
L 223.701733 32.963329 
L 224.310667 33.888489 
L 224.9196 34.526536 
L 225.528533 34.143713 
L 226.137467 32.516706 
L 226.7464 32.261482 
L 227.355333 32.548618 
L 227.964267 34.654136 
L 229.182133 37.58915 
L 229.791067 38.386686 
L 230.4 37.110615 
L 231.617867 32.516706 
L 232.2268 31.878658 
L 232.835733 32.516706 
L 233.444667 34.654136 
L 234.0536 35.451696 
L 234.662533 35.260296 
L 235.8804 33.665177 
L 236.489333 33.473777 
L 237.098267 33.856601 
L 237.7072 33.792801 
L 238.316133 34.175625 
L 238.925067 34.271312 
L 240.142933 34.048001 
L 240.751867 34.143713 
L 241.3608 34.079913 
L 241.969733 34.207513 
L 242.578667 33.346153 
L 243.1876 32.995242 
L 244.405467 32.580506 
L 245.0144 32.867617 
L 245.623333 32.77193 
L 246.232267 32.261482 
L 247.450133 32.293394 
L 248.059067 32.516706 
L 248.668 32.325282 
L 249.276933 32.006282 
L 249.885867 32.006282 
L 250.4948 31.814858 
L 251.103733 31.91057 
L 252.3216 32.484794 
L 252.930533 32.389106 
L 253.539467 32.420994 
L 254.1484 32.325282 
L 254.757333 32.452906 
L 255.9752 32.03817 
L 256.584133 32.03817 
L 257.802 31.368235 
L 258.410933 31.591546 
L 259.6288 31.591546 
L 260.846667 32.389106 
L 262.064533 32.325282 
L 262.673467 32.133882 
L 263.891333 31.400122 
L 264.500267 31.400122 
L 265.1092 31.176811 
L 266.327067 31.942458 
L 266.936 32.165794 
L 267.544933 32.229594 
L 268.7628 31.495834 
L 269.371733 31.432035 
L 269.980667 31.495834 
L 270.5896 32.133882 
L 271.198533 32.580506 
L 271.807467 33.409953 
L 273.025333 34.016113 
L 274.852133 30.953499 
L 275.461067 30.506875 
L 276.07 30.602587 
L 276.678933 30.443075 
L 277.8968 32.133882 
L 278.505733 33.154753 
L 279.114667 33.090954 
L 279.7236 32.644306 
L 280.332533 31.495834 
L 280.941467 30.921611 
L 282.159333 30.921611 
L 284.595067 31.463947 
L 285.204 31.368235 
L 286.421867 31.017299 
L 287.639733 30.857787 
L 288.248667 31.113011 
L 288.8576 30.730187 
L 289.466533 31.017299 
L 290.6844 32.03817 
L 291.293333 32.133882 
L 292.5112 31.655346 
L 293.120133 30.985411 
L 293.729067 30.506875 
L 294.338 30.921611 
L 294.946933 31.751058 
L 295.555867 32.133882 
L 296.1648 32.995242 
L 296.773733 33.282353 
L 297.382667 32.77193 
L 298.600533 30.985411 
L 299.209467 30.762099 
L 299.8184 30.251651 
L 300.427333 30.347363 
L 301.036267 30.730187 
L 301.6452 31.368235 
L 302.254133 31.719146 
L 302.863067 31.814858 
L 303.472 31.782946 
L 304.689867 31.017299 
L 305.2988 30.857787 
L 306.516667 31.687258 
L 307.1256 31.878658 
L 307.734533 32.389106 
L 308.343467 33.122841 
L 308.9524 33.122841 
L 309.561333 33.537577 
L 310.170267 32.548618 
L 310.7792 31.336323 
L 311.388133 31.368235 
L 311.997067 30.921611 
L 312.606 31.049211 
L 313.214933 30.857787 
L 313.823867 30.092139 
L 315.041733 30.028339 
L 315.650667 29.677428 
L 316.868533 29.517916 
L 317.477467 29.262692 
L 319.304267 29.741228 
L 319.9132 30.411163 
L 321.74 30.474963 
L 322.348933 31.113011 
L 322.957867 31.208723 
L 323.5668 31.591546 
L 324.175733 31.336323 
L 324.784667 30.602587 
L 325.3936 30.187851 
L 326.002533 30.092139 
L 326.611467 31.782946 
L 327.2204 33.059041 
L 327.829333 32.803817 
L 328.438267 32.133882 
L 329.0472 31.814858 
L 329.656133 31.081099 
L 330.265067 30.666387 
L 330.874 29.932627 
L 332.091867 31.495834 
L 332.7008 32.516706 
L 333.918667 31.751058 
L 334.5276 31.208723 
L 335.136533 31.113011 
L 335.745467 30.443075 
L 336.3544 29.96454 
L 338.1812 30.379275 
L 338.790133 30.155939 
L 339.399067 29.741228 
L 340.008 30.124051 
L 341.225867 30.060252 
L 342.443733 30.283563 
L 343.052667 30.028339 
L 343.6616 29.996427 
L 344.879467 30.570675 
L 345.4884 31.208723 
L 346.706267 32.165794 
L 347.3152 32.612418 
L 348.533067 31.591546 
L 349.142 31.432035 
L 349.750933 30.921611 
L 350.359867 31.113011 
L 350.9688 30.889699 
L 351.577733 31.176811 
L 352.7956 30.379275 
L 354.013467 30.953499 
L 354.6224 31.049211 
L 355.231333 30.953499 
L 355.840267 30.379275 
L 356.4492 30.187851 
L 357.058133 30.251651 
L 357.667067 31.272523 
L 358.276 32.006282 
L 358.884933 31.84677 
L 360.1028 29.996427 
L 360.711733 29.422204 
L 361.320667 29.16698 
L 361.9296 29.454092 
L 362.538533 29.10318 
L 363.147467 29.358404 
L 363.7564 29.007468 
L 364.365333 28.943668 
L 365.5832 29.677428 
L 367.41 31.559634 
L 368.018933 31.208723 
L 368.627867 30.092139 
L 369.2368 29.23078 
L 370.454667 28.720356 
L 371.0636 28.656557 
L 371.672533 29.23078 
L 372.8904 30.825899 
L 373.499333 31.240611 
L 374.108267 32.420994 
L 374.7172 32.357194 
L 375.326133 32.165794 
L 375.935067 31.527747 
L 376.544 30.411163 
L 377.152933 30.474963 
L 377.761867 29.868828 
L 378.3708 29.805028 
L 378.979733 30.060252 
L 379.588667 29.868828 
L 380.806533 31.591546 
L 382.0244 32.580506 
L 382.633333 32.803817 
L 383.242267 32.070082 
L 384.460133 31.017299 
L 385.069067 30.124051 
L 385.678 30.028339 
L 387.5048 31.655346 
L 388.113733 32.70813 
L 388.722667 33.154753 
L 389.3316 32.452906 
L 389.940533 31.368235 
L 390.549467 31.144923 
L 391.767333 30.028339 
L 392.376267 30.060252 
L 392.9852 29.486004 
L 393.594133 29.773116 
L 394.203067 29.549804 
L 394.812 29.805028 
L 395.420933 29.932627 
L 396.029867 30.347363 
L 397.247733 29.23078 
L 397.856667 29.90074 
L 398.4656 29.805028 
L 399.683467 29.10318 
L 400.2924 27.890909 
L 402.1192 29.96454 
L 402.728133 30.315451 
L 403.337067 30.060252 
L 403.946 30.187851 
L 404.554933 29.358404 
L 405.163867 28.337533 
L 405.7728 28.050421 
L 406.381733 28.050421 
L 406.990667 28.178021 
L 407.5996 28.816068 
L 408.208533 29.071268 
L 408.817467 28.624644 
L 409.4264 28.592757 
L 410.035333 28.784156 
L 410.644267 29.23078 
L 411.2532 28.943668 
L 411.862133 28.114221 
L 412.471067 27.922797 
L 412.471067 27.922797 
" clip-path="url(#pa0479963ef)" style="fill: none; stroke: #008000; stroke-width: 1.5; stroke-linecap: square"/>
   </g>
   <g id="patch_3">
    <path d="M 47.72 303.64 
L 47.72 14.76 
" style="fill: none; stroke: #000000; stroke-width: 0.8; stroke-linejoin: miter; stroke-linecap: square"/>
   </g>
   <g id="patch_4">
    <path d="M 413.08 303.64 
L 413.08 14.76 
" style="fill: none; stroke: #000000; stroke-width: 0.8; stroke-linejoin: miter; stroke-linecap: square"/>
   </g>
   <g id="patch_5">
    <path d="M 47.72 303.64 
L 413.08 303.64 
" style="fill: none; stroke: #000000; stroke-width: 0.8; stroke-linejoin: miter; stroke-linecap: square"/>
   </g>
   <g id="patch_6">
    <path d="M 47.72 14.76 
L 413.08 14.76 
" style="fill: none; stroke: #000000; stroke-width: 0.8; stroke-linejoin: miter; stroke-linecap: square"/>
   </g>
  </g>
  <g id="axes_2">
   <g id="matplotlib.axis_3">
    <g id="ytick_6">
     <g id="line2d_14">
      <defs>
       <path id="m7368decaf7" d="M 0 0 
L 3.5 0 
" style="stroke: #000000; stroke-width: 0.8"/>
      </defs>
      <g>
       <use xlink:href="#m7368decaf7" x="413.08" y="303.64" style="stroke: #000000; stroke-width: 0.8"/>
      </g>
     </g>
     <g id="text_15">
      <!-- 0.0 -->
      <g transform="translate(420.08 307.439219) scale(0.1 -0.1)">
       <defs>
        <path id="DejaVuSans-2e" d="M 684 794 
L 1344 794 
L 1344 0 
L 684 0 
L 684 794 
z
" transform="scale(0.015625)"/>
       </defs>
       <use xlink:href="#DejaVuSans-30"/>
       <use xlink:href="#DejaVuSans-2e" x="63.623047"/>
       <use xlink:href="#DejaVuSans-30" x="95.410156"/>
      </g>
     </g>
    </g>
    <g id="ytick_7">
     <g id="line2d_15">
      <g>
       <use xlink:href="#m7368decaf7" x="413.08" y="245.864" style="stroke: #000000; stroke-width: 0.8"/>
      </g>
     </g>
     <g id="text_16">
      <!-- 0.2 -->
      <g transform="translate(420.08 249.663219) scale(0.1 -0.1)">
       <use xlink:href="#DejaVuSans-30"/>
       <use xlink:href="#DejaVuSans-2e" x="63.623047"/>
       <use xlink:href="#DejaVuSans-32" x="95.410156"/>
      </g>
     </g>
    </g>
    <g id="ytick_8">
     <g id="line2d_16">
      <g>
       <use xlink:href="#m7368decaf7" x="413.08" y="188.088" style="stroke: #000000; stroke-width: 0.8"/>
      </g>
     </g>
     <g id="text_17">
      <!-- 0.4 -->
      <g transform="translate(420.08 191.887219) scale(0.1 -0.1)">
       <use xlink:href="#DejaVuSans-30"/>
       <use xlink:href="#DejaVuSans-2e" x="63.623047"/>
       <use xlink:href="#DejaVuSans-34" x="95.410156"/>
      </g>
     </g>
    </g>
    <g id="ytick_9">
     <g id="line2d_17">
      <g>
       <use xlink:href="#m7368decaf7" x="413.08" y="130.312" style="stroke: #000000; stroke-width: 0.8"/>
      </g>
     </g>
     <g id="text_18">
      <!-- 0.6 -->
      <g transform="translate(420.08 134.111219) scale(0.1 -0.1)">
       <use xlink:href="#DejaVuSans-30"/>
       <use xlink:href="#DejaVuSans-2e" x="63.623047"/>
       <use xlink:href="#DejaVuSans-36" x="95.410156"/>
      </g>
     </g>
    </g>
    <g id="ytick_10">
     <g id="line2d_18">
      <g>
       <use xlink:href="#m7368decaf7" x="413.08" y="72.536" style="stroke: #000000; stroke-width: 0.8"/>
      </g>
     </g>
     <g id="text_19">
      <!-- 0.8 -->
      <g transform="translate(420.08 76.335219) scale(0.1 -0.1)">
       <use xlink:href="#DejaVuSans-30"/>
       <use xlink:href="#DejaVuSans-2e" x="63.623047"/>
       <use xlink:href="#DejaVuSans-38" x="95.410156"/>
      </g>
     </g>
    </g>
    <g id="ytick_11">
     <g id="line2d_19">
      <g>
       <use xlink:href="#m7368decaf7" x="413.08" y="14.76" style="stroke: #000000; stroke-width: 0.8"/>
      </g>
     </g>
     <g id="text_20">
      <!-- 1.0 -->
      <g transform="translate(420.08 18.559219) scale(0.1 -0.1)">
       <use xlink:href="#DejaVuSans-31"/>
       <use xlink:href="#DejaVuSans-2e" x="63.623047"/>
       <use xlink:href="#DejaVuSans-30" x="95.410156"/>
      </g>
     </g>
    </g>
    <g id="text_21">
     <!-- Fibers/Num Nodes -->
     <g transform="translate(447.581563 204.721875) rotate(-90) scale(0.1 -0.1)">
      <defs>
       <path id="DejaVuSans-46" d="M 628 4666 
L 3309 4666 
L 3309 4134 
L 1259 4134 
L 1259 2759 
L 3109 2759 
L 3109 2228 
L 1259 2228 
L 1259 0 
L 628 0 
L 628 4666 
z
" transform="scale(0.015625)"/>
       <path id="DejaVuSans-69" d="M 603 3500 
L 1178 3500 
L 1178 0 
L 603 0 
L 603 3500 
z
M 603 4863 
L 1178 4863 
L 1178 4134 
L 603 4134 
L 603 4863 
z
" transform="scale(0.015625)"/>
       <path id="DejaVuSans-62" d="M 3116 1747 
Q 3116 2381 2855 2742 
Q 2594 3103 2138 3103 
Q 1681 3103 1420 2742 
Q 1159 2381 1159 1747 
Q 1159 1113 1420 752 
Q 1681 391 2138 391 
Q 2594 391 2855 752 
Q 3116 1113 3116 1747 
z
M 1159 2969 
Q 1341 3281 1617 3432 
Q 1894 3584 2278 3584 
Q 2916 3584 3314 3078 
Q 3713 2572 3713 1747 
Q 3713 922 3314 415 
Q 2916 -91 2278 -91 
Q 1894 -91 1617 61 
Q 1341 213 1159 525 
L 1159 0 
L 581 0 
L 581 4863 
L 1159 4863 
L 1159 2969 
z
" transform="scale(0.015625)"/>
       <path id="DejaVuSans-73" d="M 2834 3397 
L 2834 2853 
Q 2591 2978 2328 3040 
Q 2066 3103 1784 3103 
Q 1356 3103 1142 2972 
Q 928 2841 928 2578 
Q 928 2378 1081 2264 
Q 1234 2150 1697 2047 
L 1894 2003 
Q 2506 1872 2764 1633 
Q 3022 1394 3022 966 
Q 3022 478 2636 193 
Q 2250 -91 1575 -91 
Q 1294 -91 989 -36 
Q 684 19 347 128 
L 347 722 
Q 666 556 975 473 
Q 1284 391 1588 391 
Q 1994 391 2212 530 
Q 2431 669 2431 922 
Q 2431 1156 2273 1281 
Q 2116 1406 1581 1522 
L 1381 1569 
Q 847 1681 609 1914 
Q 372 2147 372 2553 
Q 372 3047 722 3315 
Q 1072 3584 1716 3584 
Q 2034 3584 2315 3537 
Q 2597 3491 2834 3397 
z
" transform="scale(0.015625)"/>
       <path id="DejaVuSans-2f" d="M 1625 4666 
L 2156 4666 
L 531 -594 
L 0 -594 
L 1625 4666 
z
" transform="scale(0.015625)"/>
       <path id="DejaVuSans-4e" d="M 628 4666 
L 1478 4666 
L 3547 763 
L 3547 4666 
L 4159 4666 
L 4159 0 
L 3309 0 
L 1241 3903 
L 1241 0 
L 628 0 
L 628 4666 
z
" transform="scale(0.015625)"/>
       <path id="DejaVuSans-75" d="M 544 1381 
L 544 3500 
L 1119 3500 
L 1119 1403 
Q 1119 906 1312 657 
Q 1506 409 1894 409 
Q 2359 409 2629 706 
Q 2900 1003 2900 1516 
L 2900 3500 
L 3475 3500 
L 3475 0 
L 2900 0 
L 2900 538 
Q 2691 219 2414 64 
Q 2138 -91 1772 -91 
Q 1169 -91 856 284 
Q 544 659 544 1381 
z
M 1991 3584 
L 1991 3584 
z
" transform="scale(0.015625)"/>
       <path id="DejaVuSans-20" transform="scale(0.015625)"/>
       <path id="DejaVuSans-64" d="M 2906 2969 
L 2906 4863 
L 3481 4863 
L 3481 0 
L 2906 0 
L 2906 525 
Q 2725 213 2448 61 
Q 2172 -91 1784 -91 
Q 1150 -91 751 415 
Q 353 922 353 1747 
Q 353 2572 751 3078 
Q 1150 3584 1784 3584 
Q 2172 3584 2448 3432 
Q 2725 3281 2906 2969 
z
M 947 1747 
Q 947 1113 1208 752 
Q 1469 391 1925 391 
Q 2381 391 2643 752 
Q 2906 1113 2906 1747 
Q 2906 2381 2643 2742 
Q 2381 3103 1925 3103 
Q 1469 3103 1208 2742 
Q 947 2381 947 1747 
z
" transform="scale(0.015625)"/>
      </defs>
      <use xlink:href="#DejaVuSans-46"/>
      <use xlink:href="#DejaVuSans-69" x="50.269531"/>
      <use xlink:href="#DejaVuSans-62" x="78.052734"/>
      <use xlink:href="#DejaVuSans-65" x="141.529297"/>
      <use xlink:href="#DejaVuSans-72" x="203.052734"/>
      <use xlink:href="#DejaVuSans-73" x="244.166016"/>
      <use xlink:href="#DejaVuSans-2f" x="296.265625"/>
      <use xlink:href="#DejaVuSans-4e" x="329.957031"/>
      <use xlink:href="#DejaVuSans-75" x="404.761719"/>
      <use xlink:href="#DejaVuSans-6d" x="468.140625"/>
      <use xlink:href="#DejaVuSans-20" x="565.552734"/>
      <use xlink:href="#DejaVuSans-4e" x="597.339844"/>
      <use xlink:href="#DejaVuSans-6f" x="672.144531"/>
      <use xlink:href="#DejaVuSans-64" x="733.326172"/>
      <use xlink:href="#DejaVuSans-65" x="796.802734"/>
      <use xlink:href="#DejaVuSans-73" x="858.326172"/>
     </g>
    </g>
   </g>
   <g id="line2d_20">
    <path d="M 47.72 14.76 
L 56.245067 14.76 
L 56.854 16.49328 
L 57.462933 16.49328 
L 58.071867 17.6488 
L 58.6808 18.22656 
L 59.289733 21.69312 
L 59.898667 24.00416 
L 60.5076 24.58192 
L 62.3344 33.24832 
L 62.943333 37.8704 
L 63.552267 43.648 
L 64.1612 45.38128 
L 64.770133 47.69232 
L 65.379067 45.95904 
L 65.988 55.2032 
L 66.596933 55.78096 
L 67.205867 58.66976 
L 67.8148 58.092 
L 68.423733 65.02512 
L 69.6416 73.11376 
L 70.250533 73.69152 
L 70.859467 74.84704 
L 71.4684 74.26928 
L 72.077333 69.6472 
L 72.686267 88.13552 
L 73.2952 87.55776 
L 73.904133 90.44656 
L 74.513067 82.35792 
L 75.122 87.55776 
L 75.730933 100.26848 
L 76.339867 99.11296 
L 76.9488 100.26848 
L 77.557733 104.89056 
L 78.166667 96.80192 
L 79.384533 110.66816 
L 79.993467 107.77936 
L 80.6024 111.24592 
L 81.211333 110.66816 
L 81.820267 110.66816 
L 82.4292 118.17904 
L 83.038133 120.49008 
L 83.647067 122.22336 
L 84.256 117.60128 
L 85.473867 132.62304 
L 86.0828 128.00096 
L 86.691733 135.51184 
L 87.300667 136.66736 
L 87.9096 132.04528 
L 88.518533 143.60048 
L 89.127467 145.33376 
L 89.7364 145.91152 
L 90.345333 139.55616 
L 90.954267 140.13392 
L 91.5632 143.02272 
L 92.172133 153.4224 
L 92.781067 142.44496 
L 93.998933 157.46672 
L 94.607867 159.77776 
L 95.2168 148.80032 
L 95.825733 147.6448 
L 96.434667 152.84464 
L 97.0436 149.37808 
L 97.652533 158.62224 
L 98.261467 155.15568 
L 98.8704 159.77776 
L 99.479333 161.51104 
L 100.088267 174.79952 
L 100.6972 175.37728 
L 101.306133 178.26608 
L 101.915067 166.13312 
L 102.524 179.99936 
L 103.132933 178.26608 
L 103.741867 171.91072 
L 104.3508 173.06624 
L 104.959733 160.35552 
L 105.568667 166.13312 
L 106.1776 165.55536 
L 106.786533 171.33296 
L 107.395467 178.84384 
L 108.613333 164.9776 
L 109.222267 175.95504 
L 109.8312 184.04368 
L 110.440133 181.15488 
L 111.049067 184.04368 
L 111.658 182.88816 
L 112.266933 181.15488 
L 112.875867 183.46592 
L 113.4848 184.04368 
L 114.093733 193.28784 
L 114.702667 185.77696 
L 115.3116 187.51024 
L 115.920533 189.82128 
L 116.529467 182.88816 
L 117.1384 183.46592 
L 117.747333 191.55456 
L 118.356267 194.44336 
L 118.9652 186.93248 
L 119.574133 192.71008 
L 120.183067 186.93248 
L 120.792 189.82128 
L 121.400933 186.93248 
L 122.009867 196.17664 
L 122.6188 194.44336 
L 123.227733 196.7544 
L 123.836667 192.71008 
L 124.4456 195.02112 
L 125.054533 192.71008 
L 125.663467 197.90992 
L 126.2724 197.90992 
L 126.881333 202.532 
L 127.490267 201.37648 
L 128.0992 201.95424 
L 128.708133 193.8656 
L 129.317067 189.24352 
L 129.926 194.44336 
L 130.534933 192.71008 
L 131.143867 185.77696 
L 131.7528 200.22096 
L 132.361733 199.06544 
L 132.970667 205.99856 
L 133.5796 208.3096 
L 134.188533 200.22096 
L 134.797467 205.99856 
L 135.4064 207.73184 
L 136.015333 199.06544 
L 136.624267 198.48768 
L 137.2332 210.62064 
L 137.842133 198.48768 
L 138.451067 212.35392 
L 139.06 201.37648 
L 139.668933 203.68752 
L 140.277867 195.02112 
L 140.8868 200.79872 
L 141.495733 196.7544 
L 142.104667 212.93168 
L 142.7136 212.93168 
L 143.322533 204.84304 
L 143.931467 215.24272 
L 144.5404 201.95424 
L 145.149333 204.26528 
L 145.758267 202.532 
L 146.3672 216.39824 
L 146.976133 208.88736 
L 147.585067 204.26528 
L 148.194 221.02032 
L 148.802933 201.95424 
L 149.411867 214.66496 
L 150.0208 221.02032 
L 150.629733 212.35392 
L 151.238667 219.8648 
L 151.8476 215.24272 
L 152.456533 223.33136 
L 153.065467 213.50944 
L 153.6744 214.66496 
L 154.283333 216.39824 
L 154.892267 215.82048 
L 155.5012 223.90912 
L 156.110133 205.4208 
L 156.719067 211.77616 
L 157.328 213.50944 
L 157.936933 212.93168 
L 158.545867 210.62064 
L 159.1548 216.39824 
L 159.763733 204.84304 
L 160.372667 216.976 
L 160.9816 215.82048 
L 161.590533 205.4208 
L 162.199467 217.55376 
L 162.8084 221.02032 
L 163.417333 208.88736 
L 164.026267 207.15408 
L 164.6352 213.50944 
L 165.244133 222.7536 
L 165.853067 223.33136 
L 166.462 214.0872 
L 167.070933 221.02032 
L 167.679867 214.66496 
L 168.2888 218.13152 
L 168.897733 217.55376 
L 169.506667 223.90912 
L 170.1156 225.06464 
L 170.724533 225.6424 
L 171.333467 225.06464 
L 171.9424 215.82048 
L 172.551333 225.06464 
L 173.160267 225.06464 
L 173.7692 214.66496 
L 174.378133 222.7536 
L 174.987067 214.0872 
L 175.596 216.39824 
L 176.204933 223.33136 
L 176.813867 214.66496 
L 177.4228 227.95344 
L 178.031733 216.39824 
L 178.640667 225.6424 
L 179.2496 218.13152 
L 179.858533 233.73104 
L 180.467467 217.55376 
L 181.0764 211.77616 
L 181.685333 227.37568 
L 182.294267 210.04288 
L 182.9032 216.976 
L 183.512133 216.976 
L 184.121067 221.59808 
L 185.338933 211.77616 
L 185.947867 218.13152 
L 186.5568 227.37568 
L 187.165733 214.0872 
L 187.774667 220.44256 
L 188.3836 219.28704 
L 188.992533 210.04288 
L 189.601467 227.95344 
L 190.2104 226.22016 
L 190.819333 207.73184 
L 191.428267 211.77616 
L 192.0372 229.10896 
L 192.646133 212.93168 
L 193.255067 219.8648 
L 193.864 212.93168 
L 194.472933 227.95344 
L 195.081867 230.26448 
L 195.6908 219.8648 
L 196.299733 215.82048 
L 196.908667 227.95344 
L 197.5176 224.48688 
L 198.735467 211.1984 
L 199.3444 214.0872 
L 199.953333 210.04288 
L 200.562267 230.26448 
L 201.1712 230.84224 
L 201.780133 219.28704 
L 202.998 233.73104 
L 203.606933 233.15328 
L 204.215867 221.59808 
L 204.8248 230.84224 
L 205.433733 225.06464 
L 206.042667 231.99776 
L 206.6516 232.57552 
L 207.260533 221.59808 
L 207.869467 232.57552 
L 208.4784 235.46432 
L 209.087333 234.88656 
L 209.696267 237.1976 
L 210.3052 236.61984 
L 210.914133 234.3088 
L 211.523067 218.13152 
L 212.132 231.99776 
L 212.740933 232.57552 
L 213.349867 230.26448 
L 213.9588 226.79792 
L 214.567733 226.22016 
L 215.176667 236.61984 
L 215.7856 238.35312 
L 216.394533 229.10896 
L 217.003467 223.90912 
L 217.6124 231.99776 
L 218.221333 225.6424 
L 218.830267 233.73104 
L 219.4392 227.37568 
L 220.048133 233.73104 
L 220.657067 227.95344 
L 221.266 236.61984 
L 221.874933 234.88656 
L 222.483867 221.02032 
L 223.0928 231.42 
L 223.701733 236.04208 
L 224.310667 223.33136 
L 224.9196 235.46432 
L 225.528533 225.06464 
L 226.137467 231.42 
L 226.7464 224.48688 
L 227.355333 233.73104 
L 227.964267 232.57552 
L 228.5732 224.48688 
L 229.182133 234.3088 
L 229.791067 237.77536 
L 230.4 235.46432 
L 231.008933 231.99776 
L 231.617867 225.06464 
L 232.2268 236.04208 
L 232.835733 231.42 
L 233.444667 230.26448 
L 234.0536 229.68672 
L 234.662533 228.5312 
L 235.271467 231.42 
L 235.8804 231.42 
L 236.489333 239.50864 
L 237.7072 238.35312 
L 238.316133 225.06464 
L 238.925067 238.35312 
L 239.534 226.22016 
L 240.142933 238.35312 
L 240.751867 224.48688 
L 241.3608 224.48688 
L 241.969733 236.04208 
L 242.578667 228.5312 
L 243.1876 238.93088 
L 243.796533 243.55296 
L 244.405467 236.61984 
L 245.0144 222.7536 
L 245.623333 230.84224 
L 246.232267 236.04208 
L 246.8412 227.95344 
L 247.450133 240.66416 
L 248.059067 240.0864 
L 248.668 221.59808 
L 249.276933 225.6424 
L 249.885867 221.59808 
L 250.4948 226.22016 
L 251.103733 238.93088 
L 251.712667 233.15328 
L 252.930533 220.44256 
L 253.539467 233.73104 
L 254.1484 238.93088 
L 254.757333 238.35312 
L 255.366267 237.1976 
L 255.9752 238.93088 
L 257.193067 227.37568 
L 257.802 233.15328 
L 258.410933 235.46432 
L 259.019867 239.50864 
L 259.6288 239.50864 
L 260.237733 226.79792 
L 260.846667 237.1976 
L 261.4556 225.6424 
L 262.064533 226.22016 
L 262.673467 239.50864 
L 263.2824 222.7536 
L 263.891333 234.88656 
L 264.500267 235.46432 
L 265.1092 226.22016 
L 265.718133 237.1976 
L 266.327067 229.10896 
L 266.936 227.95344 
L 267.544933 234.88656 
L 268.153867 224.48688 
L 268.7628 227.37568 
L 269.371733 229.68672 
L 269.980667 226.22016 
L 270.5896 227.95344 
L 271.198533 237.77536 
L 271.807467 240.66416 
L 272.4164 229.68672 
L 273.025333 238.93088 
L 274.2432 242.39744 
L 274.852133 226.79792 
L 275.461067 238.35312 
L 276.07 234.3088 
L 276.678933 239.50864 
L 277.287867 225.06464 
L 277.8968 241.24192 
L 278.505733 229.68672 
L 279.114667 225.06464 
L 280.332533 240.0864 
L 280.941467 240.0864 
L 281.5504 230.26448 
L 282.159333 233.15328 
L 282.768267 242.39744 
L 283.3772 238.93088 
L 283.986133 243.55296 
L 284.595067 227.95344 
L 285.204 225.06464 
L 285.812933 241.24192 
L 286.421867 226.79792 
L 287.0308 229.10896 
L 287.639733 244.13072 
L 288.248667 227.37568 
L 288.8576 228.5312 
L 289.466533 226.22016 
L 290.075467 231.42 
L 290.6844 235.46432 
L 291.293333 245.28624 
L 291.902267 229.10896 
L 292.5112 246.44176 
L 293.120133 239.50864 
L 293.729067 229.10896 
L 294.338 243.55296 
L 294.946933 233.15328 
L 295.555867 239.50864 
L 296.1648 242.39744 
L 296.773733 229.68672 
L 297.382667 241.24192 
L 297.9916 227.37568 
L 299.209467 230.84224 
L 299.8184 230.84224 
L 300.427333 229.68672 
L 301.036267 226.22016 
L 301.6452 245.864 
L 302.254133 230.26448 
L 302.863067 238.35312 
L 303.472 229.68672 
L 304.080933 218.70928 
L 304.689867 238.35312 
L 305.2988 224.48688 
L 305.907733 227.37568 
L 306.516667 229.68672 
L 307.1256 237.77536 
L 308.343467 224.48688 
L 308.9524 239.50864 
L 309.561333 240.0864 
L 310.170267 239.50864 
L 310.7792 235.46432 
L 311.388133 236.61984 
L 311.997067 229.10896 
L 312.606 231.99776 
L 313.214933 241.81968 
L 313.823867 240.66416 
L 314.4328 235.46432 
L 315.041733 241.81968 
L 315.650667 229.68672 
L 316.2596 243.55296 
L 316.868533 230.84224 
L 317.477467 229.68672 
L 318.0864 231.42 
L 318.695333 242.9752 
L 319.304267 235.46432 
L 319.9132 229.68672 
L 320.522133 229.68672 
L 321.131067 237.1976 
L 322.348933 225.06464 
L 322.957867 241.24192 
L 323.5668 229.10896 
L 324.175733 232.57552 
L 324.784667 234.88656 
L 325.3936 242.39744 
L 326.002533 230.26448 
L 326.611467 232.57552 
L 327.2204 240.0864 
L 327.829333 241.81968 
L 328.438267 238.93088 
L 329.0472 239.50864 
L 329.656133 238.93088 
L 330.265067 240.0864 
L 330.874 239.50864 
L 331.482933 240.0864 
L 332.091867 240.0864 
L 332.7008 229.10896 
L 333.309733 226.79792 
L 333.918667 241.81968 
L 334.5276 242.9752 
L 335.136533 242.39744 
L 335.745467 243.55296 
L 336.3544 236.04208 
L 336.963333 242.39744 
L 337.572267 228.5312 
L 338.1812 228.5312 
L 338.790133 242.39744 
L 339.399067 245.864 
L 340.008 245.28624 
L 340.616933 229.68672 
L 341.225867 242.9752 
L 341.8348 230.84224 
L 342.443733 230.84224 
L 343.052667 242.9752 
L 343.6616 242.39744 
L 344.270533 236.61984 
L 344.879467 229.68672 
L 345.4884 229.10896 
L 346.097333 241.24192 
L 346.706267 240.66416 
L 347.3152 225.06464 
L 348.533067 231.99776 
L 349.142 240.0864 
L 349.750933 243.55296 
L 350.359867 240.0864 
L 350.9688 227.95344 
L 351.577733 226.79792 
L 352.186667 241.24192 
L 352.7956 228.5312 
L 353.404533 224.48688 
L 354.013467 240.0864 
L 354.6224 237.77536 
L 355.231333 233.73104 
L 355.840267 234.88656 
L 356.4492 242.39744 
L 357.058133 229.10896 
L 357.667067 241.24192 
L 358.276 231.42 
L 358.884933 245.864 
L 359.493867 244.13072 
L 360.1028 225.6424 
L 360.711733 226.79792 
L 361.320667 229.68672 
L 361.9296 226.22016 
L 362.538533 233.15328 
L 363.147467 245.28624 
L 363.7564 231.42 
L 364.365333 232.57552 
L 364.974267 228.5312 
L 365.5832 242.9752 
L 366.192133 242.9752 
L 366.801067 230.84224 
L 367.41 246.44176 
L 368.018933 227.37568 
L 368.627867 236.04208 
L 369.2368 234.3088 
L 369.845733 240.0864 
L 370.454667 241.24192 
L 371.0636 243.55296 
L 371.672533 241.81968 
L 372.8904 242.9752 
L 373.499333 237.1976 
L 374.108267 229.10896 
L 374.7172 232.57552 
L 375.326133 240.66416 
L 375.935067 231.42 
L 376.544 231.42 
L 377.152933 241.81968 
L 377.761867 241.81968 
L 378.3708 244.70848 
L 378.979733 226.79792 
L 379.588667 245.864 
L 380.1976 230.26448 
L 380.806533 226.22016 
L 381.415467 230.84224 
L 382.0244 238.35312 
L 382.633333 240.66416 
L 383.8512 242.9752 
L 384.460133 241.24192 
L 385.069067 245.864 
L 385.678 232.57552 
L 386.286933 234.88656 
L 387.5048 243.55296 
L 388.113733 233.15328 
L 388.722667 231.42 
L 389.3316 231.99776 
L 389.940533 241.24192 
L 390.549467 229.68672 
L 391.1584 241.24192 
L 391.767333 231.99776 
L 392.376267 226.79792 
L 392.9852 240.66416 
L 393.594133 247.59728 
L 394.203067 230.84224 
L 394.812 230.84224 
L 395.420933 233.73104 
L 396.029867 237.1976 
L 396.6388 235.46432 
L 397.247733 228.5312 
L 397.856667 233.15328 
L 398.4656 228.5312 
L 399.074533 236.04208 
L 399.683467 233.15328 
L 400.2924 243.55296 
L 400.901333 230.26448 
L 401.510267 244.13072 
L 402.728133 241.81968 
L 403.337067 243.55296 
L 403.946 232.57552 
L 404.554933 236.04208 
L 405.163867 230.84224 
L 405.7728 241.24192 
L 406.381733 244.13072 
L 406.990667 240.66416 
L 407.5996 225.6424 
L 408.208533 226.79792 
L 408.817467 244.13072 
L 409.4264 242.9752 
L 410.035333 229.68672 
L 410.644267 242.9752 
L 411.2532 230.84224 
L 411.862133 226.79792 
L 412.471067 240.66416 
L 412.471067 240.66416 
" clip-path="url(#pa0479963ef)" style="fill: none; stroke-dasharray: 5.55,2.4; stroke-dashoffset: 0; stroke: #1f77b4; stroke-width: 1.5"/>
   </g>
   <g id="line2d_21">
    <path d="M 47.72 15.33776 
L 48.328933 15.33776 
L 48.937867 14.76 
L 49.5468 15.33776 
L 50.155733 15.33776 
L 50.764667 14.76 
L 51.3736 15.33776 
L 51.982533 14.76 
L 52.591467 15.91552 
L 53.2004 15.91552 
L 53.809333 15.33776 
L 54.418267 15.91552 
L 55.0272 17.07104 
L 55.636133 20.5376 
L 56.245067 21.11536 
L 56.854 25.15968 
L 57.462933 32.0928 
L 58.071867 28.04848 
L 58.6808 33.82608 
L 59.289733 42.49248 
L 59.898667 47.11456 
L 60.5076 48.84784 
L 61.116533 55.78096 
L 61.725467 68.49168 
L 62.943333 79.46912 
L 63.552267 85.82448 
L 64.1612 90.44656 
L 64.770133 89.29104 
L 65.379067 103.15728 
L 65.988 104.3128 
L 66.596933 112.9792 
L 67.205867 115.29024 
L 67.8148 122.80112 
L 68.423733 137.24512 
L 69.032667 140.71168 
L 69.6416 134.93408 
L 70.250533 136.66736 
L 70.859467 149.95584 
L 71.4684 142.44496 
L 72.077333 155.15568 
L 72.686267 164.9776 
L 73.2952 164.39984 
L 73.904133 184.04368 
L 74.513067 183.46592 
L 75.122 184.62144 
L 75.730933 196.7544 
L 76.339867 189.24352 
L 76.9488 190.9768 
L 77.557733 186.93248 
L 78.166667 188.66576 
L 78.7756 190.9768 
L 79.384533 214.0872 
L 79.993467 214.0872 
L 80.6024 218.13152 
L 81.211333 227.95344 
L 81.820267 221.59808 
L 82.4292 235.46432 
L 83.038133 231.99776 
L 83.647067 232.57552 
L 84.256 230.26448 
L 84.864933 233.73104 
L 85.473867 245.864 
L 86.0828 240.66416 
L 86.691733 244.70848 
L 87.300667 247.59728 
L 87.9096 251.6416 
L 88.518533 241.24192 
L 89.127467 260.88576 
L 89.7364 260.88576 
L 90.345333 250.48608 
L 90.954267 251.6416 
L 91.5632 248.7528 
L 92.172133 250.48608 
L 92.781067 248.17504 
L 93.39 252.79712 
L 93.998933 265.50784 
L 94.607867 256.84144 
L 95.2168 256.26368 
L 95.825733 253.95264 
L 96.434667 257.99696 
L 97.0436 260.308 
L 97.652533 270.12992 
L 98.261467 264.35232 
L 98.8704 272.44096 
L 99.479333 277.6408 
L 100.088267 278.21856 
L 100.6972 274.17424 
L 101.306133 281.10736 
L 101.915067 273.59648 
L 102.524 275.32976 
L 103.132933 274.752 
L 104.3508 268.9744 
L 104.959733 274.17424 
L 105.568667 264.35232 
L 106.1776 266.66336 
L 106.786533 273.01872 
L 107.395467 275.90752 
L 108.0044 276.48528 
L 109.222267 283.4184 
L 109.8312 276.48528 
L 110.440133 279.37408 
L 111.049067 277.6408 
L 111.658 286.88496 
L 112.266933 281.68512 
L 112.875867 279.95184 
L 113.4848 275.90752 
L 114.093733 283.4184 
L 114.702667 279.37408 
L 115.3116 285.72944 
L 115.920533 278.21856 
L 116.529467 279.37408 
L 117.1384 281.68512 
L 117.747333 281.68512 
L 118.356267 281.10736 
L 118.9652 281.68512 
L 119.574133 286.3072 
L 120.183067 287.46272 
L 120.792 286.88496 
L 121.400933 274.17424 
L 122.009867 275.90752 
L 122.6188 286.3072 
L 123.836667 280.5296 
L 124.4456 288.04048 
L 125.054533 287.46272 
L 125.663467 286.3072 
L 126.2724 279.37408 
L 126.881333 285.72944 
L 127.490267 282.84064 
L 128.0992 287.46272 
L 129.317067 278.79632 
L 129.926 286.3072 
L 130.534933 283.99616 
L 131.143867 278.79632 
L 131.7528 289.196 
L 132.361733 285.15168 
L 132.970667 288.61824 
L 133.5796 289.77376 
L 134.188533 285.72944 
L 134.797467 286.88496 
L 135.4064 292.0848 
L 136.015333 283.4184 
L 136.624267 286.88496 
L 137.2332 286.3072 
L 137.842133 283.99616 
L 138.451067 286.88496 
L 139.06 288.61824 
L 139.668933 289.196 
L 140.277867 286.88496 
L 140.8868 287.46272 
L 141.495733 281.68512 
L 142.104667 288.04048 
L 142.7136 285.72944 
L 143.322533 280.5296 
L 143.931467 286.3072 
L 144.5404 290.35152 
L 145.149333 285.15168 
L 145.758267 286.88496 
L 146.3672 281.68512 
L 146.976133 278.79632 
L 147.585067 285.15168 
L 148.194 279.95184 
L 148.802933 287.46272 
L 149.411867 286.88496 
L 150.0208 287.46272 
L 150.629733 288.61824 
L 151.238667 288.04048 
L 151.8476 288.04048 
L 152.456533 287.46272 
L 153.065467 285.72944 
L 153.6744 288.04048 
L 154.283333 290.92928 
L 154.892267 288.61824 
L 155.5012 292.0848 
L 156.110133 284.57392 
L 156.719067 288.61824 
L 157.328 283.4184 
L 158.545867 283.4184 
L 159.1548 289.196 
L 159.763733 291.50704 
L 160.372667 288.61824 
L 160.9816 289.196 
L 161.590533 291.50704 
L 162.199467 284.57392 
L 162.8084 288.04048 
L 163.417333 285.15168 
L 164.026267 290.92928 
L 164.6352 292.0848 
L 165.244133 286.3072 
L 165.853067 289.196 
L 166.462 286.88496 
L 167.679867 293.24032 
L 168.2888 292.66256 
L 168.897733 289.77376 
L 169.506667 289.77376 
L 170.1156 293.24032 
L 170.724533 290.35152 
L 171.333467 286.88496 
L 171.9424 285.15168 
L 172.551333 291.50704 
L 173.160267 291.50704 
L 173.7692 288.61824 
L 174.378133 292.0848 
L 174.987067 287.46272 
L 175.596 288.61824 
L 176.204933 290.35152 
L 176.813867 292.66256 
L 177.4228 293.81808 
L 178.031733 288.61824 
L 178.640667 292.0848 
L 179.2496 290.92928 
L 179.858533 292.0848 
L 180.467467 280.5296 
L 181.685333 285.15168 
L 182.294267 284.57392 
L 182.9032 290.92928 
L 183.512133 290.35152 
L 184.121067 287.46272 
L 184.73 288.04048 
L 185.338933 283.99616 
L 185.947867 290.35152 
L 186.5568 290.92928 
L 187.165733 285.15168 
L 187.774667 289.196 
L 188.3836 287.46272 
L 188.992533 284.57392 
L 189.601467 290.92928 
L 190.2104 292.66256 
L 190.819333 286.88496 
L 191.428267 285.72944 
L 192.0372 294.39584 
L 192.646133 289.196 
L 193.255067 286.88496 
L 193.864 285.72944 
L 194.472933 293.24032 
L 195.081867 288.04048 
L 195.6908 291.50704 
L 196.908667 289.196 
L 197.5176 283.99616 
L 198.126533 292.66256 
L 198.735467 293.81808 
L 199.3444 288.04048 
L 199.953333 285.15168 
L 200.562267 284.57392 
L 201.1712 287.46272 
L 202.389067 290.92928 
L 202.998 289.196 
L 204.215867 292.66256 
L 204.8248 293.81808 
L 205.433733 290.92928 
L 206.042667 293.24032 
L 206.6516 290.92928 
L 207.260533 290.92928 
L 207.869467 292.66256 
L 208.4784 290.92928 
L 209.087333 294.39584 
L 209.696267 289.196 
L 210.3052 291.50704 
L 210.914133 286.88496 
L 211.523067 285.72944 
L 212.132 294.39584 
L 212.740933 294.39584 
L 213.349867 288.61824 
L 213.9588 295.55136 
L 214.567733 288.61824 
L 215.176667 292.66256 
L 215.7856 289.77376 
L 216.394533 293.24032 
L 217.003467 292.0848 
L 217.6124 292.0848 
L 218.221333 289.77376 
L 218.830267 286.88496 
L 219.4392 286.88496 
L 220.048133 286.3072 
L 220.657067 290.92928 
L 221.266 291.50704 
L 221.874933 286.3072 
L 222.483867 292.0848 
L 223.0928 293.24032 
L 223.701733 292.66256 
L 224.310667 288.04048 
L 224.9196 292.66256 
L 225.528533 292.0848 
L 226.137467 290.35152 
L 226.7464 294.39584 
L 227.355333 290.92928 
L 228.5732 290.92928 
L 229.182133 293.24032 
L 229.791067 290.35152 
L 231.008933 290.35152 
L 231.617867 292.66256 
L 232.2268 290.35152 
L 233.444667 288.04048 
L 234.0536 288.04048 
L 234.662533 289.196 
L 235.271467 291.50704 
L 235.8804 290.92928 
L 236.489333 289.77376 
L 237.098267 292.0848 
L 237.7072 292.66256 
L 238.316133 292.66256 
L 239.534 293.81808 
L 240.142933 287.46272 
L 240.751867 290.92928 
L 241.3608 287.46272 
L 241.969733 288.04048 
L 242.578667 285.15168 
L 243.1876 286.3072 
L 243.796533 289.196 
L 244.405467 289.196 
L 245.0144 288.61824 
L 245.623333 292.0848 
L 246.232267 289.77376 
L 246.8412 285.15168 
L 247.450133 294.39584 
L 248.059067 290.92928 
L 248.668 293.24032 
L 249.276933 291.50704 
L 249.885867 286.3072 
L 250.4948 288.04048 
L 251.103733 292.66256 
L 251.712667 292.0848 
L 252.3216 290.92928 
L 252.930533 293.24032 
L 253.539467 288.04048 
L 254.1484 287.46272 
L 254.757333 289.77376 
L 255.366267 290.35152 
L 255.9752 285.15168 
L 256.584133 289.77376 
L 257.193067 286.3072 
L 257.802 291.50704 
L 258.410933 288.04048 
L 259.019867 286.3072 
L 259.6288 292.0848 
L 260.237733 285.15168 
L 260.846667 291.50704 
L 261.4556 287.46272 
L 262.064533 285.15168 
L 262.673467 294.9736 
L 263.2824 291.50704 
L 263.891333 293.24032 
L 264.500267 288.61824 
L 265.1092 287.46272 
L 265.718133 290.92928 
L 266.327067 285.72944 
L 266.936 293.81808 
L 267.544933 290.92928 
L 268.153867 292.66256 
L 268.7628 291.50704 
L 269.371733 289.77376 
L 269.980667 288.61824 
L 270.5896 289.196 
L 271.198533 289.196 
L 271.807467 289.77376 
L 272.4164 293.24032 
L 273.025333 292.66256 
L 273.634267 289.196 
L 274.2432 291.50704 
L 274.852133 286.88496 
L 275.461067 287.46272 
L 276.07 291.50704 
L 276.678933 287.46272 
L 277.287867 291.50704 
L 277.8968 292.0848 
L 278.505733 289.77376 
L 279.114667 283.4184 
L 280.332533 292.0848 
L 280.941467 292.0848 
L 281.5504 293.24032 
L 282.159333 289.196 
L 283.3772 288.04048 
L 283.986133 290.92928 
L 284.595067 290.35152 
L 285.204 292.0848 
L 285.812933 295.55136 
L 286.421867 288.04048 
L 287.0308 292.0848 
L 287.639733 293.81808 
L 288.248667 285.72944 
L 288.8576 285.72944 
L 289.466533 293.24032 
L 290.075467 290.35152 
L 290.6844 290.92928 
L 291.293333 290.35152 
L 291.902267 292.66256 
L 292.5112 294.39584 
L 293.120133 288.61824 
L 293.729067 290.92928 
L 294.338 289.196 
L 294.946933 289.77376 
L 295.555867 293.24032 
L 296.1648 293.81808 
L 296.773733 290.35152 
L 297.382667 289.77376 
L 297.9916 292.66256 
L 298.600533 289.196 
L 299.209467 289.77376 
L 299.8184 287.46272 
L 300.427333 293.81808 
L 301.036267 289.196 
L 301.6452 292.66256 
L 302.254133 287.46272 
L 302.863067 292.0848 
L 303.472 289.77376 
L 304.080933 289.77376 
L 304.689867 292.66256 
L 305.2988 290.35152 
L 305.907733 289.77376 
L 306.516667 290.92928 
L 307.1256 291.50704 
L 307.734533 290.92928 
L 308.343467 289.77376 
L 308.9524 292.66256 
L 309.561333 289.77376 
L 310.170267 288.61824 
L 310.7792 291.50704 
L 311.388133 294.9736 
L 311.997067 294.9736 
L 312.606 293.24032 
L 313.214933 294.39584 
L 313.823867 292.66256 
L 314.4328 288.04048 
L 315.041733 293.24032 
L 315.650667 293.24032 
L 316.2596 286.88496 
L 316.868533 290.35152 
L 317.477467 288.61824 
L 318.0864 288.61824 
L 318.695333 292.66256 
L 319.304267 287.46272 
L 319.9132 293.81808 
L 320.522133 283.99616 
L 321.131067 292.66256 
L 321.74 287.46272 
L 322.348933 293.24032 
L 322.957867 293.24032 
L 323.5668 289.77376 
L 324.175733 289.196 
L 324.784667 294.39584 
L 325.3936 290.92928 
L 326.002533 293.24032 
L 326.611467 289.196 
L 327.2204 287.46272 
L 327.829333 289.196 
L 328.438267 289.196 
L 329.0472 290.92928 
L 329.656133 293.81808 
L 330.265067 286.3072 
L 330.874 290.92928 
L 332.091867 287.46272 
L 332.7008 291.50704 
L 333.309733 290.35152 
L 333.918667 294.39584 
L 334.5276 283.99616 
L 335.136533 294.9736 
L 335.745467 289.77376 
L 336.3544 288.04048 
L 336.963333 289.196 
L 337.572267 283.4184 
L 338.1812 291.50704 
L 338.790133 286.88496 
L 339.399067 292.66256 
L 340.008 292.0848 
L 340.616933 289.196 
L 341.225867 290.92928 
L 341.8348 288.04048 
L 342.443733 292.0848 
L 343.052667 294.39584 
L 344.270533 285.72944 
L 344.879467 287.46272 
L 345.4884 284.57392 
L 346.097333 289.196 
L 346.706267 286.88496 
L 347.3152 290.92928 
L 347.924133 287.46272 
L 348.533067 285.72944 
L 349.142 289.77376 
L 350.359867 289.77376 
L 350.9688 287.46272 
L 351.577733 294.9736 
L 352.186667 292.0848 
L 352.7956 293.81808 
L 353.404533 289.196 
L 354.013467 292.0848 
L 354.6224 288.04048 
L 355.231333 289.196 
L 355.840267 289.77376 
L 356.4492 289.196 
L 357.058133 290.35152 
L 357.667067 290.35152 
L 358.276 286.3072 
L 358.884933 292.66256 
L 359.493867 290.35152 
L 360.1028 289.77376 
L 360.711733 290.35152 
L 361.320667 282.84064 
L 361.9296 287.46272 
L 362.538533 285.15168 
L 363.147467 284.57392 
L 363.7564 289.77376 
L 364.365333 283.99616 
L 364.974267 291.50704 
L 365.5832 290.92928 
L 366.801067 287.46272 
L 367.41 292.66256 
L 368.018933 288.04048 
L 368.627867 287.46272 
L 369.2368 285.72944 
L 369.845733 291.50704 
L 370.454667 289.196 
L 371.0636 288.61824 
L 371.672533 293.81808 
L 372.281467 294.39584 
L 372.8904 290.92928 
L 373.499333 294.39584 
L 374.108267 289.77376 
L 374.7172 294.39584 
L 375.326133 292.0848 
L 375.935067 292.0848 
L 376.544 288.04048 
L 377.152933 293.24032 
L 377.761867 292.0848 
L 378.3708 292.66256 
L 378.979733 288.61824 
L 380.1976 289.77376 
L 380.806533 293.81808 
L 381.415467 289.196 
L 382.0244 294.39584 
L 382.633333 290.35152 
L 383.242267 294.9736 
L 383.8512 286.3072 
L 384.460133 291.50704 
L 385.069067 288.61824 
L 385.678 286.3072 
L 386.286933 289.196 
L 386.895867 290.92928 
L 387.5048 288.61824 
L 388.113733 294.39584 
L 388.722667 292.0848 
L 389.3316 287.46272 
L 389.940533 287.46272 
L 390.549467 293.81808 
L 391.1584 289.77376 
L 391.767333 288.04048 
L 392.376267 286.88496 
L 392.9852 290.35152 
L 393.594133 288.61824 
L 394.203067 285.15168 
L 394.812 285.15168 
L 395.420933 294.39584 
L 396.029867 292.66256 
L 396.6388 285.72944 
L 397.247733 288.61824 
L 397.856667 288.04048 
L 398.4656 292.0848 
L 399.074533 288.61824 
L 399.683467 289.77376 
L 400.2924 292.66256 
L 400.901333 288.04048 
L 401.510267 293.24032 
L 402.1192 289.77376 
L 402.728133 290.35152 
L 403.337067 290.35152 
L 403.946 289.196 
L 404.554933 283.4184 
L 405.163867 290.92928 
L 405.7728 286.88496 
L 406.381733 292.66256 
L 406.990667 289.77376 
L 407.5996 292.66256 
L 408.208533 293.24032 
L 408.817467 288.61824 
L 409.4264 288.61824 
L 410.035333 289.196 
L 410.644267 292.0848 
L 411.2532 288.04048 
L 411.862133 286.3072 
L 412.471067 285.15168 
L 412.471067 285.15168 
" clip-path="url(#pa0479963ef)" style="fill: none; stroke-dasharray: 5.55,2.4; stroke-dashoffset: 0; stroke: #ff7f0e; stroke-width: 1.5"/>
   </g>
   <g id="line2d_22">
    <path d="M 47.72 14.76 
L 48.328933 15.33776 
L 48.937867 14.76 
L 54.418267 14.76 
L 55.0272 15.33776 
L 55.636133 17.6488 
L 56.245067 21.69312 
L 56.854 22.84864 
L 57.462933 26.3152 
L 58.071867 32.67056 
L 58.6808 37.29264 
L 59.289733 40.7592 
L 60.5076 62.13632 
L 61.116533 67.91392 
L 61.725467 81.2024 
L 62.3344 100.26848 
L 62.943333 104.89056 
L 63.552267 120.49008 
L 64.1612 123.37888 
L 64.770133 135.51184 
L 65.379067 132.62304 
L 65.988 156.3112 
L 66.596933 164.9776 
L 67.205867 189.24352 
L 67.8148 181.15488 
L 68.423733 192.71008 
L 69.032667 211.1984 
L 69.6416 215.24272 
L 70.250533 216.39824 
L 70.859467 215.24272 
L 71.4684 226.79792 
L 72.077333 247.01952 
L 72.686267 242.39744 
L 73.2952 255.68592 
L 73.904133 260.308 
L 74.513067 271.8632 
L 75.122 281.10736 
L 75.730933 271.28544 
L 76.339867 273.01872 
L 76.9488 279.37408 
L 77.557733 271.8632 
L 78.7756 283.4184 
L 79.384533 283.4184 
L 79.993467 279.95184 
L 80.6024 285.15168 
L 81.211333 292.0848 
L 81.820267 289.196 
L 82.4292 292.0848 
L 83.038133 292.0848 
L 83.647067 294.9736 
L 84.864933 286.3072 
L 85.473867 288.61824 
L 86.0828 292.0848 
L 86.691733 289.77376 
L 87.300667 296.12912 
L 87.9096 290.92928 
L 88.518533 289.77376 
L 89.127467 290.35152 
L 89.7364 293.24032 
L 90.345333 291.50704 
L 90.954267 293.81808 
L 91.5632 291.50704 
L 92.172133 292.66256 
L 92.781067 291.50704 
L 93.39 292.0848 
L 93.998933 290.92928 
L 94.607867 292.0848 
L 95.2168 293.81808 
L 95.825733 294.39584 
L 97.0436 292.0848 
L 97.652533 291.50704 
L 98.261467 294.9736 
L 98.8704 293.81808 
L 99.479333 293.81808 
L 100.088267 295.55136 
L 100.6972 296.70688 
L 101.306133 294.9736 
L 101.915067 290.92928 
L 102.524 294.9736 
L 103.132933 293.24032 
L 103.741867 293.81808 
L 104.3508 293.24032 
L 104.959733 293.24032 
L 105.568667 290.35152 
L 106.1776 294.9736 
L 106.786533 292.66256 
L 107.395467 296.70688 
L 108.0044 294.39584 
L 108.613333 297.28464 
L 109.222267 297.8624 
L 109.8312 292.66256 
L 110.440133 297.28464 
L 111.049067 296.12912 
L 111.658 291.50704 
L 112.266933 295.55136 
L 112.875867 292.66256 
L 113.4848 293.24032 
L 114.093733 294.39584 
L 114.702667 292.0848 
L 115.3116 299.01792 
L 115.920533 299.01792 
L 116.529467 294.9736 
L 117.1384 296.12912 
L 117.747333 294.9736 
L 118.356267 292.66256 
L 118.9652 296.70688 
L 119.574133 294.9736 
L 120.183067 292.66256 
L 120.792 292.66256 
L 121.400933 294.9736 
L 122.009867 295.55136 
L 122.6188 294.39584 
L 123.227733 290.35152 
L 123.836667 294.9736 
L 124.4456 292.0848 
L 125.054533 292.0848 
L 125.663467 298.44016 
L 126.2724 289.77376 
L 126.881333 290.35152 
L 127.490267 293.24032 
L 128.0992 296.70688 
L 129.317067 296.70688 
L 129.926 294.39584 
L 130.534933 296.70688 
L 131.143867 295.55136 
L 131.7528 294.9736 
L 132.361733 296.70688 
L 132.970667 294.9736 
L 133.5796 294.39584 
L 134.188533 296.12912 
L 134.797467 292.66256 
L 135.4064 293.81808 
L 136.015333 293.24032 
L 136.624267 293.81808 
L 137.2332 290.35152 
L 137.842133 290.92928 
L 138.451067 293.81808 
L 139.06 293.24032 
L 140.277867 296.70688 
L 140.8868 292.0848 
L 141.495733 293.81808 
L 142.104667 293.81808 
L 142.7136 292.66256 
L 143.322533 294.39584 
L 143.931467 294.9736 
L 144.5404 294.9736 
L 145.149333 292.0848 
L 145.758267 293.24032 
L 146.3672 292.0848 
L 146.976133 289.77376 
L 147.585067 290.35152 
L 148.194 293.24032 
L 148.802933 293.81808 
L 150.0208 291.50704 
L 150.629733 294.9736 
L 151.238667 291.50704 
L 151.8476 289.196 
L 152.456533 289.196 
L 153.065467 290.92928 
L 153.6744 296.70688 
L 154.892267 290.92928 
L 155.5012 294.9736 
L 156.719067 291.50704 
L 157.328 293.24032 
L 159.1548 293.24032 
L 159.763733 296.70688 
L 160.372667 297.28464 
L 160.9816 296.12912 
L 161.590533 296.12912 
L 162.199467 292.66256 
L 162.8084 293.24032 
L 163.417333 295.55136 
L 164.026267 295.55136 
L 164.6352 294.9736 
L 165.244133 293.24032 
L 165.853067 293.81808 
L 166.462 292.0848 
L 167.070933 294.9736 
L 167.679867 296.12912 
L 168.2888 295.55136 
L 168.897733 291.50704 
L 169.506667 290.92928 
L 170.1156 289.77376 
L 170.724533 288.04048 
L 171.333467 294.9736 
L 171.9424 295.55136 
L 172.551333 294.9736 
L 173.160267 295.55136 
L 173.7692 292.66256 
L 174.378133 292.66256 
L 174.987067 291.50704 
L 175.596 294.9736 
L 176.204933 292.66256 
L 176.813867 289.77376 
L 177.4228 291.50704 
L 178.031733 289.77376 
L 178.640667 292.66256 
L 179.2496 293.81808 
L 179.858533 292.0848 
L 180.467467 287.46272 
L 181.0764 295.55136 
L 181.685333 293.81808 
L 182.294267 291.50704 
L 182.9032 294.9736 
L 183.512133 293.81808 
L 184.121067 296.70688 
L 184.73 292.0848 
L 185.338933 293.24032 
L 185.947867 295.55136 
L 186.5568 294.9736 
L 187.165733 294.9736 
L 187.774667 288.61824 
L 188.3836 297.28464 
L 188.992533 291.50704 
L 189.601467 292.0848 
L 190.2104 293.24032 
L 190.819333 293.24032 
L 191.428267 292.66256 
L 192.0372 291.50704 
L 192.646133 294.9736 
L 193.255067 290.92928 
L 193.864 290.92928 
L 194.472933 294.9736 
L 195.081867 289.196 
L 195.6908 292.0848 
L 196.299733 295.55136 
L 196.908667 296.70688 
L 197.5176 288.04048 
L 198.126533 296.70688 
L 198.735467 291.50704 
L 199.3444 294.9736 
L 199.953333 295.55136 
L 200.562267 292.0848 
L 201.1712 295.55136 
L 201.780133 294.9736 
L 202.389067 293.24032 
L 202.998 296.12912 
L 203.606933 293.24032 
L 204.215867 294.9736 
L 204.8248 288.61824 
L 205.433733 293.24032 
L 206.042667 292.0848 
L 206.6516 290.35152 
L 207.260533 292.66256 
L 207.869467 290.35152 
L 208.4784 294.9736 
L 209.087333 296.12912 
L 209.696267 292.0848 
L 210.3052 292.66256 
L 210.914133 292.0848 
L 211.523067 293.81808 
L 212.132 290.92928 
L 212.740933 294.39584 
L 213.349867 292.0848 
L 213.9588 292.0848 
L 214.567733 294.9736 
L 215.176667 294.9736 
L 215.7856 296.70688 
L 216.394533 294.39584 
L 217.003467 294.9736 
L 217.6124 296.70688 
L 218.221333 294.9736 
L 218.830267 296.12912 
L 219.4392 289.77376 
L 220.048133 289.77376 
L 220.657067 290.92928 
L 221.266 293.81808 
L 221.874933 293.81808 
L 222.483867 289.77376 
L 223.0928 290.35152 
L 223.701733 292.0848 
L 224.310667 296.12912 
L 224.9196 293.24032 
L 226.137467 295.55136 
L 226.7464 293.81808 
L 227.355333 290.35152 
L 227.964267 294.9736 
L 228.5732 294.9736 
L 229.182133 290.92928 
L 229.791067 292.66256 
L 230.4 293.24032 
L 231.008933 295.55136 
L 231.617867 296.70688 
L 233.444667 296.70688 
L 234.0536 294.9736 
L 234.662533 293.81808 
L 235.271467 293.24032 
L 235.8804 294.9736 
L 236.489333 294.9736 
L 237.098267 293.24032 
L 237.7072 293.81808 
L 238.316133 294.9736 
L 239.534 293.81808 
L 240.142933 292.0848 
L 240.751867 293.24032 
L 241.3608 293.24032 
L 241.969733 290.35152 
L 242.578667 292.66256 
L 243.1876 293.24032 
L 243.796533 294.39584 
L 244.405467 292.0848 
L 245.0144 296.70688 
L 245.623333 296.70688 
L 246.232267 294.39584 
L 246.8412 290.35152 
L 247.450133 294.9736 
L 248.059067 292.66256 
L 248.668 292.0848 
L 249.276933 292.66256 
L 249.885867 289.77376 
L 251.103733 290.92928 
L 251.712667 295.55136 
L 252.3216 291.50704 
L 252.930533 292.0848 
L 253.539467 293.24032 
L 254.1484 289.77376 
L 254.757333 290.35152 
L 255.366267 289.196 
L 255.9752 288.61824 
L 256.584133 290.35152 
L 257.193067 289.196 
L 257.802 290.92928 
L 258.410933 294.9736 
L 259.019867 291.50704 
L 259.6288 292.0848 
L 260.237733 293.24032 
L 260.846667 295.55136 
L 261.4556 294.9736 
L 262.064533 292.0848 
L 262.673467 292.0848 
L 263.2824 296.70688 
L 263.891333 288.61824 
L 264.500267 289.196 
L 265.1092 288.61824 
L 265.718133 293.81808 
L 266.327067 294.9736 
L 266.936 294.9736 
L 267.544933 288.61824 
L 268.153867 293.24032 
L 268.7628 293.81808 
L 269.371733 295.55136 
L 269.980667 297.8624 
L 270.5896 290.92928 
L 271.807467 292.0848 
L 272.4164 293.24032 
L 273.634267 292.0848 
L 274.852133 292.0848 
L 275.461067 290.92928 
L 276.07 293.81808 
L 276.678933 290.92928 
L 277.287867 293.81808 
L 277.8968 294.39584 
L 278.505733 293.24032 
L 279.114667 294.9736 
L 279.7236 292.0848 
L 280.332533 293.81808 
L 280.941467 294.9736 
L 281.5504 290.92928 
L 282.159333 293.24032 
L 282.768267 294.39584 
L 283.3772 293.24032 
L 283.986133 296.70688 
L 284.595067 296.70688 
L 285.204 292.0848 
L 286.421867 292.0848 
L 287.0308 295.55136 
L 287.639733 296.12912 
L 288.248667 294.9736 
L 289.466533 294.9736 
L 290.075467 294.39584 
L 291.293333 295.55136 
L 291.902267 294.9736 
L 292.5112 292.0848 
L 293.120133 292.0848 
L 293.729067 294.39584 
L 294.338 289.77376 
L 294.946933 295.55136 
L 295.555867 294.9736 
L 296.1648 296.70688 
L 296.773733 293.24032 
L 297.382667 290.92928 
L 297.9916 294.39584 
L 298.600533 292.66256 
L 299.209467 294.9736 
L 299.8184 293.24032 
L 301.036267 290.92928 
L 301.6452 294.39584 
L 302.254133 290.92928 
L 302.863067 293.81808 
L 303.472 290.92928 
L 304.080933 290.92928 
L 304.689867 297.8624 
L 305.2988 293.81808 
L 306.516667 293.81808 
L 307.1256 292.0848 
L 307.734533 292.0848 
L 308.343467 292.66256 
L 308.9524 292.0848 
L 309.561333 294.9736 
L 310.7792 292.66256 
L 311.388133 293.81808 
L 311.997067 293.81808 
L 312.606 294.39584 
L 313.214933 290.35152 
L 313.823867 290.92928 
L 314.4328 293.81808 
L 315.041733 292.66256 
L 316.2596 292.66256 
L 316.868533 290.92928 
L 317.477467 291.50704 
L 318.0864 292.66256 
L 318.695333 294.9736 
L 319.304267 294.9736 
L 319.9132 296.70688 
L 320.522133 293.24032 
L 321.131067 294.9736 
L 322.348933 294.9736 
L 322.957867 293.24032 
L 324.175733 292.0848 
L 324.784667 290.35152 
L 325.3936 289.196 
L 326.002533 292.66256 
L 326.611467 294.9736 
L 327.2204 289.77376 
L 327.829333 290.35152 
L 328.438267 293.81808 
L 329.0472 294.9736 
L 329.656133 291.50704 
L 330.265067 294.9736 
L 330.874 295.55136 
L 332.091867 293.24032 
L 332.7008 294.9736 
L 335.136533 294.9736 
L 335.745467 291.50704 
L 336.3544 289.77376 
L 336.963333 293.81808 
L 337.572267 291.50704 
L 338.1812 290.92928 
L 338.790133 294.9736 
L 339.399067 294.39584 
L 340.008 289.77376 
L 341.225867 296.70688 
L 341.8348 295.55136 
L 342.443733 292.0848 
L 343.052667 293.81808 
L 343.6616 292.66256 
L 344.270533 292.0848 
L 344.879467 293.81808 
L 345.4884 293.81808 
L 346.097333 294.9736 
L 346.706267 295.55136 
L 347.3152 293.24032 
L 347.924133 294.9736 
L 348.533067 294.9736 
L 349.142 293.24032 
L 349.750933 294.9736 
L 350.359867 289.77376 
L 350.9688 292.0848 
L 351.577733 293.24032 
L 352.186667 287.46272 
L 352.7956 293.24032 
L 353.404533 290.92928 
L 354.013467 295.55136 
L 354.6224 290.35152 
L 355.231333 292.0848 
L 355.840267 294.9736 
L 357.058133 294.9736 
L 357.667067 290.35152 
L 358.884933 292.66256 
L 359.493867 293.24032 
L 360.1028 291.50704 
L 360.711733 290.92928 
L 361.320667 292.0848 
L 361.9296 291.50704 
L 362.538533 293.24032 
L 363.147467 291.50704 
L 363.7564 293.24032 
L 364.365333 293.81808 
L 364.974267 293.81808 
L 365.5832 294.9736 
L 366.192133 292.0848 
L 366.801067 288.04048 
L 367.41 290.35152 
L 368.018933 293.24032 
L 368.627867 288.04048 
L 369.2368 291.50704 
L 369.845733 296.12912 
L 370.454667 297.8624 
L 371.0636 291.50704 
L 371.672533 293.24032 
L 372.281467 293.24032 
L 372.8904 290.35152 
L 373.499333 290.92928 
L 374.108267 296.70688 
L 374.7172 293.24032 
L 375.326133 292.66256 
L 376.544 294.9736 
L 377.152933 296.70688 
L 377.761867 295.55136 
L 378.3708 292.0848 
L 378.979733 292.0848 
L 379.588667 290.35152 
L 380.1976 291.50704 
L 380.806533 294.39584 
L 381.415467 289.196 
L 382.0244 286.88496 
L 382.633333 294.39584 
L 383.242267 293.24032 
L 383.8512 288.61824 
L 384.460133 290.35152 
L 385.069067 293.24032 
L 385.678 289.77376 
L 386.286933 293.81808 
L 386.895867 292.0848 
L 387.5048 292.66256 
L 388.113733 293.81808 
L 388.722667 293.81808 
L 389.3316 288.04048 
L 390.549467 294.39584 
L 391.1584 288.04048 
L 391.767333 291.50704 
L 392.376267 289.196 
L 392.9852 295.55136 
L 393.594133 293.81808 
L 394.203067 291.50704 
L 394.812 289.77376 
L 395.420933 294.39584 
L 396.029867 290.92928 
L 396.6388 289.77376 
L 397.247733 289.77376 
L 397.856667 293.24032 
L 398.4656 292.66256 
L 399.074533 289.196 
L 399.683467 292.66256 
L 400.2924 293.24032 
L 400.901333 294.9736 
L 401.510267 289.196 
L 402.1192 293.24032 
L 402.728133 294.9736 
L 403.337067 294.9736 
L 403.946 292.66256 
L 404.554933 292.0848 
L 405.163867 290.92928 
L 405.7728 293.81808 
L 406.381733 292.66256 
L 406.990667 288.61824 
L 407.5996 287.46272 
L 408.208533 288.61824 
L 408.817467 286.88496 
L 409.4264 287.46272 
L 410.035333 289.77376 
L 411.2532 289.77376 
L 411.862133 292.66256 
L 412.471067 293.81808 
L 412.471067 293.81808 
" clip-path="url(#pa0479963ef)" style="fill: none; stroke-dasharray: 5.55,2.4; stroke-dashoffset: 0; stroke: #2ca02c; stroke-width: 1.5"/>
   </g>
   <g id="patch_7">
    <path d="M 47.72 303.64 
L 47.72 14.76 
" style="fill: none; stroke: #000000; stroke-width: 0.8; stroke-linejoin: miter; stroke-linecap: square"/>
   </g>
   <g id="patch_8">
    <path d="M 413.08 303.64 
L 413.08 14.76 
" style="fill: none; stroke: #000000; stroke-width: 0.8; stroke-linejoin: miter; stroke-linecap: square"/>
   </g>
   <g id="patch_9">
    <path d="M 47.72 303.64 
L 413.08 303.64 
" style="fill: none; stroke: #000000; stroke-width: 0.8; stroke-linejoin: miter; stroke-linecap: square"/>
   </g>
   <g id="patch_10">
    <path d="M 47.72 14.76 
L 413.08 14.76 
" style="fill: none; stroke: #000000; stroke-width: 0.8; stroke-linejoin: miter; stroke-linecap: square"/>
   </g>
   <g id="legend_1">
    <g id="patch_11">
     <path d="M 367.7175 66.794375 
L 406.08 66.794375 
Q 408.08 66.794375 408.08 64.794375 
L 408.08 21.76 
Q 408.08 19.76 406.08 19.76 
L 367.7175 19.76 
Q 365.7175 19.76 365.7175 21.76 
L 365.7175 64.794375 
Q 365.7175 66.794375 367.7175 66.794375 
z
" style="fill: #ffffff; opacity: 0.8; stroke: #cccccc; stroke-linejoin: miter"/>
    </g>
    <g id="line2d_23">
     <path d="M 369.7175 27.858437 
L 379.7175 27.858437 
L 389.7175 27.858437 
" style="fill: none; stroke-dasharray: 5.55,2.4; stroke-dashoffset: 0; stroke: #1f77b4; stroke-width: 1.5"/>
    </g>
    <g id="text_22">
     <!-- 0 -->
     <g transform="translate(397.7175 31.358437) scale(0.1 -0.1)">
      <use xlink:href="#DejaVuSans-30"/>
     </g>
    </g>
    <g id="line2d_24">
     <path d="M 369.7175 42.536563 
L 379.7175 42.536563 
L 389.7175 42.536563 
" style="fill: none; stroke-dasharray: 5.55,2.4; stroke-dashoffset: 0; stroke: #ff7f0e; stroke-width: 1.5"/>
    </g>
    <g id="text_23">
     <!-- 1 -->
     <g transform="translate(397.7175 46.036563) scale(0.1 -0.1)">
      <use xlink:href="#DejaVuSans-31"/>
     </g>
    </g>
    <g id="line2d_25">
     <path d="M 369.7175 57.214687 
L 379.7175 57.214687 
L 389.7175 57.214687 
" style="fill: none; stroke-dasharray: 5.55,2.4; stroke-dashoffset: 0; stroke: #2ca02c; stroke-width: 1.5"/>
    </g>
    <g id="text_24">
     <!-- 2 -->
     <g transform="translate(397.7175 60.714687) scale(0.1 -0.1)">
      <use xlink:href="#DejaVuSans-32"/>
     </g>
    </g>
   </g>
  </g>
 </g>
 <defs>
  <clipPath id="pa0479963ef">
   <rect x="47.72" y="14.76" width="365.36" height="288.88"/>
  </clipPath>
 </defs>
</svg>
