<?xml version="1.0" encoding="utf-8" standalone="no"?>
<!DOCTYPE svg PUBLIC "-//W3C//DTD SVG 1.1//EN"
  "http://www.w3.org/Graphics/SVG/1.1/DTD/svg11.dtd">
<svg xmlns:xlink="http://www.w3.org/1999/xlink" width="460.8pt" height="345.6pt" viewBox="0 0 460.8 345.6" xmlns="http://www.w3.org/2000/svg" version="1.1">
 <metadata>
  <rdf:RDF xmlns:dc="http://purl.org/dc/elements/1.1/" xmlns:cc="http://creativecommons.org/ns#" xmlns:rdf="http://www.w3.org/1999/02/22-rdf-syntax-ns#">
   <cc:Work>
    <dc:type rdf:resource="http://purl.org/dc/dcmitype/StillImage"/>
    <dc:date>2026-05-14T17:05:45.415097</dc:date>
    <dc:format>image/svg+xml</dc:format>
    <dc:creator>
     <cc:Agent>
      <dc:title>Matplotlib v3.7.5, https://matplotlib.org/</dc:title>
     </cc:Agent>
    </dc:creator>
   </cc:Work>
  </rdf:RDF>
 </metadata>
 <defs>
  <style type="text/css">*{stroke-linejoin: round; stroke-linecap: butt}</style>
 </defs>
 <g id="figure_1">
  <g id="patch_1">
   <path d="M 0 345.6 
L 460.8 345.6 
L 460.8 0 
L 0 0 
z
" style="fill: #ffffff"/>
  </g>
  <g id="axes_1">
   <g id="patch_2">
    <path d="M 47.72 303.64 
L 413.08 303.64 
L 413.08 14.76 
L 47.72 14.76 
z
" style="fill: #ffffff"/>
   </g>
   <g id="matplotlib.axis_1">
    <g id="xtick_1">
     <g id="line2d_1">
      <defs>
       <path id="md06df8dd14" d="M 0 0 
L 0 3.5 
" style="stroke: #000000; stroke-width: 0.8"/>
      </defs>
      <g>
       <use xlink:href="#md06df8dd14" x="47.72" y="303.64" style="stroke: #000000; stroke-width: 0.8"/>
      </g>
     </g>
     <g id="text_1">
      <!-- 0 -->
      <g transform="translate(44.53875 318.238437) scale(0.1 -0.1)">
       <defs>
        <path id="DejaVuSans-30" d="M 2034 4250 
Q 1547 4250 1301 3770 
Q 1056 3291 1056 2328 
Q 1056 1369 1301 889 
Q 1547 409 2034 409 
Q 2525 409 2770 889 
Q 3016 1369 3016 2328 
Q 3016 3291 2770 3770 
Q 2525 4250 2034 4250 
z
M 2034 4750 
Q 2819 4750 3233 4129 
Q 3647 3509 3647 2328 
Q 3647 1150 3233 529 
Q 2819 -91 2034 -91 
Q 1250 -91 836 529 
Q 422 1150 422 2328 
Q 422 3509 836 4129 
Q 1250 4750 2034 4750 
z
" transform="scale(0.015625)"/>
       </defs>
       <use xlink:href="#DejaVuSans-30"/>
      </g>
     </g>
    </g>
    <g id="xtick_2">
     <g id="line2d_2">
      <g>
       <use xlink:href="#md06df8dd14" x="108.613333" y="303.64" style="stroke: #000000; stroke-width: 0.8"/>
      </g>
     </g>
     <g id="text_2">
      <!-- 100 -->
      <g transform="translate(99.069583 318.238437) scale(0.1 -0.1)">
       <defs>
        <path id="DejaVuSans-31" d="M 794 531 
L 1825 531 
L 1825 4091 
L 703 3866 
L 703 4441 
L 1819 4666 
L 2450 4666 
L 2450 531 
L 3481 531 
L 3481 0 
L 794 0 
L 794 531 
z
" transform="scale(0.015625)"/>
       </defs>
       <use xlink:href="#DejaVuSans-31"/>
       <use xlink:href="#DejaVuSans-30" x="63.623047"/>
       <use xlink:href="#DejaVuSans-30" x="127.246094"/>
      </g>
     </g>
    </g>
    <g id="xtick_3">
     <g id="line2d_3">
      <g>
       <use xlink:href="#md06df8dd14" x="169.506667" y="303.64" style="stroke: #000000; stroke-width: 0.8"/>
      </g>
     </g>
     <g id="text_3">
      <!-- 200 -->
      <g transform="translate(159.962917 318.238437) scale(0.1 -0.1)">
       <defs>
        <path id="DejaVuSans-32" d="M 1228 531 
L 3431 531 
L 3431 0 
L 469 0 
L 469 531 
Q 828 903 1448 1529 
Q 2069 2156 2228 2338 
Q 2531 2678 2651 2914 
Q 2772 3150 2772 3378 
Q 2772 3750 2511 3984 
Q 2250 4219 1831 4219 
Q 1534 4219 1204 4116 
Q 875 4013 500 3803 
L 500 4441 
Q 881 4594 1212 4672 
Q 1544 4750 1819 4750 
Q 2544 4750 2975 4387 
Q 3406 4025 3406 3419 
Q 3406 3131 3298 2873 
Q 3191 2616 2906 2266 
Q 2828 2175 2409 1742 
Q 1991 1309 1228 531 
z
" transform="scale(0.015625)"/>
       </defs>
       <use xlink:href="#DejaVuSans-32"/>
       <use xlink:href="#DejaVuSans-30" x="63.623047"/>
       <use xlink:href="#DejaVuSans-30" x="127.246094"/>
      </g>
     </g>
    </g>
    <g id="xtick_4">
     <g id="line2d_4">
      <g>
       <use xlink:href="#md06df8dd14" x="230.4" y="303.64" style="stroke: #000000; stroke-width: 0.8"/>
      </g>
     </g>
     <g id="text_4">
      <!-- 300 -->
      <g transform="translate(220.85625 318.238437) scale(0.1 -0.1)">
       <defs>
        <path id="DejaVuSans-33" d="M 2597 2516 
Q 3050 2419 3304 2112 
Q 3559 1806 3559 1356 
Q 3559 666 3084 287 
Q 2609 -91 1734 -91 
Q 1441 -91 1130 -33 
Q 819 25 488 141 
L 488 750 
Q 750 597 1062 519 
Q 1375 441 1716 441 
Q 2309 441 2620 675 
Q 2931 909 2931 1356 
Q 2931 1769 2642 2001 
Q 2353 2234 1838 2234 
L 1294 2234 
L 1294 2753 
L 1863 2753 
Q 2328 2753 2575 2939 
Q 2822 3125 2822 3475 
Q 2822 3834 2567 4026 
Q 2313 4219 1838 4219 
Q 1578 4219 1281 4162 
Q 984 4106 628 3988 
L 628 4550 
Q 988 4650 1302 4700 
Q 1616 4750 1894 4750 
Q 2613 4750 3031 4423 
Q 3450 4097 3450 3541 
Q 3450 3153 3228 2886 
Q 3006 2619 2597 2516 
z
" transform="scale(0.015625)"/>
       </defs>
       <use xlink:href="#DejaVuSans-33"/>
       <use xlink:href="#DejaVuSans-30" x="63.623047"/>
       <use xlink:href="#DejaVuSans-30" x="127.246094"/>
      </g>
     </g>
    </g>
    <g id="xtick_5">
     <g id="line2d_5">
      <g>
       <use xlink:href="#md06df8dd14" x="291.293333" y="303.64" style="stroke: #000000; stroke-width: 0.8"/>
      </g>
     </g>
     <g id="text_5">
      <!-- 400 -->
      <g transform="translate(281.749583 318.238437) scale(0.1 -0.1)">
       <defs>
        <path id="DejaVuSans-34" d="M 2419 4116 
L 825 1625 
L 2419 1625 
L 2419 4116 
z
M 2253 4666 
L 3047 4666 
L 3047 1625 
L 3713 1625 
L 3713 1100 
L 3047 1100 
L 3047 0 
L 2419 0 
L 2419 1100 
L 313 1100 
L 313 1709 
L 2253 4666 
z
" transform="scale(0.015625)"/>
       </defs>
       <use xlink:href="#DejaVuSans-34"/>
       <use xlink:href="#DejaVuSans-30" x="63.623047"/>
       <use xlink:href="#DejaVuSans-30" x="127.246094"/>
      </g>
     </g>
    </g>
    <g id="xtick_6">
     <g id="line2d_6">
      <g>
       <use xlink:href="#md06df8dd14" x="352.186667" y="303.64" style="stroke: #000000; stroke-width: 0.8"/>
      </g>
     </g>
     <g id="text_6">
      <!-- 500 -->
      <g transform="translate(342.642917 318.238437) scale(0.1 -0.1)">
       <defs>
        <path id="DejaVuSans-35" d="M 691 4666 
L 3169 4666 
L 3169 4134 
L 1269 4134 
L 1269 2991 
Q 1406 3038 1543 3061 
Q 1681 3084 1819 3084 
Q 2600 3084 3056 2656 
Q 3513 2228 3513 1497 
Q 3513 744 3044 326 
Q 2575 -91 1722 -91 
Q 1428 -91 1123 -41 
Q 819 9 494 109 
L 494 744 
Q 775 591 1075 516 
Q 1375 441 1709 441 
Q 2250 441 2565 725 
Q 2881 1009 2881 1497 
Q 2881 1984 2565 2268 
Q 2250 2553 1709 2553 
Q 1456 2553 1204 2497 
Q 953 2441 691 2322 
L 691 4666 
z
" transform="scale(0.015625)"/>
       </defs>
       <use xlink:href="#DejaVuSans-35"/>
       <use xlink:href="#DejaVuSans-30" x="63.623047"/>
       <use xlink:href="#DejaVuSans-30" x="127.246094"/>
      </g>
     </g>
    </g>
    <g id="xtick_7">
     <g id="line2d_7">
      <g>
       <use xlink:href="#md06df8dd14" x="413.08" y="303.64" style="stroke: #000000; stroke-width: 0.8"/>
      </g>
     </g>
     <g id="text_7">
      <!-- 600 -->
      <g transform="translate(403.53625 318.238437) scale(0.1 -0.1)">
       <defs>
        <path id="DejaVuSans-36" d="M 2113 2584 
Q 1688 2584 1439 2293 
Q 1191 2003 1191 1497 
Q 1191 994 1439 701 
Q 1688 409 2113 409 
Q 2538 409 2786 701 
Q 3034 994 3034 1497 
Q 3034 2003 2786 2293 
Q 2538 2584 2113 2584 
z
M 3366 4563 
L 3366 3988 
Q 3128 4100 2886 4159 
Q 2644 4219 2406 4219 
Q 1781 4219 1451 3797 
Q 1122 3375 1075 2522 
Q 1259 2794 1537 2939 
Q 1816 3084 2150 3084 
Q 2853 3084 3261 2657 
Q 3669 2231 3669 1497 
Q 3669 778 3244 343 
Q 2819 -91 2113 -91 
Q 1303 -91 875 529 
Q 447 1150 447 2328 
Q 447 3434 972 4092 
Q 1497 4750 2381 4750 
Q 2619 4750 2861 4703 
Q 3103 4656 3366 4563 
z
" transform="scale(0.015625)"/>
       </defs>
       <use xlink:href="#DejaVuSans-36"/>
       <use xlink:href="#DejaVuSans-30" x="63.623047"/>
       <use xlink:href="#DejaVuSans-30" x="127.246094"/>
      </g>
     </g>
    </g>
    <g id="text_8">
     <!-- Epoch -->
     <g transform="translate(215.089063 331.916562) scale(0.1 -0.1)">
      <defs>
       <path id="DejaVuSans-45" d="M 628 4666 
L 3578 4666 
L 3578 4134 
L 1259 4134 
L 1259 2753 
L 3481 2753 
L 3481 2222 
L 1259 2222 
L 1259 531 
L 3634 531 
L 3634 0 
L 628 0 
L 628 4666 
z
" transform="scale(0.015625)"/>
       <path id="DejaVuSans-70" d="M 1159 525 
L 1159 -1331 
L 581 -1331 
L 581 3500 
L 1159 3500 
L 1159 2969 
Q 1341 3281 1617 3432 
Q 1894 3584 2278 3584 
Q 2916 3584 3314 3078 
Q 3713 2572 3713 1747 
Q 3713 922 3314 415 
Q 2916 -91 2278 -91 
Q 1894 -91 1617 61 
Q 1341 213 1159 525 
z
M 3116 1747 
Q 3116 2381 2855 2742 
Q 2594 3103 2138 3103 
Q 1681 3103 1420 2742 
Q 1159 2381 1159 1747 
Q 1159 1113 1420 752 
Q 1681 391 2138 391 
Q 2594 391 2855 752 
Q 3116 1113 3116 1747 
z
" transform="scale(0.015625)"/>
       <path id="DejaVuSans-6f" d="M 1959 3097 
Q 1497 3097 1228 2736 
Q 959 2375 959 1747 
Q 959 1119 1226 758 
Q 1494 397 1959 397 
Q 2419 397 2687 759 
Q 2956 1122 2956 1747 
Q 2956 2369 2687 2733 
Q 2419 3097 1959 3097 
z
M 1959 3584 
Q 2709 3584 3137 3096 
Q 3566 2609 3566 1747 
Q 3566 888 3137 398 
Q 2709 -91 1959 -91 
Q 1206 -91 779 398 
Q 353 888 353 1747 
Q 353 2609 779 3096 
Q 1206 3584 1959 3584 
z
" transform="scale(0.015625)"/>
       <path id="DejaVuSans-63" d="M 3122 3366 
L 3122 2828 
Q 2878 2963 2633 3030 
Q 2388 3097 2138 3097 
Q 1578 3097 1268 2742 
Q 959 2388 959 1747 
Q 959 1106 1268 751 
Q 1578 397 2138 397 
Q 2388 397 2633 464 
Q 2878 531 3122 666 
L 3122 134 
Q 2881 22 2623 -34 
Q 2366 -91 2075 -91 
Q 1284 -91 818 406 
Q 353 903 353 1747 
Q 353 2603 823 3093 
Q 1294 3584 2113 3584 
Q 2378 3584 2631 3529 
Q 2884 3475 3122 3366 
z
" transform="scale(0.015625)"/>
       <path id="DejaVuSans-68" d="M 3513 2113 
L 3513 0 
L 2938 0 
L 2938 2094 
Q 2938 2591 2744 2837 
Q 2550 3084 2163 3084 
Q 1697 3084 1428 2787 
Q 1159 2491 1159 1978 
L 1159 0 
L 581 0 
L 581 4863 
L 1159 4863 
L 1159 2956 
Q 1366 3272 1645 3428 
Q 1925 3584 2291 3584 
Q 2894 3584 3203 3211 
Q 3513 2838 3513 2113 
z
" transform="scale(0.015625)"/>
      </defs>
      <use xlink:href="#DejaVuSans-45"/>
      <use xlink:href="#DejaVuSans-70" x="63.183594"/>
      <use xlink:href="#DejaVuSans-6f" x="126.660156"/>
      <use xlink:href="#DejaVuSans-63" x="187.841797"/>
      <use xlink:href="#DejaVuSans-68" x="242.822266"/>
     </g>
    </g>
   </g>
   <g id="matplotlib.axis_2">
    <g id="ytick_1">
     <g id="line2d_8">
      <defs>
       <path id="m83e544589e" d="M 0 0 
L -3.5 0 
" style="stroke: #000000; stroke-width: 0.8"/>
      </defs>
      <g>
       <use xlink:href="#m83e544589e" x="47.72" y="273.084155" style="stroke: #000000; stroke-width: 0.8"/>
      </g>
     </g>
     <g id="text_9">
      <!-- 20 -->
      <g transform="translate(27.995 276.883374) scale(0.1 -0.1)">
       <use xlink:href="#DejaVuSans-32"/>
       <use xlink:href="#DejaVuSans-30" x="63.623047"/>
      </g>
     </g>
    </g>
    <g id="ytick_2">
     <g id="line2d_9">
      <g>
       <use xlink:href="#m83e544589e" x="47.72" y="209.273549" style="stroke: #000000; stroke-width: 0.8"/>
      </g>
     </g>
     <g id="text_10">
      <!-- 40 -->
      <g transform="translate(27.995 213.072768) scale(0.1 -0.1)">
       <use xlink:href="#DejaVuSans-34"/>
       <use xlink:href="#DejaVuSans-30" x="63.623047"/>
      </g>
     </g>
    </g>
    <g id="ytick_3">
     <g id="line2d_10">
      <g>
       <use xlink:href="#m83e544589e" x="47.72" y="145.462944" style="stroke: #000000; stroke-width: 0.8"/>
      </g>
     </g>
     <g id="text_11">
      <!-- 60 -->
      <g transform="translate(27.995 149.262162) scale(0.1 -0.1)">
       <use xlink:href="#DejaVuSans-36"/>
       <use xlink:href="#DejaVuSans-30" x="63.623047"/>
      </g>
     </g>
    </g>
    <g id="ytick_4">
     <g id="line2d_11">
      <g>
       <use xlink:href="#m83e544589e" x="47.72" y="81.652338" style="stroke: #000000; stroke-width: 0.8"/>
      </g>
     </g>
     <g id="text_12">
      <!-- 80 -->
      <g transform="translate(27.995 85.451556) scale(0.1 -0.1)">
       <defs>
        <path id="DejaVuSans-38" d="M 2034 2216 
Q 1584 2216 1326 1975 
Q 1069 1734 1069 1313 
Q 1069 891 1326 650 
Q 1584 409 2034 409 
Q 2484 409 2743 651 
Q 3003 894 3003 1313 
Q 3003 1734 2745 1975 
Q 2488 2216 2034 2216 
z
M 1403 2484 
Q 997 2584 770 2862 
Q 544 3141 544 3541 
Q 544 4100 942 4425 
Q 1341 4750 2034 4750 
Q 2731 4750 3128 4425 
Q 3525 4100 3525 3541 
Q 3525 3141 3298 2862 
Q 3072 2584 2669 2484 
Q 3125 2378 3379 2068 
Q 3634 1759 3634 1313 
Q 3634 634 3220 271 
Q 2806 -91 2034 -91 
Q 1263 -91 848 271 
Q 434 634 434 1313 
Q 434 1759 690 2068 
Q 947 2378 1403 2484 
z
M 1172 3481 
Q 1172 3119 1398 2916 
Q 1625 2713 2034 2713 
Q 2441 2713 2670 2916 
Q 2900 3119 2900 3481 
Q 2900 3844 2670 4047 
Q 2441 4250 2034 4250 
Q 1625 4250 1398 4047 
Q 1172 3844 1172 3481 
z
" transform="scale(0.015625)"/>
       </defs>
       <use xlink:href="#DejaVuSans-38"/>
       <use xlink:href="#DejaVuSans-30" x="63.623047"/>
      </g>
     </g>
    </g>
    <g id="ytick_5">
     <g id="line2d_12">
      <g>
       <use xlink:href="#m83e544589e" x="47.72" y="17.841732" style="stroke: #000000; stroke-width: 0.8"/>
      </g>
     </g>
     <g id="text_13">
      <!-- 100 -->
      <g transform="translate(21.6325 21.640951) scale(0.1 -0.1)">
       <use xlink:href="#DejaVuSans-31"/>
       <use xlink:href="#DejaVuSans-30" x="63.623047"/>
       <use xlink:href="#DejaVuSans-30" x="127.246094"/>
      </g>
     </g>
    </g>
    <g id="text_14">
     <!-- Performance -->
     <g transform="translate(15.552813 190.882031) rotate(-90) scale(0.1 -0.1)">
      <defs>
       <path id="DejaVuSans-50" d="M 1259 4147 
L 1259 2394 
L 2053 2394 
Q 2494 2394 2734 2622 
Q 2975 2850 2975 3272 
Q 2975 3691 2734 3919 
Q 2494 4147 2053 4147 
L 1259 4147 
z
M 628 4666 
L 2053 4666 
Q 2838 4666 3239 4311 
Q 3641 3956 3641 3272 
Q 3641 2581 3239 2228 
Q 2838 1875 2053 1875 
L 1259 1875 
L 1259 0 
L 628 0 
L 628 4666 
z
" transform="scale(0.015625)"/>
       <path id="DejaVuSans-65" d="M 3597 1894 
L 3597 1613 
L 953 1613 
Q 991 1019 1311 708 
Q 1631 397 2203 397 
Q 2534 397 2845 478 
Q 3156 559 3463 722 
L 3463 178 
Q 3153 47 2828 -22 
Q 2503 -91 2169 -91 
Q 1331 -91 842 396 
Q 353 884 353 1716 
Q 353 2575 817 3079 
Q 1281 3584 2069 3584 
Q 2775 3584 3186 3129 
Q 3597 2675 3597 1894 
z
M 3022 2063 
Q 3016 2534 2758 2815 
Q 2500 3097 2075 3097 
Q 1594 3097 1305 2825 
Q 1016 2553 972 2059 
L 3022 2063 
z
" transform="scale(0.015625)"/>
       <path id="DejaVuSans-72" d="M 2631 2963 
Q 2534 3019 2420 3045 
Q 2306 3072 2169 3072 
Q 1681 3072 1420 2755 
Q 1159 2438 1159 1844 
L 1159 0 
L 581 0 
L 581 3500 
L 1159 3500 
L 1159 2956 
Q 1341 3275 1631 3429 
Q 1922 3584 2338 3584 
Q 2397 3584 2469 3576 
Q 2541 3569 2628 3553 
L 2631 2963 
z
" transform="scale(0.015625)"/>
       <path id="DejaVuSans-66" d="M 2375 4863 
L 2375 4384 
L 1825 4384 
Q 1516 4384 1395 4259 
Q 1275 4134 1275 3809 
L 1275 3500 
L 2222 3500 
L 2222 3053 
L 1275 3053 
L 1275 0 
L 697 0 
L 697 3053 
L 147 3053 
L 147 3500 
L 697 3500 
L 697 3744 
Q 697 4328 969 4595 
Q 1241 4863 1831 4863 
L 2375 4863 
z
" transform="scale(0.015625)"/>
       <path id="DejaVuSans-6d" d="M 3328 2828 
Q 3544 3216 3844 3400 
Q 4144 3584 4550 3584 
Q 5097 3584 5394 3201 
Q 5691 2819 5691 2113 
L 5691 0 
L 5113 0 
L 5113 2094 
Q 5113 2597 4934 2840 
Q 4756 3084 4391 3084 
Q 3944 3084 3684 2787 
Q 3425 2491 3425 1978 
L 3425 0 
L 2847 0 
L 2847 2094 
Q 2847 2600 2669 2842 
Q 2491 3084 2119 3084 
Q 1678 3084 1418 2786 
Q 1159 2488 1159 1978 
L 1159 0 
L 581 0 
L 581 3500 
L 1159 3500 
L 1159 2956 
Q 1356 3278 1631 3431 
Q 1906 3584 2284 3584 
Q 2666 3584 2933 3390 
Q 3200 3197 3328 2828 
z
" transform="scale(0.015625)"/>
       <path id="DejaVuSans-61" d="M 2194 1759 
Q 1497 1759 1228 1600 
Q 959 1441 959 1056 
Q 959 750 1161 570 
Q 1363 391 1709 391 
Q 2188 391 2477 730 
Q 2766 1069 2766 1631 
L 2766 1759 
L 2194 1759 
z
M 3341 1997 
L 3341 0 
L 2766 0 
L 2766 531 
Q 2569 213 2275 61 
Q 1981 -91 1556 -91 
Q 1019 -91 701 211 
Q 384 513 384 1019 
Q 384 1609 779 1909 
Q 1175 2209 1959 2209 
L 2766 2209 
L 2766 2266 
Q 2766 2663 2505 2880 
Q 2244 3097 1772 3097 
Q 1472 3097 1187 3025 
Q 903 2953 641 2809 
L 641 3341 
Q 956 3463 1253 3523 
Q 1550 3584 1831 3584 
Q 2591 3584 2966 3190 
Q 3341 2797 3341 1997 
z
" transform="scale(0.015625)"/>
       <path id="DejaVuSans-6e" d="M 3513 2113 
L 3513 0 
L 2938 0 
L 2938 2094 
Q 2938 2591 2744 2837 
Q 2550 3084 2163 3084 
Q 1697 3084 1428 2787 
Q 1159 2491 1159 1978 
L 1159 0 
L 581 0 
L 581 3500 
L 1159 3500 
L 1159 2956 
Q 1366 3272 1645 3428 
Q 1925 3584 2291 3584 
Q 2894 3584 3203 3211 
Q 3513 2838 3513 2113 
z
" transform="scale(0.015625)"/>
      </defs>
      <use xlink:href="#DejaVuSans-50"/>
      <use xlink:href="#DejaVuSans-65" x="56.677734"/>
      <use xlink:href="#DejaVuSans-72" x="118.201172"/>
      <use xlink:href="#DejaVuSans-66" x="159.314453"/>
      <use xlink:href="#DejaVuSans-6f" x="194.519531"/>
      <use xlink:href="#DejaVuSans-72" x="255.701172"/>
      <use xlink:href="#DejaVuSans-6d" x="295.064453"/>
      <use xlink:href="#DejaVuSans-61" x="392.476562"/>
      <use xlink:href="#DejaVuSans-6e" x="453.755859"/>
      <use xlink:href="#DejaVuSans-63" x="517.134766"/>
      <use xlink:href="#DejaVuSans-65" x="572.115234"/>
     </g>
    </g>
   </g>
   <g id="line2d_13">
    <path d="M 47.72 259.978766 
L 48.328933 280.300414 
L 48.937867 279.056231 
L 49.5468 290.509091 
L 50.155733 273.250045 
L 50.764667 189.092274 
L 51.3736 152.181528 
L 51.982533 138.686937 
L 52.591467 133.486893 
L 53.2004 130.839014 
L 53.809333 116.642576 
L 54.418267 118.397183 
L 55.0272 101.840002 
L 55.636133 130.328591 
L 56.245067 115.334593 
L 56.854 111.41062 
L 57.462933 99.383524 
L 58.6808 118.748119 
L 59.289733 82.315896 
L 59.898667 85.218998 
L 60.5076 86.686493 
L 61.116533 88.536811 
L 62.3344 78.519546 
L 62.943333 79.125682 
L 63.552267 83.560079 
L 64.1612 86.271757 
L 64.770133 74.499885 
L 65.379067 68.438481 
L 65.988 70.0336 
L 66.596933 70.735448 
L 67.205867 69.778376 
L 67.8148 69.650776 
L 68.423733 68.215169 
L 69.032667 63.844572 
L 69.6416 60.303447 
L 70.250533 61.770942 
L 70.859467 64.163596 
L 71.4684 63.429861 
L 72.077333 59.697311 
L 72.686267 59.250688 
L 73.2952 58.325504 
L 73.904133 61.260518 
L 75.122 60.973382 
L 75.730933 56.188074 
L 76.339867 56.188074 
L 76.9488 60.335359 
L 78.166667 58.708352 
L 78.7756 60.399159 
L 79.384533 59.186863 
L 79.993467 57.240833 
L 80.6024 56.251873 
L 81.211333 58.006504 
L 81.820267 58.931664 
L 83.647067 51.913188 
L 84.864933 54.497267 
L 85.473867 56.283786 
L 86.691733 50.573293 
L 87.9096 53.859219 
L 88.518533 53.284971 
L 89.7364 50.988029 
L 90.345333 51.338941 
L 90.954267 53.157372 
L 91.5632 51.594165 
L 92.172133 50.509493 
L 92.781067 51.785589 
L 93.39 50.573293 
L 93.998933 49.680046 
L 94.607867 49.520534 
L 95.825733 47.06408 
L 96.434667 47.383079 
L 97.0436 48.340151 
L 98.261467 51.179453 
L 98.8704 51.498453 
L 99.479333 50.892317 
L 100.088267 50.637118 
L 100.6972 49.26531 
L 101.306133 49.26531 
L 101.915067 48.403951 
L 102.524 48.722975 
L 103.132933 47.893527 
L 103.741867 46.170808 
L 104.3508 46.776944 
L 104.959733 46.521744 
L 105.568667 47.095968 
L 106.1776 48.882487 
L 106.786533 48.372063 
L 107.395467 47.414992 
L 108.0044 46.745056 
L 108.613333 46.808856 
L 109.222267 45.819897 
L 109.8312 44.38429 
L 111.049067 44.065266 
L 111.658 43.45913 
L 112.266933 44.224778 
L 112.875867 45.181849 
L 113.4848 47.032168 
L 114.093733 44.830913 
L 114.702667 43.33153 
L 115.3116 43.810042 
L 115.920533 44.735226 
L 116.529467 43.778154 
L 117.747333 43.873866 
L 118.356267 44.097178 
L 118.9652 43.172019 
L 119.574133 41.768324 
L 120.183067 43.140106 
L 120.792 44.926625 
L 121.400933 47.606416 
L 122.009867 46.521744 
L 122.6188 44.830913 
L 123.227733 44.001466 
L 123.836667 44.097178 
L 124.4456 45.405161 
L 125.054533 45.054225 
L 125.663467 44.480002 
L 126.881333 40.811252 
L 127.490267 41.066476 
L 128.0992 43.58673 
L 128.708133 47.223568 
L 129.317067 47.829727 
L 129.926 47.19168 
L 130.534933 43.235818 
L 131.143867 41.034564 
L 131.7528 40.906964 
L 132.361733 41.5131 
L 132.970667 42.565883 
L 133.5796 44.288578 
L 134.188533 43.778154 
L 134.797467 41.3217 
L 135.4064 40.173204 
L 136.015333 40.013693 
L 136.624267 40.58794 
L 137.2332 40.268916 
L 138.451067 37.971974 
L 139.06 38.131486 
L 140.277867 41.289788 
L 140.8868 41.162188 
L 141.495733 40.013693 
L 142.104667 39.886093 
L 142.7136 39.311845 
L 143.322533 39.567069 
L 143.931467 40.173204 
L 144.5404 39.662781 
L 145.149333 40.58794 
L 145.758267 41.959723 
L 146.3672 42.725371 
L 146.976133 42.693483 
L 147.585067 41.066476 
L 148.194 38.609997 
L 148.802933 37.365839 
L 149.411867 37.142502 
L 150.0208 37.142502 
L 151.238667 39.056645 
L 151.8476 38.705709 
L 153.6744 36.663991 
L 154.283333 36.536367 
L 154.892267 36.855391 
L 156.110133 37.174415 
L 156.719067 37.174415 
L 157.936933 39.822293 
L 158.545867 39.822293 
L 159.1548 39.311845 
L 159.763733 37.046815 
L 160.372667 35.898319 
L 160.9816 36.408767 
L 161.590533 38.259086 
L 162.8084 40.811252 
L 163.417333 41.098364 
L 164.026267 41.5131 
L 165.244133 38.673822 
L 165.853067 37.940062 
L 166.462 38.801421 
L 167.679867 39.981805 
L 169.506667 38.992845 
L 170.1156 38.482398 
L 171.333467 37.014903 
L 171.9424 35.611208 
L 172.551333 35.675008 
L 173.160267 36.153543 
L 174.378133 36.791591 
L 175.596 35.57932 
L 176.204933 35.962144 
L 177.4228 39.216157 
L 178.031733 39.056645 
L 178.640667 36.823503 
L 179.2496 36.249255 
L 181.0764 35.324096 
L 181.685333 35.962144 
L 182.294267 36.791591 
L 182.9032 38.705709 
L 183.512133 42.789195 
L 184.121067 42.533971 
L 185.338933 35.611208 
L 185.947867 34.84556 
L 186.5568 36.472567 
L 187.165733 39.790381 
L 187.774667 40.71554 
L 188.3836 41.034564 
L 188.992533 41.098364 
L 189.601467 40.013693 
L 190.2104 39.790381 
L 190.819333 39.694693 
L 191.428267 38.897133 
L 192.646133 37.908174 
L 193.255067 37.84435 
L 193.864 37.525326 
L 195.081867 38.099574 
L 195.6908 39.598981 
L 196.299733 38.322886 
L 196.908667 35.866432 
L 198.126533 36.217343 
L 199.3444 38.067662 
L 199.953333 37.812462 
L 200.562267 36.089743 
L 201.1712 34.71796 
L 201.780133 33.728977 
L 202.389067 34.016113 
L 202.998 34.813648 
L 204.215867 36.982991 
L 205.433733 34.71796 
L 206.042667 33.154753 
L 206.6516 32.325282 
L 207.260533 32.803817 
L 207.869467 32.420994 
L 208.4784 32.676218 
L 209.087333 32.612418 
L 209.696267 32.77193 
L 210.3052 32.165794 
L 210.914133 31.814858 
L 211.523067 31.91057 
L 212.132 32.452906 
L 212.740933 33.154753 
L 213.349867 33.665177 
L 213.9588 33.792801 
L 215.176667 34.398937 
L 215.7856 34.90936 
L 217.003467 32.740018 
L 218.221333 32.133882 
L 218.830267 33.250465 
L 219.4392 35.100784 
L 220.657067 37.908174 
L 221.266 38.003862 
L 222.483867 34.271312 
L 223.0928 33.122841 
L 223.701733 32.963329 
L 224.310667 33.888489 
L 224.9196 34.526536 
L 225.528533 34.143713 
L 226.137467 32.516706 
L 226.7464 32.261482 
L 227.355333 32.548618 
L 227.964267 34.654136 
L 229.182133 37.58915 
L 229.791067 38.386686 
L 230.4 37.110615 
L 231.617867 32.516706 
L 232.2268 31.878658 
L 232.835733 32.516706 
L 233.444667 34.654136 
L 234.0536 35.451696 
L 234.662533 35.260296 
L 235.8804 33.665177 
L 236.489333 33.473777 
L 237.098267 33.856601 
L 237.7072 33.792801 
L 238.316133 34.175625 
L 238.925067 34.271312 
L 240.142933 34.048001 
L 240.751867 34.143713 
L 241.3608 34.079913 
L 241.969733 34.207513 
L 242.578667 33.346153 
L 243.1876 32.995242 
L 244.405467 32.580506 
L 245.0144 32.867617 
L 245.623333 32.77193 
L 246.232267 32.261482 
L 247.450133 32.293394 
L 248.059067 32.516706 
L 248.668 32.325282 
L 249.276933 32.006282 
L 249.885867 32.006282 
L 250.4948 31.814858 
L 251.103733 31.91057 
L 252.3216 32.484794 
L 252.930533 32.389106 
L 253.539467 32.420994 
L 254.1484 32.325282 
L 254.757333 32.452906 
L 255.9752 32.03817 
L 256.584133 32.03817 
L 257.802 31.368235 
L 258.410933 31.591546 
L 259.6288 31.591546 
L 260.846667 32.389106 
L 262.064533 32.325282 
L 262.673467 32.133882 
L 263.891333 31.400122 
L 264.500267 31.400122 
L 265.1092 31.176811 
L 266.327067 31.942458 
L 266.936 32.165794 
L 267.544933 32.229594 
L 268.7628 31.495834 
L 269.371733 31.432035 
L 269.980667 31.495834 
L 270.5896 32.133882 
L 271.198533 32.580506 
L 271.807467 33.409953 
L 273.025333 34.016113 
L 274.852133 30.953499 
L 275.461067 30.506875 
L 276.07 30.602587 
L 276.678933 30.443075 
L 277.8968 32.133882 
L 278.505733 33.154753 
L 279.114667 33.090954 
L 279.7236 32.644306 
L 280.332533 31.495834 
L 280.941467 30.921611 
L 282.159333 30.921611 
L 284.595067 31.463947 
L 285.204 31.368235 
L 286.421867 31.017299 
L 287.639733 30.857787 
L 288.248667 31.113011 
L 288.8576 30.730187 
L 289.466533 31.017299 
L 290.6844 32.03817 
L 291.293333 32.133882 
L 292.5112 31.655346 
L 293.120133 30.985411 
L 293.729067 30.506875 
L 294.338 30.921611 
L 294.946933 31.751058 
L 295.555867 32.133882 
L 296.1648 32.995242 
L 296.773733 33.282353 
L 297.382667 32.77193 
L 298.600533 30.985411 
L 299.209467 30.762099 
L 299.8184 30.251651 
L 300.427333 30.347363 
L 301.036267 30.730187 
L 301.6452 31.368235 
L 302.254133 31.719146 
L 302.863067 31.814858 
L 303.472 31.782946 
L 304.689867 31.017299 
L 305.2988 30.857787 
L 306.516667 31.687258 
L 307.1256 31.878658 
L 307.734533 32.389106 
L 308.343467 33.122841 
L 308.9524 33.122841 
L 309.561333 33.537577 
L 310.170267 32.548618 
L 310.7792 31.336323 
L 311.388133 31.368235 
L 311.997067 30.921611 
L 312.606 31.049211 
L 313.214933 30.857787 
L 313.823867 30.092139 
L 315.041733 30.028339 
L 315.650667 29.677428 
L 316.868533 29.517916 
L 317.477467 29.262692 
L 319.304267 29.741228 
L 319.9132 30.411163 
L 321.74 30.474963 
L 322.348933 31.113011 
L 322.957867 31.208723 
L 323.5668 31.591546 
L 324.175733 31.336323 
L 324.784667 30.602587 
L 325.3936 30.187851 
L 326.002533 30.092139 
L 326.611467 31.782946 
L 327.2204 33.059041 
L 327.829333 32.803817 
L 328.438267 32.133882 
L 329.0472 31.814858 
L 329.656133 31.081099 
L 330.265067 30.666387 
L 330.874 29.932627 
L 332.091867 31.495834 
L 332.7008 32.516706 
L 333.918667 31.751058 
L 334.5276 31.208723 
L 335.136533 31.113011 
L 335.745467 30.443075 
L 336.3544 29.96454 
L 338.1812 30.379275 
L 338.790133 30.155939 
L 339.399067 29.741228 
L 340.008 30.124051 
L 341.225867 30.060252 
L 342.443733 30.283563 
L 343.052667 30.028339 
L 343.6616 29.996427 
L 344.879467 30.570675 
L 345.4884 31.208723 
L 346.706267 32.165794 
L 347.3152 32.612418 
L 348.533067 31.591546 
L 349.142 31.432035 
L 349.750933 30.921611 
L 350.359867 31.113011 
L 350.9688 30.889699 
L 351.577733 31.176811 
L 352.7956 30.379275 
L 354.013467 30.953499 
L 354.6224 31.049211 
L 355.231333 30.953499 
L 355.840267 30.379275 
L 356.4492 30.187851 
L 357.058133 30.251651 
L 357.667067 31.272523 
L 358.276 32.006282 
L 358.884933 31.84677 
L 360.1028 29.996427 
L 360.711733 29.422204 
L 361.320667 29.16698 
L 361.9296 29.454092 
L 362.538533 29.10318 
L 363.147467 29.358404 
L 363.7564 29.007468 
L 364.365333 28.943668 
L 365.5832 29.677428 
L 367.41 31.559634 
L 368.018933 31.208723 
L 368.627867 30.092139 
L 369.2368 29.23078 
L 370.454667 28.720356 
L 371.0636 28.656557 
L 371.672533 29.23078 
L 372.8904 30.825899 
L 373.499333 31.240611 
L 374.108267 32.420994 
L 374.7172 32.357194 
L 375.326133 32.165794 
L 375.935067 31.527747 
L 376.544 30.411163 
L 377.152933 30.474963 
L 377.761867 29.868828 
L 378.3708 29.805028 
L 378.979733 30.060252 
L 379.588667 29.868828 
L 380.806533 31.591546 
L 382.0244 32.580506 
L 382.633333 32.803817 
L 383.242267 32.070082 
L 384.460133 31.017299 
L 385.069067 30.124051 
L 385.678 30.028339 
L 387.5048 31.655346 
L 388.113733 32.70813 
L 388.722667 33.154753 
L 389.3316 32.452906 
L 389.940533 31.368235 
L 390.549467 31.144923 
L 391.767333 30.028339 
L 392.376267 30.060252 
L 392.9852 29.486004 
L 393.594133 29.773116 
L 394.203067 29.549804 
L 394.812 29.805028 
L 395.420933 29.932627 
L 396.029867 30.347363 
L 397.247733 29.23078 
L 397.856667 29.90074 
L 398.4656 29.805028 
L 399.683467 29.10318 
L 400.2924 27.890909 
L 402.1192 29.96454 
L 402.728133 30.315451 
L 403.337067 30.060252 
L 403.946 30.187851 
L 404.554933 29.358404 
L 405.163867 28.337533 
L 405.7728 28.050421 
L 406.381733 28.050421 
L 406.990667 28.178021 
L 407.5996 28.816068 
L 408.208533 29.071268 
L 408.817467 28.624644 
L 409.4264 28.592757 
L 410.035333 28.784156 
L 410.644267 29.23078 
L 411.2532 28.943668 
L 411.862133 28.114221 
L 412.471067 27.922797 
L 412.471067 27.922797 
" clip-path="url(#p0dfd5a716f)" style="fill: none; stroke: #008000; stroke-width: 1.5; stroke-linecap: square"/>
   </g>
   <g id="patch_3">
    <path d="M 47.72 303.64 
L 47.72 14.76 
" style="fill: none; stroke: #000000; stroke-width: 0.8; stroke-linejoin: miter; stroke-linecap: square"/>
   </g>
   <g id="patch_4">
    <path d="M 413.08 303.64 
L 413.08 14.76 
" style="fill: none; stroke: #000000; stroke-width: 0.8; stroke-linejoin: miter; stroke-linecap: square"/>
   </g>
   <g id="patch_5">
    <path d="M 47.72 303.64 
L 413.08 303.64 
" style="fill: none; stroke: #000000; stroke-width: 0.8; stroke-linejoin: miter; stroke-linecap: square"/>
   </g>
   <g id="patch_6">
    <path d="M 47.72 14.76 
L 413.08 14.76 
" style="fill: none; stroke: #000000; stroke-width: 0.8; stroke-linejoin: miter; stroke-linecap: square"/>
   </g>
  </g>
  <g id="axes_2">
   <g id="matplotlib.axis_3">
    <g id="ytick_6">
     <g id="line2d_14">
      <defs>
       <path id="ma8655d94b6" d="M 0 0 
L 3.5 0 
" style="stroke: #000000; stroke-width: 0.8"/>
      </defs>
      <g>
       <use xlink:href="#ma8655d94b6" x="413.08" y="303.64" style="stroke: #000000; stroke-width: 0.8"/>
      </g>
     </g>
     <g id="text_15">
      <!-- 0.0 -->
      <g transform="translate(420.08 307.439219) scale(0.1 -0.1)">
       <defs>
        <path id="DejaVuSans-2e" d="M 684 794 
L 1344 794 
L 1344 0 
L 684 0 
L 684 794 
z
" transform="scale(0.015625)"/>
       </defs>
       <use xlink:href="#DejaVuSans-30"/>
       <use xlink:href="#DejaVuSans-2e" x="63.623047"/>
       <use xlink:href="#DejaVuSans-30" x="95.410156"/>
      </g>
     </g>
    </g>
    <g id="ytick_7">
     <g id="line2d_15">
      <g>
       <use xlink:href="#ma8655d94b6" x="413.08" y="245.864" style="stroke: #000000; stroke-width: 0.8"/>
      </g>
     </g>
     <g id="text_16">
      <!-- 0.2 -->
      <g transform="translate(420.08 249.663219) scale(0.1 -0.1)">
       <use xlink:href="#DejaVuSans-30"/>
       <use xlink:href="#DejaVuSans-2e" x="63.623047"/>
       <use xlink:href="#DejaVuSans-32" x="95.410156"/>
      </g>
     </g>
    </g>
    <g id="ytick_8">
     <g id="line2d_16">
      <g>
       <use xlink:href="#ma8655d94b6" x="413.08" y="188.088" style="stroke: #000000; stroke-width: 0.8"/>
      </g>
     </g>
     <g id="text_17">
      <!-- 0.4 -->
      <g transform="translate(420.08 191.887219) scale(0.1 -0.1)">
       <use xlink:href="#DejaVuSans-30"/>
       <use xlink:href="#DejaVuSans-2e" x="63.623047"/>
       <use xlink:href="#DejaVuSans-34" x="95.410156"/>
      </g>
     </g>
    </g>
    <g id="ytick_9">
     <g id="line2d_17">
      <g>
       <use xlink:href="#ma8655d94b6" x="413.08" y="130.312" style="stroke: #000000; stroke-width: 0.8"/>
      </g>
     </g>
     <g id="text_18">
      <!-- 0.6 -->
      <g transform="translate(420.08 134.111219) scale(0.1 -0.1)">
       <use xlink:href="#DejaVuSans-30"/>
       <use xlink:href="#DejaVuSans-2e" x="63.623047"/>
       <use xlink:href="#DejaVuSans-36" x="95.410156"/>
      </g>
     </g>
    </g>
    <g id="ytick_10">
     <g id="line2d_18">
      <g>
       <use xlink:href="#ma8655d94b6" x="413.08" y="72.536" style="stroke: #000000; stroke-width: 0.8"/>
      </g>
     </g>
     <g id="text_19">
      <!-- 0.8 -->
      <g transform="translate(420.08 76.335219) scale(0.1 -0.1)">
       <use xlink:href="#DejaVuSans-30"/>
       <use xlink:href="#DejaVuSans-2e" x="63.623047"/>
       <use xlink:href="#DejaVuSans-38" x="95.410156"/>
      </g>
     </g>
    </g>
    <g id="ytick_11">
     <g id="line2d_19">
      <g>
       <use xlink:href="#ma8655d94b6" x="413.08" y="14.76" style="stroke: #000000; stroke-width: 0.8"/>
      </g>
     </g>
     <g id="text_20">
      <!-- 1.0 -->
      <g transform="translate(420.08 18.559219) scale(0.1 -0.1)">
       <use xlink:href="#DejaVuSans-31"/>
       <use xlink:href="#DejaVuSans-2e" x="63.623047"/>
       <use xlink:href="#DejaVuSans-30" x="95.410156"/>
      </g>
     </g>
    </g>
    <g id="text_21">
     <!-- Fibers/Num Nodes -->
     <g transform="translate(447.581563 204.721875) rotate(-90) scale(0.1 -0.1)">
      <defs>
       <path id="DejaVuSans-46" d="M 628 4666 
L 3309 4666 
L 3309 4134 
L 1259 4134 
L 1259 2759 
L 3109 2759 
L 3109 2228 
L 1259 2228 
L 1259 0 
L 628 0 
L 628 4666 
z
" transform="scale(0.015625)"/>
       <path id="DejaVuSans-69" d="M 603 3500 
L 1178 3500 
L 1178 0 
L 603 0 
L 603 3500 
z
M 603 4863 
L 1178 4863 
L 1178 4134 
L 603 4134 
L 603 4863 
z
" transform="scale(0.015625)"/>
       <path id="DejaVuSans-62" d="M 3116 1747 
Q 3116 2381 2855 2742 
Q 2594 3103 2138 3103 
Q 1681 3103 1420 2742 
Q 1159 2381 1159 1747 
Q 1159 1113 1420 752 
Q 1681 391 2138 391 
Q 2594 391 2855 752 
Q 3116 1113 3116 1747 
z
M 1159 2969 
Q 1341 3281 1617 3432 
Q 1894 3584 2278 3584 
Q 2916 3584 3314 3078 
Q 3713 2572 3713 1747 
Q 3713 922 3314 415 
Q 2916 -91 2278 -91 
Q 1894 -91 1617 61 
Q 1341 213 1159 525 
L 1159 0 
L 581 0 
L 581 4863 
L 1159 4863 
L 1159 2969 
z
" transform="scale(0.015625)"/>
       <path id="DejaVuSans-73" d="M 2834 3397 
L 2834 2853 
Q 2591 2978 2328 3040 
Q 2066 3103 1784 3103 
Q 1356 3103 1142 2972 
Q 928 2841 928 2578 
Q 928 2378 1081 2264 
Q 1234 2150 1697 2047 
L 1894 2003 
Q 2506 1872 2764 1633 
Q 3022 1394 3022 966 
Q 3022 478 2636 193 
Q 2250 -91 1575 -91 
Q 1294 -91 989 -36 
Q 684 19 347 128 
L 347 722 
Q 666 556 975 473 
Q 1284 391 1588 391 
Q 1994 391 2212 530 
Q 2431 669 2431 922 
Q 2431 1156 2273 1281 
Q 2116 1406 1581 1522 
L 1381 1569 
Q 847 1681 609 1914 
Q 372 2147 372 2553 
Q 372 3047 722 3315 
Q 1072 3584 1716 3584 
Q 2034 3584 2315 3537 
Q 2597 3491 2834 3397 
z
" transform="scale(0.015625)"/>
       <path id="DejaVuSans-2f" d="M 1625 4666 
L 2156 4666 
L 531 -594 
L 0 -594 
L 1625 4666 
z
" transform="scale(0.015625)"/>
       <path id="DejaVuSans-4e" d="M 628 4666 
L 1478 4666 
L 3547 763 
L 3547 4666 
L 4159 4666 
L 4159 0 
L 3309 0 
L 1241 3903 
L 1241 0 
L 628 0 
L 628 4666 
z
" transform="scale(0.015625)"/>
       <path id="DejaVuSans-75" d="M 544 1381 
L 544 3500 
L 1119 3500 
L 1119 1403 
Q 1119 906 1312 657 
Q 1506 409 1894 409 
Q 2359 409 2629 706 
Q 2900 1003 2900 1516 
L 2900 3500 
L 3475 3500 
L 3475 0 
L 2900 0 
L 2900 538 
Q 2691 219 2414 64 
Q 2138 -91 1772 -91 
Q 1169 -91 856 284 
Q 544 659 544 1381 
z
M 1991 3584 
L 1991 3584 
z
" transform="scale(0.015625)"/>
       <path id="DejaVuSans-20" transform="scale(0.015625)"/>
       <path id="DejaVuSans-64" d="M 2906 2969 
L 2906 4863 
L 3481 4863 
L 3481 0 
L 2906 0 
L 2906 525 
Q 2725 213 2448 61 
Q 2172 -91 1784 -91 
Q 1150 -91 751 415 
Q 353 922 353 1747 
Q 353 2572 751 3078 
Q 1150 3584 1784 3584 
Q 2172 3584 2448 3432 
Q 2725 3281 2906 2969 
z
M 947 1747 
Q 947 1113 1208 752 
Q 1469 391 1925 391 
Q 2381 391 2643 752 
Q 2906 1113 2906 1747 
Q 2906 2381 2643 2742 
Q 2381 3103 1925 3103 
Q 1469 3103 1208 2742 
Q 947 2381 947 1747 
z
" transform="scale(0.015625)"/>
      </defs>
      <use xlink:href="#DejaVuSans-46"/>
      <use xlink:href="#DejaVuSans-69" x="50.269531"/>
      <use xlink:href="#DejaVuSans-62" x="78.052734"/>
      <use xlink:href="#DejaVuSans-65" x="141.529297"/>
      <use xlink:href="#DejaVuSans-72" x="203.052734"/>
      <use xlink:href="#DejaVuSans-73" x="244.166016"/>
      <use xlink:href="#DejaVuSans-2f" x="296.265625"/>
      <use xlink:href="#DejaVuSans-4e" x="329.957031"/>
      <use xlink:href="#DejaVuSans-75" x="404.761719"/>
      <use xlink:href="#DejaVuSans-6d" x="468.140625"/>
      <use xlink:href="#DejaVuSans-20" x="565.552734"/>
      <use xlink:href="#DejaVuSans-4e" x="597.339844"/>
      <use xlink:href="#DejaVuSans-6f" x="672.144531"/>
      <use xlink:href="#DejaVuSans-64" x="733.326172"/>
      <use xlink:href="#DejaVuSans-65" x="796.802734"/>
      <use xlink:href="#DejaVuSans-73" x="858.326172"/>
     </g>
    </g>
   </g>
   <g id="line2d_20">
    <path d="M 47.72 14.76 
L 61.116533 14.76 
L 61.725467 15.33776 
L 62.3344 14.76 
L 62.943333 15.33776 
L 63.552267 15.33776 
L 64.1612 14.76 
L 64.770133 15.91552 
L 65.379067 15.91552 
L 65.988 18.22656 
L 66.596933 17.07104 
L 67.205867 19.95984 
L 67.8148 19.38208 
L 68.423733 21.11536 
L 69.032667 19.95984 
L 69.6416 21.69312 
L 70.250533 22.84864 
L 70.859467 24.58192 
L 71.4684 23.4264 
L 72.077333 23.4264 
L 72.686267 28.04848 
L 73.2952 29.78176 
L 73.904133 30.93728 
L 74.513067 29.78176 
L 75.122 30.93728 
L 75.730933 35.55936 
L 76.339867 37.29264 
L 76.9488 40.7592 
L 77.557733 42.49248 
L 78.166667 39.02592 
L 78.7756 41.33696 
L 79.384533 41.33696 
L 79.993467 37.8704 
L 80.6024 47.11456 
L 81.211333 43.648 
L 81.820267 44.80352 
L 82.4292 51.73664 
L 83.038133 53.46992 
L 83.647067 54.62544 
L 84.256 49.4256 
L 85.473867 66.7584 
L 86.0828 60.40304 
L 86.691733 68.49168 
L 87.300667 67.91392 
L 87.9096 64.44736 
L 88.518533 75.4248 
L 89.127467 78.3136 
L 89.7364 78.3136 
L 90.345333 72.536 
L 91.5632 77.15808 
L 92.172133 87.55776 
L 92.781067 75.4248 
L 93.39 87.55776 
L 93.998933 90.44656 
L 94.607867 88.71328 
L 95.825733 76.58032 
L 96.434667 84.0912 
L 97.0436 76.58032 
L 97.652533 89.29104 
L 98.261467 89.8688 
L 98.8704 89.8688 
L 99.479333 93.33536 
L 100.088267 99.11296 
L 100.6972 100.26848 
L 101.306133 103.15728 
L 101.915067 97.37968 
L 102.524 104.89056 
L 103.132933 102.57952 
L 103.741867 99.11296 
L 104.3508 102.57952 
L 104.959733 87.55776 
L 105.568667 91.02432 
L 106.1776 90.44656 
L 106.786533 101.424 
L 107.395467 104.3128 
L 108.0044 103.15728 
L 108.613333 96.22416 
L 109.222267 104.89056 
L 109.8312 111.24592 
L 110.440133 106.04608 
L 111.658 115.868 
L 112.266933 107.2016 
L 112.875867 113.55696 
L 113.4848 115.868 
L 114.093733 124.5344 
L 114.702667 113.55696 
L 115.3116 118.7568 
L 115.920533 122.22336 
L 116.529467 114.13472 
L 117.1384 119.91232 
L 117.747333 126.84544 
L 118.356267 128.00096 
L 118.9652 122.80112 
L 119.574133 126.26768 
L 120.183067 124.5344 
L 120.792 128.00096 
L 121.400933 122.80112 
L 122.009867 136.0896 
L 122.6188 133.2008 
L 123.227733 130.88976 
L 123.836667 132.04528 
L 124.4456 135.51184 
L 125.054533 132.04528 
L 125.663467 138.9784 
L 126.2724 135.51184 
L 126.881333 141.28944 
L 127.490267 142.44496 
L 128.0992 138.9784 
L 128.708133 132.04528 
L 129.317067 132.62304 
L 129.926 143.02272 
L 130.534933 133.2008 
L 131.143867 136.0896 
L 131.7528 147.6448 
L 132.361733 147.06704 
L 132.970667 155.15568 
L 133.5796 154.57792 
L 134.188533 139.55616 
L 134.797467 151.68912 
L 135.4064 153.4224 
L 136.015333 147.06704 
L 136.624267 149.95584 
L 137.2332 155.73344 
L 137.842133 145.33376 
L 138.451067 159.77776 
L 139.668933 143.02272 
L 140.277867 136.66736 
L 140.8868 151.68912 
L 141.495733 142.44496 
L 142.104667 159.77776 
L 142.7136 152.26688 
L 143.322533 151.68912 
L 143.931467 162.0888 
L 144.5404 145.33376 
L 145.758267 146.48928 
L 146.3672 159.77776 
L 146.976133 155.73344 
L 147.585067 146.48928 
L 148.194 170.7552 
L 148.802933 147.06704 
L 149.411867 163.82208 
L 150.0208 170.7552 
L 150.629733 161.51104 
L 151.238667 170.17744 
L 151.8476 163.24432 
L 152.456533 175.37728 
L 153.065467 162.66656 
L 153.6744 166.13312 
L 154.283333 166.71088 
L 154.892267 162.66656 
L 155.5012 177.11056 
L 156.110133 158.62224 
L 156.719067 166.71088 
L 157.328 171.91072 
L 157.936933 169.02192 
L 158.545867 166.71088 
L 159.1548 171.91072 
L 159.763733 159.77776 
L 160.372667 168.44416 
L 161.590533 162.0888 
L 162.199467 173.644 
L 162.8084 177.68832 
L 163.417333 165.55536 
L 164.026267 164.9776 
L 164.6352 165.55536 
L 165.244133 179.4216 
L 165.853067 175.95504 
L 166.462 167.8664 
L 167.070933 170.7552 
L 167.679867 170.17744 
L 168.2888 172.48848 
L 168.897733 173.06624 
L 169.506667 181.73264 
L 170.1156 182.3104 
L 171.333467 178.84384 
L 171.9424 169.02192 
L 172.551333 181.73264 
L 173.160267 182.3104 
L 173.7692 172.48848 
L 174.378133 185.1992 
L 174.987067 168.44416 
L 175.596 167.28864 
L 176.204933 180.57712 
L 176.813867 169.59968 
L 177.4228 181.73264 
L 178.031733 173.06624 
L 178.640667 182.88816 
L 179.2496 171.33296 
L 179.858533 190.39904 
L 180.467467 176.5328 
L 181.0764 171.33296 
L 181.685333 184.04368 
L 182.294267 165.55536 
L 182.9032 174.79952 
L 183.512133 174.79952 
L 184.121067 181.73264 
L 184.73 171.91072 
L 185.338933 170.17744 
L 185.947867 180.57712 
L 186.5568 185.1992 
L 187.165733 169.02192 
L 187.774667 179.99936 
L 188.3836 177.68832 
L 188.992533 170.17744 
L 189.601467 186.93248 
L 190.2104 183.46592 
L 190.819333 164.39984 
L 191.428267 166.13312 
L 192.0372 181.15488 
L 192.646133 165.55536 
L 193.255067 178.26608 
L 193.864 168.44416 
L 194.472933 183.46592 
L 195.081867 188.088 
L 195.6908 179.99936 
L 196.299733 173.644 
L 196.908667 186.93248 
L 197.5176 187.51024 
L 198.126533 179.99936 
L 198.735467 170.7552 
L 199.3444 173.644 
L 199.953333 170.17744 
L 200.562267 195.02112 
L 201.1712 192.71008 
L 201.780133 179.99936 
L 202.998 199.6432 
L 203.606933 200.22096 
L 204.215867 184.62144 
L 204.8248 191.55456 
L 205.433733 186.93248 
L 206.042667 195.59888 
L 206.6516 196.7544 
L 207.260533 181.15488 
L 207.869467 190.39904 
L 208.4784 192.13232 
L 209.087333 190.39904 
L 209.696267 192.71008 
L 210.914133 196.17664 
L 211.523067 180.57712 
L 212.132 195.59888 
L 212.740933 193.28784 
L 213.349867 192.71008 
L 213.9588 184.62144 
L 214.567733 187.51024 
L 215.176667 199.06544 
L 215.7856 200.79872 
L 216.394533 188.088 
L 217.003467 189.82128 
L 217.6124 194.44336 
L 218.221333 189.24352 
L 218.830267 196.17664 
L 219.4392 188.66576 
L 220.048133 195.02112 
L 220.657067 189.24352 
L 221.266 199.06544 
L 221.874933 197.90992 
L 222.483867 182.88816 
L 223.0928 194.44336 
L 223.701733 200.22096 
L 224.310667 185.1992 
L 224.9196 196.7544 
L 225.528533 188.66576 
L 226.137467 196.17664 
L 226.7464 189.82128 
L 227.355333 196.17664 
L 227.964267 195.02112 
L 228.5732 186.93248 
L 229.182133 196.7544 
L 229.791067 200.79872 
L 230.4 199.06544 
L 231.008933 190.39904 
L 231.617867 187.51024 
L 232.2268 199.6432 
L 232.835733 190.9768 
L 233.444667 189.82128 
L 234.0536 195.59888 
L 234.662533 189.82128 
L 235.271467 190.9768 
L 235.8804 186.93248 
L 236.489333 195.59888 
L 237.098267 194.44336 
L 237.7072 198.48768 
L 238.316133 182.88816 
L 238.925067 203.68752 
L 239.534 185.77696 
L 240.142933 203.68752 
L 240.751867 186.35472 
L 241.3608 185.1992 
L 241.969733 196.7544 
L 242.578667 182.3104 
L 243.1876 199.06544 
L 243.796533 203.10976 
L 244.405467 200.22096 
L 245.0144 186.93248 
L 245.623333 197.90992 
L 246.232267 198.48768 
L 246.8412 193.8656 
L 247.450133 200.79872 
L 248.059067 204.26528 
L 248.668 179.4216 
L 249.276933 192.13232 
L 249.885867 183.46592 
L 250.4948 188.088 
L 251.103733 206.57632 
L 251.712667 202.532 
L 252.3216 193.8656 
L 252.930533 187.51024 
L 253.539467 200.79872 
L 254.1484 211.1984 
L 254.757333 204.84304 
L 255.366267 203.68752 
L 255.9752 204.26528 
L 256.584133 196.17664 
L 257.193067 197.33216 
L 257.802 200.79872 
L 258.410933 202.532 
L 259.019867 206.57632 
L 259.6288 206.57632 
L 260.237733 190.9768 
L 260.846667 202.532 
L 261.4556 193.8656 
L 262.064533 195.02112 
L 262.673467 208.88736 
L 263.2824 186.93248 
L 263.891333 204.84304 
L 264.500267 205.4208 
L 265.1092 198.48768 
L 265.718133 208.88736 
L 266.327067 196.17664 
L 266.936 191.55456 
L 267.544933 201.95424 
L 268.153867 193.28784 
L 268.7628 195.02112 
L 269.371733 198.48768 
L 269.980667 193.28784 
L 270.5896 195.59888 
L 271.198533 205.99856 
L 271.807467 207.15408 
L 272.4164 194.44336 
L 273.025333 204.84304 
L 273.634267 207.73184 
L 274.2432 211.77616 
L 274.852133 195.02112 
L 275.461067 206.57632 
L 276.07 199.06544 
L 276.678933 205.99856 
L 277.287867 191.55456 
L 277.8968 209.46512 
L 278.505733 200.79872 
L 279.114667 196.17664 
L 280.332533 208.3096 
L 280.941467 207.15408 
L 281.5504 195.59888 
L 282.159333 197.90992 
L 282.768267 210.62064 
L 283.3772 206.57632 
L 283.986133 215.24272 
L 284.595067 195.59888 
L 285.204 193.8656 
L 285.812933 213.50944 
L 286.421867 193.28784 
L 287.0308 195.59888 
L 287.639733 212.35392 
L 288.248667 193.28784 
L 288.8576 197.90992 
L 289.466533 195.59888 
L 290.075467 201.37648 
L 290.6844 205.4208 
L 291.293333 212.93168 
L 291.902267 194.44336 
L 292.5112 211.77616 
L 293.729067 194.44336 
L 294.338 214.66496 
L 294.946933 201.37648 
L 295.555867 208.88736 
L 296.1648 210.62064 
L 296.773733 196.7544 
L 297.382667 208.88736 
L 297.9916 192.71008 
L 298.600533 195.02112 
L 299.209467 194.44336 
L 299.8184 199.06544 
L 300.427333 197.90992 
L 301.036267 193.8656 
L 301.6452 216.976 
L 302.254133 202.532 
L 302.863067 205.99856 
L 303.472 201.37648 
L 304.080933 187.51024 
L 304.689867 212.35392 
L 305.2988 197.33216 
L 305.907733 197.90992 
L 306.516667 200.22096 
L 307.1256 207.73184 
L 307.734533 202.532 
L 308.343467 199.06544 
L 308.9524 212.35392 
L 309.561333 212.93168 
L 310.170267 210.62064 
L 310.7792 205.4208 
L 311.388133 201.95424 
L 311.997067 196.7544 
L 312.606 200.22096 
L 313.214933 210.62064 
L 313.823867 210.04288 
L 314.4328 207.15408 
L 315.041733 210.62064 
L 315.650667 203.68752 
L 316.2596 212.35392 
L 316.868533 203.10976 
L 317.477467 205.99856 
L 318.0864 204.26528 
L 318.695333 211.77616 
L 319.304267 203.10976 
L 319.9132 201.95424 
L 320.522133 196.7544 
L 321.131067 210.62064 
L 321.74 199.06544 
L 322.348933 193.8656 
L 322.957867 210.04288 
L 323.5668 194.44336 
L 324.175733 197.33216 
L 324.784667 203.68752 
L 325.3936 214.66496 
L 326.002533 197.90992 
L 326.611467 201.95424 
L 327.2204 210.62064 
L 327.829333 212.93168 
L 328.438267 209.46512 
L 329.0472 208.88736 
L 330.265067 213.50944 
L 330.874 211.77616 
L 331.482933 210.62064 
L 332.091867 213.50944 
L 332.7008 201.37648 
L 333.309733 197.33216 
L 333.918667 208.88736 
L 334.5276 210.62064 
L 335.136533 208.88736 
L 335.745467 210.62064 
L 336.3544 204.84304 
L 336.963333 208.3096 
L 337.572267 195.59888 
L 338.1812 195.02112 
L 338.790133 208.88736 
L 340.008 212.35392 
L 340.616933 199.6432 
L 341.225867 214.66496 
L 341.8348 200.22096 
L 342.443733 195.59888 
L 343.052667 208.88736 
L 343.6616 209.46512 
L 344.270533 199.6432 
L 344.879467 197.33216 
L 345.4884 197.33216 
L 346.097333 211.77616 
L 346.706267 213.50944 
L 347.3152 195.59888 
L 347.924133 201.95424 
L 348.533067 202.532 
L 349.142 211.1984 
L 349.750933 215.82048 
L 350.359867 213.50944 
L 350.9688 194.44336 
L 351.577733 192.71008 
L 352.186667 211.77616 
L 352.7956 199.6432 
L 353.404533 199.06544 
L 354.013467 216.39824 
L 355.231333 208.3096 
L 355.840267 210.04288 
L 356.4492 218.13152 
L 357.058133 202.532 
L 357.667067 216.976 
L 358.276 197.33216 
L 358.884933 219.8648 
L 359.493867 217.55376 
L 360.1028 197.33216 
L 360.711733 198.48768 
L 361.320667 203.10976 
L 361.9296 197.33216 
L 362.538533 202.532 
L 363.147467 218.13152 
L 363.7564 205.4208 
L 364.365333 201.95424 
L 364.974267 195.59888 
L 365.5832 213.50944 
L 366.192133 215.82048 
L 366.801067 203.68752 
L 367.41 217.55376 
L 368.018933 201.95424 
L 368.627867 205.4208 
L 369.2368 203.68752 
L 369.845733 212.35392 
L 370.454667 212.35392 
L 371.0636 214.66496 
L 371.672533 212.35392 
L 372.281467 212.93168 
L 372.8904 214.66496 
L 373.499333 205.99856 
L 374.108267 199.06544 
L 374.7172 200.79872 
L 375.326133 210.62064 
L 375.935067 196.7544 
L 376.544 199.6432 
L 377.152933 210.62064 
L 378.3708 214.0872 
L 378.979733 196.7544 
L 379.588667 214.66496 
L 380.1976 202.532 
L 380.806533 194.44336 
L 381.415467 206.57632 
L 382.633333 213.50944 
L 383.242267 210.04288 
L 383.8512 211.77616 
L 384.460133 209.46512 
L 385.069067 217.55376 
L 385.678 204.84304 
L 386.286933 207.15408 
L 386.895867 210.04288 
L 387.5048 216.976 
L 388.113733 203.68752 
L 388.722667 197.90992 
L 389.3316 204.84304 
L 389.940533 213.50944 
L 390.549467 203.10976 
L 391.1584 212.35392 
L 392.376267 201.95424 
L 392.9852 214.0872 
L 393.594133 216.39824 
L 394.203067 198.48768 
L 394.812 199.06544 
L 395.420933 200.79872 
L 396.029867 208.3096 
L 396.6388 205.4208 
L 397.247733 200.22096 
L 397.856667 203.68752 
L 398.4656 197.90992 
L 399.074533 209.46512 
L 399.683467 205.4208 
L 400.2924 217.55376 
L 400.901333 204.84304 
L 401.510267 220.44256 
L 402.728133 218.13152 
L 403.337067 220.44256 
L 403.946 213.50944 
L 405.163867 205.99856 
L 405.7728 216.39824 
L 406.381733 221.02032 
L 406.990667 218.70928 
L 407.5996 199.06544 
L 408.208533 200.79872 
L 408.817467 219.28704 
L 409.4264 218.70928 
L 410.035333 203.10976 
L 410.644267 218.70928 
L 411.2532 199.06544 
L 411.862133 204.26528 
L 412.471067 219.28704 
L 412.471067 219.28704 
" clip-path="url(#p0dfd5a716f)" style="fill: none; stroke-dasharray: 5.55,2.4; stroke-dashoffset: 0; stroke: #1f77b4; stroke-width: 1.5"/>
   </g>
   <g id="line2d_21">
    <path d="M 47.72 14.76 
L 73.2952 14.76 
L 73.904133 15.33776 
L 75.122 15.33776 
L 75.730933 15.91552 
L 76.339867 15.91552 
L 76.9488 16.49328 
L 77.557733 15.33776 
L 78.7756 17.6488 
L 79.993467 17.6488 
L 80.6024 18.80432 
L 81.211333 20.5376 
L 81.820267 20.5376 
L 82.4292 19.95984 
L 83.038133 23.4264 
L 83.647067 21.69312 
L 84.256 23.4264 
L 84.864933 22.27088 
L 85.473867 25.15968 
L 86.0828 27.47072 
L 86.691733 30.35952 
L 87.300667 33.82608 
L 87.9096 33.82608 
L 88.518533 36.13712 
L 89.127467 36.71488 
L 89.7364 37.8704 
L 90.345333 38.44816 
L 90.954267 38.44816 
L 91.5632 41.33696 
L 92.172133 43.648 
L 92.781067 41.33696 
L 93.39 43.07024 
L 93.998933 47.11456 
L 95.2168 49.4256 
L 95.825733 50.00336 
L 96.434667 53.46992 
L 97.0436 52.89216 
L 97.652533 54.04768 
L 98.261467 62.13632 
L 98.8704 62.13632 
L 99.479333 71.38048 
L 100.088267 78.3136 
L 100.6972 76.58032 
L 101.306133 86.40224 
L 101.915067 85.24672 
L 102.524 89.8688 
L 103.132933 87.55776 
L 103.741867 91.60208 
L 104.3508 83.51344 
L 104.959733 78.89136 
L 106.1776 86.40224 
L 106.786533 91.60208 
L 107.395467 98.5352 
L 108.0044 101.424 
L 108.613333 106.04608 
L 109.222267 106.62384 
L 109.8312 118.17904 
L 110.440133 121.06784 
L 111.049067 119.91232 
L 111.658 132.62304 
L 112.266933 122.22336 
L 112.875867 125.11216 
L 113.4848 129.73424 
L 114.093733 130.312 
L 114.702667 118.17904 
L 115.3116 134.93408 
L 115.920533 129.15648 
L 116.529467 146.48928 
L 117.1384 151.11136 
L 117.747333 154.57792 
L 118.9652 148.22256 
L 119.574133 156.3112 
L 120.183067 158.04448 
L 120.792 158.04448 
L 121.400933 148.80032 
L 122.009867 144.756 
L 122.6188 166.71088 
L 123.227733 160.35552 
L 123.836667 147.06704 
L 124.4456 164.9776 
L 125.054533 170.17744 
L 126.2724 154.00016 
L 126.881333 174.22176 
L 127.490267 158.04448 
L 128.0992 169.02192 
L 128.708133 158.04448 
L 129.317067 164.9776 
L 129.926 175.95504 
L 130.534933 167.28864 
L 131.143867 170.7552 
L 131.7528 179.4216 
L 132.361733 183.46592 
L 132.970667 189.24352 
L 133.5796 192.13232 
L 134.188533 184.04368 
L 134.797467 188.088 
L 135.4064 189.82128 
L 136.015333 175.95504 
L 136.624267 179.4216 
L 137.2332 195.02112 
L 137.842133 178.26608 
L 138.451067 184.62144 
L 139.06 194.44336 
L 139.668933 193.8656 
L 140.277867 185.1992 
L 140.8868 193.8656 
L 141.495733 185.1992 
L 142.104667 200.22096 
L 142.7136 200.79872 
L 143.322533 186.35472 
L 143.931467 199.06544 
L 144.5404 207.73184 
L 145.149333 207.73184 
L 145.758267 210.04288 
L 146.3672 197.90992 
L 146.976133 200.22096 
L 147.585067 214.66496 
L 148.194 200.79872 
L 148.802933 212.93168 
L 149.411867 214.66496 
L 150.0208 215.82048 
L 150.629733 212.35392 
L 151.8476 219.8648 
L 152.456533 218.70928 
L 153.065467 212.35392 
L 154.283333 219.8648 
L 154.892267 203.68752 
L 155.5012 225.06464 
L 156.110133 217.55376 
L 156.719067 224.48688 
L 157.328 221.59808 
L 157.936933 225.06464 
L 158.545867 218.70928 
L 159.1548 230.26448 
L 159.763733 226.79792 
L 160.372667 225.6424 
L 160.9816 225.6424 
L 161.590533 235.46432 
L 162.199467 222.17584 
L 162.8084 232.57552 
L 163.417333 226.22016 
L 164.026267 233.15328 
L 164.6352 233.15328 
L 165.244133 226.22016 
L 165.853067 231.42 
L 166.462 218.70928 
L 167.679867 238.35312 
L 168.2888 231.99776 
L 168.897733 228.5312 
L 169.506667 241.81968 
L 170.1156 239.50864 
L 170.724533 240.66416 
L 171.333467 245.28624 
L 171.9424 230.26448 
L 172.551333 243.55296 
L 173.160267 245.28624 
L 173.7692 234.3088 
L 174.378133 241.24192 
L 174.987067 226.79792 
L 175.596 235.46432 
L 176.813867 248.7528 
L 177.4228 249.90832 
L 178.031733 236.61984 
L 178.640667 248.17504 
L 179.2496 237.77536 
L 179.858533 247.59728 
L 180.467467 219.8648 
L 181.0764 230.26448 
L 181.685333 237.1976 
L 182.294267 238.93088 
L 182.9032 249.90832 
L 183.512133 249.33056 
L 184.121067 241.81968 
L 184.73 236.61984 
L 185.338933 234.88656 
L 185.947867 238.93088 
L 186.5568 247.01952 
L 187.165733 234.3088 
L 187.774667 236.61984 
L 188.3836 245.28624 
L 188.992533 240.0864 
L 189.601467 248.7528 
L 190.2104 248.7528 
L 190.819333 240.0864 
L 191.428267 235.46432 
L 192.0372 249.90832 
L 192.646133 240.66416 
L 193.255067 237.77536 
L 193.864 240.0864 
L 194.472933 244.70848 
L 195.081867 242.39744 
L 195.6908 246.44176 
L 196.299733 246.44176 
L 196.908667 248.17504 
L 197.5176 242.39744 
L 198.735467 253.37488 
L 199.3444 243.55296 
L 199.953333 238.35312 
L 200.562267 245.864 
L 201.1712 244.70848 
L 201.780133 257.4192 
L 202.389067 251.06384 
L 202.998 251.6416 
L 203.606933 259.15248 
L 204.215867 263.77456 
L 204.8248 261.46352 
L 205.433733 245.864 
L 206.042667 253.95264 
L 206.6516 245.864 
L 207.260533 248.17504 
L 207.869467 247.01952 
L 208.4784 247.59728 
L 209.087333 253.37488 
L 209.696267 244.13072 
L 210.3052 249.90832 
L 210.914133 232.57552 
L 211.523067 238.93088 
L 212.132 252.21936 
L 212.740933 252.79712 
L 213.349867 246.44176 
L 213.9588 255.68592 
L 214.567733 244.13072 
L 215.176667 249.33056 
L 215.7856 249.90832 
L 216.394533 256.84144 
L 217.003467 253.37488 
L 217.6124 256.84144 
L 218.221333 251.6416 
L 218.830267 248.17504 
L 219.4392 251.6416 
L 220.048133 250.48608 
L 220.657067 257.4192 
L 221.266 259.73024 
L 221.874933 248.17504 
L 222.483867 254.5304 
L 223.0928 262.61904 
L 223.701733 258.57472 
L 224.310667 253.37488 
L 224.9196 253.37488 
L 226.137467 245.864 
L 226.7464 257.4192 
L 227.355333 258.57472 
L 227.964267 252.79712 
L 228.5732 253.95264 
L 229.182133 262.61904 
L 229.791067 260.88576 
L 230.4 254.5304 
L 231.008933 254.5304 
L 231.617867 264.93008 
L 232.2268 253.95264 
L 232.835733 255.10816 
L 233.444667 251.6416 
L 234.0536 254.5304 
L 234.662533 252.21936 
L 235.271467 255.68592 
L 235.8804 256.26368 
L 236.489333 256.26368 
L 237.098267 257.99696 
L 237.7072 262.04128 
L 238.316133 263.77456 
L 238.925067 261.46352 
L 239.534 262.61904 
L 240.142933 247.59728 
L 240.751867 258.57472 
L 241.3608 252.21936 
L 241.969733 253.95264 
L 242.578667 247.59728 
L 243.1876 244.13072 
L 243.796533 252.21936 
L 244.405467 247.59728 
L 245.0144 251.6416 
L 245.623333 253.37488 
L 246.232267 251.06384 
L 246.8412 254.5304 
L 247.450133 260.308 
L 248.059067 256.84144 
L 248.668 262.61904 
L 249.276933 262.04128 
L 249.885867 255.10816 
L 250.4948 255.10816 
L 251.712667 271.28544 
L 252.3216 272.44096 
L 252.930533 266.0856 
L 253.539467 262.04128 
L 254.1484 255.68592 
L 254.757333 262.04128 
L 255.366267 264.35232 
L 255.9752 260.88576 
L 256.584133 266.0856 
L 257.193067 259.15248 
L 257.802 266.66336 
L 258.410933 255.68592 
L 259.019867 255.68592 
L 259.6288 263.1968 
L 260.237733 256.26368 
L 260.846667 262.04128 
L 261.4556 255.68592 
L 262.064533 252.21936 
L 262.673467 268.39664 
L 263.2824 260.308 
L 263.891333 264.35232 
L 264.500267 260.308 
L 265.1092 254.5304 
L 265.718133 260.88576 
L 266.327067 257.4192 
L 266.936 266.66336 
L 267.544933 267.81888 
L 268.7628 265.50784 
L 269.371733 257.4192 
L 269.980667 260.308 
L 270.5896 264.93008 
L 271.198533 259.15248 
L 271.807467 264.93008 
L 272.4164 263.1968 
L 273.025333 263.1968 
L 273.634267 253.95264 
L 274.2432 262.61904 
L 274.852133 257.99696 
L 275.461067 258.57472 
L 276.07 265.50784 
L 276.678933 259.73024 
L 277.8968 263.1968 
L 278.505733 262.04128 
L 279.114667 257.4192 
L 279.7236 257.4192 
L 280.332533 267.81888 
L 280.941467 266.66336 
L 281.5504 267.24112 
L 282.159333 257.99696 
L 282.768267 257.4192 
L 283.3772 255.68592 
L 284.595067 268.9744 
L 285.204 259.15248 
L 285.812933 272.44096 
L 286.421867 258.57472 
L 287.0308 264.93008 
L 287.639733 268.39664 
L 288.248667 255.68592 
L 288.8576 255.68592 
L 289.466533 271.8632 
L 290.075467 270.12992 
L 290.6844 267.24112 
L 291.293333 257.99696 
L 291.902267 265.50784 
L 292.5112 268.9744 
L 293.120133 255.68592 
L 293.729067 258.57472 
L 294.946933 262.04128 
L 295.555867 267.24112 
L 296.1648 267.24112 
L 296.773733 260.308 
L 297.382667 267.24112 
L 297.9916 267.81888 
L 298.600533 258.57472 
L 299.209467 252.79712 
L 300.427333 266.0856 
L 301.036267 255.68592 
L 301.6452 269.55216 
L 302.254133 257.4192 
L 302.863067 267.24112 
L 303.472 255.10816 
L 304.080933 267.81888 
L 304.689867 269.55216 
L 305.2988 259.15248 
L 305.907733 261.46352 
L 306.516667 259.15248 
L 307.1256 267.81888 
L 307.734533 260.308 
L 308.343467 262.61904 
L 308.9524 274.17424 
L 309.561333 262.04128 
L 310.170267 262.04128 
L 310.7792 262.61904 
L 311.388133 269.55216 
L 311.997067 271.28544 
L 312.606 270.70768 
L 313.214933 266.0856 
L 313.823867 268.9744 
L 314.4328 262.04128 
L 315.041733 269.55216 
L 315.650667 270.12992 
L 316.2596 257.4192 
L 316.868533 265.50784 
L 317.477467 264.35232 
L 318.0864 262.04128 
L 318.695333 270.12992 
L 319.304267 262.04128 
L 319.9132 268.39664 
L 320.522133 257.99696 
L 321.131067 273.01872 
L 321.74 257.4192 
L 322.348933 270.70768 
L 322.957867 266.0856 
L 323.5668 257.4192 
L 324.175733 259.15248 
L 324.784667 267.81888 
L 325.3936 265.50784 
L 326.002533 270.12992 
L 326.611467 260.88576 
L 327.2204 264.35232 
L 327.829333 264.93008 
L 328.438267 261.46352 
L 329.0472 263.1968 
L 329.656133 266.66336 
L 330.265067 258.57472 
L 330.874 271.8632 
L 331.482933 260.308 
L 332.091867 262.61904 
L 332.7008 268.39664 
L 333.309733 265.50784 
L 333.918667 267.24112 
L 334.5276 259.73024 
L 335.136533 270.70768 
L 335.745467 260.88576 
L 336.3544 259.73024 
L 336.963333 260.88576 
L 337.572267 255.68592 
L 338.1812 264.35232 
L 338.790133 256.84144 
L 339.399067 266.66336 
L 340.008 266.0856 
L 340.616933 262.61904 
L 341.225867 272.44096 
L 341.8348 264.35232 
L 342.443733 266.0856 
L 343.052667 268.9744 
L 343.6616 264.93008 
L 344.270533 257.99696 
L 344.879467 261.46352 
L 345.4884 257.99696 
L 346.097333 256.84144 
L 347.3152 264.35232 
L 347.924133 262.04128 
L 348.533067 254.5304 
L 349.142 265.50784 
L 349.750933 266.66336 
L 350.359867 261.46352 
L 350.9688 263.1968 
L 351.577733 265.50784 
L 352.186667 269.55216 
L 352.7956 270.12992 
L 353.404533 259.15248 
L 354.013467 271.28544 
L 354.6224 262.04128 
L 355.231333 262.61904 
L 356.4492 259.15248 
L 357.058133 267.81888 
L 357.667067 268.39664 
L 358.276 259.73024 
L 358.884933 270.12992 
L 359.493867 266.0856 
L 360.1028 268.9744 
L 360.711733 266.0856 
L 361.320667 257.99696 
L 361.9296 260.88576 
L 362.538533 257.99696 
L 363.147467 257.99696 
L 363.7564 263.1968 
L 364.365333 257.4192 
L 364.974267 268.9744 
L 365.5832 267.24112 
L 366.192133 268.9744 
L 366.801067 265.50784 
L 367.41 267.81888 
L 368.018933 265.50784 
L 368.627867 266.0856 
L 369.2368 260.88576 
L 369.845733 271.8632 
L 370.454667 267.24112 
L 371.0636 264.93008 
L 371.672533 271.8632 
L 372.281467 269.55216 
L 372.8904 266.66336 
L 373.499333 270.12992 
L 374.108267 263.77456 
L 374.7172 270.70768 
L 375.326133 268.39664 
L 375.935067 269.55216 
L 376.544 260.88576 
L 377.152933 271.28544 
L 377.761867 267.81888 
L 378.3708 271.28544 
L 378.979733 263.1968 
L 379.588667 262.04128 
L 380.1976 262.04128 
L 380.806533 270.70768 
L 381.415467 257.99696 
L 382.0244 267.24112 
L 382.633333 262.61904 
L 383.242267 274.17424 
L 383.8512 262.04128 
L 384.460133 269.55216 
L 385.069067 266.0856 
L 385.678 256.84144 
L 386.286933 263.77456 
L 386.895867 267.81888 
L 387.5048 266.0856 
L 388.113733 270.70768 
L 388.722667 273.01872 
L 389.3316 263.1968 
L 389.940533 261.46352 
L 390.549467 271.28544 
L 391.1584 263.77456 
L 391.767333 264.35232 
L 392.376267 263.1968 
L 392.9852 264.93008 
L 393.594133 267.81888 
L 394.203067 261.46352 
L 394.812 263.1968 
L 395.420933 269.55216 
L 396.029867 272.44096 
L 396.6388 259.73024 
L 397.247733 259.73024 
L 397.856667 263.1968 
L 398.4656 265.50784 
L 399.074533 267.24112 
L 399.683467 268.39664 
L 400.2924 273.01872 
L 400.901333 257.99696 
L 401.510267 273.01872 
L 402.1192 266.0856 
L 402.728133 270.70768 
L 403.337067 268.9744 
L 403.946 268.9744 
L 404.554933 253.37488 
L 405.163867 275.90752 
L 405.7728 260.308 
L 406.381733 274.752 
L 406.990667 263.1968 
L 407.5996 270.70768 
L 408.208533 273.01872 
L 408.817467 266.0856 
L 409.4264 267.81888 
L 410.035333 270.12992 
L 410.644267 275.32976 
L 411.2532 261.46352 
L 411.862133 264.35232 
L 412.471067 262.04128 
L 412.471067 262.04128 
" clip-path="url(#p0dfd5a716f)" style="fill: none; stroke-dasharray: 5.55,2.4; stroke-dashoffset: 0; stroke: #ff7f0e; stroke-width: 1.5"/>
   </g>
   <g id="line2d_22">
    <path d="M 47.72 14.76 
L 145.149333 14.76 
L 145.758267 15.91552 
L 146.3672 14.76 
L 146.976133 14.76 
L 147.585067 15.33776 
L 148.194 14.76 
L 148.802933 16.49328 
L 150.0208 17.6488 
L 150.629733 17.6488 
L 151.238667 17.07104 
L 152.456533 17.07104 
L 153.065467 15.33776 
L 153.6744 17.07104 
L 154.283333 16.49328 
L 154.892267 16.49328 
L 155.5012 15.91552 
L 156.110133 18.80432 
L 157.936933 15.33776 
L 158.545867 15.91552 
L 159.1548 19.38208 
L 159.763733 17.6488 
L 160.9816 17.6488 
L 161.590533 17.07104 
L 162.199467 24.58192 
L 162.8084 23.4264 
L 163.417333 18.80432 
L 164.026267 19.38208 
L 164.6352 14.76 
L 165.244133 17.6488 
L 165.853067 15.33776 
L 166.462 15.33776 
L 167.070933 15.91552 
L 167.679867 15.91552 
L 168.2888 18.22656 
L 168.897733 17.07104 
L 169.506667 21.69312 
L 170.1156 15.33776 
L 170.724533 19.38208 
L 171.333467 28.62624 
L 171.9424 21.11536 
L 173.160267 24.58192 
L 173.7692 21.11536 
L 174.378133 24.58192 
L 174.987067 18.22656 
L 175.596 15.91552 
L 176.204933 19.95984 
L 176.813867 25.15968 
L 177.4228 24.00416 
L 178.031733 24.58192 
L 178.640667 22.84864 
L 179.858533 32.67056 
L 180.467467 18.80432 
L 181.0764 25.73744 
L 181.685333 23.4264 
L 182.294267 28.62624 
L 183.512133 27.47072 
L 184.121067 21.11536 
L 184.73 21.11536 
L 185.947867 29.204 
L 186.5568 29.78176 
L 187.165733 26.89296 
L 187.774667 33.82608 
L 188.3836 47.11456 
L 188.992533 29.204 
L 189.601467 33.82608 
L 190.2104 32.67056 
L 190.819333 38.44816 
L 191.428267 32.0928 
L 192.0372 28.62624 
L 192.646133 29.204 
L 193.255067 35.55936 
L 193.864 29.204 
L 194.472933 24.58192 
L 195.081867 22.27088 
L 195.6908 24.00416 
L 196.299733 28.04848 
L 196.908667 35.55936 
L 197.5176 29.78176 
L 198.126533 30.93728 
L 198.735467 30.93728 
L 199.3444 35.55936 
L 199.953333 41.33696 
L 200.562267 39.02592 
L 201.1712 37.8704 
L 201.780133 51.73664 
L 202.389067 43.07024 
L 202.998 37.29264 
L 203.606933 54.04768 
L 204.215867 54.04768 
L 204.8248 52.89216 
L 205.433733 44.22576 
L 206.042667 37.8704 
L 206.6516 39.02592 
L 207.260533 37.29264 
L 207.869467 24.00416 
L 208.4784 37.8704 
L 209.087333 45.95904 
L 209.696267 43.07024 
L 210.3052 39.60368 
L 210.914133 34.40384 
L 211.523067 32.67056 
L 212.740933 40.18144 
L 213.349867 41.91472 
L 213.9588 45.95904 
L 214.567733 39.60368 
L 215.176667 37.29264 
L 215.7856 39.02592 
L 216.394533 39.02592 
L 217.003467 45.95904 
L 217.6124 39.02592 
L 218.221333 41.91472 
L 218.830267 39.60368 
L 219.4392 34.9816 
L 220.048133 37.29264 
L 220.657067 33.24832 
L 221.874933 42.49248 
L 222.483867 34.40384 
L 223.0928 36.13712 
L 224.310667 48.27008 
L 224.9196 35.55936 
L 225.528533 28.04848 
L 226.137467 34.9816 
L 226.7464 38.44816 
L 227.355333 40.18144 
L 227.964267 36.13712 
L 228.5732 39.02592 
L 229.182133 36.13712 
L 229.791067 34.40384 
L 230.4 39.60368 
L 231.008933 43.648 
L 232.2268 36.13712 
L 232.835733 40.7592 
L 233.444667 39.60368 
L 234.0536 44.80352 
L 234.662533 30.35952 
L 235.271467 29.204 
L 235.8804 41.33696 
L 237.098267 34.9816 
L 237.7072 45.95904 
L 238.316133 37.29264 
L 238.925067 44.22576 
L 239.534 39.60368 
L 240.142933 42.49248 
L 240.751867 36.71488 
L 241.3608 63.29184 
L 241.969733 52.3144 
L 242.578667 39.02592 
L 243.1876 32.67056 
L 243.796533 39.02592 
L 244.405467 34.40384 
L 245.0144 56.35872 
L 245.623333 44.80352 
L 246.232267 45.95904 
L 246.8412 44.22576 
L 247.450133 47.69232 
L 248.059067 49.4256 
L 248.668 34.40384 
L 249.276933 52.89216 
L 249.885867 61.55856 
L 250.4948 51.15888 
L 251.103733 47.11456 
L 251.712667 60.40304 
L 252.3216 62.71408 
L 252.930533 60.9808 
L 253.539467 56.35872 
L 254.1484 36.71488 
L 254.757333 43.648 
L 255.366267 63.8696 
L 255.9752 67.91392 
L 256.584133 33.24832 
L 257.193067 50.00336 
L 257.802 55.78096 
L 258.410933 46.5368 
L 259.019867 47.69232 
L 259.6288 53.46992 
L 260.237733 47.69232 
L 260.846667 50.58112 
L 261.4556 56.93648 
L 262.064533 40.18144 
L 262.673467 50.58112 
L 263.2824 47.69232 
L 263.891333 48.84784 
L 264.500267 46.5368 
L 265.1092 51.73664 
L 265.718133 53.46992 
L 266.327067 59.82528 
L 266.936 57.51424 
L 267.544933 63.29184 
L 268.153867 65.02512 
L 268.7628 60.9808 
L 269.371733 43.648 
L 269.980667 48.27008 
L 270.5896 44.80352 
L 271.198533 44.22576 
L 271.807467 49.4256 
L 272.4164 51.15888 
L 273.025333 47.69232 
L 273.634267 46.5368 
L 274.2432 38.44816 
L 274.852133 41.33696 
L 275.461067 50.00336 
L 276.07 48.84784 
L 276.678933 48.84784 
L 277.8968 57.51424 
L 278.505733 52.89216 
L 279.114667 54.04768 
L 279.7236 50.00336 
L 280.332533 58.092 
L 280.941467 52.3144 
L 281.5504 52.89216 
L 282.159333 47.11456 
L 282.768267 44.22576 
L 283.3772 43.648 
L 283.986133 43.648 
L 284.595067 51.15888 
L 285.204 48.84784 
L 285.812933 39.02592 
L 287.0308 62.13632 
L 287.639733 51.15888 
L 288.248667 60.9808 
L 288.8576 52.3144 
L 289.466533 59.82528 
L 290.075467 49.4256 
L 290.6844 48.27008 
L 291.293333 52.89216 
L 291.902267 58.66976 
L 292.5112 50.00336 
L 293.120133 49.4256 
L 293.729067 54.62544 
L 294.338 48.27008 
L 294.946933 56.93648 
L 295.555867 60.9808 
L 296.1648 45.95904 
L 296.773733 45.38128 
L 297.382667 58.092 
L 297.9916 53.46992 
L 298.600533 52.3144 
L 299.209467 42.49248 
L 299.8184 51.73664 
L 300.427333 45.95904 
L 301.036267 45.95904 
L 301.6452 60.9808 
L 302.254133 56.35872 
L 302.863067 55.2032 
L 303.472 52.3144 
L 304.689867 68.49168 
L 305.2988 56.93648 
L 305.907733 59.82528 
L 306.516667 58.66976 
L 307.1256 85.24672 
L 307.734533 72.536 
L 308.343467 73.69152 
L 308.9524 73.69152 
L 309.561333 66.18064 
L 310.170267 61.55856 
L 310.7792 65.02512 
L 311.388133 65.60288 
L 311.997067 89.29104 
L 312.606 57.51424 
L 313.214933 43.648 
L 313.823867 45.95904 
L 314.4328 66.18064 
L 315.041733 67.91392 
L 315.650667 68.49168 
L 316.2596 55.2032 
L 316.868533 85.24672 
L 317.477467 66.7584 
L 318.0864 58.092 
L 318.695333 55.2032 
L 319.304267 61.55856 
L 319.9132 58.66976 
L 320.522133 54.04768 
L 321.131067 73.11376 
L 321.74 65.02512 
L 322.348933 67.91392 
L 322.957867 63.8696 
L 323.5668 56.93648 
L 324.175733 63.29184 
L 324.784667 64.44736 
L 325.3936 58.092 
L 326.002533 55.2032 
L 326.611467 55.2032 
L 327.2204 74.84704 
L 327.829333 59.82528 
L 328.438267 60.40304 
L 329.0472 56.93648 
L 329.656133 51.15888 
L 330.265067 52.89216 
L 330.874 63.8696 
L 331.482933 57.51424 
L 332.091867 54.62544 
L 332.7008 53.46992 
L 333.309733 51.73664 
L 333.918667 50.58112 
L 334.5276 47.11456 
L 335.136533 65.60288 
L 335.745467 47.69232 
L 336.3544 55.2032 
L 336.963333 44.22576 
L 337.572267 60.9808 
L 338.1812 46.5368 
L 338.790133 55.78096 
L 339.399067 58.092 
L 340.008 59.82528 
L 340.616933 59.24752 
L 341.225867 63.29184 
L 341.8348 74.84704 
L 342.443733 41.33696 
L 343.052667 48.84784 
L 343.6616 50.58112 
L 344.270533 50.58112 
L 344.879467 47.11456 
L 345.4884 51.15888 
L 346.097333 60.40304 
L 347.3152 44.80352 
L 347.924133 59.24752 
L 348.533067 45.38128 
L 349.142 45.38128 
L 349.750933 77.15808 
L 350.359867 55.2032 
L 350.9688 58.66976 
L 351.577733 55.78096 
L 352.186667 55.78096 
L 352.7956 50.00336 
L 353.404533 66.18064 
L 354.013467 54.04768 
L 354.6224 44.80352 
L 355.231333 46.5368 
L 355.840267 61.55856 
L 356.4492 55.2032 
L 357.058133 51.73664 
L 357.667067 56.35872 
L 358.276 52.3144 
L 358.884933 52.3144 
L 359.493867 42.49248 
L 360.1028 65.02512 
L 360.711733 54.62544 
L 361.320667 47.69232 
L 361.9296 60.40304 
L 362.538533 63.29184 
L 363.147467 56.93648 
L 363.7564 52.89216 
L 364.365333 56.35872 
L 364.974267 58.092 
L 365.5832 43.07024 
L 366.192133 67.33616 
L 366.801067 59.82528 
L 367.41 54.62544 
L 368.018933 73.69152 
L 368.627867 54.04768 
L 369.2368 48.84784 
L 369.845733 48.27008 
L 370.454667 67.33616 
L 371.0636 51.15888 
L 371.672533 75.4248 
L 372.281467 58.66976 
L 372.8904 65.60288 
L 373.499333 54.04768 
L 374.108267 77.15808 
L 374.7172 67.91392 
L 375.326133 56.35872 
L 375.935067 50.00336 
L 376.544 57.51424 
L 377.152933 67.91392 
L 377.761867 61.55856 
L 378.3708 70.80272 
L 378.979733 62.13632 
L 379.588667 50.00336 
L 380.1976 60.9808 
L 380.806533 55.2032 
L 381.415467 47.11456 
L 382.0244 45.38128 
L 382.633333 56.93648 
L 383.242267 46.5368 
L 383.8512 44.22576 
L 384.460133 59.24752 
L 385.069067 51.15888 
L 385.678 69.6472 
L 386.895867 53.46992 
L 387.5048 52.89216 
L 388.113733 55.78096 
L 388.722667 54.62544 
L 389.3316 55.2032 
L 389.940533 51.15888 
L 390.549467 59.24752 
L 391.1584 49.4256 
L 391.767333 47.11456 
L 392.376267 48.84784 
L 392.9852 69.06944 
L 393.594133 54.62544 
L 394.203067 45.95904 
L 394.812 47.11456 
L 395.420933 46.5368 
L 396.029867 45.38128 
L 396.6388 58.092 
L 397.247733 43.07024 
L 397.856667 50.58112 
L 398.4656 47.69232 
L 399.074533 40.18144 
L 399.683467 54.62544 
L 400.2924 50.58112 
L 400.901333 54.62544 
L 401.510267 45.38128 
L 402.1192 51.15888 
L 402.728133 66.18064 
L 403.337067 50.58112 
L 403.946 55.2032 
L 404.554933 42.49248 
L 405.163867 69.06944 
L 405.7728 54.62544 
L 406.381733 46.5368 
L 406.990667 52.89216 
L 407.5996 54.04768 
L 408.208533 47.69232 
L 408.817467 64.44736 
L 409.4264 52.89216 
L 410.035333 58.66976 
L 410.644267 56.93648 
L 411.2532 60.9808 
L 411.862133 67.33616 
L 412.471067 52.3144 
L 412.471067 52.3144 
" clip-path="url(#p0dfd5a716f)" style="fill: none; stroke-dasharray: 5.55,2.4; stroke-dashoffset: 0; stroke: #2ca02c; stroke-width: 1.5"/>
   </g>
   <g id="patch_7">
    <path d="M 47.72 303.64 
L 47.72 14.76 
" style="fill: none; stroke: #000000; stroke-width: 0.8; stroke-linejoin: miter; stroke-linecap: square"/>
   </g>
   <g id="patch_8">
    <path d="M 413.08 303.64 
L 413.08 14.76 
" style="fill: none; stroke: #000000; stroke-width: 0.8; stroke-linejoin: miter; stroke-linecap: square"/>
   </g>
   <g id="patch_9">
    <path d="M 47.72 303.64 
L 413.08 303.64 
" style="fill: none; stroke: #000000; stroke-width: 0.8; stroke-linejoin: miter; stroke-linecap: square"/>
   </g>
   <g id="patch_10">
    <path d="M 47.72 14.76 
L 413.08 14.76 
" style="fill: none; stroke: #000000; stroke-width: 0.8; stroke-linejoin: miter; stroke-linecap: square"/>
   </g>
   <g id="legend_1">
    <g id="patch_11">
     <path d="M 54.72 298.64 
L 93.0825 298.64 
Q 95.0825 298.64 95.0825 296.64 
L 95.0825 253.605625 
Q 95.0825 251.605625 93.0825 251.605625 
L 54.72 251.605625 
Q 52.72 251.605625 52.72 253.605625 
L 52.72 296.64 
Q 52.72 298.64 54.72 298.64 
z
" style="fill: #ffffff; opacity: 0.8; stroke: #cccccc; stroke-linejoin: miter"/>
    </g>
    <g id="line2d_23">
     <path d="M 56.72 259.704062 
L 66.72 259.704062 
L 76.72 259.704062 
" style="fill: none; stroke-dasharray: 5.55,2.4; stroke-dashoffset: 0; stroke: #1f77b4; stroke-width: 1.5"/>
    </g>
    <g id="text_22">
     <!-- 0 -->
     <g transform="translate(84.72 263.204062) scale(0.1 -0.1)">
      <use xlink:href="#DejaVuSans-30"/>
     </g>
    </g>
    <g id="line2d_24">
     <path d="M 56.72 274.382187 
L 66.72 274.382187 
L 76.72 274.382187 
" style="fill: none; stroke-dasharray: 5.55,2.4; stroke-dashoffset: 0; stroke: #ff7f0e; stroke-width: 1.5"/>
    </g>
    <g id="text_23">
     <!-- 1 -->
     <g transform="translate(84.72 277.882187) scale(0.1 -0.1)">
      <use xlink:href="#DejaVuSans-31"/>
     </g>
    </g>
    <g id="line2d_25">
     <path d="M 56.72 289.060312 
L 66.72 289.060312 
L 76.72 289.060312 
" style="fill: none; stroke-dasharray: 5.55,2.4; stroke-dashoffset: 0; stroke: #2ca02c; stroke-width: 1.5"/>
    </g>
    <g id="text_24">
     <!-- 2 -->
     <g transform="translate(84.72 292.560312) scale(0.1 -0.1)">
      <use xlink:href="#DejaVuSans-32"/>
     </g>
    </g>
   </g>
  </g>
 </g>
 <defs>
  <clipPath id="p0dfd5a716f">
   <rect x="47.72" y="14.76" width="365.36" height="288.88"/>
  </clipPath>
 </defs>
</svg>
