<?xml version="1.0" encoding="utf-8" standalone="no"?>
<!DOCTYPE svg PUBLIC "-//W3C//DTD SVG 1.1//EN"
  "http://www.w3.org/Graphics/SVG/1.1/DTD/svg11.dtd">
<svg xmlns:xlink="http://www.w3.org/1999/xlink" width="460.8pt" height="345.6pt" viewBox="0 0 460.8 345.6" xmlns="http://www.w3.org/2000/svg" version="1.1">
 <metadata>
  <rdf:RDF xmlns:dc="http://purl.org/dc/elements/1.1/" xmlns:cc="http://creativecommons.org/ns#" xmlns:rdf="http://www.w3.org/1999/02/22-rdf-syntax-ns#">
   <cc:Work>
    <dc:type rdf:resource="http://purl.org/dc/dcmitype/StillImage"/>
    <dc:date>2026-06-05T10:40:59.371160</dc:date>
    <dc:format>image/svg+xml</dc:format>
    <dc:creator>
     <cc:Agent>
      <dc:title>Matplotlib v3.7.5, https://matplotlib.org/</dc:title>
     </cc:Agent>
    </dc:creator>
   </cc:Work>
  </rdf:RDF>
 </metadata>
 <defs>
  <style type="text/css">*{stroke-linejoin: round; stroke-linecap: butt}</style>
 </defs>
 <g id="figure_1">
  <g id="patch_1">
   <path d="M 0 345.6 
L 460.8 345.6 
L 460.8 0 
L 0 0 
z
" style="fill: #ffffff"/>
  </g>
  <g id="axes_1">
   <g id="patch_2">
    <path d="M 47.72 303.64 
L 413.08 303.64 
L 413.08 14.76 
L 47.72 14.76 
z
" style="fill: #ffffff"/>
   </g>
   <g id="matplotlib.axis_1">
    <g id="xtick_1">
     <g id="line2d_1">
      <defs>
       <path id="mc32cd36133" d="M 0 0 
L 0 3.5 
" style="stroke: #000000; stroke-width: 0.8"/>
      </defs>
      <g>
       <use xlink:href="#mc32cd36133" x="47.72" y="303.64" style="stroke: #000000; stroke-width: 0.8"/>
      </g>
     </g>
     <g id="text_1">
      <!-- 0 -->
      <g transform="translate(44.53875 318.238437) scale(0.1 -0.1)">
       <defs>
        <path id="DejaVuSans-30" d="M 2034 4250 
Q 1547 4250 1301 3770 
Q 1056 3291 1056 2328 
Q 1056 1369 1301 889 
Q 1547 409 2034 409 
Q 2525 409 2770 889 
Q 3016 1369 3016 2328 
Q 3016 3291 2770 3770 
Q 2525 4250 2034 4250 
z
M 2034 4750 
Q 2819 4750 3233 4129 
Q 3647 3509 3647 2328 
Q 3647 1150 3233 529 
Q 2819 -91 2034 -91 
Q 1250 -91 836 529 
Q 422 1150 422 2328 
Q 422 3509 836 4129 
Q 1250 4750 2034 4750 
z
" transform="scale(0.015625)"/>
       </defs>
       <use xlink:href="#DejaVuSans-30"/>
      </g>
     </g>
    </g>
    <g id="xtick_2">
     <g id="line2d_2">
      <g>
       <use xlink:href="#mc32cd36133" x="108.613333" y="303.64" style="stroke: #000000; stroke-width: 0.8"/>
      </g>
     </g>
     <g id="text_2">
      <!-- 100 -->
      <g transform="translate(99.069583 318.238437) scale(0.1 -0.1)">
       <defs>
        <path id="DejaVuSans-31" d="M 794 531 
L 1825 531 
L 1825 4091 
L 703 3866 
L 703 4441 
L 1819 4666 
L 2450 4666 
L 2450 531 
L 3481 531 
L 3481 0 
L 794 0 
L 794 531 
z
" transform="scale(0.015625)"/>
       </defs>
       <use xlink:href="#DejaVuSans-31"/>
       <use xlink:href="#DejaVuSans-30" x="63.623047"/>
       <use xlink:href="#DejaVuSans-30" x="127.246094"/>
      </g>
     </g>
    </g>
    <g id="xtick_3">
     <g id="line2d_3">
      <g>
       <use xlink:href="#mc32cd36133" x="169.506667" y="303.64" style="stroke: #000000; stroke-width: 0.8"/>
      </g>
     </g>
     <g id="text_3">
      <!-- 200 -->
      <g transform="translate(159.962917 318.238437) scale(0.1 -0.1)">
       <defs>
        <path id="DejaVuSans-32" d="M 1228 531 
L 3431 531 
L 3431 0 
L 469 0 
L 469 531 
Q 828 903 1448 1529 
Q 2069 2156 2228 2338 
Q 2531 2678 2651 2914 
Q 2772 3150 2772 3378 
Q 2772 3750 2511 3984 
Q 2250 4219 1831 4219 
Q 1534 4219 1204 4116 
Q 875 4013 500 3803 
L 500 4441 
Q 881 4594 1212 4672 
Q 1544 4750 1819 4750 
Q 2544 4750 2975 4387 
Q 3406 4025 3406 3419 
Q 3406 3131 3298 2873 
Q 3191 2616 2906 2266 
Q 2828 2175 2409 1742 
Q 1991 1309 1228 531 
z
" transform="scale(0.015625)"/>
       </defs>
       <use xlink:href="#DejaVuSans-32"/>
       <use xlink:href="#DejaVuSans-30" x="63.623047"/>
       <use xlink:href="#DejaVuSans-30" x="127.246094"/>
      </g>
     </g>
    </g>
    <g id="xtick_4">
     <g id="line2d_4">
      <g>
       <use xlink:href="#mc32cd36133" x="230.4" y="303.64" style="stroke: #000000; stroke-width: 0.8"/>
      </g>
     </g>
     <g id="text_4">
      <!-- 300 -->
      <g transform="translate(220.85625 318.238437) scale(0.1 -0.1)">
       <defs>
        <path id="DejaVuSans-33" d="M 2597 2516 
Q 3050 2419 3304 2112 
Q 3559 1806 3559 1356 
Q 3559 666 3084 287 
Q 2609 -91 1734 -91 
Q 1441 -91 1130 -33 
Q 819 25 488 141 
L 488 750 
Q 750 597 1062 519 
Q 1375 441 1716 441 
Q 2309 441 2620 675 
Q 2931 909 2931 1356 
Q 2931 1769 2642 2001 
Q 2353 2234 1838 2234 
L 1294 2234 
L 1294 2753 
L 1863 2753 
Q 2328 2753 2575 2939 
Q 2822 3125 2822 3475 
Q 2822 3834 2567 4026 
Q 2313 4219 1838 4219 
Q 1578 4219 1281 4162 
Q 984 4106 628 3988 
L 628 4550 
Q 988 4650 1302 4700 
Q 1616 4750 1894 4750 
Q 2613 4750 3031 4423 
Q 3450 4097 3450 3541 
Q 3450 3153 3228 2886 
Q 3006 2619 2597 2516 
z
" transform="scale(0.015625)"/>
       </defs>
       <use xlink:href="#DejaVuSans-33"/>
       <use xlink:href="#DejaVuSans-30" x="63.623047"/>
       <use xlink:href="#DejaVuSans-30" x="127.246094"/>
      </g>
     </g>
    </g>
    <g id="xtick_5">
     <g id="line2d_5">
      <g>
       <use xlink:href="#mc32cd36133" x="291.293333" y="303.64" style="stroke: #000000; stroke-width: 0.8"/>
      </g>
     </g>
     <g id="text_5">
      <!-- 400 -->
      <g transform="translate(281.749583 318.238437) scale(0.1 -0.1)">
       <defs>
        <path id="DejaVuSans-34" d="M 2419 4116 
L 825 1625 
L 2419 1625 
L 2419 4116 
z
M 2253 4666 
L 3047 4666 
L 3047 1625 
L 3713 1625 
L 3713 1100 
L 3047 1100 
L 3047 0 
L 2419 0 
L 2419 1100 
L 313 1100 
L 313 1709 
L 2253 4666 
z
" transform="scale(0.015625)"/>
       </defs>
       <use xlink:href="#DejaVuSans-34"/>
       <use xlink:href="#DejaVuSans-30" x="63.623047"/>
       <use xlink:href="#DejaVuSans-30" x="127.246094"/>
      </g>
     </g>
    </g>
    <g id="xtick_6">
     <g id="line2d_6">
      <g>
       <use xlink:href="#mc32cd36133" x="352.186667" y="303.64" style="stroke: #000000; stroke-width: 0.8"/>
      </g>
     </g>
     <g id="text_6">
      <!-- 500 -->
      <g transform="translate(342.642917 318.238437) scale(0.1 -0.1)">
       <defs>
        <path id="DejaVuSans-35" d="M 691 4666 
L 3169 4666 
L 3169 4134 
L 1269 4134 
L 1269 2991 
Q 1406 3038 1543 3061 
Q 1681 3084 1819 3084 
Q 2600 3084 3056 2656 
Q 3513 2228 3513 1497 
Q 3513 744 3044 326 
Q 2575 -91 1722 -91 
Q 1428 -91 1123 -41 
Q 819 9 494 109 
L 494 744 
Q 775 591 1075 516 
Q 1375 441 1709 441 
Q 2250 441 2565 725 
Q 2881 1009 2881 1497 
Q 2881 1984 2565 2268 
Q 2250 2553 1709 2553 
Q 1456 2553 1204 2497 
Q 953 2441 691 2322 
L 691 4666 
z
" transform="scale(0.015625)"/>
       </defs>
       <use xlink:href="#DejaVuSans-35"/>
       <use xlink:href="#DejaVuSans-30" x="63.623047"/>
       <use xlink:href="#DejaVuSans-30" x="127.246094"/>
      </g>
     </g>
    </g>
    <g id="xtick_7">
     <g id="line2d_7">
      <g>
       <use xlink:href="#mc32cd36133" x="413.08" y="303.64" style="stroke: #000000; stroke-width: 0.8"/>
      </g>
     </g>
     <g id="text_7">
      <!-- 600 -->
      <g transform="translate(403.53625 318.238437) scale(0.1 -0.1)">
       <defs>
        <path id="DejaVuSans-36" d="M 2113 2584 
Q 1688 2584 1439 2293 
Q 1191 2003 1191 1497 
Q 1191 994 1439 701 
Q 1688 409 2113 409 
Q 2538 409 2786 701 
Q 3034 994 3034 1497 
Q 3034 2003 2786 2293 
Q 2538 2584 2113 2584 
z
M 3366 4563 
L 3366 3988 
Q 3128 4100 2886 4159 
Q 2644 4219 2406 4219 
Q 1781 4219 1451 3797 
Q 1122 3375 1075 2522 
Q 1259 2794 1537 2939 
Q 1816 3084 2150 3084 
Q 2853 3084 3261 2657 
Q 3669 2231 3669 1497 
Q 3669 778 3244 343 
Q 2819 -91 2113 -91 
Q 1303 -91 875 529 
Q 447 1150 447 2328 
Q 447 3434 972 4092 
Q 1497 4750 2381 4750 
Q 2619 4750 2861 4703 
Q 3103 4656 3366 4563 
z
" transform="scale(0.015625)"/>
       </defs>
       <use xlink:href="#DejaVuSans-36"/>
       <use xlink:href="#DejaVuSans-30" x="63.623047"/>
       <use xlink:href="#DejaVuSans-30" x="127.246094"/>
      </g>
     </g>
    </g>
    <g id="text_8">
     <!-- Epoch -->
     <g transform="translate(215.089063 331.916562) scale(0.1 -0.1)">
      <defs>
       <path id="DejaVuSans-45" d="M 628 4666 
L 3578 4666 
L 3578 4134 
L 1259 4134 
L 1259 2753 
L 3481 2753 
L 3481 2222 
L 1259 2222 
L 1259 531 
L 3634 531 
L 3634 0 
L 628 0 
L 628 4666 
z
" transform="scale(0.015625)"/>
       <path id="DejaVuSans-70" d="M 1159 525 
L 1159 -1331 
L 581 -1331 
L 581 3500 
L 1159 3500 
L 1159 2969 
Q 1341 3281 1617 3432 
Q 1894 3584 2278 3584 
Q 2916 3584 3314 3078 
Q 3713 2572 3713 1747 
Q 3713 922 3314 415 
Q 2916 -91 2278 -91 
Q 1894 -91 1617 61 
Q 1341 213 1159 525 
z
M 3116 1747 
Q 3116 2381 2855 2742 
Q 2594 3103 2138 3103 
Q 1681 3103 1420 2742 
Q 1159 2381 1159 1747 
Q 1159 1113 1420 752 
Q 1681 391 2138 391 
Q 2594 391 2855 752 
Q 3116 1113 3116 1747 
z
" transform="scale(0.015625)"/>
       <path id="DejaVuSans-6f" d="M 1959 3097 
Q 1497 3097 1228 2736 
Q 959 2375 959 1747 
Q 959 1119 1226 758 
Q 1494 397 1959 397 
Q 2419 397 2687 759 
Q 2956 1122 2956 1747 
Q 2956 2369 2687 2733 
Q 2419 3097 1959 3097 
z
M 1959 3584 
Q 2709 3584 3137 3096 
Q 3566 2609 3566 1747 
Q 3566 888 3137 398 
Q 2709 -91 1959 -91 
Q 1206 -91 779 398 
Q 353 888 353 1747 
Q 353 2609 779 3096 
Q 1206 3584 1959 3584 
z
" transform="scale(0.015625)"/>
       <path id="DejaVuSans-63" d="M 3122 3366 
L 3122 2828 
Q 2878 2963 2633 3030 
Q 2388 3097 2138 3097 
Q 1578 3097 1268 2742 
Q 959 2388 959 1747 
Q 959 1106 1268 751 
Q 1578 397 2138 397 
Q 2388 397 2633 464 
Q 2878 531 3122 666 
L 3122 134 
Q 2881 22 2623 -34 
Q 2366 -91 2075 -91 
Q 1284 -91 818 406 
Q 353 903 353 1747 
Q 353 2603 823 3093 
Q 1294 3584 2113 3584 
Q 2378 3584 2631 3529 
Q 2884 3475 3122 3366 
z
" transform="scale(0.015625)"/>
       <path id="DejaVuSans-68" d="M 3513 2113 
L 3513 0 
L 2938 0 
L 2938 2094 
Q 2938 2591 2744 2837 
Q 2550 3084 2163 3084 
Q 1697 3084 1428 2787 
Q 1159 2491 1159 1978 
L 1159 0 
L 581 0 
L 581 4863 
L 1159 4863 
L 1159 2956 
Q 1366 3272 1645 3428 
Q 1925 3584 2291 3584 
Q 2894 3584 3203 3211 
Q 3513 2838 3513 2113 
z
" transform="scale(0.015625)"/>
      </defs>
      <use xlink:href="#DejaVuSans-45"/>
      <use xlink:href="#DejaVuSans-70" x="63.183594"/>
      <use xlink:href="#DejaVuSans-6f" x="126.660156"/>
      <use xlink:href="#DejaVuSans-63" x="187.841797"/>
      <use xlink:href="#DejaVuSans-68" x="242.822266"/>
     </g>
    </g>
   </g>
   <g id="matplotlib.axis_2">
    <g id="ytick_1">
     <g id="line2d_8">
      <defs>
       <path id="mb784a0a257" d="M 0 0 
L -3.5 0 
" style="stroke: #000000; stroke-width: 0.8"/>
      </defs>
      <g>
       <use xlink:href="#mb784a0a257" x="47.72" y="273.084155" style="stroke: #000000; stroke-width: 0.8"/>
      </g>
     </g>
     <g id="text_9">
      <!-- 20 -->
      <g transform="translate(27.995 276.883374) scale(0.1 -0.1)">
       <use xlink:href="#DejaVuSans-32"/>
       <use xlink:href="#DejaVuSans-30" x="63.623047"/>
      </g>
     </g>
    </g>
    <g id="ytick_2">
     <g id="line2d_9">
      <g>
       <use xlink:href="#mb784a0a257" x="47.72" y="209.273549" style="stroke: #000000; stroke-width: 0.8"/>
      </g>
     </g>
     <g id="text_10">
      <!-- 40 -->
      <g transform="translate(27.995 213.072768) scale(0.1 -0.1)">
       <use xlink:href="#DejaVuSans-34"/>
       <use xlink:href="#DejaVuSans-30" x="63.623047"/>
      </g>
     </g>
    </g>
    <g id="ytick_3">
     <g id="line2d_10">
      <g>
       <use xlink:href="#mb784a0a257" x="47.72" y="145.462944" style="stroke: #000000; stroke-width: 0.8"/>
      </g>
     </g>
     <g id="text_11">
      <!-- 60 -->
      <g transform="translate(27.995 149.262162) scale(0.1 -0.1)">
       <use xlink:href="#DejaVuSans-36"/>
       <use xlink:href="#DejaVuSans-30" x="63.623047"/>
      </g>
     </g>
    </g>
    <g id="ytick_4">
     <g id="line2d_11">
      <g>
       <use xlink:href="#mb784a0a257" x="47.72" y="81.652338" style="stroke: #000000; stroke-width: 0.8"/>
      </g>
     </g>
     <g id="text_12">
      <!-- 80 -->
      <g transform="translate(27.995 85.451556) scale(0.1 -0.1)">
       <defs>
        <path id="DejaVuSans-38" d="M 2034 2216 
Q 1584 2216 1326 1975 
Q 1069 1734 1069 1313 
Q 1069 891 1326 650 
Q 1584 409 2034 409 
Q 2484 409 2743 651 
Q 3003 894 3003 1313 
Q 3003 1734 2745 1975 
Q 2488 2216 2034 2216 
z
M 1403 2484 
Q 997 2584 770 2862 
Q 544 3141 544 3541 
Q 544 4100 942 4425 
Q 1341 4750 2034 4750 
Q 2731 4750 3128 4425 
Q 3525 4100 3525 3541 
Q 3525 3141 3298 2862 
Q 3072 2584 2669 2484 
Q 3125 2378 3379 2068 
Q 3634 1759 3634 1313 
Q 3634 634 3220 271 
Q 2806 -91 2034 -91 
Q 1263 -91 848 271 
Q 434 634 434 1313 
Q 434 1759 690 2068 
Q 947 2378 1403 2484 
z
M 1172 3481 
Q 1172 3119 1398 2916 
Q 1625 2713 2034 2713 
Q 2441 2713 2670 2916 
Q 2900 3119 2900 3481 
Q 2900 3844 2670 4047 
Q 2441 4250 2034 4250 
Q 1625 4250 1398 4047 
Q 1172 3844 1172 3481 
z
" transform="scale(0.015625)"/>
       </defs>
       <use xlink:href="#DejaVuSans-38"/>
       <use xlink:href="#DejaVuSans-30" x="63.623047"/>
      </g>
     </g>
    </g>
    <g id="ytick_5">
     <g id="line2d_12">
      <g>
       <use xlink:href="#mb784a0a257" x="47.72" y="17.841732" style="stroke: #000000; stroke-width: 0.8"/>
      </g>
     </g>
     <g id="text_13">
      <!-- 100 -->
      <g transform="translate(21.6325 21.640951) scale(0.1 -0.1)">
       <use xlink:href="#DejaVuSans-31"/>
       <use xlink:href="#DejaVuSans-30" x="63.623047"/>
       <use xlink:href="#DejaVuSans-30" x="127.246094"/>
      </g>
     </g>
    </g>
    <g id="text_14">
     <!-- Performance -->
     <g transform="translate(15.552813 190.882031) rotate(-90) scale(0.1 -0.1)">
      <defs>
       <path id="DejaVuSans-50" d="M 1259 4147 
L 1259 2394 
L 2053 2394 
Q 2494 2394 2734 2622 
Q 2975 2850 2975 3272 
Q 2975 3691 2734 3919 
Q 2494 4147 2053 4147 
L 1259 4147 
z
M 628 4666 
L 2053 4666 
Q 2838 4666 3239 4311 
Q 3641 3956 3641 3272 
Q 3641 2581 3239 2228 
Q 2838 1875 2053 1875 
L 1259 1875 
L 1259 0 
L 628 0 
L 628 4666 
z
" transform="scale(0.015625)"/>
       <path id="DejaVuSans-65" d="M 3597 1894 
L 3597 1613 
L 953 1613 
Q 991 1019 1311 708 
Q 1631 397 2203 397 
Q 2534 397 2845 478 
Q 3156 559 3463 722 
L 3463 178 
Q 3153 47 2828 -22 
Q 2503 -91 2169 -91 
Q 1331 -91 842 396 
Q 353 884 353 1716 
Q 353 2575 817 3079 
Q 1281 3584 2069 3584 
Q 2775 3584 3186 3129 
Q 3597 2675 3597 1894 
z
M 3022 2063 
Q 3016 2534 2758 2815 
Q 2500 3097 2075 3097 
Q 1594 3097 1305 2825 
Q 1016 2553 972 2059 
L 3022 2063 
z
" transform="scale(0.015625)"/>
       <path id="DejaVuSans-72" d="M 2631 2963 
Q 2534 3019 2420 3045 
Q 2306 3072 2169 3072 
Q 1681 3072 1420 2755 
Q 1159 2438 1159 1844 
L 1159 0 
L 581 0 
L 581 3500 
L 1159 3500 
L 1159 2956 
Q 1341 3275 1631 3429 
Q 1922 3584 2338 3584 
Q 2397 3584 2469 3576 
Q 2541 3569 2628 3553 
L 2631 2963 
z
" transform="scale(0.015625)"/>
       <path id="DejaVuSans-66" d="M 2375 4863 
L 2375 4384 
L 1825 4384 
Q 1516 4384 1395 4259 
Q 1275 4134 1275 3809 
L 1275 3500 
L 2222 3500 
L 2222 3053 
L 1275 3053 
L 1275 0 
L 697 0 
L 697 3053 
L 147 3053 
L 147 3500 
L 697 3500 
L 697 3744 
Q 697 4328 969 4595 
Q 1241 4863 1831 4863 
L 2375 4863 
z
" transform="scale(0.015625)"/>
       <path id="DejaVuSans-6d" d="M 3328 2828 
Q 3544 3216 3844 3400 
Q 4144 3584 4550 3584 
Q 5097 3584 5394 3201 
Q 5691 2819 5691 2113 
L 5691 0 
L 5113 0 
L 5113 2094 
Q 5113 2597 4934 2840 
Q 4756 3084 4391 3084 
Q 3944 3084 3684 2787 
Q 3425 2491 3425 1978 
L 3425 0 
L 2847 0 
L 2847 2094 
Q 2847 2600 2669 2842 
Q 2491 3084 2119 3084 
Q 1678 3084 1418 2786 
Q 1159 2488 1159 1978 
L 1159 0 
L 581 0 
L 581 3500 
L 1159 3500 
L 1159 2956 
Q 1356 3278 1631 3431 
Q 1906 3584 2284 3584 
Q 2666 3584 2933 3390 
Q 3200 3197 3328 2828 
z
" transform="scale(0.015625)"/>
       <path id="DejaVuSans-61" d="M 2194 1759 
Q 1497 1759 1228 1600 
Q 959 1441 959 1056 
Q 959 750 1161 570 
Q 1363 391 1709 391 
Q 2188 391 2477 730 
Q 2766 1069 2766 1631 
L 2766 1759 
L 2194 1759 
z
M 3341 1997 
L 3341 0 
L 2766 0 
L 2766 531 
Q 2569 213 2275 61 
Q 1981 -91 1556 -91 
Q 1019 -91 701 211 
Q 384 513 384 1019 
Q 384 1609 779 1909 
Q 1175 2209 1959 2209 
L 2766 2209 
L 2766 2266 
Q 2766 2663 2505 2880 
Q 2244 3097 1772 3097 
Q 1472 3097 1187 3025 
Q 903 2953 641 2809 
L 641 3341 
Q 956 3463 1253 3523 
Q 1550 3584 1831 3584 
Q 2591 3584 2966 3190 
Q 3341 2797 3341 1997 
z
" transform="scale(0.015625)"/>
       <path id="DejaVuSans-6e" d="M 3513 2113 
L 3513 0 
L 2938 0 
L 2938 2094 
Q 2938 2591 2744 2837 
Q 2550 3084 2163 3084 
Q 1697 3084 1428 2787 
Q 1159 2491 1159 1978 
L 1159 0 
L 581 0 
L 581 3500 
L 1159 3500 
L 1159 2956 
Q 1366 3272 1645 3428 
Q 1925 3584 2291 3584 
Q 2894 3584 3203 3211 
Q 3513 2838 3513 2113 
z
" transform="scale(0.015625)"/>
      </defs>
      <use xlink:href="#DejaVuSans-50"/>
      <use xlink:href="#DejaVuSans-65" x="56.677734"/>
      <use xlink:href="#DejaVuSans-72" x="118.201172"/>
      <use xlink:href="#DejaVuSans-66" x="159.314453"/>
      <use xlink:href="#DejaVuSans-6f" x="194.519531"/>
      <use xlink:href="#DejaVuSans-72" x="255.701172"/>
      <use xlink:href="#DejaVuSans-6d" x="295.064453"/>
      <use xlink:href="#DejaVuSans-61" x="392.476562"/>
      <use xlink:href="#DejaVuSans-6e" x="453.755859"/>
      <use xlink:href="#DejaVuSans-63" x="517.134766"/>
      <use xlink:href="#DejaVuSans-65" x="572.115234"/>
     </g>
    </g>
   </g>
   <g id="line2d_13">
    <path d="M 47.72 259.978766 
L 48.328933 280.300414 
L 48.937867 279.056231 
L 49.5468 290.509091 
L 50.155733 273.250045 
L 50.764667 189.092274 
L 51.3736 152.181528 
L 51.982533 138.686937 
L 52.591467 133.486893 
L 53.2004 130.839014 
L 53.809333 116.642576 
L 54.418267 118.397183 
L 55.0272 101.840002 
L 55.636133 130.328591 
L 56.245067 115.334593 
L 56.854 111.41062 
L 57.462933 99.383524 
L 58.6808 118.748119 
L 59.289733 82.315896 
L 59.898667 85.218998 
L 60.5076 86.686493 
L 61.116533 88.536811 
L 62.3344 78.519546 
L 62.943333 79.125682 
L 63.552267 83.560079 
L 64.1612 86.271757 
L 64.770133 74.499885 
L 65.379067 68.438481 
L 65.988 70.0336 
L 66.596933 70.735448 
L 67.205867 69.778376 
L 67.8148 69.650776 
L 68.423733 68.215169 
L 69.032667 63.844572 
L 69.6416 60.303447 
L 70.250533 61.770942 
L 70.859467 64.163596 
L 71.4684 63.429861 
L 72.077333 59.697311 
L 72.686267 59.250688 
L 73.2952 58.325504 
L 73.904133 61.260518 
L 75.122 60.973382 
L 75.730933 56.188074 
L 76.339867 56.188074 
L 76.9488 60.335359 
L 78.166667 58.708352 
L 78.7756 60.399159 
L 79.384533 59.186863 
L 79.993467 57.240833 
L 80.6024 56.251873 
L 81.211333 58.006504 
L 81.820267 58.931664 
L 83.647067 51.913188 
L 84.864933 54.497267 
L 85.473867 56.283786 
L 86.691733 50.573293 
L 87.9096 53.859219 
L 88.518533 53.284971 
L 89.7364 50.988029 
L 90.345333 51.338941 
L 90.954267 53.157372 
L 91.5632 51.594165 
L 92.172133 50.509493 
L 92.781067 51.785589 
L 93.39 50.573293 
L 93.998933 49.680046 
L 94.607867 49.520534 
L 95.825733 47.06408 
L 96.434667 47.383079 
L 97.0436 48.340151 
L 98.261467 51.179453 
L 98.8704 51.498453 
L 99.479333 50.892317 
L 100.088267 50.637118 
L 100.6972 49.26531 
L 101.306133 49.26531 
L 101.915067 48.403951 
L 102.524 48.722975 
L 103.132933 47.893527 
L 103.741867 46.170808 
L 104.3508 46.776944 
L 104.959733 46.521744 
L 105.568667 47.095968 
L 106.1776 48.882487 
L 106.786533 48.372063 
L 107.395467 47.414992 
L 108.0044 46.745056 
L 108.613333 46.808856 
L 109.222267 45.819897 
L 109.8312 44.38429 
L 111.049067 44.065266 
L 111.658 43.45913 
L 112.266933 44.224778 
L 112.875867 45.181849 
L 113.4848 47.032168 
L 114.093733 44.830913 
L 114.702667 43.33153 
L 115.3116 43.810042 
L 115.920533 44.735226 
L 116.529467 43.778154 
L 117.747333 43.873866 
L 118.356267 44.097178 
L 118.9652 43.172019 
L 119.574133 41.768324 
L 120.183067 43.140106 
L 120.792 44.926625 
L 121.400933 47.606416 
L 122.009867 46.521744 
L 122.6188 44.830913 
L 123.227733 44.001466 
L 123.836667 44.097178 
L 124.4456 45.405161 
L 125.054533 45.054225 
L 125.663467 44.480002 
L 126.881333 40.811252 
L 127.490267 41.066476 
L 128.0992 43.58673 
L 128.708133 47.223568 
L 129.317067 47.829727 
L 129.926 47.19168 
L 130.534933 43.235818 
L 131.143867 41.034564 
L 131.7528 40.906964 
L 132.361733 41.5131 
L 132.970667 42.565883 
L 133.5796 44.288578 
L 134.188533 43.778154 
L 134.797467 41.3217 
L 135.4064 40.173204 
L 136.015333 40.013693 
L 136.624267 40.58794 
L 137.2332 40.268916 
L 138.451067 37.971974 
L 139.06 38.131486 
L 140.277867 41.289788 
L 140.8868 41.162188 
L 141.495733 40.013693 
L 142.104667 39.886093 
L 142.7136 39.311845 
L 143.322533 39.567069 
L 143.931467 40.173204 
L 144.5404 39.662781 
L 145.149333 40.58794 
L 145.758267 41.959723 
L 146.3672 42.725371 
L 146.976133 42.693483 
L 147.585067 41.066476 
L 148.194 38.609997 
L 148.802933 37.365839 
L 149.411867 37.142502 
L 150.0208 37.142502 
L 151.238667 39.056645 
L 151.8476 38.705709 
L 153.6744 36.663991 
L 154.283333 36.536367 
L 154.892267 36.855391 
L 156.110133 37.174415 
L 156.719067 37.174415 
L 157.936933 39.822293 
L 158.545867 39.822293 
L 159.1548 39.311845 
L 159.763733 37.046815 
L 160.372667 35.898319 
L 160.9816 36.408767 
L 161.590533 38.259086 
L 162.8084 40.811252 
L 163.417333 41.098364 
L 164.026267 41.5131 
L 165.244133 38.673822 
L 165.853067 37.940062 
L 166.462 38.801421 
L 167.679867 39.981805 
L 169.506667 38.992845 
L 170.1156 38.482398 
L 171.333467 37.014903 
L 171.9424 35.611208 
L 172.551333 35.675008 
L 173.160267 36.153543 
L 174.378133 36.791591 
L 175.596 35.57932 
L 176.204933 35.962144 
L 177.4228 39.216157 
L 178.031733 39.056645 
L 178.640667 36.823503 
L 179.2496 36.249255 
L 181.0764 35.324096 
L 181.685333 35.962144 
L 182.294267 36.791591 
L 182.9032 38.705709 
L 183.512133 42.789195 
L 184.121067 42.533971 
L 185.338933 35.611208 
L 185.947867 34.84556 
L 186.5568 36.472567 
L 187.165733 39.790381 
L 187.774667 40.71554 
L 188.3836 41.034564 
L 188.992533 41.098364 
L 189.601467 40.013693 
L 190.2104 39.790381 
L 190.819333 39.694693 
L 191.428267 38.897133 
L 192.646133 37.908174 
L 193.255067 37.84435 
L 193.864 37.525326 
L 195.081867 38.099574 
L 195.6908 39.598981 
L 196.299733 38.322886 
L 196.908667 35.866432 
L 198.126533 36.217343 
L 199.3444 38.067662 
L 199.953333 37.812462 
L 200.562267 36.089743 
L 201.1712 34.71796 
L 201.780133 33.728977 
L 202.389067 34.016113 
L 202.998 34.813648 
L 204.215867 36.982991 
L 205.433733 34.71796 
L 206.042667 33.154753 
L 206.6516 32.325282 
L 207.260533 32.803817 
L 207.869467 32.420994 
L 208.4784 32.676218 
L 209.087333 32.612418 
L 209.696267 32.77193 
L 210.3052 32.165794 
L 210.914133 31.814858 
L 211.523067 31.91057 
L 212.132 32.452906 
L 212.740933 33.154753 
L 213.349867 33.665177 
L 213.9588 33.792801 
L 215.176667 34.398937 
L 215.7856 34.90936 
L 217.003467 32.740018 
L 218.221333 32.133882 
L 218.830267 33.250465 
L 219.4392 35.100784 
L 220.657067 37.908174 
L 221.266 38.003862 
L 222.483867 34.271312 
L 223.0928 33.122841 
L 223.701733 32.963329 
L 224.310667 33.888489 
L 224.9196 34.526536 
L 225.528533 34.143713 
L 226.137467 32.516706 
L 226.7464 32.261482 
L 227.355333 32.548618 
L 227.964267 34.654136 
L 229.182133 37.58915 
L 229.791067 38.386686 
L 230.4 37.110615 
L 231.617867 32.516706 
L 232.2268 31.878658 
L 232.835733 32.516706 
L 233.444667 34.654136 
L 234.0536 35.451696 
L 234.662533 35.260296 
L 235.8804 33.665177 
L 236.489333 33.473777 
L 237.098267 33.856601 
L 237.7072 33.792801 
L 238.316133 34.175625 
L 238.925067 34.271312 
L 240.142933 34.048001 
L 240.751867 34.143713 
L 241.3608 34.079913 
L 241.969733 34.207513 
L 242.578667 33.346153 
L 243.1876 32.995242 
L 244.405467 32.580506 
L 245.0144 32.867617 
L 245.623333 32.77193 
L 246.232267 32.261482 
L 247.450133 32.293394 
L 248.059067 32.516706 
L 248.668 32.325282 
L 249.276933 32.006282 
L 249.885867 32.006282 
L 250.4948 31.814858 
L 251.103733 31.91057 
L 252.3216 32.484794 
L 252.930533 32.389106 
L 253.539467 32.420994 
L 254.1484 32.325282 
L 254.757333 32.452906 
L 255.9752 32.03817 
L 256.584133 32.03817 
L 257.802 31.368235 
L 258.410933 31.591546 
L 259.6288 31.591546 
L 260.846667 32.389106 
L 262.064533 32.325282 
L 262.673467 32.133882 
L 263.891333 31.400122 
L 264.500267 31.400122 
L 265.1092 31.176811 
L 266.327067 31.942458 
L 266.936 32.165794 
L 267.544933 32.229594 
L 268.7628 31.495834 
L 269.371733 31.432035 
L 269.980667 31.495834 
L 270.5896 32.133882 
L 271.198533 32.580506 
L 271.807467 33.409953 
L 273.025333 34.016113 
L 274.852133 30.953499 
L 275.461067 30.506875 
L 276.07 30.602587 
L 276.678933 30.443075 
L 277.8968 32.133882 
L 278.505733 33.154753 
L 279.114667 33.090954 
L 279.7236 32.644306 
L 280.332533 31.495834 
L 280.941467 30.921611 
L 282.159333 30.921611 
L 284.595067 31.463947 
L 285.204 31.368235 
L 286.421867 31.017299 
L 287.639733 30.857787 
L 288.248667 31.113011 
L 288.8576 30.730187 
L 289.466533 31.017299 
L 290.6844 32.03817 
L 291.293333 32.133882 
L 292.5112 31.655346 
L 293.120133 30.985411 
L 293.729067 30.506875 
L 294.338 30.921611 
L 294.946933 31.751058 
L 295.555867 32.133882 
L 296.1648 32.995242 
L 296.773733 33.282353 
L 297.382667 32.77193 
L 298.600533 30.985411 
L 299.209467 30.762099 
L 299.8184 30.251651 
L 300.427333 30.347363 
L 301.036267 30.730187 
L 301.6452 31.368235 
L 302.254133 31.719146 
L 302.863067 31.814858 
L 303.472 31.782946 
L 304.689867 31.017299 
L 305.2988 30.857787 
L 306.516667 31.687258 
L 307.1256 31.878658 
L 307.734533 32.389106 
L 308.343467 33.122841 
L 308.9524 33.122841 
L 309.561333 33.537577 
L 310.170267 32.548618 
L 310.7792 31.336323 
L 311.388133 31.368235 
L 311.997067 30.921611 
L 312.606 31.049211 
L 313.214933 30.857787 
L 313.823867 30.092139 
L 315.041733 30.028339 
L 315.650667 29.677428 
L 316.868533 29.517916 
L 317.477467 29.262692 
L 319.304267 29.741228 
L 319.9132 30.411163 
L 321.74 30.474963 
L 322.348933 31.113011 
L 322.957867 31.208723 
L 323.5668 31.591546 
L 324.175733 31.336323 
L 324.784667 30.602587 
L 325.3936 30.187851 
L 326.002533 30.092139 
L 326.611467 31.782946 
L 327.2204 33.059041 
L 327.829333 32.803817 
L 328.438267 32.133882 
L 329.0472 31.814858 
L 329.656133 31.081099 
L 330.265067 30.666387 
L 330.874 29.932627 
L 332.091867 31.495834 
L 332.7008 32.516706 
L 333.918667 31.751058 
L 334.5276 31.208723 
L 335.136533 31.113011 
L 335.745467 30.443075 
L 336.3544 29.96454 
L 338.1812 30.379275 
L 338.790133 30.155939 
L 339.399067 29.741228 
L 340.008 30.124051 
L 341.225867 30.060252 
L 342.443733 30.283563 
L 343.052667 30.028339 
L 343.6616 29.996427 
L 344.879467 30.570675 
L 345.4884 31.208723 
L 346.706267 32.165794 
L 347.3152 32.612418 
L 348.533067 31.591546 
L 349.142 31.432035 
L 349.750933 30.921611 
L 350.359867 31.113011 
L 350.9688 30.889699 
L 351.577733 31.176811 
L 352.7956 30.379275 
L 354.013467 30.953499 
L 354.6224 31.049211 
L 355.231333 30.953499 
L 355.840267 30.379275 
L 356.4492 30.187851 
L 357.058133 30.251651 
L 357.667067 31.272523 
L 358.276 32.006282 
L 358.884933 31.84677 
L 360.1028 29.996427 
L 360.711733 29.422204 
L 361.320667 29.16698 
L 361.9296 29.454092 
L 362.538533 29.10318 
L 363.147467 29.358404 
L 363.7564 29.007468 
L 364.365333 28.943668 
L 365.5832 29.677428 
L 367.41 31.559634 
L 368.018933 31.208723 
L 368.627867 30.092139 
L 369.2368 29.23078 
L 370.454667 28.720356 
L 371.0636 28.656557 
L 371.672533 29.23078 
L 372.8904 30.825899 
L 373.499333 31.240611 
L 374.108267 32.420994 
L 374.7172 32.357194 
L 375.326133 32.165794 
L 375.935067 31.527747 
L 376.544 30.411163 
L 377.152933 30.474963 
L 377.761867 29.868828 
L 378.3708 29.805028 
L 378.979733 30.060252 
L 379.588667 29.868828 
L 380.806533 31.591546 
L 382.0244 32.580506 
L 382.633333 32.803817 
L 383.242267 32.070082 
L 384.460133 31.017299 
L 385.069067 30.124051 
L 385.678 30.028339 
L 387.5048 31.655346 
L 388.113733 32.70813 
L 388.722667 33.154753 
L 389.3316 32.452906 
L 389.940533 31.368235 
L 390.549467 31.144923 
L 391.767333 30.028339 
L 392.376267 30.060252 
L 392.9852 29.486004 
L 393.594133 29.773116 
L 394.203067 29.549804 
L 394.812 29.805028 
L 395.420933 29.932627 
L 396.029867 30.347363 
L 397.247733 29.23078 
L 397.856667 29.90074 
L 398.4656 29.805028 
L 399.683467 29.10318 
L 400.2924 27.890909 
L 402.1192 29.96454 
L 402.728133 30.315451 
L 403.337067 30.060252 
L 403.946 30.187851 
L 404.554933 29.358404 
L 405.163867 28.337533 
L 405.7728 28.050421 
L 406.381733 28.050421 
L 406.990667 28.178021 
L 407.5996 28.816068 
L 408.208533 29.071268 
L 408.817467 28.624644 
L 409.4264 28.592757 
L 410.035333 28.784156 
L 410.644267 29.23078 
L 411.2532 28.943668 
L 411.862133 28.114221 
L 412.471067 27.922797 
L 412.471067 27.922797 
" clip-path="url(#p0a72569048)" style="fill: none; stroke: #008000; stroke-width: 1.5; stroke-linecap: square"/>
   </g>
   <g id="patch_3">
    <path d="M 47.72 303.64 
L 47.72 14.76 
" style="fill: none; stroke: #000000; stroke-width: 0.8; stroke-linejoin: miter; stroke-linecap: square"/>
   </g>
   <g id="patch_4">
    <path d="M 413.08 303.64 
L 413.08 14.76 
" style="fill: none; stroke: #000000; stroke-width: 0.8; stroke-linejoin: miter; stroke-linecap: square"/>
   </g>
   <g id="patch_5">
    <path d="M 47.72 303.64 
L 413.08 303.64 
" style="fill: none; stroke: #000000; stroke-width: 0.8; stroke-linejoin: miter; stroke-linecap: square"/>
   </g>
   <g id="patch_6">
    <path d="M 47.72 14.76 
L 413.08 14.76 
" style="fill: none; stroke: #000000; stroke-width: 0.8; stroke-linejoin: miter; stroke-linecap: square"/>
   </g>
  </g>
  <g id="axes_2">
   <g id="matplotlib.axis_3">
    <g id="ytick_6">
     <g id="line2d_14">
      <defs>
       <path id="md6ba39d8d3" d="M 0 0 
L 3.5 0 
" style="stroke: #000000; stroke-width: 0.8"/>
      </defs>
      <g>
       <use xlink:href="#md6ba39d8d3" x="413.08" y="303.64" style="stroke: #000000; stroke-width: 0.8"/>
      </g>
     </g>
     <g id="text_15">
      <!-- 0.0 -->
      <g transform="translate(420.08 307.439219) scale(0.1 -0.1)">
       <defs>
        <path id="DejaVuSans-2e" d="M 684 794 
L 1344 794 
L 1344 0 
L 684 0 
L 684 794 
z
" transform="scale(0.015625)"/>
       </defs>
       <use xlink:href="#DejaVuSans-30"/>
       <use xlink:href="#DejaVuSans-2e" x="63.623047"/>
       <use xlink:href="#DejaVuSans-30" x="95.410156"/>
      </g>
     </g>
    </g>
    <g id="ytick_7">
     <g id="line2d_15">
      <g>
       <use xlink:href="#md6ba39d8d3" x="413.08" y="245.864" style="stroke: #000000; stroke-width: 0.8"/>
      </g>
     </g>
     <g id="text_16">
      <!-- 0.2 -->
      <g transform="translate(420.08 249.663219) scale(0.1 -0.1)">
       <use xlink:href="#DejaVuSans-30"/>
       <use xlink:href="#DejaVuSans-2e" x="63.623047"/>
       <use xlink:href="#DejaVuSans-32" x="95.410156"/>
      </g>
     </g>
    </g>
    <g id="ytick_8">
     <g id="line2d_16">
      <g>
       <use xlink:href="#md6ba39d8d3" x="413.08" y="188.088" style="stroke: #000000; stroke-width: 0.8"/>
      </g>
     </g>
     <g id="text_17">
      <!-- 0.4 -->
      <g transform="translate(420.08 191.887219) scale(0.1 -0.1)">
       <use xlink:href="#DejaVuSans-30"/>
       <use xlink:href="#DejaVuSans-2e" x="63.623047"/>
       <use xlink:href="#DejaVuSans-34" x="95.410156"/>
      </g>
     </g>
    </g>
    <g id="ytick_9">
     <g id="line2d_17">
      <g>
       <use xlink:href="#md6ba39d8d3" x="413.08" y="130.312" style="stroke: #000000; stroke-width: 0.8"/>
      </g>
     </g>
     <g id="text_18">
      <!-- 0.6 -->
      <g transform="translate(420.08 134.111219) scale(0.1 -0.1)">
       <use xlink:href="#DejaVuSans-30"/>
       <use xlink:href="#DejaVuSans-2e" x="63.623047"/>
       <use xlink:href="#DejaVuSans-36" x="95.410156"/>
      </g>
     </g>
    </g>
    <g id="ytick_10">
     <g id="line2d_18">
      <g>
       <use xlink:href="#md6ba39d8d3" x="413.08" y="72.536" style="stroke: #000000; stroke-width: 0.8"/>
      </g>
     </g>
     <g id="text_19">
      <!-- 0.8 -->
      <g transform="translate(420.08 76.335219) scale(0.1 -0.1)">
       <use xlink:href="#DejaVuSans-30"/>
       <use xlink:href="#DejaVuSans-2e" x="63.623047"/>
       <use xlink:href="#DejaVuSans-38" x="95.410156"/>
      </g>
     </g>
    </g>
    <g id="ytick_11">
     <g id="line2d_19">
      <g>
       <use xlink:href="#md6ba39d8d3" x="413.08" y="14.76" style="stroke: #000000; stroke-width: 0.8"/>
      </g>
     </g>
     <g id="text_20">
      <!-- 1.0 -->
      <g transform="translate(420.08 18.559219) scale(0.1 -0.1)">
       <use xlink:href="#DejaVuSans-31"/>
       <use xlink:href="#DejaVuSans-2e" x="63.623047"/>
       <use xlink:href="#DejaVuSans-30" x="95.410156"/>
      </g>
     </g>
    </g>
    <g id="text_21">
     <!-- Fibers/Num Nodes -->
     <g transform="translate(447.581563 204.721875) rotate(-90) scale(0.1 -0.1)">
      <defs>
       <path id="DejaVuSans-46" d="M 628 4666 
L 3309 4666 
L 3309 4134 
L 1259 4134 
L 1259 2759 
L 3109 2759 
L 3109 2228 
L 1259 2228 
L 1259 0 
L 628 0 
L 628 4666 
z
" transform="scale(0.015625)"/>
       <path id="DejaVuSans-69" d="M 603 3500 
L 1178 3500 
L 1178 0 
L 603 0 
L 603 3500 
z
M 603 4863 
L 1178 4863 
L 1178 4134 
L 603 4134 
L 603 4863 
z
" transform="scale(0.015625)"/>
       <path id="DejaVuSans-62" d="M 3116 1747 
Q 3116 2381 2855 2742 
Q 2594 3103 2138 3103 
Q 1681 3103 1420 2742 
Q 1159 2381 1159 1747 
Q 1159 1113 1420 752 
Q 1681 391 2138 391 
Q 2594 391 2855 752 
Q 3116 1113 3116 1747 
z
M 1159 2969 
Q 1341 3281 1617 3432 
Q 1894 3584 2278 3584 
Q 2916 3584 3314 3078 
Q 3713 2572 3713 1747 
Q 3713 922 3314 415 
Q 2916 -91 2278 -91 
Q 1894 -91 1617 61 
Q 1341 213 1159 525 
L 1159 0 
L 581 0 
L 581 4863 
L 1159 4863 
L 1159 2969 
z
" transform="scale(0.015625)"/>
       <path id="DejaVuSans-73" d="M 2834 3397 
L 2834 2853 
Q 2591 2978 2328 3040 
Q 2066 3103 1784 3103 
Q 1356 3103 1142 2972 
Q 928 2841 928 2578 
Q 928 2378 1081 2264 
Q 1234 2150 1697 2047 
L 1894 2003 
Q 2506 1872 2764 1633 
Q 3022 1394 3022 966 
Q 3022 478 2636 193 
Q 2250 -91 1575 -91 
Q 1294 -91 989 -36 
Q 684 19 347 128 
L 347 722 
Q 666 556 975 473 
Q 1284 391 1588 391 
Q 1994 391 2212 530 
Q 2431 669 2431 922 
Q 2431 1156 2273 1281 
Q 2116 1406 1581 1522 
L 1381 1569 
Q 847 1681 609 1914 
Q 372 2147 372 2553 
Q 372 3047 722 3315 
Q 1072 3584 1716 3584 
Q 2034 3584 2315 3537 
Q 2597 3491 2834 3397 
z
" transform="scale(0.015625)"/>
       <path id="DejaVuSans-2f" d="M 1625 4666 
L 2156 4666 
L 531 -594 
L 0 -594 
L 1625 4666 
z
" transform="scale(0.015625)"/>
       <path id="DejaVuSans-4e" d="M 628 4666 
L 1478 4666 
L 3547 763 
L 3547 4666 
L 4159 4666 
L 4159 0 
L 3309 0 
L 1241 3903 
L 1241 0 
L 628 0 
L 628 4666 
z
" transform="scale(0.015625)"/>
       <path id="DejaVuSans-75" d="M 544 1381 
L 544 3500 
L 1119 3500 
L 1119 1403 
Q 1119 906 1312 657 
Q 1506 409 1894 409 
Q 2359 409 2629 706 
Q 2900 1003 2900 1516 
L 2900 3500 
L 3475 3500 
L 3475 0 
L 2900 0 
L 2900 538 
Q 2691 219 2414 64 
Q 2138 -91 1772 -91 
Q 1169 -91 856 284 
Q 544 659 544 1381 
z
M 1991 3584 
L 1991 3584 
z
" transform="scale(0.015625)"/>
       <path id="DejaVuSans-20" transform="scale(0.015625)"/>
       <path id="DejaVuSans-64" d="M 2906 2969 
L 2906 4863 
L 3481 4863 
L 3481 0 
L 2906 0 
L 2906 525 
Q 2725 213 2448 61 
Q 2172 -91 1784 -91 
Q 1150 -91 751 415 
Q 353 922 353 1747 
Q 353 2572 751 3078 
Q 1150 3584 1784 3584 
Q 2172 3584 2448 3432 
Q 2725 3281 2906 2969 
z
M 947 1747 
Q 947 1113 1208 752 
Q 1469 391 1925 391 
Q 2381 391 2643 752 
Q 2906 1113 2906 1747 
Q 2906 2381 2643 2742 
Q 2381 3103 1925 3103 
Q 1469 3103 1208 2742 
Q 947 2381 947 1747 
z
" transform="scale(0.015625)"/>
      </defs>
      <use xlink:href="#DejaVuSans-46"/>
      <use xlink:href="#DejaVuSans-69" x="50.269531"/>
      <use xlink:href="#DejaVuSans-62" x="78.052734"/>
      <use xlink:href="#DejaVuSans-65" x="141.529297"/>
      <use xlink:href="#DejaVuSans-72" x="203.052734"/>
      <use xlink:href="#DejaVuSans-73" x="244.166016"/>
      <use xlink:href="#DejaVuSans-2f" x="296.265625"/>
      <use xlink:href="#DejaVuSans-4e" x="329.957031"/>
      <use xlink:href="#DejaVuSans-75" x="404.761719"/>
      <use xlink:href="#DejaVuSans-6d" x="468.140625"/>
      <use xlink:href="#DejaVuSans-20" x="565.552734"/>
      <use xlink:href="#DejaVuSans-4e" x="597.339844"/>
      <use xlink:href="#DejaVuSans-6f" x="672.144531"/>
      <use xlink:href="#DejaVuSans-64" x="733.326172"/>
      <use xlink:href="#DejaVuSans-65" x="796.802734"/>
      <use xlink:href="#DejaVuSans-73" x="858.326172"/>
     </g>
    </g>
   </g>
   <g id="line2d_20">
    <path d="M 47.72 27.47072 
L 48.328933 25.15968 
L 48.937867 25.73744 
L 49.5468 36.13712 
L 50.764667 39.60368 
L 51.3736 41.91472 
L 51.982533 44.80352 
L 53.2004 65.02512 
L 53.809333 73.69152 
L 55.0272 117.60128 
L 55.636133 134.35632 
L 56.245067 168.44416 
L 56.854 176.5328 
L 57.462933 193.8656 
L 58.071867 214.66496 
L 58.6808 223.33136 
L 59.289733 229.10896 
L 59.898667 245.864 
L 61.116533 268.9744 
L 61.725467 270.70768 
L 62.3344 276.48528 
L 62.943333 276.48528 
L 63.552267 277.6408 
L 64.1612 273.59648 
L 64.770133 282.26288 
L 65.379067 277.6408 
L 65.988 280.5296 
L 66.596933 281.10736 
L 67.205867 288.61824 
L 67.8148 285.72944 
L 68.423733 286.3072 
L 69.032667 288.04048 
L 69.6416 287.46272 
L 70.250533 288.61824 
L 70.859467 290.92928 
L 71.4684 288.61824 
L 72.077333 289.77376 
L 72.686267 292.0848 
L 73.2952 289.77376 
L 73.904133 289.77376 
L 74.513067 290.35152 
L 75.122 290.35152 
L 75.730933 289.77376 
L 76.339867 290.92928 
L 76.9488 291.50704 
L 77.557733 292.66256 
L 78.166667 290.92928 
L 78.7756 289.77376 
L 79.993467 292.0848 
L 80.6024 291.50704 
L 81.211333 289.77376 
L 81.820267 292.0848 
L 82.4292 292.0848 
L 83.038133 291.50704 
L 84.256 292.66256 
L 84.864933 289.77376 
L 85.473867 292.66256 
L 86.0828 290.92928 
L 86.691733 292.66256 
L 87.300667 292.66256 
L 87.9096 291.50704 
L 88.518533 292.66256 
L 89.127467 291.50704 
L 89.7364 292.0848 
L 90.345333 291.50704 
L 90.954267 292.0848 
L 91.5632 289.196 
L 92.172133 290.92928 
L 93.39 293.24032 
L 93.998933 292.0848 
L 94.607867 292.0848 
L 95.2168 292.66256 
L 96.434667 290.35152 
L 97.0436 293.24032 
L 97.652533 290.92928 
L 98.261467 289.196 
L 98.8704 294.39584 
L 99.479333 292.0848 
L 100.088267 291.50704 
L 100.6972 293.81808 
L 101.306133 292.0848 
L 101.915067 291.50704 
L 103.132933 291.50704 
L 103.741867 292.66256 
L 104.3508 290.35152 
L 104.959733 291.50704 
L 105.568667 290.35152 
L 106.1776 290.92928 
L 106.786533 290.35152 
L 107.395467 292.66256 
L 108.0044 289.77376 
L 108.613333 289.196 
L 109.222267 290.35152 
L 109.8312 289.77376 
L 110.440133 290.35152 
L 111.049067 292.0848 
L 111.658 289.77376 
L 112.266933 293.81808 
L 112.875867 292.0848 
L 113.4848 292.0848 
L 114.093733 290.92928 
L 114.702667 290.35152 
L 115.3116 293.24032 
L 115.920533 292.0848 
L 116.529467 291.50704 
L 117.1384 290.35152 
L 117.747333 293.24032 
L 118.9652 290.92928 
L 119.574133 293.24032 
L 120.183067 290.92928 
L 120.792 290.92928 
L 121.400933 293.81808 
L 122.009867 292.66256 
L 123.227733 291.50704 
L 123.836667 291.50704 
L 124.4456 293.24032 
L 125.054533 292.0848 
L 125.663467 293.24032 
L 126.2724 292.66256 
L 126.881333 293.24032 
L 127.490267 292.66256 
L 128.0992 293.24032 
L 128.708133 291.50704 
L 129.926 292.66256 
L 130.534933 293.81808 
L 131.143867 291.50704 
L 131.7528 291.50704 
L 132.361733 292.0848 
L 132.970667 291.50704 
L 133.5796 291.50704 
L 134.188533 290.35152 
L 134.797467 294.39584 
L 135.4064 294.9736 
L 136.015333 293.81808 
L 136.624267 293.24032 
L 137.2332 293.24032 
L 137.842133 293.81808 
L 139.668933 293.81808 
L 140.277867 292.66256 
L 140.8868 293.81808 
L 141.495733 293.81808 
L 142.104667 291.50704 
L 142.7136 293.81808 
L 143.931467 293.81808 
L 144.5404 290.92928 
L 145.149333 293.81808 
L 146.3672 292.66256 
L 148.194 294.39584 
L 148.802933 292.66256 
L 149.411867 293.81808 
L 150.0208 292.0848 
L 150.629733 291.50704 
L 151.238667 293.24032 
L 151.8476 290.35152 
L 152.456533 293.81808 
L 153.065467 294.39584 
L 153.6744 292.0848 
L 154.283333 292.0848 
L 154.892267 293.81808 
L 155.5012 292.66256 
L 156.110133 293.81808 
L 157.328 294.9736 
L 157.936933 294.39584 
L 158.545867 293.24032 
L 159.1548 293.81808 
L 159.763733 293.24032 
L 160.372667 295.55136 
L 160.9816 296.12912 
L 161.590533 292.0848 
L 162.199467 293.24032 
L 162.8084 293.81808 
L 163.417333 293.81808 
L 164.026267 294.9736 
L 165.244133 293.81808 
L 165.853067 294.39584 
L 166.462 294.39584 
L 167.070933 293.81808 
L 167.679867 293.81808 
L 168.2888 292.0848 
L 169.506667 295.55136 
L 170.1156 295.55136 
L 170.724533 296.12912 
L 171.333467 294.9736 
L 171.9424 296.12912 
L 172.551333 293.24032 
L 173.160267 295.55136 
L 173.7692 292.66256 
L 174.378133 293.24032 
L 174.987067 294.39584 
L 175.596 294.9736 
L 176.204933 296.12912 
L 176.813867 293.24032 
L 178.031733 295.55136 
L 178.640667 294.9736 
L 179.858533 294.9736 
L 180.467467 296.12912 
L 181.0764 294.9736 
L 181.685333 294.39584 
L 182.294267 294.9736 
L 182.9032 292.66256 
L 183.512133 296.70688 
L 184.121067 294.39584 
L 184.73 295.55136 
L 185.338933 295.55136 
L 185.947867 296.12912 
L 186.5568 296.12912 
L 187.165733 295.55136 
L 187.774667 296.70688 
L 188.3836 294.39584 
L 188.992533 296.12912 
L 190.2104 294.9736 
L 190.819333 295.55136 
L 191.428267 296.70688 
L 192.0372 294.39584 
L 193.255067 295.55136 
L 195.081867 295.55136 
L 195.6908 294.39584 
L 196.299733 296.12912 
L 197.5176 298.44016 
L 198.126533 294.9736 
L 198.735467 292.66256 
L 199.3444 293.81808 
L 199.953333 296.12912 
L 200.562267 296.12912 
L 201.1712 293.24032 
L 201.780133 296.12912 
L 202.389067 295.55136 
L 202.998 296.12912 
L 203.606933 294.39584 
L 204.215867 295.55136 
L 204.8248 293.81808 
L 205.433733 294.9736 
L 206.042667 294.39584 
L 206.6516 295.55136 
L 208.4784 295.55136 
L 209.087333 296.70688 
L 209.696267 295.55136 
L 211.523067 297.28464 
L 212.132 296.70688 
L 212.740933 295.55136 
L 213.349867 298.44016 
L 213.9588 296.70688 
L 214.567733 296.12912 
L 215.176667 294.9736 
L 215.7856 294.9736 
L 216.394533 297.28464 
L 217.003467 294.9736 
L 217.6124 297.28464 
L 218.221333 294.9736 
L 218.830267 296.12912 
L 219.4392 296.70688 
L 220.048133 294.9736 
L 220.657067 294.39584 
L 221.266 295.55136 
L 222.483867 295.55136 
L 223.701733 297.8624 
L 224.310667 296.12912 
L 226.137467 296.12912 
L 226.7464 294.9736 
L 227.355333 294.9736 
L 227.964267 296.12912 
L 228.5732 294.9736 
L 229.182133 294.39584 
L 229.791067 295.55136 
L 231.008933 295.55136 
L 231.617867 296.70688 
L 232.2268 295.55136 
L 232.835733 294.9736 
L 233.444667 296.12912 
L 234.0536 294.9736 
L 234.662533 294.39584 
L 235.271467 294.9736 
L 235.8804 296.70688 
L 236.489333 296.12912 
L 237.098267 293.81808 
L 237.7072 296.70688 
L 238.316133 295.55136 
L 240.142933 295.55136 
L 240.751867 294.39584 
L 241.3608 297.28464 
L 241.969733 296.12912 
L 242.578667 296.12912 
L 243.796533 294.9736 
L 244.405467 296.12912 
L 245.0144 295.55136 
L 246.232267 296.70688 
L 246.8412 294.9736 
L 247.450133 297.8624 
L 248.059067 294.9736 
L 248.668 295.55136 
L 249.276933 296.70688 
L 249.885867 296.70688 
L 251.103733 294.39584 
L 252.3216 296.70688 
L 252.930533 296.12912 
L 253.539467 297.28464 
L 254.1484 297.8624 
L 254.757333 296.12912 
L 255.366267 296.70688 
L 255.9752 296.12912 
L 256.584133 296.12912 
L 257.193067 297.28464 
L 257.802 295.55136 
L 258.410933 296.70688 
L 259.019867 296.70688 
L 259.6288 297.8624 
L 260.237733 296.12912 
L 260.846667 296.12912 
L 261.4556 295.55136 
L 262.064533 297.28464 
L 263.2824 297.28464 
L 263.891333 296.70688 
L 264.500267 297.28464 
L 265.1092 296.70688 
L 265.718133 297.28464 
L 266.327067 295.55136 
L 266.936 297.28464 
L 267.544933 296.12912 
L 268.153867 296.70688 
L 268.7628 296.70688 
L 269.371733 297.8624 
L 269.980667 295.55136 
L 270.5896 296.12912 
L 272.4164 296.12912 
L 273.025333 296.70688 
L 273.634267 294.9736 
L 274.2432 296.12912 
L 274.852133 296.12912 
L 276.07 297.28464 
L 276.678933 295.55136 
L 277.287867 294.9736 
L 277.8968 296.12912 
L 279.114667 296.12912 
L 279.7236 298.44016 
L 280.332533 296.12912 
L 280.941467 294.9736 
L 281.5504 295.55136 
L 282.159333 296.70688 
L 282.768267 296.70688 
L 283.3772 296.12912 
L 283.986133 296.70688 
L 284.595067 296.70688 
L 285.204 297.8624 
L 285.812933 296.12912 
L 286.421867 296.70688 
L 287.0308 297.8624 
L 287.639733 295.55136 
L 288.248667 296.70688 
L 288.8576 296.70688 
L 289.466533 295.55136 
L 290.075467 296.70688 
L 290.6844 296.12912 
L 291.293333 298.44016 
L 291.902267 297.28464 
L 293.120133 297.28464 
L 293.729067 296.12912 
L 294.338 296.12912 
L 295.555867 298.44016 
L 297.382667 296.70688 
L 297.9916 297.28464 
L 298.600533 294.9736 
L 299.209467 295.55136 
L 299.8184 297.8624 
L 300.427333 297.8624 
L 301.036267 296.70688 
L 301.6452 296.12912 
L 302.254133 296.70688 
L 302.863067 296.12912 
L 303.472 298.44016 
L 304.080933 297.8624 
L 304.689867 296.70688 
L 305.2988 298.44016 
L 305.907733 296.12912 
L 306.516667 295.55136 
L 307.1256 297.8624 
L 307.734533 297.28464 
L 308.343467 295.55136 
L 308.9524 296.70688 
L 309.561333 295.55136 
L 310.7792 297.8624 
L 311.388133 297.8624 
L 311.997067 296.70688 
L 312.606 296.70688 
L 313.214933 297.8624 
L 313.823867 296.70688 
L 314.4328 297.28464 
L 315.041733 297.28464 
L 315.650667 296.12912 
L 316.2596 298.44016 
L 316.868533 297.8624 
L 317.477467 297.8624 
L 318.0864 296.70688 
L 318.695333 297.8624 
L 319.304267 297.8624 
L 319.9132 297.28464 
L 320.522133 298.44016 
L 321.131067 296.12912 
L 321.74 294.9736 
L 322.348933 297.28464 
L 322.957867 296.70688 
L 323.5668 297.28464 
L 324.175733 297.28464 
L 324.784667 297.8624 
L 325.3936 297.28464 
L 326.002533 298.44016 
L 326.611467 296.70688 
L 327.2204 297.28464 
L 327.829333 297.28464 
L 328.438267 297.8624 
L 329.656133 297.8624 
L 330.265067 296.70688 
L 330.874 297.8624 
L 331.482933 297.8624 
L 332.091867 296.70688 
L 332.7008 297.28464 
L 333.309733 296.70688 
L 333.918667 298.44016 
L 334.5276 296.12912 
L 336.3544 296.12912 
L 337.572267 297.28464 
L 338.1812 296.12912 
L 338.790133 296.70688 
L 339.399067 296.12912 
L 340.008 297.28464 
L 341.225867 297.28464 
L 341.8348 297.8624 
L 343.052667 297.8624 
L 343.6616 296.70688 
L 344.270533 296.12912 
L 344.879467 297.8624 
L 346.706267 297.8624 
L 347.3152 296.12912 
L 347.924133 297.28464 
L 349.142 297.28464 
L 349.750933 296.70688 
L 350.359867 296.70688 
L 350.9688 298.44016 
L 351.577733 297.28464 
L 352.186667 297.8624 
L 352.7956 295.55136 
L 354.013467 297.8624 
L 354.6224 297.8624 
L 355.231333 298.44016 
L 355.840267 297.28464 
L 356.4492 295.55136 
L 357.058133 297.8624 
L 357.667067 295.55136 
L 358.276 298.44016 
L 358.884933 298.44016 
L 359.493867 297.28464 
L 360.1028 297.28464 
L 360.711733 297.8624 
L 361.320667 296.12912 
L 363.7564 296.12912 
L 364.365333 296.70688 
L 364.974267 296.12912 
L 366.192133 297.28464 
L 366.801067 296.70688 
L 367.41 296.70688 
L 368.018933 296.12912 
L 368.627867 297.28464 
L 369.845733 296.12912 
L 370.454667 296.12912 
L 371.0636 295.55136 
L 371.672533 297.28464 
L 372.281467 295.55136 
L 372.8904 297.8624 
L 373.499333 296.12912 
L 374.108267 297.28464 
L 374.7172 296.70688 
L 375.326133 297.8624 
L 376.544 297.8624 
L 377.152933 296.70688 
L 377.761867 296.12912 
L 378.3708 297.28464 
L 380.1976 297.28464 
L 380.806533 296.12912 
L 381.415467 295.55136 
L 382.0244 297.8624 
L 382.633333 296.12912 
L 383.8512 297.28464 
L 384.460133 297.28464 
L 385.678 296.12912 
L 386.286933 296.70688 
L 386.895867 297.8624 
L 387.5048 296.70688 
L 388.113733 297.8624 
L 389.3316 296.70688 
L 390.549467 297.8624 
L 391.1584 296.70688 
L 391.767333 297.28464 
L 392.376267 295.55136 
L 392.9852 296.12912 
L 393.594133 297.28464 
L 394.812 296.12912 
L 396.029867 297.28464 
L 396.6388 297.28464 
L 397.247733 297.8624 
L 397.856667 296.70688 
L 398.4656 297.8624 
L 399.074533 298.44016 
L 399.683467 297.28464 
L 400.2924 295.55136 
L 401.510267 299.01792 
L 402.1192 299.01792 
L 402.728133 296.70688 
L 403.337067 298.44016 
L 403.946 297.28464 
L 405.163867 297.28464 
L 405.7728 298.44016 
L 406.381733 298.44016 
L 406.990667 297.8624 
L 408.208533 297.8624 
L 408.817467 296.70688 
L 409.4264 299.59568 
L 410.035333 298.44016 
L 410.644267 296.70688 
L 411.862133 297.8624 
L 412.471067 297.8624 
L 412.471067 297.8624 
" clip-path="url(#p0a72569048)" style="fill: none; stroke-dasharray: 5.55,2.4; stroke-dashoffset: 0; stroke: #1f77b4; stroke-width: 1.5"/>
   </g>
   <g id="line2d_21">
    <path d="M 47.72 54.62544 
L 48.328933 62.13632 
L 48.937867 52.3144 
L 49.5468 62.13632 
L 50.764667 76.00256 
L 51.3736 75.4248 
L 51.982533 80.62464 
L 52.591467 84.0912 
L 53.2004 89.8688 
L 53.809333 97.95744 
L 54.418267 102.00176 
L 55.0272 112.9792 
L 55.636133 120.49008 
L 56.245067 132.04528 
L 57.462933 143.02272 
L 59.289733 158.62224 
L 59.898667 167.8664 
L 61.116533 175.37728 
L 61.725467 175.37728 
L 62.3344 177.68832 
L 62.943333 180.57712 
L 63.552267 181.73264 
L 64.1612 183.46592 
L 64.770133 184.62144 
L 65.379067 186.35472 
L 65.988 187.51024 
L 66.596933 189.82128 
L 67.205867 190.9768 
L 67.8148 193.28784 
L 68.423733 193.8656 
L 69.032667 192.13232 
L 69.6416 192.71008 
L 70.250533 195.02112 
L 70.859467 195.02112 
L 71.4684 195.59888 
L 72.077333 194.44336 
L 72.686267 200.79872 
L 73.2952 199.6432 
L 73.904133 192.71008 
L 74.513067 196.17664 
L 75.122 192.13232 
L 75.730933 190.9768 
L 76.339867 196.17664 
L 76.9488 193.28784 
L 77.557733 197.33216 
L 78.166667 198.48768 
L 78.7756 195.02112 
L 79.384533 195.02112 
L 79.993467 193.8656 
L 80.6024 195.59888 
L 81.211333 196.7544 
L 81.820267 190.39904 
L 82.4292 196.17664 
L 83.038133 192.13232 
L 83.647067 190.39904 
L 84.864933 191.55456 
L 85.473867 194.44336 
L 86.0828 200.79872 
L 86.691733 200.79872 
L 87.300667 201.95424 
L 87.9096 204.26528 
L 88.518533 199.6432 
L 89.127467 199.6432 
L 89.7364 199.06544 
L 90.345333 199.6432 
L 90.954267 201.95424 
L 91.5632 200.22096 
L 92.172133 196.7544 
L 92.781067 196.17664 
L 93.39 200.79872 
L 93.998933 199.6432 
L 94.607867 201.95424 
L 95.2168 202.532 
L 95.825733 194.44336 
L 96.434667 203.10976 
L 97.0436 203.10976 
L 97.652533 200.79872 
L 98.261467 201.37648 
L 99.479333 200.22096 
L 100.088267 200.22096 
L 100.6972 201.37648 
L 101.306133 204.26528 
L 101.915067 201.95424 
L 102.524 202.532 
L 103.132933 200.22096 
L 103.741867 203.68752 
L 104.3508 203.68752 
L 104.959733 205.99856 
L 105.568667 201.95424 
L 106.1776 205.99856 
L 106.786533 205.4208 
L 107.395467 204.26528 
L 108.0044 200.79872 
L 108.613333 204.26528 
L 109.222267 203.10976 
L 110.440133 205.4208 
L 111.049067 205.99856 
L 111.658 205.4208 
L 112.266933 208.3096 
L 112.875867 208.3096 
L 113.4848 205.4208 
L 114.093733 206.57632 
L 114.702667 209.46512 
L 115.3116 211.77616 
L 115.920533 211.77616 
L 116.529467 208.88736 
L 117.1384 209.46512 
L 117.747333 212.93168 
L 118.356267 209.46512 
L 120.183067 209.46512 
L 120.792 212.93168 
L 121.400933 206.57632 
L 122.009867 201.95424 
L 122.6188 206.57632 
L 123.227733 210.04288 
L 123.836667 208.88736 
L 124.4456 210.04288 
L 125.054533 210.04288 
L 125.663467 206.57632 
L 126.2724 206.57632 
L 126.881333 208.88736 
L 127.490267 207.15408 
L 128.0992 208.3096 
L 128.708133 207.73184 
L 129.317067 208.3096 
L 129.926 209.46512 
L 130.534933 208.88736 
L 131.143867 210.62064 
L 131.7528 212.93168 
L 132.361733 212.93168 
L 132.970667 205.4208 
L 133.5796 207.15408 
L 134.188533 208.3096 
L 134.797467 210.04288 
L 135.4064 208.88736 
L 136.015333 208.3096 
L 136.624267 214.66496 
L 137.2332 215.24272 
L 137.842133 212.93168 
L 138.451067 214.0872 
L 139.06 208.88736 
L 139.668933 214.0872 
L 140.277867 210.04288 
L 140.8868 209.46512 
L 141.495733 211.77616 
L 142.104667 211.1984 
L 142.7136 213.50944 
L 143.322533 217.55376 
L 143.931467 215.24272 
L 144.5404 212.35392 
L 145.149333 212.93168 
L 145.758267 215.82048 
L 146.976133 214.66496 
L 147.585067 216.39824 
L 148.194 221.02032 
L 148.802933 214.0872 
L 149.411867 217.55376 
L 150.0208 219.28704 
L 150.629733 217.55376 
L 151.238667 215.24272 
L 151.8476 214.66496 
L 152.456533 215.82048 
L 153.065467 218.13152 
L 153.6744 217.55376 
L 154.283333 217.55376 
L 154.892267 218.13152 
L 155.5012 218.13152 
L 156.110133 216.976 
L 156.719067 214.66496 
L 157.328 215.82048 
L 157.936933 215.82048 
L 158.545867 218.13152 
L 159.1548 215.82048 
L 159.763733 219.28704 
L 160.372667 219.28704 
L 160.9816 218.13152 
L 161.590533 218.13152 
L 162.199467 217.55376 
L 162.8084 216.39824 
L 164.026267 219.8648 
L 164.6352 219.8648 
L 165.244133 222.17584 
L 165.853067 221.59808 
L 166.462 219.28704 
L 167.070933 221.59808 
L 167.679867 221.59808 
L 168.2888 219.8648 
L 168.897733 222.17584 
L 169.506667 225.06464 
L 170.1156 220.44256 
L 170.724533 221.59808 
L 171.333467 220.44256 
L 171.9424 221.59808 
L 173.160267 218.13152 
L 173.7692 222.17584 
L 174.378133 222.7536 
L 174.987067 219.28704 
L 175.596 221.02032 
L 176.204933 220.44256 
L 176.813867 221.02032 
L 177.4228 223.90912 
L 178.031733 221.59808 
L 178.640667 221.02032 
L 179.2496 221.02032 
L 179.858533 220.44256 
L 180.467467 222.17584 
L 181.0764 223.33136 
L 181.685333 225.6424 
L 182.294267 225.6424 
L 182.9032 222.7536 
L 183.512133 226.22016 
L 184.121067 227.37568 
L 184.73 227.37568 
L 185.338933 222.17584 
L 185.947867 223.33136 
L 186.5568 221.59808 
L 187.165733 227.37568 
L 187.774667 223.90912 
L 188.3836 225.06464 
L 188.992533 221.59808 
L 189.601467 221.59808 
L 190.2104 219.8648 
L 190.819333 219.28704 
L 191.428267 222.17584 
L 192.0372 222.17584 
L 192.646133 222.7536 
L 193.255067 219.8648 
L 193.864 222.7536 
L 194.472933 221.59808 
L 195.081867 223.33136 
L 195.6908 223.90912 
L 196.299733 228.5312 
L 196.908667 224.48688 
L 197.5176 226.22016 
L 198.126533 221.02032 
L 198.735467 220.44256 
L 199.3444 220.44256 
L 199.953333 225.6424 
L 200.562267 229.10896 
L 201.1712 224.48688 
L 201.780133 229.68672 
L 202.389067 226.79792 
L 202.998 226.22016 
L 203.606933 226.79792 
L 204.215867 227.95344 
L 204.8248 224.48688 
L 205.433733 228.5312 
L 206.042667 224.48688 
L 206.6516 226.79792 
L 207.869467 226.79792 
L 208.4784 225.6424 
L 209.087333 229.10896 
L 209.696267 227.37568 
L 210.3052 226.79792 
L 210.914133 227.37568 
L 211.523067 231.99776 
L 212.132 229.68672 
L 212.740933 231.42 
L 213.349867 229.68672 
L 213.9588 231.99776 
L 214.567733 231.99776 
L 215.176667 230.26448 
L 216.394533 229.10896 
L 217.003467 229.68672 
L 217.6124 234.3088 
L 218.221333 230.84224 
L 218.830267 233.15328 
L 219.4392 230.26448 
L 220.048133 227.95344 
L 220.657067 228.5312 
L 221.266 232.57552 
L 221.874933 229.68672 
L 222.483867 228.5312 
L 223.0928 232.57552 
L 224.310667 229.10896 
L 224.9196 230.84224 
L 225.528533 231.99776 
L 226.137467 231.99776 
L 226.7464 238.35312 
L 227.355333 229.10896 
L 227.964267 233.73104 
L 228.5732 231.42 
L 229.182133 231.42 
L 229.791067 234.3088 
L 230.4 235.46432 
L 231.008933 237.1976 
L 232.835733 235.46432 
L 233.444667 236.61984 
L 234.0536 234.3088 
L 234.662533 234.3088 
L 235.271467 233.15328 
L 235.8804 232.57552 
L 236.489333 237.1976 
L 237.098267 236.04208 
L 237.7072 236.61984 
L 238.316133 235.46432 
L 238.925067 234.88656 
L 239.534 230.26448 
L 240.142933 230.84224 
L 240.751867 233.15328 
L 241.3608 231.99776 
L 241.969733 231.42 
L 242.578667 231.42 
L 243.1876 230.26448 
L 243.796533 231.42 
L 244.405467 229.68672 
L 245.0144 231.42 
L 245.623333 229.68672 
L 247.450133 229.68672 
L 248.059067 231.99776 
L 248.668 230.84224 
L 249.276933 230.84224 
L 249.885867 233.73104 
L 250.4948 234.3088 
L 251.103733 233.73104 
L 251.712667 236.04208 
L 252.3216 236.04208 
L 252.930533 231.99776 
L 253.539467 234.3088 
L 254.1484 236.04208 
L 254.757333 236.61984 
L 255.366267 234.3088 
L 256.584133 235.46432 
L 257.802 234.3088 
L 258.410933 238.35312 
L 259.019867 238.93088 
L 259.6288 236.61984 
L 260.846667 240.0864 
L 261.4556 238.35312 
L 262.064533 237.77536 
L 262.673467 238.93088 
L 263.891333 236.61984 
L 264.500267 237.1976 
L 265.1092 239.50864 
L 265.718133 236.04208 
L 267.544933 237.77536 
L 268.153867 234.88656 
L 268.7628 239.50864 
L 269.371733 235.46432 
L 269.980667 235.46432 
L 270.5896 236.04208 
L 271.198533 238.35312 
L 271.807467 237.77536 
L 272.4164 235.46432 
L 273.025333 234.88656 
L 273.634267 238.35312 
L 274.2432 236.04208 
L 275.461067 238.35312 
L 276.678933 238.35312 
L 277.287867 238.93088 
L 277.8968 237.1976 
L 278.505733 238.35312 
L 279.114667 236.04208 
L 279.7236 239.50864 
L 280.332533 237.77536 
L 281.5504 236.61984 
L 282.159333 237.1976 
L 282.768267 238.35312 
L 283.3772 238.35312 
L 283.986133 235.46432 
L 284.595067 236.61984 
L 285.204 235.46432 
L 285.812933 237.1976 
L 286.421867 238.35312 
L 287.0308 241.24192 
L 287.639733 238.35312 
L 288.248667 238.35312 
L 288.8576 240.0864 
L 289.466533 237.77536 
L 290.075467 241.24192 
L 290.6844 238.35312 
L 291.293333 239.50864 
L 291.902267 238.35312 
L 292.5112 241.24192 
L 293.120133 238.93088 
L 293.729067 237.1976 
L 294.338 237.77536 
L 294.946933 238.93088 
L 296.773733 240.66416 
L 297.382667 238.93088 
L 297.9916 240.0864 
L 298.600533 238.35312 
L 299.209467 240.66416 
L 300.427333 239.50864 
L 301.036267 233.73104 
L 302.863067 244.13072 
L 303.472 245.864 
L 304.080933 245.28624 
L 304.689867 241.24192 
L 305.2988 241.24192 
L 305.907733 240.66416 
L 306.516667 244.13072 
L 307.1256 241.81968 
L 307.734533 244.13072 
L 308.343467 239.50864 
L 308.9524 240.66416 
L 310.170267 245.28624 
L 310.7792 242.9752 
L 311.388133 244.70848 
L 311.997067 241.24192 
L 312.606 240.0864 
L 313.214933 246.44176 
L 313.823867 241.24192 
L 314.4328 242.39744 
L 315.041733 241.24192 
L 315.650667 251.06384 
L 316.2596 241.81968 
L 316.868533 247.59728 
L 317.477467 244.70848 
L 318.0864 244.70848 
L 318.695333 246.44176 
L 319.304267 245.864 
L 319.9132 243.55296 
L 320.522133 247.01952 
L 321.131067 241.81968 
L 321.74 242.39744 
L 322.348933 244.70848 
L 322.957867 242.39744 
L 323.5668 241.81968 
L 324.175733 242.39744 
L 324.784667 245.28624 
L 325.3936 244.70848 
L 326.002533 242.9752 
L 326.611467 242.39744 
L 327.2204 241.24192 
L 327.829333 243.55296 
L 328.438267 243.55296 
L 329.0472 244.70848 
L 329.656133 241.24192 
L 330.874 243.55296 
L 331.482933 244.13072 
L 332.091867 241.24192 
L 332.7008 242.9752 
L 333.309733 243.55296 
L 335.136533 240.0864 
L 335.745467 244.70848 
L 336.3544 241.81968 
L 336.963333 240.66416 
L 337.572267 241.81968 
L 338.1812 240.66416 
L 338.790133 242.39744 
L 339.399067 240.66416 
L 340.008 241.24192 
L 340.616933 244.70848 
L 341.225867 239.50864 
L 341.8348 241.81968 
L 342.443733 242.9752 
L 343.052667 242.39744 
L 344.270533 242.39744 
L 344.879467 241.81968 
L 346.097333 238.35312 
L 346.706267 243.55296 
L 347.3152 242.39744 
L 347.924133 241.81968 
L 348.533067 241.81968 
L 349.142 240.0864 
L 349.750933 242.39744 
L 350.359867 243.55296 
L 351.577733 244.70848 
L 352.186667 242.9752 
L 352.7956 238.93088 
L 353.404533 242.39744 
L 354.013467 242.39744 
L 354.6224 246.44176 
L 355.231333 245.28624 
L 355.840267 242.39744 
L 356.4492 240.66416 
L 357.058133 244.70848 
L 357.667067 242.39744 
L 358.276 246.44176 
L 358.884933 245.864 
L 359.493867 245.864 
L 360.1028 242.9752 
L 361.320667 245.28624 
L 361.9296 244.13072 
L 362.538533 242.39744 
L 363.147467 243.55296 
L 363.7564 240.66416 
L 364.365333 244.13072 
L 364.974267 241.24192 
L 365.5832 246.44176 
L 366.192133 247.01952 
L 366.801067 244.70848 
L 367.41 246.44176 
L 368.018933 246.44176 
L 368.627867 241.81968 
L 369.2368 245.28624 
L 369.845733 244.70848 
L 370.454667 248.7528 
L 371.0636 247.59728 
L 371.672533 245.864 
L 372.281467 245.864 
L 372.8904 247.01952 
L 373.499333 245.864 
L 374.108267 247.01952 
L 374.7172 248.7528 
L 375.326133 243.55296 
L 375.935067 244.13072 
L 376.544 247.01952 
L 377.152933 242.9752 
L 377.761867 244.70848 
L 378.3708 245.28624 
L 378.979733 248.17504 
L 379.588667 247.59728 
L 380.1976 250.48608 
L 380.806533 252.21936 
L 381.415467 247.01952 
L 382.0244 249.90832 
L 382.633333 247.01952 
L 383.242267 247.59728 
L 383.8512 247.59728 
L 384.460133 249.90832 
L 385.069067 245.864 
L 385.678 246.44176 
L 386.286933 248.17504 
L 386.895867 248.7528 
L 387.5048 248.17504 
L 388.113733 248.17504 
L 388.722667 249.33056 
L 389.3316 246.44176 
L 389.940533 248.17504 
L 390.549467 246.44176 
L 391.1584 246.44176 
L 391.767333 247.59728 
L 392.376267 246.44176 
L 392.9852 244.70848 
L 393.594133 245.864 
L 394.203067 244.70848 
L 394.812 244.70848 
L 395.420933 246.44176 
L 396.029867 244.13072 
L 396.6388 248.17504 
L 397.247733 249.33056 
L 397.856667 245.28624 
L 398.4656 250.48608 
L 399.074533 249.90832 
L 399.683467 250.48608 
L 400.2924 248.17504 
L 400.901333 246.44176 
L 401.510267 246.44176 
L 402.1192 248.17504 
L 403.337067 247.01952 
L 403.946 247.59728 
L 404.554933 245.28624 
L 405.163867 249.90832 
L 405.7728 250.48608 
L 406.381733 252.21936 
L 406.990667 247.01952 
L 407.5996 247.01952 
L 408.208533 247.59728 
L 408.817467 247.59728 
L 409.4264 247.01952 
L 410.035333 247.59728 
L 410.644267 247.59728 
L 411.2532 247.01952 
L 412.471067 248.17504 
L 412.471067 248.17504 
" clip-path="url(#p0a72569048)" style="fill: none; stroke-dasharray: 5.55,2.4; stroke-dashoffset: 0; stroke: #ff7f0e; stroke-width: 1.5"/>
   </g>
   <g id="line2d_22">
    <path d="M 47.72 177.68832 
L 48.328933 177.11056 
L 48.937867 177.11056 
L 49.5468 122.22336 
L 50.155733 124.5344 
L 50.764667 128.00096 
L 51.3736 128.57872 
L 51.982533 132.04528 
L 52.591467 133.77856 
L 53.2004 133.77856 
L 53.809333 129.73424 
L 54.418267 131.46752 
L 55.0272 130.88976 
L 55.636133 131.46752 
L 56.245067 134.35632 
L 56.854 136.0896 
L 58.071867 136.0896 
L 58.6808 135.51184 
L 59.289733 136.0896 
L 59.898667 139.55616 
L 60.5076 140.71168 
L 61.116533 140.71168 
L 61.725467 143.60048 
L 62.3344 144.756 
L 62.943333 143.02272 
L 63.552267 144.17824 
L 64.1612 145.91152 
L 64.770133 146.48928 
L 65.379067 147.6448 
L 65.988 148.22256 
L 66.596933 146.48928 
L 67.205867 145.91152 
L 67.8148 145.91152 
L 68.423733 147.06704 
L 69.032667 145.33376 
L 69.6416 145.33376 
L 70.250533 144.17824 
L 70.859467 146.48928 
L 71.4684 144.756 
L 72.077333 145.33376 
L 72.686267 145.33376 
L 73.2952 147.6448 
L 73.904133 147.06704 
L 74.513067 147.6448 
L 75.122 145.91152 
L 75.730933 146.48928 
L 76.339867 141.8672 
L 76.9488 147.06704 
L 77.557733 145.33376 
L 78.166667 145.91152 
L 78.7756 145.33376 
L 79.384533 143.60048 
L 79.993467 144.17824 
L 80.6024 147.6448 
L 81.211333 147.06704 
L 81.820267 147.6448 
L 83.647067 145.91152 
L 84.256 143.02272 
L 84.864933 145.33376 
L 86.0828 146.48928 
L 86.691733 144.756 
L 87.300667 144.756 
L 87.9096 145.33376 
L 88.518533 144.17824 
L 89.127467 144.756 
L 89.7364 144.756 
L 90.345333 145.33376 
L 90.954267 144.17824 
L 91.5632 142.44496 
L 92.172133 145.91152 
L 92.781067 144.17824 
L 93.39 145.33376 
L 93.998933 144.756 
L 94.607867 142.44496 
L 95.2168 144.17824 
L 95.825733 143.60048 
L 96.434667 147.6448 
L 97.652533 146.48928 
L 98.261467 146.48928 
L 98.8704 143.60048 
L 99.479333 143.60048 
L 100.088267 145.91152 
L 100.6972 145.91152 
L 101.306133 147.06704 
L 101.915067 144.756 
L 102.524 141.8672 
L 103.132933 141.8672 
L 103.741867 142.44496 
L 104.3508 143.60048 
L 104.959733 143.60048 
L 105.568667 141.28944 
L 106.1776 142.44496 
L 106.786533 144.756 
L 107.395467 140.71168 
L 108.0044 143.02272 
L 108.613333 141.8672 
L 109.222267 145.33376 
L 110.440133 143.02272 
L 111.049067 146.48928 
L 111.658 144.17824 
L 112.266933 145.33376 
L 112.875867 142.44496 
L 113.4848 144.17824 
L 114.093733 141.28944 
L 114.702667 143.60048 
L 115.3116 143.02272 
L 116.529467 143.02272 
L 117.1384 141.8672 
L 117.747333 143.02272 
L 118.9652 144.17824 
L 119.574133 145.33376 
L 120.183067 145.33376 
L 120.792 145.91152 
L 121.400933 144.756 
L 122.009867 144.17824 
L 123.227733 144.17824 
L 123.836667 142.44496 
L 124.4456 144.17824 
L 125.054533 143.60048 
L 125.663467 144.17824 
L 126.2724 145.33376 
L 127.490267 144.17824 
L 128.0992 146.48928 
L 128.708133 146.48928 
L 129.317067 143.60048 
L 129.926 143.60048 
L 130.534933 144.756 
L 131.143867 142.44496 
L 131.7528 143.60048 
L 132.361733 145.33376 
L 132.970667 146.48928 
L 133.5796 142.44496 
L 134.188533 143.02272 
L 134.797467 140.71168 
L 135.4064 144.756 
L 136.015333 144.17824 
L 136.624267 144.17824 
L 137.2332 143.02272 
L 137.842133 143.60048 
L 138.451067 143.60048 
L 139.06 144.17824 
L 139.668933 145.33376 
L 140.277867 145.33376 
L 140.8868 145.91152 
L 142.104667 145.91152 
L 142.7136 147.06704 
L 143.322533 146.48928 
L 143.931467 146.48928 
L 145.149333 141.8672 
L 145.758267 144.17824 
L 146.3672 143.60048 
L 146.976133 141.8672 
L 147.585067 145.91152 
L 148.194 145.33376 
L 148.802933 146.48928 
L 149.411867 146.48928 
L 150.0208 147.06704 
L 150.629733 145.91152 
L 151.238667 145.91152 
L 151.8476 145.33376 
L 152.456533 146.48928 
L 153.065467 146.48928 
L 153.6744 144.756 
L 154.283333 144.17824 
L 154.892267 144.756 
L 155.5012 144.756 
L 156.110133 145.91152 
L 156.719067 145.33376 
L 157.328 146.48928 
L 157.936933 147.06704 
L 158.545867 146.48928 
L 159.1548 146.48928 
L 160.372667 144.17824 
L 160.9816 145.33376 
L 162.199467 145.33376 
L 162.8084 148.22256 
L 163.417333 149.37808 
L 164.026267 149.37808 
L 164.6352 149.95584 
L 165.244133 148.80032 
L 165.853067 148.80032 
L 166.462 145.91152 
L 167.070933 148.80032 
L 167.679867 145.33376 
L 168.2888 144.756 
L 168.897733 146.48928 
L 169.506667 147.6448 
L 170.1156 147.06704 
L 170.724533 149.37808 
L 171.333467 148.22256 
L 171.9424 148.80032 
L 172.551333 147.6448 
L 173.160267 150.5336 
L 173.7692 148.22256 
L 174.378133 148.22256 
L 174.987067 148.80032 
L 175.596 148.80032 
L 176.204933 147.6448 
L 177.4228 149.95584 
L 178.031733 147.6448 
L 178.640667 145.91152 
L 179.2496 148.22256 
L 180.467467 144.756 
L 181.0764 147.06704 
L 181.685333 149.95584 
L 182.294267 151.68912 
L 182.9032 148.80032 
L 183.512133 149.37808 
L 184.121067 151.11136 
L 184.73 149.37808 
L 185.338933 148.80032 
L 185.947867 149.37808 
L 186.5568 151.68912 
L 187.165733 147.6448 
L 187.774667 151.11136 
L 188.3836 153.4224 
L 188.992533 151.68912 
L 190.2104 152.84464 
L 190.819333 152.84464 
L 191.428267 151.68912 
L 192.0372 151.68912 
L 192.646133 148.80032 
L 193.255067 147.6448 
L 193.864 151.68912 
L 195.081867 150.5336 
L 195.6908 151.11136 
L 196.299733 151.11136 
L 196.908667 148.80032 
L 197.5176 148.80032 
L 198.126533 146.48928 
L 198.735467 145.33376 
L 199.3444 148.80032 
L 199.953333 149.95584 
L 200.562267 146.48928 
L 201.1712 149.95584 
L 201.780133 150.5336 
L 202.998 152.84464 
L 204.215867 150.5336 
L 204.8248 151.11136 
L 205.433733 151.11136 
L 206.042667 153.4224 
L 207.260533 151.11136 
L 207.869467 148.80032 
L 208.4784 149.95584 
L 209.087333 149.37808 
L 209.696267 149.37808 
L 210.914133 150.5336 
L 211.523067 148.80032 
L 212.132 148.80032 
L 212.740933 149.95584 
L 213.349867 149.95584 
L 213.9588 149.37808 
L 214.567733 149.95584 
L 215.176667 151.11136 
L 215.7856 148.80032 
L 216.394533 148.80032 
L 217.003467 149.95584 
L 217.6124 149.37808 
L 218.221333 149.37808 
L 218.830267 149.95584 
L 219.4392 149.37808 
L 220.048133 149.95584 
L 220.657067 147.6448 
L 221.266 147.6448 
L 221.874933 148.22256 
L 222.483867 149.37808 
L 223.0928 147.6448 
L 223.701733 148.80032 
L 224.310667 149.37808 
L 225.528533 149.37808 
L 226.137467 149.95584 
L 227.964267 149.95584 
L 228.5732 150.5336 
L 229.182133 149.37808 
L 230.4 149.37808 
L 231.008933 149.95584 
L 232.2268 149.95584 
L 232.835733 149.37808 
L 233.444667 149.95584 
L 234.662533 149.95584 
L 235.271467 151.11136 
L 235.8804 151.11136 
L 236.489333 151.68912 
L 237.098267 153.4224 
L 237.7072 152.84464 
L 238.316133 154.57792 
L 238.925067 154.57792 
L 239.534 151.11136 
L 240.751867 152.26688 
L 241.3608 151.11136 
L 241.969733 151.68912 
L 242.578667 149.95584 
L 243.1876 149.37808 
L 244.405467 152.84464 
L 245.0144 151.68912 
L 245.623333 149.37808 
L 246.232267 148.22256 
L 246.8412 148.22256 
L 247.450133 147.6448 
L 248.059067 146.48928 
L 249.276933 146.48928 
L 249.885867 148.22256 
L 250.4948 148.80032 
L 251.103733 147.6448 
L 251.712667 148.80032 
L 252.3216 150.5336 
L 252.930533 151.11136 
L 254.1484 148.80032 
L 254.757333 149.37808 
L 255.366267 151.11136 
L 256.584133 152.26688 
L 257.193067 149.37808 
L 257.802 151.68912 
L 258.410933 150.5336 
L 259.019867 149.95584 
L 259.6288 149.95584 
L 260.237733 150.5336 
L 260.846667 150.5336 
L 261.4556 148.80032 
L 262.064533 148.80032 
L 263.2824 146.48928 
L 263.891333 145.91152 
L 265.1092 149.37808 
L 265.718133 149.37808 
L 266.936 148.22256 
L 268.153867 150.5336 
L 268.7628 149.37808 
L 269.371733 149.37808 
L 269.980667 150.5336 
L 270.5896 148.80032 
L 271.198533 148.22256 
L 271.807467 147.06704 
L 272.4164 148.22256 
L 273.025333 150.5336 
L 273.634267 148.22256 
L 274.2432 148.22256 
L 274.852133 148.80032 
L 275.461067 150.5336 
L 276.07 151.11136 
L 276.678933 152.26688 
L 277.8968 153.4224 
L 278.505733 153.4224 
L 279.114667 154.57792 
L 279.7236 153.4224 
L 280.332533 154.00016 
L 280.941467 153.4224 
L 281.5504 153.4224 
L 282.159333 152.84464 
L 282.768267 151.68912 
L 283.986133 151.68912 
L 284.595067 149.95584 
L 285.204 151.68912 
L 285.812933 150.5336 
L 286.421867 152.84464 
L 287.0308 152.26688 
L 287.639733 153.4224 
L 288.248667 153.4224 
L 288.8576 152.26688 
L 289.466533 151.68912 
L 290.075467 152.26688 
L 290.6844 151.11136 
L 291.293333 150.5336 
L 291.902267 151.11136 
L 293.120133 151.11136 
L 293.729067 149.37808 
L 294.338 150.5336 
L 294.946933 151.11136 
L 295.555867 150.5336 
L 296.1648 150.5336 
L 296.773733 147.6448 
L 297.382667 147.06704 
L 297.9916 147.6448 
L 298.600533 148.80032 
L 299.209467 147.6448 
L 299.8184 149.95584 
L 300.427333 148.80032 
L 301.036267 148.22256 
L 301.6452 148.80032 
L 302.254133 148.22256 
L 302.863067 148.22256 
L 303.472 147.6448 
L 304.080933 147.6448 
L 304.689867 148.22256 
L 305.2988 147.06704 
L 305.907733 148.80032 
L 306.516667 148.80032 
L 307.1256 150.5336 
L 307.734533 148.80032 
L 308.9524 148.80032 
L 309.561333 150.5336 
L 310.7792 152.84464 
L 311.388133 152.84464 
L 311.997067 154.57792 
L 312.606 155.73344 
L 313.214933 154.00016 
L 313.823867 155.15568 
L 314.4328 154.00016 
L 315.041733 150.5336 
L 315.650667 155.15568 
L 316.868533 156.3112 
L 317.477467 153.4224 
L 318.0864 153.4224 
L 318.695333 156.3112 
L 319.304267 157.46672 
L 319.9132 157.46672 
L 320.522133 154.00016 
L 321.131067 155.15568 
L 321.74 154.00016 
L 322.348933 156.3112 
L 322.957867 155.73344 
L 323.5668 154.00016 
L 324.175733 154.57792 
L 325.3936 154.57792 
L 326.002533 151.68912 
L 326.611467 154.00016 
L 327.2204 151.68912 
L 327.829333 152.26688 
L 328.438267 152.26688 
L 329.0472 151.68912 
L 329.656133 149.95584 
L 330.265067 151.11136 
L 330.874 151.11136 
L 331.482933 152.84464 
L 332.091867 151.68912 
L 333.309733 150.5336 
L 333.918667 151.68912 
L 334.5276 148.80032 
L 335.136533 149.95584 
L 335.745467 150.5336 
L 336.3544 147.6448 
L 336.963333 149.37808 
L 337.572267 149.37808 
L 338.1812 146.48928 
L 338.790133 149.37808 
L 339.399067 148.80032 
L 340.008 147.6448 
L 340.616933 148.80032 
L 341.225867 148.80032 
L 341.8348 152.26688 
L 342.443733 150.5336 
L 343.052667 151.68912 
L 343.6616 151.11136 
L 344.270533 149.37808 
L 344.879467 149.37808 
L 345.4884 149.95584 
L 346.097333 149.95584 
L 346.706267 149.37808 
L 348.533067 149.37808 
L 349.142 149.95584 
L 349.750933 149.95584 
L 350.9688 148.80032 
L 352.186667 149.95584 
L 352.7956 147.6448 
L 353.404533 147.06704 
L 354.013467 148.22256 
L 354.6224 151.68912 
L 355.231333 148.22256 
L 355.840267 150.5336 
L 356.4492 150.5336 
L 357.058133 151.11136 
L 357.667067 150.5336 
L 358.276 152.26688 
L 358.884933 152.84464 
L 359.493867 151.68912 
L 360.1028 151.68912 
L 360.711733 149.95584 
L 361.320667 153.4224 
L 361.9296 152.84464 
L 362.538533 151.11136 
L 363.147467 150.5336 
L 363.7564 152.84464 
L 364.365333 149.95584 
L 365.5832 152.26688 
L 366.192133 154.57792 
L 366.801067 156.3112 
L 368.018933 154.00016 
L 368.627867 152.26688 
L 369.2368 152.26688 
L 369.845733 155.73344 
L 370.454667 154.00016 
L 371.0636 155.73344 
L 372.281467 158.04448 
L 372.8904 155.73344 
L 373.499333 158.62224 
L 375.326133 156.88896 
L 375.935067 158.04448 
L 377.152933 156.88896 
L 377.761867 158.04448 
L 378.3708 156.3112 
L 378.979733 155.73344 
L 379.588667 155.73344 
L 380.1976 153.4224 
L 380.806533 155.15568 
L 381.415467 155.15568 
L 382.0244 156.3112 
L 382.633333 155.15568 
L 383.242267 155.15568 
L 383.8512 154.57792 
L 384.460133 154.57792 
L 385.069067 158.04448 
L 385.678 154.57792 
L 386.286933 152.84464 
L 386.895867 155.15568 
L 387.5048 152.26688 
L 388.113733 151.68912 
L 388.722667 154.00016 
L 389.3316 151.11136 
L 389.940533 151.68912 
L 390.549467 151.68912 
L 391.1584 153.4224 
L 391.767333 152.26688 
L 392.376267 156.3112 
L 392.9852 156.3112 
L 393.594133 154.57792 
L 394.203067 155.73344 
L 395.420933 153.4224 
L 396.029867 154.00016 
L 396.6388 154.00016 
L 397.247733 152.84464 
L 397.856667 154.57792 
L 398.4656 155.73344 
L 400.2924 154.00016 
L 400.901333 152.84464 
L 401.510267 155.15568 
L 402.1192 155.15568 
L 402.728133 156.3112 
L 403.337067 154.00016 
L 403.946 154.57792 
L 404.554933 154.57792 
L 405.163867 156.3112 
L 405.7728 155.15568 
L 406.381733 155.15568 
L 406.990667 156.88896 
L 407.5996 156.88896 
L 408.208533 154.57792 
L 408.817467 155.15568 
L 409.4264 155.15568 
L 410.644267 154.00016 
L 411.2532 152.84464 
L 411.862133 154.57792 
L 412.471067 152.26688 
L 412.471067 152.26688 
" clip-path="url(#p0a72569048)" style="fill: none; stroke-dasharray: 5.55,2.4; stroke-dashoffset: 0; stroke: #2ca02c; stroke-width: 1.5"/>
   </g>
   <g id="patch_7">
    <path d="M 47.72 303.64 
L 47.72 14.76 
" style="fill: none; stroke: #000000; stroke-width: 0.8; stroke-linejoin: miter; stroke-linecap: square"/>
   </g>
   <g id="patch_8">
    <path d="M 413.08 303.64 
L 413.08 14.76 
" style="fill: none; stroke: #000000; stroke-width: 0.8; stroke-linejoin: miter; stroke-linecap: square"/>
   </g>
   <g id="patch_9">
    <path d="M 47.72 303.64 
L 413.08 303.64 
" style="fill: none; stroke: #000000; stroke-width: 0.8; stroke-linejoin: miter; stroke-linecap: square"/>
   </g>
   <g id="patch_10">
    <path d="M 47.72 14.76 
L 413.08 14.76 
" style="fill: none; stroke: #000000; stroke-width: 0.8; stroke-linejoin: miter; stroke-linecap: square"/>
   </g>
   <g id="legend_1">
    <g id="patch_11">
     <path d="M 367.7175 66.794375 
L 406.08 66.794375 
Q 408.08 66.794375 408.08 64.794375 
L 408.08 21.76 
Q 408.08 19.76 406.08 19.76 
L 367.7175 19.76 
Q 365.7175 19.76 365.7175 21.76 
L 365.7175 64.794375 
Q 365.7175 66.794375 367.7175 66.794375 
z
" style="fill: #ffffff; opacity: 0.8; stroke: #cccccc; stroke-linejoin: miter"/>
    </g>
    <g id="line2d_23">
     <path d="M 369.7175 27.858437 
L 379.7175 27.858437 
L 389.7175 27.858437 
" style="fill: none; stroke-dasharray: 5.55,2.4; stroke-dashoffset: 0; stroke: #1f77b4; stroke-width: 1.5"/>
    </g>
    <g id="text_22">
     <!-- 0 -->
     <g transform="translate(397.7175 31.358437) scale(0.1 -0.1)">
      <use xlink:href="#DejaVuSans-30"/>
     </g>
    </g>
    <g id="line2d_24">
     <path d="M 369.7175 42.536563 
L 379.7175 42.536563 
L 389.7175 42.536563 
" style="fill: none; stroke-dasharray: 5.55,2.4; stroke-dashoffset: 0; stroke: #ff7f0e; stroke-width: 1.5"/>
    </g>
    <g id="text_23">
     <!-- 1 -->
     <g transform="translate(397.7175 46.036563) scale(0.1 -0.1)">
      <use xlink:href="#DejaVuSans-31"/>
     </g>
    </g>
    <g id="line2d_25">
     <path d="M 369.7175 57.214687 
L 379.7175 57.214687 
L 389.7175 57.214687 
" style="fill: none; stroke-dasharray: 5.55,2.4; stroke-dashoffset: 0; stroke: #2ca02c; stroke-width: 1.5"/>
    </g>
    <g id="text_24">
     <!-- 2 -->
     <g transform="translate(397.7175 60.714687) scale(0.1 -0.1)">
      <use xlink:href="#DejaVuSans-32"/>
     </g>
    </g>
   </g>
  </g>
 </g>
 <defs>
  <clipPath id="p0a72569048">
   <rect x="47.72" y="14.76" width="365.36" height="288.88"/>
  </clipPath>
 </defs>
</svg>
