<?xml version="1.0" encoding="utf-8" standalone="no"?>
<!DOCTYPE svg PUBLIC "-//W3C//DTD SVG 1.1//EN"
  "http://www.w3.org/Graphics/SVG/1.1/DTD/svg11.dtd">
<svg xmlns:xlink="http://www.w3.org/1999/xlink" width="460.8pt" height="345.6pt" viewBox="0 0 460.8 345.6" xmlns="http://www.w3.org/2000/svg" version="1.1">
 <metadata>
  <rdf:RDF xmlns:dc="http://purl.org/dc/elements/1.1/" xmlns:cc="http://creativecommons.org/ns#" xmlns:rdf="http://www.w3.org/1999/02/22-rdf-syntax-ns#">
   <cc:Work>
    <dc:type rdf:resource="http://purl.org/dc/dcmitype/StillImage"/>
    <dc:date>2025-05-20T14:05:09.777464</dc:date>
    <dc:format>image/svg+xml</dc:format>
    <dc:creator>
     <cc:Agent>
      <dc:title>Matplotlib v3.7.5, https://matplotlib.org/</dc:title>
     </cc:Agent>
    </dc:creator>
   </cc:Work>
  </rdf:RDF>
 </metadata>
 <defs>
  <style type="text/css">*{stroke-linejoin: round; stroke-linecap: butt}</style>
 </defs>
 <g id="figure_1">
  <g id="patch_1">
   <path d="M 0 345.6 
L 460.8 345.6 
L 460.8 0 
L 0 0 
z
" style="fill: #ffffff"/>
  </g>
  <g id="axes_1">
   <g id="patch_2">
    <path d="M 57.6 307.584 
L 414.72 307.584 
L 414.72 41.472 
L 57.6 41.472 
z
" style="fill: #ffffff"/>
   </g>
   <g id="matplotlib.axis_1">
    <g id="xtick_1">
     <g id="line2d_1">
      <defs>
       <path id="m065cc68fc3" d="M 0 0 
L 0 3.5 
" style="stroke: #000000; stroke-width: 0.8"/>
      </defs>
      <g>
       <use xlink:href="#m065cc68fc3" x="73.832727" y="307.584" style="stroke: #000000; stroke-width: 0.8"/>
      </g>
     </g>
     <g id="text_1">
      <!-- 0 -->
      <g transform="translate(70.651477 322.182437) scale(0.1 -0.1)">
       <defs>
        <path id="DejaVuSans-30" d="M 2034 4250 
Q 1547 4250 1301 3770 
Q 1056 3291 1056 2328 
Q 1056 1369 1301 889 
Q 1547 409 2034 409 
Q 2525 409 2770 889 
Q 3016 1369 3016 2328 
Q 3016 3291 2770 3770 
Q 2525 4250 2034 4250 
z
M 2034 4750 
Q 2819 4750 3233 4129 
Q 3647 3509 3647 2328 
Q 3647 1150 3233 529 
Q 2819 -91 2034 -91 
Q 1250 -91 836 529 
Q 422 1150 422 2328 
Q 422 3509 836 4129 
Q 1250 4750 2034 4750 
z
" transform="scale(0.015625)"/>
       </defs>
       <use xlink:href="#DejaVuSans-30"/>
      </g>
     </g>
    </g>
    <g id="xtick_2">
     <g id="line2d_2">
      <g>
       <use xlink:href="#m065cc68fc3" x="138.763636" y="307.584" style="stroke: #000000; stroke-width: 0.8"/>
      </g>
     </g>
     <g id="text_2">
      <!-- 1000 -->
      <g transform="translate(126.038636 322.182437) scale(0.1 -0.1)">
       <defs>
        <path id="DejaVuSans-31" d="M 794 531 
L 1825 531 
L 1825 4091 
L 703 3866 
L 703 4441 
L 1819 4666 
L 2450 4666 
L 2450 531 
L 3481 531 
L 3481 0 
L 794 0 
L 794 531 
z
" transform="scale(0.015625)"/>
       </defs>
       <use xlink:href="#DejaVuSans-31"/>
       <use xlink:href="#DejaVuSans-30" x="63.623047"/>
       <use xlink:href="#DejaVuSans-30" x="127.246094"/>
       <use xlink:href="#DejaVuSans-30" x="190.869141"/>
      </g>
     </g>
    </g>
    <g id="xtick_3">
     <g id="line2d_3">
      <g>
       <use xlink:href="#m065cc68fc3" x="203.694545" y="307.584" style="stroke: #000000; stroke-width: 0.8"/>
      </g>
     </g>
     <g id="text_3">
      <!-- 2000 -->
      <g transform="translate(190.969545 322.182437) scale(0.1 -0.1)">
       <defs>
        <path id="DejaVuSans-32" d="M 1228 531 
L 3431 531 
L 3431 0 
L 469 0 
L 469 531 
Q 828 903 1448 1529 
Q 2069 2156 2228 2338 
Q 2531 2678 2651 2914 
Q 2772 3150 2772 3378 
Q 2772 3750 2511 3984 
Q 2250 4219 1831 4219 
Q 1534 4219 1204 4116 
Q 875 4013 500 3803 
L 500 4441 
Q 881 4594 1212 4672 
Q 1544 4750 1819 4750 
Q 2544 4750 2975 4387 
Q 3406 4025 3406 3419 
Q 3406 3131 3298 2873 
Q 3191 2616 2906 2266 
Q 2828 2175 2409 1742 
Q 1991 1309 1228 531 
z
" transform="scale(0.015625)"/>
       </defs>
       <use xlink:href="#DejaVuSans-32"/>
       <use xlink:href="#DejaVuSans-30" x="63.623047"/>
       <use xlink:href="#DejaVuSans-30" x="127.246094"/>
       <use xlink:href="#DejaVuSans-30" x="190.869141"/>
      </g>
     </g>
    </g>
    <g id="xtick_4">
     <g id="line2d_4">
      <g>
       <use xlink:href="#m065cc68fc3" x="268.625455" y="307.584" style="stroke: #000000; stroke-width: 0.8"/>
      </g>
     </g>
     <g id="text_4">
      <!-- 3000 -->
      <g transform="translate(255.900455 322.182437) scale(0.1 -0.1)">
       <defs>
        <path id="DejaVuSans-33" d="M 2597 2516 
Q 3050 2419 3304 2112 
Q 3559 1806 3559 1356 
Q 3559 666 3084 287 
Q 2609 -91 1734 -91 
Q 1441 -91 1130 -33 
Q 819 25 488 141 
L 488 750 
Q 750 597 1062 519 
Q 1375 441 1716 441 
Q 2309 441 2620 675 
Q 2931 909 2931 1356 
Q 2931 1769 2642 2001 
Q 2353 2234 1838 2234 
L 1294 2234 
L 1294 2753 
L 1863 2753 
Q 2328 2753 2575 2939 
Q 2822 3125 2822 3475 
Q 2822 3834 2567 4026 
Q 2313 4219 1838 4219 
Q 1578 4219 1281 4162 
Q 984 4106 628 3988 
L 628 4550 
Q 988 4650 1302 4700 
Q 1616 4750 1894 4750 
Q 2613 4750 3031 4423 
Q 3450 4097 3450 3541 
Q 3450 3153 3228 2886 
Q 3006 2619 2597 2516 
z
" transform="scale(0.015625)"/>
       </defs>
       <use xlink:href="#DejaVuSans-33"/>
       <use xlink:href="#DejaVuSans-30" x="63.623047"/>
       <use xlink:href="#DejaVuSans-30" x="127.246094"/>
       <use xlink:href="#DejaVuSans-30" x="190.869141"/>
      </g>
     </g>
    </g>
    <g id="xtick_5">
     <g id="line2d_5">
      <g>
       <use xlink:href="#m065cc68fc3" x="333.556364" y="307.584" style="stroke: #000000; stroke-width: 0.8"/>
      </g>
     </g>
     <g id="text_5">
      <!-- 4000 -->
      <g transform="translate(320.831364 322.182437) scale(0.1 -0.1)">
       <defs>
        <path id="DejaVuSans-34" d="M 2419 4116 
L 825 1625 
L 2419 1625 
L 2419 4116 
z
M 2253 4666 
L 3047 4666 
L 3047 1625 
L 3713 1625 
L 3713 1100 
L 3047 1100 
L 3047 0 
L 2419 0 
L 2419 1100 
L 313 1100 
L 313 1709 
L 2253 4666 
z
" transform="scale(0.015625)"/>
       </defs>
       <use xlink:href="#DejaVuSans-34"/>
       <use xlink:href="#DejaVuSans-30" x="63.623047"/>
       <use xlink:href="#DejaVuSans-30" x="127.246094"/>
       <use xlink:href="#DejaVuSans-30" x="190.869141"/>
      </g>
     </g>
    </g>
    <g id="xtick_6">
     <g id="line2d_6">
      <g>
       <use xlink:href="#m065cc68fc3" x="398.487273" y="307.584" style="stroke: #000000; stroke-width: 0.8"/>
      </g>
     </g>
     <g id="text_6">
      <!-- 5000 -->
      <g transform="translate(385.762273 322.182437) scale(0.1 -0.1)">
       <defs>
        <path id="DejaVuSans-35" d="M 691 4666 
L 3169 4666 
L 3169 4134 
L 1269 4134 
L 1269 2991 
Q 1406 3038 1543 3061 
Q 1681 3084 1819 3084 
Q 2600 3084 3056 2656 
Q 3513 2228 3513 1497 
Q 3513 744 3044 326 
Q 2575 -91 1722 -91 
Q 1428 -91 1123 -41 
Q 819 9 494 109 
L 494 744 
Q 775 591 1075 516 
Q 1375 441 1709 441 
Q 2250 441 2565 725 
Q 2881 1009 2881 1497 
Q 2881 1984 2565 2268 
Q 2250 2553 1709 2553 
Q 1456 2553 1204 2497 
Q 953 2441 691 2322 
L 691 4666 
z
" transform="scale(0.015625)"/>
       </defs>
       <use xlink:href="#DejaVuSans-35"/>
       <use xlink:href="#DejaVuSans-30" x="63.623047"/>
       <use xlink:href="#DejaVuSans-30" x="127.246094"/>
       <use xlink:href="#DejaVuSans-30" x="190.869141"/>
      </g>
     </g>
    </g>
   </g>
   <g id="matplotlib.axis_2">
    <g id="ytick_1">
     <g id="line2d_7">
      <defs>
       <path id="mfcba695bac" d="M 0 0 
L -3.5 0 
" style="stroke: #000000; stroke-width: 0.8"/>
      </defs>
      <g>
       <use xlink:href="#mfcba695bac" x="57.6" y="307.584" style="stroke: #000000; stroke-width: 0.8"/>
      </g>
     </g>
     <g id="text_7">
      <!-- 0.800 -->
      <g transform="translate(21.971875 311.383219) scale(0.1 -0.1)">
       <defs>
        <path id="DejaVuSans-2e" d="M 684 794 
L 1344 794 
L 1344 0 
L 684 0 
L 684 794 
z
" transform="scale(0.015625)"/>
        <path id="DejaVuSans-38" d="M 2034 2216 
Q 1584 2216 1326 1975 
Q 1069 1734 1069 1313 
Q 1069 891 1326 650 
Q 1584 409 2034 409 
Q 2484 409 2743 651 
Q 3003 894 3003 1313 
Q 3003 1734 2745 1975 
Q 2488 2216 2034 2216 
z
M 1403 2484 
Q 997 2584 770 2862 
Q 544 3141 544 3541 
Q 544 4100 942 4425 
Q 1341 4750 2034 4750 
Q 2731 4750 3128 4425 
Q 3525 4100 3525 3541 
Q 3525 3141 3298 2862 
Q 3072 2584 2669 2484 
Q 3125 2378 3379 2068 
Q 3634 1759 3634 1313 
Q 3634 634 3220 271 
Q 2806 -91 2034 -91 
Q 1263 -91 848 271 
Q 434 634 434 1313 
Q 434 1759 690 2068 
Q 947 2378 1403 2484 
z
M 1172 3481 
Q 1172 3119 1398 2916 
Q 1625 2713 2034 2713 
Q 2441 2713 2670 2916 
Q 2900 3119 2900 3481 
Q 2900 3844 2670 4047 
Q 2441 4250 2034 4250 
Q 1625 4250 1398 4047 
Q 1172 3844 1172 3481 
z
" transform="scale(0.015625)"/>
       </defs>
       <use xlink:href="#DejaVuSans-30"/>
       <use xlink:href="#DejaVuSans-2e" x="63.623047"/>
       <use xlink:href="#DejaVuSans-38" x="95.410156"/>
       <use xlink:href="#DejaVuSans-30" x="159.033203"/>
       <use xlink:href="#DejaVuSans-30" x="222.65625"/>
      </g>
     </g>
    </g>
    <g id="ytick_2">
     <g id="line2d_8">
      <g>
       <use xlink:href="#mfcba695bac" x="57.6" y="274.32" style="stroke: #000000; stroke-width: 0.8"/>
      </g>
     </g>
     <g id="text_8">
      <!-- 0.825 -->
      <g transform="translate(21.971875 278.119219) scale(0.1 -0.1)">
       <use xlink:href="#DejaVuSans-30"/>
       <use xlink:href="#DejaVuSans-2e" x="63.623047"/>
       <use xlink:href="#DejaVuSans-38" x="95.410156"/>
       <use xlink:href="#DejaVuSans-32" x="159.033203"/>
       <use xlink:href="#DejaVuSans-35" x="222.65625"/>
      </g>
     </g>
    </g>
    <g id="ytick_3">
     <g id="line2d_9">
      <g>
       <use xlink:href="#mfcba695bac" x="57.6" y="241.056" style="stroke: #000000; stroke-width: 0.8"/>
      </g>
     </g>
     <g id="text_9">
      <!-- 0.850 -->
      <g transform="translate(21.971875 244.855219) scale(0.1 -0.1)">
       <use xlink:href="#DejaVuSans-30"/>
       <use xlink:href="#DejaVuSans-2e" x="63.623047"/>
       <use xlink:href="#DejaVuSans-38" x="95.410156"/>
       <use xlink:href="#DejaVuSans-35" x="159.033203"/>
       <use xlink:href="#DejaVuSans-30" x="222.65625"/>
      </g>
     </g>
    </g>
    <g id="ytick_4">
     <g id="line2d_10">
      <g>
       <use xlink:href="#mfcba695bac" x="57.6" y="207.792" style="stroke: #000000; stroke-width: 0.8"/>
      </g>
     </g>
     <g id="text_10">
      <!-- 0.875 -->
      <g transform="translate(21.971875 211.591219) scale(0.1 -0.1)">
       <defs>
        <path id="DejaVuSans-37" d="M 525 4666 
L 3525 4666 
L 3525 4397 
L 1831 0 
L 1172 0 
L 2766 4134 
L 525 4134 
L 525 4666 
z
" transform="scale(0.015625)"/>
       </defs>
       <use xlink:href="#DejaVuSans-30"/>
       <use xlink:href="#DejaVuSans-2e" x="63.623047"/>
       <use xlink:href="#DejaVuSans-38" x="95.410156"/>
       <use xlink:href="#DejaVuSans-37" x="159.033203"/>
       <use xlink:href="#DejaVuSans-35" x="222.65625"/>
      </g>
     </g>
    </g>
    <g id="ytick_5">
     <g id="line2d_11">
      <g>
       <use xlink:href="#mfcba695bac" x="57.6" y="174.528" style="stroke: #000000; stroke-width: 0.8"/>
      </g>
     </g>
     <g id="text_11">
      <!-- 0.900 -->
      <g transform="translate(21.971875 178.327219) scale(0.1 -0.1)">
       <defs>
        <path id="DejaVuSans-39" d="M 703 97 
L 703 672 
Q 941 559 1184 500 
Q 1428 441 1663 441 
Q 2288 441 2617 861 
Q 2947 1281 2994 2138 
Q 2813 1869 2534 1725 
Q 2256 1581 1919 1581 
Q 1219 1581 811 2004 
Q 403 2428 403 3163 
Q 403 3881 828 4315 
Q 1253 4750 1959 4750 
Q 2769 4750 3195 4129 
Q 3622 3509 3622 2328 
Q 3622 1225 3098 567 
Q 2575 -91 1691 -91 
Q 1453 -91 1209 -44 
Q 966 3 703 97 
z
M 1959 2075 
Q 2384 2075 2632 2365 
Q 2881 2656 2881 3163 
Q 2881 3666 2632 3958 
Q 2384 4250 1959 4250 
Q 1534 4250 1286 3958 
Q 1038 3666 1038 3163 
Q 1038 2656 1286 2365 
Q 1534 2075 1959 2075 
z
" transform="scale(0.015625)"/>
       </defs>
       <use xlink:href="#DejaVuSans-30"/>
       <use xlink:href="#DejaVuSans-2e" x="63.623047"/>
       <use xlink:href="#DejaVuSans-39" x="95.410156"/>
       <use xlink:href="#DejaVuSans-30" x="159.033203"/>
       <use xlink:href="#DejaVuSans-30" x="222.65625"/>
      </g>
     </g>
    </g>
    <g id="ytick_6">
     <g id="line2d_12">
      <g>
       <use xlink:href="#mfcba695bac" x="57.6" y="141.264" style="stroke: #000000; stroke-width: 0.8"/>
      </g>
     </g>
     <g id="text_12">
      <!-- 0.925 -->
      <g transform="translate(21.971875 145.063219) scale(0.1 -0.1)">
       <use xlink:href="#DejaVuSans-30"/>
       <use xlink:href="#DejaVuSans-2e" x="63.623047"/>
       <use xlink:href="#DejaVuSans-39" x="95.410156"/>
       <use xlink:href="#DejaVuSans-32" x="159.033203"/>
       <use xlink:href="#DejaVuSans-35" x="222.65625"/>
      </g>
     </g>
    </g>
    <g id="ytick_7">
     <g id="line2d_13">
      <g>
       <use xlink:href="#mfcba695bac" x="57.6" y="108" style="stroke: #000000; stroke-width: 0.8"/>
      </g>
     </g>
     <g id="text_13">
      <!-- 0.950 -->
      <g transform="translate(21.971875 111.799219) scale(0.1 -0.1)">
       <use xlink:href="#DejaVuSans-30"/>
       <use xlink:href="#DejaVuSans-2e" x="63.623047"/>
       <use xlink:href="#DejaVuSans-39" x="95.410156"/>
       <use xlink:href="#DejaVuSans-35" x="159.033203"/>
       <use xlink:href="#DejaVuSans-30" x="222.65625"/>
      </g>
     </g>
    </g>
    <g id="ytick_8">
     <g id="line2d_14">
      <g>
       <use xlink:href="#mfcba695bac" x="57.6" y="74.736" style="stroke: #000000; stroke-width: 0.8"/>
      </g>
     </g>
     <g id="text_14">
      <!-- 0.975 -->
      <g transform="translate(21.971875 78.535219) scale(0.1 -0.1)">
       <use xlink:href="#DejaVuSans-30"/>
       <use xlink:href="#DejaVuSans-2e" x="63.623047"/>
       <use xlink:href="#DejaVuSans-39" x="95.410156"/>
       <use xlink:href="#DejaVuSans-37" x="159.033203"/>
       <use xlink:href="#DejaVuSans-35" x="222.65625"/>
      </g>
     </g>
    </g>
    <g id="ytick_9">
     <g id="line2d_15">
      <g>
       <use xlink:href="#mfcba695bac" x="57.6" y="41.472" style="stroke: #000000; stroke-width: 0.8"/>
      </g>
     </g>
     <g id="text_15">
      <!-- 1.000 -->
      <g transform="translate(21.971875 45.271219) scale(0.1 -0.1)">
       <use xlink:href="#DejaVuSans-31"/>
       <use xlink:href="#DejaVuSans-2e" x="63.623047"/>
       <use xlink:href="#DejaVuSans-30" x="95.410156"/>
       <use xlink:href="#DejaVuSans-30" x="159.033203"/>
       <use xlink:href="#DejaVuSans-30" x="222.65625"/>
      </g>
     </g>
    </g>
   </g>
   <g id="line2d_16">
    <path d="M 76.571182 346.6 
L 77.144204 260.226746 
L 77.209135 257.481991 
L 77.274065 258.513227 
L 77.338996 258.96298 
L 77.468858 256.105846 
L 77.533789 256.716752 
L 77.663651 258.027389 
L 77.923375 263.107751 
L 77.988305 261.719711 
L 78.053236 262.488359 
L 78.118167 263.774252 
L 78.183098 263.57527 
L 78.248029 264.020185 
L 78.31296 261.748023 
L 78.377891 261.876978 
L 78.442822 261.214363 
L 78.572684 257.617765 
L 78.832407 260.828532 
L 78.897338 259.964952 
L 78.962269 260.629787 
L 79.0272 260.433342 
L 79.092131 259.942825 
L 79.351855 251.881926 
L 79.416785 251.982408 
L 79.546647 252.466026 
L 79.611578 251.037935 
L 79.676509 252.248882 
L 79.74144 251.772322 
L 79.871302 250.247476 
L 80.001164 253.745732 
L 80.131025 251.996366 
L 80.390749 255.932004 
L 80.45568 257.627361 
L 80.520611 255.69424 
L 80.585542 255.748565 
L 80.715404 254.909333 
L 80.780335 255.481378 
L 81.16992 249.622215 
L 81.234851 249.921284 
L 81.364713 247.157654 
L 81.429644 246.718528 
L 81.494575 247.254488 
L 81.559505 246.755564 
L 81.624436 247.602331 
L 81.689367 245.676268 
L 81.754298 248.40532 
L 81.819229 247.561329 
L 81.949091 246.887691 
L 82.078953 251.381178 
L 82.468538 241.905749 
L 82.533469 242.179439 
L 82.793193 238.321602 
L 82.858124 240.219749 
L 82.923055 240.025049 
L 83.31264 232.313738 
L 83.377571 233.869276 
L 83.507433 236.618155 
L 83.572364 235.613963 
L 83.702225 240.028142 
L 83.767156 237.664619 
L 83.832087 238.28409 
L 84.02688 235.689781 
L 84.156742 233.24465 
L 84.221673 230.924666 
L 84.286604 231.579508 
L 84.351535 232.701393 
L 84.546327 228.187841 
L 84.611258 227.960863 
L 84.676189 228.537667 
L 84.74112 228.090135 
L 84.806051 230.269903 
L 84.870982 229.200599 
L 85.000844 230.284178 
L 85.195636 227.897734 
L 85.260567 227.628009 
L 85.325498 226.769743 
L 85.45536 229.96552 
L 85.520291 229.803019 
L 85.715084 232.812582 
L 85.780015 232.162974 
L 85.844945 233.849766 
L 85.909876 232.102938 
L 85.974807 232.706469 
L 86.039738 233.52635 
L 86.104669 233.517626 
L 86.1696 232.26877 
L 86.234531 233.068587 
L 86.364393 236.669388 
L 86.753978 231.758902 
L 86.818909 232.582035 
L 87.208495 228.026451 
L 87.273425 228.093148 
L 87.727942 233.263604 
L 87.792873 232.935509 
L 87.857804 231.66175 
L 87.922735 232.2997 
L 88.117527 236.22479 
L 88.182458 236.146196 
L 88.31232 231.864381 
L 88.377251 233.28248 
L 88.442182 232.525489 
L 88.636975 227.198162 
L 88.701905 227.553064 
L 88.896698 232.128555 
L 89.091491 230.426377 
L 89.286284 233.367656 
L 89.351215 233.091269 
L 89.7408 242.388097 
L 89.805731 242.066902 
L 90.195316 233.719385 
L 90.260247 234.408964 
L 90.325178 233.594872 
L 90.390109 234.134084 
L 90.45504 233.699875 
L 90.584902 234.863793 
L 90.649833 236.048013 
L 90.714764 235.777416 
L 90.844625 233.351398 
L 90.909556 234.518329 
L 90.974487 234.926287 
L 91.104349 237.383156 
L 91.234211 237.169343 
L 91.299142 234.362173 
L 91.364073 235.979412 
L 91.429004 234.949921 
L 91.493935 235.267468 
L 91.558865 235.614756 
L 91.623796 234.503419 
L 91.688727 235.849744 
L 91.753658 234.98783 
L 91.818589 235.374692 
L 92.013382 229.992802 
L 92.467898 223.890244 
L 92.532829 224.559759 
L 92.662691 223.346353 
L 92.792553 222.043568 
L 92.857484 222.605462 
L 93.052276 221.195294 
L 93.182138 224.164966 
L 93.247069 224.058773 
L 93.312 221.487225 
L 93.376931 222.477459 
L 93.441862 225.552769 
L 93.506793 223.973914 
L 93.636655 222.503948 
L 93.701585 222.935064 
L 93.831447 224.676499 
L 93.896378 223.259194 
L 93.961309 224.460466 
L 94.156102 219.994578 
L 94.221033 220.338852 
L 94.415825 223.524716 
L 94.610618 220.246221 
L 94.675549 220.845944 
L 94.74048 220.444569 
L 94.805411 221.049051 
L 94.870342 220.028125 
L 94.935273 220.242176 
L 95.000204 220.320373 
L 95.065135 221.237882 
L 95.130065 220.775123 
L 95.194996 220.804546 
L 95.324858 219.40445 
L 95.389789 219.03678 
L 95.45472 219.466865 
L 95.519651 221.202353 
L 95.584582 221.085929 
L 95.649513 220.350748 
L 95.909236 215.231525 
L 96.104029 210.755485 
L 96.16896 211.443241 
L 96.298822 210.95764 
L 96.558545 214.057693 
L 96.623476 213.273262 
L 96.688407 215.183226 
L 96.753338 214.908822 
L 96.8832 215.04999 
L 97.077993 216.989615 
L 97.272785 214.840538 
L 97.337716 214.779472 
L 97.532509 211.585836 
L 97.59744 211.749923 
L 97.662371 211.599794 
L 97.727302 210.957799 
L 97.792233 211.340141 
L 97.857164 212.863322 
L 97.922095 212.135596 
L 98.116887 212.575039 
L 98.31168 211.177481 
L 98.441542 212.821051 
L 98.506473 212.686545 
L 98.571404 212.84857 
L 98.701265 215.023818 
L 98.766196 214.158255 
L 98.831127 214.675658 
L 98.960989 217.724875 
L 99.02592 215.85623 
L 99.090851 215.859799 
L 99.155782 215.906828 
L 99.220713 217.435006 
L 99.285644 215.686829 
L 99.350575 215.744882 
L 99.415505 216.6202 
L 99.545367 214.233042 
L 99.74016 211.642858 
L 99.805091 213.087048 
L 99.870022 212.220455 
L 99.934953 210.224046 
L 100.194676 215.527818 
L 100.519331 213.069918 
L 100.584262 212.102207 
L 100.714124 215.170537 
L 100.779055 214.910329 
L 100.908916 213.248043 
L 100.973847 213.270487 
L 101.038778 213.399441 
L 101.233571 215.767089 
L 101.298502 218.761028 
L 101.363433 218.510892 
L 101.428364 217.829878 
L 101.688087 224.718057 
L 101.753018 223.864787 
L 101.947811 225.446814 
L 102.012742 224.466414 
L 102.142604 226.736513 
L 102.337396 229.868289 
L 102.402327 229.616805 
L 102.532189 231.562774 
L 102.59712 231.549134 
L 102.726982 228.904385 
L 102.791913 229.387685 
L 102.856844 229.280224 
L 102.921775 226.748171 
L 103.051636 230.657955 
L 103.181498 228.739584 
L 103.246429 229.084175 
L 103.31136 228.826426 
L 103.441222 227.676784 
L 103.506153 227.946112 
L 103.571084 227.106483 
L 103.636015 228.044771 
L 103.700945 226.545144 
L 103.960669 232.948436 
L 104.0256 233.120137 
L 104.155462 230.24389 
L 104.285324 232.61931 
L 104.350255 230.143804 
L 104.415185 232.241171 
L 104.480116 232.093421 
L 104.545047 230.967492 
L 104.804771 235.070468 
L 104.999564 236.116614 
L 105.064495 235.645448 
L 105.194356 236.390622 
L 105.259287 235.342573 
L 105.324218 237.122076 
L 105.583942 232.894745 
L 105.713804 235.612456 
L 105.778735 235.467165 
L 105.908596 234.495251 
L 106.16832 239.146004 
L 106.233251 238.670238 
L 106.428044 236.450499 
L 106.492975 235.67963 
L 106.557905 239.021492 
L 106.622836 238.034668 
L 106.687767 234.304516 
L 106.752698 235.180627 
L 107.012422 241.125045 
L 107.077353 243.610861 
L 107.272145 240.253614 
L 107.402007 240.752141 
L 107.531869 242.523079 
L 107.5968 242.187608 
L 107.791593 239.758021 
L 107.856524 239.718684 
L 107.921455 240.86103 
L 108.181178 234.367328 
L 108.246109 234.833656 
L 108.31104 234.603902 
L 108.440902 233.747539 
L 108.505833 234.03717 
L 108.700625 230.74091 
L 108.765556 231.225955 
L 109.090211 222.998034 
L 109.285004 225.579416 
L 109.544727 219.66561 
L 109.804451 218.151153 
L 109.869382 219.442518 
L 109.934313 219.354487 
L 110.129105 217.772935 
L 110.194036 218.066928 
L 110.258967 217.023955 
L 110.323898 220.21878 
L 110.388829 219.676079 
L 110.45376 219.52365 
L 110.518691 218.494713 
L 110.583622 219.130443 
L 110.648553 219.264948 
L 110.778415 216.875174 
L 110.843345 217.543181 
L 110.908276 216.177822 
L 110.973207 216.72671 
L 111.038138 217.788955 
L 111.232931 215.189571 
L 111.297862 214.918498 
L 111.427724 213.158504 
L 111.557585 217.107466 
L 111.687447 214.60325 
L 111.752378 217.696721 
L 111.817309 215.596895 
L 111.88224 215.786915 
L 111.947171 214.777885 
L 112.141964 217.812906 
L 112.206895 216.180281 
L 112.271825 216.547237 
L 112.336756 216.800704 
L 112.401687 216.647164 
L 112.466618 218.836608 
L 112.531549 218.319602 
L 112.661411 216.325731 
L 112.726342 216.977084 
L 112.791273 216.866133 
L 112.856204 217.083832 
L 112.921135 216.817279 
L 113.570444 205.263675 
L 113.635375 205.591215 
L 113.700305 206.722458 
L 113.765236 205.754351 
L 113.960029 206.830951 
L 114.089891 205.50477 
L 114.219753 207.698496 
L 114.284684 207.28467 
L 114.349615 207.476515 
L 114.414545 206.416173 
L 114.479476 207.010027 
L 114.609338 206.332027 
L 114.674269 206.944837 
L 114.7392 206.686294 
L 114.804131 206.302287 
L 114.869062 207.194497 
L 114.933993 206.465502 
L 115.063855 210.335314 
L 115.258647 208.205748 
L 115.388509 207.759325 
L 115.45344 207.926109 
L 115.713164 212.831678 
L 115.778095 212.940884 
L 115.843025 216.382594 
L 115.907956 216.087015 
L 115.972887 216.135393 
L 116.16768 219.742776 
L 116.232611 219.858248 
L 116.362473 217.359029 
L 116.427404 217.459353 
L 116.492335 218.312702 
L 116.557265 217.585135 
L 116.687127 220.076582 
L 116.752058 219.69424 
L 116.88192 214.766306 
L 116.946851 214.32147 
L 117.336436 222.245247 
L 117.401367 222.00899 
L 117.466298 221.214249 
L 117.531229 222.49229 
L 117.59616 221.805169 
L 117.661091 220.644027 
L 117.920815 226.189529 
L 118.050676 222.947674 
L 118.115607 223.325495 
L 118.180538 225.338717 
L 118.245469 221.92421 
L 118.3104 222.351281 
L 118.440262 222.759715 
L 118.764916 219.291278 
L 119.02464 215.507039 
L 119.089571 216.386163 
L 119.154502 216.234924 
L 119.284364 218.312544 
L 119.349295 218.3748 
L 119.414225 217.147912 
L 119.479156 218.978489 
L 119.544087 218.44808 
L 119.609018 218.744374 
L 119.73888 222.396645 
L 120.128465 218.236567 
L 120.193396 218.037029 
L 120.258327 218.378845 
L 120.323258 217.187566 
L 120.388189 217.756598 
L 120.582982 220.041766 
L 120.647913 219.318877 
L 120.777775 218.91314 
L 120.842705 220.192371 
L 120.907636 219.954448 
L 120.972567 220.026697 
L 121.102429 220.849593 
L 121.232291 219.9393 
L 121.297222 220.29436 
L 121.427084 223.401551 
L 121.556945 219.581782 
L 121.621876 219.948579 
L 121.816669 219.199282 
L 121.8816 220.406977 
L 121.946531 219.679648 
L 122.141324 216.706011 
L 122.206255 216.036496 
L 122.271185 217.46197 
L 122.336116 216.627813 
L 122.530909 214.979406 
L 122.59584 215.19536 
L 122.660771 215.463975 
L 122.920495 219.030753 
L 122.985425 218.762852 
L 123.050356 220.445045 
L 123.115287 218.804885 
L 123.180218 219.060097 
L 123.245149 219.37241 
L 123.31008 220.872275 
L 123.569804 214.715153 
L 123.634735 214.940466 
L 123.699665 215.557082 
L 123.829527 212.582811 
L 123.894458 212.997034 
L 123.959389 215.312736 
L 124.02432 214.915087 
L 124.089251 214.934201 
L 124.154182 215.649872 
L 124.413905 210.647865 
L 124.478836 211.752619 
L 124.543767 211.158289 
L 124.608698 210.858903 
L 124.673629 208.521709 
L 124.73856 210.615983 
L 124.803491 210.377347 
L 124.998284 209.058859 
L 125.128145 211.294539 
L 125.258007 211.200797 
L 125.322938 210.837807 
L 125.387869 211.305483 
L 125.4528 210.191609 
L 125.582662 212.143606 
L 125.647593 212.006959 
L 125.777455 209.985092 
L 125.842385 210.304939 
L 126.037178 214.443208 
L 126.102109 214.125105 
L 126.16704 211.81329 
L 126.231971 211.964133 
L 126.296902 212.124017 
L 126.491695 216.116756 
L 126.621556 215.24929 
L 126.686487 215.657406 
L 127.011142 212.169539 
L 127.205935 208.443512 
L 127.270865 208.785882 
L 127.465658 205.624762 
L 127.530589 205.581143 
L 127.790313 208.776762 
L 127.985105 204.653007 
L 128.050036 204.512633 
L 128.114967 205.403812 
L 128.179898 205.368123 
L 128.244829 205.509132 
L 128.30976 206.457571 
L 128.374691 204.852069 
L 128.439622 205.088088 
L 128.569484 206.46114 
L 128.764276 204.646186 
L 128.829207 202.76057 
L 128.894138 203.238398 
L 128.959069 203.386782 
L 129.088931 206.197997 
L 129.218793 205.161368 
L 129.283724 208.006923 
L 129.348655 206.791059 
L 129.413585 206.840706 
L 129.543447 207.998596 
L 129.608378 207.505462 
L 130.062895 213.60001 
L 130.127825 213.479224 
L 130.257687 214.975044 
L 130.517411 210.531759 
L 130.712204 211.74223 
L 130.777135 213.197841 
L 130.842065 212.793452 
L 130.971927 209.992785 
L 131.036858 211.425555 
L 131.16672 212.808679 
L 131.231651 212.391759 
L 131.296582 211.790211 
L 131.361513 211.919245 
L 131.426444 212.641023 
L 131.686167 208.245956 
L 131.751098 209.483313 
L 131.816029 208.695154 
L 131.88096 209.118974 
L 131.945891 207.144057 
L 132.075753 210.657541 
L 132.140684 210.618204 
L 132.205615 210.177571 
L 132.270545 211.231807 
L 132.465338 207.573032 
L 132.530269 208.16189 
L 132.5952 208.468097 
L 132.660131 208.330498 
L 132.725062 208.524088 
L 132.789993 210.021177 
L 132.984785 207.069032 
L 133.374371 209.566348 
L 133.504233 207.203934 
L 133.569164 208.983675 
L 133.634095 208.425271 
L 133.699025 208.710619 
L 133.763956 208.24215 
L 133.958749 212.414441 
L 134.02368 211.918848 
L 134.088611 211.305563 
L 134.153542 211.36885 
L 134.218473 211.882604 
L 134.283404 210.343879 
L 134.348335 210.886264 
L 134.543127 212.916696 
L 134.608058 211.721769 
L 134.672989 212.102842 
L 134.997644 214.858065 
L 135.062575 214.579299 
L 135.192436 212.040744 
L 135.257367 213.209261 
L 135.322298 213.153032 
L 135.45216 211.884349 
L 135.646953 208.844887 
L 135.711884 208.969241 
L 135.841745 205.901625 
L 135.906676 205.83469 
L 136.036538 205.01917 
L 136.101469 205.701056 
L 136.231331 203.565859 
L 136.491055 198.723577 
L 136.555985 199.724835 
L 136.685847 196.870953 
L 136.750778 197.163519 
L 136.815709 198.656007 
L 136.88064 198.539108 
L 136.945571 197.627626 
L 137.010502 197.893069 
L 137.075433 198.599144 
L 137.140364 198.434026 
L 137.205295 197.876652 
L 137.270225 196.216904 
L 137.529949 199.739666 
L 137.724742 198.955314 
L 137.789673 198.949049 
L 137.854604 198.613657 
L 137.919535 199.263424 
L 138.049396 201.134448 
L 138.114327 200.822373 
L 138.179258 202.825523 
L 138.244189 201.451282 
L 138.30912 201.82831 
L 138.568844 195.810928 
L 138.763636 199.281268 
L 138.828567 199.240583 
L 139.02336 196.630175 
L 139.088291 198.396275 
L 139.153222 197.734533 
L 139.218153 197.847626 
L 139.412945 196.392411 
L 139.477876 195.965895 
L 139.542807 196.084936 
L 139.607738 196.794818 
L 139.867462 194.064893 
L 139.932393 193.928881 
L 139.997324 196.334755 
L 140.062255 195.20946 
L 140.192116 196.532627 
L 140.257047 196.142275 
L 140.45184 192.892648 
L 140.516771 193.407275 
L 140.581702 192.98179 
L 140.776495 194.762324 
L 140.841425 195.477043 
L 140.906356 194.067352 
L 140.971287 194.906981 
L 141.101149 198.094986 
L 141.16608 197.95596 
L 141.231011 196.257509 
L 141.295942 196.396059 
L 141.685527 201.551368 
L 141.750458 199.011702 
L 141.815389 199.340987 
L 141.88032 200.013832 
L 141.945251 202.23714 
L 142.010182 201.768353 
L 142.075113 200.771378 
L 142.399767 206.133203 
L 142.659491 201.457468 
L 142.724422 201.892152 
L 143.114007 210.159093 
L 143.3088 207.515692 
L 143.373731 208.120888 
L 143.438662 208.236202 
L 143.503593 207.893831 
L 143.633455 206.037558 
L 143.763316 207.973694 
L 143.828247 206.999083 
L 143.893178 208.33946 
L 143.958109 207.607134 
L 144.02304 206.028914 
L 144.087971 206.196094 
L 144.217833 206.343844 
L 144.412625 209.553579 
L 144.477556 209.231987 
L 144.607418 209.806015 
L 144.672349 208.72775 
L 144.867142 212.343857 
L 145.126865 215.209715 
L 145.256727 211.825979 
L 145.321658 213.192924 
L 145.45152 212.342985 
L 145.646313 215.804442 
L 145.711244 215.613232 
L 145.776175 215.30877 
L 145.841105 215.621321 
L 145.906036 216.660171 
L 146.100829 214.095206 
L 146.425484 217.189549 
L 146.490415 214.82666 
L 146.555345 215.240645 
L 146.685207 213.929215 
L 146.815069 215.033414 
L 147.009862 218.459897 
L 147.139724 218.162256 
L 147.269585 216.730675 
L 147.334516 214.52878 
L 147.399447 215.035952 
L 147.464378 214.677561 
L 147.529309 211.524689 
L 147.59424 211.837796 
L 147.724102 214.172927 
L 147.789033 213.53577 
L 147.853964 213.016227 
L 148.178618 207.050871 
L 148.373411 208.14127 
L 148.503273 206.04303 
L 148.568204 207.707458 
L 148.762996 203.605513 
L 148.957789 202.20161 
L 149.087651 204.399857 
L 149.217513 206.865212 
L 149.477236 199.939997 
L 149.542167 200.972343 
L 149.607098 198.87561 
L 149.672029 198.929143 
L 149.801891 199.768296 
L 149.866822 199.661944 
L 150.061615 201.346596 
L 150.126545 201.070843 
L 150.191476 199.252638 
L 150.256407 199.838721 
L 150.321338 200.033738 
L 150.386269 197.898541 
L 150.581062 201.35865 
L 150.645993 201.641858 
L 150.775855 198.342187 
L 150.840785 200.376188 
L 150.905716 199.064045 
L 151.100509 197.667597 
L 151.16544 199.062935 
L 151.230371 198.766245 
L 151.295302 198.232346 
L 151.360233 198.783058 
L 151.619956 195.278854 
L 151.684887 196.880866 
L 151.749818 195.983739 
L 151.814749 195.450555 
L 151.87968 198.167473 
L 151.944611 197.982528 
L 152.139404 194.489268 
L 152.204335 194.830528 
L 152.269265 195.182099 
L 152.59392 200.604753 
L 152.658851 200.075375 
L 152.723782 199.945628 
L 152.853644 205.590343 
L 152.918575 204.426505 
L 152.983505 204.610181 
L 153.113367 203.841056 
L 153.243229 205.659975 
L 153.30816 205.418087 
L 153.438022 203.559276 
L 153.567884 205.404843 
L 153.632815 204.613195 
L 153.697745 204.279151 
L 153.827607 205.301901 
L 153.892538 204.594795 
L 153.957469 205.511908 
L 154.0224 205.162479 
L 154.087331 205.000136 
L 154.152262 205.630235 
L 154.217193 205.031066 
L 154.282124 205.215377 
L 154.541847 208.380541 
L 154.606778 208.377131 
L 154.73664 207.934436 
L 154.801571 208.465559 
L 154.931433 207.544719 
L 155.191156 211.626044 
L 155.256087 209.762079 
L 155.321018 210.986826 
L 155.45088 213.374062 
L 155.515811 215.897629 
L 155.580742 214.5448 
L 155.905396 217.008331 
L 156.16512 219.156376 
L 156.230051 218.502168 
L 156.294982 222.123113 
L 156.359913 220.927076 
L 156.424844 220.028521 
L 156.489775 220.373985 
L 156.554705 220.271044 
L 156.684567 221.809214 
L 156.749498 221.217897 
L 156.814429 222.544792 
L 156.87936 221.918579 
L 156.944291 221.938009 
L 157.139084 218.584252 
L 157.204015 219.142656 
L 157.268945 220.871957 
L 157.333876 217.70481 
L 157.398807 219.086586 
L 157.5936 220.813349 
L 157.723462 218.305168 
L 157.788393 218.735888 
L 157.853324 219.273593 
L 157.918255 219.007675 
L 157.983185 218.93376 
L 158.048116 217.861918 
L 158.113047 218.530402 
L 158.177978 217.661429 
L 158.242909 219.831125 
L 158.30784 219.443232 
L 158.372771 217.858905 
L 158.437702 217.976438 
L 158.502633 219.059225 
L 158.567564 218.00713 
L 158.632495 218.070735 
L 158.697425 218.219516 
L 158.762356 217.216434 
L 158.827287 218.622002 
L 158.892218 217.808227 
L 158.957149 218.587345 
L 159.02208 218.267259 
L 159.087011 215.537414 
L 159.151942 216.607828 
L 159.216873 215.974319 
L 159.346735 211.111418 
L 159.411665 211.607883 
L 159.476596 214.11995 
L 159.541527 213.666469 
L 159.996044 208.667952 
L 160.255767 204.381141 
L 160.385629 205.988308 
L 160.45056 205.475902 
L 160.515491 206.651557 
L 160.580422 206.449799 
L 160.645353 204.271617 
L 160.710284 207.199573 
L 160.775215 206.546554 
L 160.840145 206.161595 
L 160.970007 207.019544 
L 161.034938 206.467881 
L 161.099869 206.73253 
L 161.1648 206.534341 
L 161.619316 199.508167 
L 161.684247 199.716191 
L 161.749178 198.347105 
L 161.814109 198.770924 
L 161.87904 198.550687 
L 161.943971 197.524209 
L 162.203695 191.064609 
L 162.268625 191.061357 
L 162.59328 185.368819 
L 162.723142 186.998352 
L 162.788073 183.831522 
L 162.853004 184.764337 
L 162.982865 185.010191 
L 163.177658 183.629129 
L 163.242589 184.016705 
L 163.30752 182.838115 
L 163.567244 186.88169 
L 163.697105 187.269504 
L 163.762036 186.440344 
L 163.826967 187.965904 
L 163.891898 187.780086 
L 163.956829 186.319003 
L 164.02176 187.323513 
L 164.151622 189.990785 
L 164.216553 189.429922 
L 164.281484 189.618753 
L 164.346415 189.551817 
L 164.476276 189.995464 
L 164.541207 190.93161 
L 164.606138 190.541338 
L 164.800931 187.798803 
L 164.865862 187.829733 
L 165.060655 187.188373 
L 165.125585 188.412644 
L 165.190516 187.185756 
L 165.255447 188.800695 
L 165.45024 185.492936 
L 165.515171 185.865364 
L 165.904756 193.61625 
L 165.969687 190.679967 
L 166.034618 191.819141 
L 166.099549 191.826675 
L 166.16448 192.161115 
L 166.359273 190.203646 
L 166.424204 190.47805 
L 166.489135 190.028535 
L 166.683927 194.63218 
L 166.748858 194.283703 
L 166.943651 192.771625 
L 167.073513 191.623806 
L 167.138444 191.790907 
L 167.203375 190.077864 
L 167.268305 190.282398 
L 167.333236 191.840237 
L 167.398167 191.819617 
L 167.463098 191.250426 
L 167.982545 198.148598 
L 168.047476 197.479559 
L 168.112407 197.744208 
L 168.177338 197.321658 
L 168.242269 197.461794 
L 168.3072 195.666826 
L 168.372131 195.954396 
L 168.437062 195.940993 
L 168.696785 198.398099 
L 168.761716 199.674158 
L 168.826647 199.546949 
L 168.891578 199.131456 
L 168.956509 200.623707 
L 169.086371 206.925406 
L 169.151302 207.131685 
L 169.281164 206.014163 
L 169.475956 209.785158 
L 169.540887 210.323973 
L 169.605818 209.332867 
L 169.670749 209.678251 
L 169.800611 209.205974 
L 169.865542 207.320755 
L 169.930473 207.6088 
L 169.995404 210.133794 
L 170.060335 209.046487 
L 170.125265 209.373869 
L 170.190196 210.709566 
L 170.255127 209.85249 
L 170.384989 208.837829 
L 170.44992 212.315624 
L 170.514851 212.073974 
L 170.579782 211.892121 
L 170.644713 210.612732 
L 170.709644 211.852468 
L 170.774575 211.418655 
L 170.839505 211.358144 
L 170.904436 212.343461 
L 170.969367 211.801869 
L 171.034298 211.618034 
L 171.099229 212.065805 
L 171.229091 215.021122 
L 171.294022 214.906919 
L 171.358953 214.740214 
L 171.423884 214.981627 
L 171.488815 214.560028 
L 171.553745 214.907157 
L 171.748538 212.666798 
L 171.8784 212.12021 
L 171.943331 213.494055 
L 172.267985 205.276602 
L 172.397847 205.442672 
L 172.462778 206.375488 
L 172.527709 204.97912 
L 172.722502 207.269443 
L 172.982225 207.961401 
L 173.177018 204.576317 
L 173.371811 205.61017 
L 173.501673 205.085074 
L 173.631535 206.339641 
L 173.761396 205.824538 
L 173.891258 202.302569 
L 173.956189 203.211989 
L 174.02112 201.323676 
L 174.086051 201.779139 
L 174.150982 201.415752 
L 174.215913 201.798569 
L 174.345775 199.477951 
L 174.410705 199.88924 
L 174.475636 201.577539 
L 174.540567 200.481192 
L 174.605498 200.478733 
L 174.670429 200.776929 
L 174.73536 202.012224 
L 174.800291 201.959643 
L 174.865222 201.68048 
L 174.930153 201.774381 
L 175.124945 202.283376 
L 175.254807 200.940224 
L 175.319738 201.466112 
L 175.384669 201.028334 
L 175.4496 201.148961 
L 175.579462 196.621055 
L 175.709324 196.913224 
L 175.774255 198.147487 
L 175.969047 193.296641 
L 176.033978 193.486662 
L 176.098909 193.615536 
L 176.358633 199.236856 
L 176.423564 200.226218 
L 176.618356 195.538665 
L 176.683287 193.969486 
L 176.748218 197.418254 
L 176.813149 196.827096 
L 177.137804 194.888978 
L 177.202735 195.048465 
L 177.267665 195.964626 
L 177.397527 192.353833 
L 177.462458 193.191082 
L 177.527389 192.904386 
L 177.657251 195.596877 
L 177.787113 193.007565 
L 178.046836 191.398494 
L 178.111767 191.265495 
L 178.176698 191.505717 
L 178.436422 189.730418 
L 178.566284 190.490343 
L 178.761076 188.592989 
L 178.826007 188.637163 
L 178.890938 188.398527 
L 178.955869 187.467218 
L 179.0208 187.791031 
L 179.085731 188.534143 
L 179.150662 190.709073 
L 179.215593 189.56522 
L 179.280524 189.281775 
L 179.345455 191.152799 
L 179.410385 190.32229 
L 179.475316 191.524513 
L 179.540247 191.324262 
L 179.605178 191.075871 
L 179.670109 191.743799 
L 179.73504 191.005525 
L 179.799971 191.999407 
L 179.864902 190.743493 
L 179.994764 193.304968 
L 180.124625 194.133732 
L 180.189556 193.256273 
L 180.254487 193.29902 
L 180.319418 193.73077 
L 180.384349 195.185192 
L 180.44928 194.364279 
L 180.514211 194.4604 
L 180.579142 194.19813 
L 180.709004 194.603946 
L 180.838865 196.043617 
L 180.968727 192.323934 
L 181.098589 193.377534 
L 181.16352 193.844339 
L 181.293382 196.899504 
L 181.358313 195.750892 
L 181.423244 196.027993 
L 181.488175 196.558085 
L 181.618036 195.38806 
L 182.007622 200.409815 
L 182.072553 200.732755 
L 182.267345 199.475572 
L 182.592 205.069689 
L 182.786793 200.820469 
L 182.851724 201.07695 
L 182.981585 199.60056 
L 183.046516 200.782719 
L 183.111447 200.168006 
L 183.176378 199.564 
L 183.241309 196.895538 
L 183.30624 197.276135 
L 183.371171 197.273042 
L 183.436102 194.769541 
L 183.501033 194.95401 
L 183.565964 194.196702 
L 183.630895 194.834731 
L 183.760756 191.715883 
L 183.825687 193.078545 
L 183.890618 194.028808 
L 183.955549 193.298068 
L 184.02048 194.509888 
L 184.085411 193.688896 
L 184.150342 192.40911 
L 184.410065 196.544999 
L 184.539927 196.997369 
L 184.604858 196.802669 
L 184.669789 196.201914 
L 184.994444 201.5156 
L 185.059375 202.098907 
L 185.124305 201.829975 
L 185.189236 201.826882 
L 185.254167 202.050609 
L 185.319098 200.456448 
L 185.384029 200.490867 
L 185.578822 202.959235 
L 185.643753 201.098363 
L 185.708684 203.089617 
L 185.773615 202.53145 
L 185.968407 200.596029 
L 186.033338 201.224383 
L 186.228131 203.738353 
L 186.357993 203.60924 
L 186.552785 198.056363 
L 186.617716 197.953739 
L 186.682647 198.197451 
L 186.747578 197.475435 
L 186.812509 198.339253 
L 186.87744 196.949388 
L 186.942371 197.872607 
L 187.007302 198.317523 
L 187.202095 196.869446 
L 187.267025 197.043288 
L 187.526749 198.623016 
L 187.656611 197.316424 
L 187.786473 194.7536 
L 187.916335 198.502785 
L 187.981265 198.352815 
L 188.176058 198.792179 
L 188.240989 197.671087 
L 188.30592 199.273496 
L 188.370851 198.314509 
L 188.695505 195.596322 
L 188.760436 196.036479 
L 189.02016 190.255434 
L 189.085091 190.225376 
L 189.214953 190.837472 
L 189.279884 190.435224 
L 189.474676 186.757574 
L 189.539607 186.430193 
L 189.799331 191.738961 
L 190.059055 189.464341 
L 190.123985 189.250766 
L 190.253847 191.970856 
L 190.383709 191.76656 
L 190.44864 192.031685 
L 190.708364 188.453963 
L 190.773295 188.180193 
L 190.968087 186.851236 
L 191.033018 188.126343 
L 191.097949 187.972804 
L 191.16288 188.009047 
L 191.552465 182.93376 
L 191.747258 184.990602 
L 191.87712 184.177779 
L 192.201775 179.030322 
L 192.331636 181.738278 
L 192.396567 181.734154 
L 192.59136 184.342659 
L 192.656291 183.209116 
L 192.721222 183.958731 
L 192.851084 184.135587 
L 192.916015 184.293092 
L 193.045876 185.108691 
L 193.110807 184.373748 
L 193.3056 188.200813 
L 193.370531 188.158304 
L 193.500393 185.546072 
L 193.565324 185.9139 
L 193.630255 185.30236 
L 193.695185 186.235334 
L 193.825047 184.299833 
L 193.889978 184.64831 
L 193.954909 187.183932 
L 194.01984 186.544475 
L 194.084771 186.669543 
L 194.149702 188.338491 
L 194.214633 187.538912 
L 194.279564 188.054253 
L 194.474356 183.249642 
L 194.539287 182.805917 
L 194.604218 183.189369 
L 194.928873 176.018141 
L 194.993804 176.236158 
L 195.058735 177.718892 
L 195.123665 176.956905 
L 195.188596 177.15446 
L 195.318458 175.97246 
L 195.383389 176.692811 
L 195.44832 176.367729 
L 195.513251 176.364081 
L 195.837905 185.922307 
L 195.902836 186.90921 
L 196.032698 190.753247 
L 196.292422 186.275384 
L 196.682007 192.373104 
L 196.746938 190.576788 
L 196.811869 192.762663 
L 196.8768 192.071418 
L 196.941731 192.14105 
L 197.006662 193.797864 
L 197.071593 193.744808 
L 197.136524 193.207975 
L 197.266385 194.190596 
L 197.396247 196.781018 
L 197.461178 196.650637 
L 197.915695 202.384176 
L 198.110487 205.629442 
L 198.175418 205.628569 
L 198.240349 204.062483 
L 198.500073 208.473173 
L 198.565004 207.044447 
L 198.629935 208.513857 
L 198.694865 208.473093 
L 198.824727 206.657109 
L 198.889658 209.265852 
L 198.954589 209.090423 
L 199.01952 209.387113 
L 199.149382 211.700356 
L 199.214313 209.809267 
L 199.279244 210.423663 
L 199.344175 209.514084 
L 199.409105 210.976912 
L 199.474036 210.384167 
L 199.538967 211.087308 
L 199.603898 210.81449 
L 199.73376 208.983437 
L 199.863622 205.084123 
L 200.318138 211.901955 
L 200.383069 211.396687 
L 200.448 209.592123 
L 200.512931 211.090084 
L 200.577862 210.687757 
L 200.642793 208.777396 
L 200.707724 209.673968 
L 200.772655 208.478645 
L 201.032378 211.565295 
L 201.097309 211.407235 
L 201.16224 211.614624 
L 201.421964 216.955036 
L 201.486895 215.851868 
L 201.551825 216.323114 
L 201.616756 215.73481 
L 201.681687 216.125797 
L 201.746618 215.589281 
L 202.006342 218.062963 
L 202.330996 209.940362 
L 202.395927 209.955589 
L 202.525789 208.224543 
L 202.59072 209.107316 
L 202.655651 208.747339 
L 202.850444 207.600948 
L 202.915375 205.472888 
L 202.980305 206.420059 
L 203.499753 198.263356 
L 203.564684 198.560442 
L 203.629615 198.623016 
L 204.0192 193.318212 
L 204.084131 194.052918 
L 204.278924 191.44584 
L 204.408785 189.92488 
L 204.473716 190.396998 
L 204.603578 188.54596 
L 204.668509 188.89293 
L 204.73344 190.784574 
L 204.798371 190.26844 
L 204.863302 191.30269 
L 205.058095 188.91704 
L 205.187956 188.690775 
L 205.252887 190.200394 
L 205.317818 189.467989 
L 205.577542 183.915271 
L 205.707404 183.840959 
L 205.772335 183.031705 
L 206.032058 188.706716 
L 206.16192 187.721399 
L 206.226851 188.115399 
L 206.421644 190.256465 
L 206.486575 190.179695 
L 206.551505 190.945172 
L 206.616436 190.547365 
L 206.681367 187.725206 
L 206.746298 188.646046 
L 206.811229 188.310733 
L 206.941091 189.520491 
L 207.200815 188.080979 
L 207.265745 187.883979 
L 207.460538 186.431779 
L 207.5904 186.183467 
L 207.655331 187.065446 
L 207.850124 184.705253 
L 207.915055 184.401109 
L 207.979985 185.534731 
L 208.044916 183.816215 
L 208.109847 184.553459 
L 208.174778 184.286192 
L 208.30464 190.061606 
L 208.499433 188.055284 
L 208.629295 187.148005 
L 208.824087 190.309125 
L 208.889018 189.32698 
L 208.953949 189.201912 
L 209.083811 188.336667 
L 209.148742 188.478231 
L 209.278604 189.155993 
L 209.408465 188.798792 
L 209.473396 187.564687 
L 209.538327 189.454586 
L 209.603258 189.049404 
L 209.668189 188.825201 
L 210.317498 197.586942 
L 210.382429 199.050642 
L 210.44736 198.709302 
L 210.772015 200.116932 
L 210.836945 202.051798 
L 210.901876 201.447871 
L 210.966807 200.750837 
L 211.031738 201.576825 
L 211.096669 201.44692 
L 211.1616 204.778947 
L 211.226531 202.761204 
L 211.291462 203.018558 
L 211.421324 202.538747 
L 211.486255 203.306523 
L 211.551185 202.845508 
L 211.616116 202.768977 
L 211.681047 203.696637 
L 211.810909 200.980671 
L 212.005702 202.854549 
L 212.070633 201.375226 
L 212.135564 201.534396 
L 212.330356 200.445979 
L 212.460218 196.780304 
L 212.525149 196.69267 
L 212.59008 197.622947 
L 212.655011 197.486776 
L 212.719942 197.403424 
L 212.784873 196.13022 
L 212.849804 196.610031 
L 212.914735 196.802828 
L 212.979665 197.900127 
L 213.044596 196.318497 
L 213.109527 196.551581 
L 213.174458 197.370987 
L 213.369251 195.362603 
L 213.693905 198.203558 
L 213.758836 201.180129 
L 213.823767 200.823404 
L 213.888698 201.640351 
L 213.953629 201.221766 
L 214.01856 199.961251 
L 214.083491 201.496963 
L 214.148422 200.09084 
L 214.213353 200.356361 
L 214.602938 197.804641 
L 214.667869 199.144463 
L 214.797731 192.864415 
L 214.862662 194.130163 
L 214.927593 193.685962 
L 214.992524 193.820705 
L 215.057455 193.431384 
L 215.122385 195.034904 
L 215.187316 194.137459 
L 215.317178 191.747288 
L 215.382109 192.082046 
L 215.44704 192.967752 
L 215.511971 192.497855 
L 215.576902 192.521489 
L 215.641833 192.420927 
L 215.771695 190.863009 
L 215.836625 191.079995 
L 215.966487 192.192997 
L 216.031418 190.46203 
L 216.096349 190.474085 
L 216.16128 190.716925 
L 216.226211 190.536976 
L 216.291142 190.430307 
L 216.356073 190.561165 
L 216.421004 190.459334 
L 216.680727 184.780357 
L 216.745658 184.527921 
L 216.940451 181.480291 
L 217.005382 181.658733 
L 217.135244 180.902059 
L 217.200175 181.08518 
L 217.265105 181.508524 
L 217.459898 177.415144 
L 217.58976 178.70865 
L 217.654691 177.630385 
L 217.719622 178.599444 
L 217.784553 178.258342 
L 217.914415 177.842929 
L 218.109207 181.463795 
L 218.174138 180.19765 
L 218.239069 180.265458 
L 218.433862 184.083482 
L 218.498793 183.100544 
L 218.628655 183.253846 
L 218.693585 184.444886 
L 218.758516 183.832632 
L 218.823447 183.914478 
L 218.888378 184.387309 
L 218.953309 187.79571 
L 219.01824 186.726961 
L 219.277964 189.848269 
L 219.342895 189.728356 
L 219.472756 186.553516 
L 219.537687 188.702988 
L 219.602618 187.252215 
L 219.667549 186.623624 
L 219.862342 190.147893 
L 220.186996 186.389428 
L 220.251927 183.142339 
L 220.316858 184.494216 
L 220.511651 188.842728 
L 220.641513 187.043636 
L 220.836305 190.635952 
L 221.031098 188.780313 
L 221.096029 189.502964 
L 221.225891 187.246347 
L 221.290822 187.554615 
L 221.355753 185.46153 
L 221.420684 185.921593 
L 221.485615 186.34914 
L 221.550545 185.867664 
L 221.745338 188.569672 
L 221.8752 187.024444 
L 221.940131 185.205525 
L 222.005062 185.509828 
L 222.069993 185.00686 
L 222.134924 186.321065 
L 222.199855 186.193856 
L 222.264785 186.445578 
L 222.329716 186.269357 
L 222.459578 185.572085 
L 222.524509 185.610073 
L 222.58944 185.903352 
L 222.784233 188.369817 
L 222.849164 188.880082 
L 222.979025 188.014678 
L 223.173818 190.869195 
L 223.30368 189.874599 
L 223.433542 191.281118 
L 223.628335 188.755411 
L 223.888058 190.041541 
L 223.952989 189.597181 
L 224.01792 189.546028 
L 224.082851 189.052655 
L 224.212713 186.722362 
L 224.277644 187.583959 
L 224.602298 182.639133 
L 224.797091 184.009964 
L 224.862022 183.368048 
L 224.926953 179.069103 
L 225.056815 182.262105 
L 225.121745 182.300331 
L 225.316538 180.498225 
L 225.381469 181.289953 
L 225.4464 179.583651 
L 225.511331 180.209704 
L 225.641193 178.446856 
L 225.706124 180.48276 
L 225.771055 179.892553 
L 225.900916 179.241676 
L 225.965847 179.69365 
L 226.030778 178.106547 
L 226.16064 181.87889 
L 226.225571 180.269423 
L 226.420364 179.071244 
L 226.550225 182.604951 
L 226.615156 182.106741 
L 226.745018 183.72517 
L 226.809949 183.144084 
L 226.939811 180.747568 
L 227.004742 181.334603 
L 227.199535 179.130249 
L 227.264465 179.17252 
L 227.329396 176.989104 
L 227.394327 180.167354 
L 227.459258 179.562475 
L 227.524189 179.625287 
L 227.58912 180.311852 
L 227.718982 182.961439 
L 227.783913 182.841446 
L 227.848844 183.017826 
L 227.913775 181.72662 
L 227.978705 181.782373 
L 228.043636 184.863551 
L 228.108567 181.50099 
L 228.173498 182.456408 
L 228.238429 182.554512 
L 228.368291 185.551861 
L 228.498153 189.270037 
L 228.628015 189.085172 
L 228.692945 189.893395 
L 228.757876 189.766344 
L 228.952669 190.455765 
L 229.0176 191.63491 
L 229.082531 191.308242 
L 229.147462 189.706229 
L 229.212393 190.236797 
L 229.407185 192.478901 
L 229.601978 193.556214 
L 229.991564 196.279398 
L 230.056495 196.261792 
L 230.121425 197.743574 
L 230.186356 197.293424 
L 230.316218 195.530179 
L 230.381149 195.303756 
L 230.44608 196.088822 
L 230.511011 195.072733 
L 230.575942 195.375292 
L 230.705804 198.077935 
L 230.835665 197.292235 
L 231.030458 196.025852 
L 231.16032 196.62161 
L 231.225251 196.680377 
L 231.355113 194.839966 
L 231.420044 196.733434 
L 231.484975 196.167257 
L 231.549905 195.870567 
L 231.679767 197.411117 
L 231.809629 199.561303 
L 231.939491 195.409553 
L 232.004422 195.75002 
L 232.069353 195.33889 
L 232.134284 195.5301 
L 232.264145 193.134536 
L 232.394007 194.420825 
L 232.653731 190.576312 
L 233.108247 185.287133 
L 233.238109 184.648707 
L 233.367971 185.874881 
L 233.497833 184.089668 
L 233.627695 187.642329 
L 233.692625 187.538436 
L 233.757556 187.461111 
L 233.822487 188.178131 
L 233.887418 184.159617 
L 233.952349 184.481685 
L 234.01728 185.106867 
L 234.147142 183.057956 
L 234.212073 184.185471 
L 234.406865 186.629572 
L 234.471796 187.062829 
L 234.666589 183.450211 
L 234.796451 183.342908 
L 234.861382 182.082314 
L 234.926313 178.622364 
L 234.991244 179.097019 
L 235.056175 179.424718 
L 235.121105 179.247783 
L 235.250967 178.623474 
L 235.315898 180.240238 
L 235.380829 179.759634 
L 235.44576 180.084478 
L 235.510691 178.848549 
L 235.575622 178.94007 
L 235.640553 178.888044 
L 235.965207 174.052028 
L 236.030138 176.236475 
L 236.095069 175.999266 
L 236.16 176.285011 
L 236.224931 178.237722 
L 236.289862 177.768618 
L 236.419724 178.124709 
L 236.679447 181.219686 
L 236.744378 181.153623 
L 236.809309 180.996515 
L 236.939171 179.685402 
L 237.004102 180.169892 
L 237.069033 180.13 
L 237.198895 176.169698 
L 237.263825 176.446482 
L 237.328756 176.787107 
L 237.523549 180.698715 
L 237.58848 179.41536 
L 237.653411 179.438438 
L 237.848204 183.340846 
L 237.913135 182.645001 
L 237.978065 180.226676 
L 238.042996 182.065263 
L 238.107927 181.874608 
L 238.237789 179.030401 
L 238.432582 182.587504 
L 238.562444 181.365057 
L 238.627375 181.471091 
L 238.757236 181.66817 
L 238.822167 181.24443 
L 239.01696 185.644493 
L 239.081891 184.579709 
L 239.146822 183.979906 
L 239.211753 184.385406 
L 239.471476 186.899455 
L 239.536407 185.740772 
L 239.7312 188.225319 
L 239.990924 192.300934 
L 240.120785 189.089851 
L 240.250647 189.30755 
L 240.510371 192.87179 
L 240.575302 192.010272 
L 240.640233 191.79408 
L 240.770095 188.740422 
L 240.835025 189.860086 
L 240.899956 191.243685 
L 241.029818 189.152028 
L 241.15968 191.604138 
L 241.289542 190.298974 
L 241.354473 190.334583 
L 241.419404 192.230033 
L 241.614196 189.96033 
L 241.679127 189.557607 
L 241.744058 191.199194 
L 241.808989 189.170744 
L 241.938851 191.153671 
L 242.003782 190.412939 
L 242.198575 193.400692 
L 242.263505 194.028887 
L 242.328436 193.870827 
L 242.458298 192.972194 
L 242.523229 190.138138 
L 242.58816 190.15511 
L 242.653091 190.316183 
L 242.912815 185.053175 
L 242.977745 184.99195 
L 243.107607 182.500107 
L 243.3024 186.057209 
L 243.367331 187.386324 
L 243.432262 186.983283 
L 243.497193 187.522892 
L 243.562124 187.112555 
L 243.821847 191.633482 
L 243.951709 190.92471 
L 244.081571 191.715803 
L 244.146502 191.362647 
L 244.406225 188.533032 
L 244.471156 191.932789 
L 244.536087 190.660061 
L 244.601018 190.470437 
L 244.73088 193.73648 
L 244.795811 190.330935 
L 244.860742 191.663302 
L 245.120465 194.321532 
L 245.315258 196.09477 
L 245.380189 195.665478 
L 245.510051 193.467231 
L 245.574982 193.527902 
L 245.639913 193.281096 
L 245.704844 193.727757 
L 245.834705 192.695172 
L 245.899636 192.987024 
L 246.029498 196.224438 
L 246.094429 195.743358 
L 246.419084 191.756488 
L 246.613876 193.630367 
L 246.808669 192.337337 
L 246.8736 192.663132 
L 246.938531 190.791632 
L 247.198255 194.650817 
L 247.263185 195.305422 
L 247.393047 192.729433 
L 247.457978 193.417981 
L 247.58784 193.962348 
L 247.652771 193.040001 
L 247.847564 196.918855 
L 247.912495 195.650013 
L 247.977425 198.637608 
L 248.042356 197.552919 
L 248.172218 199.41966 
L 248.367011 197.062401 
L 248.431942 196.440154 
L 248.496873 197.378283 
L 248.756596 192.666225 
L 248.821527 192.826743 
L 248.886458 193.756625 
L 248.951389 193.744808 
L 249.146182 192.524661 
L 249.405905 195.799746 
L 249.470836 195.326359 
L 249.535767 195.481326 
L 249.600698 196.142354 
L 249.665629 193.527426 
L 249.73056 196.215952 
L 249.795491 195.901259 
L 249.860422 193.93586 
L 249.925353 195.298839 
L 249.990284 194.356983 
L 250.055215 195.421607 
L 250.120145 194.954882 
L 250.185076 194.826166 
L 250.4448 191.686777 
L 250.509731 193.500065 
L 250.574662 193.149842 
L 250.704524 193.647656 
L 250.834385 192.344236 
L 250.899316 193.476352 
L 250.964247 190.801784 
L 251.029178 192.372787 
L 251.094109 192.722692 
L 251.15904 190.546017 
L 251.223971 190.70939 
L 251.418764 189.106109 
L 251.613556 191.735789 
L 251.743418 191.342503 
L 251.87328 188.970414 
L 252.068073 191.33021 
L 252.133004 191.848643 
L 252.197935 191.796697 
L 252.262865 191.791383 
L 252.327796 192.225909 
L 252.392727 192.15715 
L 252.58752 188.810371 
L 252.652451 190.135204 
L 252.782313 188.172342 
L 252.847244 188.262514 
L 252.912175 188.893009 
L 252.977105 185.436865 
L 253.042036 187.173384 
L 253.106967 187.276404 
L 253.171898 188.473472 
L 253.236829 188.46459 
L 253.366691 187.631147 
L 253.431622 189.440945 
L 253.561484 186.9035 
L 253.626415 186.751705 
L 253.821207 184.297295 
L 253.951069 185.520614 
L 254.016 188.663176 
L 254.080931 186.876853 
L 254.145862 187.277832 
L 254.340655 182.828202 
L 254.405585 184.23607 
L 254.470516 182.802903 
L 254.535447 183.374393 
L 254.665309 182.951684 
L 254.73024 182.157577 
L 254.860102 186.406242 
L 254.989964 185.620066 
L 255.054895 186.310359 
L 255.119825 186.104556 
L 255.249687 186.506011 
L 255.379549 186.899297 
L 255.509411 190.44482 
L 255.704204 188.521057 
L 255.769135 189.300571 
L 255.834065 188.168773 
L 255.898996 188.964703 
L 255.963927 188.092875 
L 256.15872 191.369309 
L 256.288582 188.765166 
L 256.353513 189.477506 
L 256.418444 187.583959 
L 256.483375 188.542787 
L 256.743098 189.428177 
L 256.808029 188.144743 
L 256.937891 190.883708 
L 257.002822 188.727494 
L 257.067753 189.08192 
L 257.197615 191.030348 
L 257.262545 190.586781 
L 257.327476 192.655281 
L 257.392407 192.520061 
L 257.457338 192.376118 
L 257.5872 189.132201 
L 257.652131 189.588695 
L 257.717062 187.888103 
L 257.781993 189.485595 
L 257.976785 185.273254 
L 258.041716 187.927836 
L 258.106647 186.996607 
L 258.30144 188.953362 
L 258.496233 187.045461 
L 258.561164 187.920937 
L 258.626095 187.50132 
L 258.691025 187.567621 
L 258.755956 188.230395 
L 258.820887 186.335182 
L 258.885818 187.783259 
L 258.950749 187.47507 
L 259.145542 188.359111 
L 259.340335 191.295235 
L 259.405265 189.022915 
L 259.470196 190.564416 
L 259.664989 187.671039 
L 259.859782 189.403036 
L 259.989644 187.628371 
L 260.119505 189.222849 
L 260.249367 188.781344 
L 260.44416 192.337733 
L 260.509091 188.92957 
L 260.703884 194.542562 
L 260.833745 195.803553 
L 260.963607 193.499589 
L 261.028538 193.587779 
L 261.093469 193.900092 
L 261.1584 193.170304 
L 261.223331 193.83617 
L 261.353193 189.056462 
L 261.612916 191.814779 
L 261.677847 191.675515 
L 261.742778 190.919317 
L 261.807709 191.948254 
L 261.87264 191.900669 
L 262.067433 189.524694 
L 262.132364 189.900295 
L 262.197295 191.467095 
L 262.262225 191.363757 
L 262.327156 190.577819 
L 262.457018 193.575803 
L 262.521949 192.402448 
L 262.58688 192.067532 
L 262.716742 190.114901 
L 262.781673 190.313963 
L 262.846604 189.742631 
L 262.911535 192.410062 
L 262.976465 191.485732 
L 263.106327 193.171255 
L 263.171258 192.400307 
L 263.30112 195.459199 
L 263.366051 192.65996 
L 263.430982 192.943881 
L 263.495913 192.871949 
L 263.560844 192.956411 
L 263.820567 188.728922 
L 263.885498 188.642397 
L 263.950429 188.001275 
L 264.080291 189.492812 
L 264.145222 188.62725 
L 264.404945 191.143282 
L 264.469876 190.94081 
L 264.534807 191.366771 
L 264.599738 190.654985 
L 264.7296 191.792732 
L 264.794531 190.863168 
L 264.859462 191.182143 
L 264.924393 191.143361 
L 265.119185 194.60585 
L 265.184116 194.549145 
L 265.249047 193.882565 
L 265.313978 195.139907 
L 265.378909 195.051638 
L 265.573702 195.867078 
L 265.833425 191.294918 
L 266.093149 194.706253 
L 266.223011 193.104161 
L 266.287942 195.263072 
L 266.352873 194.47523 
L 266.417804 194.260545 
L 266.547665 195.46602 
L 266.612596 195.259106 
L 266.742458 195.688239 
L 266.87232 193.585955 
L 267.132044 187.573014 
L 267.391767 184.947062 
L 267.456698 184.94611 
L 267.716422 190.467661 
L 267.781353 190.015766 
L 267.846284 190.698842 
L 267.976145 189.347283 
L 268.041076 190.666168 
L 268.106007 190.041859 
L 268.170938 190.160899 
L 268.235869 190.027504 
L 268.3008 190.804797 
L 268.365731 190.743968 
L 268.430662 190.909245 
L 268.560524 195.020549 
L 269.01504 188.648663 
L 269.209833 189.755876 
L 269.404625 188.355066 
L 269.469556 189.899264 
L 269.534487 189.620973 
L 269.72928 186.97686 
L 269.794211 185.719914 
L 269.859142 186.44994 
L 270.44352 192.755763 
L 270.508451 191.802804 
L 270.573382 191.986242 
L 270.703244 194.126039 
L 270.833105 192.367791 
L 270.898036 191.969032 
L 270.962967 193.170462 
L 271.15776 187.510044 
L 271.287622 188.786737 
L 271.482415 187.817837 
L 271.677207 184.354793 
L 271.742138 184.180237 
L 271.807069 184.247093 
L 271.872 183.353773 
L 271.936931 183.587651 
L 272.066793 182.21333 
L 272.326516 187.940764 
L 272.391447 187.28148 
L 272.456378 185.15001 
L 272.521309 185.687636 
L 272.58624 185.859495 
L 272.651171 185.398401 
L 272.716102 185.687636 
L 272.781033 183.157408 
L 272.845964 184.341152 
L 272.910895 184.617142 
L 273.040756 182.165984 
L 273.235549 185.755444 
L 273.495273 186.808331 
L 273.625135 185.137162 
L 273.690065 185.82111 
L 273.754996 186.411079 
L 273.819927 186.302032 
L 273.884858 186.322889 
L 273.949789 187.07306 
L 274.144582 182.61883 
L 274.339375 180.64431 
L 274.469236 181.158857 
L 274.534167 180.525111 
L 274.599098 180.912528 
L 274.664029 180.5355 
L 274.72896 182.521678 
L 275.053615 176.283108 
L 275.4432 179.780809 
L 275.573062 179.475713 
L 275.702924 178.104565 
L 275.832785 179.932921 
L 276.027578 176.195552 
L 276.092509 177.908834 
L 276.15744 177.361691 
L 276.287302 175.207142 
L 276.352233 176.862529 
L 276.547025 174.58545 
L 276.611956 173.758907 
L 276.676887 173.93497 
L 276.741818 173.571107 
L 276.87168 170.029311 
L 276.936611 170.222821 
L 277.001542 172.454139 
L 277.066473 171.871308 
L 277.131404 171.614351 
L 277.196335 170.202518 
L 277.391127 175.512001 
L 277.456058 175.73081 
L 277.58592 178.321391 
L 277.650851 178.270476 
L 277.780713 176.552595 
L 278.494953 181.856209 
L 278.559884 181.45523 
L 278.689745 179.241042 
L 278.754676 179.309802 
L 278.819607 177.829605 
L 278.884538 178.728239 
L 279.144262 184.612384 
L 279.274124 183.501206 
L 279.533847 187.10391 
L 279.598778 183.943187 
L 279.663709 185.446224 
L 279.72864 183.793771 
L 279.793571 184.285002 
L 279.923433 183.84199 
L 280.118225 188.1702 
L 280.183156 187.635509 
L 280.248087 187.83013 
L 280.313018 187.450246 
L 280.377949 188.920608 
L 280.44288 188.031729 
L 280.507811 188.040374 
L 280.572742 188.209775 
L 280.767535 191.512697 
L 280.832465 191.968318 
L 281.027258 189.576958 
L 281.092189 190.009818 
L 281.15712 190.816773 
L 281.286982 189.224039 
L 281.351913 189.677678 
L 281.481775 188.612578 
L 281.546705 190.430148 
L 281.611636 190.393667 
L 281.676567 190.882043 
L 281.936291 186.232082 
L 282.001222 185.956488 
L 282.066153 186.055147 
L 282.131084 188.547308 
L 282.196015 188.392975 
L 282.260945 188.129516 
L 282.325876 187.302814 
L 282.390807 187.454925 
L 282.455738 187.681904 
L 282.650531 187.146181 
L 282.780393 187.724254 
L 282.845324 186.787473 
L 283.105047 189.286533 
L 283.169978 188.351815 
L 283.429702 192.432268 
L 283.494633 190.32229 
L 283.559564 190.721842 
L 283.689425 192.457567 
L 283.949149 187.410117 
L 284.01408 186.287915 
L 284.079011 187.063622 
L 284.208873 187.497355 
L 284.273804 191.685508 
L 284.338735 191.560202 
L 284.403665 192.586442 
L 284.468596 190.69456 
L 284.598458 194.623535 
L 284.663389 194.204633 
L 284.988044 190.076516 
L 285.052975 190.182947 
L 285.117905 190.717321 
L 285.182836 189.993084 
L 285.247767 193.656618 
L 285.312698 193.145639 
L 285.377629 192.575576 
L 285.507491 187.121516 
L 285.637353 188.003417 
L 285.767215 190.306191 
L 285.897076 186.702931 
L 286.091869 189.448559 
L 286.1568 188.754697 
L 286.221731 189.411364 
L 286.286662 189.210398 
L 286.481455 187.387673 
L 286.546385 185.740693 
L 286.611316 186.066647 
L 286.741178 186.523775 
L 286.806109 187.781117 
L 286.87104 187.160139 
L 287.130764 183.05867 
L 287.195695 183.337277 
L 287.260625 183.48931 
L 287.390487 186.170222 
L 287.520349 188.183683 
L 287.650211 186.576674 
L 287.715142 186.68358 
L 287.780073 188.420733 
L 287.845004 187.419316 
L 287.974865 187.673101 
L 288.104727 186.041903 
L 288.29952 187.346512 
L 288.559244 195.006115 
L 288.689105 192.977111 
L 288.818967 195.937741 
L 288.883898 195.4454 
L 288.948829 194.17973 
L 289.01376 195.946861 
L 289.078691 195.011825 
L 289.273484 197.4955 
L 289.338415 196.609793 
L 289.598138 193.821974 
L 289.663069 195.115084 
L 289.728 193.070931 
L 289.792931 194.808798 
L 289.857862 192.544726 
L 289.922793 193.657014 
L 289.987724 196.437061 
L 290.052655 195.810214 
L 290.182516 197.123627 
L 290.312378 195.115084 
L 290.377309 195.345314 
L 290.44224 196.108014 
L 290.507171 195.968116 
L 290.572102 195.465702 
L 290.637033 196.370998 
L 291.221411 186.863053 
L 291.286342 187.012944 
L 291.481135 186.383877 
L 291.546065 187.908247 
L 291.610996 187.126354 
L 291.675927 188.234995 
L 291.805789 184.390481 
L 291.87072 184.121074 
L 291.935651 184.212833 
L 292.000582 185.181733 
L 292.065513 184.681382 
L 292.195375 183.10784 
L 292.260305 182.880941 
L 292.390167 184.043511 
L 292.455098 181.768256 
L 292.520029 182.456329 
L 292.58496 181.263543 
L 292.649891 181.314459 
L 292.714822 181.328496 
L 292.779753 181.019831 
L 292.909615 184.084672 
L 292.974545 183.950404 
L 293.104407 183.178821 
L 293.234269 185.117494 
L 293.2992 184.79376 
L 293.364131 185.421162 
L 293.429062 187.424075 
L 293.493993 186.699759 
L 293.558924 186.633616 
L 293.623855 187.547874 
L 293.688785 187.052995 
L 293.818647 185.567088 
L 293.948509 183.693844 
L 294.078371 185.941261 
L 294.273164 184.592636 
L 294.338095 184.925966 
L 294.467956 185.628393 
L 294.532887 183.93819 
L 294.72768 188.919022 
L 294.987404 182.033699 
L 295.117265 182.058046 
L 295.182196 181.966446 
L 295.571782 177.798993 
L 295.636713 179.790802 
L 295.701644 178.756473 
L 295.766575 177.537436 
L 295.831505 177.780197 
L 296.026298 180.703394 
L 296.091229 180.704266 
L 296.15616 179.964882 
L 296.286022 182.051702 
L 296.415884 181.989366 
L 296.610676 177.790983 
L 296.675607 177.825085 
L 296.935331 179.990895 
L 297.065193 177.816123 
L 297.130124 178.156828 
L 297.195055 179.010653 
L 297.259985 178.103613 
L 297.389847 180.663661 
L 297.454778 179.36262 
L 297.519709 180.417332 
L 297.58464 180.047124 
L 297.649571 180.66144 
L 297.714502 180.650416 
L 297.779433 180.448975 
L 297.909295 181.290508 
L 297.974225 182.110627 
L 298.169018 180.946789 
L 298.233949 180.358247 
L 298.29888 180.48165 
L 298.363811 180.46333 
L 298.558604 178.777331 
L 298.623535 179.983757 
L 298.688465 179.734256 
L 298.753396 178.882017 
L 298.818327 179.185685 
L 298.883258 179.029925 
L 299.01312 182.534367 
L 299.078051 182.40232 
L 299.207913 181.214135 
L 299.337775 181.727968 
L 299.402705 181.329289 
L 299.597498 183.219267 
L 299.662429 183.353932 
L 299.922153 179.288547 
L 299.987084 180.030945 
L 300.052015 179.481185 
L 300.116945 179.739331 
L 300.246807 182.844698 
L 300.376669 181.882221 
L 300.4416 183.134646 
L 300.571462 181.031093 
L 300.701324 182.786248 
L 300.766255 182.553877 
L 300.831185 182.750005 
L 300.961047 182.320316 
L 301.025978 182.354736 
L 301.090909 182.496617 
L 301.15584 182.018789 
L 301.220771 178.385948 
L 301.285702 179.758762 
L 301.350633 181.657543 
L 301.415564 180.457144 
L 301.610356 181.503528 
L 301.675287 181.171864 
L 301.740218 180.07734 
L 301.87008 182.652377 
L 301.935011 182.944388 
L 301.999942 183.874269 
L 302.064873 183.868955 
L 302.129804 181.768019 
L 302.194735 182.527547 
L 302.324596 184.637445 
L 302.454458 182.335702 
L 302.519389 184.892419 
L 302.58432 184.296978 
L 302.649251 184.18452 
L 302.779113 181.133479 
L 302.973905 178.318695 
L 303.038836 178.492141 
L 303.168698 177.426644 
L 303.29856 178.236929 
L 303.428422 176.54173 
L 303.493353 176.854995 
L 303.558284 177.205455 
L 303.623215 176.801779 
L 303.688145 177.039068 
L 303.818007 176.337354 
L 303.882938 174.734549 
L 303.947869 175.132593 
L 304.0128 174.727173 
L 304.077731 175.502325 
L 304.142662 174.292171 
L 304.207593 174.525335 
L 304.402385 176.563222 
L 304.532247 176.67687 
L 304.856902 179.040711 
L 304.986764 178.876148 
L 305.051695 178.624664 
L 305.116625 177.272946 
L 305.246487 178.885982 
L 305.311418 178.409106 
L 305.376349 178.479293 
L 305.44128 175.445065 
L 305.506211 175.66665 
L 305.571142 175.113797 
L 305.765935 180.973991 
L 305.830865 182.061853 
L 306.15552 178.329084 
L 306.350313 180.064254 
L 306.610036 178.519422 
L 306.739898 175.633262 
L 306.86976 176.530944 
L 307.259345 172.539157 
L 307.324276 174.266158 
L 307.389207 174.010074 
L 307.519069 174.044494 
L 307.648931 171.502052 
L 307.713862 173.889209 
L 307.778793 172.582459 
L 308.038516 170.678284 
L 308.168378 170.196015 
L 308.233309 171.069429 
L 308.363171 168.182079 
L 308.428102 170.18634 
L 308.493033 169.430221 
L 308.557964 170.11298 
L 308.622895 169.689874 
L 308.947549 167.421837 
L 309.01248 165.489032 
L 309.077411 165.555651 
L 309.337135 168.143932 
L 309.402065 169.820414 
L 309.466996 169.412456 
L 309.531927 169.926449 
L 309.596858 171.607848 
L 309.661789 171.371512 
L 309.856582 170.288012 
L 309.986444 171.036041 
L 310.181236 168.959848 
L 310.246167 170.165878 
L 310.311098 169.547121 
L 310.505891 168.78902 
L 310.570822 168.812098 
L 310.700684 169.429508 
L 310.765615 168.77871 
L 310.830545 168.909329 
L 310.895476 169.06842 
L 311.1552 167.016179 
L 311.349993 169.370027 
L 311.479855 168.462035 
L 311.609716 169.470113 
L 311.86944 167.550553 
L 311.934371 167.679983 
L 312.453818 160.301366 
L 312.713542 164.203378 
L 312.778473 164.514105 
L 312.843404 164.316549 
L 312.908335 164.476354 
L 313.103127 166.141892 
L 313.29792 173.356263 
L 313.492713 170.323224 
L 314.142022 180.479826 
L 314.206953 178.623157 
L 314.271884 179.68564 
L 314.336815 179.314084 
L 314.401745 179.707846 
L 314.466676 179.23438 
L 314.661469 181.226586 
L 314.791331 179.869237 
L 314.856262 182.122523 
L 314.921193 180.632969 
L 314.986124 181.01991 
L 315.051055 180.795946 
L 315.115985 180.753913 
L 315.245847 181.295028 
L 315.310778 181.8137 
L 315.44064 180.105256 
L 315.570502 180.68317 
L 315.700364 180.259034 
L 315.765295 180.436207 
L 315.830225 180.304398 
L 315.895156 178.039691 
L 315.960087 178.179827 
L 316.025018 178.425602 
L 316.089949 176.843812 
L 316.15488 177.456939 
L 316.284742 176.25194 
L 316.479535 179.692698 
L 316.544465 179.621004 
L 316.609396 178.684144 
L 316.674327 179.104474 
L 316.739258 178.735218 
L 316.86912 179.747817 
L 316.934051 179.156421 
L 316.998982 180.161882 
L 317.063913 178.686603 
L 317.193775 180.51718 
L 317.388567 178.290541 
L 317.453498 177.954673 
L 317.58336 179.417105 
L 317.648291 179.384351 
L 317.843084 177.14526 
L 317.908015 177.319658 
L 318.102807 178.606502 
L 318.167738 177.881393 
L 318.2976 181.490283 
L 318.362531 181.045209 
L 318.427462 181.11048 
L 318.492393 181.380601 
L 318.557324 181.210011 
L 318.687185 179.931969 
L 318.752116 180.184009 
L 318.817047 178.852752 
L 318.946909 180.741065 
L 319.01184 180.567144 
L 319.466356 176.060967 
L 319.596218 176.506597 
L 319.791011 170.039779 
L 319.920873 170.340276 
L 319.985804 174.056548 
L 320.050735 173.29583 
L 320.115665 171.941416 
L 320.180596 172.882955 
L 320.310458 170.296974 
L 320.44032 167.563084 
L 320.505251 168.014819 
L 320.570182 168.64468 
L 320.700044 166.999127 
L 320.829905 166.832344 
L 321.024698 170.565588 
L 321.089629 169.839369 
L 321.15456 170.311963 
L 321.219491 170.909862 
L 321.414284 174.135221 
L 321.479215 175.690443 
L 321.544145 175.007049 
L 321.674007 176.084839 
L 321.803869 175.21547 
L 321.8688 175.279709 
L 321.933731 176.352026 
L 321.998662 175.358303 
L 322.063593 176.28176 
L 322.128524 175.723435 
L 322.258385 173.639311 
L 322.58304 177.823261 
L 322.647971 177.438698 
L 322.712902 177.719923 
L 322.777833 177.480493 
L 322.972625 174.003412 
L 323.167418 177.696844 
L 323.362211 176.257254 
L 323.427142 176.750626 
L 323.557004 175.686081 
L 323.621935 175.811228 
L 323.686865 175.210949 
L 323.881658 177.470342 
L 323.946589 177.24836 
L 324.141382 175.217849 
L 324.206313 175.352672 
L 324.336175 173.92807 
L 324.466036 179.028418 
L 324.530967 178.963862 
L 324.595898 179.30195 
L 324.660829 182.22142 
L 324.72576 181.965018 
L 324.790691 180.730676 
L 324.920553 182.87539 
L 324.985484 182.539998 
L 325.050415 182.523423 
L 325.180276 182.19961 
L 325.245207 182.431743 
L 325.310138 183.128143 
L 325.375069 183.107761 
L 325.504931 181.356095 
L 325.569862 181.486239 
L 325.634793 181.68879 
L 325.699724 180.324462 
L 325.764655 180.690467 
L 325.959447 182.570135 
L 326.15424 180.084636 
L 326.219171 180.1438 
L 326.349033 181.783246 
L 326.413964 182.038061 
L 326.478895 179.742662 
L 326.543825 180.900949 
L 326.608756 181.592749 
L 326.803549 179.902308 
L 326.86848 179.945055 
L 326.933411 179.826014 
L 326.998342 181.378777 
L 327.063273 181.163616 
L 327.128204 181.029824 
L 327.322996 182.623985 
L 327.517789 177.638791 
L 327.647651 178.790892 
L 327.712582 178.268652 
L 327.972305 172.817209 
L 328.037236 173.949087 
L 328.167098 173.00604 
L 328.232029 173.336198 
L 328.29696 174.657937 
L 328.361891 174.461334 
L 328.556684 172.668666 
L 328.751476 176.079367 
L 328.816407 175.741992 
L 328.881338 176.34933 
L 328.946269 176.016317 
L 329.0112 175.686557 
L 329.141062 173.44017 
L 329.205993 173.801495 
L 329.270924 173.988344 
L 329.400785 177.68479 
L 329.465716 177.519116 
L 329.530647 175.566723 
L 329.595578 176.565284 
L 329.660509 176.094832 
L 329.72544 176.242344 
L 329.855302 178.61816 
L 330.050095 177.772504 
L 330.115025 175.874991 
L 330.179956 176.468767 
L 330.244887 176.145747 
L 330.374749 174.34388 
L 330.43968 175.31627 
L 330.504611 175.181526 
L 330.634473 175.494949 
L 330.829265 177.109969 
L 331.024058 171.286891 
L 331.088989 171.294266 
L 331.348713 167.877538 
L 331.413644 169.00315 
L 331.478575 168.657448 
L 331.608436 167.947884 
L 331.86816 171.149133 
L 331.933091 172.810785 
L 331.998022 172.266973 
L 332.062953 172.146426 
L 332.127884 171.21821 
L 332.192815 171.58937 
L 332.257745 171.780104 
L 332.517469 175.631041 
L 332.712262 179.247862 
L 333.036916 175.1433 
L 333.166778 178.087672 
L 333.231709 177.60342 
L 333.361571 176.06414 
L 333.426502 176.499935 
L 333.621295 173.558655 
L 333.686225 173.949087 
L 333.881018 175.467033 
L 334.075811 172.516316 
L 334.140742 172.650029 
L 334.400465 175.128945 
L 334.465396 174.599884 
L 334.660189 175.475757 
L 334.790051 173.292658 
L 334.854982 173.781668 
L 334.919913 174.294392 
L 335.049775 177.17048 
L 335.244567 175.291922 
L 335.374429 174.409467 
L 335.43936 173.387827 
L 335.569222 174.954786 
L 335.634153 174.805767 
L 335.699084 174.972154 
L 335.764015 174.694181 
L 335.893876 171.844264 
L 336.023738 174.971202 
L 336.1536 172.642415 
L 336.218531 173.497747 
L 336.348393 172.314796 
L 336.543185 175.707256 
L 336.608116 175.431265 
L 336.673047 174.631052 
L 336.737978 174.826228 
L 336.802909 174.850576 
L 336.86784 175.714076 
L 336.932771 175.056617 
L 336.997702 175.561488 
L 337.192495 179.104633 
L 337.387287 182.011017 
L 337.517149 183.699871 
L 337.647011 181.461574 
L 337.776873 181.729396 
L 337.841804 182.265673 
L 337.906735 181.240147 
L 338.101527 184.672578 
L 338.231389 182.017203 
L 338.426182 176.821765 
L 338.491113 177.690896 
L 338.620975 179.230097 
L 338.685905 178.83118 
L 339.140422 171.953946 
L 339.205353 171.628151 
L 339.270284 170.604687 
L 339.335215 172.994699 
L 339.400145 172.937519 
L 339.465076 173.379976 
L 339.530007 173.31534 
L 339.659869 171.171657 
L 339.7248 171.125262 
L 340.049455 176.819861 
L 340.114385 176.95865 
L 340.244247 178.333208 
L 340.309178 178.065307 
L 340.374109 178.595161 
L 340.568902 183.066442 
L 340.633833 182.132278 
L 341.023418 178.105675 
L 341.088349 178.440511 
L 341.283142 180.196857 
L 341.672727 175.459102 
L 341.802589 178.111226 
L 341.86752 177.367718 
L 341.932451 178.116699 
L 341.997382 177.878221 
L 342.062313 177.597472 
L 342.127244 177.717147 
L 342.386967 180.168068 
L 342.516829 177.619202 
L 342.58176 177.910499 
L 342.646691 180.291946 
L 342.711622 179.980981 
L 342.776553 178.561535 
L 342.841484 179.598005 
L 342.906415 179.159117 
L 342.971345 179.044359 
L 343.036276 178.082121 
L 343.231069 182.114751 
L 343.296 182.259408 
L 343.425862 181.498928 
L 343.490793 181.020783 
L 343.750516 174.971044 
L 343.815447 175.564185 
L 343.945309 174.177096 
L 344.01024 174.521925 
L 344.140102 180.668261 
L 344.269964 180.186784 
L 344.334895 180.385212 
L 344.594618 177.518402 
L 344.919273 182.926305 
L 344.984204 182.514699 
L 345.049135 181.58228 
L 345.243927 183.927563 
L 345.373789 185.008763 
L 345.503651 183.341401 
L 345.568582 183.407306 
L 345.633513 183.112123 
L 345.698444 182.078508 
L 345.763375 184.827466 
L 345.828305 183.62096 
L 345.893236 183.613664 
L 346.023098 184.650531 
L 346.088029 186.935778 
L 346.15296 186.35263 
L 346.217891 186.385939 
L 346.282822 185.783836 
L 346.412684 189.968975 
L 346.477615 188.973507 
L 346.542545 188.789275 
L 346.607476 190.385736 
L 346.672407 189.47013 
L 346.737338 187.446122 
L 346.802269 188.789434 
L 346.932131 189.294306 
L 346.997062 188.863745 
L 347.126924 187.192973 
L 347.386647 189.39915 
L 347.451578 189.152028 
L 347.516509 189.410095 
L 347.646371 187.724175 
L 347.971025 193.66661 
L 348.035956 193.215985 
L 348.100887 193.269121 
L 348.165818 193.245725 
L 348.230749 191.149785 
L 348.29568 191.249158 
L 348.360611 191.194118 
L 348.490473 190.085398 
L 348.620335 191.40698 
L 348.815127 189.250449 
L 348.880058 188.861921 
L 348.944989 187.303051 
L 349.00992 188.836939 
L 349.074851 188.371007 
L 349.204713 186.643451 
L 349.464436 188.477596 
L 349.529367 188.439053 
L 349.789091 186.314879 
L 350.243607 195.003101 
L 350.308538 194.873434 
L 350.373469 195.586171 
L 350.568262 193.173555 
L 350.763055 189.948434 
L 350.827985 189.532863 
L 350.892916 190.523811 
L 350.957847 189.92258 
L 351.022778 190.661489 
L 351.282502 187.346115 
L 351.477295 190.785684 
L 351.542225 192.366204 
L 351.607156 190.473688 
L 351.672087 190.92709 
L 351.86688 194.911263 
L 352.061673 197.402552 
L 352.126604 198.392468 
L 352.191535 198.375655 
L 352.321396 194.67572 
L 352.386327 195.427397 
L 352.451258 194.931249 
L 352.516189 195.190188 
L 352.58112 193.203296 
L 352.646051 193.457239 
L 352.775913 192.135737 
L 352.970705 186.53694 
L 353.035636 186.237713 
L 353.425222 182.042819 
L 353.490153 183.589713 
L 353.555084 183.177393 
L 353.749876 184.594619 
L 353.879738 181.348799 
L 353.944669 182.547136 
L 354.0096 182.517713 
L 354.139462 182.273921 
L 354.464116 176.764267 
L 354.593978 177.702872 
L 354.658909 177.960463 
L 354.72384 178.813971 
L 354.788771 177.88631 
L 354.853702 178.464621 
L 354.918633 181.244271 
L 354.983564 180.447072 
L 355.243287 183.778941 
L 355.308218 183.466152 
L 355.43808 184.553696 
L 355.503011 183.543001 
L 355.567942 183.946835 
L 355.697804 182.803379 
L 355.957527 186.664388 
L 356.022458 186.161895 
L 356.217251 187.330413 
L 356.282182 187.845912 
L 356.86656 179.009702 
L 356.931491 179.044042 
L 356.996422 177.717623 
L 357.061353 178.363424 
L 357.126284 177.33885 
L 357.256145 180.294484 
L 357.321076 179.969958 
L 357.515869 178.127881 
L 357.5808 178.261356 
L 357.645731 177.102831 
L 357.710662 177.781386 
L 357.775593 177.481049 
L 357.840524 174.871513 
L 357.905455 175.569657 
L 357.970385 175.452758 
L 358.424902 166.449843 
L 358.489833 167.354505 
L 358.619695 165.821807 
L 358.749556 167.942491 
L 358.814487 168.225302 
L 359.00928 165.15491 
L 359.074211 166.121669 
L 359.204073 164.801991 
L 359.269004 165.272285 
L 359.528727 162.650298 
L 359.593658 163.078241 
L 359.72352 163.663769 
L 359.788451 163.631967 
L 359.918313 164.587702 
L 359.983244 163.511657 
L 360.048175 164.333045 
L 360.242967 162.902972 
L 360.307898 162.987038 
L 360.372829 163.997099 
L 360.43776 163.20093 
L 360.502691 163.82397 
L 360.567622 163.623481 
L 360.632553 163.149856 
L 360.827345 164.86742 
L 361.152 168.244732 
L 361.216931 167.728519 
L 361.411724 164.562086 
L 361.476655 166.188208 
L 361.671447 162.436722 
L 361.801309 163.231384 
L 361.86624 161.807496 
L 361.931171 162.343853 
L 362.190895 165.421542 
L 362.450618 159.987388 
L 362.515549 160.782843 
L 362.775273 158.243177 
L 362.840204 158.048001 
L 362.905135 158.96781 
L 362.970065 157.515926 
L 363.034996 158.097806 
L 363.099927 160.135059 
L 363.164858 159.765961 
L 363.229789 160.211194 
L 363.359651 165.389025 
L 363.424582 164.876699 
L 363.619375 166.658184 
L 363.684305 164.20536 
L 363.749236 165.512269 
L 363.879098 169.130597 
L 363.944029 168.135288 
L 364.138822 170.011863 
L 364.203753 170.002346 
L 364.268684 172.311386 
L 364.333615 172.135085 
L 364.463476 170.622769 
L 364.528407 170.634348 
L 364.658269 172.996365 
L 364.788131 171.817696 
L 365.047855 174.782292 
L 365.112785 174.750727 
L 365.177716 173.501316 
L 365.372509 177.339485 
L 365.43744 177.270566 
L 365.502371 178.864172 
L 365.567302 178.434008 
L 365.632233 178.383965 
L 365.827025 181.246254 
L 365.891956 181.123883 
L 366.021818 183.140119 
L 366.086749 182.79172 
L 366.15168 181.851371 
L 366.216611 182.175025 
L 366.346473 181.945588 
L 366.411404 181.075188 
L 366.606196 182.702262 
L 366.671127 182.087152 
L 366.736058 182.111658 
L 366.800989 182.976586 
L 366.86592 181.698149 
L 366.930851 182.511765 
L 367.125644 183.46639 
L 367.255505 180.930451 
L 367.320436 182.090245 
L 367.58016 178.988289 
L 367.904815 182.321823 
L 367.969745 181.238958 
L 368.164538 183.159311 
L 368.229469 182.930826 
L 368.2944 181.974615 
L 368.359331 183.422929 
L 368.424262 182.954856 
L 368.489193 180.96725 
L 368.554124 181.392339 
L 368.619055 181.111352 
L 368.683985 182.236012 
L 368.748916 182.155039 
L 368.813847 181.147675 
L 368.943709 182.680531 
L 369.073571 181.159095 
L 369.138502 181.825992 
L 369.203433 181.612417 
L 369.333295 179.790802 
L 369.398225 178.593416 
L 369.463156 180.458254 
L 369.528087 179.994226 
L 369.852742 172.354608 
L 369.982604 171.707934 
L 370.047535 172.773669 
L 370.112465 170.589063 
L 370.177396 170.707866 
L 370.242327 170.486519 
L 370.372189 167.281462 
L 370.43712 168.954693 
L 370.502051 168.435229 
L 370.566982 168.229108 
L 370.696844 170.061985 
L 370.826705 167.092393 
L 371.021498 169.914711 
L 371.15136 167.396696 
L 371.281222 168.283117 
L 371.411084 168.032743 
L 371.540945 166.103666 
L 371.605876 166.38378 
L 371.670807 167.42953 
L 371.8656 164.384278 
L 371.930531 165.188139 
L 372.190255 160.756988 
L 372.255185 161.644916 
L 372.385047 163.100606 
L 372.449978 163.288168 
L 372.514909 163.035336 
L 372.57984 163.406575 
L 372.709702 167.904344 
L 372.774633 167.779197 
L 373.034356 162.689714 
L 373.099287 163.101002 
L 373.164218 164.125577 
L 373.229149 163.012495 
L 373.29408 163.471369 
L 373.359011 163.276669 
L 373.423942 163.655442 
L 373.488873 163.523315 
L 373.553804 163.660676 
L 373.683665 164.435273 
L 373.748596 164.314884 
L 373.813527 163.268183 
L 374.00832 164.691198 
L 374.073251 165.225176 
L 374.203113 163.357007 
L 374.332975 165.331765 
L 374.462836 164.365482 
L 374.527767 164.924125 
L 374.852422 161.635161 
L 374.982284 161.748333 
L 375.047215 163.562969 
L 375.112145 162.928667 
L 375.242007 162.232664 
L 375.371869 163.532039 
L 375.4368 162.725323 
L 375.566662 164.702381 
L 375.631593 163.756876 
L 375.696524 164.281813 
L 375.891316 167.408354 
L 375.956247 165.383077 
L 376.021178 165.586105 
L 376.215971 164.446693 
L 376.280902 164.38753 
L 376.410764 165.557554 
L 376.540625 163.226864 
L 376.800349 167.558246 
L 376.86528 167.31604 
L 376.930211 166.374501 
L 377.060073 168.980072 
L 377.189935 166.884211 
L 377.254865 167.817344 
L 377.319796 167.394396 
L 377.384727 165.446365 
L 377.449658 166.215965 
L 377.57952 167.32064 
L 377.644451 166.972639 
L 377.774313 166.921882 
L 377.839244 166.42042 
L 377.904175 166.56476 
L 378.163898 167.536515 
L 378.228829 166.405352 
L 378.683345 173.596723 
L 378.813207 171.463508 
L 378.878138 171.486111 
L 378.943069 171.968142 
L 379.072931 175.784105 
L 379.137862 172.088531 
L 379.202793 173.625988 
L 379.267724 173.571424 
L 379.527447 178.576445 
L 379.592378 178.035805 
L 379.657309 178.159842 
L 379.72224 178.543056 
L 379.787171 177.368828 
L 379.852102 179.0626 
L 379.917033 178.085055 
L 379.981964 177.223458 
L 380.046895 178.15207 
L 380.111825 178.027953 
L 380.241687 178.964021 
L 380.306618 179.880181 
L 380.43648 177.582721 
L 380.501411 179.288547 
L 380.566342 179.015808 
L 380.631273 179.401481 
L 380.696204 179.227084 
L 381.020858 176.229972 
L 381.15072 177.998927 
L 381.215651 177.32172 
L 381.475375 182.458629 
L 381.605236 180.460554 
L 381.670167 180.36372 
L 381.735098 181.425965 
L 381.86496 178.84617 
L 381.929891 180.540655 
L 381.994822 179.725214 
L 382.059753 180.103115 
L 382.189615 185.237565 
L 382.319476 183.400565 
L 382.449338 186.852664 
L 382.514269 186.58167 
L 382.773993 189.741045 
L 382.838924 188.873024 
L 382.903855 188.799268 
L 382.968785 188.906333 
L 383.033716 189.5653 
L 383.098647 189.002612 
L 383.163578 191.003383 
L 383.29344 188.241418 
L 383.423302 189.900453 
L 383.553164 186.371822 
L 383.683025 188.977868 
L 384.072611 186.389032 
L 384.202473 188.312875 
L 384.267404 188.220085 
L 384.332335 188.355304 
L 384.462196 187.634319 
L 384.656989 185.264768 
L 384.72192 186.518224 
L 384.786851 186.179105 
L 384.851782 186.826968 
L 384.981644 183.69543 
L 385.046575 183.759114 
L 385.111505 182.606775 
L 385.176436 183.066918 
L 385.306298 183.393268 
L 385.371229 184.288333 
L 385.43616 183.655776 
L 385.695884 176.158436 
L 385.760815 176.445213 
L 385.825745 175.343948 
L 385.955607 178.510699 
L 386.1504 176.379784 
L 386.215331 176.315228 
L 386.410124 175.151865 
L 386.669847 172.130723 
L 386.734778 172.415834 
L 386.799709 172.349612 
L 386.929571 173.26498 
L 386.994502 171.348671 
L 387.189295 174.632956 
L 387.254225 174.646041 
L 387.319156 174.510346 
L 387.384087 174.87294 
L 387.643811 172.495934 
L 387.708742 172.487607 
L 387.773673 173.153473 
L 387.838604 172.311465 
L 387.903535 172.343029 
L 387.968465 172.810627 
L 388.29312 178.245098 
L 388.358051 178.123916 
L 388.422982 176.583446 
L 388.552844 180.727345 
L 388.682705 175.226335 
L 388.747636 175.259406 
L 388.812567 175.134735 
L 388.877498 172.043247 
L 388.942429 172.580635 
L 389.00736 172.475076 
L 389.072291 171.957753 
L 389.137222 173.12754 
L 389.202153 172.888427 
L 389.267084 171.741164 
L 389.526807 175.175261 
L 389.591738 175.107215 
L 389.786531 172.004545 
L 389.916393 170.780432 
L 390.046255 171.585008 
L 390.111185 169.638166 
L 390.176116 171.272932 
L 390.241047 170.672891 
L 390.370909 172.036585 
L 390.43584 171.807307 
L 390.500771 171.991617 
L 390.565702 172.516713 
L 390.760495 170.701918 
L 390.890356 170.693115 
L 390.955287 170.743396 
L 391.020218 171.397287 
L 391.085149 173.997861 
L 391.15008 173.674762 
L 391.279942 171.826103 
L 391.344873 172.181797 
L 391.409804 171.917703 
L 391.474735 170.980525 
L 391.539665 171.011376 
L 391.604596 170.925883 
L 391.669527 171.046509 
L 391.799389 172.850994 
L 391.86432 171.256516 
L 391.994182 172.932681 
L 392.059113 172.675962 
L 392.318836 176.112438 
L 392.513629 173.38061 
L 392.773353 175.45022 
L 392.838284 173.737177 
L 392.903215 175.265671 
L 392.968145 174.976516 
L 393.033076 175.180257 
L 393.227869 176.455205 
L 393.357731 174.954072 
L 393.422662 175.293984 
L 393.487593 174.382264 
L 393.682385 169.808439 
L 393.812247 168.75349 
L 393.942109 170.055482 
L 394.071971 169.33648 
L 394.136902 168.796713 
L 394.201833 169.219422 
L 394.266764 166.129837 
L 394.331695 166.733447 
L 394.396625 168.455769 
L 394.461556 168.04456 
L 394.72128 164.260638 
L 394.786211 163.043425 
L 394.851142 163.523791 
L 394.916073 164.922301 
L 395.240727 160.769519 
L 396.238785 346.6 
L 396.238785 346.6 
" clip-path="url(#pdd256c286a)" style="fill: none; stroke: #1f77b4; stroke-width: 1.5; stroke-linecap: square"/>
   </g>
   <g id="patch_3">
    <path d="M 57.6 307.584 
L 57.6 41.472 
" style="fill: none; stroke: #000000; stroke-width: 0.8; stroke-linejoin: miter; stroke-linecap: square"/>
   </g>
   <g id="patch_4">
    <path d="M 414.72 307.584 
L 414.72 41.472 
" style="fill: none; stroke: #000000; stroke-width: 0.8; stroke-linejoin: miter; stroke-linecap: square"/>
   </g>
   <g id="patch_5">
    <path d="M 57.6 307.584 
L 414.72 307.584 
" style="fill: none; stroke: #000000; stroke-width: 0.8; stroke-linejoin: miter; stroke-linecap: square"/>
   </g>
   <g id="patch_6">
    <path d="M 57.6 41.472 
L 414.72 41.472 
" style="fill: none; stroke: #000000; stroke-width: 0.8; stroke-linejoin: miter; stroke-linecap: square"/>
   </g>
  </g>
 </g>
 <defs>
  <clipPath id="pdd256c286a">
   <rect x="57.6" y="41.472" width="357.12" height="266.112"/>
  </clipPath>
 </defs>
</svg>
