<?xml version="1.0" encoding="utf-8" standalone="no"?>
<!DOCTYPE svg PUBLIC "-//W3C//DTD SVG 1.1//EN"
  "http://www.w3.org/Graphics/SVG/1.1/DTD/svg11.dtd">
<svg xmlns:xlink="http://www.w3.org/1999/xlink" width="460.8pt" height="345.6pt" viewBox="0 0 460.8 345.6" xmlns="http://www.w3.org/2000/svg" version="1.1">
 <metadata>
  <rdf:RDF xmlns:dc="http://purl.org/dc/elements/1.1/" xmlns:cc="http://creativecommons.org/ns#" xmlns:rdf="http://www.w3.org/1999/02/22-rdf-syntax-ns#">
   <cc:Work>
    <dc:type rdf:resource="http://purl.org/dc/dcmitype/StillImage"/>
    <dc:date>2025-05-20T14:06:54.952985</dc:date>
    <dc:format>image/svg+xml</dc:format>
    <dc:creator>
     <cc:Agent>
      <dc:title>Matplotlib v3.7.5, https://matplotlib.org/</dc:title>
     </cc:Agent>
    </dc:creator>
   </cc:Work>
  </rdf:RDF>
 </metadata>
 <defs>
  <style type="text/css">*{stroke-linejoin: round; stroke-linecap: butt}</style>
 </defs>
 <g id="figure_1">
  <g id="patch_1">
   <path d="M 0 345.6 
L 460.8 345.6 
L 460.8 0 
L 0 0 
z
" style="fill: #ffffff"/>
  </g>
  <g id="axes_1">
   <g id="patch_2">
    <path d="M 57.6 307.584 
L 414.72 307.584 
L 414.72 41.472 
L 57.6 41.472 
z
" style="fill: #ffffff"/>
   </g>
   <g id="matplotlib.axis_1">
    <g id="xtick_1">
     <g id="line2d_1">
      <defs>
       <path id="m1b28e932b3" d="M 0 0 
L 0 3.5 
" style="stroke: #000000; stroke-width: 0.8"/>
      </defs>
      <g>
       <use xlink:href="#m1b28e932b3" x="73.832727" y="307.584" style="stroke: #000000; stroke-width: 0.8"/>
      </g>
     </g>
     <g id="text_1">
      <!-- 0 -->
      <g transform="translate(70.651477 322.182437) scale(0.1 -0.1)">
       <defs>
        <path id="DejaVuSans-30" d="M 2034 4250 
Q 1547 4250 1301 3770 
Q 1056 3291 1056 2328 
Q 1056 1369 1301 889 
Q 1547 409 2034 409 
Q 2525 409 2770 889 
Q 3016 1369 3016 2328 
Q 3016 3291 2770 3770 
Q 2525 4250 2034 4250 
z
M 2034 4750 
Q 2819 4750 3233 4129 
Q 3647 3509 3647 2328 
Q 3647 1150 3233 529 
Q 2819 -91 2034 -91 
Q 1250 -91 836 529 
Q 422 1150 422 2328 
Q 422 3509 836 4129 
Q 1250 4750 2034 4750 
z
" transform="scale(0.015625)"/>
       </defs>
       <use xlink:href="#DejaVuSans-30"/>
      </g>
     </g>
    </g>
    <g id="xtick_2">
     <g id="line2d_2">
      <g>
       <use xlink:href="#m1b28e932b3" x="138.763636" y="307.584" style="stroke: #000000; stroke-width: 0.8"/>
      </g>
     </g>
     <g id="text_2">
      <!-- 1000 -->
      <g transform="translate(126.038636 322.182437) scale(0.1 -0.1)">
       <defs>
        <path id="DejaVuSans-31" d="M 794 531 
L 1825 531 
L 1825 4091 
L 703 3866 
L 703 4441 
L 1819 4666 
L 2450 4666 
L 2450 531 
L 3481 531 
L 3481 0 
L 794 0 
L 794 531 
z
" transform="scale(0.015625)"/>
       </defs>
       <use xlink:href="#DejaVuSans-31"/>
       <use xlink:href="#DejaVuSans-30" x="63.623047"/>
       <use xlink:href="#DejaVuSans-30" x="127.246094"/>
       <use xlink:href="#DejaVuSans-30" x="190.869141"/>
      </g>
     </g>
    </g>
    <g id="xtick_3">
     <g id="line2d_3">
      <g>
       <use xlink:href="#m1b28e932b3" x="203.694545" y="307.584" style="stroke: #000000; stroke-width: 0.8"/>
      </g>
     </g>
     <g id="text_3">
      <!-- 2000 -->
      <g transform="translate(190.969545 322.182437) scale(0.1 -0.1)">
       <defs>
        <path id="DejaVuSans-32" d="M 1228 531 
L 3431 531 
L 3431 0 
L 469 0 
L 469 531 
Q 828 903 1448 1529 
Q 2069 2156 2228 2338 
Q 2531 2678 2651 2914 
Q 2772 3150 2772 3378 
Q 2772 3750 2511 3984 
Q 2250 4219 1831 4219 
Q 1534 4219 1204 4116 
Q 875 4013 500 3803 
L 500 4441 
Q 881 4594 1212 4672 
Q 1544 4750 1819 4750 
Q 2544 4750 2975 4387 
Q 3406 4025 3406 3419 
Q 3406 3131 3298 2873 
Q 3191 2616 2906 2266 
Q 2828 2175 2409 1742 
Q 1991 1309 1228 531 
z
" transform="scale(0.015625)"/>
       </defs>
       <use xlink:href="#DejaVuSans-32"/>
       <use xlink:href="#DejaVuSans-30" x="63.623047"/>
       <use xlink:href="#DejaVuSans-30" x="127.246094"/>
       <use xlink:href="#DejaVuSans-30" x="190.869141"/>
      </g>
     </g>
    </g>
    <g id="xtick_4">
     <g id="line2d_4">
      <g>
       <use xlink:href="#m1b28e932b3" x="268.625455" y="307.584" style="stroke: #000000; stroke-width: 0.8"/>
      </g>
     </g>
     <g id="text_4">
      <!-- 3000 -->
      <g transform="translate(255.900455 322.182437) scale(0.1 -0.1)">
       <defs>
        <path id="DejaVuSans-33" d="M 2597 2516 
Q 3050 2419 3304 2112 
Q 3559 1806 3559 1356 
Q 3559 666 3084 287 
Q 2609 -91 1734 -91 
Q 1441 -91 1130 -33 
Q 819 25 488 141 
L 488 750 
Q 750 597 1062 519 
Q 1375 441 1716 441 
Q 2309 441 2620 675 
Q 2931 909 2931 1356 
Q 2931 1769 2642 2001 
Q 2353 2234 1838 2234 
L 1294 2234 
L 1294 2753 
L 1863 2753 
Q 2328 2753 2575 2939 
Q 2822 3125 2822 3475 
Q 2822 3834 2567 4026 
Q 2313 4219 1838 4219 
Q 1578 4219 1281 4162 
Q 984 4106 628 3988 
L 628 4550 
Q 988 4650 1302 4700 
Q 1616 4750 1894 4750 
Q 2613 4750 3031 4423 
Q 3450 4097 3450 3541 
Q 3450 3153 3228 2886 
Q 3006 2619 2597 2516 
z
" transform="scale(0.015625)"/>
       </defs>
       <use xlink:href="#DejaVuSans-33"/>
       <use xlink:href="#DejaVuSans-30" x="63.623047"/>
       <use xlink:href="#DejaVuSans-30" x="127.246094"/>
       <use xlink:href="#DejaVuSans-30" x="190.869141"/>
      </g>
     </g>
    </g>
    <g id="xtick_5">
     <g id="line2d_5">
      <g>
       <use xlink:href="#m1b28e932b3" x="333.556364" y="307.584" style="stroke: #000000; stroke-width: 0.8"/>
      </g>
     </g>
     <g id="text_5">
      <!-- 4000 -->
      <g transform="translate(320.831364 322.182437) scale(0.1 -0.1)">
       <defs>
        <path id="DejaVuSans-34" d="M 2419 4116 
L 825 1625 
L 2419 1625 
L 2419 4116 
z
M 2253 4666 
L 3047 4666 
L 3047 1625 
L 3713 1625 
L 3713 1100 
L 3047 1100 
L 3047 0 
L 2419 0 
L 2419 1100 
L 313 1100 
L 313 1709 
L 2253 4666 
z
" transform="scale(0.015625)"/>
       </defs>
       <use xlink:href="#DejaVuSans-34"/>
       <use xlink:href="#DejaVuSans-30" x="63.623047"/>
       <use xlink:href="#DejaVuSans-30" x="127.246094"/>
       <use xlink:href="#DejaVuSans-30" x="190.869141"/>
      </g>
     </g>
    </g>
    <g id="xtick_6">
     <g id="line2d_6">
      <g>
       <use xlink:href="#m1b28e932b3" x="398.487273" y="307.584" style="stroke: #000000; stroke-width: 0.8"/>
      </g>
     </g>
     <g id="text_6">
      <!-- 5000 -->
      <g transform="translate(385.762273 322.182437) scale(0.1 -0.1)">
       <defs>
        <path id="DejaVuSans-35" d="M 691 4666 
L 3169 4666 
L 3169 4134 
L 1269 4134 
L 1269 2991 
Q 1406 3038 1543 3061 
Q 1681 3084 1819 3084 
Q 2600 3084 3056 2656 
Q 3513 2228 3513 1497 
Q 3513 744 3044 326 
Q 2575 -91 1722 -91 
Q 1428 -91 1123 -41 
Q 819 9 494 109 
L 494 744 
Q 775 591 1075 516 
Q 1375 441 1709 441 
Q 2250 441 2565 725 
Q 2881 1009 2881 1497 
Q 2881 1984 2565 2268 
Q 2250 2553 1709 2553 
Q 1456 2553 1204 2497 
Q 953 2441 691 2322 
L 691 4666 
z
" transform="scale(0.015625)"/>
       </defs>
       <use xlink:href="#DejaVuSans-35"/>
       <use xlink:href="#DejaVuSans-30" x="63.623047"/>
       <use xlink:href="#DejaVuSans-30" x="127.246094"/>
       <use xlink:href="#DejaVuSans-30" x="190.869141"/>
      </g>
     </g>
    </g>
   </g>
   <g id="matplotlib.axis_2">
    <g id="ytick_1">
     <g id="line2d_7">
      <defs>
       <path id="m4e2eda1734" d="M 0 0 
L -3.5 0 
" style="stroke: #000000; stroke-width: 0.8"/>
      </defs>
      <g>
       <use xlink:href="#m4e2eda1734" x="57.6" y="307.584" style="stroke: #000000; stroke-width: 0.8"/>
      </g>
     </g>
     <g id="text_7">
      <!-- 0.800 -->
      <g transform="translate(21.971875 311.383219) scale(0.1 -0.1)">
       <defs>
        <path id="DejaVuSans-2e" d="M 684 794 
L 1344 794 
L 1344 0 
L 684 0 
L 684 794 
z
" transform="scale(0.015625)"/>
        <path id="DejaVuSans-38" d="M 2034 2216 
Q 1584 2216 1326 1975 
Q 1069 1734 1069 1313 
Q 1069 891 1326 650 
Q 1584 409 2034 409 
Q 2484 409 2743 651 
Q 3003 894 3003 1313 
Q 3003 1734 2745 1975 
Q 2488 2216 2034 2216 
z
M 1403 2484 
Q 997 2584 770 2862 
Q 544 3141 544 3541 
Q 544 4100 942 4425 
Q 1341 4750 2034 4750 
Q 2731 4750 3128 4425 
Q 3525 4100 3525 3541 
Q 3525 3141 3298 2862 
Q 3072 2584 2669 2484 
Q 3125 2378 3379 2068 
Q 3634 1759 3634 1313 
Q 3634 634 3220 271 
Q 2806 -91 2034 -91 
Q 1263 -91 848 271 
Q 434 634 434 1313 
Q 434 1759 690 2068 
Q 947 2378 1403 2484 
z
M 1172 3481 
Q 1172 3119 1398 2916 
Q 1625 2713 2034 2713 
Q 2441 2713 2670 2916 
Q 2900 3119 2900 3481 
Q 2900 3844 2670 4047 
Q 2441 4250 2034 4250 
Q 1625 4250 1398 4047 
Q 1172 3844 1172 3481 
z
" transform="scale(0.015625)"/>
       </defs>
       <use xlink:href="#DejaVuSans-30"/>
       <use xlink:href="#DejaVuSans-2e" x="63.623047"/>
       <use xlink:href="#DejaVuSans-38" x="95.410156"/>
       <use xlink:href="#DejaVuSans-30" x="159.033203"/>
       <use xlink:href="#DejaVuSans-30" x="222.65625"/>
      </g>
     </g>
    </g>
    <g id="ytick_2">
     <g id="line2d_8">
      <g>
       <use xlink:href="#m4e2eda1734" x="57.6" y="274.32" style="stroke: #000000; stroke-width: 0.8"/>
      </g>
     </g>
     <g id="text_8">
      <!-- 0.825 -->
      <g transform="translate(21.971875 278.119219) scale(0.1 -0.1)">
       <use xlink:href="#DejaVuSans-30"/>
       <use xlink:href="#DejaVuSans-2e" x="63.623047"/>
       <use xlink:href="#DejaVuSans-38" x="95.410156"/>
       <use xlink:href="#DejaVuSans-32" x="159.033203"/>
       <use xlink:href="#DejaVuSans-35" x="222.65625"/>
      </g>
     </g>
    </g>
    <g id="ytick_3">
     <g id="line2d_9">
      <g>
       <use xlink:href="#m4e2eda1734" x="57.6" y="241.056" style="stroke: #000000; stroke-width: 0.8"/>
      </g>
     </g>
     <g id="text_9">
      <!-- 0.850 -->
      <g transform="translate(21.971875 244.855219) scale(0.1 -0.1)">
       <use xlink:href="#DejaVuSans-30"/>
       <use xlink:href="#DejaVuSans-2e" x="63.623047"/>
       <use xlink:href="#DejaVuSans-38" x="95.410156"/>
       <use xlink:href="#DejaVuSans-35" x="159.033203"/>
       <use xlink:href="#DejaVuSans-30" x="222.65625"/>
      </g>
     </g>
    </g>
    <g id="ytick_4">
     <g id="line2d_10">
      <g>
       <use xlink:href="#m4e2eda1734" x="57.6" y="207.792" style="stroke: #000000; stroke-width: 0.8"/>
      </g>
     </g>
     <g id="text_10">
      <!-- 0.875 -->
      <g transform="translate(21.971875 211.591219) scale(0.1 -0.1)">
       <defs>
        <path id="DejaVuSans-37" d="M 525 4666 
L 3525 4666 
L 3525 4397 
L 1831 0 
L 1172 0 
L 2766 4134 
L 525 4134 
L 525 4666 
z
" transform="scale(0.015625)"/>
       </defs>
       <use xlink:href="#DejaVuSans-30"/>
       <use xlink:href="#DejaVuSans-2e" x="63.623047"/>
       <use xlink:href="#DejaVuSans-38" x="95.410156"/>
       <use xlink:href="#DejaVuSans-37" x="159.033203"/>
       <use xlink:href="#DejaVuSans-35" x="222.65625"/>
      </g>
     </g>
    </g>
    <g id="ytick_5">
     <g id="line2d_11">
      <g>
       <use xlink:href="#m4e2eda1734" x="57.6" y="174.528" style="stroke: #000000; stroke-width: 0.8"/>
      </g>
     </g>
     <g id="text_11">
      <!-- 0.900 -->
      <g transform="translate(21.971875 178.327219) scale(0.1 -0.1)">
       <defs>
        <path id="DejaVuSans-39" d="M 703 97 
L 703 672 
Q 941 559 1184 500 
Q 1428 441 1663 441 
Q 2288 441 2617 861 
Q 2947 1281 2994 2138 
Q 2813 1869 2534 1725 
Q 2256 1581 1919 1581 
Q 1219 1581 811 2004 
Q 403 2428 403 3163 
Q 403 3881 828 4315 
Q 1253 4750 1959 4750 
Q 2769 4750 3195 4129 
Q 3622 3509 3622 2328 
Q 3622 1225 3098 567 
Q 2575 -91 1691 -91 
Q 1453 -91 1209 -44 
Q 966 3 703 97 
z
M 1959 2075 
Q 2384 2075 2632 2365 
Q 2881 2656 2881 3163 
Q 2881 3666 2632 3958 
Q 2384 4250 1959 4250 
Q 1534 4250 1286 3958 
Q 1038 3666 1038 3163 
Q 1038 2656 1286 2365 
Q 1534 2075 1959 2075 
z
" transform="scale(0.015625)"/>
       </defs>
       <use xlink:href="#DejaVuSans-30"/>
       <use xlink:href="#DejaVuSans-2e" x="63.623047"/>
       <use xlink:href="#DejaVuSans-39" x="95.410156"/>
       <use xlink:href="#DejaVuSans-30" x="159.033203"/>
       <use xlink:href="#DejaVuSans-30" x="222.65625"/>
      </g>
     </g>
    </g>
    <g id="ytick_6">
     <g id="line2d_12">
      <g>
       <use xlink:href="#m4e2eda1734" x="57.6" y="141.264" style="stroke: #000000; stroke-width: 0.8"/>
      </g>
     </g>
     <g id="text_12">
      <!-- 0.925 -->
      <g transform="translate(21.971875 145.063219) scale(0.1 -0.1)">
       <use xlink:href="#DejaVuSans-30"/>
       <use xlink:href="#DejaVuSans-2e" x="63.623047"/>
       <use xlink:href="#DejaVuSans-39" x="95.410156"/>
       <use xlink:href="#DejaVuSans-32" x="159.033203"/>
       <use xlink:href="#DejaVuSans-35" x="222.65625"/>
      </g>
     </g>
    </g>
    <g id="ytick_7">
     <g id="line2d_13">
      <g>
       <use xlink:href="#m4e2eda1734" x="57.6" y="108" style="stroke: #000000; stroke-width: 0.8"/>
      </g>
     </g>
     <g id="text_13">
      <!-- 0.950 -->
      <g transform="translate(21.971875 111.799219) scale(0.1 -0.1)">
       <use xlink:href="#DejaVuSans-30"/>
       <use xlink:href="#DejaVuSans-2e" x="63.623047"/>
       <use xlink:href="#DejaVuSans-39" x="95.410156"/>
       <use xlink:href="#DejaVuSans-35" x="159.033203"/>
       <use xlink:href="#DejaVuSans-30" x="222.65625"/>
      </g>
     </g>
    </g>
    <g id="ytick_8">
     <g id="line2d_14">
      <g>
       <use xlink:href="#m4e2eda1734" x="57.6" y="74.736" style="stroke: #000000; stroke-width: 0.8"/>
      </g>
     </g>
     <g id="text_14">
      <!-- 0.975 -->
      <g transform="translate(21.971875 78.535219) scale(0.1 -0.1)">
       <use xlink:href="#DejaVuSans-30"/>
       <use xlink:href="#DejaVuSans-2e" x="63.623047"/>
       <use xlink:href="#DejaVuSans-39" x="95.410156"/>
       <use xlink:href="#DejaVuSans-37" x="159.033203"/>
       <use xlink:href="#DejaVuSans-35" x="222.65625"/>
      </g>
     </g>
    </g>
    <g id="ytick_9">
     <g id="line2d_15">
      <g>
       <use xlink:href="#m4e2eda1734" x="57.6" y="41.472" style="stroke: #000000; stroke-width: 0.8"/>
      </g>
     </g>
     <g id="text_15">
      <!-- 1.000 -->
      <g transform="translate(21.971875 45.271219) scale(0.1 -0.1)">
       <use xlink:href="#DejaVuSans-31"/>
       <use xlink:href="#DejaVuSans-2e" x="63.623047"/>
       <use xlink:href="#DejaVuSans-30" x="95.410156"/>
       <use xlink:href="#DejaVuSans-30" x="159.033203"/>
       <use xlink:href="#DejaVuSans-30" x="222.65625"/>
      </g>
     </g>
    </g>
   </g>
   <g id="line2d_16">
    <path d="M 76.560118 346.6 
L 77.144204 258.42924 
L 77.209135 255.149793 
L 77.274065 256.596205 
L 77.338996 257.439085 
L 77.468858 254.05979 
L 77.923375 263.277628 
L 77.988305 262.487091 
L 78.053236 262.447913 
L 78.118167 262.558626 
L 78.183098 262.169384 
L 78.248029 263.242098 
L 78.507753 258.630602 
L 78.637615 258.158167 
L 78.767476 260.362045 
L 78.832407 260.108895 
L 78.897338 260.236184 
L 78.962269 261.12768 
L 79.0272 260.891026 
L 79.092131 260.583313 
L 79.416785 253.22032 
L 79.481716 253.609879 
L 79.611578 252.264109 
L 79.74144 253.99801 
L 79.871302 252.777149 
L 80.001164 257.025814 
L 80.066095 255.332835 
L 80.45568 261.63731 
L 80.715404 257.197832 
L 80.780335 257.686525 
L 81.429644 247.717248 
L 81.494575 248.268911 
L 81.689367 245.9314 
L 81.754298 250.219322 
L 81.819229 248.93787 
L 81.88416 248.308724 
L 81.949091 248.932002 
L 82.078953 253.12071 
L 82.468538 243.980593 
L 82.533469 245.063617 
L 82.728262 239.956607 
L 82.793193 240.158841 
L 82.987985 242.625306 
L 83.052916 241.934696 
L 83.117847 242.871635 
L 83.247709 239.440553 
L 83.31264 236.226059 
L 83.377571 237.594511 
L 83.507433 241.019328 
L 83.572364 240.621442 
L 83.702225 245.998336 
L 83.832087 243.407675 
L 84.156742 239.627639 
L 84.221673 236.833713 
L 84.286604 237.991842 
L 84.351535 239.054959 
L 84.546327 234.580744 
L 84.676189 236.606101 
L 84.74112 235.098464 
L 84.806051 237.166567 
L 84.870982 235.757748 
L 85.000844 237.132068 
L 85.065775 236.164754 
L 85.130705 238.292179 
L 85.325498 235.410063 
L 85.650153 241.108153 
L 85.715084 241.605332 
L 85.780015 240.758724 
L 85.844945 243.164836 
L 85.909876 241.392708 
L 85.974807 241.962929 
L 86.039738 243.499196 
L 86.104669 242.908038 
L 86.1696 241.802252 
L 86.234531 241.891632 
L 86.364393 245.517336 
L 86.753978 237.732109 
L 86.818909 238.111913 
L 87.078633 232.896172 
L 87.273425 236.459778 
L 87.663011 243.327099 
L 87.727942 244.149677 
L 87.857804 243.470011 
L 88.117527 249.525698 
L 88.182458 249.153349 
L 88.31232 244.133974 
L 88.377251 245.191064 
L 88.636975 238.006355 
L 88.701905 238.481883 
L 88.896698 243.374445 
L 89.02656 239.842008 
L 89.091491 240.69266 
L 89.156422 241.921769 
L 89.221353 241.70748 
L 89.351215 240.399936 
L 89.7408 248.300158 
L 89.805731 247.809403 
L 90.195316 239.30573 
L 90.325178 239.719477 
L 90.390109 240.375113 
L 90.45504 239.948597 
L 90.584902 240.31016 
L 90.649833 240.769747 
L 90.714764 240.52548 
L 90.844625 237.405045 
L 90.909556 238.63106 
L 91.16928 242.053975 
L 91.234211 242.198156 
L 91.299142 239.393841 
L 91.364073 241.37193 
L 91.429004 240.098885 
L 91.493935 240.932645 
L 91.558865 240.823121 
L 91.623796 238.641529 
L 91.688727 239.412795 
L 91.88352 235.790898 
L 92.078313 231.917834 
L 92.208175 228.305851 
L 92.273105 230.112557 
L 92.467898 225.975716 
L 92.532829 226.2364 
L 92.59776 226.127352 
L 92.662691 225.834152 
L 92.792553 224.648107 
L 92.922415 225.414932 
L 92.987345 225.338717 
L 93.052276 224.9651 
L 93.247069 229.376107 
L 93.312 226.555216 
L 93.376931 227.536726 
L 93.441862 230.48324 
L 93.506793 229.384751 
L 93.571724 229.169907 
L 93.636655 226.016638 
L 93.701585 226.405642 
L 93.831447 227.460908 
L 93.896378 225.362748 
L 93.961309 227.323706 
L 94.02624 225.952955 
L 94.156102 224.099378 
L 94.221033 224.393213 
L 94.415825 227.660526 
L 94.480756 227.202445 
L 94.610618 223.447708 
L 94.74048 223.726871 
L 94.805411 224.256487 
L 95.000204 223.071711 
L 95.065135 224.047749 
L 95.130065 223.727664 
L 95.194996 223.428119 
L 95.45472 220.681223 
L 95.519651 224.063135 
L 95.584582 223.813792 
L 95.649513 223.357615 
L 95.844305 219.979271 
L 96.104029 212.910668 
L 96.16896 214.801123 
L 96.233891 215.891601 
L 96.298822 215.678264 
L 96.428684 216.415745 
L 96.493615 215.766216 
L 96.558545 216.923075 
L 96.623476 215.726483 
L 96.688407 217.36006 
L 96.753338 216.519479 
L 96.818269 216.774057 
L 96.8832 216.466581 
L 97.077993 219.742063 
L 97.142924 219.223312 
L 97.207855 219.717001 
L 97.532509 215.611566 
L 97.59744 215.730131 
L 97.662371 215.571992 
L 97.792233 214.760279 
L 97.857164 216.210576 
L 97.922095 215.516715 
L 97.987025 214.914215 
L 98.116887 215.877564 
L 98.31168 215.224783 
L 98.506473 218.439515 
L 98.701265 220.868071 
L 98.766196 218.760314 
L 98.831127 219.090313 
L 98.960989 222.419962 
L 99.02592 221.338286 
L 99.155782 220.764337 
L 99.220713 222.322572 
L 99.350575 220.277309 
L 99.415505 220.926521 
L 99.934953 212.629999 
L 100.129745 215.048641 
L 100.194676 218.529688 
L 100.259607 217.683952 
L 100.324538 217.982545 
L 100.4544 217.037516 
L 100.584262 214.350259 
L 100.649193 216.232703 
L 100.714124 215.951954 
L 100.779055 215.826886 
L 100.973847 213.65497 
L 101.233571 217.481401 
L 101.298502 220.116236 
L 101.363433 219.766331 
L 101.428364 219.296909 
L 101.688087 228.366283 
L 101.753018 227.037723 
L 101.817949 227.172943 
L 101.947811 228.91525 
L 102.077673 226.703125 
L 102.402327 231.795066 
L 102.532189 233.855715 
L 102.59712 233.835491 
L 102.726982 231.129438 
L 102.791913 231.141096 
L 102.856844 231.214694 
L 102.921775 228.732209 
L 103.051636 233.381376 
L 103.116567 232.427703 
L 103.441222 229.832759 
L 103.506153 230.34469 
L 103.700945 228.092672 
L 103.895738 233.164153 
L 103.960669 234.690585 
L 104.0256 234.157242 
L 104.155462 230.883109 
L 104.285324 234.667903 
L 104.350255 231.799666 
L 104.480116 234.205619 
L 104.545047 232.703614 
L 104.73984 236.969171 
L 104.869702 236.372619 
L 104.934633 235.197598 
L 104.999564 235.934207 
L 105.064495 234.943338 
L 105.324218 238.855104 
L 105.583942 234.165173 
L 105.713804 236.436224 
L 105.778735 236.344306 
L 105.908596 235.048104 
L 106.16832 240.704636 
L 106.233251 240.582185 
L 106.428044 238.862004 
L 106.492975 238.552387 
L 106.557905 240.877606 
L 106.622836 239.720191 
L 106.687767 235.564634 
L 106.752698 236.03231 
L 106.947491 238.600527 
L 107.077353 243.791127 
L 107.402007 239.257907 
L 107.531869 240.872054 
L 107.5968 240.438638 
L 107.791593 237.81681 
L 107.856524 237.827358 
L 107.921455 239.073914 
L 108.181178 231.363395 
L 108.246109 231.811562 
L 108.31104 231.378384 
L 108.375971 231.802363 
L 108.700625 228.382621 
L 108.765556 229.063873 
L 108.960349 224.541597 
L 109.090211 220.809701 
L 109.155142 221.088784 
L 109.285004 222.771691 
L 109.609658 214.958469 
L 109.73952 214.38333 
L 109.869382 216.34302 
L 109.934313 215.695712 
L 110.129105 213.56107 
L 110.194036 213.336629 
L 110.258967 212.310865 
L 110.323898 215.495777 
L 110.388829 214.457959 
L 110.518691 212.50049 
L 110.583622 213.160963 
L 110.648553 212.985059 
L 110.778415 209.526853 
L 110.843345 210.152114 
L 110.908276 208.901354 
L 110.973207 209.732339 
L 111.038138 210.72408 
L 111.232931 206.966646 
L 111.427724 204.718753 
L 111.557585 208.444543 
L 111.687447 204.508667 
L 111.752378 207.55725 
L 111.817309 205.486926 
L 111.88224 205.567106 
L 111.947171 203.792679 
L 112.141964 208.768355 
L 112.206895 207.487935 
L 112.271825 207.806672 
L 112.466618 210.820359 
L 112.661411 206.805969 
L 112.726342 207.911279 
L 112.856204 208.237788 
L 112.986065 205.63301 
L 113.180858 203.066142 
L 113.245789 202.40892 
L 113.635375 192.401021 
L 113.830167 194.521625 
L 113.960029 195.813307 
L 114.089891 193.523698 
L 114.154822 193.904137 
L 114.219753 195.154579 
L 114.284684 195.07424 
L 114.349615 194.817839 
L 114.414545 193.824829 
L 114.479476 194.603788 
L 114.544407 194.040863 
L 114.609338 194.112319 
L 114.674269 194.398064 
L 114.7392 193.560338 
L 114.804131 194.114143 
L 114.869062 194.408215 
L 114.933993 193.961317 
L 115.063855 198.257804 
L 115.323578 194.051252 
L 115.388509 193.839422 
L 115.583302 196.73732 
L 115.648233 199.297606 
L 115.713164 199.245976 
L 115.778095 199.9373 
L 115.843025 203.929722 
L 115.907956 203.494641 
L 115.972887 203.716305 
L 116.232611 207.956325 
L 116.362473 205.318397 
L 116.427404 205.909714 
L 116.687127 210.773488 
L 116.752058 209.908243 
L 116.88192 204.907108 
L 116.946851 204.410484 
L 117.336436 213.540053 
L 117.466298 212.126554 
L 117.531229 213.995754 
L 117.59616 213.48882 
L 117.661091 212.064774 
L 117.920815 218.174628 
L 117.985745 216.75423 
L 118.050676 215.714428 
L 118.115607 216.359278 
L 118.180538 218.762297 
L 118.245469 215.229383 
L 118.3104 215.329628 
L 118.375331 215.392043 
L 118.440262 216.271009 
L 118.635055 212.050102 
L 118.699985 212.015683 
L 118.894778 208.59943 
L 118.959709 209.149745 
L 119.02464 206.764491 
L 119.219433 209.304474 
L 119.414225 207.8012 
L 119.479156 209.69324 
L 119.544087 209.01754 
L 119.609018 209.899519 
L 119.73888 214.173245 
L 119.803811 213.781703 
L 119.868742 214.193785 
L 120.193396 211.44332 
L 120.258327 212.058191 
L 120.323258 210.238083 
L 120.582982 215.180371 
L 120.647913 215.011684 
L 120.712844 215.235331 
L 120.777775 215.008988 
L 120.842705 216.345796 
L 120.907636 215.670809 
L 120.972567 214.264369 
L 121.037498 215.233269 
L 121.297222 214.073714 
L 121.427084 216.683408 
L 121.686807 212.879659 
L 121.816669 211.378208 
L 121.8816 212.942629 
L 122.206255 207.162139 
L 122.271185 207.730299 
L 122.465978 206.317355 
L 122.660771 204.994822 
L 122.855564 208.28902 
L 122.920495 207.485 
L 122.985425 207.255802 
L 123.050356 208.200117 
L 123.180218 206.010039 
L 123.31008 208.117082 
L 123.375011 207.895496 
L 123.829527 199.579703 
L 123.894458 200.230897 
L 123.959389 201.80761 
L 124.02432 200.704918 
L 124.089251 200.374999 
L 124.154182 201.054744 
L 124.219113 200.915559 
L 124.348975 197.550857 
L 124.413905 197.715261 
L 124.478836 198.923829 
L 124.543767 198.478359 
L 124.608698 198.088165 
L 124.673629 195.461023 
L 124.803491 197.970552 
L 124.868422 197.641426 
L 125.063215 195.214535 
L 125.128145 196.622482 
L 125.193076 196.278208 
L 125.258007 196.156154 
L 125.387869 196.573074 
L 125.4528 195.496712 
L 125.582662 197.557598 
L 125.712524 197.255753 
L 125.777455 196.63874 
L 126.037178 201.693249 
L 126.102109 200.826576 
L 126.231971 197.759911 
L 126.296902 197.348305 
L 126.491695 201.109466 
L 126.621556 200.533931 
L 126.686487 200.714276 
L 127.205935 190.26273 
L 127.335796 190.329586 
L 127.400727 190.082464 
L 127.530589 190.928914 
L 127.59552 191.386915 
L 127.790313 195.628283 
L 127.985105 192.596514 
L 128.050036 192.635216 
L 128.179898 193.206547 
L 128.30976 194.785323 
L 128.374691 192.912951 
L 128.439622 193.49372 
L 128.569484 195.013887 
L 128.699345 194.209153 
L 128.764276 194.075441 
L 128.829207 191.945002 
L 128.894138 192.439167 
L 128.959069 192.886462 
L 129.088931 195.877071 
L 129.218793 195.393295 
L 129.283724 197.842074 
L 129.348655 196.770312 
L 129.543447 197.902665 
L 129.608378 197.334585 
L 129.803171 199.730863 
L 129.868102 199.508643 
L 129.997964 202.86137 
L 130.127825 202.285994 
L 130.257687 203.974927 
L 130.517411 201.358412 
L 130.647273 201.903731 
L 130.712204 201.040944 
L 130.777135 203.026012 
L 130.842065 202.6907 
L 130.971927 198.759187 
L 131.036858 200.131762 
L 131.231651 201.958533 
L 131.361513 201.341996 
L 131.426444 202.999206 
L 131.686167 199.795816 
L 131.751098 200.945617 
L 131.816029 199.378182 
L 131.88096 200.757975 
L 131.945891 198.728812 
L 132.010822 200.123435 
L 132.075753 200.952913 
L 132.140684 200.769395 
L 132.205615 199.670113 
L 132.270545 200.819914 
L 132.465338 197.206265 
L 132.530269 197.245285 
L 132.789993 200.760671 
L 132.919855 198.965783 
L 133.374371 203.712895 
L 133.439302 202.871759 
L 133.504233 202.329613 
L 133.569164 204.054869 
L 133.634095 202.996113 
L 133.699025 203.546032 
L 133.763956 203.000713 
L 133.958749 206.744347 
L 134.153542 204.257183 
L 134.218473 204.163203 
L 134.348335 202.201848 
L 134.543127 205.215615 
L 134.608058 204.452914 
L 134.802851 206.166036 
L 134.867782 206.060161 
L 134.932713 207.245571 
L 134.997644 207.123199 
L 135.062575 207.525209 
L 135.192436 204.86 
L 135.257367 205.55632 
L 135.45216 204.171848 
L 135.776815 198.445208 
L 135.841745 198.042246 
L 136.101469 200.180933 
L 136.231331 197.787352 
L 136.491055 191.221717 
L 136.555985 192.24645 
L 136.620916 192.241374 
L 136.685847 190.176919 
L 136.750778 190.568461 
L 136.815709 191.943812 
L 136.88064 191.724844 
L 137.010502 191.402776 
L 137.205295 192.426954 
L 137.270225 190.389543 
L 137.400087 193.73767 
L 137.465018 192.726657 
L 137.529949 193.165149 
L 137.854604 190.951992 
L 137.919535 191.685508 
L 137.984465 193.922933 
L 138.049396 193.412271 
L 138.114327 193.102496 
L 138.179258 194.916418 
L 138.374051 192.447098 
L 138.438982 194.13516 
L 138.568844 189.018791 
L 138.633775 190.719224 
L 138.763636 192.181259 
L 138.828567 191.949047 
L 139.02336 189.040284 
L 139.088291 190.646024 
L 139.153222 190.049789 
L 139.218153 189.771182 
L 139.412945 186.198297 
L 139.477876 186.048644 
L 139.607738 186.79469 
L 139.672669 186.627272 
L 139.932393 182.706782 
L 139.997324 184.416336 
L 140.062255 183.180645 
L 140.192116 184.736104 
L 140.257047 184.032408 
L 140.45184 179.708719 
L 140.516771 180.294167 
L 140.581702 179.893664 
L 140.776495 181.506145 
L 140.841425 181.098742 
L 140.906356 179.579606 
L 140.971287 180.320021 
L 141.101149 183.391999 
L 141.16608 183.170652 
L 141.231011 182.217613 
L 141.295942 182.855087 
L 141.360873 183.896871 
L 141.425804 183.446087 
L 141.555665 184.806925 
L 141.685527 187.448026 
L 141.750458 184.879016 
L 141.815389 185.902242 
L 141.88032 186.24604 
L 141.945251 189.541428 
L 142.010182 189.142352 
L 142.075113 188.427553 
L 142.334836 193.805954 
L 142.399767 193.54297 
L 142.659491 188.284245 
L 142.724422 189.307867 
L 143.049076 199.067772 
L 143.114007 200.744493 
L 143.178938 200.341531 
L 143.3088 198.184127 
L 143.373731 198.663542 
L 143.503593 197.589559 
L 143.633455 196.508121 
L 143.763316 198.009254 
L 143.828247 196.927182 
L 143.893178 198.600571 
L 143.958109 198.314113 
L 144.02304 196.835344 
L 144.087971 197.413099 
L 144.217833 198.492555 
L 144.347695 201.972729 
L 144.412625 201.787387 
L 144.477556 201.803645 
L 144.607418 202.867635 
L 144.672349 202.044343 
L 144.867142 206.599373 
L 145.126865 210.022208 
L 145.191796 209.422801 
L 145.256727 208.543122 
L 145.321658 210.235942 
L 145.386589 209.830284 
L 145.45152 209.54549 
L 145.906036 215.137228 
L 146.100829 210.997691 
L 146.360553 212.945802 
L 146.425484 214.161428 
L 146.490415 212.375818 
L 146.555345 213.321561 
L 146.750138 210.417239 
L 147.009862 215.684688 
L 147.074793 215.680723 
L 147.204655 215.391171 
L 147.334516 213.602627 
L 147.399447 214.511015 
L 147.464378 214.21615 
L 147.529309 211.433882 
L 147.59424 212.039078 
L 147.659171 212.327361 
L 147.789033 213.876952 
L 147.983825 211.919165 
L 148.113687 208.405127 
L 148.178618 208.766293 
L 148.243549 209.626542 
L 148.30848 208.601968 
L 148.373411 210.603294 
L 148.503273 207.965049 
L 148.568204 210.021732 
L 148.698065 205.564647 
L 148.762996 205.595894 
L 148.827927 205.732779 
L 148.957789 205.095147 
L 149.087651 206.773294 
L 149.217513 209.796974 
L 149.477236 201.615765 
L 149.542167 201.288463 
L 149.672029 198.434977 
L 149.866822 200.739655 
L 149.931753 200.799691 
L 150.061615 201.567229 
L 150.126545 201.567546 
L 150.191476 200.271502 
L 150.256407 200.755041 
L 150.386269 198.175245 
L 150.4512 199.923184 
L 150.516131 199.892016 
L 150.645993 200.718876 
L 150.775855 195.997935 
L 150.840785 198.308561 
L 150.905716 197.369639 
L 151.100509 194.305988 
L 151.16544 195.913869 
L 151.230371 195.59426 
L 151.295302 195.103425 
L 151.360233 195.632962 
L 151.619956 191.621507 
L 151.684887 193.113758 
L 151.749818 192.20069 
L 151.814749 191.951426 
L 151.87968 194.671834 
L 151.944611 194.094237 
L 152.074473 193.256908 
L 152.204335 190.025759 
L 152.528989 194.642411 
L 152.59392 197.878159 
L 152.658851 197.546257 
L 152.788713 200.459223 
L 152.853644 203.420885 
L 152.918575 202.860735 
L 152.983505 202.827109 
L 153.113367 201.394735 
L 153.243229 204.063355 
L 153.30816 203.554915 
L 153.438022 200.74711 
L 153.567884 203.183834 
L 153.762676 203.102703 
L 153.827607 203.363466 
L 153.892538 202.062029 
L 153.957469 202.759301 
L 154.0224 202.283218 
L 154.087331 200.764637 
L 154.152262 202.227385 
L 154.282124 199.109488 
L 154.347055 200.125339 
L 154.411985 200.223759 
L 154.541847 202.613375 
L 154.606778 201.987242 
L 154.73664 201.029048 
L 154.801571 201.899131 
L 154.931433 198.699865 
L 155.126225 203.096438 
L 155.191156 202.841067 
L 155.256087 200.574854 
L 155.321018 201.772477 
L 155.385949 202.095655 
L 155.515811 206.120197 
L 155.580742 204.88514 
L 155.775535 203.383055 
L 155.905396 203.794106 
L 156.16512 209.07361 
L 156.230051 207.52172 
L 156.294982 210.697036 
L 156.359913 208.666207 
L 156.424844 208.775096 
L 156.489775 209.303761 
L 156.554705 209.048232 
L 156.684567 209.642166 
L 156.749498 208.617274 
L 156.87936 210.566575 
L 156.944291 210.813935 
L 157.139084 206.683518 
L 157.268945 209.927752 
L 157.333876 206.369381 
L 157.398807 207.597538 
L 157.5936 210.178761 
L 157.658531 209.475303 
L 157.788393 206.55274 
L 157.983185 207.605072 
L 158.048116 206.734117 
L 158.113047 207.905727 
L 158.177978 206.446389 
L 158.242909 209.39893 
L 158.30784 208.509337 
L 158.372771 207.062529 
L 158.437702 207.370163 
L 158.502633 207.44614 
L 158.567564 206.473036 
L 158.697425 207.66947 
L 158.762356 206.150016 
L 158.827287 207.783593 
L 159.087011 202.63455 
L 159.151942 203.697351 
L 159.281804 201.483877 
L 159.346735 198.902495 
L 159.411665 199.177455 
L 159.476596 202.314306 
L 159.541527 201.78366 
L 159.606458 201.712759 
L 159.801251 199.212746 
L 159.866182 199.105364 
L 159.931113 199.373344 
L 160.255767 191.38866 
L 160.320698 192.562649 
L 160.515491 195.588867 
L 160.580422 196.305887 
L 160.645353 193.151349 
L 160.775215 197.895686 
L 160.905076 198.151136 
L 160.970007 198.103234 
L 161.034938 197.729616 
L 161.1648 198.807802 
L 161.294662 195.784439 
L 161.359593 196.340623 
L 161.424524 196.575294 
L 161.619316 191.512538 
L 161.684247 191.994728 
L 161.814109 190.073106 
L 161.87904 190.813045 
L 162.333556 182.344584 
L 162.398487 182.596624 
L 162.59328 178.341298 
L 162.658211 178.586992 
L 162.723142 180.080274 
L 162.788073 177.572649 
L 162.853004 179.098923 
L 163.177658 176.915189 
L 163.242589 177.631574 
L 163.30752 176.236396 
L 163.697105 181.478387 
L 163.762036 181.274091 
L 163.891898 183.514767 
L 163.956829 181.786021 
L 164.02176 182.81242 
L 164.086691 185.531479 
L 164.151622 185.458675 
L 164.216553 185.722611 
L 164.281484 186.495463 
L 164.476276 184.843169 
L 164.541207 185.624666 
L 164.800931 181.140379 
L 164.865862 181.418669 
L 164.930793 181.265605 
L 165.060655 181.257119 
L 165.125585 182.835102 
L 165.190516 181.62931 
L 165.255447 183.453304 
L 165.320378 180.443344 
L 165.385309 181.223731 
L 165.45024 179.899929 
L 165.515171 180.80919 
L 165.709964 187.074011 
L 165.774895 186.6218 
L 165.904756 187.804592 
L 165.969687 184.346149 
L 166.034618 185.280392 
L 166.099549 185.010429 
L 166.16448 186.290373 
L 166.229411 185.729352 
L 166.359273 183.944694 
L 166.424204 184.437194 
L 166.489135 183.823829 
L 166.554065 184.270331 
L 166.683927 187.700937 
L 166.748858 187.17148 
L 166.87872 185.062613 
L 166.943651 185.11218 
L 167.203375 180.919666 
L 167.268305 182.089214 
L 167.398167 184.674403 
L 167.463098 182.850725 
L 167.528029 184.058024 
L 167.722822 185.300298 
L 167.982545 187.867008 
L 168.047476 186.826651 
L 168.112407 187.289331 
L 168.177338 186.841402 
L 168.242269 187.178697 
L 168.437062 186.361988 
L 168.761716 191.861412 
L 168.826647 191.6108 
L 168.891578 191.219179 
L 169.151302 199.652666 
L 169.216233 198.261611 
L 169.281164 197.32824 
L 169.540887 201.691346 
L 169.670749 200.755199 
L 169.73568 200.952834 
L 169.800611 200.538452 
L 169.930473 198.755142 
L 169.995404 201.214311 
L 170.060335 200.463982 
L 170.190196 201.507986 
L 170.384989 197.617475 
L 170.514851 200.440427 
L 170.644713 198.461704 
L 170.774575 199.047707 
L 170.839505 199.030101 
L 170.969367 197.940415 
L 171.034298 198.144394 
L 171.099229 198.306023 
L 171.294022 200.506967 
L 171.358953 200.35533 
L 171.553745 201.065292 
L 171.748538 197.795124 
L 171.8784 197.27788 
L 171.943331 198.753159 
L 172.267985 190.069537 
L 172.332916 190.48154 
L 172.397847 189.976192 
L 172.462778 190.627466 
L 172.527709 189.826856 
L 172.59264 191.074364 
L 172.657571 190.543717 
L 172.722502 190.279464 
L 172.917295 191.53411 
L 172.982225 191.863712 
L 173.177018 189.342683 
L 173.30688 190.619693 
L 173.371811 190.431021 
L 173.436742 190.766492 
L 173.501673 190.40136 
L 173.631535 192.424971 
L 173.761396 190.490739 
L 173.891258 185.478026 
L 173.956189 187.085114 
L 174.02112 184.017657 
L 174.086051 184.77314 
L 174.150982 184.882188 
L 174.215913 185.863619 
L 174.280844 185.222973 
L 174.410705 184.32418 
L 174.475636 187.015482 
L 174.540567 185.873057 
L 174.605498 185.813656 
L 174.73536 188.597509 
L 174.800291 187.368956 
L 174.930153 187.182663 
L 174.995084 187.505762 
L 175.189876 184.73428 
L 175.254807 184.923349 
L 175.319738 185.483578 
L 175.4496 183.254956 
L 175.644393 178.62395 
L 175.709324 178.858621 
L 175.774255 179.974002 
L 176.098909 174.195733 
L 176.293702 180.292739 
L 176.358633 180.289091 
L 176.423564 181.411848 
L 176.683287 173.647163 
L 176.748218 177.110286 
L 176.813149 176.606841 
L 177.072873 174.281702 
L 177.137804 174.266951 
L 177.267665 174.928456 
L 177.397527 171.787083 
L 177.462458 172.380304 
L 177.527389 171.699448 
L 177.657251 174.02887 
L 177.852044 169.68924 
L 177.916975 169.527056 
L 177.981905 168.141791 
L 178.046836 168.175972 
L 178.111767 168.401285 
L 178.176698 168.204127 
L 178.241629 167.444043 
L 178.30656 168.456721 
L 178.436422 166.714017 
L 178.501353 167.82694 
L 178.566284 167.403993 
L 179.0208 162.385966 
L 179.085731 163.059763 
L 179.150662 165.453265 
L 179.215593 164.869799 
L 179.280524 163.927704 
L 179.475316 165.883667 
L 179.540247 165.853054 
L 179.605178 165.994063 
L 179.670109 167.172097 
L 179.73504 166.022296 
L 179.799971 166.996272 
L 179.864902 165.826803 
L 179.929833 167.371001 
L 179.994764 167.119675 
L 180.124625 168.201271 
L 180.189556 167.640567 
L 180.254487 167.975324 
L 180.319418 168.298344 
L 180.384349 170.035259 
L 180.44928 169.437835 
L 180.514211 170.29967 
L 180.579142 170.028359 
L 180.709004 170.256447 
L 180.773935 171.530365 
L 180.838865 171.468822 
L 180.903796 170.327586 
L 180.968727 166.938061 
L 181.033658 167.456891 
L 181.098589 167.319213 
L 181.16352 166.451509 
L 181.293382 168.183586 
L 181.358313 166.560953 
L 181.423244 166.905148 
L 181.553105 166.930764 
L 181.618036 166.534465 
L 181.87776 170.429259 
L 181.942691 170.658457 
L 182.007622 170.478429 
L 182.202415 172.097017 
L 182.267345 171.522355 
L 182.592 178.087276 
L 182.656931 176.623179 
L 182.786793 173.206292 
L 182.916655 173.759621 
L 182.981585 172.991606 
L 183.176378 173.831632 
L 183.30624 171.193308 
L 183.371171 171.212659 
L 183.436102 168.626519 
L 183.501033 169.51976 
L 183.760756 165.697135 
L 184.085411 170.343686 
L 184.150342 169.553465 
L 184.474996 174.338963 
L 184.669789 173.71164 
L 184.799651 176.370743 
L 184.864582 176.230289 
L 185.059375 178.827691 
L 185.124305 178.110354 
L 185.254167 178.731332 
L 185.384029 177.320847 
L 185.513891 179.600781 
L 185.578822 179.408857 
L 185.643753 177.209658 
L 185.773615 179.384351 
L 185.838545 179.604191 
L 185.903476 179.536383 
L 185.968407 177.557977 
L 186.033338 177.9814 
L 186.098269 178.608961 
L 186.1632 177.892417 
L 186.228131 180.016908 
L 186.293062 178.522674 
L 186.357993 179.407826 
L 186.552785 172.90072 
L 186.682647 172.298379 
L 186.747578 171.324482 
L 186.812509 172.380224 
L 186.87744 170.890987 
L 186.942371 170.923027 
L 187.007302 170.740461 
L 187.202095 168.590989 
L 187.396887 170.014004 
L 187.526749 169.755541 
L 187.656611 169.718108 
L 187.786473 167.713689 
L 187.916335 172.007241 
L 188.046196 171.122407 
L 188.176058 171.609117 
L 188.240989 171.53322 
L 188.30592 173.309868 
L 188.370851 172.643129 
L 188.500713 171.689773 
L 188.695505 168.987764 
L 188.760436 170.263823 
L 189.02016 163.537273 
L 189.279884 162.25717 
L 189.409745 158.034519 
L 189.474676 158.26459 
L 189.539607 158.698085 
L 189.799331 162.54236 
L 189.864262 162.30753 
L 189.929193 162.366456 
L 190.059055 159.303122 
L 190.123985 159.548262 
L 190.44864 162.50001 
L 190.708364 157.514658 
L 190.773295 157.500779 
L 190.968087 155.230838 
L 191.033018 156.325441 
L 191.097949 156.131534 
L 191.16288 156.024865 
L 191.227811 155.655054 
L 191.292742 155.963005 
L 191.357673 155.434976 
L 191.552465 152.278218 
L 191.747258 155.165092 
L 191.942051 152.830595 
L 192.201775 149.591674 
L 192.331636 151.282749 
L 192.396567 150.682391 
L 192.59136 154.521908 
L 192.656291 153.168207 
L 192.721222 153.731687 
L 193.045876 156.556305 
L 193.110807 155.806928 
L 193.3056 161.502241 
L 193.370531 161.84604 
L 193.630255 158.564928 
L 193.695185 158.814746 
L 193.825047 156.102111 
L 193.889978 157.01621 
L 193.954909 160.203104 
L 194.01984 159.802046 
L 194.084771 159.665637 
L 194.149702 161.396524 
L 194.214633 160.300098 
L 194.279564 161.184218 
L 194.474356 155.487636 
L 194.539287 154.968964 
L 194.604218 155.575984 
L 194.928873 147.234098 
L 194.993804 147.665214 
L 195.058735 149.036125 
L 195.253527 147.364083 
L 195.383389 147.796785 
L 195.44832 147.401755 
L 195.513251 147.514292 
L 195.967767 164.519022 
L 196.032698 165.704749 
L 196.292422 160.215238 
L 196.552145 166.653664 
L 196.682007 169.000374 
L 196.746938 167.247043 
L 196.811869 170.182612 
L 196.8768 169.094195 
L 196.941731 168.784737 
L 197.071593 171.035723 
L 197.136524 169.88624 
L 197.201455 170.081257 
L 197.396247 172.11391 
L 197.461178 171.555188 
L 197.526109 172.731716 
L 197.59104 172.574211 
L 197.655971 172.660259 
L 197.915695 177.038592 
L 198.110487 179.959013 
L 198.175418 179.437963 
L 198.240349 177.818502 
L 198.629935 184.858237 
L 198.694865 184.668375 
L 198.824727 183.496685 
L 198.954589 186.36175 
L 199.01952 185.451696 
L 199.149382 188.511619 
L 199.344175 186.384273 
L 199.409105 188.376876 
L 199.474036 188.003099 
L 199.603898 187.475307 
L 199.863622 178.313699 
L 200.123345 182.590755 
L 200.188276 185.16722 
L 200.253207 185.03319 
L 200.318138 185.424255 
L 200.383069 184.657986 
L 200.448 182.536985 
L 200.577862 184.9358 
L 200.772655 182.082949 
L 200.837585 184.212833 
L 200.902516 183.705819 
L 201.357033 191.155892 
L 201.421964 193.524809 
L 201.486895 192.344316 
L 201.551825 193.487375 
L 201.616756 192.268735 
L 201.681687 193.183707 
L 201.746618 191.923113 
L 201.811549 192.179752 
L 201.941411 195.423273 
L 202.006342 195.053462 
L 202.460858 184.487792 
L 202.525789 184.286985 
L 202.59072 185.348517 
L 202.655651 185.083788 
L 202.720582 184.869896 
L 202.785513 185.715711 
L 203.045236 180.705297 
L 203.110167 180.341038 
L 203.369891 173.454207 
L 203.434822 173.762159 
L 203.499753 172.280931 
L 203.564684 172.493793 
L 203.629615 172.640829 
L 203.694545 172.186714 
L 203.889338 169.672268 
L 203.954269 170.521573 
L 204.0192 167.640012 
L 204.084131 167.973342 
L 204.408785 163.057225 
L 204.473716 163.888923 
L 204.603578 162.04066 
L 204.668509 163.028753 
L 204.73344 164.626642 
L 204.798371 164.575806 
L 204.863302 165.039279 
L 205.058095 162.39461 
L 205.123025 162.20681 
L 205.187956 161.574094 
L 205.252887 163.080303 
L 205.317818 162.293096 
L 205.642473 156.439247 
L 205.707404 156.900658 
L 205.772335 155.544579 
L 206.032058 160.982063 
L 206.096989 160.10508 
L 206.421644 164.013515 
L 206.486575 163.816357 
L 206.551505 164.577868 
L 206.616436 164.375871 
L 206.681367 161.386849 
L 206.746298 161.989507 
L 206.941091 164.060386 
L 207.070953 161.711058 
L 207.135884 161.795521 
L 207.265745 162.055253 
L 207.460538 159.414787 
L 207.525469 159.180275 
L 207.915055 155.057313 
L 207.979985 155.688363 
L 208.044916 153.435156 
L 208.109847 154.371858 
L 208.174778 153.217536 
L 208.30464 159.016822 
L 208.434502 157.138819 
L 208.499433 157.279352 
L 208.629295 155.361299 
L 208.694225 156.395469 
L 208.759156 156.417041 
L 208.824087 158.578489 
L 209.01888 154.454496 
L 209.083811 154.177951 
L 209.213673 155.898687 
L 209.278604 155.15042 
L 209.343535 155.341234 
L 209.408465 155.574477 
L 209.473396 154.757927 
L 209.538327 155.753475 
L 209.603258 155.251616 
L 209.668189 155.365106 
L 209.73312 155.991635 
L 209.992844 161.157809 
L 210.057775 160.589887 
L 210.512291 170.355027 
L 210.577222 170.689149 
L 210.642153 172.477773 
L 210.707084 172.144681 
L 210.772015 172.201465 
L 210.836945 174.22476 
L 210.901876 173.426053 
L 210.966807 172.106693 
L 211.1616 176.027341 
L 211.291462 173.719967 
L 211.356393 174.12158 
L 211.616116 171.926347 
L 211.681047 172.812292 
L 211.87584 169.561872 
L 211.940771 169.436725 
L 212.005702 169.763551 
L 212.200495 165.415118 
L 212.265425 165.858606 
L 212.330356 165.119776 
L 212.395287 161.415876 
L 212.460218 162.112354 
L 212.525149 162.105455 
L 212.59008 163.180707 
L 212.784873 160.445548 
L 212.849804 161.116807 
L 212.979665 162.24345 
L 213.109527 159.798239 
L 213.174458 160.674429 
L 213.369251 158.501323 
L 213.434182 158.274027 
L 213.499113 157.44566 
L 213.628975 159.485768 
L 213.693905 159.752162 
L 213.758836 161.493756 
L 213.823767 161.286446 
L 213.888698 161.728427 
L 213.953629 161.530792 
L 214.01856 160.010784 
L 214.083491 161.459257 
L 214.148422 160.057575 
L 214.213353 160.144496 
L 214.343215 159.093354 
L 214.408145 159.238804 
L 214.473076 159.640655 
L 214.602938 158.361821 
L 214.667869 160.281936 
L 214.797731 153.40724 
L 214.862662 153.939314 
L 214.927593 153.897281 
L 214.992524 153.476555 
L 215.057455 153.510578 
L 215.122385 155.532444 
L 215.317178 151.389656 
L 215.382109 152.063373 
L 215.44704 154.025601 
L 215.511971 152.651439 
L 215.576902 152.661907 
L 215.706764 151.236196 
L 215.901556 152.82195 
L 215.966487 152.581331 
L 216.16128 150.91841 
L 216.226211 150.935303 
L 216.680727 143.570169 
L 217.070313 137.834884 
L 217.200175 136.990576 
L 217.265105 137.268232 
L 217.459898 133.055731 
L 217.524829 133.002754 
L 217.58976 133.611519 
L 217.654691 133.047721 
L 217.719622 134.393174 
L 217.784553 134.046521 
L 217.849484 133.356862 
L 217.914415 133.523567 
L 218.109207 139.078268 
L 218.174138 137.819657 
L 218.239069 138.087082 
L 218.304 138.647152 
L 218.368931 138.329367 
L 218.433862 141.04343 
L 218.498793 140.5085 
L 218.563724 140.687498 
L 218.693585 143.183861 
L 218.823447 141.793441 
L 218.888378 141.923982 
L 218.953309 144.59847 
L 219.01824 143.536939 
L 219.342895 146.811944 
L 219.472756 143.868048 
L 219.537687 146.133309 
L 219.602618 145.281705 
L 219.667549 144.838455 
L 219.862342 148.765765 
L 219.927273 148.470186 
L 219.992204 148.684078 
L 220.251927 142.867662 
L 220.44672 147.162008 
L 220.511651 148.313236 
L 220.641513 147.038367 
L 220.836305 149.472713 
L 221.031098 147.656649 
L 221.096029 148.297692 
L 221.16096 146.440864 
L 221.225891 146.511051 
L 221.290822 146.835181 
L 221.355753 145.032838 
L 221.420684 145.295504 
L 221.485615 145.925206 
L 221.550545 145.091367 
L 221.745338 146.744057 
L 221.8752 144.73139 
L 221.940131 142.184824 
L 222.005062 143.458424 
L 222.069993 142.636877 
L 222.134924 142.9641 
L 222.199855 143.363334 
L 222.459578 140.848016 
L 222.524509 141.038989 
L 222.58944 141.617458 
L 222.784233 145.175512 
L 222.849164 145.326672 
L 222.979025 144.169416 
L 223.173818 147.913843 
L 223.30368 146.733906 
L 223.433542 148.928742 
L 223.498473 148.613495 
L 223.628335 146.542774 
L 223.888058 149.480485 
L 224.212713 146.309372 
L 224.277644 147.234574 
L 224.602298 140.7032 
L 224.667229 141.790586 
L 224.73216 141.096725 
L 224.797091 141.658619 
L 224.862022 140.99077 
L 224.926953 138.165993 
L 225.056815 140.908052 
L 225.316538 138.777137 
L 225.381469 140.769184 
L 225.4464 139.791481 
L 225.511331 139.837638 
L 225.641193 138.20073 
L 225.706124 140.279143 
L 225.771055 140.169223 
L 225.835985 140.131076 
L 225.900916 140.327203 
L 225.965847 140.913365 
L 226.030778 139.676168 
L 226.16064 143.49673 
L 226.225571 142.120347 
L 226.355433 141.038037 
L 226.420364 140.145748 
L 226.615156 144.784526 
L 226.809949 146.720582 
L 226.939811 144.817914 
L 227.004742 145.642554 
L 227.069673 144.093281 
L 227.134604 145.274488 
L 227.329396 141.999403 
L 227.394327 145.111907 
L 227.459258 144.050772 
L 227.524189 144.228897 
L 227.783913 147.804637 
L 227.848844 147.793772 
L 227.913775 145.730665 
L 227.978705 146.938123 
L 228.043636 150.568029 
L 228.108567 146.856119 
L 228.173498 147.873317 
L 228.238429 147.93827 
L 228.368291 151.617982 
L 228.498153 155.476295 
L 228.563084 155.579474 
L 228.952669 159.385602 
L 229.0176 160.961285 
L 229.082531 160.677205 
L 229.147462 159.007781 
L 229.212393 159.293843 
L 229.277324 159.263627 
L 229.472116 162.017741 
L 229.537047 161.055343 
L 229.601978 161.362026 
L 229.796771 165.325183 
L 229.861702 164.647421 
L 229.991564 163.6579 
L 230.121425 165.306625 
L 230.316218 162.938898 
L 230.511011 162.278662 
L 230.640873 163.402609 
L 230.705804 165.563502 
L 230.770735 165.329703 
L 230.835665 165.276964 
L 230.900596 164.033342 
L 230.965527 164.311394 
L 231.030458 163.728722 
L 231.225251 164.610067 
L 231.290182 163.248435 
L 231.355113 163.268659 
L 231.484975 165.143093 
L 231.549905 165.004701 
L 231.809629 169.822952 
L 231.939491 163.516178 
L 232.004422 163.975368 
L 232.069353 163.811678 
L 232.134284 164.097502 
L 232.264145 161.505097 
L 232.329076 162.332116 
L 232.394007 161.874035 
L 232.653731 158.082103 
L 232.913455 156.137403 
L 233.108247 151.801976 
L 233.173178 151.458574 
L 233.367971 152.458722 
L 233.497833 152.440401 
L 233.627695 155.432993 
L 233.757556 155.124486 
L 233.822487 156.331627 
L 233.887418 152.071859 
L 233.952349 152.355463 
L 234.01728 152.969224 
L 234.147142 150.518145 
L 234.212073 151.042923 
L 234.277004 152.975252 
L 234.341935 152.701641 
L 234.406865 153.509547 
L 234.471796 153.123398 
L 234.666589 149.476678 
L 234.796451 150.631793 
L 234.991244 144.797215 
L 235.056175 145.224366 
L 235.121105 145.753981 
L 235.250967 143.734415 
L 235.315898 145.30748 
L 235.380829 144.65232 
L 235.44576 144.995881 
L 235.575622 142.312113 
L 235.640553 142.595161 
L 235.965207 137.184641 
L 236.16 140.496842 
L 236.224931 141.952929 
L 236.289862 141.341547 
L 236.354793 141.601517 
L 236.419724 141.390242 
L 236.484655 142.032792 
L 236.679447 145.172816 
L 236.939171 143.640356 
L 237.004102 143.755193 
L 237.069033 143.299413 
L 237.263825 138.333649 
L 237.328756 138.989681 
L 237.523549 143.125095 
L 237.58848 141.991869 
L 237.653411 142.115985 
L 237.848204 146.27408 
L 237.913135 145.796332 
L 237.978065 143.559621 
L 238.042996 144.237621 
L 238.107927 143.822605 
L 238.237789 140.529596 
L 238.367651 144.542241 
L 238.432582 144.356424 
L 238.692305 142.993365 
L 238.757236 143.061173 
L 238.822167 141.994486 
L 239.01696 147.384783 
L 239.081891 145.964305 
L 239.211753 144.308839 
L 239.406545 147.265346 
L 239.471476 147.046695 
L 239.536407 145.655006 
L 239.666269 148.659652 
L 239.7312 148.412529 
L 239.925993 150.776212 
L 239.990924 150.471988 
L 240.250647 147.280176 
L 240.510371 151.088684 
L 240.705164 148.11243 
L 240.770095 145.694104 
L 240.835025 147.224185 
L 240.899956 148.181348 
L 241.029818 146.160909 
L 241.15968 148.150814 
L 241.289542 145.925444 
L 241.354473 146.151471 
L 241.419404 147.181042 
L 241.679127 143.490147 
L 241.744058 145.559599 
L 241.808989 143.338353 
L 241.87392 144.626149 
L 241.938851 144.994374 
L 242.003782 144.659934 
L 242.198575 147.818674 
L 242.328436 149.157941 
L 242.458298 148.088161 
L 242.718022 140.938982 
L 242.912815 137.495368 
L 242.977745 138.13768 
L 243.107607 134.877188 
L 243.172538 136.446367 
L 243.367331 140.227196 
L 243.497193 140.195949 
L 243.562124 139.791639 
L 243.691985 141.821754 
L 243.756916 141.764336 
L 243.821847 144.604101 
L 243.886778 144.287823 
L 243.951709 143.673506 
L 244.01664 143.903736 
L 244.081571 145.043386 
L 244.146502 144.381881 
L 244.406225 141.840629 
L 244.471156 144.542796 
L 244.536087 144.247217 
L 244.601018 143.553593 
L 244.73088 146.381066 
L 244.795811 142.663683 
L 244.860742 144.134363 
L 245.055535 146.668239 
L 245.315258 149.776857 
L 245.380189 149.461292 
L 245.510051 145.601552 
L 245.574982 145.710283 
L 245.639913 146.408031 
L 245.704844 146.16305 
L 245.899636 143.984233 
L 246.029498 148.562896 
L 246.094429 147.362973 
L 246.419084 142.519978 
L 246.548945 144.011039 
L 246.613876 144.14729 
L 246.743738 143.637739 
L 246.938531 140.935968 
L 247.198255 144.361817 
L 247.263185 145.197163 
L 247.393047 143.754797 
L 247.457978 144.901108 
L 247.522909 144.835679 
L 247.58784 144.704742 
L 247.652771 144.054976 
L 247.977425 150.074816 
L 248.042356 148.919225 
L 248.172218 151.644709 
L 248.431942 148.058183 
L 248.496873 148.810653 
L 248.756596 143.285772 
L 248.821527 142.886458 
L 248.951389 143.803491 
L 249.01632 143.374834 
L 249.081251 143.806426 
L 249.146182 143.526787 
L 249.340975 147.035195 
L 249.405905 148.004095 
L 249.470836 147.877679 
L 249.600698 148.651959 
L 249.665629 145.796649 
L 249.73056 147.421026 
L 249.795491 147.017589 
L 249.990284 144.442948 
L 250.055215 145.041641 
L 250.185076 144.441362 
L 250.250007 144.649624 
L 250.4448 141.177222 
L 250.509731 143.216615 
L 250.574662 142.358349 
L 250.704524 143.919043 
L 250.834385 141.136458 
L 250.899316 142.552811 
L 250.964247 140.293498 
L 251.094109 143.155469 
L 251.15904 141.703348 
L 251.223971 142.090686 
L 251.418764 139.824155 
L 251.613556 142.340108 
L 251.743418 141.858553 
L 251.87328 138.824801 
L 252.003142 141.716989 
L 252.068073 141.599217 
L 252.392727 144.505284 
L 252.58752 141.207596 
L 252.652451 142.493013 
L 252.847244 140.045741 
L 252.912175 140.978873 
L 252.977105 136.975269 
L 253.042036 138.397809 
L 253.106967 138.548969 
L 253.30176 140.220059 
L 253.366691 140.455761 
L 253.431622 142.329005 
L 253.561484 139.306039 
L 253.626415 139.236407 
L 253.821207 136.727195 
L 253.951069 137.697841 
L 254.016 141.529823 
L 254.080931 139.752858 
L 254.145862 139.843427 
L 254.340655 135.375477 
L 254.405585 137.409637 
L 254.470516 136.05554 
L 254.535447 136.826013 
L 254.73024 134.458206 
L 254.860102 139.269875 
L 254.925033 138.867389 
L 254.989964 138.464824 
L 255.249687 139.783233 
L 255.379549 139.759282 
L 255.509411 144.249041 
L 255.704204 142.043815 
L 255.898996 144.098674 
L 255.963927 142.769955 
L 256.15872 145.858509 
L 256.288582 143.949972 
L 256.353513 145.272267 
L 256.418444 143.571834 
L 256.548305 146.811786 
L 256.613236 146.62914 
L 256.678167 146.513272 
L 256.743098 146.700914 
L 256.808029 145.913865 
L 256.937891 149.081251 
L 257.067753 146.128154 
L 257.132684 147.125288 
L 257.197615 146.444354 
L 257.262545 146.796876 
L 257.327476 149.045483 
L 257.392407 148.897098 
L 257.457338 148.598585 
L 257.5872 144.917366 
L 257.652131 145.594653 
L 257.717062 143.588806 
L 257.781993 145.958436 
L 257.976785 141.648388 
L 258.041716 144.12548 
L 258.106647 143.402037 
L 258.30144 145.791097 
L 258.366371 145.409866 
L 258.496233 143.950131 
L 258.561164 145.120552 
L 258.691025 143.588409 
L 258.755956 144.191543 
L 258.820887 142.040564 
L 258.885818 144.387433 
L 258.950749 143.287041 
L 259.01568 143.648604 
L 259.080611 143.427891 
L 259.145542 143.27102 
L 259.340335 147.598279 
L 259.405265 144.89167 
L 259.470196 146.866666 
L 259.535127 146.365046 
L 259.664989 145.08074 
L 259.794851 146.934792 
L 259.859782 146.72994 
L 259.989644 145.089781 
L 260.184436 147.841356 
L 260.249367 147.545381 
L 260.314298 147.599389 
L 260.44416 148.723653 
L 260.509091 144.99818 
L 260.768815 153.015699 
L 260.833745 152.901654 
L 260.963607 150.041744 
L 261.028538 149.743865 
L 261.093469 150.534324 
L 261.353193 143.912143 
L 261.418124 144.7279 
L 261.483055 146.724309 
L 261.547985 145.149579 
L 261.612916 146.250288 
L 261.677847 146.579732 
L 261.742778 145.681018 
L 261.87264 147.48019 
L 262.067433 143.376182 
L 262.132364 143.253256 
L 262.197295 144.32597 
L 262.327156 141.839123 
L 262.457018 145.242844 
L 262.521949 143.801905 
L 262.58688 143.836959 
L 262.846604 141.597472 
L 262.911535 144.809349 
L 262.976465 143.705229 
L 263.106327 145.319455 
L 263.171258 145.069716 
L 263.30112 147.729771 
L 263.366051 144.813235 
L 263.430982 145.115952 
L 263.495913 144.840755 
L 263.560844 145.57324 
L 263.950429 140.643561 
L 264.080291 141.82453 
L 264.145222 139.80877 
L 264.210153 141.120517 
L 264.275084 141.14074 
L 264.340015 140.73881 
L 264.404945 142.540281 
L 264.469876 141.683204 
L 264.664669 140.0275 
L 264.7296 140.982997 
L 264.794531 139.685764 
L 264.859462 140.188494 
L 264.924393 139.844617 
L 265.184116 144.495212 
L 265.249047 143.770975 
L 265.313978 144.700539 
L 265.378909 143.912698 
L 265.573702 146.281615 
L 265.833425 140.435379 
L 265.963287 143.236284 
L 266.028218 141.609765 
L 266.093149 143.269196 
L 266.15808 142.326309 
L 266.223011 140.837547 
L 266.287942 142.353908 
L 266.352873 141.471532 
L 266.417804 141.196493 
L 266.612596 142.715471 
L 266.807389 140.987121 
L 267.391767 130.384415 
L 267.456698 130.501632 
L 267.846284 138.662776 
L 267.911215 137.573486 
L 267.976145 136.303217 
L 268.041076 138.660238 
L 268.106007 138.304623 
L 268.235869 137.810378 
L 268.365731 139.173754 
L 268.430662 139.285261 
L 268.560524 144.599343 
L 268.625455 143.337322 
L 268.690385 140.923834 
L 268.755316 141.319658 
L 268.820247 142.306641 
L 268.950109 138.832335 
L 269.01504 139.239104 
L 269.079971 139.521597 
L 269.144902 139.265513 
L 269.209833 139.674899 
L 269.274764 139.174389 
L 269.469556 141.91724 
L 269.534487 141.015989 
L 269.794211 136.134847 
L 270.053935 140.630951 
L 270.118865 139.945734 
L 270.183796 140.00577 
L 270.313658 143.836245 
L 270.44352 143.716412 
L 270.573382 142.290938 
L 270.703244 143.834263 
L 270.898036 141.069443 
L 270.962967 141.882266 
L 271.222691 137.568886 
L 271.287622 137.845432 
L 271.482415 137.200582 
L 271.677207 132.383124 
L 271.742138 132.203334 
L 271.807069 133.089754 
L 272.001862 131.702427 
L 272.066793 130.718458 
L 272.261585 134.919618 
L 272.326516 136.33264 
L 272.391447 135.743702 
L 272.456378 133.520236 
L 272.521309 133.827632 
L 272.716102 135.351527 
L 272.781033 132.731601 
L 272.845964 134.316484 
L 272.910895 134.254386 
L 273.040756 131.987459 
L 273.235549 136.786359 
L 273.30048 136.886841 
L 273.365411 137.248722 
L 273.495273 139.733348 
L 273.625135 137.903723 
L 274.079651 141.710962 
L 274.274444 136.104155 
L 274.339375 134.213701 
L 274.404305 134.511184 
L 274.469236 134.786302 
L 274.664029 133.257648 
L 274.72896 135.667171 
L 274.858822 132.957549 
L 274.923753 133.885288 
L 275.053615 130.389966 
L 275.118545 131.029185 
L 275.183476 130.539382 
L 275.313338 134.217111 
L 275.378269 133.733414 
L 275.637993 132.212216 
L 275.702924 131.832967 
L 275.767855 131.890624 
L 275.832785 133.343618 
L 276.027578 127.823812 
L 276.092509 129.286957 
L 276.15744 129.26943 
L 276.222371 127.493892 
L 276.287302 127.549011 
L 276.352233 129.188219 
L 276.547025 125.745478 
L 276.611956 125.485667 
L 276.676887 125.697735 
L 276.741818 125.182077 
L 276.87168 121.861073 
L 276.936611 122.264194 
L 277.001542 124.432145 
L 277.066473 123.751924 
L 277.196335 123.301061 
L 277.391127 129.114146 
L 277.650851 133.864748 
L 277.715782 132.859287 
L 277.780713 132.494313 
L 277.975505 134.652906 
L 278.040436 134.687881 
L 278.105367 135.237324 
L 278.170298 134.756641 
L 278.235229 136.478646 
L 278.30016 135.188232 
L 278.494953 137.650256 
L 278.559884 136.923085 
L 278.689745 134.216635 
L 278.754676 134.726028 
L 278.819607 134.133918 
L 279.144262 140.973877 
L 279.274124 138.899588 
L 279.468916 141.521416 
L 279.533847 141.577963 
L 279.598778 137.489817 
L 279.663709 138.60266 
L 279.72864 137.257446 
L 279.793571 138.79395 
L 279.858502 138.785861 
L 279.988364 137.363004 
L 280.118225 140.692415 
L 280.183156 139.997046 
L 280.248087 140.462978 
L 280.313018 139.944862 
L 280.377949 140.715017 
L 280.507811 139.585043 
L 280.572742 139.607487 
L 280.832465 142.20933 
L 281.027258 139.68394 
L 281.092189 139.911632 
L 281.15712 141.337423 
L 281.416844 137.123812 
L 281.481775 136.404889 
L 281.676567 139.571957 
L 281.87136 133.388665 
L 281.936291 133.654345 
L 282.066153 132.199844 
L 282.196015 135.363502 
L 282.260945 135.250965 
L 282.325876 133.569169 
L 282.390807 133.934618 
L 282.715462 132.500737 
L 282.780393 132.312858 
L 282.845324 130.617976 
L 282.910255 132.27019 
L 282.975185 131.614951 
L 283.040116 131.494562 
L 283.234909 133.922166 
L 283.29984 133.545218 
L 283.429702 136.425668 
L 283.494633 134.549013 
L 283.559564 135.411562 
L 283.689425 136.607917 
L 284.01408 129.585074 
L 284.079011 130.229369 
L 284.208873 130.236506 
L 284.273804 134.840944 
L 284.338735 134.474781 
L 284.403665 134.736338 
L 284.468596 133.597561 
L 284.663389 138.21556 
L 284.793251 137.477048 
L 284.923113 133.313243 
L 284.988044 134.102353 
L 285.052975 134.028042 
L 285.117905 134.267313 
L 285.182836 133.917884 
L 285.247767 136.519092 
L 285.312698 135.879794 
L 285.44256 133.271844 
L 285.507491 129.964799 
L 285.572422 130.322476 
L 285.637353 130.452302 
L 285.767215 133.174455 
L 285.897076 129.686984 
L 286.091869 132.761025 
L 286.611316 129.247462 
L 286.676247 129.630041 
L 286.87104 132.221178 
L 287.130764 128.266586 
L 287.520349 134.010753 
L 287.58528 133.373437 
L 287.650211 132.546418 
L 287.715142 132.691155 
L 287.780073 133.73278 
L 287.845004 132.296124 
L 287.909935 132.595034 
L 288.169658 130.094784 
L 288.29952 131.631606 
L 288.494313 138.872227 
L 288.559244 139.107532 
L 288.689105 135.637985 
L 288.818967 138.271155 
L 288.883898 137.731546 
L 288.948829 136.790324 
L 289.01376 139.474488 
L 289.078691 139.305484 
L 289.208553 141.260257 
L 289.338415 142.623078 
L 289.598138 139.15361 
L 289.663069 140.419914 
L 289.728 137.914271 
L 289.922793 141.899555 
L 289.987724 144.3293 
L 290.052655 143.205671 
L 290.182516 144.672623 
L 290.312378 142.135178 
L 290.507171 144.207484 
L 290.572102 143.321064 
L 290.637033 144.418839 
L 290.701964 143.271814 
L 290.896756 138.380996 
L 290.961687 138.792047 
L 291.091549 134.015432 
L 291.15648 134.433462 
L 291.221411 132.303737 
L 291.286342 132.684651 
L 291.351273 132.73636 
L 291.416204 132.295965 
L 291.481135 132.342677 
L 291.546065 135.231138 
L 291.610996 134.76814 
L 291.675927 135.896369 
L 291.805789 132.458228 
L 291.87072 131.929405 
L 291.935651 132.297789 
L 292.000582 133.59423 
L 292.260305 130.448813 
L 292.390167 132.308258 
L 292.455098 129.593163 
L 292.520029 130.811248 
L 292.649891 129.460323 
L 292.714822 129.647093 
L 292.779753 129.036266 
L 292.909615 131.411765 
L 292.974545 131.090094 
L 293.039476 131.10421 
L 293.104407 130.570946 
L 293.169338 131.662853 
L 293.234269 131.066539 
L 293.364131 129.989463 
L 293.429062 132.475597 
L 293.493993 131.535009 
L 293.623855 133.80384 
L 293.688785 132.83026 
L 293.753716 132.727715 
L 293.948509 130.011432 
L 294.078371 132.292555 
L 294.143302 131.675542 
L 294.208233 131.261557 
L 294.273164 131.347922 
L 294.403025 132.782755 
L 294.467956 133.581937 
L 294.532887 131.744143 
L 294.72768 136.672711 
L 294.987404 131.005472 
L 295.117265 132.990778 
L 295.182196 132.929315 
L 295.831505 124.335469 
L 296.026298 128.880982 
L 296.091229 129.44121 
L 296.15616 128.720146 
L 296.221091 130.753592 
L 296.286022 130.742489 
L 296.610676 125.536265 
L 296.675607 126.15645 
L 296.935331 129.888426 
L 297.065193 126.241547 
L 297.130124 126.938026 
L 297.389847 131.843357 
L 297.454778 130.469433 
L 297.519709 131.087239 
L 297.58464 130.752561 
L 297.714502 131.698462 
L 297.844364 131.207627 
L 297.974225 132.676324 
L 298.039156 130.328027 
L 298.104087 131.38488 
L 298.233949 130.327948 
L 298.29888 130.321365 
L 298.363811 131.253071 
L 298.493673 128.408229 
L 298.558604 128.635208 
L 298.623535 129.630041 
L 298.688465 129.460006 
L 298.753396 128.522432 
L 298.818327 128.535439 
L 298.883258 128.638935 
L 298.948189 131.372746 
L 299.01312 131.172573 
L 299.078051 131.584338 
L 299.142982 131.327223 
L 299.207913 131.537864 
L 299.467636 134.285871 
L 299.532567 132.901637 
L 299.662429 135.764084 
L 299.72736 135.257626 
L 299.792291 134.783764 
L 300.052015 130.797845 
L 300.116945 131.322861 
L 300.246807 134.18174 
L 300.311738 132.443081 
L 300.376669 132.718119 
L 300.4416 134.362641 
L 300.571462 132.617002 
L 300.701324 136.314637 
L 300.766255 136.218755 
L 300.831185 136.659625 
L 300.961047 135.528065 
L 301.025978 135.780422 
L 301.15584 136.683735 
L 301.220771 132.035836 
L 301.285702 133.372724 
L 301.350633 134.75101 
L 301.545425 131.170591 
L 301.740218 129.872326 
L 301.87008 133.349011 
L 301.935011 133.208398 
L 301.999942 134.652113 
L 302.064873 134.593822 
L 302.129804 133.814625 
L 302.324596 138.832652 
L 302.389527 136.958853 
L 302.454458 136.121999 
L 302.519389 139.656023 
L 302.58432 139.265037 
L 302.649251 139.091433 
L 302.714182 138.146087 
L 302.908975 131.762939 
L 303.038836 132.324516 
L 303.168698 129.537331 
L 303.233629 130.338417 
L 303.29856 130.574119 
L 303.428422 128.555028 
L 303.493353 129.005891 
L 303.558284 130.361733 
L 303.623215 129.838779 
L 303.688145 129.605377 
L 303.882938 125.500656 
L 304.0128 125.967539 
L 304.077731 126.168822 
L 304.142662 125.37987 
L 304.207593 125.627786 
L 304.272524 125.993235 
L 304.337455 125.494073 
L 304.72704 128.928804 
L 304.791971 128.855048 
L 304.921833 129.693091 
L 304.986764 129.537965 
L 305.116625 127.595327 
L 305.246487 130.711797 
L 305.311418 130.356975 
L 305.376349 129.875102 
L 305.571142 126.062867 
L 305.765935 131.757943 
L 305.830865 132.917578 
L 306.15552 128.033342 
L 306.415244 130.90158 
L 306.739898 126.787659 
L 306.999622 129.061565 
L 307.064553 128.154921 
L 307.259345 122.423047 
L 307.324276 123.773734 
L 307.389207 123.351421 
L 307.519069 123.897453 
L 307.648931 121.466439 
L 307.713862 124.582274 
L 307.778793 123.461579 
L 307.973585 124.722886 
L 308.038516 124.285109 
L 308.103447 124.417949 
L 308.168378 124.321352 
L 308.233309 125.523972 
L 308.363171 122.23707 
L 308.428102 124.679426 
L 308.493033 123.548024 
L 308.557964 124.344827 
L 308.622895 124.225787 
L 308.752756 123.019439 
L 308.817687 121.762335 
L 308.882618 123.344204 
L 308.947549 122.349687 
L 309.077411 118.394778 
L 309.661789 126.205462 
L 309.72672 125.916862 
L 309.791651 126.193407 
L 309.856582 125.494708 
L 309.921513 125.559978 
L 309.986444 125.345847 
L 310.181236 123.705688 
L 310.246167 125.606531 
L 310.311098 124.958985 
L 310.505891 124.519621 
L 310.765615 128.284747 
L 310.830545 128.754883 
L 310.895476 130.590535 
L 311.090269 128.37722 
L 311.1552 128.343038 
L 311.349993 131.045919 
L 311.479855 129.994063 
L 311.544785 132.117047 
L 311.609716 132.029333 
L 311.804509 129.987877 
L 311.934371 129.518376 
L 312.194095 125.772522 
L 312.259025 125.599235 
L 312.453818 123.797764 
L 312.648611 126.591452 
L 312.843404 128.700795 
L 312.908335 128.320277 
L 313.29792 139.066055 
L 313.492713 133.780127 
L 313.882298 142.861952 
L 314.01216 144.782464 
L 314.077091 144.482602 
L 314.142022 146.897596 
L 314.206953 144.12667 
L 314.271884 145.552223 
L 314.466676 143.426939 
L 314.531607 143.526787 
L 314.596538 143.430508 
L 314.661469 143.951717 
L 314.791331 142.585803 
L 314.856262 145.712028 
L 314.921193 144.374268 
L 314.986124 144.841786 
L 315.051055 144.174016 
L 315.115985 144.196143 
L 315.180916 144.340959 
L 315.310778 144.995881 
L 315.44064 142.015503 
L 315.570502 143.680327 
L 315.700364 142.830467 
L 315.765295 142.823884 
L 315.830225 142.497772 
L 315.895156 139.774588 
L 315.960087 140.400801 
L 316.025018 140.820734 
L 316.284742 137.169018 
L 316.479535 143.836404 
L 316.544465 143.386016 
L 316.739258 141.300624 
L 316.804189 141.421965 
L 316.998982 143.737428 
L 317.063913 141.244633 
L 317.128844 142.2815 
L 317.193775 141.767349 
L 317.388567 138.906726 
L 317.453498 138.598933 
L 317.518429 137.73345 
L 317.58336 138.200095 
L 317.648291 137.887941 
L 317.713222 135.622203 
L 317.778153 136.519965 
L 317.843084 135.894149 
L 317.908015 136.05554 
L 317.972945 136.231365 
L 318.037876 135.478657 
L 318.102807 135.595397 
L 318.167738 135.382615 
L 318.492393 138.612653 
L 318.687185 137.331678 
L 318.752116 137.870335 
L 318.881978 135.861633 
L 319.01184 138.569669 
L 319.206633 135.983687 
L 319.271564 136.918644 
L 319.466356 133.168983 
L 319.531287 132.629374 
L 319.596218 132.722481 
L 319.791011 126.08539 
L 319.855942 126.298728 
L 319.920873 126.200386 
L 319.985804 130.41939 
L 320.050735 129.086943 
L 320.115665 127.819133 
L 320.180596 129.735441 
L 320.245527 128.857189 
L 320.44032 123.079634 
L 320.505251 123.212157 
L 320.570182 124.548489 
L 320.635113 123.110722 
L 320.700044 123.311608 
L 320.764975 123.322077 
L 320.829905 122.996757 
L 321.024698 128.701271 
L 321.089629 128.611019 
L 321.479215 133.558621 
L 321.544145 133.437121 
L 321.674007 133.276603 
L 321.8688 131.313662 
L 321.933731 132.554508 
L 321.998662 131.225154 
L 322.128524 132.271618 
L 322.258385 129.478088 
L 322.453178 132.345849 
L 322.712902 134.248834 
L 322.777833 133.671872 
L 322.972625 127.674952 
L 323.167418 132.493837 
L 323.492073 129.712046 
L 323.557004 130.336196 
L 323.621935 130.827824 
L 323.686865 129.858606 
L 323.816727 132.075093 
L 323.881658 131.770473 
L 323.946589 131.933371 
L 324.01152 131.553726 
L 324.076451 132.069621 
L 324.336175 128.365879 
L 324.530967 134.10497 
L 324.595898 134.278178 
L 324.72576 138.239908 
L 324.790691 137.908085 
L 324.920553 141.038513 
L 324.985484 140.236793 
L 325.050415 140.655219 
L 325.245207 138.326194 
L 325.310138 138.737642 
L 325.375069 139.593926 
L 325.504931 135.178636 
L 325.634793 135.95244 
L 325.764655 134.664168 
L 325.959447 136.875104 
L 326.15424 134.98116 
L 326.413964 137.251815 
L 326.478895 134.539814 
L 326.543825 136.060457 
L 326.608756 136.7816 
L 326.673687 134.901298 
L 326.738618 135.506256 
L 326.86848 135.494994 
L 326.933411 134.729676 
L 326.998342 136.770735 
L 327.063273 136.618068 
L 327.128204 135.976867 
L 327.193135 136.084408 
L 327.322996 137.894285 
L 327.517789 131.410655 
L 327.647651 132.685206 
L 327.842444 128.749172 
L 327.972305 126.045499 
L 328.037236 127.416647 
L 328.102167 126.755143 
L 328.361891 128.001064 
L 328.426822 127.597389 
L 328.491753 127.620943 
L 328.556684 126.606837 
L 328.881338 130.682611 
L 328.946269 130.564364 
L 329.0112 130.761205 
L 329.205993 127.464628 
L 329.400785 132.842949 
L 329.465716 132.667204 
L 329.530647 130.497904 
L 329.595578 130.924499 
L 329.660509 130.423434 
L 329.72544 131.108493 
L 329.790371 133.764186 
L 329.855302 133.72588 
L 329.920233 133.601923 
L 330.374749 127.049136 
L 330.504611 128.169038 
L 330.569542 127.59723 
L 330.634473 127.892334 
L 330.764335 128.567875 
L 330.829265 129.512349 
L 331.15392 120.582398 
L 331.218851 120.176581 
L 331.348713 116.218023 
L 331.478575 117.249973 
L 331.543505 116.686255 
L 331.673367 118.01545 
L 331.933091 124.059796 
L 331.998022 124.028628 
L 332.127884 122.33335 
L 332.192815 122.591099 
L 332.257745 122.576031 
L 332.322676 123.112784 
L 332.712262 132.309685 
L 333.036916 127.651159 
L 333.166778 131.884676 
L 333.231709 130.513369 
L 333.361571 127.700489 
L 333.426502 128.039687 
L 333.556364 124.055196 
L 333.621295 124.365051 
L 333.881018 126.779966 
L 334.140742 122.674134 
L 334.400465 125.37987 
L 334.595258 123.799588 
L 334.660189 123.801412 
L 334.790051 121.83284 
L 334.984844 125.52651 
L 335.049775 125.364088 
L 335.244567 123.38473 
L 335.309498 123.715205 
L 335.374429 123.208271 
L 335.43936 121.777245 
L 335.699084 124.964457 
L 335.893876 121.498558 
L 336.023738 124.11666 
L 336.1536 121.068553 
L 336.218531 121.103686 
L 336.348393 120.323538 
L 336.478255 123.044501 
L 336.608116 126.335209 
L 336.673047 125.27106 
L 336.86784 127.55599 
L 336.997702 126.655691 
L 337.257425 132.636432 
L 337.322356 132.311192 
L 337.517149 137.341591 
L 337.647011 134.847368 
L 337.711942 135.413862 
L 337.776873 135.634734 
L 337.841804 136.257536 
L 337.906735 135.252709 
L 338.101527 137.787696 
L 338.166458 137.631064 
L 338.426182 129.116763 
L 338.620975 132.139888 
L 338.685905 131.423503 
L 338.880698 126.712634 
L 338.945629 126.908444 
L 339.01056 126.487559 
L 339.270284 119.16763 
L 339.465076 123.293685 
L 339.530007 123.543662 
L 339.659869 120.4011 
L 340.179316 131.107779 
L 340.309178 130.496794 
L 340.374109 130.787773 
L 340.568902 135.872894 
L 340.828625 133.063028 
L 340.958487 132.920909 
L 341.023418 132.218164 
L 341.283142 135.872736 
L 341.477935 133.028608 
L 341.542865 132.719943 
L 341.672727 130.673174 
L 341.802589 133.748324 
L 341.86752 132.779662 
L 341.932451 134.640772 
L 341.997382 134.400153 
L 342.062313 133.357179 
L 342.127244 133.441959 
L 342.192175 133.974589 
L 342.322036 136.327565 
L 342.386967 136.291083 
L 342.451898 136.410203 
L 342.516829 135.104563 
L 342.58176 135.530048 
L 342.711622 138.516612 
L 342.776553 136.397038 
L 342.841484 136.901038 
L 342.971345 135.15762 
L 343.036276 132.559028 
L 343.231069 137.176076 
L 343.490793 136.24445 
L 343.750516 128.406009 
L 343.815447 128.901284 
L 344.01024 126.012903 
L 344.140102 133.075003 
L 344.269964 132.705509 
L 344.334895 133.462579 
L 344.529687 131.623754 
L 344.594618 131.105321 
L 344.659549 131.579501 
L 344.919273 136.296238 
L 344.984204 136.050305 
L 345.049135 134.418552 
L 345.243927 137.521381 
L 345.373789 139.343155 
L 345.503651 137.69102 
L 345.568582 138.107147 
L 345.633513 138.705443 
L 345.698444 138.021733 
L 345.763375 141.053978 
L 345.828305 138.999833 
L 345.893236 138.819567 
L 345.958167 139.301677 
L 346.088029 142.767655 
L 346.15296 142.21052 
L 346.282822 140.678456 
L 346.412684 144.296388 
L 346.477615 143.332484 
L 346.542545 143.349535 
L 346.607476 144.711642 
L 346.737338 141.058419 
L 346.932131 143.685958 
L 346.997062 143.561762 
L 347.061993 142.732126 
L 347.126924 142.808023 
L 347.191855 143.900405 
L 347.256785 143.202419 
L 347.321716 142.789465 
L 347.516509 145.100884 
L 347.646371 142.748463 
L 347.711302 144.519242 
L 347.776233 143.097733 
L 347.971025 148.322991 
L 348.035956 148.062149 
L 348.100887 148.367641 
L 348.165818 148.256056 
L 348.29568 145.221193 
L 348.360611 144.742889 
L 348.490473 142.288796 
L 348.620335 145.158778 
L 348.685265 143.923166 
L 348.944989 138.376634 
L 349.00992 140.172236 
L 349.074851 139.31849 
L 349.204713 137.546284 
L 349.269644 138.1767 
L 349.464436 140.563936 
L 349.529367 140.794721 
L 349.72416 137.795151 
L 349.918953 141.886469 
L 350.113745 147.746742 
L 350.373469 150.383401 
L 350.503331 150.339465 
L 350.763055 144.891512 
L 350.827985 143.803412 
L 350.892916 144.944886 
L 350.957847 144.035625 
L 351.022778 144.862564 
L 351.282502 140.955478 
L 351.412364 145.231662 
L 351.477295 145.021418 
L 351.542225 147.212685 
L 351.607156 144.849399 
L 351.672087 145.397811 
L 351.86688 150.323366 
L 352.061673 153.144494 
L 352.126604 154.223949 
L 352.191535 154.179616 
L 352.321396 150.390301 
L 352.386327 150.579132 
L 352.58112 146.943833 
L 352.646051 147.10451 
L 352.710982 147.629209 
L 353.29536 136.872566 
L 353.360291 136.382128 
L 353.425222 134.900742 
L 353.490153 136.645747 
L 353.555084 135.473977 
L 353.620015 135.806117 
L 353.684945 135.196956 
L 353.749876 137.75407 
L 353.814807 136.14143 
L 353.879738 133.844604 
L 353.944669 134.695336 
L 354.139462 135.995662 
L 354.464116 130.078764 
L 354.529047 132.008872 
L 354.593978 131.913385 
L 354.658909 132.15567 
L 354.72384 133.117909 
L 354.788771 131.62994 
L 355.048495 135.452564 
L 355.113425 134.714528 
L 355.243287 138.084782 
L 355.308218 137.99112 
L 355.43808 140.490498 
L 355.632873 138.819884 
L 355.697804 138.119757 
L 356.087389 143.740918 
L 356.15232 143.422022 
L 356.217251 143.923563 
L 356.282182 143.636549 
L 356.541905 137.508533 
L 356.606836 137.750818 
L 356.671767 139.165586 
L 356.86656 134.682885 
L 356.931491 134.886229 
L 356.996422 133.655376 
L 357.061353 134.18293 
L 357.126284 133.360034 
L 357.256145 136.424954 
L 357.321076 136.267846 
L 357.386007 135.316393 
L 357.450938 136.103759 
L 357.515869 135.660667 
L 357.5808 135.676925 
L 357.645731 134.402374 
L 357.710662 134.875523 
L 357.775593 134.303715 
L 357.840524 131.369336 
L 357.905455 132.433722 
L 357.970385 132.310716 
L 358.424902 121.188466 
L 358.489833 121.354457 
L 358.619695 118.586702 
L 358.814487 121.876855 
L 359.00928 119.968478 
L 359.074211 121.537261 
L 359.139142 120.522203 
L 359.204073 120.302125 
L 359.333935 121.585004 
L 359.398865 121.310362 
L 359.528727 119.037407 
L 359.658589 120.723406 
L 359.72352 120.497935 
L 359.788451 120.390394 
L 359.918313 122.483479 
L 359.983244 121.028978 
L 360.113105 122.130243 
L 360.178036 122.109068 
L 360.242967 120.633075 
L 360.307898 121.528854 
L 360.43776 124.640248 
L 360.632553 122.822836 
L 360.827345 124.62859 
L 361.152 130.516859 
L 361.216931 130.18337 
L 361.411724 127.455032 
L 361.476655 128.537263 
L 361.671447 123.549135 
L 361.736378 123.681023 
L 361.801309 124.325714 
L 361.86624 122.272124 
L 361.931171 122.733694 
L 362.190895 127.209416 
L 362.58048 121.328523 
L 362.645411 121.255639 
L 362.840204 119.608263 
L 362.905135 120.663767 
L 362.970065 118.366703 
L 363.034996 119.035662 
L 363.359651 128.997881 
L 363.424582 128.422187 
L 363.489513 129.000815 
L 363.554444 128.409102 
L 363.619375 130.143558 
L 363.684305 128.144214 
L 364.073891 135.360568 
L 364.138822 135.125103 
L 364.333615 137.979858 
L 364.463476 135.768605 
L 364.528407 135.909297 
L 364.658269 138.722098 
L 364.788131 137.434302 
L 365.502371 145.464509 
L 365.567302 144.837424 
L 365.632233 144.849082 
L 365.697164 146.452364 
L 365.762095 146.254809 
L 365.891956 146.462515 
L 366.021818 148.844518 
L 366.086749 148.509681 
L 366.15168 147.759352 
L 366.216611 148.475737 
L 366.281542 148.387944 
L 366.346473 148.12266 
L 366.411404 146.669587 
L 366.476335 147.610175 
L 366.671127 146.161146 
L 366.736058 146.469098 
L 366.800989 146.597338 
L 366.86592 144.300274 
L 366.930851 144.642724 
L 367.060713 146.053923 
L 367.125644 145.776108 
L 367.255505 143.005499 
L 367.320436 143.638214 
L 367.58016 138.942493 
L 367.904815 143.037539 
L 367.969745 142.095841 
L 368.164538 144.626069 
L 368.2944 142.946415 
L 368.359331 144.983667 
L 368.424262 144.302019 
L 368.554124 140.853409 
L 368.619055 140.58527 
L 368.683985 142.126533 
L 368.748916 142.12122 
L 368.813847 141.424582 
L 368.943709 143.687544 
L 369.00864 142.851721 
L 369.073571 142.088703 
L 369.138502 142.821029 
L 369.203433 142.633229 
L 369.268364 142.416402 
L 369.398225 139.229666 
L 369.463156 141.415144 
L 369.528087 141.410782 
L 369.917673 131.133316 
L 369.982604 130.907607 
L 370.047535 131.626609 
L 370.307258 125.247347 
L 370.372189 123.947417 
L 370.43712 125.451088 
L 370.502051 123.572213 
L 370.566982 124.033069 
L 370.696844 126.621271 
L 370.826705 123.623446 
L 370.956567 125.827006 
L 371.021498 126.107596 
L 371.15136 123.197723 
L 371.346153 125.120772 
L 371.476015 125.918606 
L 371.605876 124.514466 
L 371.670807 125.126403 
L 371.8656 121.345336 
L 371.930531 121.721809 
L 372.190255 116.206048 
L 372.255185 116.933853 
L 372.449978 118.928994 
L 372.57984 118.395333 
L 372.709702 121.839502 
L 372.774633 121.700713 
L 373.034356 116.736853 
L 373.164218 118.066603 
L 373.29408 117.927339 
L 373.423942 117.794658 
L 373.488873 117.885941 
L 373.748596 119.736345 
L 373.813527 119.107911 
L 373.943389 120.568043 
L 374.00832 120.401021 
L 374.073251 121.130016 
L 374.203113 119.243686 
L 374.332975 121.297514 
L 374.462836 120.171505 
L 374.527767 121.605862 
L 374.592698 121.316944 
L 374.657629 119.123456 
L 374.72256 119.680988 
L 374.787491 119.909156 
L 374.852422 117.142908 
L 374.917353 117.482027 
L 374.982284 117.648573 
L 375.047215 119.488588 
L 375.242007 116.469825 
L 375.371869 117.959935 
L 375.4368 115.86796 
L 375.501731 117.308978 
L 375.566662 118.200474 
L 375.631593 117.098258 
L 375.891316 122.097013 
L 376.086109 118.996246 
L 376.15104 119.758471 
L 376.280902 118.771965 
L 376.475695 122.00232 
L 376.540625 120.451144 
L 376.735418 125.03052 
L 376.800349 126.0888 
L 376.86528 125.598521 
L 376.930211 125.006014 
L 377.060073 128.757817 
L 377.384727 124.365209 
L 377.644451 127.8618 
L 377.839244 126.700738 
L 377.904175 127.059922 
L 377.969105 127.069518 
L 378.034036 127.351218 
L 378.098967 127.187448 
L 378.163898 127.168731 
L 378.228829 125.560771 
L 378.683345 133.508022 
L 378.813207 131.40772 
L 378.878138 131.759767 
L 378.943069 131.882455 
L 379.072931 136.148726 
L 379.137862 133.332118 
L 379.202793 134.261365 
L 379.267724 133.788533 
L 379.527447 139.401446 
L 379.657309 138.95661 
L 379.72224 139.147345 
L 379.787171 137.748677 
L 379.852102 139.040042 
L 379.917033 138.261241 
L 379.981964 137.125716 
L 380.046895 137.907371 
L 380.111825 137.27981 
L 380.306618 138.629704 
L 380.43648 135.091794 
L 380.501411 137.322002 
L 380.566342 136.990259 
L 380.696204 137.065442 
L 381.020858 131.20501 
L 381.085789 131.035371 
L 381.15072 132.11102 
L 381.215651 131.142199 
L 381.475375 138.380044 
L 381.605236 136.691428 
L 381.670167 136.537254 
L 381.735098 137.147288 
L 381.86496 133.473841 
L 381.994822 133.919629 
L 382.059753 133.745945 
L 382.189615 138.522639 
L 382.254545 137.786348 
L 382.319476 135.766146 
L 382.449338 140.435696 
L 382.514269 140.08476 
L 382.5792 140.579639 
L 382.644131 140.549264 
L 382.709062 140.701614 
L 382.773993 142.223606 
L 382.968785 137.824257 
L 383.033716 138.463238 
L 383.098647 136.906113 
L 383.163578 139.48004 
L 383.29344 136.593879 
L 383.423302 138.034422 
L 383.553164 133.619053 
L 383.618095 135.311873 
L 383.683025 135.842599 
L 383.877818 134.276037 
L 383.942749 134.250103 
L 384.072611 131.613286 
L 384.137542 131.903155 
L 384.332335 133.161607 
L 384.656989 129.509415 
L 384.72192 131.575139 
L 384.786851 130.842813 
L 384.851782 131.818534 
L 385.046575 129.085278 
L 385.241367 130.234524 
L 385.306298 129.585709 
L 385.371229 129.727352 
L 385.43616 129.466113 
L 385.566022 123.57031 
L 385.630953 123.959868 
L 385.825745 120.879166 
L 385.955607 123.519632 
L 386.1504 121.176887 
L 386.280262 120.618562 
L 386.345193 120.980601 
L 386.539985 117.18169 
L 386.604916 117.852949 
L 386.669847 117.054956 
L 386.86464 119.256137 
L 386.929571 121.061574 
L 386.994502 119.055013 
L 387.124364 121.307744 
L 387.189295 121.238271 
L 387.254225 121.758132 
L 387.319156 121.546777 
L 387.384087 121.722761 
L 387.57888 120.045723 
L 387.773673 120.868777 
L 387.838604 118.421584 
L 387.903535 119.027018 
L 388.033396 121.332806 
L 388.358051 127.661152 
L 388.422982 127.171904 
L 388.552844 132.046701 
L 388.747636 125.672039 
L 388.812567 125.905283 
L 388.942429 122.46278 
L 389.072291 120.433379 
L 389.137222 121.000031 
L 389.202153 120.665988 
L 389.267084 118.379947 
L 389.332015 119.701053 
L 389.591738 123.759379 
L 389.786531 120.00139 
L 389.981324 118.615808 
L 390.046255 119.112908 
L 390.111185 117.042663 
L 390.176116 119.49747 
L 390.241047 119.044307 
L 390.305978 119.647758 
L 390.370909 119.636179 
L 390.43584 118.87903 
L 390.500771 119.095619 
L 390.565702 119.364868 
L 390.695564 118.279703 
L 390.825425 118.305478 
L 390.955287 118.719225 
L 391.085149 121.956956 
L 391.15008 121.350174 
L 391.279942 119.344565 
L 391.344873 120.168016 
L 391.604596 116.09478 
L 391.669527 116.126582 
L 391.799389 118.574806 
L 391.86432 117.746359 
L 392.124044 121.981621 
L 392.253905 121.448436 
L 392.318836 125.093253 
L 392.383767 123.813625 
L 392.513629 122.073855 
L 392.773353 124.364099 
L 392.838284 121.652257 
L 392.968145 123.937028 
L 393.098007 124.213891 
L 393.162938 123.950352 
L 393.227869 124.943361 
L 393.2928 122.929029 
L 393.357731 122.937435 
L 393.422662 122.425981 
L 393.747316 115.695625 
L 393.812247 116.001593 
L 394.00704 119.314587 
L 394.071971 119.350275 
L 394.266764 115.508062 
L 394.331695 116.458325 
L 394.396625 117.367904 
L 394.461556 117.201199 
L 394.656349 113.144142 
L 394.72128 112.659097 
L 394.786211 111.331171 
L 394.851142 111.89933 
L 394.916073 113.521329 
L 395.045935 107.870189 
L 395.175796 109.065592 
L 395.240727 108.655414 
L 396.542625 346.6 
L 396.542625 346.6 
" clip-path="url(#p1d45e16b87)" style="fill: none; stroke: #1f77b4; stroke-width: 1.5; stroke-linecap: square"/>
   </g>
   <g id="patch_3">
    <path d="M 57.6 307.584 
L 57.6 41.472 
" style="fill: none; stroke: #000000; stroke-width: 0.8; stroke-linejoin: miter; stroke-linecap: square"/>
   </g>
   <g id="patch_4">
    <path d="M 414.72 307.584 
L 414.72 41.472 
" style="fill: none; stroke: #000000; stroke-width: 0.8; stroke-linejoin: miter; stroke-linecap: square"/>
   </g>
   <g id="patch_5">
    <path d="M 57.6 307.584 
L 414.72 307.584 
" style="fill: none; stroke: #000000; stroke-width: 0.8; stroke-linejoin: miter; stroke-linecap: square"/>
   </g>
   <g id="patch_6">
    <path d="M 57.6 41.472 
L 414.72 41.472 
" style="fill: none; stroke: #000000; stroke-width: 0.8; stroke-linejoin: miter; stroke-linecap: square"/>
   </g>
  </g>
 </g>
 <defs>
  <clipPath id="p1d45e16b87">
   <rect x="57.6" y="41.472" width="357.12" height="266.112"/>
  </clipPath>
 </defs>
</svg>
