<?xml version="1.0" encoding="utf-8" standalone="no"?>
<!DOCTYPE svg PUBLIC "-//W3C//DTD SVG 1.1//EN"
  "http://www.w3.org/Graphics/SVG/1.1/DTD/svg11.dtd">
<svg xmlns:xlink="http://www.w3.org/1999/xlink" width="460.8pt" height="345.6pt" viewBox="0 0 460.8 345.6" xmlns="http://www.w3.org/2000/svg" version="1.1">
 <metadata>
  <rdf:RDF xmlns:dc="http://purl.org/dc/elements/1.1/" xmlns:cc="http://creativecommons.org/ns#" xmlns:rdf="http://www.w3.org/1999/02/22-rdf-syntax-ns#">
   <cc:Work>
    <dc:type rdf:resource="http://purl.org/dc/dcmitype/StillImage"/>
    <dc:date>2025-05-20T14:03:33.661596</dc:date>
    <dc:format>image/svg+xml</dc:format>
    <dc:creator>
     <cc:Agent>
      <dc:title>Matplotlib v3.7.5, https://matplotlib.org/</dc:title>
     </cc:Agent>
    </dc:creator>
   </cc:Work>
  </rdf:RDF>
 </metadata>
 <defs>
  <style type="text/css">*{stroke-linejoin: round; stroke-linecap: butt}</style>
 </defs>
 <g id="figure_1">
  <g id="patch_1">
   <path d="M 0 345.6 
L 460.8 345.6 
L 460.8 0 
L 0 0 
z
" style="fill: #ffffff"/>
  </g>
  <g id="axes_1">
   <g id="patch_2">
    <path d="M 57.6 307.584 
L 414.72 307.584 
L 414.72 41.472 
L 57.6 41.472 
z
" style="fill: #ffffff"/>
   </g>
   <g id="matplotlib.axis_1">
    <g id="xtick_1">
     <g id="line2d_1">
      <defs>
       <path id="m3bc4989781" d="M 0 0 
L 0 3.5 
" style="stroke: #000000; stroke-width: 0.8"/>
      </defs>
      <g>
       <use xlink:href="#m3bc4989781" x="73.832727" y="307.584" style="stroke: #000000; stroke-width: 0.8"/>
      </g>
     </g>
     <g id="text_1">
      <!-- 0 -->
      <g transform="translate(70.651477 322.182437) scale(0.1 -0.1)">
       <defs>
        <path id="DejaVuSans-30" d="M 2034 4250 
Q 1547 4250 1301 3770 
Q 1056 3291 1056 2328 
Q 1056 1369 1301 889 
Q 1547 409 2034 409 
Q 2525 409 2770 889 
Q 3016 1369 3016 2328 
Q 3016 3291 2770 3770 
Q 2525 4250 2034 4250 
z
M 2034 4750 
Q 2819 4750 3233 4129 
Q 3647 3509 3647 2328 
Q 3647 1150 3233 529 
Q 2819 -91 2034 -91 
Q 1250 -91 836 529 
Q 422 1150 422 2328 
Q 422 3509 836 4129 
Q 1250 4750 2034 4750 
z
" transform="scale(0.015625)"/>
       </defs>
       <use xlink:href="#DejaVuSans-30"/>
      </g>
     </g>
    </g>
    <g id="xtick_2">
     <g id="line2d_2">
      <g>
       <use xlink:href="#m3bc4989781" x="138.763636" y="307.584" style="stroke: #000000; stroke-width: 0.8"/>
      </g>
     </g>
     <g id="text_2">
      <!-- 1000 -->
      <g transform="translate(126.038636 322.182437) scale(0.1 -0.1)">
       <defs>
        <path id="DejaVuSans-31" d="M 794 531 
L 1825 531 
L 1825 4091 
L 703 3866 
L 703 4441 
L 1819 4666 
L 2450 4666 
L 2450 531 
L 3481 531 
L 3481 0 
L 794 0 
L 794 531 
z
" transform="scale(0.015625)"/>
       </defs>
       <use xlink:href="#DejaVuSans-31"/>
       <use xlink:href="#DejaVuSans-30" x="63.623047"/>
       <use xlink:href="#DejaVuSans-30" x="127.246094"/>
       <use xlink:href="#DejaVuSans-30" x="190.869141"/>
      </g>
     </g>
    </g>
    <g id="xtick_3">
     <g id="line2d_3">
      <g>
       <use xlink:href="#m3bc4989781" x="203.694545" y="307.584" style="stroke: #000000; stroke-width: 0.8"/>
      </g>
     </g>
     <g id="text_3">
      <!-- 2000 -->
      <g transform="translate(190.969545 322.182437) scale(0.1 -0.1)">
       <defs>
        <path id="DejaVuSans-32" d="M 1228 531 
L 3431 531 
L 3431 0 
L 469 0 
L 469 531 
Q 828 903 1448 1529 
Q 2069 2156 2228 2338 
Q 2531 2678 2651 2914 
Q 2772 3150 2772 3378 
Q 2772 3750 2511 3984 
Q 2250 4219 1831 4219 
Q 1534 4219 1204 4116 
Q 875 4013 500 3803 
L 500 4441 
Q 881 4594 1212 4672 
Q 1544 4750 1819 4750 
Q 2544 4750 2975 4387 
Q 3406 4025 3406 3419 
Q 3406 3131 3298 2873 
Q 3191 2616 2906 2266 
Q 2828 2175 2409 1742 
Q 1991 1309 1228 531 
z
" transform="scale(0.015625)"/>
       </defs>
       <use xlink:href="#DejaVuSans-32"/>
       <use xlink:href="#DejaVuSans-30" x="63.623047"/>
       <use xlink:href="#DejaVuSans-30" x="127.246094"/>
       <use xlink:href="#DejaVuSans-30" x="190.869141"/>
      </g>
     </g>
    </g>
    <g id="xtick_4">
     <g id="line2d_4">
      <g>
       <use xlink:href="#m3bc4989781" x="268.625455" y="307.584" style="stroke: #000000; stroke-width: 0.8"/>
      </g>
     </g>
     <g id="text_4">
      <!-- 3000 -->
      <g transform="translate(255.900455 322.182437) scale(0.1 -0.1)">
       <defs>
        <path id="DejaVuSans-33" d="M 2597 2516 
Q 3050 2419 3304 2112 
Q 3559 1806 3559 1356 
Q 3559 666 3084 287 
Q 2609 -91 1734 -91 
Q 1441 -91 1130 -33 
Q 819 25 488 141 
L 488 750 
Q 750 597 1062 519 
Q 1375 441 1716 441 
Q 2309 441 2620 675 
Q 2931 909 2931 1356 
Q 2931 1769 2642 2001 
Q 2353 2234 1838 2234 
L 1294 2234 
L 1294 2753 
L 1863 2753 
Q 2328 2753 2575 2939 
Q 2822 3125 2822 3475 
Q 2822 3834 2567 4026 
Q 2313 4219 1838 4219 
Q 1578 4219 1281 4162 
Q 984 4106 628 3988 
L 628 4550 
Q 988 4650 1302 4700 
Q 1616 4750 1894 4750 
Q 2613 4750 3031 4423 
Q 3450 4097 3450 3541 
Q 3450 3153 3228 2886 
Q 3006 2619 2597 2516 
z
" transform="scale(0.015625)"/>
       </defs>
       <use xlink:href="#DejaVuSans-33"/>
       <use xlink:href="#DejaVuSans-30" x="63.623047"/>
       <use xlink:href="#DejaVuSans-30" x="127.246094"/>
       <use xlink:href="#DejaVuSans-30" x="190.869141"/>
      </g>
     </g>
    </g>
    <g id="xtick_5">
     <g id="line2d_5">
      <g>
       <use xlink:href="#m3bc4989781" x="333.556364" y="307.584" style="stroke: #000000; stroke-width: 0.8"/>
      </g>
     </g>
     <g id="text_5">
      <!-- 4000 -->
      <g transform="translate(320.831364 322.182437) scale(0.1 -0.1)">
       <defs>
        <path id="DejaVuSans-34" d="M 2419 4116 
L 825 1625 
L 2419 1625 
L 2419 4116 
z
M 2253 4666 
L 3047 4666 
L 3047 1625 
L 3713 1625 
L 3713 1100 
L 3047 1100 
L 3047 0 
L 2419 0 
L 2419 1100 
L 313 1100 
L 313 1709 
L 2253 4666 
z
" transform="scale(0.015625)"/>
       </defs>
       <use xlink:href="#DejaVuSans-34"/>
       <use xlink:href="#DejaVuSans-30" x="63.623047"/>
       <use xlink:href="#DejaVuSans-30" x="127.246094"/>
       <use xlink:href="#DejaVuSans-30" x="190.869141"/>
      </g>
     </g>
    </g>
    <g id="xtick_6">
     <g id="line2d_6">
      <g>
       <use xlink:href="#m3bc4989781" x="398.487273" y="307.584" style="stroke: #000000; stroke-width: 0.8"/>
      </g>
     </g>
     <g id="text_6">
      <!-- 5000 -->
      <g transform="translate(385.762273 322.182437) scale(0.1 -0.1)">
       <defs>
        <path id="DejaVuSans-35" d="M 691 4666 
L 3169 4666 
L 3169 4134 
L 1269 4134 
L 1269 2991 
Q 1406 3038 1543 3061 
Q 1681 3084 1819 3084 
Q 2600 3084 3056 2656 
Q 3513 2228 3513 1497 
Q 3513 744 3044 326 
Q 2575 -91 1722 -91 
Q 1428 -91 1123 -41 
Q 819 9 494 109 
L 494 744 
Q 775 591 1075 516 
Q 1375 441 1709 441 
Q 2250 441 2565 725 
Q 2881 1009 2881 1497 
Q 2881 1984 2565 2268 
Q 2250 2553 1709 2553 
Q 1456 2553 1204 2497 
Q 953 2441 691 2322 
L 691 4666 
z
" transform="scale(0.015625)"/>
       </defs>
       <use xlink:href="#DejaVuSans-35"/>
       <use xlink:href="#DejaVuSans-30" x="63.623047"/>
       <use xlink:href="#DejaVuSans-30" x="127.246094"/>
       <use xlink:href="#DejaVuSans-30" x="190.869141"/>
      </g>
     </g>
    </g>
   </g>
   <g id="matplotlib.axis_2">
    <g id="ytick_1">
     <g id="line2d_7">
      <defs>
       <path id="ma2f7c94306" d="M 0 0 
L -3.5 0 
" style="stroke: #000000; stroke-width: 0.8"/>
      </defs>
      <g>
       <use xlink:href="#ma2f7c94306" x="57.6" y="307.584" style="stroke: #000000; stroke-width: 0.8"/>
      </g>
     </g>
     <g id="text_7">
      <!-- 0.800 -->
      <g transform="translate(21.971875 311.383219) scale(0.1 -0.1)">
       <defs>
        <path id="DejaVuSans-2e" d="M 684 794 
L 1344 794 
L 1344 0 
L 684 0 
L 684 794 
z
" transform="scale(0.015625)"/>
        <path id="DejaVuSans-38" d="M 2034 2216 
Q 1584 2216 1326 1975 
Q 1069 1734 1069 1313 
Q 1069 891 1326 650 
Q 1584 409 2034 409 
Q 2484 409 2743 651 
Q 3003 894 3003 1313 
Q 3003 1734 2745 1975 
Q 2488 2216 2034 2216 
z
M 1403 2484 
Q 997 2584 770 2862 
Q 544 3141 544 3541 
Q 544 4100 942 4425 
Q 1341 4750 2034 4750 
Q 2731 4750 3128 4425 
Q 3525 4100 3525 3541 
Q 3525 3141 3298 2862 
Q 3072 2584 2669 2484 
Q 3125 2378 3379 2068 
Q 3634 1759 3634 1313 
Q 3634 634 3220 271 
Q 2806 -91 2034 -91 
Q 1263 -91 848 271 
Q 434 634 434 1313 
Q 434 1759 690 2068 
Q 947 2378 1403 2484 
z
M 1172 3481 
Q 1172 3119 1398 2916 
Q 1625 2713 2034 2713 
Q 2441 2713 2670 2916 
Q 2900 3119 2900 3481 
Q 2900 3844 2670 4047 
Q 2441 4250 2034 4250 
Q 1625 4250 1398 4047 
Q 1172 3844 1172 3481 
z
" transform="scale(0.015625)"/>
       </defs>
       <use xlink:href="#DejaVuSans-30"/>
       <use xlink:href="#DejaVuSans-2e" x="63.623047"/>
       <use xlink:href="#DejaVuSans-38" x="95.410156"/>
       <use xlink:href="#DejaVuSans-30" x="159.033203"/>
       <use xlink:href="#DejaVuSans-30" x="222.65625"/>
      </g>
     </g>
    </g>
    <g id="ytick_2">
     <g id="line2d_8">
      <g>
       <use xlink:href="#ma2f7c94306" x="57.6" y="274.32" style="stroke: #000000; stroke-width: 0.8"/>
      </g>
     </g>
     <g id="text_8">
      <!-- 0.825 -->
      <g transform="translate(21.971875 278.119219) scale(0.1 -0.1)">
       <use xlink:href="#DejaVuSans-30"/>
       <use xlink:href="#DejaVuSans-2e" x="63.623047"/>
       <use xlink:href="#DejaVuSans-38" x="95.410156"/>
       <use xlink:href="#DejaVuSans-32" x="159.033203"/>
       <use xlink:href="#DejaVuSans-35" x="222.65625"/>
      </g>
     </g>
    </g>
    <g id="ytick_3">
     <g id="line2d_9">
      <g>
       <use xlink:href="#ma2f7c94306" x="57.6" y="241.056" style="stroke: #000000; stroke-width: 0.8"/>
      </g>
     </g>
     <g id="text_9">
      <!-- 0.850 -->
      <g transform="translate(21.971875 244.855219) scale(0.1 -0.1)">
       <use xlink:href="#DejaVuSans-30"/>
       <use xlink:href="#DejaVuSans-2e" x="63.623047"/>
       <use xlink:href="#DejaVuSans-38" x="95.410156"/>
       <use xlink:href="#DejaVuSans-35" x="159.033203"/>
       <use xlink:href="#DejaVuSans-30" x="222.65625"/>
      </g>
     </g>
    </g>
    <g id="ytick_4">
     <g id="line2d_10">
      <g>
       <use xlink:href="#ma2f7c94306" x="57.6" y="207.792" style="stroke: #000000; stroke-width: 0.8"/>
      </g>
     </g>
     <g id="text_10">
      <!-- 0.875 -->
      <g transform="translate(21.971875 211.591219) scale(0.1 -0.1)">
       <defs>
        <path id="DejaVuSans-37" d="M 525 4666 
L 3525 4666 
L 3525 4397 
L 1831 0 
L 1172 0 
L 2766 4134 
L 525 4134 
L 525 4666 
z
" transform="scale(0.015625)"/>
       </defs>
       <use xlink:href="#DejaVuSans-30"/>
       <use xlink:href="#DejaVuSans-2e" x="63.623047"/>
       <use xlink:href="#DejaVuSans-38" x="95.410156"/>
       <use xlink:href="#DejaVuSans-37" x="159.033203"/>
       <use xlink:href="#DejaVuSans-35" x="222.65625"/>
      </g>
     </g>
    </g>
    <g id="ytick_5">
     <g id="line2d_11">
      <g>
       <use xlink:href="#ma2f7c94306" x="57.6" y="174.528" style="stroke: #000000; stroke-width: 0.8"/>
      </g>
     </g>
     <g id="text_11">
      <!-- 0.900 -->
      <g transform="translate(21.971875 178.327219) scale(0.1 -0.1)">
       <defs>
        <path id="DejaVuSans-39" d="M 703 97 
L 703 672 
Q 941 559 1184 500 
Q 1428 441 1663 441 
Q 2288 441 2617 861 
Q 2947 1281 2994 2138 
Q 2813 1869 2534 1725 
Q 2256 1581 1919 1581 
Q 1219 1581 811 2004 
Q 403 2428 403 3163 
Q 403 3881 828 4315 
Q 1253 4750 1959 4750 
Q 2769 4750 3195 4129 
Q 3622 3509 3622 2328 
Q 3622 1225 3098 567 
Q 2575 -91 1691 -91 
Q 1453 -91 1209 -44 
Q 966 3 703 97 
z
M 1959 2075 
Q 2384 2075 2632 2365 
Q 2881 2656 2881 3163 
Q 2881 3666 2632 3958 
Q 2384 4250 1959 4250 
Q 1534 4250 1286 3958 
Q 1038 3666 1038 3163 
Q 1038 2656 1286 2365 
Q 1534 2075 1959 2075 
z
" transform="scale(0.015625)"/>
       </defs>
       <use xlink:href="#DejaVuSans-30"/>
       <use xlink:href="#DejaVuSans-2e" x="63.623047"/>
       <use xlink:href="#DejaVuSans-39" x="95.410156"/>
       <use xlink:href="#DejaVuSans-30" x="159.033203"/>
       <use xlink:href="#DejaVuSans-30" x="222.65625"/>
      </g>
     </g>
    </g>
    <g id="ytick_6">
     <g id="line2d_12">
      <g>
       <use xlink:href="#ma2f7c94306" x="57.6" y="141.264" style="stroke: #000000; stroke-width: 0.8"/>
      </g>
     </g>
     <g id="text_12">
      <!-- 0.925 -->
      <g transform="translate(21.971875 145.063219) scale(0.1 -0.1)">
       <use xlink:href="#DejaVuSans-30"/>
       <use xlink:href="#DejaVuSans-2e" x="63.623047"/>
       <use xlink:href="#DejaVuSans-39" x="95.410156"/>
       <use xlink:href="#DejaVuSans-32" x="159.033203"/>
       <use xlink:href="#DejaVuSans-35" x="222.65625"/>
      </g>
     </g>
    </g>
    <g id="ytick_7">
     <g id="line2d_13">
      <g>
       <use xlink:href="#ma2f7c94306" x="57.6" y="108" style="stroke: #000000; stroke-width: 0.8"/>
      </g>
     </g>
     <g id="text_13">
      <!-- 0.950 -->
      <g transform="translate(21.971875 111.799219) scale(0.1 -0.1)">
       <use xlink:href="#DejaVuSans-30"/>
       <use xlink:href="#DejaVuSans-2e" x="63.623047"/>
       <use xlink:href="#DejaVuSans-39" x="95.410156"/>
       <use xlink:href="#DejaVuSans-35" x="159.033203"/>
       <use xlink:href="#DejaVuSans-30" x="222.65625"/>
      </g>
     </g>
    </g>
    <g id="ytick_8">
     <g id="line2d_14">
      <g>
       <use xlink:href="#ma2f7c94306" x="57.6" y="74.736" style="stroke: #000000; stroke-width: 0.8"/>
      </g>
     </g>
     <g id="text_14">
      <!-- 0.975 -->
      <g transform="translate(21.971875 78.535219) scale(0.1 -0.1)">
       <use xlink:href="#DejaVuSans-30"/>
       <use xlink:href="#DejaVuSans-2e" x="63.623047"/>
       <use xlink:href="#DejaVuSans-39" x="95.410156"/>
       <use xlink:href="#DejaVuSans-37" x="159.033203"/>
       <use xlink:href="#DejaVuSans-35" x="222.65625"/>
      </g>
     </g>
    </g>
    <g id="ytick_9">
     <g id="line2d_15">
      <g>
       <use xlink:href="#ma2f7c94306" x="57.6" y="41.472" style="stroke: #000000; stroke-width: 0.8"/>
      </g>
     </g>
     <g id="text_15">
      <!-- 1.000 -->
      <g transform="translate(21.971875 45.271219) scale(0.1 -0.1)">
       <use xlink:href="#DejaVuSans-31"/>
       <use xlink:href="#DejaVuSans-2e" x="63.623047"/>
       <use xlink:href="#DejaVuSans-30" x="95.410156"/>
       <use xlink:href="#DejaVuSans-30" x="159.033203"/>
       <use xlink:href="#DejaVuSans-30" x="222.65625"/>
      </g>
     </g>
    </g>
   </g>
   <g id="line2d_16">
    <path d="M 76.575472 346.6 
L 77.144204 260.91117 
L 77.209135 258.396169 
L 77.338996 261.106029 
L 77.468858 257.816986 
L 77.533789 258.796751 
L 77.663651 260.087006 
L 77.923375 265.782716 
L 77.988305 264.473983 
L 78.053236 264.486434 
L 78.118167 264.621416 
L 78.183098 264.06547 
L 78.248029 264.989165 
L 78.637615 258.066646 
L 78.702545 258.126365 
L 78.767476 259.210578 
L 78.832407 259.173383 
L 78.897338 258.061808 
L 78.962269 258.8805 
L 79.0272 258.298065 
L 79.092131 258.112565 
L 79.351855 250.503877 
L 79.416785 249.716671 
L 79.481716 250.153259 
L 79.546647 249.53577 
L 79.611578 247.555381 
L 79.676509 248.522537 
L 79.806371 246.787129 
L 79.871302 247.1295 
L 80.001164 250.066972 
L 80.066095 248.312134 
L 80.131025 248.479711 
L 80.195956 248.26106 
L 80.390749 251.282598 
L 80.45568 253.610434 
L 80.650473 249.677889 
L 80.845265 247.784818 
L 80.910196 247.590673 
L 81.040058 243.940781 
L 81.104989 244.155783 
L 81.429644 238.860259 
L 81.494575 239.8612 
L 81.689367 237.202097 
L 81.754298 240.719466 
L 81.819229 239.491944 
L 81.88416 238.501789 
L 81.949091 238.848601 
L 82.078953 242.93072 
L 82.468538 233.809954 
L 82.533469 234.589468 
L 82.663331 231.953999 
L 82.793193 231.938454 
L 82.923055 234.61334 
L 82.987985 234.072303 
L 83.247709 230.821407 
L 83.31264 227.405631 
L 83.377571 229.074659 
L 83.507433 232.35466 
L 83.572364 232.159881 
L 83.702225 236.716259 
L 83.767156 233.517309 
L 83.832087 234.009333 
L 84.156742 230.116205 
L 84.221673 228.593341 
L 84.351535 231.376402 
L 84.546327 227.831116 
L 84.676189 229.743697 
L 84.74112 228.210682 
L 84.806051 230.120408 
L 84.870982 229.378644 
L 84.935913 230.087019 
L 85.000844 229.825542 
L 85.065775 229.30925 
L 85.130705 231.299791 
L 85.195636 230.110415 
L 85.325498 229.470007 
L 85.650153 236.443758 
L 85.715084 236.491105 
L 85.780015 236.117645 
L 85.844945 238.367204 
L 85.909876 236.818724 
L 86.364393 243.969173 
L 86.494255 240.783943 
L 86.559185 242.184911 
L 86.753978 239.091203 
L 86.818909 239.697509 
L 87.078633 235.596277 
L 87.143564 238.037999 
L 87.208495 237.768194 
L 87.273425 238.009844 
L 87.59808 244.661448 
L 87.727942 247.460053 
L 87.792873 247.322613 
L 87.857804 247.024258 
L 88.117527 251.340255 
L 88.182458 251.21257 
L 88.31232 246.242365 
L 88.377251 248.425306 
L 88.701905 241.754033 
L 88.896698 247.282167 
L 89.02656 244.538363 
L 89.091491 245.388699 
L 89.156422 247.104359 
L 89.221353 246.642868 
L 89.286284 247.081915 
L 89.351215 246.681888 
L 89.546007 251.301236 
L 89.7408 255.079289 
L 89.805731 255.04709 
L 90.195316 247.769829 
L 90.325178 248.280094 
L 90.519971 249.965617 
L 90.649833 251.799287 
L 90.844625 247.995459 
L 91.234211 254.679579 
L 91.299142 252.057275 
L 91.364073 253.729157 
L 91.429004 252.875015 
L 91.558865 254.30263 
L 91.623796 252.64074 
L 91.688727 253.506065 
L 92.078313 246.646754 
L 92.208175 243.786686 
L 92.273105 245.427956 
L 92.467898 241.205622 
L 92.532829 241.190474 
L 92.662691 239.987537 
L 92.792553 238.526057 
L 92.987345 239.194461 
L 93.052276 238.88992 
L 93.247069 244.064659 
L 93.312 241.696139 
L 93.441862 247.4181 
L 93.571724 247.17415 
L 93.636655 244.765896 
L 93.701585 245.455158 
L 93.831447 247.956836 
L 93.896378 246.079785 
L 93.961309 247.963736 
L 94.02624 246.659523 
L 94.221033 243.620219 
L 94.415825 247.43523 
L 94.545687 246.595918 
L 94.610618 245.168858 
L 94.805411 246.725348 
L 94.870342 245.482837 
L 95.065135 248.027737 
L 95.389789 245.194633 
L 95.45472 245.357372 
L 95.584582 248.725881 
L 95.649513 248.479869 
L 95.844305 245.267517 
L 96.104029 240.494154 
L 96.16896 241.465512 
L 96.428684 243.949029 
L 96.493615 243.513313 
L 96.688407 245.674127 
L 96.753338 245.054497 
L 96.948131 246.623755 
L 97.013062 246.236972 
L 97.207855 248.547281 
L 97.532509 244.473965 
L 97.59744 244.456438 
L 97.727302 243.00051 
L 97.792233 243.897955 
L 97.857164 246.309063 
L 97.922095 245.401784 
L 98.051956 244.947431 
L 98.116887 245.763189 
L 98.181818 245.313277 
L 98.246749 245.087092 
L 98.31168 245.107712 
L 98.441542 248.274859 
L 98.506473 247.777997 
L 98.701265 251.637896 
L 98.766196 249.650132 
L 98.831127 249.9699 
L 98.960989 252.329537 
L 99.090851 252.082653 
L 99.155782 252.322479 
L 99.220713 253.743274 
L 99.285644 252.300273 
L 99.350575 253.070587 
L 99.415505 253.644615 
L 99.545367 250.85981 
L 99.74016 246.176857 
L 99.805091 247.527068 
L 99.934953 244.211616 
L 99.999884 246.014911 
L 100.129745 246.690136 
L 100.194676 250.345104 
L 100.259607 249.613016 
L 100.324538 250.304815 
L 100.389469 250.088068 
L 100.4544 250.072444 
L 100.584262 247.279867 
L 100.649193 249.892575 
L 100.714124 249.655762 
L 100.779055 250.142473 
L 100.973847 247.210473 
L 101.233571 251.485071 
L 101.298502 254.622398 
L 101.363433 254.283834 
L 101.428364 252.897142 
L 101.688087 261.152027 
L 101.817949 259.901109 
L 101.88288 259.763431 
L 101.947811 260.79205 
L 102.077673 258.279428 
L 102.207535 260.952251 
L 102.272465 259.41075 
L 102.532189 264.889554 
L 102.856844 262.802655 
L 102.921775 259.842659 
L 103.051636 265.48444 
L 103.31136 261.81718 
L 103.441222 261.120463 
L 103.506153 262.989107 
L 103.571084 261.803777 
L 103.636015 263.007903 
L 103.700945 262.101814 
L 103.895738 266.411308 
L 104.0256 268.538416 
L 104.155462 264.987737 
L 104.285324 268.387414 
L 104.350255 265.360007 
L 104.480116 268.842402 
L 104.545047 268.2035 
L 104.73984 273.44113 
L 104.804771 273.224461 
L 104.934633 272.496418 
L 104.999564 273.648757 
L 105.064495 273.074015 
L 105.259287 274.385207 
L 105.324218 276.737072 
L 105.389149 275.428101 
L 105.583942 271.95784 
L 105.713804 274.953366 
L 105.778735 274.427636 
L 105.843665 273.295917 
L 105.908596 273.746781 
L 106.103389 278.209179 
L 106.16832 278.142402 
L 106.233251 278.506107 
L 106.492975 275.520494 
L 106.557905 278.953798 
L 106.622836 277.692808 
L 106.687767 273.96218 
L 106.752698 274.657549 
L 107.077353 282.761591 
L 107.142284 281.523521 
L 107.207215 281.659058 
L 107.272145 280.607757 
L 107.337076 280.677072 
L 107.402007 280.92467 
L 107.531869 283.284863 
L 107.5968 282.7056 
L 107.791593 279.705792 
L 107.856524 280.328356 
L 107.921455 282.344354 
L 108.181178 274.651204 
L 108.246109 275.335549 
L 108.31104 274.782062 
L 108.375971 275.113329 
L 108.635695 272.443996 
L 108.700625 272.665343 
L 108.765556 273.43423 
L 109.090211 264.191251 
L 109.155142 264.573593 
L 109.285004 266.206298 
L 109.609658 259.434305 
L 109.674589 259.545732 
L 109.73952 258.366904 
L 109.934313 262.021317 
L 110.129105 258.459377 
L 110.258967 256.942065 
L 110.323898 260.337776 
L 110.388829 259.639711 
L 110.45376 259.484665 
L 110.518691 258.527423 
L 110.648553 260.169565 
L 110.778415 257.40649 
L 110.843345 257.712062 
L 110.908276 256.144786 
L 110.973207 256.624914 
L 111.038138 257.362554 
L 111.232931 254.185493 
L 111.297862 254.68513 
L 111.427724 252.843133 
L 111.557585 257.13042 
L 111.687447 253.519071 
L 111.752378 256.694387 
L 111.947171 252.997466 
L 112.141964 257.184667 
L 112.206895 254.603999 
L 112.271825 255.536894 
L 112.401687 256.245189 
L 112.466618 259.164183 
L 112.531549 258.129854 
L 112.661411 256.070158 
L 112.726342 257.309893 
L 112.791273 256.506825 
L 112.856204 256.396984 
L 112.921135 255.943662 
L 113.570444 239.897443 
L 113.635375 239.748028 
L 113.700305 241.032731 
L 113.765236 239.517243 
L 113.830167 240.142821 
L 113.960029 242.593345 
L 114.089891 240.464413 
L 114.284684 243.608244 
L 114.349615 243.164042 
L 114.414545 241.670364 
L 114.479476 242.708658 
L 114.609338 243.147071 
L 114.869062 245.837183 
L 114.933993 244.924908 
L 115.063855 250.009633 
L 115.193716 248.189762 
L 115.258647 248.17628 
L 115.323578 247.615417 
L 115.45344 248.372011 
L 115.648233 254.604395 
L 115.713164 254.137432 
L 115.778095 254.379638 
L 115.843025 258.654632 
L 115.907956 258.462549 
L 115.972887 258.398469 
L 116.232611 263.375732 
L 116.427404 260.161317 
L 116.687127 264.455583 
L 116.752058 263.577649 
L 116.946851 257.291018 
L 117.206575 262.197856 
L 117.271505 262.585194 
L 117.401367 264.087993 
L 117.466298 263.690265 
L 117.531229 266.004301 
L 117.59616 264.685972 
L 117.661091 262.767919 
L 117.920815 269.234736 
L 118.050676 266.053472 
L 118.115607 266.335569 
L 118.180538 269.900206 
L 118.245469 265.866068 
L 118.3104 266.431055 
L 118.375331 266.605453 
L 118.440262 267.411773 
L 118.505193 266.785957 
L 118.570124 267.697359 
L 118.635055 264.410219 
L 118.699985 265.447721 
L 119.02464 259.394175 
L 119.089571 260.404395 
L 119.219433 261.830583 
L 119.349295 261.519221 
L 119.414225 260.461179 
L 119.479156 263.165805 
L 119.544087 262.694956 
L 119.609018 263.451312 
L 119.73888 267.530893 
L 119.803811 267.235948 
L 119.868742 268.270991 
L 119.933673 268.157898 
L 120.128465 266.08805 
L 120.193396 266.091936 
L 120.258327 266.852258 
L 120.323258 265.562003 
L 120.388189 266.044431 
L 120.45312 265.701584 
L 120.582982 267.856291 
L 120.647913 267.350389 
L 120.777775 265.564938 
L 120.842705 268.212303 
L 120.907636 267.67666 
L 120.972567 266.782546 
L 121.037498 267.046006 
L 121.232291 265.406005 
L 121.427084 269.449263 
L 121.556945 265.43297 
L 121.621876 266.07885 
L 121.816669 263.680114 
L 121.8816 264.593261 
L 121.946531 263.77219 
L 122.141324 259.556042 
L 122.206255 259.233577 
L 122.271185 260.880161 
L 122.401047 258.861308 
L 122.465978 258.556132 
L 122.530909 257.238913 
L 122.59584 257.800173 
L 122.660771 256.976564 
L 122.855564 259.115409 
L 122.920495 258.806506 
L 122.985425 259.051091 
L 123.050356 261.560937 
L 123.180218 258.740126 
L 123.245149 259.115013 
L 123.375011 261.692587 
L 123.569804 255.77902 
L 123.634735 256.972915 
L 123.699665 256.928345 
L 123.764596 256.638951 
L 123.829527 254.990544 
L 123.894458 255.027263 
L 123.959389 256.604373 
L 124.089251 254.685051 
L 124.154182 255.792978 
L 124.219113 255.434111 
L 124.348975 250.846169 
L 124.478836 251.598004 
L 124.673629 248.155422 
L 124.803491 251.275064 
L 125.063215 249.33766 
L 125.128145 250.435038 
L 125.193076 249.622533 
L 125.258007 250.030411 
L 125.322938 250.074586 
L 125.387869 250.398081 
L 125.4528 250.097109 
L 125.582662 253.234675 
L 125.647593 252.735275 
L 125.777455 250.904777 
L 125.972247 255.640786 
L 126.037178 255.60145 
L 126.102109 255.786316 
L 126.16704 252.171477 
L 126.231971 252.663502 
L 126.296902 252.557785 
L 126.491695 256.804625 
L 127.076073 250.966954 
L 127.141004 251.518538 
L 127.335796 247.816382 
L 127.400727 247.506924 
L 127.465658 247.635323 
L 127.725382 254.441498 
L 127.790313 253.853591 
L 127.985105 250.15088 
L 128.050036 250.304974 
L 128.179898 251.223831 
L 128.30976 253.619633 
L 128.374691 251.644003 
L 128.439622 251.95584 
L 128.569484 254.262897 
L 128.634415 253.179397 
L 128.699345 253.522402 
L 128.764276 253.346022 
L 128.829207 252.134361 
L 129.024 257.122569 
L 129.153862 257.114955 
L 129.218793 256.992901 
L 129.283724 260.289082 
L 129.348655 259.657159 
L 129.413585 260.398843 
L 129.478516 260.36712 
L 129.543447 259.966459 
L 129.73824 263.15034 
L 129.997964 268.057019 
L 130.062895 268.035526 
L 130.127825 266.757168 
L 130.257687 268.958666 
L 130.322618 268.142909 
L 130.387549 269.181917 
L 130.517411 266.87954 
L 130.647273 268.391062 
L 130.712204 267.265688 
L 130.842065 270.69344 
L 130.971927 268.211907 
L 131.16672 271.692398 
L 131.296582 270.466224 
L 131.361513 270.569641 
L 131.426444 272.574377 
L 131.491375 271.445831 
L 131.556305 271.791057 
L 131.686167 270.3475 
L 131.751098 272.150558 
L 131.816029 270.995047 
L 131.88096 271.496191 
L 131.945891 268.272022 
L 132.010822 269.787906 
L 132.140684 270.621349 
L 132.205615 269.831843 
L 132.400407 272.182043 
L 132.530269 268.731292 
L 132.660131 269.325702 
L 132.789993 272.729899 
L 132.984785 269.813681 
L 133.374371 274.946466 
L 133.504233 272.500145 
L 133.569164 273.741547 
L 133.634095 272.355885 
L 133.699025 272.567477 
L 133.763956 272.275626 
L 133.958749 278.408796 
L 134.153542 275.002695 
L 134.218473 274.718536 
L 134.348335 273.160619 
L 134.543127 277.160337 
L 134.608058 275.858662 
L 134.997644 280.900719 
L 135.062575 281.213667 
L 135.322298 277.581222 
L 135.45216 275.357755 
L 135.517091 273.833147 
L 135.582022 274.212713 
L 135.646953 273.62314 
L 135.711884 274.111913 
L 135.906676 270.417925 
L 136.101469 269.486538 
L 136.491055 261.617721 
L 136.555985 262.556009 
L 136.620916 263.011472 
L 136.685847 260.638669 
L 136.750778 261.188984 
L 136.815709 262.224107 
L 136.88064 261.850251 
L 136.945571 261.168602 
L 137.010502 261.339431 
L 137.205295 262.829937 
L 137.270225 259.86661 
L 137.335156 260.741293 
L 137.400087 262.59138 
L 137.465018 261.271623 
L 137.529949 262.893383 
L 137.59488 261.95002 
L 137.854604 260.197957 
L 137.919535 260.536045 
L 137.984465 263.289921 
L 138.049396 262.575994 
L 138.114327 262.37725 
L 138.179258 264.402447 
L 138.374051 261.873409 
L 138.438982 263.634671 
L 138.568844 258.825064 
L 138.633775 260.852086 
L 138.698705 260.864379 
L 138.763636 262.531503 
L 138.828567 261.51018 
L 139.02336 257.663764 
L 139.088291 258.977493 
L 139.153222 258.52885 
L 139.348015 256.327907 
L 139.542807 255.473289 
L 139.607738 256.433465 
L 139.932393 252.641375 
L 139.997324 255.291675 
L 140.062255 254.025926 
L 140.192116 255.346555 
L 140.257047 254.904416 
L 140.45184 249.158028 
L 140.646633 251.43479 
L 140.711564 251.517428 
L 140.841425 254.180734 
L 140.971287 252.194873 
L 141.101149 256.256134 
L 141.16608 255.869351 
L 141.231011 255.805667 
L 141.295942 254.986658 
L 141.425804 256.961733 
L 141.555665 257.142634 
L 141.685527 260.961372 
L 141.750458 258.150791 
L 141.815389 259.256101 
L 141.88032 259.838456 
L 141.945251 263.635464 
L 142.010182 262.193415 
L 142.075113 260.428187 
L 142.399767 265.951245 
L 142.659491 261.645479 
L 142.724422 261.819717 
L 143.114007 273.693565 
L 143.243869 272.063478 
L 143.373731 270.865061 
L 143.438662 270.797888 
L 143.568524 268.993165 
L 143.633455 267.768498 
L 143.763316 269.177714 
L 143.828247 268.186211 
L 143.893178 269.401441 
L 143.958109 269.062877 
L 144.02304 266.780405 
L 144.087971 267.43152 
L 144.152902 267.39028 
L 144.217833 267.735823 
L 144.412625 271.485247 
L 144.477556 270.957296 
L 144.542487 271.154613 
L 145.126865 281.303125 
L 145.191796 281.252369 
L 145.256727 280.741945 
L 145.321658 282.143944 
L 145.386589 281.891191 
L 145.45152 281.810377 
L 145.776175 289.825595 
L 145.906036 292.343927 
L 146.100829 289.057422 
L 146.295622 291.096578 
L 146.360553 290.688064 
L 146.425484 291.965947 
L 146.490415 288.658188 
L 146.555345 290.105313 
L 146.750138 288.601958 
L 147.074793 295.019764 
L 147.334516 289.675862 
L 147.399447 291.21086 
L 147.464378 291.326173 
L 147.529309 287.283867 
L 147.59424 287.383715 
L 147.724102 288.727106 
L 147.789033 288.304 
L 148.048756 284.231081 
L 148.178618 281.147365 
L 148.243549 281.846462 
L 148.30848 280.912377 
L 148.373411 282.24982 
L 148.503273 279.739815 
L 148.568204 282.011501 
L 148.892858 275.984999 
L 148.957789 276.067479 
L 149.087651 276.967857 
L 149.217513 280.053159 
L 149.477236 270.44148 
L 149.542167 270.674327 
L 149.672029 267.070671 
L 149.866822 270.855307 
L 149.931753 271.304663 
L 150.126545 274.005323 
L 150.191476 272.426072 
L 150.256407 272.937289 
L 150.321338 273.009458 
L 150.386269 271.492622 
L 150.581062 274.691968 
L 150.645993 275.284951 
L 150.775855 271.764409 
L 150.840785 274.358797 
L 150.905716 272.678746 
L 151.100509 269.236322 
L 151.16544 269.474007 
L 151.230371 269.13346 
L 151.295302 269.406199 
L 151.360233 271.124477 
L 151.425164 269.561721 
L 151.490095 270.792019 
L 151.555025 270.463527 
L 151.619956 267.695297 
L 151.684887 269.297627 
L 151.814749 267.143316 
L 151.87968 270.534746 
L 151.944611 270.49184 
L 152.269265 262.365353 
L 152.334196 262.787746 
L 152.528989 265.084572 
L 152.59392 267.94353 
L 152.658851 267.728923 
L 152.723782 267.858829 
L 152.853644 274.292575 
L 152.918575 273.309717 
L 152.983505 274.486482 
L 153.048436 273.905396 
L 153.113367 273.512982 
L 153.178298 274.490765 
L 153.243229 277.324741 
L 153.30816 276.735486 
L 153.438022 273.768273 
L 153.567884 275.669037 
L 153.697745 274.553973 
L 153.827607 276.006174 
L 153.892538 274.499965 
L 153.957469 275.013719 
L 154.0224 274.481169 
L 154.087331 274.772862 
L 154.152262 275.050597 
L 154.217193 273.807451 
L 154.282124 274.083997 
L 154.411985 275.227215 
L 154.476916 275.177806 
L 154.541847 276.801708 
L 154.606778 276.262734 
L 154.73664 275.490675 
L 154.801571 277.412297 
L 154.931433 275.407243 
L 155.126225 278.841895 
L 155.191156 279.110034 
L 155.256087 277.83112 
L 155.515811 287.29727 
L 155.645673 285.765444 
L 155.775535 285.874889 
L 155.970327 288.051247 
L 156.035258 288.2971 
L 156.16512 291.626273 
L 156.230051 289.856128 
L 156.294982 294.588251 
L 156.359913 292.590098 
L 156.424844 291.788695 
L 156.489775 292.001239 
L 156.554705 292.1409 
L 156.684567 293.400383 
L 156.749498 292.353285 
L 156.944291 295.759069 
L 157.139084 292.258909 
L 157.204015 292.833255 
L 157.268945 295.336042 
L 157.333876 291.756179 
L 157.398807 294.028578 
L 157.5936 297.43111 
L 157.788393 293.55194 
L 157.853324 293.808024 
L 157.918255 294.355246 
L 158.177978 290.934949 
L 158.242909 293.681607 
L 158.30784 293.201242 
L 158.437702 290.986182 
L 158.502633 291.732624 
L 158.567564 290.817891 
L 158.632495 291.438235 
L 158.697425 291.626352 
L 158.762356 290.734221 
L 158.827287 293.026924 
L 158.892218 292.100135 
L 158.957149 292.629038 
L 159.02208 291.596691 
L 159.087011 287.817686 
L 159.151942 289.144264 
L 159.281804 285.586527 
L 159.346735 282.748664 
L 159.411665 283.671408 
L 159.476596 286.374685 
L 159.541527 284.761014 
L 159.606458 284.631664 
L 159.73632 281.776354 
L 159.801251 282.612573 
L 159.866182 282.286063 
L 159.931113 283.455136 
L 160.255767 275.680616 
L 160.580422 281.427242 
L 160.645353 279.106148 
L 160.710284 284.045026 
L 160.775215 283.231171 
L 160.970007 286.29736 
L 161.034938 285.145418 
L 161.099869 285.953086 
L 161.1648 286.39816 
L 161.554385 279.368973 
L 161.619316 278.802558 
L 161.684247 280.05419 
L 161.814109 276.421825 
L 161.87904 277.859591 
L 162.203695 268.617961 
L 162.268625 269.351635 
L 162.333556 267.515507 
L 162.398487 268.16575 
L 162.463418 267.863033 
L 162.59328 264.935791 
L 162.723142 266.579678 
L 162.788073 262.664739 
L 162.853004 263.66108 
L 162.917935 264.344077 
L 163.30752 260.695929 
L 163.697105 266.53471 
L 163.762036 265.596423 
L 163.826967 267.245068 
L 163.891898 266.645582 
L 163.956829 265.3516 
L 164.02176 265.604829 
L 164.216553 270.928349 
L 164.281484 271.286343 
L 164.346415 270.710253 
L 164.411345 271.086171 
L 164.476276 271.151679 
L 164.541207 272.086081 
L 164.800931 268.461408 
L 164.995724 269.458621 
L 165.060655 269.686472 
L 165.255447 273.102169 
L 165.320378 269.863566 
L 165.385309 271.045565 
L 165.45024 269.584879 
L 165.515171 270.558617 
L 165.774895 277.315542 
L 165.904756 278.494924 
L 165.969687 274.925529 
L 166.034618 276.702494 
L 166.099549 276.630007 
L 166.16448 278.656156 
L 166.229411 277.810817 
L 166.424204 273.493948 
L 166.489135 272.74584 
L 166.618996 275.265283 
L 166.683927 278.857756 
L 166.748858 278.756243 
L 166.87872 276.608911 
L 166.943651 277.462419 
L 167.203375 273.172832 
L 167.398167 276.70987 
L 167.463098 274.388696 
L 167.722822 279.555346 
L 167.982545 283.735488 
L 168.047476 282.580056 
L 168.112407 283.964132 
L 168.177338 283.089052 
L 168.242269 283.870787 
L 168.372131 282.242048 
L 168.437062 282.38377 
L 168.761716 290.80195 
L 168.891578 289.789351 
L 169.151302 298.606131 
L 169.216233 297.038062 
L 169.281164 295.772472 
L 169.411025 300.483103 
L 169.475956 300.105916 
L 169.540887 301.550662 
L 169.605818 300.80525 
L 169.73568 301.645434 
L 169.930473 297.976667 
L 169.995404 301.279985 
L 170.060335 300.061266 
L 170.125265 300.119081 
L 170.190196 301.858296 
L 170.384989 298.880138 
L 170.514851 302.128973 
L 170.579782 301.957272 
L 170.644713 299.946746 
L 170.709644 301.142545 
L 170.839505 301.751548 
L 170.904436 301.50395 
L 170.969367 300.645128 
L 171.034298 300.909064 
L 171.099229 301.001616 
L 171.229091 303.103107 
L 171.294022 302.753995 
L 171.488815 303.653978 
L 171.553745 303.761122 
L 171.618676 302.597918 
L 171.683607 303.474822 
L 171.8784 301.105826 
L 171.943331 302.493787 
L 172.138124 298.562274 
L 172.267985 294.577624 
L 172.462778 295.924663 
L 172.527709 294.884307 
L 172.59264 296.294474 
L 172.657571 295.698716 
L 172.722502 295.542639 
L 172.982225 299.836032 
L 173.177018 294.266501 
L 173.241949 295.256418 
L 173.30688 295.465076 
L 173.371811 294.878517 
L 173.436742 295.293216 
L 173.501673 295.366814 
L 173.631535 296.846217 
L 173.761396 295.213274 
L 173.891258 289.935515 
L 173.956189 291.849286 
L 174.02112 288.320179 
L 174.086051 288.967011 
L 174.150982 288.131665 
L 174.215913 289.392972 
L 174.280844 289.126657 
L 174.410705 288.45175 
L 174.475636 290.796399 
L 174.540567 289.848118 
L 174.605498 289.050839 
L 174.73536 293.175149 
L 174.800291 292.479067 
L 174.865222 293.07657 
L 174.930153 292.796773 
L 175.189876 289.44135 
L 175.319738 291.308487 
L 175.644393 284.654504 
L 175.774255 289.413116 
L 175.839185 287.637103 
L 176.033978 284.845239 
L 176.098909 284.444894 
L 176.423564 294.765583 
L 176.618356 288.164419 
L 176.683287 286.46803 
L 176.813149 290.832721 
L 176.87808 290.93138 
L 176.943011 291.743093 
L 177.137804 289.036009 
L 177.202735 289.243319 
L 177.267665 289.874924 
L 177.397527 285.622849 
L 177.657251 289.771586 
L 177.981905 283.989986 
L 178.176698 285.159693 
L 178.241629 284.351867 
L 178.30656 285.620232 
L 178.436422 284.018616 
L 178.566284 285.805336 
L 178.955869 281.502822 
L 179.085731 284.05367 
L 179.150662 286.74981 
L 179.215593 286.043417 
L 179.280524 285.173096 
L 179.345455 286.267382 
L 179.410385 284.2977 
L 179.540247 287.065375 
L 179.605178 287.019138 
L 179.670109 288.272674 
L 179.73504 287.203608 
L 179.799971 288.433033 
L 179.864902 287.480867 
L 180.124625 291.294688 
L 180.254487 290.222846 
L 180.319418 290.320553 
L 180.384349 291.951989 
L 180.44928 291.732069 
L 180.644073 292.988459 
L 180.709004 292.925806 
L 180.838865 294.435981 
L 180.903796 294.248894 
L 180.968727 291.10435 
L 181.033658 292.158982 
L 181.098589 292.486998 
L 181.16352 290.826535 
L 181.293382 295.652559 
L 181.358313 292.870529 
L 181.423244 293.793035 
L 181.488175 295.241428 
L 181.553105 294.429954 
L 181.618036 293.266115 
L 181.812829 296.17924 
L 182.007622 301.469054 
L 182.202415 304.472907 
L 182.267345 303.0031 
L 182.592 314.337895 
L 182.656931 312.843899 
L 182.916655 309.600855 
L 182.981585 309.833067 
L 183.111447 311.727407 
L 183.176378 310.93568 
L 183.241309 308.45954 
L 183.30624 309.156415 
L 183.371171 308.920951 
L 183.436102 307.160958 
L 183.501033 308.445978 
L 183.565964 306.986084 
L 183.630895 309.23485 
L 183.760756 304.995227 
L 184.02048 312.125849 
L 184.150342 310.742328 
L 184.345135 316.313288 
L 184.539927 320.508023 
L 184.669789 318.5956 
L 184.929513 326.594481 
L 185.059375 327.574009 
L 185.124305 326.88784 
L 185.254167 328.016862 
L 185.319098 327.107998 
L 185.44896 329.643698 
L 185.513891 331.637649 
L 185.578822 330.847111 
L 185.643753 328.483746 
L 185.708684 330.812295 
L 185.773615 330.793975 
L 185.838545 330.630919 
L 185.903476 331.263158 
L 185.968407 328.533075 
L 186.033338 328.844119 
L 186.293062 332.11397 
L 186.357993 332.686888 
L 186.552785 325.710043 
L 186.617716 326.398512 
L 186.682647 325.973424 
L 186.747578 325.685141 
L 186.812509 327.832869 
L 186.87744 326.308419 
L 187.007302 328.815172 
L 187.072233 328.055247 
L 187.137164 328.183567 
L 187.202095 326.36552 
L 187.267025 326.914963 
L 187.396887 327.760937 
L 187.461818 327.611839 
L 187.526749 326.962548 
L 187.656611 327.506439 
L 187.786473 324.469197 
L 187.916335 330.776844 
L 187.981265 329.519344 
L 188.176058 331.750583 
L 188.240989 330.141353 
L 188.30592 333.683704 
L 188.370851 332.404791 
L 188.435782 332.486398 
L 188.500713 332.202556 
L 188.695505 327.977605 
L 188.760436 328.808352 
L 189.02016 321.119563 
L 189.085091 319.651422 
L 189.150022 319.69401 
L 189.214953 319.748653 
L 189.539607 313.066278 
L 189.799331 316.409329 
L 190.123985 310.756128 
L 190.253847 316.756141 
L 190.318778 314.813899 
L 190.44864 315.945697 
L 190.643433 312.040831 
L 190.708364 312.252582 
L 190.773295 313.343695 
L 190.968087 309.435736 
L 191.16288 313.923751 
L 191.227811 311.630573 
L 191.292742 311.690926 
L 191.357673 311.260445 
L 191.422604 307.701359 
L 191.487535 308.232879 
L 191.552465 307.341462 
L 191.617396 309.841474 
L 191.682327 309.046019 
L 191.747258 309.818078 
L 191.812189 309.372845 
L 191.942051 307.073799 
L 192.006982 304.193983 
L 192.071913 305.682823 
L 192.201775 303.45436 
L 192.331636 306.845869 
L 192.396567 306.735948 
L 192.59136 311.834314 
L 192.656291 311.405419 
L 192.786153 312.298818 
L 192.916015 314.397058 
L 192.980945 314.370411 
L 193.175738 319.551891 
L 193.240669 320.166207 
L 193.370531 323.882956 
L 193.565324 319.650153 
L 193.630255 318.581801 
L 193.695185 320.651332 
L 193.825047 317.274019 
L 194.149702 325.372272 
L 194.214633 324.866925 
L 194.279564 325.398206 
L 194.409425 320.462976 
L 194.474356 321.191416 
L 194.669149 317.782777 
L 194.73408 316.785881 
L 194.993804 308.973294 
L 195.058735 311.057496 
L 195.123665 309.634481 
L 195.188596 310.71576 
L 195.253527 310.26339 
L 195.318458 310.019916 
L 195.383389 311.607732 
L 195.44832 310.913077 
L 195.513251 311.191209 
L 195.967767 328.912403 
L 196.032698 330.69032 
L 196.292422 326.637387 
L 196.552145 335.240274 
L 196.682007 337.811345 
L 196.746938 335.198082 
L 196.811869 338.506555 
L 196.8768 337.904611 
L 196.941731 336.496426 
L 197.071593 340.844621 
L 197.136524 339.626378 
L 197.201455 340.150284 
L 197.526109 344.334551 
L 197.59104 344.467867 
L 197.655971 344.033023 
L 197.793318 346.6 
L 197.793318 346.6 
" clip-path="url(#pdd013e045f)" style="fill: none; stroke: #1f77b4; stroke-width: 1.5; stroke-linecap: square"/>
   </g>
   <g id="patch_3">
    <path d="M 57.6 307.584 
L 57.6 41.472 
" style="fill: none; stroke: #000000; stroke-width: 0.8; stroke-linejoin: miter; stroke-linecap: square"/>
   </g>
   <g id="patch_4">
    <path d="M 414.72 307.584 
L 414.72 41.472 
" style="fill: none; stroke: #000000; stroke-width: 0.8; stroke-linejoin: miter; stroke-linecap: square"/>
   </g>
   <g id="patch_5">
    <path d="M 57.6 307.584 
L 414.72 307.584 
" style="fill: none; stroke: #000000; stroke-width: 0.8; stroke-linejoin: miter; stroke-linecap: square"/>
   </g>
   <g id="patch_6">
    <path d="M 57.6 41.472 
L 414.72 41.472 
" style="fill: none; stroke: #000000; stroke-width: 0.8; stroke-linejoin: miter; stroke-linecap: square"/>
   </g>
  </g>
 </g>
 <defs>
  <clipPath id="pdd013e045f">
   <rect x="57.6" y="41.472" width="357.12" height="266.112"/>
  </clipPath>
 </defs>
</svg>
